<?xml version="1.0" encoding="UTF-8"?>
<svg width="1000" height="1000" viewBox="0 0 1000 1000" version="1.1" xmlns="http://www.w3.org/2000/svg" xmlns:xlink="http://www.w3.org/1999/xlink">
 <path d="M163.5,92 c-1.33,-0.67,-3.0,-1.33,-5,-2 c-2.0,-0.67,-4.33,-1,-7,-1 c-11.33,0,-18.17,6.17,-20.5,18.5 c-2.0,13.67,-3.5,26.17,-4.5,37.5 c-1.0,11.33,-1.75,23.25,-2.25,35.75 c-0.5,12.5,-0.75,27.25,-0.75,44.25 l0,75 c0,8.33,-0.17,16.67,-0.5,25 c-0.33,8.33,-1.17,16.67,-2.5,25 c9.0,2.0,17.0,3,24,3 c11.33,0,19.58,-1.92,24.75,-5.75 c5.17,-3.83,7.75,-11.08,7.75,-21.75 l0,-100 c0,-17.0,-0.5,-32.33,-1.5,-46 c-1.0,-13.67,-2.42,-27.25,-4.25,-40.75 c-1.83,-13.5,-4.42,-29.08,-7.75,-46.75 Z M162.5,-5 l-7,0 c-5.67,0,-10.67,0.5,-15,1.5 c-4.33,1.0,-8.92,3.17,-13.75,6.5 c-4.83,3.33,-11.25,8.67,-19.25,16 c-22.33,20.33,-42.0,43.5,-59,69.5 c-17.0,26.0,-32.0,57.0,-45,93 c4.0,2.33,9.0,4.08,15,5.25 c6.0,1.17,11.67,1.75,17,1.75 c9.67,0,16.92,-1.92,21.75,-5.75 c4.83,-3.83,9.58,-11.75,14.25,-23.75 c6.33,-15.67,12.75,-30.0,19.25,-43 c6.5,-13.0,14.25,-25.5,23.25,-37.5 c9.0,-12.0,20.5,-24.33,34.5,-37 l3,0 c14.0,12.67,25.5,25.0,34.5,37 c9.0,12.0,16.67,24.5,23,37.5 c6.33,13.0,12.67,27.33,19,43 c5.0,12.0,9.83,19.92,14.5,23.75 c4.67,3.83,12.0,5.75,22,5.75 c5.0,0,10.58,-0.58,16.75,-1.75 c6.17,-1.17,11.25,-2.92,15.25,-5.25 c-15.33,-41.33,-33.75,-77.33,-55.25,-108 c-21.5,-30.67,-47.75,-56.83,-78.75,-78.5 Z M162.5,-5" fill="rgb(0,0,0)" transform="matrix(2.5139664804469275,0.0,0.0,-2.5139664804469275,122.90502793296088,937.4301675977654)"/>
</svg>