<?xml version="1.0" encoding="UTF-8"?>
<svg width="1000" height="1000" viewBox="0 0 1000 1000" version="1.1" xmlns="http://www.w3.org/2000/svg" xmlns:xlink="http://www.w3.org/1999/xlink">
 <path d="M134,380 l16,0 c5.0,0,9.5,-1.0,13.5,-3 c4.0,-2.0,9.5,-6.83,16.5,-14.5 c13.67,-14.33,26.0,-29.75,37,-46.25 c11.0,-16.5,21.0,-35.25,30,-56.25 c9.0,-21.0,17.17,-45.67,24.5,-74 c-3.33,-1.33,-6.67,-2.17,-10,-2.5 c-3.33,-0.33,-7.17,-0.5,-11.5,-0.5 c-10.33,0,-18.5,1.08,-24.5,3.25 c-6.0,2.17,-9.83,6.08,-11.5,11.75 c-5.67,18.67,-11.33,34.92,-17,48.75 c-5.67,13.83,-12.33,26.83,-20,39 c-7.67,12.17,-17.5,25.25,-29.5,39.25 c-13.0,-16.0,-24.08,-31.17,-33.25,-45.5 c-9.17,-14.33,-16.83,-29.17,-23,-44.5 c-6.17,-15.33,-11.42,-33.0,-15.75,-53 l-8,0 c-13.33,0,-23.5,1.92,-30.5,5.75 c-7.0,3.83,-10.5,8.42,-10.5,13.75 c0,6.33,3.5,18.67,10.5,37 c11.33,29.67,25.58,56.75,42.75,81.25 c17.17,24.5,35.25,44.58,54.25,60.25 Z M134,380" fill="rgb(0,0,0)" transform="matrix(3.673469387755102,0.0,0.0,-3.673469387755102,-47.34693877551024,1532.2448979591836)"/>
</svg>