<?xml version="1.0" encoding="UTF-8"?>
<svg width="1000" height="1000" viewBox="0 0 1000 1000" version="1.1" xmlns="http://www.w3.org/2000/svg" xmlns:xlink="http://www.w3.org/1999/xlink">
 <path d="M148,274 c12.67,0,21.0,-3.42,25,-10.25 c4.0,-6.83,4.83,-17.75,2.5,-32.75 c-1.33,-11.33,-2.75,-20.83,-4.25,-28.5 c-1.5,-7.67,-3.58,-15.83,-6.25,-24.5 l3,-2 c6.33,5.33,12.75,10.5,19.25,15.5 c6.5,5.0,14.25,10.75,23.25,17.25 c9.0,6.5,20.17,14.25,33.5,23.25 c5.33,-5.33,9.17,-10.33,11.5,-15 c5.0,-9.0,7.08,-16.92,6.25,-23.75 c-0.83,-6.83,-4.75,-11.58,-11.75,-14.25 c-14.33,-6.33,-26.42,-11.33,-36.25,-15 c-9.83,-3.67,-20.92,-7.83,-33.25,-12.5 l0,-3 c14.33,-5.33,28.0,-10.67,41,-16 c13.0,-5.33,28.67,-12.17,47,-20.5 c-2.0,-8.0,-4.5,-14.17,-7.5,-18.5 c-5.0,-8.67,-10.83,-14.25,-17.5,-16.75 c-6.67,-2.5,-13.5,-1.25,-20.5,3.75 c-8.0,5.67,-14.92,10.67,-20.75,15 c-5.83,4.33,-11.42,8.75,-16.75,13.25 c-5.33,4.5,-11.5,9.58,-18.5,15.25 l-3,-1.5 c1.67,-11.33,3.0,-20.83,4,-28.5 c1.0,-7.67,2.17,-17.17,3.5,-28.5 c1.0,-8.33,2.25,-15.08,3.75,-20.25 c1.5,-5.17,3.42,-10.58,5.75,-16.25 c-9.33,-2.33,-18.67,-3.5,-28,-3.5 c-13.33,0,-22.0,3.5,-26,10.5 c-4.0,7.0,-4.83,17.83,-2.5,32.5 c1.67,10.67,3.25,19.67,4.75,27 c1.5,7.33,3.42,16.17,5.75,26.5 l-3,2 c-13.33,-10.33,-25.42,-19.5,-36.25,-27.5 c-10.83,-8.0,-23.75,-17.33,-38.75,-28 c-2.33,2.33,-4.5,4.67,-6.5,7 c-2.0,2.33,-4.0,5.17,-6,8.5 c-4.67,8.33,-6.5,16.08,-5.5,23.25 c1.0,7.17,4.83,12.25,11.5,15.25 c12.67,5.67,24.25,10.33,34.75,14 c10.5,3.67,22.25,8.0,35.25,13 l0,3 c-10.67,4.33,-20.5,8.25,-29.5,11.75 c-9.0,3.5,-18.08,7.25,-27.25,11.25 c-9.17,4.0,-19.75,8.67,-31.75,14 c0.67,3.0,1.58,6.17,2.75,9.5 c1.17,3.33,2.58,6.33,4.25,9 c5.33,8.33,11.17,13.75,17.5,16.25 c6.33,2.5,12.67,1.42,19,-3.25 c12.0,-8.0,22.42,-15.58,31.25,-22.75 c8.83,-7.17,17.92,-14.58,27.25,-22.25 l3,2 c-1.33,10.0,-2.67,19.17,-4,27.5 c-1.33,8.33,-2.83,18.67,-4.5,31 c-1.33,7.0,-2.58,12.92,-3.75,17.75 c-1.17,4.83,-2.92,9.92,-5.25,15.25 c6.67,3.0,16.17,4.5,28.5,4.5 Z M148,274" fill="rgb(0,0,0)" transform="matrix(3.6217303822937628,0.0,0.0,-3.6217303822937628,-44.16498993963785,1042.354124748491)"/>
</svg>