<?xml version="1.0" encoding="UTF-8"?>
<svg width="1000" height="1000" viewBox="0 0 1000 1000" version="1.1" xmlns="http://www.w3.org/2000/svg" xmlns:xlink="http://www.w3.org/1999/xlink">
 <path d="M133,14 c-9.0,0,-16.42,7.75,-22.25,23.25 c-5.83,15.5,-8.75,37.92,-8.75,67.25 l0,5.5 c0,30.67,2.0,56.92,6,78.75 c4.0,21.83,9.17,38.58,15.5,50.25 c6.33,11.67,12.83,17.5,19.5,17.5 c5.67,0,10.0,-2.25,13,-6.75 c3.0,-4.5,5.17,-12.08,6.5,-22.75 l2,0 c3.0,8.33,7.0,17.0,12,26 l2.5,0 c8.0,0,13.5,-2.67,16.5,-8 c3.0,-5.33,4.5,-14.67,4.5,-28 l0,-131 c0,-9.33,0.33,-17.5,1,-24.5 c0.67,-7.0,2.17,-13.33,4.5,-19 l2.5,0 c13.0,6.33,22.67,20.5,29,42.5 c6.33,22.0,9.5,51.33,9.5,88 l0,7 c0,23.67,-1.83,45.33,-5.5,65 c-3.67,19.67,-9.83,38.33,-18.5,56 c-8.33,6.0,-17.67,10.33,-28,13 c-10.33,2.67,-21.83,4,-34.5,4 c-22.0,0,-41.0,-8.33,-57,-25 c-16.0,-16.67,-28.33,-40.67,-37,-72 c-8.67,-31.33,-13,-69.0,-13,-113 l0,-5 c0,-24.0,2.17,-47.08,6.5,-69.25 c4.33,-22.17,11.67,-41.58,22,-58.25 c10.33,-5.33,21.25,-9.5,32.75,-12.5 c11.5,-3.0,24.08,-4.5,37.75,-4.5 c16.0,0,31.42,1.75,46.25,5.25 c14.83,3.5,27.25,8.92,37.25,16.25 l2,-0.5 l0,-3.5 c0,-6.33,-1.17,-12.58,-3.5,-18.75 c-2.33,-6.17,-6.17,-11.92,-11.5,-17.25 c-6.33,-6.33,-15.33,-11.17,-27,-14.5 c-11.67,-3.33,-24.83,-5,-39.5,-5 c-47.33,0,-82.0,16.33,-104,49 c-22.0,32.67,-33,78.17,-33,136.5 l0,6 c0,51.0,5.75,94.83,17.25,131.5 c11.5,36.67,27.67,64.83,48.5,84.5 c20.83,19.67,44.92,29.5,72.25,29.5 c39.0,0,69.25,-15.58,90.75,-46.75 c21.5,-31.17,32.25,-76.08,32.25,-134.75 l0,-6.5 c0,-32.67,-3.33,-60.58,-10,-83.75 c-6.67,-23.17,-15.75,-40.92,-27.25,-53.25 c-11.5,-12.33,-24.58,-18.5,-39.25,-18.5 l-1.5,0 c-8.67,0,-16.42,2.58,-23.25,7.75 c-6.83,5.17,-12.58,12.42,-17.25,21.75 l-3.5,0 c-3.33,-10.33,-6.92,-17.83,-10.75,-22.5 c-3.83,-4.67,-8.58,-7,-14.25,-7 Z M133,14" fill="rgb(0,0,0)" transform="matrix(2.059496567505721,0.0,0.0,-2.059496567505721,192.10526315789474,786.2700228832952)"/>
</svg>