<?xml version="1.0" encoding="UTF-8"?>
<svg width="1000" height="1000" viewBox="0 0 1000 1000" version="1.1" xmlns="http://www.w3.org/2000/svg" xmlns:xlink="http://www.w3.org/1999/xlink">
 <path d="M31.5,375.5 c4.67,2.0,8.92,3.5,12.75,4.5 c3.83,1.0,8.08,1.5,12.75,1.5 c10.0,0,18.33,-1.83,25,-5.5 c6.67,-3.67,11.0,-9.33,13,-17 c16.67,-68.67,37.25,-134.83,61.75,-198.5 c24.5,-63.67,53.25,-124.33,86.25,-182 c8.33,-16.0,17.5,-29.17,27.5,-39.5 c-9.0,-5.0,-19.17,-7.5,-30.5,-7.5 c-19.33,0,-34.67,9.5,-46,28.5 c-71.33,119.67,-125.5,258.17,-162.5,415.5 Z M31.5,375.5" fill="rgb(0,0,0)" transform="matrix(2.0,0.0,0.0,-2.0,198.0,813.0)"/>
</svg>