<?xml version="1.0" encoding="UTF-8"?>
<svg width="1000" height="1000" viewBox="0 0 1000 1000" version="1.1" xmlns="http://www.w3.org/2000/svg" xmlns:xlink="http://www.w3.org/1999/xlink">
 <path d="M117,379.5 c3.67,1.0,7.25,1.67,10.75,2 c3.5,0.33,7.42,0.5,11.75,0.5 c13.67,0,23.5,-3.75,29.5,-11.25 c6.0,-7.5,9,-17.58,9,-30.25 l0,-421 c-1.33,-0.33,-3.08,-0.5,-5.25,-0.5 c-2.17,0,-4.58,0,-7.25,0 c-29.0,0,-43.5,7.83,-43.5,23.5 l0,382 c0,9.67,-0.42,19.0,-1.25,28 c-0.83,9.0,-2.08,18.0,-3.75,27 Z M117,379.5" fill="rgb(0,0,0)" transform="matrix(1.9438444924406046,0.0,0.0,-1.9438444924406046,213.28293736501078,792.5485961123111)"/>
</svg>