<?xml version="1.0" encoding="UTF-8"?>
<svg width="1000" height="1000" viewBox="0 0 1000 1000" version="1.1" xmlns="http://www.w3.org/2000/svg" xmlns:xlink="http://www.w3.org/1999/xlink">
 <path d="M190,76.5 c0,-12.33,-1.67,-23.83,-5,-34.5 c-3.33,-10.67,-7.0,-20.33,-11,-29 c-4.0,-8.67,-7.0,-16.17,-9,-22.5 c0,-1.33,-0.08,-2.58,-0.25,-3.75 c-0.17,-1.17,-0.25,-2.42,-0.25,-3.75 c6.33,-4.67,13.92,-8.0,22.75,-10 c8.83,-2.0,19.75,-3,32.75,-3 c11.33,0,22.33,1.83,33,5.5 l3,0 c0.67,-1.67,1.17,-4.08,1.5,-7.25 c0.33,-3.17,0.5,-6.25,0.5,-9.25 c0,-12.33,-2.83,-22.92,-8.5,-31.75 c-5.67,-8.83,-14.33,-13.25,-26,-13.25 l-2.5,0 c-33.0,0,-58.5,4.75,-76.5,14.25 c-18.0,9.5,-27,23.92,-27,43.25 l0,2.5 c0,8.67,1.83,17.75,5.5,27.25 c3.67,9.5,7.33,19.75,11,30.75 c3.67,11.0,5.5,23.17,5.5,36.5 c0,17.0,-5.17,30.67,-15.5,41 c-10.33,10.33,-24.83,15.5,-43.5,15.5 l-1.5,0 c-8.33,0,-14.25,2.33,-17.75,7 c-3.5,4.67,-5.25,12.17,-5.25,22.5 c0,7.33,1.0,14.0,3,20 l8.5,0 c23.0,0,40.75,5.0,53.25,15 c12.5,10.0,18.75,23.83,18.75,41.5 c0,13.33,-1.83,25.25,-5.5,35.75 c-3.67,10.5,-7.33,20.33,-11,29.5 c-3.67,9.17,-5.5,18.08,-5.5,26.75 l0,3 c0,12.33,4.67,22.92,14,31.75 c9.33,8.83,22.08,15.58,38.25,20.25 c16.17,4.67,34.42,7,54.75,7 l2,0 c9.67,0,17.42,-3.67,23.25,-11 c5.83,-7.33,8.75,-16.17,8.75,-26.5 c0,-4.33,-0.17,-8.42,-0.5,-12.25 c-0.33,-3.83,-1.0,-7.08,-2,-9.75 l-3,0 c-4.33,1.33,-8.75,2.33,-13.25,3 c-4.5,0.67,-10.08,1,-16.75,1 c-12.0,0,-23.25,-1.33,-33.75,-4 c-10.5,-2.67,-18.58,-6.83,-24.25,-12.5 c0,-1.0,0.08,-2.0,0.25,-3 c0.17,-1.0,0.42,-2.0,0.75,-3 c1.67,-6.0,4.42,-13.25,8.25,-21.75 c3.83,-8.5,7.42,-17.92,10.75,-28.25 c3.33,-10.33,5,-21.67,5,-34 c0,-17.33,-5.0,-32.08,-15,-44.25 c-10.0,-12.17,-24.33,-21.08,-43,-26.75 l0,-3 c19.67,-6.33,34.25,-15.58,43.75,-27.75 c9.5,-12.17,14.25,-27.08,14.25,-44.75 Z M190,76.5" fill="rgb(0,0,0)" transform="matrix(1.910828025477707,0.0,0.0,-1.910828025477707,199.5222929936306,785.6687898089172)"/>
</svg>