<?xml version="1.0" encoding="UTF-8"?>
<svg width="1000" height="1000" viewBox="0 0 1000 1000" version="1.1" xmlns="http://www.w3.org/2000/svg" xmlns:xlink="http://www.w3.org/1999/xlink">
 <path d="M110,222.5 c0,12.33,1.67,23.83,5,34.5 c3.33,10.67,7.08,20.33,11.25,29 c4.17,8.67,7.08,16.17,8.75,22.5 c0,1.67,0.08,3.0,0.25,4 c0.17,1.0,0.25,2.17,0.25,3.5 c-6.33,5.0,-13.92,8.42,-22.75,10.25 c-8.83,1.83,-19.75,2.75,-32.75,2.75 c-11.33,0,-22.33,-1.83,-33,-5.5 l-3,0 c-0.67,1.67,-1.17,4.08,-1.5,7.25 c-0.33,3.17,-0.5,6.25,-0.5,9.25 c0,12.67,2.92,23.33,8.75,32 c5.83,8.67,14.42,13,25.75,13 l2.5,0 c33.0,0,58.5,-4.75,76.5,-14.25 c18.0,-9.5,27,-23.92,27,-43.25 l0,-2.5 c0,-8.67,-1.83,-17.75,-5.5,-27.25 c-3.67,-9.5,-7.33,-19.75,-11,-30.75 c-3.67,-11.0,-5.5,-23.17,-5.5,-36.5 c0,-17.0,5.25,-30.67,15.75,-41 c10.5,-10.33,24.92,-15.5,43.25,-15.5 l1.5,0 c8.33,0,14.25,-2.25,17.75,-6.75 c3.5,-4.5,5.25,-12.08,5.25,-22.75 c0,-7.33,-1.0,-14.0,-3,-20 l-8.5,0 c-23.0,0,-40.75,-5.0,-53.25,-15 c-12.5,-10.0,-18.75,-23.83,-18.75,-41.5 c0,-13.33,1.83,-25.25,5.5,-35.75 c3.67,-10.5,7.33,-20.25,11,-29.25 c3.67,-9.0,5.5,-18.0,5.5,-27 l0,-3 c0,-12.33,-4.67,-22.92,-14,-31.75 c-9.33,-8.83,-22.0,-15.58,-38,-20.25 c-16.0,-4.67,-34.33,-7,-55,-7 l-2,0 c-9.33,0,-17.0,3.67,-23,11 c-6.0,7.33,-9,16.17,-9,26.5 c0,4.33,0.17,8.42,0.5,12.25 c0.33,3.83,1.0,7.08,2,9.75 l3,0 c4.33,-1.33,8.83,-2.33,13.5,-3 c4.67,-0.67,10.17,-1,16.5,-1 c12.0,0,23.25,1.42,33.75,4.25 c10.5,2.83,18.58,6.92,24.25,12.25 c0,1.0,-0.08,2.0,-0.25,3 c-0.17,1.0,-0.42,2.0,-0.75,3 c-1.67,6.33,-4.42,13.67,-8.25,22 c-3.83,8.33,-7.42,17.75,-10.75,28.25 c-3.33,10.5,-5,21.75,-5,33.75 c0,17.67,5.08,32.5,15.25,44.5 c10.17,12.0,24.42,20.83,42.75,26.5 l0,3 c-19.67,6.33,-34.25,15.67,-43.75,28 c-9.5,12.33,-14.25,27.17,-14.25,44.5 Z M110,222.5" fill="rgb(0,0,0)" transform="matrix(1.910828025477707,0.0,0.0,-1.910828025477707,227.22929936305732,785.6687898089172)"/>
</svg>