<?xml version="1.0" encoding="UTF-8"?>
<svg width="1000" height="1000" viewBox="0 0 1000 1000" version="1.1" xmlns="http://www.w3.org/2000/svg" xmlns:xlink="http://www.w3.org/1999/xlink">
 <path d="M117,379.5 c3.67,1.0,7.25,1.67,10.75,2 c3.5,0.33,7.42,0.5,11.75,0.5 c8.67,0,15.33,-0.67,20,-2 c4.67,-1.33,8.33,-3.33,11,-6 c3.0,-2.67,5.0,-6.0,6,-10 c1.0,-4.0,1.5,-8.83,1.5,-14.5 l0,-165 c-1.33,-0.33,-3.08,-0.5,-5.25,-0.5 c-2.17,0,-4.58,0,-7.25,0 c-29.0,0,-43.5,7.83,-43.5,23.5 l0,117 c0,9.67,-0.42,19.0,-1.25,28 c-0.83,9.0,-2.08,18.0,-3.75,27 Z M122,114.5 c2.67,1.0,5.67,1.67,9,2 c3.33,0.33,6.83,0.5,10.5,0.5 c13.33,0,22.75,-2.17,28.25,-6.5 c5.5,-4.33,8.25,-11.33,8.25,-21 l0,-170 c-1.33,-0.33,-3.08,-0.5,-5.25,-0.5 c-2.17,0,-4.58,0,-7.25,0 c-29.0,0,-43.5,7.83,-43.5,23.5 Z M122,114.5" fill="rgb(0,0,0)" transform="matrix(1.9438444924406046,0.0,0.0,-1.9438444924406046,213.28293736501078,792.5485961123111)"/>
</svg>