<?xml version="1.0" encoding="UTF-8"?>
<svg width="1000" height="1000" viewBox="0 0 1000 1000" version="1.1" xmlns="http://www.w3.org/2000/svg" xmlns:xlink="http://www.w3.org/1999/xlink">
 <path d="M175,272.5 c17.33,0,32.08,-1.83,44.25,-5.5 c12.17,-3.67,21.42,-8.83,27.75,-15.5 c4.0,-4.0,6.83,-8.5,8.5,-13.5 c1.67,-5.0,2.5,-11.83,2.5,-20.5 c0,-6.33,-0.5,-11.83,-1.5,-16.5 c-1.0,-4.67,-2.33,-9.5,-4,-14.5 l-3,0 c-12.0,11.67,-23.67,19.92,-35,24.75 c-11.33,4.83,-25.83,7.25,-43.5,7.25 c-17.33,0,-32.42,-4.33,-45.25,-13 c-12.83,-8.67,-22.75,-20.58,-29.75,-35.75 c-7.0,-15.17,-10.5,-32.58,-10.5,-52.25 l0,-6 c0,-9.67,1.17,-19.08,3.5,-28.25 c2.33,-9.17,6.5,-17.75,12.5,-25.75 c18.33,-7.67,39.0,-11.5,62,-11.5 c20.67,0,38.17,2.58,52.5,7.75 c14.33,5.17,27.67,13.08,40,23.75 l3,0 c0.67,-2.33,1.08,-4.92,1.25,-7.75 c0.17,-2.83,0.25,-6.42,0.25,-10.75 c0,-8.33,-1.08,-15.92,-3.25,-22.75 c-2.17,-6.83,-5.75,-12.75,-10.75,-17.75 c-7.0,-7.0,-17.42,-12.75,-31.25,-17.25 c-13.83,-4.5,-31.08,-6.75,-51.75,-6.75 c-24.0,0,-46.0,5.33,-66,16 c-20.0,10.67,-35.92,25.25,-47.75,43.75 c-11.83,18.5,-17.75,39.25,-17.75,62.25 l0,6.5 c0,31.0,6.17,57.67,18.5,80 c12.33,22.33,29.25,39.5,50.75,51.5 c21.5,12.0,46.08,18,73.75,18 Z M125.5,376.5 c10.0,3.33,21.5,5,34.5,5 c12.67,0,22.75,-2.08,30.25,-6.25 c7.5,-4.17,11.25,-11.25,11.25,-21.25 l0,-32 c-8.67,-3.33,-19.17,-5,-31.5,-5 c-13.33,0,-24.08,2.83,-32.25,8.5 c-8.17,5.67,-12.25,13.5,-12.25,23.5 Z M125.5,376.5" fill="rgb(0,0,0)" transform="matrix(2.3255813953488373,0.0,0.0,-2.3255813953488373,159.88372093023253,937.2093023255813)"/>
</svg>