<?xml version="1.0" encoding="UTF-8"?>
<svg width="1000" height="1000" viewBox="0 0 1000 1000" version="1.1" xmlns="http://www.w3.org/2000/svg" xmlns:xlink="http://www.w3.org/1999/xlink">
 <path d="M165.5,14.5 c-1.0,-4.33,-2.0,-9.92,-3,-16.75 c-1.0,-6.83,-1.83,-12.08,-2.5,-15.75 l0,-2.5 c13.33,-1.0,23.83,-5.25,31.5,-12.75 c7.67,-7.5,11.5,-17.42,11.5,-29.75 c0,-17.33,-6.08,-30.83,-18.25,-40.5 c-12.17,-9.67,-29.42,-14.5,-51.75,-14.5 c-15.33,0,-26.33,2.92,-33,8.75 c-6.67,5.83,-10,12.92,-10,21.25 c0,7.67,1.5,15.17,4.5,22.5 l3,0 c4.67,-4.0,9.42,-6.92,14.25,-8.75 c4.83,-1.83,11.25,-2.75,19.25,-2.75 c18.33,0,27.5,6.83,27.5,20.5 c0,11.33,-7.67,17,-23,17 c-6.0,0,-9,2.5,-9,7.5 c0,5.0,0.75,11.67,2.25,20 c1.5,8.33,3.75,14.83,6.75,19.5 c1.33,2.33,4.08,4.17,8.25,5.5 c4.17,1.33,11.42,1.83,21.75,1.5 Z M165.5,14.5" fill="rgb(0,0,0)" transform="matrix(6.787330251223093,0.0,0.0,-6.787330251223093,-494.3438818041831,149.09503035567502)"/>
</svg>