<?xml version="1.0" encoding="UTF-8"?>
<svg width="1000" height="1000" viewBox="0 0 1000 1000" version="1.1" xmlns="http://www.w3.org/2000/svg" xmlns:xlink="http://www.w3.org/1999/xlink">
 <path d="M150,357.5 c45.67,0,80.67,-15.08,105,-45.25 c24.33,-30.17,36.5,-75.08,36.5,-134.75 l0,-10 c0,-56.67,-12.42,-100.0,-37.25,-130 c-24.83,-30.0,-59.58,-45,-104.25,-45 c-28.33,0,-53.17,6.25,-74.5,18.75 c-21.33,12.5,-37.83,32.0,-49.5,58.5 c-11.67,26.5,-17.5,60.75,-17.5,102.75 l0,10 c0,57.0,12.42,100.42,37.25,130.25 c24.83,29.83,59.58,44.75,104.25,44.75 Z M150,330 c-36.0,0,-63.75,-11.75,-83.25,-35.25 c-19.5,-23.5,-29.25,-59.75,-29.25,-108.75 l0,-21.5 c0,-32.67,4.67,-59.92,14,-81.75 c9.33,-21.83,22.67,-38.58,40,-50.25 c18.67,-8.33,38.17,-12.5,58.5,-12.5 c36.0,0,63.75,11.75,83.25,35.25 c19.5,23.5,29.25,59.75,29.25,108.75 l0,21.5 c0,32.33,-4.5,59.42,-13.5,81.25 c-9.0,21.83,-22.17,38.42,-39.5,49.75 c-19.0,9.0,-38.83,13.5,-59.5,13.5 Z M153,283 c9.33,0,17.25,-1.33,23.75,-4 c6.5,-2.67,12.58,-6.83,18.25,-12.5 c5.67,-5.33,9.58,-10.75,11.75,-16.25 c2.17,-5.5,3.25,-11.08,3.25,-16.75 l0,-29.5 c-2.33,-1.0,-4.67,-1.83,-7,-2.5 c-2.33,-0.67,-5.33,-1,-9,-1 c-6.33,0,-11.0,1.42,-14,4.25 c-3.0,2.83,-4.5,7.58,-4.5,14.25 c0,5.0,0,9.33,0,13 c0,3.67,0,7.83,0,12.5 c-4.0,2.33,-7.67,3.92,-11,4.75 c-3.33,0.83,-6.83,1.25,-10.5,1.25 c-12.0,0,-21.08,-5.92,-27.25,-17.75 c-6.17,-11.83,-9.25,-30.42,-9.25,-55.75 l0,-5.5 c0,-13.67,0.67,-24.83,2,-33.5 c1.33,-8.67,3.67,-17.0,7,-25 c3.67,-4.33,8.0,-7.5,13,-9.5 c5.0,-2.0,10.33,-3,16,-3 c10.67,0,19.42,2.17,26.25,6.5 c6.83,4.33,13.75,11.17,20.75,20.5 l3,0 c1.0,-2.33,1.75,-5.17,2.25,-8.5 c0.5,-3.33,0.75,-6.67,0.75,-10 c0,-5.0,-0.42,-9.5,-1.25,-13.5 c-0.83,-4.0,-2.92,-7.83,-6.25,-11.5 c-3.33,-4.67,-9.17,-8.67,-17.5,-12 c-8.33,-3.33,-18.33,-5,-30,-5 c-23.33,0,-41.17,7.92,-53.5,23.75 c-12.33,15.83,-18.5,41.42,-18.5,76.75 l0,5.5 c0,36.0,6.08,63.33,18.25,82 c12.17,18.67,29.92,28,53.25,28 Z M153,283" fill="rgb(0,0,0)" transform="matrix(2.4657534246575343,0.0,0.0,-2.4657534246575343,130.1369863013698,931.5068493150685)"/>
</svg>