<?xml version="1.0" encoding="UTF-8"?>
<svg width="1000" height="1000" viewBox="0 0 1000 1000" version="1.1" xmlns="http://www.w3.org/2000/svg" xmlns:xlink="http://www.w3.org/1999/xlink">
 <path d="M27.5,98 l0,9.5 c0,38.67,4.92,70.17,14.75,94.5 c9.83,24.33,22.83,42.17,39,53.5 c16.17,11.33,33.92,17,53.25,17 c10.67,0,20.0,-2.0,28,-6 c8.0,-4.0,14.83,-9.67,20.5,-17 l3,0 l0,79.5 c0,10.0,-0.33,18.33,-1,25 c-0.67,6.67,-2.17,14.0,-4.5,22 c6.0,1.67,13.0,2.5,21,2.5 c25.0,0,37.5,-13.33,37.5,-40 l0,-286 c0,-10.67,0.42,-19.92,1.25,-27.75 c0.83,-7.83,2.58,-16.08,5.25,-24.75 c-4.33,-1.33,-9.17,-2,-14.5,-2 c-11.0,0,-20.67,5.0,-29,15 c-8.33,10.0,-13.5,25.33,-15.5,46 c-18.67,-43.0,-45.5,-64.5,-80.5,-64.5 c-14.33,0,-27.5,4.5,-39.5,13.5 c-12.0,9.0,-21.5,21.33,-28.5,37 c-7.0,15.67,-10.5,33.33,-10.5,53 Z M280.5,276.5 c-6.33,0,-11.67,1.33,-16,4 c2.0,11.33,3.5,21.58,4.5,30.75 c1.0,9.17,1.75,18.67,2.25,28.5 c0.5,9.83,0.75,21.58,0.75,35.25 c4.0,1.33,7.5,2.25,10.5,2.75 c3.0,0.5,6.5,0.75,10.5,0.75 c8.67,0,14.75,-1.75,18.25,-5.25 c3.5,-3.5,5.25,-9.25,5.25,-17.25 c0,-13.33,-1.83,-27.08,-5.5,-41.25 c-3.67,-14.17,-8.67,-24.75,-15,-31.75 c-3.33,-4.33,-8.5,-6.5,-15.5,-6.5 Z M86,63 c6.33,-8.33,14.5,-12.5,24.5,-12.5 c15.67,0,29.5,4.33,41.5,13 c12.0,8.67,23.33,24.67,34,48 l0,96.5 c-11.0,8.67,-23.5,13,-37.5,13 c-22.33,0,-39.0,-9.08,-50,-27.25 c-11.0,-18.17,-16.5,-44.75,-16.5,-79.75 l0,-5 c0,-9.33,0.33,-17.67,1,-25 c0.67,-7.33,1.67,-14.33,3,-21 Z M86,63" fill="rgb(0,0,0)" transform="matrix(2.34375,0.0,0.0,-2.34375,96.875,937.109375)"/>
</svg>