<?xml version="1.0" encoding="UTF-8"?>
<svg width="1000" height="1000" viewBox="0 0 1000 1000" version="1.1" xmlns="http://www.w3.org/2000/svg" xmlns:xlink="http://www.w3.org/1999/xlink">
 <path d="M134.5,272.5 c14.67,0,27.92,-3.67,39.75,-11 c11.83,-7.33,20.92,-16.0,27.25,-26 l3,0 l0,64.5 l-81,0 c-6.33,0,-10.83,2.25,-13.5,6.75 c-2.67,4.5,-4,12.92,-4,25.25 l0,6 l98.5,0 c-0.67,15.67,-3.33,28.33,-8,38 c6.0,1.67,11.33,2.5,16,2.5 c9.33,0,18.0,-2.92,26,-8.75 c8.0,-5.83,13.67,-16.42,17,-31.75 l21.5,0 c9.0,0,13.5,-8.0,13.5,-24 c0,-2.33,-0.17,-4.67,-0.5,-7 c-0.33,-2.33,-0.67,-4.67,-1,-7 l-31.5,0 l0,-247.5 c0,-10.67,0.5,-19.92,1.5,-27.75 c1.0,-7.83,3.0,-16.08,6,-24.75 c-3.33,-0.67,-6.5,-1.33,-9.5,-2 c-3.0,-0.67,-6.17,-1,-9.5,-1 c-14.33,0,-24.83,6.0,-31.5,18 c-6.67,12.0,-10,26.5,-10,43.5 l0,16.5 l-3,0 c-6.33,-15.0,-14.5,-28.58,-24.5,-40.75 c-10.0,-12.17,-21.08,-21.83,-33.25,-29 c-12.17,-7.17,-24.75,-10.75,-37.75,-10.75 c-14.33,0,-27.5,4.5,-39.5,13.5 c-12.0,9.0,-21.5,21.33,-28.5,37 c-7.0,15.67,-10.5,33.33,-10.5,53 l0,9.5 c0,38.67,4.92,70.17,14.75,94.5 c9.83,24.33,22.83,42.17,39,53.5 c16.17,11.33,33.92,17,53.25,17 Z M86,63 c6.33,-8.33,14.5,-12.5,24.5,-12.5 c18.67,0,35.83,6.67,51.5,20 c15.67,13.33,29.83,36.67,42.5,70 l0,57 c-8.33,8.33,-16.83,14.33,-25.5,18 c-8.67,3.67,-18.83,5.5,-30.5,5.5 c-22.33,0,-39.0,-9.08,-50,-27.25 c-11.0,-18.17,-16.5,-44.75,-16.5,-79.75 l0,-5 c0,-9.33,0.33,-17.67,1,-25 c0.67,-7.33,1.67,-14.33,3,-21 Z M86,63" fill="rgb(0,0,0)" transform="matrix(2.34375,0.0,0.0,-2.34375,127.34375,937.109375)"/>
</svg>