<?xml version="1.0" encoding="UTF-8"?>
<svg width="1000" height="1000" viewBox="0 0 1000 1000" version="1.1" xmlns="http://www.w3.org/2000/svg" xmlns:xlink="http://www.w3.org/1999/xlink">
 <path d="M151,355 c16.0,0,30.17,-3.42,42.5,-10.25 c12.33,-6.83,22.08,-16.5,29.25,-29 c7.17,-12.5,10.75,-27.08,10.75,-43.75 l0,-3.5 c0,-16.67,-3.67,-31.58,-11,-44.75 c-7.33,-13.17,-17.42,-23.42,-30.25,-30.75 c-12.83,-7.33,-27.58,-11,-44.25,-11 c-15.67,0,-29.67,3.42,-42,10.25 c-12.33,6.83,-22.08,16.5,-29.25,29 c-7.17,12.5,-10.75,27.08,-10.75,43.75 l0,3.5 c0,17.0,3.67,32.0,11,45 c7.33,13.0,17.42,23.17,30.25,30.5 c12.83,7.33,27.42,11,43.75,11 Z M145.5,220 c15.67,0,27.58,4.33,35.75,13 c8.17,8.67,12.25,20.67,12.25,36 l0,3.5 c0,18.33,-6.5,32.0,-19.5,41 c-3.0,1.67,-6.17,2.67,-9.5,3 c-3.33,0.33,-7.0,0.5,-11,0.5 c-15.33,0,-27.08,-4.25,-35.25,-12.75 c-8.17,-8.5,-12.25,-20.58,-12.25,-36.25 l0,-3.5 c0,-17.33,5.5,-30.5,16.5,-39.5 c3.67,-2.0,7.33,-3.33,11,-4 c3.67,-0.67,7.67,-1,12,-1 Z M145.5,220" fill="rgb(0,0,0)" transform="matrix(5.202312138728324,0.0,0.0,-5.202312138728324,-279.0462427745665,1896.820809248555)"/>
</svg>