<?xml version="1.0" encoding="UTF-8"?>
<svg width="1000" height="1000" viewBox="0 0 1000 1000" version="1.1" xmlns="http://www.w3.org/2000/svg" xmlns:xlink="http://www.w3.org/1999/xlink">
 <path d="M262,68.5 c-6.0,-2.0,-13.67,-3,-23,-3 c-12.33,0,-21.17,3.67,-26.5,11 c-5.33,7.33,-8,18.67,-8,34 l0,21 l-3,0 c-11.0,-24.67,-25.25,-42.25,-42.75,-52.75 c-17.5,-10.5,-35.42,-15.75,-53.75,-15.75 c-22.33,0,-40.83,7.58,-55.5,22.75 c-14.67,15.17,-22,36.92,-22,65.25 l0,6 c0,25.67,4.5,47.58,13.5,65.75 c9.0,18.17,20.92,32.08,35.75,41.75 c14.83,9.67,31.25,14.5,49.25,14.5 c18.33,0,33.67,-3.42,46,-10.25 c12.33,-6.83,22.17,-16.58,29.5,-29.25 l3,0 l0,63 l-73,0 c-10.0,0,-16.92,2.08,-20.75,6.25 c-3.83,4.17,-5.75,10.58,-5.75,19.25 c0,2.67,0.08,5.17,0.25,7.5 c0.17,2.33,0.42,4.33,0.75,6 l98,0 c-0.33,12.33,-1.83,23.83,-4.5,34.5 c3.33,0.67,7.08,1.25,11.25,1.75 c4.17,0.5,9.08,0.75,14.75,0.75 c11.0,0,18.92,-2.5,23.75,-7.5 c4.83,-5.0,7.58,-14.83,8.25,-29.5 l11.5,0 c9.0,0,15.25,-1.83,18.75,-5.5 c3.5,-3.67,5.25,-8.83,5.25,-15.5 c0,-3.67,-0.25,-6.92,-0.75,-9.75 c-0.5,-2.83,-1.08,-5.58,-1.75,-8.25 l-33,0 l0,-187 c0,-10.33,0.33,-19.0,1,-26 c0.67,-7.0,1.83,-14.0,3.5,-21 Z M86.5,124.5 c7.0,-7.0,17.83,-10.5,32.5,-10.5 c17.33,0,33.92,6.17,49.75,18.5 c15.83,12.33,27.75,32.0,35.75,59 l0,16.5 c-6.67,8.0,-14.92,14.67,-24.75,20 c-9.83,5.33,-20.92,8,-33.25,8 c-20.67,0,-36.67,-7.0,-48,-21 c-11.33,-14.0,-17,-31.83,-17,-53.5 l0,-3.5 c0,-6.33,0.33,-12.25,1,-17.75 c0.67,-5.5,2.0,-10.75,4,-15.75 Z M27,41.5 l216,0 c9.0,0,15.25,-1.92,18.75,-5.75 c3.5,-3.83,5.25,-9.75,5.25,-17.75 c0,-3.67,-0.25,-6.92,-0.75,-9.75 c-0.5,-2.83,-1.08,-5.58,-1.75,-8.25 l-212.5,0 c-10.0,0,-16.83,2.25,-20.5,6.75 c-3.67,4.5,-5.5,11.58,-5.5,21.25 c0,2.67,0.08,5.17,0.25,7.5 c0.17,2.33,0.42,4.33,0.75,6 Z M27,41.5" fill="rgb(0,0,0)" transform="matrix(2.3778071334214004,0.0,0.0,-2.3778071334214004,120.73976221928666,950.0)"/>
</svg>