<?xml version="1.0" encoding="UTF-8"?>
<svg width="1000" height="1000" viewBox="0 0 1000 1000" version="1.1" xmlns="http://www.w3.org/2000/svg" xmlns:xlink="http://www.w3.org/1999/xlink">
 <path d="M153,327.5 c19.33,0,37.33,-3.33,54,-10 c3.0,7.0,5.83,14.17,8.5,21.5 c3.67,10.33,7.83,17.67,12.5,22 c4.67,4.33,11.0,6.5,19,6.5 c8.33,0,16.83,-1.83,25.5,-5.5 c-7.0,-22.67,-15.5,-46.17,-25.5,-70.5 c14.0,-12.67,24.92,-28.42,32.75,-47.25 c7.83,-18.83,11.75,-39.75,11.75,-62.75 l0,-6 c0,-33.0,-6.08,-61.08,-18.25,-84.25 c-12.17,-23.17,-29.0,-40.83,-50.5,-53 c-21.5,-12.17,-46.08,-18.25,-73.75,-18.25 c-21.33,0,-41.0,3.5,-59,10.5 c-4.67,-6.0,-9.5,-11.67,-14.5,-17 c-7.0,-8.0,-13.0,-13.33,-18,-16 c-5.0,-2.67,-10.67,-4,-17,-4 c-6.33,0,-11.67,0.75,-16,2.25 c-4.33,1.5,-8.5,3.75,-12.5,6.75 c14.33,14.0,28.83,29.83,43.5,47.5 c-15.67,12.67,-27.83,28.75,-36.5,48.25 c-8.67,19.5,-13,42.25,-13,68.25 l0,6.5 c0,32.0,6.33,59.58,19,82.75 c12.67,23.17,30.08,40.92,52.25,53.25 c22.17,12.33,47.42,18.5,75.75,18.5 Z M59,158 c0,-16.67,2.17,-30.58,6.5,-41.75 c4.33,-11.17,10.33,-20.75,18,-28.75 c20.0,27.67,38.75,57.08,56.25,88.25 c17.5,31.17,33.42,62.75,47.75,94.75 c-11.0,2.67,-22.5,4,-34.5,4 c-28.0,0,-50.67,-9.25,-68,-27.75 c-17.33,-18.5,-26,-45.58,-26,-81.25 Z M238.5,190 c0,10.33,-1.0,19.75,-3,28.25 c-2.0,8.5,-5.33,16.75,-10,24.75 c-14.67,-30.33,-30.67,-59.92,-48,-88.75 c-17.33,-28.83,-35.17,-55.75,-53.5,-80.75 c5.67,-0.67,11.83,-1,18.5,-1 c17.33,0,33.25,3.67,47.75,11 c14.5,7.33,26.17,19.08,35,35.25 c8.83,16.17,13.25,37.58,13.25,64.25 Z M238.5,190" fill="rgb(0,0,0)" transform="matrix(2.406417112299465,0.0,0.0,-2.406417112299465,142.04545454545456,934.3582887700535)"/>
</svg>