<?xml version="1.0" encoding="UTF-8"?>
<svg width="1000" height="1000" viewBox="0 0 1000 1000" version="1.1" xmlns="http://www.w3.org/2000/svg" xmlns:xlink="http://www.w3.org/1999/xlink">
 <path d="M27,239 l219.5,0 c10.67,0,18.25,-2.25,22.75,-6.75 c4.5,-4.5,6.75,-12.58,6.75,-24.25 c0,-3.33,-0.17,-6.92,-0.5,-10.75 c-0.33,-3.83,-0.83,-7.58,-1.5,-11.25 l-209.5,0 c-15.0,0,-25.0,3.0,-30,9 c-5.0,6.0,-7.5,18.17,-7.5,36.5 Z M29.5,114 l209.5,0 c14.67,0,24.5,-3.0,29.5,-9 c5.0,-6.0,7.5,-18.17,7.5,-36.5 l0,-7.5 l-219,0 c-10.67,0,-18.33,2.33,-23,7 c-4.67,4.67,-7,12.67,-7,24 c0,3.67,0.33,7.42,1,11.25 c0.67,3.83,1.17,7.42,1.5,10.75 Z M29.5,114" fill="rgb(0,0,0)" transform="matrix(3.6144578313253013,0.0,0.0,-3.6144578313253013,-47.59036144578312,1042.1686746987953)"/>
</svg>