<?xml version="1.0" encoding="UTF-8"?>
<svg width="1000" height="1000" viewBox="0 0 1000 1000" version="1.1" xmlns="http://www.w3.org/2000/svg" xmlns:xlink="http://www.w3.org/1999/xlink">
 <path d="M132.5,251.5 c14.0,0,26.08,-1.83,36.25,-5.5 c10.17,-3.67,20.08,-9.17,29.75,-16.5 l4.5,0 c-4.67,13.33,-10.42,26.33,-17.25,39 c-6.83,12.67,-14.58,25.0,-23.25,37 l-102.5,-28.5 c-1.67,7.67,-2.5,14.83,-2.5,21.5 c0,6.33,1.58,11.33,4.75,15 c3.17,3.67,9.75,6.83,19.75,9.5 l54.5,14.5 c-9.33,10.33,-19.83,21.17,-31.5,32.5 l0,2 c4.33,3.67,9.0,6.75,14,9.25 c5.0,2.5,11.33,3.75,19,3.75 c6.0,0,11.58,-1.33,16.75,-4 c5.17,-2.67,10.58,-6.83,16.25,-12.5 c7.0,-7.0,13.67,-14.17,20,-21.5 l78.5,22 c1.67,-6.67,2.5,-12.83,2.5,-18.5 c0,-7.67,-1.83,-13.5,-5.5,-17.5 c-3.67,-4.0,-11.67,-7.83,-24,-11.5 l-27,-7 c17.0,-25.0,30.25,-52.08,39.75,-81.25 c9.5,-29.17,14.25,-60.25,14.25,-93.25 l0,-7 c0,-44.33,-11.08,-78.5,-33.25,-102.5 c-22.17,-24.0,-51.75,-36,-88.75,-36 c-22.0,0,-41.83,4.83,-59.5,14.5 c-17.67,9.67,-31.67,23.83,-42,42.5 c-10.33,18.67,-15.5,41.33,-15.5,68 l0,5.5 c0,25.67,4.5,48.0,13.5,67 c9.0,19.0,21.17,33.67,36.5,44 c15.33,10.33,32.67,15.5,52,15.5 Z M107.5,50.5 c9.0,-4.0,19.83,-6,32.5,-6 c27.33,0,47.17,7.75,59.5,23.25 c12.33,15.5,18.5,35.58,18.5,60.25 l0,6 c0,14.33,-0.83,28.0,-2.5,41 c-10.67,9.33,-21.08,16.17,-31.25,20.5 c-10.17,4.33,-22.92,6.5,-38.25,6.5 c-21.33,0,-37.33,-7.33,-48,-22 c-10.67,-14.67,-16,-33.83,-16,-57.5 l0,-3.5 c0,-12.67,1.67,-25.25,5,-37.75 c3.33,-12.5,10.17,-22.75,20.5,-30.75 Z M107.5,50.5" fill="rgb(0,0,0)" transform="matrix(2.3047375160051216,0.0,0.0,-2.3047375160051216,151.4084507042254,937.3239436619718)"/>
</svg>