<?xml version="1.0" encoding="UTF-8"?>
<svg width="1000" height="1000" viewBox="0 0 1000 1000" version="1.1" xmlns="http://www.w3.org/2000/svg" xmlns:xlink="http://www.w3.org/1999/xlink">
 <path d="M28,53 l68,0 l0,152.5 c-26.67,0,-44.67,3.5,-54,10.5 c-9.33,7.0,-14,18.67,-14,35 l0,7.5 l68,0 l0,9.5 c0,36.67,9.42,65.0,28.25,85 c18.83,20.0,46.58,30,83.25,30 c17.67,0,32.0,-1.58,43,-4.75 c11.0,-3.17,18.67,-7.08,23,-11.75 c3.33,-3.33,5.67,-7.42,7,-12.25 c1.33,-4.83,2,-10.42,2,-16.75 c0,-3.33,-0.08,-6.83,-0.25,-10.5 c-0.17,-3.67,-0.75,-6.83,-1.75,-9.5 l-3,0 c-8.33,4.33,-19.17,7.83,-32.5,10.5 c-13.33,2.67,-27.67,4,-43,4 c-21.0,0,-38.5,-3.0,-52.5,-9 c-1.67,-8.33,-2.5,-18.0,-2.5,-29 c0,-11.0,0.67,-22.83,2,-35.5 l81.5,0 c13.33,0,22.33,-2.58,27,-7.75 c4.67,-5.17,7,-13.58,7,-25.25 c0,-3.67,-0.17,-7.25,-0.5,-10.75 c-0.33,-3.5,-0.83,-6.58,-1.5,-9.25 l-113.5,0 l0,-105 c0,-20.33,-4.67,-35.5,-14,-45.5 l1,-2 l11.5,0 c34.33,0,60.67,-3.67,79,-11 c18.33,-7.33,27.5,-16.67,27.5,-28 c0,-2.67,-0.25,-5.08,-0.75,-7.25 c-0.5,-2.17,-1.08,-4.42,-1.75,-6.75 l-188,0 c-15.0,0,-24.83,3.25,-29.5,9.75 c-4.67,6.5,-7,17.92,-7,34.25 c0,1.67,0.08,3.25,0.25,4.75 c0.17,1.5,0.42,2.92,0.75,4.25 Z M28,53" fill="rgb(0,0,0)" transform="matrix(2.349869451697128,0.0,0.0,-2.349869451697128,136.35770234986938,950.0)"/>
</svg>