<?xml version="1.0" encoding="UTF-8"?>
<svg width="1000" height="1000" viewBox="0 0 1000 1000" version="1.1" xmlns="http://www.w3.org/2000/svg" xmlns:xlink="http://www.w3.org/1999/xlink">
 <path d="M204.5,199.5 l3.5,0 c10.67,0,19.25,-2.25,25.75,-6.75 c6.5,-4.5,9.75,-10.08,9.75,-16.75 l0,-48 l18,0 c8.67,0,14.58,-3.25,17.75,-9.75 c3.17,-6.5,4.75,-14.58,4.75,-24.25 c0,-7.67,-0.67,-14.0,-2,-19 l-38.5,0 l0,-26.5 c0,-10.33,0.33,-19.58,1,-27.75 c0.67,-8.17,1.83,-15.58,3.5,-22.25 c-5.33,-2.0,-11.67,-3,-19,-3 c-15.33,0,-26.08,2.92,-32.25,8.75 c-6.17,5.83,-9.25,13.92,-9.25,24.25 l0,46.5 l-137,0 c-9.0,0,-15.92,3.83,-20.75,11.5 c-4.83,7.67,-7.25,17.83,-7.25,30.5 l0,5.5 c0,10.67,3.42,24.08,10.25,40.25 c6.83,16.17,16.17,33.67,28,52.5 c11.83,18.83,25.08,37.83,39.75,57 c14.67,19.17,30.0,36.92,46,53.25 c12.67,13.33,22.67,21.83,30,25.5 c7.33,3.67,15.17,5.5,23.5,5.5 c12.33,0,22.83,-1.42,31.5,-4.25 c8.67,-2.83,15.17,-6.58,19.5,-11.25 l0,-3 c-22.67,-14.0,-45.25,-32.5,-67.75,-55.5 c-22.5,-23.0,-43.5,-48.42,-63,-76.25 c-19.5,-27.83,-36.08,-56.08,-49.75,-84.75 l0,-4 c12.67,4.33,25.08,7.17,37.25,8.5 c12.17,1.33,26.25,2,42.25,2 l39.5,0 c1.67,13.0,3.83,26.5,6.5,40.5 c2.67,14.0,5.5,24.33,8.5,31 Z M204.5,199.5" fill="rgb(0,0,0)" transform="matrix(2.4930747922437675,0.0,0.0,-2.4930747922437675,117.93628808864264,938.7811634349031)"/>
</svg>