<?xml version="1.0" encoding="UTF-8"?>
<svg width="1000" height="1000" viewBox="0 0 1000 1000" version="1.1" xmlns="http://www.w3.org/2000/svg" xmlns:xlink="http://www.w3.org/1999/xlink">
 <path d="M76.5,35 c0,9.67,2.5,18.58,7.5,26.75 c5.0,8.17,12.0,14.58,21,19.25 l0,2 c-23.67,5.0,-42.58,15.25,-56.75,30.75 c-14.17,15.5,-21.25,35.08,-21.25,58.75 l0,3.5 c0,29.33,10.92,53.0,32.75,71 c21.83,18.0,53.08,27,93.75,27 c21.33,0,40.92,-0.58,58.75,-1.75 c17.83,-1.17,37.08,-2.58,57.75,-4.25 c0.67,-1.67,1.17,-4.0,1.5,-7 c0.33,-3.0,0.5,-6.0,0.5,-9 c0,-9.33,-1.42,-17.0,-4.25,-23 c-2.83,-6.0,-7.58,-9,-14.25,-9 c-5.33,0,-11.33,0.5,-18,1.5 c-6.67,1.0,-15.17,2.0,-25.5,3 l0,-4.5 c11.0,-6.0,19.92,-13.75,26.75,-23.25 c6.83,-9.5,10.25,-20.92,10.25,-34.25 l0,-4 c0,-16.33,-4.67,-30.33,-14,-42 c-9.33,-11.67,-22.08,-20.67,-38.25,-27 c-16.17,-6.33,-34.58,-9.5,-55.25,-9.5 c-1.67,0,-3.17,0,-4.5,0 c-6.0,-8.67,-9,-18.83,-9,-30.5 c0,-10.67,6.83,-16.5,20.5,-17.5 l61,-4.5 c20.33,-1.33,36.42,-7.67,48.25,-19 c11.83,-11.33,17.75,-25.67,17.75,-43 l0,-5.5 c0,-16.0,-4.83,-30.42,-14.5,-43.25 c-9.67,-12.83,-25.08,-23.0,-46.25,-30.5 c-21.17,-7.5,-49.25,-11.25,-84.25,-11.25 l-12.5,0 c-33.0,0,-58.0,6.33,-75,19 c-17.0,12.67,-25.5,28.17,-25.5,46.5 l0,4.5 c0,16.67,6.33,30.92,19,42.75 c12.67,11.83,29.0,18.42,49,19.75 l0,3 c-4.67,7.67,-7,15.83,-7,24.5 Z M88,130.5 c7.67,-3.33,15.42,-5.75,23.25,-7.25 c7.83,-1.5,17.08,-2.25,27.75,-2.25 c18.67,0,33.5,4.08,44.5,12.25 c11.0,8.17,16.5,19.92,16.5,35.25 l0,4 c0,8.33,-1.92,17.5,-5.75,27.5 c-3.83,10.0,-11.58,18.83,-23.25,26.5 c-6.67,0.33,-13.67,0.5,-21,0.5 c-24.0,0,-42.33,-4.75,-55,-14.25 c-12.67,-9.5,-19,-24.08,-19,-43.75 l0,-3 c0,-5.0,0.83,-10.67,2.5,-17 c1.67,-6.33,4.83,-12.5,9.5,-18.5 Z M123.5,-88 l14.5,0 c16.33,0,30.42,0.75,42.25,2.25 c11.83,1.5,23.42,4.25,34.75,8.25 c2.33,3.33,3.92,7.17,4.75,11.5 c0.83,4.33,1.25,8.67,1.25,13 l0,3.5 c0,7.67,-2.33,14.25,-7,19.75 c-4.67,5.5,-11.83,8.42,-21.5,8.75 l-54.5,3.5 c-14.67,1.0,-27.17,4.83,-37.5,11.5 c-21.33,-9.0,-32,-23.67,-32,-44 l0,-4 c0,-22.67,18.33,-34,55,-34 Z M159,361 c15.67,1.0,28.08,4.67,37.25,11 c9.17,6.33,15.92,16.67,20.25,31 c10.0,-0.67,18.83,-3.5,26.5,-8.5 c4.33,-3.0,5.17,-8.33,2.5,-16 c-6.67,-18.67,-17.08,-33.0,-31.25,-43 c-14.17,-10.0,-31.92,-15,-53.25,-15 l-4,0 c-21.33,0,-39.08,5.0,-53.25,15 c-14.17,10.0,-24.58,24.33,-31.25,43 c-2.67,7.67,-1.83,13.0,2.5,16 c7.67,5.0,16.5,7.83,26.5,8.5 c4.67,-14.33,11.58,-24.67,20.75,-31 c9.17,-6.33,21.42,-10.0,36.75,-11 Z M159,361" fill="rgb(0,0,0)" transform="matrix(1.7045454545454546,0.0,0.0,-1.7045454545454546,253.69318181818178,736.9318181818182)"/>
</svg>