<?xml version="1.0" encoding="UTF-8"?>
<svg width="1000" height="1000" viewBox="0 0 1000 1000" version="1.1" xmlns="http://www.w3.org/2000/svg" xmlns:xlink="http://www.w3.org/1999/xlink">
 <path d="M154.5,374.5 c4.67,-29.67,11.58,-55.67,20.75,-78 c9.17,-22.33,20.75,-44.67,34.75,-67 c-8.0,-6.33,-17.5,-9.5,-28.5,-9.5 c-6.33,0,-11.42,0.75,-15.25,2.25 c-3.83,1.5,-8.08,4.42,-12.75,8.75 c-6.33,6.0,-13.08,14.0,-20.25,24 c-7.17,10.0,-13.75,20.92,-19.75,32.75 c-6.0,11.83,-10.92,23.42,-14.75,34.75 c-3.83,11.33,-5.75,21.33,-5.75,30 c0,7.33,2.08,12.67,6.25,16 c4.17,3.33,9.58,5.33,16.25,6 c5.33,0.67,11.17,1.08,17.5,1.25 c6.33,0.17,13.5,-0.25,21.5,-1.25 Z M154.5,374.5" fill="rgb(0,0,0)" transform="matrix(5.777166417952897,0.0,0.0,-5.777166417952897,-375.240712319864,2220.976611949637)"/>
</svg>