<?xml version="1.0" encoding="UTF-8"?>
<svg width="1000" height="1000" viewBox="0 0 1000 1000" version="1.1" xmlns="http://www.w3.org/2000/svg" xmlns:xlink="http://www.w3.org/1999/xlink">
 <path d="M267.5,174.5 c-24.33,-16.67,-49.83,-30.25,-76.5,-40.75 c-26.67,-10.5,-56.67,-19.92,-90,-28.25 c-10.33,-2.33,-19.08,-4.08,-26.25,-5.25 c-7.17,-1.17,-13.08,-1.75,-17.75,-1.75 c-6.0,0,-11.08,3.17,-15.25,9.5 c-4.17,6.33,-6.25,14.67,-6.25,25 l0,9 c26.33,3.33,49.17,7.0,68.5,11 c19.33,4.0,37.17,8.75,53.5,14.25 c16.33,5.5,33.17,12.25,50.5,20.25 l0,4 c-13.0,5.33,-24.92,9.92,-35.75,13.75 c-10.83,3.83,-22.0,7.08,-33.5,9.75 c-11.5,2.67,-24.25,5.17,-38.25,7.5 c-14.0,2.33,-30.33,4.67,-49,7 c-4.67,0.33,-8.58,2.17,-11.75,5.5 c-3.17,3.33,-4.75,8.83,-4.75,16.5 c0,4.0,0.25,8.25,0.75,12.75 c0.5,4.5,1.25,8.25,2.25,11.25 c46.67,-5.0,86.83,-12.25,120.5,-21.75 c33.67,-9.5,63.17,-20.58,88.5,-33.25 c8.67,-4.33,14.25,-8.83,16.75,-13.5 c2.5,-4.67,3.75,-10.0,3.75,-16 Z M32.5,78 l209.5,0 c9.67,0,16.33,-2.0,20,-6 c3.67,-4.0,5.5,-10.17,5.5,-18.5 c0,-3.0,-0.17,-6.25,-0.5,-9.75 c-0.33,-3.5,-0.83,-6.92,-1.5,-10.25 l-197.5,0 c-13.33,0,-22.58,3.08,-27.75,9.25 c-5.17,6.17,-7.75,15.42,-7.75,27.75 Z M32.5,78" fill="rgb(0,0,0)" transform="matrix(3.71900826446281,0.0,0.0,-3.71900826446281,-57.85123966942149,1074.586776859504)"/>
</svg>