<?xml version="1.0" encoding="UTF-8"?>
<svg width="1000" height="1000" viewBox="0 0 1000 1000" version="1.1" xmlns="http://www.w3.org/2000/svg" xmlns:xlink="http://www.w3.org/1999/xlink">
 <path d="M77,248 l0,3 c5.0,2.0,11.5,3.42,19.5,4.25 c8.0,0.83,15.67,1.25,23,1.25 c8.0,0,14.58,-0.75,19.75,-2.25 c5.17,-1.5,10.75,-4.42,16.75,-8.75 c7.67,-5.0,15.92,-11.83,24.75,-20.5 c8.83,-8.67,19.42,-21.5,31.75,-38.5 c5.67,-8.33,9.5,-15.08,11.5,-20.25 c2.0,-5.17,3,-10.92,3,-17.25 l0,-12 c-12.33,-19.33,-24.17,-35.42,-35.5,-48.25 c-11.33,-12.83,-24.67,-25.08,-40,-36.75 c-4.67,-3.33,-9.25,-5.67,-13.75,-7 c-4.5,-1.33,-10.25,-2,-17.25,-2 c-6.33,0,-13.75,0.42,-22.25,1.25 c-8.5,0.83,-15.58,2.25,-21.25,4.25 l0,3 c16.33,11.33,30.08,21.92,41.25,31.75 c11.17,9.83,21.08,20.0,29.75,30.5 c8.67,10.5,17.0,22.42,25,35.75 c-10.33,18.67,-22.92,35.42,-37.75,50.25 c-14.83,14.83,-34.25,30.92,-58.25,48.25 Z M77,248" fill="rgb(0,0,0)" transform="matrix(4.215456674473068,0.0,0.0,-4.215456674473068,-140.74941451990634,1131.264637002342)"/>
</svg>