<?xml version="1.0" encoding="UTF-8"?>
<svg width="1000" height="1000" viewBox="0 0 1000 1000" version="1.1" xmlns="http://www.w3.org/2000/svg" xmlns:xlink="http://www.w3.org/1999/xlink">
 <path d="M223,51.5 l0,-3 c-5.0,-1.67,-11.5,-2.92,-19.5,-3.75 c-8.0,-0.83,-15.67,-1.25,-23,-1.25 c-8.0,0,-14.58,0.75,-19.75,2.25 c-5.17,1.5,-10.75,4.42,-16.75,8.75 c-7.67,5.0,-15.92,11.75,-24.75,20.25 c-8.83,8.5,-19.42,21.25,-31.75,38.25 c-5.67,8.67,-9.5,15.5,-11.5,20.5 c-2.0,5.0,-3,10.67,-3,17 l0,12 c12.33,19.33,24.17,35.5,35.5,48.5 c11.33,13.0,24.67,25.33,40,37 c4.67,3.33,9.25,5.58,13.75,6.75 c4.5,1.17,10.25,1.75,17.25,1.75 c6.67,0,14.25,-0.42,22.75,-1.25 c8.5,-0.83,15.42,-2.08,20.75,-3.75 l0,-3 c-16.0,-11.33,-29.67,-21.92,-41,-31.75 c-11.33,-9.83,-21.25,-20.0,-29.75,-30.5 c-8.5,-10.5,-16.92,-22.58,-25.25,-36.25 c10.67,-18.33,23.33,-34.92,38,-49.75 c14.67,-14.83,34.0,-31.08,58,-48.75 Z M223,51.5" fill="rgb(0,0,0)" transform="matrix(4.225352112676056,0.0,0.0,-4.225352112676056,-125.35211267605627,1133.8028169014085)"/>
</svg>