<?xml version="1.0" encoding="UTF-8"?>
<svg width="1000" height="1000" viewBox="0 0 1000 1000" version="1.1" xmlns="http://www.w3.org/2000/svg" xmlns:xlink="http://www.w3.org/1999/xlink">
 <path d="M228.5,406 c16.33,0.67,29.17,-1.5,38.5,-6.5 c4.33,-2.0,7.0,-4.83,8,-8.5 c1.0,-3.67,1.0,-7.5,0,-11.5 c-3.33,-12.33,-9.17,-23.58,-17.5,-33.75 c-8.33,-10.17,-17.83,-18.25,-28.5,-24.25 c-9.33,-6.0,-20.33,-9,-33,-9 c-10.33,0,-19.17,2.33,-26.5,7 c16.0,13.67,28.75,27.17,38.25,40.5 c9.5,13.33,16.42,28.67,20.75,46 Z M124.5,406 c16.67,0,29.5,-2.17,38.5,-6.5 c4.33,-2.0,7.0,-4.92,8,-8.75 c1.0,-3.83,1.0,-7.75,0,-11.75 c-3.33,-12.33,-9.25,-23.5,-17.75,-33.5 c-8.5,-10.0,-17.92,-18.17,-28.25,-24.5 c-9.33,-6.0,-20.33,-9,-33,-9 c-4.67,0,-9.25,0.58,-13.75,1.75 c-4.5,1.17,-8.75,3.08,-12.75,5.75 c16.0,13.67,28.75,27.08,38.25,40.25 c9.5,13.17,16.42,28.58,20.75,46.25 Z M124.5,406" fill="rgb(0,0,0)" transform="matrix(4.280618235185168,0.0,0.0,-4.280618235185168,-230.3804944046285,2036.9937514249368)"/>
</svg>