<?xml version="1.0" encoding="UTF-8"?>
<svg width="1000" height="1000" viewBox="0 0 1000 1000" version="1.1" xmlns="http://www.w3.org/2000/svg" xmlns:xlink="http://www.w3.org/1999/xlink">
 <path d="M33,53 l113.5,0 l1,2.5 c-8.33,9.67,-12.5,25.0,-12.5,46 l0,127 l-2,2 c-20.67,-6.0,-37.17,-10.58,-49.5,-13.75 c-12.33,-3.17,-21.33,-4.75,-27,-4.75 c-6.33,0,-11.67,2.75,-16,8.25 c-4.33,5.5,-6.5,13.92,-6.5,25.25 c0,8.0,1.17,15.17,3.5,21.5 c15.67,1.67,32.58,2.92,50.75,3.75 c18.17,0.83,33.75,1.25,46.75,1.25 c18.33,0,31.75,-2.42,40.25,-7.25 c8.5,-4.83,12.75,-14.58,12.75,-29.25 l0,-182.5 c31.0,-0.67,54.42,-4.67,70.25,-12 c15.83,-7.33,23.75,-16.33,23.75,-27 c0,-2.67,-0.25,-5.08,-0.75,-7.25 c-0.5,-2.17,-1.08,-4.42,-1.75,-6.75 l-211.5,0 c-15.0,0,-24.92,2.75,-29.75,8.25 c-4.83,5.5,-7.25,14.92,-7.25,28.25 c0,6.67,0.67,12.17,2,16.5 Z M149.5,408 l12,0 c6.67,0,12.58,-0.75,17.75,-2.25 c5.17,-1.5,12.25,-5.58,21.25,-12.25 c11.33,-8.0,22.92,-18.08,34.75,-30.25 c11.83,-12.17,21.92,-26.58,30.25,-43.25 c-7.67,-5.0,-17.5,-7.5,-29.5,-7.5 c-5.67,0,-10.25,1.08,-13.75,3.25 c-3.5,2.17,-7.58,6.42,-12.25,12.75 c-5.67,7.0,-12.0,13.67,-19,20 c-7.0,6.33,-16.33,13.0,-28,20 l-1.5,0 c-14.67,-10.0,-26.58,-19.67,-35.75,-29 c-9.17,-9.33,-16.42,-18.5,-21.75,-27.5 l-3,0 c-11.67,0,-20.5,1.33,-26.5,4 c-6.0,2.67,-9,5.83,-9,9.5 c0,2.67,1.0,6.25,3,10.75 c2.0,4.5,5.33,9.92,10,16.25 c8.33,11.33,19.08,22.08,32.25,32.25 c13.17,10.17,26.08,17.92,38.75,23.25 Z M149.5,408" fill="rgb(0,0,0)" transform="matrix(2.2058823529411766,0.0,0.0,-2.2058823529411766,154.77941176470586,950.0)"/>
</svg>