<?xml version="1.0" encoding="UTF-8"?>
<svg width="1000" height="1000" viewBox="0 0 1000 1000" version="1.1" xmlns="http://www.w3.org/2000/svg" xmlns:xlink="http://www.w3.org/1999/xlink">
 <path d="M101.5,321.5 c-9.33,-1.67,-18.83,-2.5,-28.5,-2.5 c-11.33,0,-20.75,1.67,-28.25,5 c-7.5,3.33,-11.25,10.0,-11.25,20 l0,35 c10.0,1.67,19.5,2.5,28.5,2.5 c11.67,0,21.17,-1.75,28.5,-5.25 c7.33,-3.5,11,-10.25,11,-20.25 Z M265,321.5 c-10.0,-1.67,-19.5,-2.5,-28.5,-2.5 c-12.0,0,-22.0,1.67,-30,5 c-8.0,3.33,-12,10.0,-12,20 l0,35 c9.33,1.67,18.83,2.5,28.5,2.5 c12.0,0,22.0,-1.75,30,-5.25 c8.0,-3.5,12,-10.25,12,-20.25 Z M218,270 c9.67,0,18.58,-2.17,26.75,-6.5 c8.17,-4.33,12.25,-13.33,12.25,-27 l0,-236 c0.33,-25.67,-4.33,-47.92,-14,-66.75 c-9.67,-18.83,-23.25,-33.33,-40.75,-43.5 c-17.5,-10.17,-38.25,-15.25,-62.25,-15.25 c-20.0,0,-36.25,1.58,-48.75,4.75 c-12.5,3.17,-21.08,7.25,-25.75,12.25 c-3.67,3.67,-6.5,8.75,-8.5,15.25 c-2.0,6.5,-3,13.42,-3,20.75 c0,6.0,0.5,11.17,1.5,15.5 l2.5,0 c12.0,-6.33,23.92,-10.75,35.75,-13.25 c11.83,-2.5,26.92,-3.75,45.25,-3.75 c9.67,0,19.25,1.0,28.75,3 c9.5,2.0,18.42,6.17,26.75,12.5 c3.33,7.33,5.58,15.75,6.75,25.25 c1.17,9.5,1.75,21.08,1.75,34.75 l0,219.5 c0,9.67,-0.42,17.92,-1.25,24.75 c-0.83,6.83,-2.42,13.92,-4.75,21.25 c3.67,0.67,7.17,1.25,10.5,1.75 c3.33,0.5,6.83,0.75,10.5,0.75 Z M50.5,269 c5.33,0,11.42,-0.83,18.25,-2.5 c6.83,-1.67,12.25,-4.5,16.25,-8.5 c4.33,-4.0,7.25,-8.75,8.75,-14.25 c1.5,-5.5,2.25,-13.42,2.25,-23.75 l0,-119.5 c0,-9.33,0.08,-17.58,0.25,-24.75 c0.17,-7.17,0.75,-14.08,1.75,-20.75 c6.67,-4.67,15.0,-7,25,-7 c13.33,0,23.83,2.67,31.5,8 l2.5,0 c1.0,-5.33,1.5,-10.83,1.5,-16.5 c0,-7.33,-1.08,-14.33,-3.25,-21 c-2.17,-6.67,-4.75,-11.5,-7.75,-14.5 c-6.0,-6.0,-17.67,-9,-35,-9 c-20.67,0,-37.67,6.92,-51,20.75 c-13.33,13.83,-20,32.08,-20,54.75 l0,148 c0,10.67,-0.5,19.42,-1.5,26.25 c-1.0,6.83,-2.67,14.25,-5,22.25 c5.0,1.33,10.17,2,15.5,2 Z M50.5,269" fill="rgb(0,0,0)" transform="matrix(1.7769002961500493,0.0,0.0,-1.7769002961500493,234.79763079960514,727.8874629812439)"/>
</svg>