<?xml version="1.0" encoding="UTF-8"?>
<svg width="1000" height="1000" viewBox="0 0 1000 1000" version="1.1" xmlns="http://www.w3.org/2000/svg" xmlns:xlink="http://www.w3.org/1999/xlink">
 <path d="M33,53 l113.5,0 l1,2.5 c-8.33,9.67,-12.5,25.0,-12.5,46 l0,127 l-2,2 c-20.67,-6.0,-37.17,-10.58,-49.5,-13.75 c-12.33,-3.17,-21.33,-4.75,-27,-4.75 c-6.33,0,-11.67,2.75,-16,8.25 c-4.33,5.5,-6.5,13.92,-6.5,25.25 c0,8.0,1.17,15.17,3.5,21.5 c15.67,1.67,32.58,2.92,50.75,3.75 c18.17,0.83,33.75,1.25,46.75,1.25 c18.33,0,31.75,-2.42,40.25,-7.25 c8.5,-4.83,12.75,-14.58,12.75,-29.25 l0,-182.5 c31.0,-0.67,54.42,-4.67,70.25,-12 c15.83,-7.33,23.75,-16.33,23.75,-27 c0,-2.67,-0.25,-5.08,-0.75,-7.25 c-0.5,-2.17,-1.08,-4.42,-1.75,-6.75 l-211.5,0 c-15.0,0,-24.92,2.75,-29.75,8.25 c-4.83,5.5,-7.25,14.92,-7.25,28.25 c0,6.67,0.67,12.17,2,16.5 Z M63,368 l172.5,0 c10.0,0,16.75,-2.17,20.25,-6.5 c3.5,-4.33,5.25,-11.33,5.25,-21 c0,-3.0,-0.17,-6.0,-0.5,-9 c-0.33,-3.0,-0.83,-5.67,-1.5,-8 l-150,0 c-19.33,0,-31.83,2.83,-37.5,8.5 c-5.67,5.67,-8.5,15.17,-8.5,28.5 Z M63,368" fill="rgb(0,0,0)" transform="matrix(2.4456521739130435,0.0,0.0,-2.4456521739130435,117.25543478260869,950.0)"/>
</svg>