<?xml version="1.0" encoding="UTF-8"?>
<svg width="1000" height="1000" viewBox="0 0 1000 1000" version="1.1" xmlns="http://www.w3.org/2000/svg" xmlns:xlink="http://www.w3.org/1999/xlink">
 <path d="M215,249.5 l2,0 c20.33,0,36.58,-8.5,48.75,-25.5 c12.17,-17.0,18.25,-40.0,18.25,-69 c0,-30.67,-6.08,-55.67,-18.25,-75 c-12.17,-19.33,-29.08,-29,-50.75,-29 l-2.5,0 c-28.67,0,-50.67,19.83,-66,59.5 l-2.5,0 c-6.0,-19.0,-14.25,-33.67,-24.75,-44 c-10.5,-10.33,-22.58,-15.5,-36.25,-15.5 l-2,0 c-20.33,0,-36.25,8.75,-47.75,26.25 c-11.5,17.5,-17.25,40.58,-17.25,69.25 c0,20.0,2.83,37.75,8.5,53.25 c5.67,15.5,13.67,27.67,24,36.5 c10.33,8.83,22.17,13.25,35.5,13.25 l1.5,0 c13.33,0,25.33,-3.83,36,-11.5 c10.67,-7.67,20.83,-22.67,30.5,-45 l3,0 c6.33,19.33,14.33,33.58,24,42.75 c9.67,9.17,21.67,13.75,36,13.75 Z M79,95.5 c1.33,-0.33,2.5,-0.58,3.5,-0.75 c1.0,-0.17,2.17,-0.25,3.5,-0.25 c10.33,0,19.0,4.33,26,13 c7.0,8.67,14.0,22.67,21,42 l-2.5,6.5 c-5.0,14.0,-9.5,24.58,-13.5,31.75 c-4.0,7.17,-8.08,12.08,-12.25,14.75 c-4.17,2.67,-8.92,4.17,-14.25,4.5 l-0.5,0 c-8.33,-0.33,-15.0,-3.5,-20,-9.5 c-5.0,-6.0,-8.5,-13.58,-10.5,-22.75 c-2.0,-9.17,-3,-18.75,-3,-28.75 c0,-14.67,1.92,-25.92,5.75,-33.75 c3.83,-7.83,9.42,-13.42,16.75,-16.75 Z M218.5,93.5 l0.5,0 c16.33,8.67,24.5,29.17,24.5,61.5 c0,15.33,-2.33,27.08,-7,35.25 c-4.67,8.17,-10.83,13.58,-18.5,16.25 l-1,0 c-10.67,0,-20.0,-4.0,-28,-12 c-8.0,-8.0,-15.67,-20.67,-23,-38 l9,-23.5 c5.67,-15.0,11.58,-25.17,17.75,-30.5 c6.17,-5.33,14.75,-8.33,25.75,-9 Z M218.5,93.5" fill="rgb(0,0,0)" transform="matrix(3.3582089552238807,0.0,0.0,-3.3582089552238807,-3.7313432835820777,1004.5708955223881)"/>
</svg>