<?xml version="1.0" encoding="UTF-8"?>
<svg width="1000" height="1000" viewBox="0 0 1000 1000" version="1.1" xmlns="http://www.w3.org/2000/svg" xmlns:xlink="http://www.w3.org/1999/xlink">
 <path d="M33,53 l113.5,0 l1,2.5 c-8.33,9.67,-12.5,25.0,-12.5,46 l0,127 l-2,2 c-20.67,-6.0,-37.17,-10.58,-49.5,-13.75 c-12.33,-3.17,-21.33,-4.75,-27,-4.75 c-6.33,0,-11.67,2.75,-16,8.25 c-4.33,5.5,-6.5,13.92,-6.5,25.25 c0,8.0,1.17,15.17,3.5,21.5 c15.67,1.67,32.58,2.92,50.75,3.75 c18.17,0.83,33.75,1.25,46.75,1.25 c18.33,0,31.75,-2.42,40.25,-7.25 c8.5,-4.83,12.75,-14.58,12.75,-29.25 l0,-182.5 c31.0,-0.67,54.42,-4.67,70.25,-12 c15.83,-7.33,23.75,-16.33,23.75,-27 c0,-2.67,-0.25,-5.08,-0.75,-7.25 c-0.5,-2.17,-1.08,-4.42,-1.75,-6.75 l-211.5,0 c-15.0,0,-24.92,2.75,-29.75,8.25 c-4.83,5.5,-7.25,14.92,-7.25,28.25 c0,6.67,0.67,12.17,2,16.5 Z M207,365.5 c10.0,0,18.17,1.83,24.5,5.5 c6.33,3.67,13.0,10.33,20,20 l3,0 c1.33,-3.0,2.33,-6.42,3,-10.25 c0.67,-3.83,1,-8.42,1,-13.75 c0,-5.67,-0.92,-11.5,-2.75,-17.5 c-1.83,-6.0,-5.25,-11.5,-10.25,-16.5 c-8.0,-8.0,-20.0,-12,-36,-12 c-10.0,0,-18.92,1.42,-26.75,4.25 c-7.83,2.83,-15.08,6.08,-21.75,9.75 c-6.67,3.67,-13.67,6.92,-21,9.75 c-7.33,2.83,-15.5,4.25,-24.5,4.25 c-9.33,0,-17.17,-1.92,-23.5,-5.75 c-6.33,-3.83,-12.83,-10.42,-19.5,-19.75 l-3,0 c-1.33,3.33,-2.33,6.42,-3,9.25 c-0.67,2.83,-1,6.75,-1,11.75 c0,6.67,1.0,13.17,3,19.5 c2.0,6.33,5.17,11.67,9.5,16 c4.0,4.0,8.83,7.25,14.5,9.75 c5.67,2.5,12.33,3.75,20,3.75 c10.67,0,20.0,-1.42,28,-4.25 c8.0,-2.83,15.5,-6.08,22.5,-9.75 c7.0,-3.67,14.0,-6.92,21,-9.75 c7.0,-2.83,14.67,-4.25,23,-4.25 Z M207,365.5" fill="rgb(0,0,0)" transform="matrix(2.2871664548919948,0.0,0.0,-2.2871664548919948,142.05844980940282,950.0)"/>
</svg>