<?xml version="1.0" encoding="UTF-8"?>
<svg width="1000" height="1000" viewBox="0 0 1000 1000" version="1.1" xmlns="http://www.w3.org/2000/svg" xmlns:xlink="http://www.w3.org/1999/xlink">
 <path d="M93,-1 c-2.67,-0.33,-5.0,-0.58,-7,-0.75 c-2.0,-0.17,-4.17,-0.25,-6.5,-0.25 c-14.33,0,-24.5,4.92,-30.5,14.75 c-6.0,9.83,-9,21.42,-9,34.75 l0,280.5 c0,9.67,-0.58,18.33,-1.75,26 c-1.17,7.67,-3.25,14.67,-6.25,21 c6.0,1.67,11.5,2.5,16.5,2.5 c11.67,0,22.0,-4.83,31,-14.5 c9.0,-9.67,13.5,-26.83,13.5,-51.5 l0,-180 l2.5,-0.5 c12.33,6.33,23.75,13.42,34.25,21.25 c10.5,7.83,20.25,16.92,29.25,27.25 c22.0,25.67,40.17,56.33,54.5,92 l9,0 c12.67,0,22.92,-1.92,30.75,-5.75 c7.83,-3.83,11.75,-8.58,11.75,-14.25 c0,-4.67,-2.83,-12.5,-8.5,-23.5 c-10.0,-19.0,-21.58,-36.25,-34.75,-51.75 c-13.17,-15.5,-27.58,-29.08,-43.25,-40.75 c30.0,-50.33,65.5,-94.83,106.5,-133.5 c-4.0,-2.33,-8.92,-4.08,-14.75,-5.25 c-5.83,-1.17,-12.08,-1.75,-18.75,-1.75 c-18.33,0,-32.67,5.0,-43,15 c-14.67,14.67,-27.83,31.17,-39.5,49.5 c-6.0,9.67,-11.08,18.75,-15.25,27.25 c-4.17,8.5,-8.08,16.92,-11.75,25.25 l-1.5,0 c-15.67,-7.33,-31.5,-12.83,-47.5,-16.5 Z M93,-1" fill="rgb(0,0,0)" transform="matrix(2.3529411764705883,0.0,0.0,-2.3529411764705883,127.05882352941171,938.2352941176471)"/>
</svg>