<?xml version="1.0" encoding="UTF-8"?>
<svg width="1000" height="1000" viewBox="0 0 1000 1000" version="1.1" xmlns="http://www.w3.org/2000/svg" xmlns:xlink="http://www.w3.org/1999/xlink">
 <path d="M33,53 l113.5,0 l1,2.5 c-8.33,10.33,-12.5,25.67,-12.5,46 l0,229.5 l-2,2 c-20.67,-3.0,-37.17,-5.67,-49.5,-8 c-12.33,-2.33,-21.33,-3.5,-27,-3.5 c-6.33,0,-11.67,2.5,-16,7.5 c-4.33,5.0,-6.5,13.17,-6.5,24.5 c0,8.0,1.17,15.17,3.5,21.5 c15.67,1.67,32.58,2.92,50.75,3.75 c18.17,0.83,33.75,1.25,46.75,1.25 c18.33,0,31.75,-2.42,40.25,-7.25 c8.5,-4.83,12.75,-14.58,12.75,-29.25 l0,-290.5 c31.0,-0.67,54.42,-4.67,70.25,-12 c15.83,-7.33,23.75,-16.33,23.75,-27 c0,-2.67,-0.25,-5.08,-0.75,-7.25 c-0.5,-2.17,-1.08,-4.42,-1.75,-6.75 l-211.5,0 c-15.0,0,-24.92,2.75,-29.75,8.25 c-4.83,5.5,-7.25,14.92,-7.25,28.25 c0,6.67,0.67,12.17,2,16.5 Z M33,53" fill="rgb(0,0,0)" transform="matrix(2.3684210526315788,0.0,0.0,-2.3684210526315788,129.34210526315792,950.0)"/>
</svg>