<?xml version="1.0" encoding="UTF-8"?>
<svg width="1000" height="1000" viewBox="0 0 1000 1000" version="1.1" xmlns="http://www.w3.org/2000/svg" xmlns:xlink="http://www.w3.org/1999/xlink">
 <path d="M139,356 l16.5,0 c5.33,0,10.08,-1.08,14.25,-3.25 c4.17,-2.17,9.58,-7.08,16.25,-14.75 c16.0,-16.67,30.58,-35.42,43.75,-56.25 c13.17,-20.83,24.42,-44.25,33.75,-70.25 c6.67,-17.33,10,-29.33,10,-36 c0,-6.67,-3.33,-18.67,-10,-36 c-11.0,-28.33,-25.33,-55.5,-43,-81.5 c-17.67,-26.0,-36.17,-47.0,-55.5,-63 l-16.5,0 c-5.33,0,-10.0,1.08,-14,3.25 c-4.0,2.17,-9.5,6.92,-16.5,14.25 c-15.67,17.0,-30.0,35.83,-43,56.5 c-13.0,20.67,-24.33,44.17,-34,70.5 c-6.67,18.0,-10,30.0,-10,36 c0,2.67,0.83,7.17,2.5,13.5 c1.67,6.33,4.17,13.83,7.5,22.5 c7.33,19.0,16.25,37.5,26.75,55.5 c10.5,18.0,21.83,34.67,34,50 c12.17,15.33,24.58,28.33,37.25,39 Z M85,175 c4.67,-17.33,9.83,-32.75,15.5,-46.25 c5.67,-13.5,12.5,-26.42,20.5,-38.75 c8.0,-12.33,18.17,-25.17,30.5,-38.5 c12.0,13.67,22.17,26.75,30.5,39.25 c8.33,12.5,15.42,25.5,21.25,39 c5.83,13.5,11.25,28.75,16.25,45.75 c-4.67,17.67,-9.83,33.25,-15.5,46.75 c-5.67,13.5,-12.58,26.42,-20.75,38.75 c-8.17,12.33,-18.25,25.33,-30.25,39 c-12.0,-13.67,-22.17,-26.83,-30.5,-39.5 c-8.33,-12.67,-15.5,-25.83,-21.5,-39.5 c-6.0,-13.67,-11.33,-29.0,-16,-46 Z M85,175" fill="rgb(0,0,0)" transform="matrix(2.4930747922437675,0.0,0.0,-2.4930747922437675,120.4293628808864,937.5346260387812)"/>
</svg>