<?xml version="1.0" encoding="UTF-8"?>
<svg width="1000" height="1000" viewBox="0 0 1000 1000" version="1.1" xmlns="http://www.w3.org/2000/svg" xmlns:xlink="http://www.w3.org/1999/xlink">
 <path d="M45,80.5 c12.33,9.33,24.33,19.25,36,29.75 c11.67,10.5,23.17,21.25,34.5,32.25 c-24.67,24.67,-47.67,49.67,-69,75 c3.33,6.0,7.67,11.5,13,16.5 c5.67,5.67,10.33,9.5,14,11.5 c3.67,2.0,7.33,3,11,3 c5.33,0,10.67,-3.33,16,-10 c16.33,-20.0,33.33,-39.5,51,-58.5 c8.67,9.33,17.25,18.92,25.75,28.75 c8.5,9.83,16.92,19.75,25.25,29.75 c5.67,6.67,11.17,10,16.5,10 c4.0,0,7.83,-1.0,11.5,-3 c3.67,-2.0,8.17,-5.83,13.5,-11.5 c2.0,-2.0,4.33,-4.58,7,-7.75 c2.67,-3.17,4.67,-6.08,6,-8.75 c-11.0,-13.0,-22.17,-25.75,-33.5,-38.25 c-11.33,-12.5,-23.0,-24.75,-35,-36.75 c23.0,-22.0,46.33,-42.67,70,-62 c-0.67,-0.67,-1.5,-1.42,-2.5,-2.25 c-1.0,-0.83,-2.0,-1.75,-3,-2.75 c-6.67,-7.0,-12.67,-12.0,-18,-15 c-5.33,-3.0,-10.67,-4.5,-16,-4.5 c-3.67,0,-6.92,0.75,-9.75,2.25 c-2.83,1.5,-7.08,4.58,-12.75,9.25 c-15.0,13.0,-29.83,26.33,-44.5,40 c-14.0,-13.33,-28.67,-26.5,-44,-39.5 c-5.67,-5.0,-10.08,-8.25,-13.25,-9.75 c-3.17,-1.5,-6.92,-2.25,-11.25,-2.25 c-4.67,0,-9.58,1.5,-14.75,4.5 c-5.17,3.0,-11.42,8.0,-18.75,15 c-0.67,1.0,-1.5,1.92,-2.5,2.75 c-1.0,0.83,-1.83,1.58,-2.5,2.25 Z M45,80.5" fill="rgb(0,0,0)" transform="matrix(4.215456674473068,0.0,0.0,-4.215456674473068,-139.69555035128803,1141.8032786885246)"/>
</svg>