<?xml version="1.0" encoding="UTF-8"?>
<svg width="1000" height="1000" viewBox="0 0 1000 1000" version="1.1" xmlns="http://www.w3.org/2000/svg" xmlns:xlink="http://www.w3.org/1999/xlink">
 <path d="M93.5,-1 c-2.67,-0.33,-5.08,-0.58,-7.25,-0.75 c-2.17,-0.17,-4.58,-0.25,-7.25,-0.25 c-14.0,0,-23.92,2.75,-29.75,8.25 c-5.83,5.5,-8.75,13.08,-8.75,22.75 l0,191.5 c0,10.0,-0.58,18.75,-1.75,26.25 c-1.17,7.5,-3.25,14.42,-6.25,20.75 c5.67,1.67,11.0,2.5,16,2.5 c13.33,0,24.17,-4.83,32.5,-14.5 c8.33,-9.67,12.5,-26.83,12.5,-51.5 l0,-21.5 l3,0 c7.33,17.33,16.42,32.75,27.25,46.25 c10.83,13.5,22.83,24.17,36,32 c13.17,7.83,26.58,11.75,40.25,11.75 c11.33,0,21.33,-3.83,30,-11.5 c8.67,-7.67,15.5,-17.42,20.5,-29.25 c5.0,-11.83,7.5,-24.08,7.5,-36.75 l0,-123 c0,-14.33,0.67,-26.67,2,-37 c1.33,-10.33,3.67,-22.0,7,-35 c-5.67,-1.33,-12.17,-2,-19.5,-2 c-14.67,0,-26.25,4.5,-34.75,13.5 c-8.5,9.0,-12.75,26.67,-12.75,53 c0,20.67,1.0,40.58,3,59.75 c2.0,19.17,5.0,41.25,9,66.25 c-6.0,16.33,-15.33,24.5,-28,24.5 c-16.33,0,-32.42,-8.58,-48.25,-25.75 c-15.83,-17.17,-29.92,-42.92,-42.25,-77.25 Z M181.5,407 c17.0,0,30.0,-2.17,39,-6.5 c4.0,-2.0,6.58,-4.92,7.75,-8.75 c1.17,-3.83,1.08,-7.75,-0.25,-11.75 c-3.33,-12.33,-9.17,-23.5,-17.5,-33.5 c-8.33,-10.0,-17.67,-18.17,-28,-24.5 c-9.67,-6.0,-20.83,-9,-33.5,-9 c-4.67,0,-9.25,0.58,-13.75,1.75 c-4.5,1.17,-8.58,3.08,-12.25,5.75 c15.67,13.67,28.25,27.08,37.75,40.25 c9.5,13.17,16.42,28.58,20.75,46.25 Z M181.5,407" fill="rgb(0,0,0)" transform="matrix(2.2004889975550124,0.0,0.0,-2.2004889975550124,170.47677261613688,945.59902200489)"/>
</svg>