<?xml version="1.0" encoding="UTF-8"?>
<svg width="1000" height="1000" viewBox="0 0 1000 1000" version="1.1" xmlns="http://www.w3.org/2000/svg" xmlns:xlink="http://www.w3.org/1999/xlink">
 <path d="M29.5,114 l88,0 c10.33,23.33,19.83,47.33,28.5,72 l-81.5,0 c-15.0,0,-25.0,3.0,-30,9 c-5.0,6.0,-7.5,18.17,-7.5,36.5 l0,7.5 l135.5,0 c4.33,15.0,8.33,30.5,12,46.5 c1.33,5.67,4.17,10.0,8.5,13 c4.33,3.0,10.67,4.5,19,4.5 c5.67,0,11.0,-0.42,16,-1.25 c5.0,-0.83,9.67,-1.92,14,-3.25 c-4.67,-20.33,-9.83,-40.17,-15.5,-59.5 l30,0 c10.67,0,18.25,-2.25,22.75,-6.75 c4.5,-4.5,6.75,-12.58,6.75,-24.25 c0,-3.33,-0.17,-6.92,-0.5,-10.75 c-0.33,-3.83,-0.83,-7.58,-1.5,-11.25 l-74,0 c-8.67,-24.67,-18.0,-48.67,-28,-72 l67,0 c14.67,0,24.5,-3.0,29.5,-9 c5.0,-6.0,7.5,-18.17,7.5,-36.5 l0,-7.5 l-129.5,0 c-8.0,-15.67,-16.5,-31.0,-25.5,-46 c-4.0,-6.67,-8.67,-11.5,-14,-14.5 c-5.33,-3.0,-12.5,-4.5,-21.5,-4.5 c-12.33,0,-21.83,1.83,-28.5,5.5 c4.0,5.67,7.33,10.5,10,14.5 c2.67,4.0,5.67,9.17,9,15.5 c5.67,9.67,11.0,19.5,16,29.5 l-35,0 c-10.67,0,-18.33,2.33,-23,7 c-4.67,4.67,-7,12.67,-7,24 c0,3.67,0.33,7.42,1,11.25 c0.67,3.83,1.17,7.42,1.5,10.75 Z M29.5,114" fill="rgb(0,0,0)" transform="matrix(2.9315960912052117,0.0,0.0,-2.9315960912052117,55.863192182410444,938.2736156351791)"/>
</svg>