<?xml version="1.0" encoding="UTF-8"?>
<svg width="1000" height="1000" viewBox="0 0 1000 1000" version="1.1" xmlns="http://www.w3.org/2000/svg" xmlns:xlink="http://www.w3.org/1999/xlink">
 <path d="M181,10 c2.0,0.33,4.5,-0.08,7.5,-1.25 c3.0,-1.17,7.67,-4.08,14,-8.75 c-1.67,-2.33,-5.83,-4.33,-12.5,-6 c-30.33,-7.33,-45.5,-22.17,-45.5,-44.5 c0,-15.33,9.33,-23,28,-23 c10.67,0,20.17,2.83,28.5,8.5 l3,0 c3.67,-7.33,5.5,-15.33,5.5,-24 c0,-12.33,-3.92,-21.42,-11.75,-27.25 c-7.83,-5.83,-18.58,-8.75,-32.25,-8.75 c-19.0,0,-34.42,5.25,-46.25,15.75 c-11.83,10.5,-17.75,24.92,-17.75,43.25 c0,15.0,3.75,28.0,11.25,39 c7.5,11.0,17.25,19.75,29.25,26.25 c12.0,6.5,25.0,10.08,39,10.75 Z M181,10" fill="rgb(0,0,0)" transform="matrix(6.661184144249685,0.0,0.0,-6.661184144249685,-535.814134430826,117.35198196878946)"/>
</svg>