<?xml version="1.0" encoding="UTF-8"?>
<svg width="1000" height="1000" viewBox="0 0 1000 1000" version="1.1" xmlns="http://www.w3.org/2000/svg" xmlns:xlink="http://www.w3.org/1999/xlink">
 <path d="M223,407 c16.33,0.67,29.17,-1.5,38.5,-6.5 c4.0,-2.0,6.58,-4.83,7.75,-8.5 c1.17,-3.67,1.25,-7.5,0.25,-11.5 c-3.33,-12.33,-9.25,-23.58,-17.75,-33.75 c-8.5,-10.17,-17.92,-18.25,-28.25,-24.25 c-9.33,-6.0,-20.33,-9,-33,-9 c-10.33,0,-19.17,2.33,-26.5,7 c15.67,13.67,28.25,27.17,37.75,40.5 c9.5,13.33,16.58,28.67,21.25,46 Z M119,407 c16.67,0,29.5,-2.17,38.5,-6.5 c4.0,-2.0,6.58,-4.92,7.75,-8.75 c1.17,-3.83,1.08,-7.75,-0.25,-11.75 c-3.33,-12.33,-9.17,-23.5,-17.5,-33.5 c-8.33,-10.0,-17.67,-18.17,-28,-24.5 c-9.67,-6.0,-20.67,-9,-33,-9 c-10.33,0,-19.17,2.5,-26.5,7.5 c15.67,13.67,28.25,27.08,37.75,40.25 c9.5,13.17,16.58,28.58,21.25,46.25 Z M151,272.5 c22.0,0,42.08,-5.83,60.25,-17.5 c18.17,-11.67,32.67,-28.58,43.5,-50.75 c10.83,-22.17,16.25,-49.25,16.25,-81.25 l0,-5.5 c0,-25.0,-5.08,-46.75,-15.25,-65.25 c-10.17,-18.5,-24.42,-32.75,-42.75,-42.75 c-18.33,-10.0,-39.83,-15,-64.5,-15 c-22.67,0,-43.0,4.58,-61,13.75 c-18.0,9.17,-32.25,22.83,-42.75,41 c-10.5,18.17,-15.75,40.92,-15.75,68.25 l0,5.5 c0,30.33,5.25,56.67,15.75,79 c10.5,22.33,24.92,39.67,43.25,52 c18.33,12.33,39.33,18.5,63,18.5 Z M157,222 c-25.67,0,-44.83,-9.17,-57.5,-27.5 c-12.67,-18.33,-19,-43.33,-19,-75 l0,-3 c0,-12.67,1.58,-24.92,4.75,-36.75 c3.17,-11.83,8.42,-22.08,15.75,-30.75 c6.67,-1.33,13.08,-2.42,19.25,-3.25 c6.17,-0.83,13.25,-1.25,21.25,-1.25 c26.67,0,46.33,6.58,59,19.75 c12.67,13.17,19,31.92,19,56.25 l0,3.5 c0,20.0,-2.17,37.92,-6.5,53.75 c-4.33,15.83,-11.33,29.25,-21,40.25 c-4.67,1.67,-9.83,2.75,-15.5,3.25 c-5.67,0.5,-12.17,0.75,-19.5,0.75 Z M157,222" fill="rgb(0,0,0)" transform="matrix(2.1811960841218947,0.0,0.0,-2.1811960841218947,172.82058738171577,938.0034215373296)"/>
</svg>