<?xml version="1.0" encoding="UTF-8"?>
<svg width="1000" height="1000" viewBox="0 0 1000 1000" version="1.1" xmlns="http://www.w3.org/2000/svg" xmlns:xlink="http://www.w3.org/1999/xlink">
 <path d="M40,53 l114.5,0 l0,3 c-9.0,7.33,-13.5,20.67,-13.5,40 l0,193 l-3,0 c-4.33,-9.33,-9.33,-17.92,-15,-25.75 c-5.67,-7.83,-12.17,-15.25,-19.5,-22.25 c-8.0,-8.33,-15.33,-14.17,-22,-17.5 c-6.67,-3.33,-13.0,-5,-19,-5 c-6.0,0,-10.83,3.08,-14.5,9.25 c-3.67,6.17,-5.5,16.75,-5.5,31.75 l0,8 c10.67,5.33,20.5,11.25,29.5,17.75 c9.0,6.5,17.67,14.08,26,22.75 c7.33,7.33,13.92,14.92,19.75,22.75 c5.83,7.83,10.58,14.75,14.25,20.75 c7.0,2.33,15.67,3.5,26,3.5 c12.0,0,21.0,-1.33,27,-4 c6.0,-2.67,9,-7.83,9,-15.5 l0,-282.5 c27.33,-1.0,48.33,-5.08,63,-12.25 c14.67,-7.17,22,-16.08,22,-26.75 c0,-5.33,-0.5,-10.0,-1.5,-14 l-201,0 c-14.0,0,-23.33,2.33,-28,7 c-3.33,3.33,-5.75,7.83,-7.25,13.5 c-1.5,5.67,-2.25,11.67,-2.25,18 c0,3.0,0.08,5.67,0.25,8 c0.17,2.33,0.42,4.5,0.75,6.5 Z M40,53" fill="rgb(0,0,0)" transform="matrix(2.535211267605634,0.0,0.0,-2.535211267605634,96.9014084507042,950.0)"/>
</svg>