<?xml version="1.0" encoding="UTF-8"?>
<svg width="1000" height="1000" viewBox="0 0 1000 1000" version="1.1" xmlns="http://www.w3.org/2000/svg" xmlns:xlink="http://www.w3.org/1999/xlink">
 <path d="M180.5,205.5 c15.0,23.0,26.0,46.58,33,70.75 c7.0,24.17,11.67,49.42,14,75.75 c3.33,1.0,6.67,1.75,10,2.25 c3.33,0.5,7.5,0.75,12.5,0.75 c16.0,0,24,-7.67,24,-23 c0,-11.33,-2.0,-24.58,-6,-39.75 c-4.0,-15.17,-9.5,-30.08,-16.5,-44.75 c-7.0,-14.67,-14.83,-27.0,-23.5,-37 c-3.67,-4.0,-7.33,-6.67,-11,-8 c-3.67,-1.33,-7.83,-2,-12.5,-2 c-10.33,0,-18.33,1.67,-24,5 Z M261.5,-41 c-4.33,-1.33,-10.5,-2,-18.5,-2 c-8.0,0,-14.17,1.5,-18.5,4.5 c-4.33,3.0,-6.5,9.0,-6.5,18 l0,23 l-67,0 c-5.67,0,-10.67,3.33,-15,10 c-4.33,6.67,-6.5,14.67,-6.5,24 l0,2 c0,6.0,2.17,14.67,6.5,26 c4.33,11.33,9.67,23.33,16,36 c6.33,12.67,12.83,24.58,19.5,35.75 c6.67,11.17,12.5,19.42,17.5,24.75 c5.0,6.33,10.0,10.67,15,13 c5.0,2.33,10.67,3.5,17,3.5 c10.33,0,19.5,-3.5,27.5,-10.5 l0,-2.5 c-16.0,-16.0,-31.42,-35.17,-46.25,-57.5 c-14.83,-22.33,-26.25,-44.17,-34.25,-65.5 l0,-1.5 c16.33,2.67,32.67,4,49,4 l1.5,0 c0.33,8.67,1.42,17.25,3.25,25.75 c1.83,8.5,4.58,16.92,8.25,25.25 l2,0 c7.33,0,13.58,-1.75,18.75,-5.25 c5.17,-3.5,7.75,-7.58,7.75,-12.25 l0,-33.5 l9,0 c7.33,0,12.25,-2.25,14.75,-6.75 c2.5,-4.5,3.75,-10.42,3.75,-17.75 c0,-3.33,-0.25,-6.33,-0.75,-9 c-0.5,-2.67,-1.08,-5.33,-1.75,-8 l-25,0 l0,-16.5 c0,-11.0,1.0,-20.0,3,-27 Z M119.5,144.5 c-15.0,-23.33,-25.92,-47.08,-32.75,-71.25 c-6.83,-24.17,-11.58,-49.42,-14.25,-75.75 c-5.33,-1.67,-12.83,-2.5,-22.5,-2.5 c-16.0,0,-24,7.5,-24,22.5 c0,11.67,2.0,25.08,6,40.25 c4.0,15.17,9.5,30.0,16.5,44.5 c7.0,14.5,14.83,26.75,23.5,36.75 c3.67,4.33,7.0,7.17,10,8.5 c3.0,1.33,7.17,2,12.5,2 c10.0,0,18.33,-1.67,25,-5 Z M10.5,224.5 l59,0 l0.5,2 c-3.33,2.0,-5.75,4.58,-7.25,7.75 c-1.5,3.17,-2.25,8.08,-2.25,14.75 l0,88.5 l-2,0 c-2.67,-5.67,-5.58,-11.33,-8.75,-17 c-3.17,-5.67,-6.58,-11.0,-10.25,-16 c-2.33,-3.33,-5.0,-6.17,-8,-8.5 c-3.0,-2.33,-6.33,-3.5,-10,-3.5 c-4.0,0,-7.42,2.5,-10.25,7.5 c-2.83,5.0,-4.25,13.83,-4.25,26.5 l0,12 c4.67,3.33,9.17,6.75,13.5,10.25 c4.33,3.5,8.33,7.42,12,11.75 c4.0,4.67,7.83,9.5,11.5,14.5 c3.67,5.0,6.83,10.17,9.5,15.5 c2.67,1.33,6.25,2.25,10.75,2.75 c4.5,0.5,8.75,0.75,12.75,0.75 c7.0,0,13.0,-0.92,18,-2.75 c5.0,-1.83,7.5,-5.75,7.5,-11.75 l0,-155 c28.0,-1.0,42,-9.33,42,-25 c0,-7.0,-0.67,-13.17,-2,-18.5 l-105.5,0 c-10.67,0,-18.17,2.42,-22.5,7.25 c-4.33,4.83,-6.5,11.75,-6.5,20.75 c0,3.33,0.25,6.17,0.75,8.5 c0.5,2.33,1.08,4.67,1.75,7 Z M10.5,224.5" fill="rgb(0,0,0)" transform="matrix(2.059496567505721,0.0,0.0,-2.059496567505721,198.28375286041188,861.441647597254)"/>
</svg>