<?xml version="1.0" encoding="UTF-8"?>
<svg width="1000" height="1000" viewBox="0 0 1000 1000" version="1.1" xmlns="http://www.w3.org/2000/svg" xmlns:xlink="http://www.w3.org/1999/xlink">
 <path d="M111.5,145 c-12.0,0,-23.0,3.75,-33,11.25 c-10.0,7.5,-17.92,17.83,-23.75,31 c-5.83,13.17,-8.75,28.08,-8.75,44.75 l0,8.5 c0,32.0,4.0,58.33,12,79 c8.0,20.67,18.83,35.92,32.5,45.75 c13.67,9.83,28.83,14.75,45.5,14.75 c10.67,0,20.83,-2.92,30.5,-8.75 c9.67,-5.83,16.83,-13.42,21.5,-22.75 l3,0 c0.33,5.33,0.83,10.17,1.5,14.5 c0.67,4.33,1.5,8.67,2.5,13 c2.67,0.33,5.17,0.58,7.5,0.75 c2.33,0.17,5.0,0.25,8,0.25 c7.67,0,14.0,-3.33,19,-10 c5.0,-6.67,7.5,-18.67,7.5,-36 l0,-136.5 c2.67,-2.0,5.5,-3,8.5,-3 c6.33,0,11.5,2.17,15.5,6.5 l3,0 c0.67,-2.0,1.08,-4.25,1.25,-6.75 c0.17,-2.5,0.25,-4.92,0.25,-7.25 c0,-6.0,-0.83,-11.67,-2.5,-17 c-1.67,-5.33,-4.33,-9.83,-8,-13.5 c-5.0,-5.0,-11.67,-7.5,-20,-7.5 c-13.33,0,-24.08,5.0,-32.25,15 c-8.17,10.0,-12.25,23.33,-12.25,40 l0,13.5 l-3,0 c-8.33,-21.0,-19.42,-37.83,-33.25,-50.5 c-13.83,-12.67,-28.08,-19,-42.75,-19 Z M96.5,203 c4.33,-6.33,10.67,-9.5,19,-9.5 c14.67,0,28.17,5.83,40.5,17.5 c12.33,11.67,23.83,31.17,34.5,58.5 l0,47 c-6.67,6.33,-13.17,11.0,-19.5,14 c-6.33,3.0,-14.0,4.5,-23,4.5 c-18.33,0,-32.08,-7.58,-41.25,-22.75 c-9.17,-15.17,-13.75,-37.42,-13.75,-66.75 l0,-4 c0,-15.0,1.17,-27.83,3.5,-38.5 Z M96.5,203" fill="rgb(0,0,0)" transform="matrix(3.8297872340425534,0.0,0.0,-3.8297872340425534,-96.48936170212767,1505.3191489361702)"/>
</svg>