<?xml version="1.0" encoding="UTF-8"?>
<svg width="1000" height="1000" viewBox="0 0 1000 1000" version="1.1" xmlns="http://www.w3.org/2000/svg" xmlns:xlink="http://www.w3.org/1999/xlink">
 <path d="M34.5,268 c2.67,0.67,5.33,1.17,8,1.5 c2.67,0.33,5.33,0.5,8,0.5 c12.33,0,22.92,-4.75,31.75,-14.25 c8.83,-9.5,13.25,-26.58,13.25,-51.25 l0,-14.5 l3.5,0 c6.0,16.33,14.0,30.67,24,43 c10.0,12.33,21.08,22.0,33.25,29 c12.17,7.0,24.75,10.5,37.75,10.5 c14.67,0,27.92,-4.5,39.75,-13.5 c11.83,-9.0,21.25,-21.25,28.25,-36.75 c7.0,-15.5,10.5,-33.25,10.5,-53.25 l0,-10 c0,-38.33,-4.92,-69.67,-14.75,-94 c-9.83,-24.33,-22.83,-42.17,-39,-53.5 c-16.17,-11.33,-33.92,-17,-53.25,-17 c-15.0,0,-28.33,4.0,-40,12 c-11.67,8.0,-20.5,16.83,-26.5,26.5 l-3.5,0 l0,-132 c-3.0,-0.33,-5.42,-0.58,-7.25,-0.75 c-1.83,-0.17,-4.08,-0.25,-6.75,-0.25 c-14.0,0,-24.0,4.92,-30,14.75 c-6.0,9.83,-9,21.42,-9,34.75 l0,271.5 c0,18.67,-2.67,34.33,-8,47 Z M188.5,216.5 c-18.33,0,-35.17,-6.67,-50.5,-20 c-15.33,-13.33,-29.5,-36.67,-42.5,-70 l0,-57 c8.0,-8.0,16.33,-13.92,25,-17.75 c8.67,-3.83,19.0,-5.75,31,-5.75 c22.67,0,39.42,9.08,50.25,27.25 c10.83,18.17,16.25,44.75,16.25,79.75 l0,5 c0,9.67,-0.33,18.08,-1,25.25 c-0.67,7.17,-2.0,13.58,-4,19.25 c-6.0,9.33,-14.17,14,-24.5,14 Z M188.5,216.5" fill="rgb(0,0,0)" transform="matrix(2.4161073825503356,0.0,0.0,-2.4161073825503356,129.12751677852344,708.3892617449665)"/>
</svg>