<?xml version="1.0" encoding="UTF-8"?>
<svg width="1000" height="1000" viewBox="0 0 1000 1000" version="1.1" xmlns="http://www.w3.org/2000/svg" xmlns:xlink="http://www.w3.org/1999/xlink">
 <path d="M120.5,-69.5 c-11.0,-11.33,-22.33,-17,-34,-17 c-8.33,0,-15.25,1.33,-20.75,4 c-5.5,2.67,-10.42,5.67,-14.75,9 l0,2.5 c29.67,28.33,52.33,61.33,68,99 c15.67,37.67,23.5,77.5,23.5,119.5 l0,3.5 c0,42.67,-7.83,82.67,-23.5,120 c-15.67,37.33,-38.33,70.17,-68,98.5 l0,2.5 c4.33,3.67,9.25,6.75,14.75,9.25 c5.5,2.5,12.42,3.75,20.75,3.75 c12.0,0,23.33,-5.5,34,-16.5 c26.0,-26.0,46.17,-57.83,60.5,-95.5 c14.33,-37.67,21.5,-78.33,21.5,-122 l0,-3.5 c0,-43.33,-7.08,-83.83,-21.25,-121.5 c-14.17,-37.67,-34.42,-69.5,-60.75,-95.5 Z M120.5,-69.5" fill="rgb(0,0,0)" transform="matrix(1.9088016967126193,0.0,0.0,-1.9088016967126193,258.0593849416755,784.8886532343585)"/>
</svg>