<?xml version="1.0" encoding="UTF-8"?>
<svg width="1000" height="1000" viewBox="0 0 1000 1000" version="1.1" xmlns="http://www.w3.org/2000/svg" xmlns:xlink="http://www.w3.org/1999/xlink">
 <path d="M87.5,355 c22.33,0,40.58,-7.92,54.75,-23.75 c14.17,-15.83,21.25,-36.58,21.25,-62.25 l0,-3 c0,-27.0,-7.17,-48.42,-21.5,-64.25 c-14.33,-15.83,-33.67,-23.75,-58,-23.75 c-23.33,0,-41.67,7.5,-55,22.5 c-13.33,15.0,-20,35.33,-20,61 l0,3 c0,27.0,7.25,48.83,21.75,65.5 c14.5,16.67,33.42,25,56.75,25 Z M174.5,202 c15.33,23.67,26.58,47.67,33.75,72 c7.17,24.33,11.25,49.67,12.25,76 c9.0,3.0,17.83,4.5,26.5,4.5 c10.33,0,17.58,-2.08,21.75,-6.25 c4.17,-4.17,6.25,-10.58,6.25,-19.25 c0,-11.33,-2.25,-24.58,-6.75,-39.75 c-4.5,-15.17,-10.67,-29.92,-18.5,-44.25 c-7.83,-14.33,-16.75,-26.17,-26.75,-35.5 c-5.67,-5.0,-10.58,-8.33,-14.75,-10 c-4.17,-1.67,-8.92,-2.5,-14.25,-2.5 c-7.67,0,-14.17,1.67,-19.5,5 Z M45.5,260.5 c0,-5.67,0.67,-11.5,2,-17.5 c1.33,-6.0,4.0,-11.33,8,-16 c3.67,-1.67,7.33,-2.75,11,-3.25 c3.67,-0.5,6.5,-0.75,8.5,-0.75 c14.67,0,25.75,4.25,33.25,12.75 c7.5,8.5,11.25,20.58,11.25,36.25 l0,2.5 c0,7.67,-1.0,15.17,-3,22.5 c-2.0,7.33,-5.83,14.0,-11.5,20 c-4.0,1.33,-9.33,2,-16,2 c-13.0,0,-23.5,-5.17,-31.5,-15.5 c-8.0,-10.33,-12,-23.83,-12,-40.5 Z M215,172 c22.33,0,40.58,-7.92,54.75,-23.75 c14.17,-15.83,21.25,-36.58,21.25,-62.25 l0,-3 c0,-27.0,-7.17,-48.42,-21.5,-64.25 c-14.33,-15.83,-33.67,-23.75,-58,-23.75 c-23.33,0,-41.67,7.5,-55,22.5 c-13.33,15.0,-20,35.33,-20,61 l0,3 c0,27.0,7.25,48.83,21.75,65.5 c14.5,16.67,33.42,25,56.75,25 Z M125.5,147.5 c-15.33,-23.67,-26.58,-47.58,-33.75,-71.75 c-7.17,-24.17,-11.25,-49.58,-12.25,-76.25 c-4.33,-1.33,-8.67,-2.33,-13,-3 c-4.33,-0.67,-8.83,-1,-13.5,-1 c-10.33,0,-17.58,2.08,-21.75,6.25 c-4.17,4.17,-6.25,10.58,-6.25,19.25 c0,11.67,2.25,25.0,6.75,40 c4.5,15.0,10.75,29.67,18.75,44 c8.0,14.33,16.83,26.17,26.5,35.5 c5.67,5.0,10.58,8.25,14.75,9.75 c4.17,1.5,8.92,2.25,14.25,2.25 c7.67,0,14.17,-1.67,19.5,-5 Z M173,77.5 c0,-5.67,0.67,-11.5,2,-17.5 c1.33,-6.0,3.83,-11.33,7.5,-16 c4.0,-1.67,7.75,-2.75,11.25,-3.25 c3.5,-0.5,6.25,-0.75,8.25,-0.75 c15.0,0,26.17,4.25,33.5,12.75 c7.33,8.5,11,20.58,11,36.25 l0,2.5 c0,7.67,-0.92,15.17,-2.75,22.5 c-1.83,7.33,-5.58,14.0,-11.25,20 c-4.0,1.33,-9.5,2,-16.5,2 c-12.67,0,-23.0,-5.17,-31,-15.5 c-8.0,-10.33,-12,-23.83,-12,-40.5 Z M173,77.5" fill="rgb(0,0,0)" transform="matrix(2.5,0.0,0.0,-2.5,125.0,937.5)"/>
</svg>