<?xml version="1.0" encoding="UTF-8"?>
<svg width="1000" height="1000" viewBox="0 0 1000 1000" version="1.1" xmlns="http://www.w3.org/2000/svg" xmlns:xlink="http://www.w3.org/1999/xlink">
 <path d="M30,267 l214.5,0 c9.67,0,16.33,-2.67,20,-8 c3.67,-5.33,5.5,-13.83,5.5,-25.5 c0,-3.33,-0.17,-6.75,-0.5,-10.25 c-0.33,-3.5,-0.83,-6.58,-1.5,-9.25 l-45.5,0 l0,-3 c5.0,-5.33,8.42,-11.0,10.25,-17 c1.83,-6.0,2.75,-13.5,2.75,-22.5 l0,-98 c0,-8.67,0.5,-16.0,1.5,-22 c5.33,-2.67,10.67,-4,16,-4 c4.0,0,7.33,0.67,10,2 l3,0 l0,-6 c0,-7.0,-0.92,-14.25,-2.75,-21.75 c-1.83,-7.5,-4.5,-13.83,-8,-19 c-3.5,-5.17,-8.08,-7.75,-13.75,-7.75 l-1.5,0 c-11.0,0,-20.83,2.67,-29.5,8 c-8.67,5.33,-15.5,12.33,-20.5,21 c-5.0,8.67,-7.5,18.17,-7.5,28.5 l0,161.5 l-80,0 l0,-3 c4.67,-5.33,7.92,-11.42,9.75,-18.25 c1.83,-6.83,2.75,-16.58,2.75,-29.25 l0,-164.5 c-2.33,-0.33,-5.08,-0.75,-8.25,-1.25 c-3.17,-0.5,-6.58,-0.75,-10.25,-0.75 c-10.33,0,-18.92,1.42,-25.75,4.25 c-6.83,2.83,-10.25,8.92,-10.25,18.25 l0,194.5 l-12,0 c-8.0,0,-13.42,2.83,-16.25,8.5 c-2.83,5.67,-4.25,14.17,-4.25,25.5 c0,3.67,0.25,7.17,0.75,10.5 c0.5,3.33,0.92,6.17,1.25,8.5 Z M30,267" fill="rgb(0,0,0)" transform="matrix(3.3088235294117645,0.0,0.0,-3.3088235294117645,6.985294117647129,933.4558823529412)"/>
</svg>