<?xml version="1.0" encoding="UTF-8"?>
<svg width="1000" height="1000" viewBox="0 0 1000 1000" version="1.1" xmlns="http://www.w3.org/2000/svg" xmlns:xlink="http://www.w3.org/1999/xlink">
 <path d="M27.5,176.5 l96,0 l0,41.5 c0,19.33,-1.67,36.67,-5,52 c3.67,0.67,7.17,1.33,10.5,2 c3.33,0.67,6.83,1,10.5,1 c25.0,0,37.5,-13.83,37.5,-41.5 l0,-55 l62.5,0 c13.67,0,23.17,-2.33,28.5,-7 c5.33,-4.67,8,-13.33,8,-26 c0,-3.33,-0.08,-6.58,-0.25,-9.75 c-0.17,-3.17,-0.42,-6.58,-0.75,-10.25 l-98,0 l0,-94 c-3.33,-0.67,-6.33,-1.25,-9,-1.75 c-2.67,-0.5,-5.67,-0.75,-9,-0.75 c-12.0,0,-20.92,3.08,-26.75,9.25 c-5.83,6.17,-8.75,16.75,-8.75,31.75 l0,55.5 l-60,0 c-13.67,0,-23.5,2.33,-29.5,7 c-6.0,4.67,-9,12.67,-9,24 c0,8.0,0.83,15.33,2.5,22 Z M27.5,176.5" fill="rgb(0,0,0)" transform="matrix(3.585657370517928,0.0,0.0,-3.585657370517928,-39.64143426294822,1037.8486055776893)"/>
</svg>