<?xml version="1.0" encoding="UTF-8"?>
<svg width="1000" height="1000" viewBox="0 0 1000 1000" version="1.1" xmlns="http://www.w3.org/2000/svg" xmlns:xlink="http://www.w3.org/1999/xlink">
 <path d="M22,350 l234.5,0 c9.33,0,15.42,-3.17,18.25,-9.5 c2.83,-6.33,4.25,-14.33,4.25,-24 c0,-4.0,-0.17,-7.58,-0.5,-10.75 c-0.33,-3.17,-0.83,-6.08,-1.5,-8.75 l-43.5,0 l0,-3 c4.67,-3.33,7.83,-7.58,9.5,-12.75 c1.67,-5.17,2.5,-12.58,2.5,-22.25 l0,-301.5 c0,-9.67,0.42,-19.08,1.25,-28.25 c0.83,-9.17,2.08,-18.08,3.75,-26.75 c-7.33,-2.0,-14.83,-3,-22.5,-3 c-14.67,0,-24.75,2.5,-30.25,7.5 c-5.5,5.0,-8.25,14.5,-8.25,28.5 l0,361.5 l-92.5,0 l0,-3 c5.0,-5.33,8.5,-11.5,10.5,-18.5 c2.0,-7.0,3,-17.83,3,-32.5 l0,-340.5 c-4.0,-1.33,-10.17,-2,-18.5,-2 c-14.67,0,-24.58,2.5,-29.75,7.5 c-5.17,5.0,-7.75,13.17,-7.75,24.5 l0,364.5 l-14,0 c-9.67,0,-15.67,3.5,-18,10.5 c-2.33,7.0,-3.5,14.5,-3.5,22.5 c0,8.0,1.0,14.67,3,20 Z M22,350" fill="rgb(0,0,0)" transform="matrix(1.997780244173141,0.0,0.0,-1.997780244173141,202.330743618202,749.2230854605993)"/>
</svg>