<?xml version="1.0" encoding="UTF-8"?>
<svg width="1000" height="1000" viewBox="0 0 1000 1000" version="1.1" xmlns="http://www.w3.org/2000/svg" xmlns:xlink="http://www.w3.org/1999/xlink">
 <path d="M152.5,360 c25.67,0,46.5,-4.25,62.5,-12.75 c16.0,-8.5,27.75,-19.58,35.25,-33.25 c7.5,-13.67,11.25,-28.0,11.25,-43 l0,-2.5 c0,-16.67,-4.17,-32.33,-12.5,-47 c-8.33,-14.67,-22.17,-28.33,-41.5,-41 l-13,-8.5 c-12.67,-9.0,-21.08,-16.83,-25.25,-23.5 c-4.17,-6.67,-6.25,-14.33,-6.25,-23 l0,-3 l-3.5,0 c-15.0,0,-26.08,2.75,-33.25,8.25 c-7.17,5.5,-10.75,11.42,-10.75,17.75 l0,2 c0,8.67,3.42,17.67,10.25,27 c6.83,9.33,18.42,19.67,34.75,31 l11,8 c15.0,10.67,24.83,20.42,29.5,29.25 c4.67,8.83,7,18.25,7,28.25 c0,4.67,-0.42,8.83,-1.25,12.5 c-0.83,3.67,-2.08,7.0,-3.75,10 c-12.0,7.0,-28.17,10.5,-48.5,10.5 c-23.33,0,-42.92,-4.58,-58.75,-13.75 c-15.83,-9.17,-29.58,-21.58,-41.25,-37.25 l-3,0 c-2.67,3.67,-4.75,7.58,-6.25,11.75 c-1.5,4.17,-2.25,9.08,-2.25,14.75 c0,9.67,1.83,18.75,5.5,27.25 c3.67,8.5,8.67,15.92,15,22.25 c8.67,8.67,20.83,15.5,36.5,20.5 c15.67,5.0,33.17,7.5,52.5,7.5 Z M183.5,0.5 c-10.0,-3.0,-21.0,-4.5,-33,-4.5 c-14.0,0,-26.25,2.25,-36.75,6.75 c-10.5,4.5,-15.75,12.92,-15.75,25.25 l0,47 c9.67,3.0,20.67,4.5,33,4.5 c14.0,0,26.25,-2.17,36.75,-6.5 c10.5,-4.33,15.75,-12.83,15.75,-25.5 Z M183.5,0.5" fill="rgb(0,0,0)" transform="matrix(2.4725274725274726,0.0,0.0,-2.4725274725274726,123.55769230769226,940.1098901098901)"/>
</svg>