<?xml version="1.0" encoding="UTF-8"?>
<svg width="1000" height="1000" viewBox="0 0 1000 1000" version="1.1" xmlns="http://www.w3.org/2000/svg" xmlns:xlink="http://www.w3.org/1999/xlink">
 <path d="M173,221 c-4.33,-1.0,-10.33,-1.5,-18,-1.5 c-11.33,0,-19.5,1.92,-24.5,5.75 c-5.0,3.83,-7.83,10.08,-8.5,18.75 l-5,82 c-1.0,13.67,-2.0,23.75,-3,30.25 c-1.0,6.5,-2.5,12.75,-4.5,18.75 c2.67,0.67,5.58,1.17,8.75,1.5 c3.17,0.33,6.42,0.5,9.75,0.5 c18.67,0,32.17,-3.92,40.5,-11.75 c8.33,-7.83,12.0,-20.25,11,-37.25 Z M173,221" fill="rgb(0,0,0)" transform="matrix(5.714285714285714,0.0,0.0,-5.714285714285714,-326.17347670897425,2204.285714285714)"/>
</svg>