<?xml version="1.0" encoding="UTF-8"?>
<svg width="1000" height="1000" viewBox="0 0 1000 1000" version="1.1" xmlns="http://www.w3.org/2000/svg" xmlns:xlink="http://www.w3.org/1999/xlink">
 <path d="M149.5,368.5 c-12.33,-23.0,-21.25,-46.5,-26.75,-70.5 c-5.5,-24.0,-8.25,-49.67,-8.25,-77 c-6.67,-2.67,-15.0,-4,-25,-4 c-10.33,0,-18.92,2.0,-25.75,6 c-6.83,4.0,-10.25,11.83,-10.25,23.5 c0,16.33,1.92,32.5,5.75,48.5 c3.83,16.0,8.92,30.58,15.25,43.75 c6.33,13.17,13.17,23.75,20.5,31.75 c2.67,2.67,5.5,4.58,8.5,5.75 c3.0,1.17,7.0,1.75,12,1.75 c13.0,0,24.33,-3.17,34,-9.5 Z M263.5,368.5 c-12.33,-23.0,-21.25,-46.5,-26.75,-70.5 c-5.5,-24.0,-8.25,-49.67,-8.25,-77 c-6.67,-2.67,-15.0,-4,-25,-4 c-10.33,0,-18.92,2.0,-25.75,6 c-6.83,4.0,-10.25,11.83,-10.25,23.5 c0,16.33,1.92,32.5,5.75,48.5 c3.83,16.0,8.92,30.58,15.25,43.75 c6.33,13.17,13.17,23.75,20.5,31.75 c2.67,2.67,5.5,4.58,8.5,5.75 c3.0,1.17,7.0,1.75,12,1.75 c13.0,0,24.33,-3.17,34,-9.5 Z M263.5,368.5" fill="rgb(0,0,0)" transform="matrix(4.285714285714286,0.0,0.0,-4.285714285714286,-179.28571428571428,1775.0)"/>
</svg>