<?xml version="1.0" encoding="UTF-8"?>
<svg width="1000" height="1000" viewBox="0 0 1000 1000" version="1.1" xmlns="http://www.w3.org/2000/svg" xmlns:xlink="http://www.w3.org/1999/xlink">
 <path d="M170.5,378 c12.67,0,24.17,-3.17,34.5,-9.5 c-7.67,-14.67,-13.75,-29.17,-18.25,-43.5 c-4.5,-14.33,-7.75,-29.75,-9.75,-46.25 c-2.0,-16.5,-3,-35.75,-3,-57.75 c-9.33,-2.67,-18.5,-4,-27.5,-4 c-11.67,0,-20.75,2.33,-27.25,7 c-6.5,4.67,-9.75,13.33,-9.75,26 c0,15.0,1.75,30.17,5.25,45.5 c3.5,15.33,8.17,29.5,14,42.5 c5.83,13.0,12.25,23.17,19.25,30.5 c3.0,3.33,6.17,5.75,9.5,7.25 c3.33,1.5,7.67,2.25,13,2.25 Z M170.5,378" fill="rgb(0,0,0)" transform="matrix(5.590062111801243,0.0,0.0,-5.590062111801243,-379.03726708074544,2163.04347826087)"/>
</svg>