<?xml version="1.0" encoding="UTF-8"?>
<svg width="1000" height="1000" viewBox="0 0 1000 1000" version="1.1" xmlns="http://www.w3.org/2000/svg" xmlns:xlink="http://www.w3.org/1999/xlink">
 <path d="M150,380 c41.67,0,73.58,-11.5,95.75,-34.5 c22.17,-23.0,33.25,-57.33,33.25,-103 l0,-8.5 c0,-43.33,-11.25,-76.42,-33.75,-99.25 c-22.5,-22.83,-54.25,-34.25,-95.25,-34.25 c-41.67,0,-73.58,11.58,-95.75,34.75 c-22.17,23.17,-33.25,57.08,-33.25,101.75 l0,8.5 c0,43.67,11.25,77.0,33.75,100 c22.5,23.0,54.25,34.5,95.25,34.5 Z M150,355 c-32.67,0,-58.08,-8.58,-76.25,-25.75 c-18.17,-17.17,-27.25,-43.58,-27.25,-79.25 l0,-20 c0,-21.0,3.42,-38.92,10.25,-53.75 c6.83,-14.83,16.42,-26.58,28.75,-35.25 c10.33,-5.0,20.83,-8.83,31.5,-11.5 c10.67,-2.67,21.67,-4,33,-4 c32.67,0,58.08,8.58,76.25,25.75 c18.17,17.17,27.25,43.42,27.25,78.75 l0,19.5 c0,21.33,-3.33,39.5,-10,54.5 c-6.67,15.0,-16.33,26.83,-29,35.5 c-20.33,10.33,-41.83,15.5,-64.5,15.5 Z M155.5,320.5 c19.67,0,34.08,-4.58,43.25,-13.75 c9.17,-9.17,13.75,-19.42,13.75,-30.75 l0,-5 c0,-10.33,-2.92,-19.33,-8.75,-27 c-5.83,-7.67,-12.92,-14.0,-21.25,-19 c1.0,-2.67,2.0,-5.25,3,-7.75 c1.0,-2.5,1.83,-4.92,2.5,-7.25 c2.67,-7.0,4.92,-11.5,6.75,-13.5 c1.83,-2.0,3.75,-3,5.75,-3 c2.67,0,5.17,1.0,7.5,3 l3,0 c1.0,-4.0,1.5,-8.67,1.5,-14 c0,-13.67,-5.67,-20.5,-17,-20.5 l-2,0 c-12.33,0,-21.67,8.0,-28,24 c-1.67,4.33,-3.25,8.92,-4.75,13.75 c-1.5,4.83,-2.92,9.75,-4.25,14.75 c-3.33,-0.67,-6.67,-1,-10,-1 l-3,0 c-3.0,0,-5.42,0.25,-7.25,0.75 c-1.83,0.5,-3.58,1.25,-5.25,2.25 l-3,0 l0,-14.5 c0,-13.0,1.17,-25.33,3.5,-37 c-2.33,-1.33,-4.58,-2.17,-6.75,-2.5 c-2.17,-0.33,-4.42,-0.5,-6.75,-0.5 c-7.33,0,-12.83,2.17,-16.5,6.5 c-3.67,4.33,-5.5,10.17,-5.5,17.5 l0,99 c-2.0,-0.33,-3.83,-0.5,-5.5,-0.5 c-5.0,0,-7.5,5.17,-7.5,15.5 c0,6.0,0.67,10.83,2,14.5 c27.0,4.0,50.5,6,70.5,6 Z M128,260.5 l0,-21.5 c18.0,1.0,31.25,4.42,39.75,10.25 c8.5,5.83,12.75,12.75,12.75,20.75 l0,3 c0,5.67,-0.83,9.67,-2.5,12 c-3.67,2.0,-8.0,3.33,-13,4 c-5.0,0.67,-11.17,1,-18.5,1 c-5.0,0,-9.75,-0.17,-14.25,-0.5 c-4.5,-0.33,-8.58,-0.67,-12.25,-1 l0,-2.5 c3.33,-3.33,5.5,-6.83,6.5,-10.5 c1.0,-3.67,1.5,-8.67,1.5,-15 Z M128,260.5" fill="rgb(0,0,0)" transform="matrix(3.2200357781753133,0.0,0.0,-3.2200357781753133,16.994633273703016,1273.613595706619)"/>
</svg>