<?xml version="1.0" encoding="UTF-8"?>
<svg width="1000" height="1000" viewBox="0 0 1000 1000" version="1.1" xmlns="http://www.w3.org/2000/svg" xmlns:xlink="http://www.w3.org/1999/xlink">
 <path d="M168,-2 c-2.33,-0.67,-5.33,-1.33,-9,-2 c-3.67,-0.67,-7.67,-1,-12,-1 c-11.0,0,-19.67,2.42,-26,7.25 c-6.33,4.83,-9.5,12.42,-9.5,22.75 c0,25.0,5.25,52.0,15.75,81 c10.5,29.0,27.42,63.5,50.75,103.5 c11.67,19.67,20.5,36.75,26.5,51.25 c6.0,14.5,10.5,28.58,13.5,42.25 l-1.5,3 c-10.33,-2.67,-21.42,-4.5,-33.25,-5.5 c-11.83,-1.0,-25.92,-1.5,-42.25,-1.5 l-49.5,0 c-1.33,-11.67,-2.58,-23.75,-3.75,-36.25 c-1.17,-12.5,-1.75,-22.75,-1.75,-30.75 c-5.0,-1.33,-11.83,-2,-20.5,-2 c-9.67,0,-17.42,1.42,-23.25,4.25 c-5.83,2.83,-8.75,9.25,-8.75,19.25 c0,10.67,0.58,22.42,1.75,35.25 c1.17,12.83,2.75,25.58,4.75,38.25 c2.0,12.67,4.17,23.67,6.5,33 c8.67,0,17.0,-0.83,25,-2.5 c8.0,-1.67,14.17,-4.17,18.5,-7.5 l151.5,0 c9.67,0,16.58,-3.92,20.75,-11.75 c4.17,-7.83,6.25,-17.92,6.25,-30.25 l0,-4 c0,-12.33,-4.25,-29.33,-12.75,-51 c-8.5,-21.67,-20.75,-47.83,-36.75,-78.5 c-14.0,-26.33,-24.67,-49.42,-32,-69.25 c-7.33,-19.83,-12.33,-38.17,-15,-55 c-2.67,-16.83,-4,-34.25,-4,-52.25 Z M168,-2" fill="rgb(0,0,0)" transform="matrix(2.4657534246575343,0.0,0.0,-2.4657534246575343,127.67123287671234,937.6712328767123)"/>
</svg>