<?xml version="1.0" encoding="UTF-8"?>
<svg width="1000" height="1000" viewBox="0 0 1000 1000" version="1.1" xmlns="http://www.w3.org/2000/svg" xmlns:xlink="http://www.w3.org/1999/xlink">
 <path d="M282,375.5 c-22.33,-78.33,-48.58,-151.83,-78.75,-220.5 c-30.17,-68.67,-64.08,-131.67,-101.75,-189 c-8.33,-12.33,-16.58,-21.17,-24.75,-26.5 c-8.17,-5.33,-17.08,-8,-26.75,-8 c-11.0,0,-20.67,2.5,-29,7.5 c9.67,10.0,19.5,23.17,29.5,39.5 c35.67,57.67,67.42,118.33,95.25,182 c27.83,63.67,51.75,129.83,71.75,198.5 c2.67,7.67,7.42,13.33,14.25,17 c6.83,3.67,15.25,5.5,25.25,5.5 c4.67,0,8.92,-0.5,12.75,-1.5 c3.83,-1.0,7.92,-2.5,12.25,-4.5 Z M282,375.5" fill="rgb(0,0,0)" transform="matrix(2.0,0.0,0.0,-2.0,197.0,813.0)"/>
</svg>