<?xml version="1.0" encoding="UTF-8"?>
<svg width="1000" height="1000" viewBox="0 0 1000 1000" version="1.1" xmlns="http://www.w3.org/2000/svg" xmlns:xlink="http://www.w3.org/1999/xlink">
 <path d="M275.5,-80 c0,-4.0,-0.17,-7.67,-0.5,-11 c-0.33,-3.33,-0.83,-6.33,-1.5,-9 l-215.5,0 c-9.33,0,-16.92,3.83,-22.75,11.5 c-5.83,7.67,-8.75,16.83,-8.75,27.5 c0,6.0,0.83,11.33,2.5,16 c32.67,25.0,60.92,50.83,84.75,77.5 c23.83,26.67,42.75,56.33,56.75,89 c-28.0,21.67,-51.67,46.58,-71,74.75 c-19.33,28.17,-35.5,61.75,-48.5,100.75 l-7,0 c-7.33,0,-12.92,2.58,-16.75,7.75 c-3.83,5.17,-5.75,14.42,-5.75,27.75 c0,6.33,0.5,12.17,1.5,17.5 l231,0 c7.0,0,12.25,-3.25,15.75,-9.75 c3.5,-6.5,5.25,-14.58,5.25,-24.25 c0,-7.0,-0.83,-13.33,-2.5,-19 l-175,0 l0,-3 c6.67,-2.67,11.83,-6.17,15.5,-10.5 c3.67,-4.33,7.67,-10.83,12,-19.5 c11.33,-25.67,25.5,-48.75,42.5,-69.25 c17.0,-20.5,38.17,-40.08,63.5,-58.75 l0,-8.5 c0,-7.33,-2.0,-15.5,-6,-24.5 c-12.33,-27.67,-28.58,-53.25,-48.75,-76.75 c-20.17,-23.5,-44.25,-46.92,-72.25,-70.25 l0.5,-3 l148.5,0 c9.33,0,15.42,-3.17,18.25,-9.5 c2.83,-6.33,4.25,-14.17,4.25,-23.5 Z M275.5,-80" fill="rgb(0,0,0)" transform="matrix(2.0,0.0,0.0,-2.0,203.0,750.0)"/>
</svg>