<?xml version="1.0" encoding="UTF-8"?>
<svg width="1000" height="1000" viewBox="0 0 1000 1000" version="1.1" xmlns="http://www.w3.org/2000/svg" xmlns:xlink="http://www.w3.org/1999/xlink">
 <path d="M151.5,360 c33.33,0,60.08,-9.0,80.25,-27 c20.17,-18.0,30.25,-42.33,30.25,-73 l0,-3 c0,-27.33,-8.0,-51.83,-24,-73.5 c-16.0,-21.67,-40.67,-41.67,-74,-60 c-20.0,-11.0,-35.92,-20.5,-47.75,-28.5 c-11.83,-8.0,-20.75,-15.67,-26.75,-23 c-6.0,-7.33,-10.33,-15.17,-13,-23.5 l4,-3 c8.67,2.67,18.33,4.58,29,5.75 c10.67,1.17,23.0,1.75,37,1.75 l95.5,0 c10.67,0,18.0,-2.33,22,-7 c4.0,-4.67,6,-12.83,6,-24.5 c0,-7.67,-0.83,-14.83,-2.5,-21.5 l-212,0 c-4.0,0,-7.92,2.25,-11.75,6.75 c-3.83,4.5,-7.0,9.92,-9.5,16.25 c-2.5,6.33,-3.75,12.17,-3.75,17.5 l0,2 c0,21.67,9.08,42.17,27.25,61.5 c18.17,19.33,45.08,39.17,80.75,59.5 c27.0,15.67,45.42,31.0,55.25,46 c9.83,15.0,14.75,31.83,14.75,50.5 l0,2 c0,13.33,-3.17,24.5,-9.5,33.5 c-6.0,3.67,-12.58,6.5,-19.75,8.5 c-7.17,2.0,-15.92,3,-26.25,3 c-22.33,0,-39.17,-6.17,-50.5,-18.5 c-11.33,-12.33,-17.17,-30.17,-17.5,-53.5 l-3,0 c-14.0,1.0,-24.42,4.75,-31.25,11.25 c-6.83,6.5,-10.25,14.58,-10.25,24.25 c0,22.0,8.33,41.33,25,58 c9.67,9.33,21.67,16.92,36,22.75 c14.33,5.83,31.0,8.75,50,8.75 Z M151.5,360" fill="rgb(0,0,0)" transform="matrix(2.5,0.0,0.0,-2.5,124.375,950.0)"/>
</svg>