<?xml version="1.0" encoding="UTF-8"?>
<svg width="1000" height="1000" viewBox="0 0 1000 1000" version="1.1" xmlns="http://www.w3.org/2000/svg" xmlns:xlink="http://www.w3.org/1999/xlink">
 <path d="M51.5,269.5 c14.67,0,26.17,-4.42,34.5,-13.25 c8.33,-8.83,12.5,-26.58,12.5,-53.25 c0,-20.67,-1.0,-40.58,-3,-59.75 c-2.0,-19.17,-5.0,-41.25,-9,-66.25 c6.67,-16.33,16.0,-24.5,28,-24.5 c17.0,0,33.75,9.58,50.25,28.75 c16.5,19.17,30.25,49.42,41.25,90.75 l0,95.5 c2.67,0.67,5.08,1.08,7.25,1.25 c2.17,0.17,4.75,0.25,7.75,0.25 c13.67,0,23.33,-3.0,29,-9 c5.67,-6.0,8.5,-14.83,8.5,-26.5 l0,-186 c0,-9.67,0.58,-18.42,1.75,-26.25 c1.17,-7.83,3.25,-14.92,6.25,-21.25 c-2.67,-0.67,-5.33,-1.17,-8,-1.5 c-2.67,-0.33,-5.33,-0.5,-8,-0.5 c-12.33,0,-22.83,4.75,-31.5,14.25 c-8.67,9.5,-13,26.58,-13,51.25 l0,21.5 l-3,0 c-7.33,-17.33,-16.5,-32.75,-27.5,-46.25 c-11.0,-13.5,-23.08,-24.17,-36.25,-32 c-13.17,-7.83,-26.75,-11.75,-40.75,-11.75 c-11.0,0,-20.92,3.83,-29.75,11.5 c-8.83,7.67,-15.75,17.42,-20.75,29.25 c-5.0,11.83,-7.5,24.08,-7.5,36.75 l0,123 c0,14.33,-0.58,26.67,-1.75,37 c-1.17,10.33,-3.42,22.0,-6.75,35 c5.67,1.33,12.17,2,19.5,2 Z M136,408 l12,0 c6.67,0,12.58,-0.75,17.75,-2.25 c5.17,-1.5,12.25,-5.58,21.25,-12.25 c11.33,-8.0,22.92,-18.08,34.75,-30.25 c11.83,-12.17,21.92,-26.58,30.25,-43.25 c-7.67,-5.0,-17.5,-7.5,-29.5,-7.5 c-5.67,0,-10.25,1.08,-13.75,3.25 c-3.5,2.17,-7.58,6.42,-12.25,12.75 c-5.67,7.0,-12.0,13.67,-19,20 c-7.0,6.33,-16.33,13.0,-28,20 l-1.5,0 c-14.67,-10.0,-26.58,-19.67,-35.75,-29 c-9.17,-9.33,-16.42,-18.5,-21.75,-27.5 l-3,0 c-11.67,0,-20.5,1.33,-26.5,4 c-6.0,2.67,-9,5.83,-9,9.5 c0,2.67,1.0,6.25,3,10.75 c2.0,4.5,5.33,9.92,10,16.25 c8.33,11.33,19.08,22.08,32.25,32.25 c13.17,10.17,26.08,17.92,38.75,23.25 Z M136,408" fill="rgb(0,0,0)" transform="matrix(2.179176755447942,0.0,0.0,-2.179176755447942,174.75786924939464,939.1041162227602)"/>
</svg>