<?xml version="1.0" encoding="UTF-8"?>
<svg width="1000" height="1000" viewBox="0 0 1000 1000" version="1.1" xmlns="http://www.w3.org/2000/svg" xmlns:xlink="http://www.w3.org/1999/xlink">
 <path d="M205.5,-63.5 c0,-17.33,-6.25,-30.83,-18.75,-40.5 c-12.5,-9.67,-29.75,-14.5,-51.75,-14.5 c-16.33,0,-28.0,3.0,-35,9 c-7.0,6.0,-10.5,13.17,-10.5,21.5 c0,7.33,1.5,15.0,4.5,23 l3,0 c4.67,-4.33,9.58,-7.5,14.75,-9.5 c5.17,-2.0,12.08,-3,20.75,-3 c8.67,0,15.58,1.75,20.75,5.25 c5.17,3.5,7.75,8.58,7.75,15.25 c0,11.33,-8.5,17,-25.5,17 c-5.67,0,-8.5,2.5,-8.5,7.5 c0,3.0,0.25,6.83,0.75,11.5 c0.5,4.67,1.42,9.33,2.75,14 c-19.0,1.33,-35.83,4.58,-50.5,9.75 c-14.67,5.17,-25.83,11.42,-33.5,18.75 c-9.33,9.33,-14,23.5,-14,42.5 c0,10.67,1.0,19.17,3,25.5 l3,0 c13.0,-14.33,28.58,-25.33,46.75,-33 c18.17,-7.67,40.25,-11.5,66.25,-11.5 c17.33,0,32.17,2.33,44.5,7 c12.33,4.67,21.33,11.5,27,20.5 l0,2 c-2.0,17.67,-17.5,32.0,-46.5,43 l-45,16.5 c-24.0,9.0,-42.58,17.75,-55.75,26.25 c-13.17,8.5,-22.25,17.25,-27.25,26.25 c-5.0,9.0,-7.5,18.67,-7.5,29 l0,6 c0,16.33,4.0,32.67,12,49 c8.0,16.33,18.92,31.25,32.75,44.75 c13.83,13.5,29.42,24.33,46.75,32.5 c17.33,8.17,35.17,12.25,53.5,12.25 c12.67,0,23.17,-2.0,31.5,-6 c8.33,-4.0,16.0,-9.5,23,-16.5 c7.33,-7.33,12.17,-15.67,14.5,-25 c2.33,-9.33,3.5,-19.33,3.5,-30 l0,-60 c-5.33,-2.33,-11.5,-3.5,-18.5,-3.5 c-11.0,0,-19.5,2.33,-25.5,7 c-6.0,4.67,-9,12.33,-9,23 c0,14.33,0.33,25.42,1,33.25 c0.67,7.83,0.83,15.08,0.5,21.75 c-3.0,1.33,-6.08,2.17,-9.25,2.5 c-3.17,0.33,-6.42,0.5,-9.75,0.5 c-10.33,0,-21.0,-2.58,-32,-7.75 c-11.0,-5.17,-21.17,-12.0,-30.5,-20.5 c-9.33,-8.5,-16.92,-17.83,-22.75,-28 c-5.83,-10.17,-8.75,-20.25,-8.75,-30.25 l0,-2.5 c0.33,-5.33,1.83,-10.33,4.5,-15 c2.67,-4.67,7.83,-9.25,15.5,-13.75 c7.67,-4.5,18.83,-9.42,33.5,-14.75 l45,-16 c29.67,-10.67,50.08,-22.75,61.25,-36.25 c11.17,-13.5,16.75,-27.08,16.75,-40.75 l0,-5.5 c0,-24.67,-9.25,-44.42,-27.75,-59.25 c-18.5,-14.83,-45.42,-23.08,-80.75,-24.75 c-0.33,-2.0,-0.58,-3.83,-0.75,-5.5 c-0.17,-1.67,-0.42,-3.17,-0.75,-4.5 l0,-3 c13.0,-1.0,23.75,-5.17,32.25,-12.5 c8.5,-7.33,12.75,-17.33,12.75,-30 Z M205.5,-63.5" fill="rgb(0,0,0)" transform="matrix(1.8808777429467085,0.0,0.0,-1.8808777429467085,215.04702194357367,727.1159874608151)"/>
</svg>