<?xml version="1.0" encoding="UTF-8"?>
<svg width="1000" height="1000" viewBox="0 0 1000 1000" version="1.1" xmlns="http://www.w3.org/2000/svg" xmlns:xlink="http://www.w3.org/1999/xlink">
 <path d="M90.5,362.5 c-15.33,-1.33,-27.58,-5.08,-36.75,-11.25 c-9.17,-6.17,-16.08,-16.58,-20.75,-31.25 c-4.67,0.67,-9.33,1.67,-14,3 c-4.67,1.33,-8.83,3.17,-12.5,5.5 c-4.33,3.33,-5.17,8.67,-2.5,16 c6.67,18.67,17.08,33.0,31.25,43 c14.17,10.0,31.92,15,53.25,15 l4,0 c21.33,0,39.08,-5.0,53.25,-15 c14.17,-10.0,24.58,-24.33,31.25,-43 c2.67,-7.33,1.83,-12.67,-2.5,-16 c-3.67,-2.33,-7.83,-4.17,-12.5,-5.5 c-4.67,-1.33,-9.33,-2.33,-14,-3 c-4.33,14.67,-11.08,25.08,-20.25,31.25 c-9.17,6.17,-21.58,9.92,-37.25,11.25 Z M90.5,362.5" fill="rgb(0,0,0)" transform="matrix(5.11225249995359,0.0,0.0,-5.11225249995359,37.34114875420005,2346.8012156082345)"/>
</svg>