<?xml version="1.0" encoding="UTF-8"?>
<svg width="1000" height="1000" viewBox="0 0 1000 1000" version="1.1" xmlns="http://www.w3.org/2000/svg" xmlns:xlink="http://www.w3.org/1999/xlink">
 <path d="M220.5,377.5 c9.33,3.33,20.83,5,34.5,5 c12.33,0,22.25,-2.08,29.75,-6.25 c7.5,-4.17,11.25,-11.25,11.25,-21.25 l0,-32 c-4.33,-1.67,-9.17,-2.92,-14.5,-3.75 c-5.33,-0.83,-10.83,-1.25,-16.5,-1.25 c-13.33,0,-24.08,2.83,-32.25,8.5 c-8.17,5.67,-12.25,13.5,-12.25,23.5 Z M61,-1 c-2.33,-0.33,-5.33,-0.83,-9,-1.5 c-3.67,-0.67,-7.33,-1,-11,-1 c-11.0,0,-18.5,3.08,-22.5,9.25 c-4.0,6.17,-6,15.58,-6,28.25 l0,263 c0,8.0,-0.42,16.92,-1.25,26.75 c-0.83,9.83,-2.25,19.08,-4.25,27.75 c5.67,1.33,10.83,2.17,15.5,2.5 c4.67,0.33,10.17,0.5,16.5,0.5 c13.33,0,23.17,-2.92,29.5,-8.75 c6.33,-5.83,10.5,-16.42,12.5,-31.75 c4.33,-30.0,9.25,-59.5,14.75,-88.5 c5.5,-29.0,11.25,-56.25,17.25,-81.75 c6.0,-25.5,11.67,-47.92,17,-67.25 l3.5,0 c-2.0,17.0,-3.67,35.67,-5,56 c-1.33,20.33,-2.33,39.92,-3,58.75 c-0.67,18.83,-1,34.58,-1,47.25 l0,113 c1.67,0.67,4.42,1.25,8.25,1.75 c3.83,0.5,7.75,0.75,11.75,0.75 c10.0,0,17.25,-2.58,21.75,-7.75 c4.5,-5.17,6.75,-13.75,6.75,-25.75 l0,-266.5 c0,-9.33,0.25,-18.67,0.75,-28 c0.5,-9.33,1.42,-18.5,2.75,-27.5 c-3.33,-1.0,-6.67,-1.83,-10,-2.5 c-3.33,-0.67,-6.67,-1,-10,-1 c-11.33,0,-20.0,1.5,-26,4.5 c-6.0,3.0,-10.83,8.67,-14.5,17 c-10.67,23.67,-21.0,56.67,-31,99 c-10.0,42.33,-20.0,93.5,-30,153.5 l-4,0 c2.67,-23.67,4.75,-48.58,6.25,-74.75 c1.5,-26.17,2.5,-51.67,3,-76.5 c0.5,-24.83,0.75,-47.42,0.75,-67.75 Z M251.5,272 c9.67,0,18.42,-2.0,26.25,-6 c7.83,-4.0,11.75,-10.17,11.75,-18.5 l0,-249 c0,-25.0,-2.67,-46.75,-8,-65.25 c-5.33,-18.5,-14.0,-32.83,-26,-43 c-12.0,-10.17,-28.17,-15.25,-48.5,-15.25 c-24.67,0,-42.0,5.5,-52,16.5 c-7.33,7.33,-11,19.0,-11,35 c0,5.67,0.5,10.67,1.5,15 l3,0 c9.0,-5.33,17.42,-8.92,25.25,-10.75 c7.83,-1.83,16.75,-2.75,26.75,-2.75 c15.0,0,27.0,3.5,36,10.5 c2.67,6.67,4.25,15.0,4.75,25 c0.5,10.0,0.75,22.17,0.75,36.5 l0,220 l-3,1.5 c-8.33,-2.33,-15.42,-4.42,-21.25,-6.25 c-5.83,-1.83,-11.42,-2.75,-16.75,-2.75 c-10.67,0,-16,11.33,-16,34 c0,7.67,0.83,14.5,2.5,20.5 c11.67,1.67,21.92,2.92,30.75,3.75 c8.83,0.83,19.92,1.25,33.25,1.25 Z M251.5,272" fill="rgb(0,0,0)" transform="matrix(1.7733990147783252,0.0,0.0,-1.7733990147783252,231.33004926108373,728.3251231527094)"/>
</svg>