<?xml version="1.0" encoding="UTF-8"?>
<svg width="1000" height="1000" viewBox="0 0 1000 1000" version="1.1" xmlns="http://www.w3.org/2000/svg" xmlns:xlink="http://www.w3.org/1999/xlink">
 <path d="M48.5,406 c4.67,-17.67,11.67,-33.08,21,-46.25 c9.33,-13.17,21.83,-26.58,37.5,-40.25 c-3.67,-2.67,-7.75,-4.58,-12.25,-5.75 c-4.5,-1.17,-9.08,-1.75,-13.75,-1.75 c-12.67,0,-23.83,3.0,-33.5,9 c-10.33,6.33,-19.58,14.5,-27.75,24.5 c-8.17,10.0,-14.08,21.17,-17.75,33.5 c-1.33,4.0,-1.42,7.92,-0.25,11.75 c1.17,3.83,3.75,6.75,7.75,8.75 c9.0,4.33,22.0,6.5,39,6.5 Z M48.5,406" fill="rgb(0,0,0)" transform="matrix(8.48522904379245,0.0,0.0,-8.48522904379245,42.0804923142079,3546.197226721489)"/>
</svg>