<?xml version="1.0" encoding="UTF-8"?>
<svg width="1000" height="1000" viewBox="0 0 1000 1000" version="1.1" xmlns="http://www.w3.org/2000/svg" xmlns:xlink="http://www.w3.org/1999/xlink">
 <path d="M270,0 l-219,0 c-8.33,0,-14.25,2.92,-17.75,8.75 c-3.5,5.83,-5.25,13.58,-5.25,23.25 c0,8.33,0.83,15.33,2.5,21 l104.5,0 l1,2.5 c-9.33,7.67,-14,20.83,-14,39.5 l0,202 l-45.5,0 c-32.33,0,-48.5,12.5,-48.5,37.5 c0,2.67,0.25,5.5,0.75,8.5 c0.5,3.0,0.92,5.33,1.25,7 l219.5,0 c9.33,0,15.42,-3.17,18.25,-9.5 c2.83,-6.33,4.25,-14.33,4.25,-24 c0,-5.67,-0.83,-12.17,-2.5,-19.5 l-104.5,0 l-1,-2.5 c9.33,-7.67,14,-20.83,14,-39.5 l0,-202 l46,0 c18.67,0,31.33,-3.58,38,-10.75 c6.67,-7.17,10,-16.25,10,-27.25 c0,-2.67,-0.17,-5.25,-0.5,-7.75 c-0.33,-2.5,-0.83,-4.92,-1.5,-7.25 Z M93.5,392.5 c-12.67,0.33,-22.67,2.67,-30,7 c-4.33,3.0,-5.5,7.67,-3.5,14 c5.67,17.67,15.92,31.67,30.75,42 c14.83,10.33,33.92,15.5,57.25,15.5 l4,0 c23.67,0,42.83,-5.17,57.5,-15.5 c14.67,-10.33,24.83,-24.33,30.5,-42 c2.0,-6.33,0.83,-11.0,-3.5,-14 c-7.33,-4.33,-17.33,-6.67,-30,-7 c-5.0,11.67,-11.83,20.25,-20.5,25.75 c-8.67,5.5,-20.67,8.92,-36,10.25 c-15.33,-1.33,-27.33,-4.75,-36,-10.25 c-8.67,-5.5,-15.5,-14.08,-20.5,-25.75 Z M93.5,392.5" fill="rgb(0,0,0)" transform="matrix(1.910828025477707,0.0,0.0,-1.910828025477707,213.37579617834396,950.0)"/>
</svg>