<?xml version="1.0" encoding="UTF-8"?>
<svg width="1000" height="1000" viewBox="0 0 1000 1000" version="1.1" xmlns="http://www.w3.org/2000/svg" xmlns:xlink="http://www.w3.org/1999/xlink">
 <path d="M9,-35 c10.67,0,18.75,3.75,24.25,11.25 c5.5,7.5,8.25,19.42,8.25,35.75 l0,7.5 c-0.67,3.0,-1,6.17,-1,9.5 l0,191.5 c0,10.0,-0.58,18.75,-1.75,26.25 c-1.17,7.5,-3.25,14.42,-6.25,20.75 c5.67,1.67,11.0,2.5,16,2.5 c13.33,0,24.17,-4.83,32.5,-14.5 c8.33,-9.67,12.5,-26.83,12.5,-51.5 l0,-21.5 l3,0 c7.33,17.33,16.42,32.75,27.25,46.25 c10.83,13.5,22.83,24.17,36,32 c13.17,7.83,26.58,11.75,40.25,11.75 c11.33,0,21.33,-3.83,30,-11.5 c8.67,-7.67,15.5,-17.42,20.5,-29.25 c5.0,-11.83,7.5,-24.08,7.5,-36.75 l0,-123 c0,-14.33,0.67,-26.67,2,-37 c1.33,-10.33,3.67,-22.0,7,-35 c-5.67,-1.33,-12.17,-2,-19.5,-2 c-14.67,0,-26.25,4.5,-34.75,13.5 c-8.5,9.0,-12.75,26.67,-12.75,53 c0,20.67,1.0,40.58,3,59.75 c2.0,19.17,5.0,41.25,9,66.25 c-6.0,16.33,-15.33,24.5,-28,24.5 c-16.33,0,-32.42,-8.58,-48.25,-25.75 c-15.83,-17.17,-29.92,-42.92,-42.25,-77.25 l0,-104 c1.67,-1.67,2.5,-3.33,2.5,-5 l0,-8 c0,-16.33,-3.42,-31.0,-10.25,-44 c-6.83,-13.0,-16.25,-23.17,-28.25,-30.5 c-12.0,-7.33,-25.83,-11,-41.5,-11 l-3.5,0 c-9.33,0,-16.83,2.83,-22.5,8.5 c-8.0,8.0,-12,20.17,-12,36.5 c0,3.0,0.17,6.0,0.5,9 c0.33,3.0,0.83,5.83,1.5,8.5 l2,0 c4.67,-2.33,8.75,-4.08,12.25,-5.25 c3.5,-1.17,8.42,-1.75,14.75,-1.75 Z M9,-35" fill="rgb(0,0,0)" transform="matrix(2.479338842975207,0.0,0.0,-2.479338842975207,196.2809917355371,725.6198347107438)"/>
</svg>