<?xml version="1.0" encoding="UTF-8"?>
<svg width="1000" height="1000" viewBox="0 0 1000 1000" version="1.1" xmlns="http://www.w3.org/2000/svg" xmlns:xlink="http://www.w3.org/1999/xlink">
 <path d="M54,269.5 c14.67,0,26.25,-4.5,34.75,-13.5 c8.5,-9.0,12.75,-26.83,12.75,-53.5 l0,-2.5 c0,-19.33,-0.92,-38.5,-2.75,-57.5 c-1.83,-19.0,-4.42,-40.83,-7.75,-65.5 c5.0,-16.33,14.83,-24.5,29.5,-24.5 c10.0,0,19.75,3.25,29.25,9.75 c9.5,6.5,18.83,17.75,28,33.75 c9.17,16.0,17.75,38.33,25.75,67 l0,85 c0,9.67,3.33,15.83,10,18.5 c6.67,2.67,15.0,4,25,4 c7.33,0,13.83,-0.83,19.5,-2.5 l0,-197 c0,-7.33,0.5,-13.83,1.5,-19.5 c4.0,-2.67,8.33,-4,13,-4 c4.0,0,7.33,0.67,10,2 l2,0 l0,-6 c0,-7.0,-0.83,-14.25,-2.5,-21.75 c-1.67,-7.5,-4.33,-13.83,-8,-19 c-3.67,-5.17,-8.33,-7.75,-14,-7.75 l-1.5,0 c-11.0,0,-20.67,3.08,-29,9.25 c-8.33,6.17,-14.75,14.33,-19.25,24.5 c-4.5,10.17,-6.75,21.08,-6.75,32.75 l0,10 l-3,0 c-9.67,-26.0,-20.92,-45.33,-33.75,-58 c-12.83,-12.67,-26.58,-19,-41.25,-19 c-7.33,0,-14.5,1.08,-21.5,3.25 c-7.0,2.17,-13.67,5.08,-20,8.75 l-1.5,-1.5 c5.33,-17.33,8.83,-32.08,10.5,-44.25 c1.67,-12.17,2.5,-22.08,2.5,-29.75 l0,-29 c-2.67,-1.33,-5.42,-2.33,-8.25,-3 c-2.83,-0.67,-6.58,-1,-11.25,-1 c-9.33,0,-17.75,3.08,-25.25,9.25 c-7.5,6.17,-11.25,16.25,-11.25,30.25 c0,18.33,0.92,35.92,2.75,52.75 c1.83,16.83,4.58,34.58,8.25,53.25 c-4.67,9.67,-7,19.33,-7,29 l0,123 c0,14.0,-0.58,26.17,-1.75,36.5 c-1.17,10.33,-3.42,22.0,-6.75,35 c3.33,0.67,6.5,1.25,9.5,1.75 c3.0,0.5,6.17,0.75,9.5,0.75 Z M54,269.5" fill="rgb(0,0,0)" transform="matrix(2.4161073825503356,0.0,0.0,-2.4161073825503356,114.0268456375839,703.5570469798657)"/>
</svg>