<?xml version="1.0" encoding="UTF-8"?>
<svg width="1000" height="1000" viewBox="0 0 1000 1000" version="1.1" xmlns="http://www.w3.org/2000/svg" xmlns:xlink="http://www.w3.org/1999/xlink">
 <path d="M75.5,467.5 c4.67,-14.67,12.0,-27.92,22,-39.75 c10.0,-11.83,23.0,-23.25,39,-34.25 c-5.67,-2.67,-10.92,-4.5,-15.75,-5.5 c-4.83,-1.0,-10.08,-1.5,-15.75,-1.5 c-6.0,0,-11.25,0.42,-15.75,1.25 c-4.5,0.83,-9.08,2.58,-13.75,5.25 c-11.0,6.0,-20.67,13.33,-29,22 c-8.33,8.67,-14.67,18.0,-19,28 c-4.0,9.33,-2.17,15.5,5.5,18.5 c11.0,5.0,25.17,7.0,42.5,6 Z M174.5,467.5 c4.67,-14.67,12.0,-27.92,22,-39.75 c10.0,-11.83,23.0,-23.25,39,-34.25 c-5.67,-2.67,-10.92,-4.5,-15.75,-5.5 c-4.83,-1.0,-10.08,-1.5,-15.75,-1.5 c-6.0,0,-11.25,0.42,-15.75,1.25 c-4.5,0.83,-9.08,2.58,-13.75,5.25 c-11.0,6.0,-20.67,13.33,-29,22 c-8.33,8.67,-14.67,18.0,-19,28 c-4.0,9.33,-2.17,15.5,5.5,18.5 c11.0,5.0,25.17,7.0,42.5,6 Z M100,0 c-9.67,0,-18.67,2.5,-27,7.5 c-8.33,5.0,-14.92,11.25,-19.75,18.75 c-4.83,7.5,-7.25,14.92,-7.25,22.25 l0,248.5 l-8.5,0 c-6.67,0,-11.33,3.75,-14,11.25 c-2.67,7.5,-4,15.58,-4,24.25 c0,5.67,0.5,11.5,1.5,17.5 l221,0 c7.0,0,12.42,-1.92,16.25,-5.75 c3.83,-3.83,6.42,-8.42,7.75,-13.75 c1.33,-5.33,2,-10.0,2,-14 c0,-8.0,-1.0,-14.5,-3,-19.5 l-176,0 l-1,-2.5 c9.0,-7.67,13.5,-20.0,13.5,-37 l0,-68.5 l107,0 c9.67,0,16.67,-3.67,21,-11 c4.33,-7.33,6.5,-15.5,6.5,-24.5 c0,-2.33,0,-4.5,0,-6.5 c0,-2.0,-0.17,-3.83,-0.5,-5.5 l-134,0 l0,-88.5 l128,0 c11.0,0,20.17,-2.58,27.5,-7.75 c7.33,-5.17,11,-13.58,11,-25.25 c0,-3.33,-0.17,-6.83,-0.5,-10.5 c-0.33,-3.67,-0.83,-6.83,-1.5,-9.5 Z M100,0" fill="rgb(0,0,0)" transform="matrix(1.9241047425313678,0.0,0.0,-1.9241047425313678,223.40994326111587,950.0)"/>
</svg>