<?xml version="1.0" encoding="UTF-8"?>
<svg width="1000" height="1000" viewBox="0 0 1000 1000" version="1.1" xmlns="http://www.w3.org/2000/svg" xmlns:xlink="http://www.w3.org/1999/xlink">
 <path d="M75.5,467.5 c4.67,-14.67,12.0,-27.92,22,-39.75 c10.0,-11.83,23.0,-23.25,39,-34.25 c-5.67,-2.67,-10.92,-4.5,-15.75,-5.5 c-4.83,-1.0,-10.08,-1.5,-15.75,-1.5 c-6.0,0,-11.25,0.42,-15.75,1.25 c-4.5,0.83,-9.08,2.58,-13.75,5.25 c-11.0,6.0,-20.67,13.33,-29,22 c-8.33,8.67,-14.67,18.0,-19,28 c-4.0,9.33,-2.17,15.5,5.5,18.5 c11.0,5.0,25.17,7.0,42.5,6 Z M174.5,467.5 c4.67,-14.67,12.0,-27.92,22,-39.75 c10.0,-11.83,23.0,-23.25,39,-34.25 c-5.67,-2.67,-10.92,-4.5,-15.75,-5.5 c-4.83,-1.0,-10.08,-1.5,-15.75,-1.5 c-6.0,0,-11.25,0.42,-15.75,1.25 c-4.5,0.83,-9.08,2.58,-13.75,5.25 c-11.0,6.0,-20.67,13.33,-29,22 c-8.33,8.67,-14.67,18.0,-19,28 c-4.0,9.33,-2.17,15.5,5.5,18.5 c11.0,5.0,25.17,7.0,42.5,6 Z M270,0 l-219,0 c-8.33,0,-14.25,2.92,-17.75,8.75 c-3.5,5.83,-5.25,13.58,-5.25,23.25 c0,8.33,0.83,15.33,2.5,21 l104.5,0 l1,2.5 c-9.33,7.67,-14,20.83,-14,39.5 l0,202 l-45.5,0 c-32.33,0,-48.5,12.5,-48.5,37.5 c0,2.67,0.25,5.5,0.75,8.5 c0.5,3.0,0.92,5.33,1.25,7 l219.5,0 c9.33,0,15.42,-3.17,18.25,-9.5 c2.83,-6.33,4.25,-14.33,4.25,-24 c0,-5.67,-0.83,-12.17,-2.5,-19.5 l-104.5,0 l-1,-2.5 c9.33,-7.67,14,-20.83,14,-39.5 l0,-202 l46,0 c18.67,0,31.33,-3.58,38,-10.75 c6.67,-7.17,10,-16.25,10,-27.25 c0,-2.67,-0.17,-5.25,-0.5,-7.75 c-0.33,-2.5,-0.83,-4.92,-1.5,-7.25 Z M270,0" fill="rgb(0,0,0)" transform="matrix(1.9241047425313678,0.0,0.0,-1.9241047425313678,213.84441106247488,950.0)"/>
</svg>