<?xml version="1.0" encoding="UTF-8"?>
<svg width="1000" height="1000" viewBox="0 0 1000 1000" version="1.1" xmlns="http://www.w3.org/2000/svg" xmlns:xlink="http://www.w3.org/1999/xlink">
 <path d="M152,165.5 l108,0 c8.67,0,14.83,-3.17,18.5,-9.5 c3.67,-6.33,5.5,-17.33,5.5,-33 l0,-4.5 l-27.5,0 l-1,-3 c4.67,-3.67,8.08,-8.17,10.25,-13.5 c2.17,-5.33,3.25,-12.0,3.25,-20 c0,-13.0,-2.42,-24.83,-7.25,-35.5 c-4.83,-10.67,-11.08,-19.67,-18.75,-27 c-8.67,-9.0,-19.92,-16.17,-33.75,-21.5 c-13.83,-5.33,-30.08,-8,-48.75,-8 c-27.0,0,-50.25,5.92,-69.75,17.75 c-19.5,11.83,-34.5,28.5,-45,50 c-10.5,21.5,-15.75,46.58,-15.75,75.25 l0,11 c0,42.67,6.25,80.17,18.75,112.5 c12.5,32.33,30.0,57.67,52.5,76 c22.5,18.33,48.42,27.5,77.75,27.5 c13.0,0,24.08,-2.08,33.25,-6.25 c9.17,-4.17,17.58,-10.08,25.25,-17.75 c7.67,-7.67,13.17,-15.83,16.5,-24.5 c3.33,-8.67,5,-19.67,5,-33 l0,-44.5 c-5.67,-2.33,-12.67,-3.5,-21,-3.5 c-10.33,0,-18.33,1.83,-24,5.5 c-5.67,3.67,-8.5,10.17,-8.5,19.5 c0,11.67,0.17,21.17,0.5,28.5 c0.33,7.33,0.33,14.5,0,21.5 c-4.0,2.33,-8.0,3.83,-12,4.5 c-4.0,0.67,-8.0,1,-12,1 c-19.0,0,-35.92,-7.33,-50.75,-22 c-14.83,-14.67,-26.58,-34.58,-35.25,-59.75 c-8.67,-25.17,-13,-53.58,-13,-85.25 l0,-8 c0,-8.67,0.25,-17.08,0.75,-25.25 c0.5,-8.17,1.42,-17.08,2.75,-26.75 c8.0,-12.67,18.33,-22.67,31,-30 c12.67,-7.33,28.17,-11,46.5,-11 c18.0,0,33.25,5.5,45.75,16.5 c12.5,11.0,18.75,25.5,18.75,43.5 c0,5.67,-0.33,10.83,-1,15.5 l-27.5,0 c-18.0,0,-30.75,3.0,-38.25,9 c-7.5,6.0,-11.25,15.0,-11.25,27 c0,5.0,0.5,8.67,1.5,11 Z M139,-34.5 c7.0,2.67,14.0,4,21,4 c10.33,0,17.92,-1.67,22.75,-5 c4.83,-3.33,7.25,-8.83,7.25,-16.5 c0,-12.67,-2.08,-25.25,-6.25,-37.75 c-4.17,-12.5,-9.08,-22.92,-14.75,-31.25 c-3.0,-4.33,-6.0,-7.25,-9,-8.75 c-3.0,-1.5,-6.5,-2.25,-10.5,-2.25 c-11.0,0,-20.67,2.17,-29,6.5 c7.0,13.67,11.83,27.42,14.5,41.25 c2.67,13.83,4,30.42,4,49.75 Z M139,-34.5" fill="rgb(0,0,0)" transform="matrix(1.829268292682927,0.0,0.0,-1.829268292682927,212.8048780487805,708.5365853658536)"/>
</svg>