<?xml version="1.0" encoding="UTF-8"?>
<svg width="1000" height="1000" viewBox="0 0 1000 1000" version="1.1" xmlns="http://www.w3.org/2000/svg" xmlns:xlink="http://www.w3.org/1999/xlink">
 <path d="M6,-35 c10.67,0,18.75,3.75,24.25,11.25 c5.5,7.5,8.25,19.42,8.25,35.75 l0,285 c0,8.0,-0.33,16.92,-1,26.75 c-0.67,9.83,-2.0,19.08,-4,27.75 c5.67,1.33,10.58,2.17,14.75,2.5 c4.17,0.33,8.58,0.5,13.25,0.5 c17.67,0,30.42,-2.92,38.25,-8.75 c7.83,-5.83,13.42,-16.42,16.75,-31.75 c9.0,-41.0,21.33,-80.5,37,-118.5 c15.67,-38.0,37.17,-77.67,64.5,-119 l3,0 c-3.0,32.33,-4.92,63.25,-5.75,92.75 c-0.83,29.5,-1.25,60.92,-1.25,94.25 l0,88.5 c4.0,1.67,9.67,2.5,17,2.5 c9.67,0,17.58,-2.58,23.75,-7.75 c6.17,-5.17,9.25,-13.58,9.25,-25.25 l0,-267.5 c0,-9.33,0.25,-18.67,0.75,-28 c0.5,-9.33,1.42,-18.5,2.75,-27.5 c-3.33,-1.0,-6.5,-1.83,-9.5,-2.5 c-3.0,-0.67,-6.33,-1,-10,-1 c-7.33,0,-13.75,0.92,-19.25,2.75 c-5.5,1.83,-10.75,4.92,-15.75,9.25 c-13.67,13.0,-28.42,31.83,-44.25,56.5 c-15.83,24.67,-31.08,54.33,-45.75,89 c-14.67,34.67,-27.33,73.5,-38,116.5 l-3.5,0 c3.67,-35.0,5.83,-71.42,6.5,-109.25 c0.67,-37.83,1,-74.42,1,-109.75 l0,-55 c0,-16.33,-3.25,-31.0,-9.75,-44 c-6.5,-13.0,-15.42,-23.17,-26.75,-30.5 c-11.33,-7.33,-24.33,-11,-39,-11 l-4,0 c-8.67,0,-16.17,2.83,-22.5,8.5 c-7.67,8.33,-11.5,20.5,-11.5,36.5 c0,6.33,0.5,12.17,1.5,17.5 l3,0 c5.0,-2.33,9.17,-4.08,12.5,-5.25 c3.33,-1.17,7.83,-1.75,13.5,-1.75 Z M6,-35" fill="rgb(0,0,0)" transform="matrix(2.0224719101123596,0.0,0.0,-2.0224719101123596,254.26966292134836,766.9662921348315)"/>
</svg>