<?xml version="1.0" encoding="UTF-8"?>
<svg width="1000" height="1000" viewBox="0 0 1000 1000" version="1.1" xmlns="http://www.w3.org/2000/svg" xmlns:xlink="http://www.w3.org/1999/xlink">
 <path d="M213,377.5 c10.0,3.33,21.67,5,35,5 c12.33,0,22.25,-2.08,29.75,-6.25 c7.5,-4.17,11.25,-11.25,11.25,-21.25 l0,-32 c-4.33,-1.67,-9.17,-2.92,-14.5,-3.75 c-5.33,-0.83,-10.83,-1.25,-16.5,-1.25 c-13.33,0,-24.17,2.83,-32.5,8.5 c-8.33,5.67,-12.5,13.5,-12.5,23.5 Z M7.5,370 c10.0,3.0,20.42,5.42,31.25,7.25 c10.83,1.83,22.25,2.75,34.25,2.75 c27.0,0,40.5,-11.0,40.5,-33 l0,-250.5 c0,-19.67,1.67,-34.5,5,-44.5 c7.0,-3.0,16.5,-4.5,28.5,-4.5 c7.33,0,14.33,1.25,21,3.75 c6.67,2.5,13.33,6.75,20,12.75 l3,0 c1.0,-5.0,1.5,-10.17,1.5,-15.5 c0,-8.67,-0.92,-16.17,-2.75,-22.5 c-1.83,-6.33,-4.42,-11.5,-7.75,-15.5 c-5.0,-6.33,-11.5,-10.83,-19.5,-13.5 c-8.0,-2.67,-17.33,-4,-28,-4 c-16.67,0,-30.5,3.67,-41.5,11 c-11.0,7.33,-19.17,17.17,-24.5,29.5 c-5.33,12.33,-8,25.83,-8,40.5 l0,244 l-2,2 c-15.33,-6.33,-27.33,-9.5,-36,-9.5 c-12.0,0,-18,11.33,-18,34 c0,10.67,1.0,19.17,3,25.5 Z M235,272 c14.0,0,25.25,-2.0,33.75,-6 c8.5,-4.0,12.75,-10.17,12.75,-18.5 l0,-255 c0,-22.33,-3.25,-42.42,-9.75,-60.25 c-6.5,-17.83,-16.25,-31.83,-29.25,-42 c-13.0,-10.17,-29.33,-15.25,-49,-15.25 c-14.33,0,-26.0,1.58,-35,4.75 c-9.0,3.17,-16.0,7.25,-21,12.25 c-7.67,7.33,-11.5,18.83,-11.5,34.5 c0,2.67,0.17,5.25,0.5,7.75 c0.33,2.5,0.83,4.92,1.5,7.25 l3,0 c9.67,-5.0,18.58,-8.5,26.75,-10.5 c8.17,-2.0,17.92,-3,29.25,-3 c13.67,0,24.67,2.5,33,7.5 c3.67,7.0,6.0,15.5,7,25.5 c1.0,10.0,1.5,23.0,1.5,39 l0,220 l-3,1.5 c-7.33,-2.33,-16.5,-4.42,-27.5,-6.25 c-11.0,-1.83,-19.83,-2.75,-26.5,-2.75 c-5.67,0,-10.25,2.83,-13.75,8.5 c-3.5,5.67,-5.25,14.17,-5.25,25.5 c0,7.67,0.83,14.5,2.5,20.5 c14.0,2.0,27.75,3.33,41.25,4 c13.5,0.67,26.42,1,38.75,1 Z M235,272" fill="rgb(0,0,0)" transform="matrix(1.7733990147783252,0.0,0.0,-1.7733990147783252,239.75369458128074,728.3251231527094)"/>
</svg>