<?xml version="1.0" encoding="UTF-8"?>
<svg width="1000" height="1000" viewBox="0 0 1000 1000" version="1.1" xmlns="http://www.w3.org/2000/svg" xmlns:xlink="http://www.w3.org/1999/xlink">
 <path d="M26,267 l67,0 l0,37.5 c0,8.67,-0.42,16.83,-1.25,24.5 c-0.83,7.67,-2.42,14.67,-4.75,21 c4.33,1.0,8.5,1.83,12.5,2.5 c4.0,0.67,7.83,1,11.5,1 c9.67,0,17.92,-3.42,24.75,-10.25 c6.83,-6.83,10.25,-18.08,10.25,-33.75 l0,-42.5 l97,0 c10.0,0,17.0,-2.58,21,-7.75 c4.0,-5.17,6,-13.75,6,-25.75 c0,-3.33,-0.17,-6.75,-0.5,-10.25 c-0.33,-3.5,-0.83,-6.58,-1.5,-9.25 l-122,0 l0,-129 c0,-6.33,0.33,-11.92,1,-16.75 c0.67,-4.83,1.67,-9.25,3,-13.25 c5.0,-3.33,10.42,-5.75,16.25,-7.25 c5.83,-1.5,12.42,-2.25,19.75,-2.25 c16.67,0,30.75,1.67,42.25,5 c11.5,3.33,23.58,9.5,36.25,18.5 l3,0 c1.0,-5.0,1.5,-9.83,1.5,-14.5 c0,-9.0,-1.25,-17.0,-3.75,-24 c-2.5,-7.0,-6.58,-13.33,-12.25,-19 c-5.0,-5.0,-12.33,-9.17,-22,-12.5 c-9.67,-3.33,-21.5,-5.33,-35.5,-6 c-0.33,-2.33,-0.67,-4.5,-1,-6.5 c-0.33,-2.0,-0.67,-3.67,-1,-5 l0,-2.5 c13.33,-1.0,23.83,-5.25,31.5,-12.75 c7.67,-7.5,11.5,-17.42,11.5,-29.75 c0,-17.33,-6.08,-30.83,-18.25,-40.5 c-12.17,-9.67,-29.42,-14.5,-51.75,-14.5 c-15.33,0,-26.33,2.92,-33,8.75 c-6.67,5.83,-10,12.92,-10,21.25 c0,7.67,1.5,15.17,4.5,22.5 l3,0 c4.67,-4.0,9.42,-6.92,14.25,-8.75 c4.83,-1.83,11.25,-2.75,19.25,-2.75 c18.33,0,27.5,6.83,27.5,20.5 c0,11.33,-7.67,17,-23,17 c-6.0,0,-9,2.5,-9,7.5 c0,3.33,0.33,7.58,1,12.75 c0.67,5.17,1.67,10.08,3,14.75 c-22.0,4.33,-39.33,13.67,-52,28 c-12.67,14.33,-19,32.5,-19,54.5 l0,136.5 l-0.5,0 c-26.33,0,-44.25,3.5,-53.75,10.5 c-9.5,7.0,-14.25,17.67,-14.25,32 c0,4.67,0.5,8.17,1.5,10.5 Z M26,267" fill="rgb(0,0,0)" transform="matrix(1.9067796610169492,0.0,0.0,-1.9067796610169492,219.22669491525423,724.0466101694915)"/>
</svg>