<?xml version="1.0" encoding="UTF-8"?>
<svg width="1000" height="1000" viewBox="0 0 1000 1000" version="1.1" xmlns="http://www.w3.org/2000/svg" xmlns:xlink="http://www.w3.org/1999/xlink">
 <path d="M159,-64.5 c0,21.67,6.5,42.33,19.5,62 c-9.33,-2.0,-19.33,-3,-30,-3 c-22.67,0,-43.0,4.58,-61,13.75 c-18.0,9.17,-32.25,22.83,-42.75,41 c-10.5,18.17,-15.75,40.92,-15.75,68.25 l0,5.5 c0,30.33,5.25,56.67,15.75,79 c10.5,22.33,24.92,39.67,43.25,52 c18.33,12.33,39.33,18.5,63,18.5 c22.0,0,42.08,-5.83,60.25,-17.5 c18.17,-11.67,32.67,-28.58,43.5,-50.75 c10.83,-22.17,16.25,-49.25,16.25,-81.25 l0,-5.5 c0,-22.33,-4.0,-42.0,-12,-59 c-8.0,-17.0,-19.33,-30.67,-34,-41 c-9.67,-9.67,-16.42,-19.83,-20.25,-30.5 c-3.83,-10.67,-5.75,-20.83,-5.75,-30.5 c0,-20.0,9.33,-30,28,-30 c11.0,0,20.67,2.83,29,8.5 l2.5,0 c2.33,-4.0,3.83,-7.83,4.5,-11.5 c0.67,-3.67,1,-7.83,1,-12.5 c0,-12.33,-3.92,-21.42,-11.75,-27.25 c-7.83,-5.83,-18.58,-8.75,-32.25,-8.75 c-19.0,0,-33.92,5.0,-44.75,15 c-10.83,10.0,-16.25,25.17,-16.25,45.5 Z M157,222 c-25.67,0,-44.83,-9.17,-57.5,-27.5 c-12.67,-18.33,-19,-43.33,-19,-75 l0,-3 c0,-12.67,1.58,-24.92,4.75,-36.75 c3.17,-11.83,8.42,-22.08,15.75,-30.75 c6.67,-1.33,13.08,-2.42,19.25,-3.25 c6.17,-0.83,13.25,-1.25,21.25,-1.25 c26.67,0,46.33,6.58,59,19.75 c12.67,13.17,19,31.92,19,56.25 l0,3.5 c0,20.0,-2.17,37.92,-6.5,53.75 c-4.33,15.83,-11.33,29.25,-21,40.25 c-4.67,1.67,-9.83,2.75,-15.5,3.25 c-5.67,0.5,-12.17,0.75,-19.5,0.75 Z M157,222" fill="rgb(0,0,0)" transform="matrix(2.2641509433962264,0.0,0.0,-2.2641509433962264,160.37735849056605,666.9811320754717)"/>
</svg>