<?xml version="1.0" encoding="UTF-8"?>
<svg width="1000" height="1000" viewBox="0 0 1000 1000" version="1.1" xmlns="http://www.w3.org/2000/svg" xmlns:xlink="http://www.w3.org/1999/xlink">
 <path d="M182.5,-0.5 c-3.33,-0.67,-6.33,-1.25,-9,-1.75 c-2.67,-0.5,-6.0,-0.75,-10,-0.75 c-0.67,0,-1.33,0,-2,0 c-0.33,-2.0,-0.58,-4.0,-0.75,-6 c-0.17,-2.0,-0.42,-3.67,-0.75,-5 l0,-3 c13.0,-1.0,23.75,-5.17,32.25,-12.5 c8.5,-7.33,12.75,-17.33,12.75,-30 c0,-17.33,-6.25,-30.83,-18.75,-40.5 c-12.5,-9.67,-29.75,-14.5,-51.75,-14.5 c-16.33,0,-28.0,3.0,-35,9 c-7.0,6.0,-10.5,13.17,-10.5,21.5 c0,7.33,1.5,15.0,4.5,23 l3,0 c4.67,-4.33,9.58,-7.5,14.75,-9.5 c5.17,-2.0,12.08,-3,20.75,-3 c8.67,0,15.58,1.75,20.75,5.25 c5.17,3.5,7.75,8.58,7.75,15.25 c0,11.33,-8.5,17,-25.5,17 c-5.67,0,-8.5,2.5,-8.5,7.5 c0,4.33,0.58,10.0,1.75,17 c1.17,7.0,2.75,13.17,4.75,18.5 c-7.33,7.0,-11,18.33,-11,34 l0,256 l-53,0 c-19.33,0,-32.92,3.33,-40.75,10 c-7.83,6.67,-11.75,15.83,-11.75,27.5 c0,6.0,0.67,11.17,2,15.5 l238,0 c9.33,0,15.83,-3.17,19.5,-9.5 c3.67,-6.33,5.5,-14.33,5.5,-24 c0,-7.33,-0.83,-13.83,-2.5,-19.5 l-114,0 l-1,-2.5 c5.0,-3.67,8.58,-8.67,10.75,-15 c2.17,-6.33,3.25,-13.83,3.25,-22.5 l0,-207 c0,-8.33,0.25,-16.75,0.75,-25.25 c0.5,-8.5,1.75,-16.92,3.75,-25.25 Z M182.5,-0.5" fill="rgb(0,0,0)" transform="matrix(1.9375672766415502,0.0,0.0,-1.9375672766415502,211.302475780409,728.1485468245426)"/>
</svg>