<?xml version="1.0" encoding="UTF-8"?>
<svg width="1000" height="1000" viewBox="0 0 1000 1000" version="1.1" xmlns="http://www.w3.org/2000/svg" xmlns:xlink="http://www.w3.org/1999/xlink">
 <path d="M75.5,467.5 c4.67,-14.67,12.0,-27.92,22,-39.75 c10.0,-11.83,23.0,-23.25,39,-34.25 c-5.67,-2.67,-10.92,-4.5,-15.75,-5.5 c-4.83,-1.0,-10.08,-1.5,-15.75,-1.5 c-6.0,0,-11.25,0.42,-15.75,1.25 c-4.5,0.83,-9.08,2.58,-13.75,5.25 c-11.0,6.0,-20.67,13.33,-29,22 c-8.33,8.67,-14.67,18.0,-19,28 c-4.0,9.33,-2.17,15.5,5.5,18.5 c11.0,5.0,25.17,7.0,42.5,6 Z M174.5,467.5 c4.67,-14.67,12.0,-27.92,22,-39.75 c10.0,-11.83,23.0,-23.25,39,-34.25 c-5.67,-2.67,-10.92,-4.5,-15.75,-5.5 c-4.83,-1.0,-10.08,-1.5,-15.75,-1.5 c-6.0,0,-11.25,0.42,-15.75,1.25 c-4.5,0.83,-9.08,2.58,-13.75,5.25 c-11.0,6.0,-20.67,13.33,-29,22 c-8.33,8.67,-14.67,18.0,-19,28 c-4.0,9.33,-2.17,15.5,5.5,18.5 c11.0,5.0,25.17,7.0,42.5,6 Z M151,360 c40.0,0,70.08,-15.25,90.25,-45.75 c20.17,-30.5,30.25,-74.25,30.25,-131.25 l0,-11 c0,-57.33,-10.67,-102.0,-32,-134 c-21.33,-32.0,-50.83,-48,-88.5,-48 c-40.67,0,-71.25,14.5,-91.75,43.5 c-20.5,29.0,-30.75,70.67,-30.75,125 l0,11 c0,60.0,10.83,106.75,32.5,140.25 c21.67,33.5,51.67,50.25,90,50.25 Z M81.5,152.5 c0,-25.0,2.42,-45.83,7.25,-62.5 c4.83,-16.67,10.42,-29.33,16.75,-38 c13.0,-6.0,26.5,-9,40.5,-9 c24.33,0,42.5,12.0,54.5,36 c12.0,24.0,18,57.67,18,101 l0,9 c0,27.33,-2.33,49.83,-7,67.5 c-4.67,17.67,-10.83,31.67,-18.5,42 c-6.33,3.33,-12.5,5.58,-18.5,6.75 c-6.0,1.17,-12.83,1.75,-20.5,1.75 c-24.33,0,-42.5,-12.83,-54.5,-38.5 c-12.0,-25.67,-18,-61.5,-18,-107.5 Z M81.5,152.5" fill="rgb(0,0,0)" transform="matrix(1.883830441567534,0.0,0.0,-1.883830441567534,220.3050198891467,931.1616955843247)"/>
</svg>