<?xml version="1.0" encoding="UTF-8"?>
<svg width="1000" height="1000" viewBox="0 0 1000 1000" version="1.1" xmlns="http://www.w3.org/2000/svg" xmlns:xlink="http://www.w3.org/1999/xlink">
 <path d="M68.5,360 c20.67,0,37.58,-4.75,50.75,-14.25 c13.17,-9.5,22.92,-25.08,29.25,-46.75 c6.33,-21.67,9.5,-50.67,9.5,-87 l0,-23.5 c0,-48.33,-4.17,-86.58,-12.5,-114.75 c-8.33,-28.17,-19.33,-48.33,-33,-60.5 c-13.67,-12.17,-28.67,-18.25,-45,-18.25 c-17.33,0,-30.83,5.67,-40.5,17 c-2.67,3.33,-4.67,6.67,-6,10 c-1.33,3.33,-2,8.33,-2,15 l0,260 l-2,0 c-6.67,0,-11.17,2.92,-13.5,8.75 c-2.33,5.83,-3.5,14.58,-3.5,26.25 c0,3.67,0.08,6.92,0.25,9.75 c0.17,2.83,0.42,5.58,0.75,8.25 c9.67,3.0,20.0,5.42,31,7.25 c11.0,1.83,23.17,2.75,36.5,2.75 Z M65,51 c3.0,-1.0,6.5,-1.5,10.5,-1.5 c4.0,0,8.33,1.92,13,5.75 c4.67,3.83,9.0,11.0,13,21.5 c4.0,10.5,7.25,25.58,9.75,45.25 c2.5,19.67,3.75,45.33,3.75,77 l0,4.5 c0,21.33,-0.67,40.33,-2,57 c-1.33,16.67,-3.67,30.17,-7,40.5 c-8.0,4.0,-18.33,6,-31,6 c-4.0,0,-7.75,-0.17,-11.25,-0.5 c-3.5,-0.33,-6.75,-0.83,-9.75,-1.5 l-1,-3 c4.67,-4.33,7.83,-9.42,9.5,-15.25 c1.67,-5.83,2.5,-13.25,2.5,-22.25 Z M169.5,267 l98.5,0 c6.0,0,11.17,-2.17,15.5,-6.5 c4.33,-4.33,7.75,-9.67,10.25,-16 c2.5,-6.33,3.75,-12.33,3.75,-18 l0,-3 c0,-5.0,-1.75,-12.5,-5.25,-22.5 c-3.5,-10.0,-8.33,-21.5,-14.5,-34.5 c-6.17,-13.0,-13.17,-26.5,-21,-40.5 c-7.83,-14.0,-16.25,-27.5,-25.25,-40.5 c-3.67,-5.67,-7.5,-10.83,-11.5,-15.5 c-4.0,-4.67,-8.0,-9.33,-12,-14 l0.5,-3 l67,0 c8.0,0,13.67,-2.58,17,-7.75 c3.33,-5.17,5,-13.58,5,-25.25 c0,-7.67,-0.5,-14.33,-1.5,-20 l-103,0 c-9.67,0,-16.42,3.75,-20.25,11.25 c-3.83,7.5,-5.75,18.42,-5.75,32.75 l0,4.5 c13.0,18.0,25.75,38.0,38.25,60 c12.5,22.0,23.42,44.83,32.75,68.5 c2.33,5.67,4.58,11.33,6.75,17 c2.17,5.67,4.25,11.33,6.25,17 l-1,3 l-56.5,0 c-9.33,0,-15.75,3.5,-19.25,10.5 c-3.5,7.0,-5.25,16.67,-5.25,29 c0,2.67,0.08,5.08,0.25,7.25 c0.17,2.17,0.25,4.25,0.25,6.25 Z M169.5,267" fill="rgb(0,0,0)" transform="matrix(2.4657534246575343,0.0,0.0,-2.4657534246575343,133.21917808219177,937.6712328767123)"/>
</svg>