<?xml version="1.0" encoding="UTF-8"?>
<svg width="1000" height="1000" viewBox="0 0 1000 1000" version="1.1" xmlns="http://www.w3.org/2000/svg" xmlns:xlink="http://www.w3.org/1999/xlink">
 <path d="M93.5,391.5 c-12.67,0.33,-22.67,2.83,-30,7.5 c-4.33,3.0,-5.5,7.67,-3.5,14 c5.67,17.67,15.92,31.67,30.75,42 c14.83,10.33,33.92,15.5,57.25,15.5 l4,0 c23.67,0,42.83,-5.17,57.5,-15.5 c14.67,-10.33,24.83,-24.33,30.5,-42 c2.0,-6.33,0.83,-11.0,-3.5,-14 c-7.33,-4.67,-17.33,-7.17,-30,-7.5 c-5.0,11.67,-11.83,20.33,-20.5,26 c-8.67,5.67,-20.67,9.17,-36,10.5 c-15.33,-1.33,-27.33,-4.83,-36,-10.5 c-8.67,-5.67,-15.5,-14.33,-20.5,-26 Z M87,0 c-4.0,-1.0,-8.0,-1.83,-12,-2.5 c-4.0,-0.67,-8.17,-1,-12.5,-1 c-9.0,0,-16.67,1.75,-23,5.25 c-6.33,3.5,-9.5,9.75,-9.5,18.75 c0,24.33,1.0,48.0,3,71 c-6.0,2.0,-10.0,6.42,-12,13.25 c-2.0,6.83,-3,15.75,-3,26.75 l0,9 l21,0 c6.33,43.33,16.25,82.92,29.75,118.75 c13.5,35.83,29.58,66.58,48.25,92.25 c4.33,1.0,8.83,1.83,13.5,2.5 c4.67,0.67,9.33,1,14,1 c13.33,0,24.08,-1.83,32.25,-5.5 c8.17,-3.67,15.25,-9.58,21.25,-17.75 c6.0,-8.17,11.83,-19.08,17.5,-32.75 c9.0,-19.33,17.33,-42.08,25,-68.25 c7.67,-26.17,14.0,-54.67,19,-85.5 c5.0,-30.83,8.0,-63.08,9,-96.75 c0.67,-8.33,1.08,-16.42,1.25,-24.25 c0.17,-7.83,0.42,-15.92,0.75,-24.25 c-6.0,-2.33,-13.33,-3.5,-22,-3.5 c-11.33,0,-20.0,2.33,-26,7 c-6.0,4.67,-9.17,13.33,-9.5,26 c-0.67,21.0,-1.83,41.33,-3.5,61 l-119,0 c-2.33,-27.33,-3.5,-57.5,-3.5,-90.5 Z M160.5,140.5 c8.67,0,16.42,-0.83,23.25,-2.5 c6.83,-1.67,12.75,-4.5,17.75,-8.5 l3.5,1.5 c-4.33,32.67,-10.67,64.17,-19,94.5 c-8.33,30.33,-19.0,58.67,-32,85 l-4.5,0 c-13.33,-24.67,-24.42,-50.67,-33.25,-78 c-8.83,-27.33,-15.58,-58.0,-20.25,-92 Z M160.5,140.5" fill="rgb(0,0,0)" transform="matrix(1.8987341772151898,0.0,0.0,-1.8987341772151898,226.10759493670886,943.3544303797469)"/>
</svg>