<?xml version="1.0" encoding="UTF-8"?>
<svg width="1000" height="1000" viewBox="0 0 1000 1000" version="1.1" xmlns="http://www.w3.org/2000/svg" xmlns:xlink="http://www.w3.org/1999/xlink">
 <path d="M213,377.5 c10.0,3.33,21.67,5,35,5 c12.33,0,22.25,-2.08,29.75,-6.25 c7.5,-4.17,11.25,-11.25,11.25,-21.25 l0,-32 c-4.33,-1.67,-9.17,-2.92,-14.5,-3.75 c-5.33,-0.83,-10.83,-1.25,-16.5,-1.25 c-13.33,0,-24.17,2.83,-32.5,8.5 c-8.33,5.67,-12.5,13.5,-12.5,23.5 Z M48,0 c-8.0,0,-14.58,2.83,-19.75,8.5 c-5.17,5.67,-9.08,12.92,-11.75,21.75 c-2.67,8.83,-4,17.58,-4,26.25 l0,240.5 c0,11.0,-0.25,20.5,-0.75,28.5 c-0.5,8.0,-1.25,16.33,-2.25,25 c3.33,1.33,6.5,2.25,9.5,2.75 c3.0,0.5,7.17,0.75,12.5,0.75 c12.0,0,20.17,-3.25,24.5,-9.75 c4.33,-6.5,6.5,-16.08,6.5,-28.75 l0,-262.5 l81.5,0 c0.33,0,0.5,0,0.5,0 c1.0,8.0,1.92,16.58,2.75,25.75 c0.83,9.17,1.42,18.58,1.75,28.25 c2.67,0.67,5.67,1.17,9,1.5 c3.33,0.33,7.0,0.5,11,0.5 c7.33,0,13.42,-1.67,18.25,-5 c4.83,-3.33,7.25,-9.33,7.25,-18 c0,-16.33,-1.75,-32.92,-5.25,-49.75 c-3.5,-16.83,-7.58,-32.25,-12.25,-46.25 c-7.0,0,-13.25,0.83,-18.75,2.5 c-5.5,1.67,-9.92,4.17,-13.25,7.5 Z M234.5,272 c14.33,0,25.75,-2.0,34.25,-6 c8.5,-4.0,12.75,-10.17,12.75,-18.5 l0,-255 c0,-22.33,-3.25,-42.42,-9.75,-60.25 c-6.5,-17.83,-16.25,-31.83,-29.25,-42 c-13.0,-10.17,-29.33,-15.25,-49,-15.25 c-14.33,0,-26.0,1.58,-35,4.75 c-9.0,3.17,-16.0,7.25,-21,12.25 c-7.67,7.33,-11.5,18.83,-11.5,34.5 c0,2.67,0.17,5.25,0.5,7.75 c0.33,2.5,0.83,4.92,1.5,7.25 l3,0 c9.67,-5.0,18.58,-8.5,26.75,-10.5 c8.17,-2.0,17.92,-3,29.25,-3 c13.67,0,24.67,2.5,33,7.5 c3.67,7.0,6.0,15.5,7,25.5 c1.0,10.0,1.5,23.0,1.5,39 l0,220 l-3,1.5 c-9.33,-2.33,-19.92,-4.42,-31.75,-6.25 c-11.83,-1.83,-21.25,-2.75,-28.25,-2.75 c-12.33,0,-18.5,11.33,-18.5,34 c0,4.0,0.17,7.75,0.5,11.25 c0.33,3.5,0.83,6.58,1.5,9.25 c15.0,1.67,29.58,2.92,43.75,3.75 c14.17,0.83,28.08,1.25,41.75,1.25 Z M234.5,272" fill="rgb(0,0,0)" transform="matrix(1.7733990147783252,0.0,0.0,-1.7733990147783252,235.32019704433498,728.3251231527094)"/>
</svg>