<?xml version="1.0" encoding="UTF-8"?>
<svg width="1000" height="1000" viewBox="0 0 1000 1000" version="1.1" xmlns="http://www.w3.org/2000/svg" xmlns:xlink="http://www.w3.org/1999/xlink">
 <path d="M182.5,-0.5 c-3.33,-0.67,-6.33,-1.25,-9,-1.75 c-2.67,-0.5,-6.0,-0.75,-10,-0.75 c-15.0,0,-25.67,3.75,-32,11.25 c-6.33,7.5,-9.5,18.42,-9.5,32.75 l0,256 l-53,0 c-19.33,0,-32.92,3.33,-40.75,10 c-7.83,6.67,-11.75,15.83,-11.75,27.5 c0,6.0,0.67,11.17,2,15.5 l238,0 c9.33,0,15.83,-3.17,19.5,-9.5 c3.67,-6.33,5.5,-14.33,5.5,-24 c0,-7.33,-0.83,-13.83,-2.5,-19.5 l-114,0 l-1,-2.5 c5.0,-3.67,8.58,-8.67,10.75,-15 c2.17,-6.33,3.25,-13.83,3.25,-22.5 l0,-207 c0,-8.33,0.25,-16.75,0.75,-25.25 c0.5,-8.5,1.75,-16.92,3.75,-25.25 Z M133.5,-31 c6.67,2.67,13.67,4,21,4 c10.33,0,17.67,-1.83,22,-5.5 c4.33,-3.67,6.5,-9.33,6.5,-17 c0,-12.33,-1.92,-24.92,-5.75,-37.75 c-3.83,-12.83,-8.42,-23.08,-13.75,-30.75 c-5.0,-7.0,-11.0,-10.5,-18,-10.5 c-10.0,0,-19.33,2.0,-28,6 c5.67,13.0,9.75,26.83,12.25,41.5 c2.5,14.67,3.75,31.33,3.75,50 Z M133.5,-31" fill="rgb(0,0,0)" transform="matrix(1.8808777429467085,0.0,0.0,-1.8808777429467085,219.74921630094042,708.307210031348)"/>
</svg>