<?xml version="1.0" encoding="UTF-8"?>
<svg width="1000" height="1000" viewBox="0 0 1000 1000" version="1.1" xmlns="http://www.w3.org/2000/svg" xmlns:xlink="http://www.w3.org/1999/xlink">
 <path d="M48,0 c-8.0,0,-14.58,2.83,-19.75,8.5 c-5.17,5.67,-9.08,12.92,-11.75,21.75 c-2.67,8.83,-4,17.58,-4,26.25 l0,240.5 c0,11.0,-0.25,20.5,-0.75,28.5 c-0.5,8.0,-1.25,16.33,-2.25,25 c3.33,1.33,6.5,2.25,9.5,2.75 c3.0,0.5,7.17,0.75,12.5,0.75 c12.0,0,20.17,-3.25,24.5,-9.75 c4.33,-6.5,6.5,-16.08,6.5,-28.75 l0,-262.5 l83,0 c0.33,0,0.67,0,1,0 c0.67,8.0,1.42,16.58,2.25,25.75 c0.83,9.17,1.42,18.58,1.75,28.25 c2.67,0.67,6.42,1.17,11.25,1.5 c4.83,0.33,8.92,0.5,12.25,0.5 c6.67,0,12.08,-1.67,16.25,-5 c4.17,-3.33,6.25,-9.33,6.25,-18 c0,-15.33,-1.42,-31.67,-4.25,-49 c-2.83,-17.33,-6.58,-33.0,-11.25,-47 c-20.67,0,-32.83,3.33,-36.5,10 Z M177.5,-46 c24.67,8.67,42.5,21.42,53.5,38.25 c11.0,16.83,16.5,42.08,16.5,75.75 l0,236 l-0.5,0 c-8.33,-3.33,-17.33,-5.83,-27,-7.5 c-9.67,-1.67,-17.83,-2.5,-24.5,-2.5 c-14.33,0,-21.5,11.67,-21.5,35 c0,8.33,0.83,15.33,2.5,21 c9.0,0.67,20.58,1.33,34.75,2 c14.17,0.67,28.42,1,42.75,1 c13.0,0,23.08,-3.17,30.25,-9.5 c7.17,-6.33,10.75,-13.83,10.75,-22.5 l0,-260 c0,-25.33,-2.33,-45.5,-7,-60.5 c-4.67,-15.0,-10.83,-26.67,-18.5,-35 c-7.33,-8.33,-16.0,-14.58,-26,-18.75 c-10.0,-4.17,-19.83,-6.25,-29.5,-6.25 c-9.0,0,-16.42,1.17,-22.25,3.5 c-5.83,2.33,-10.58,5.67,-14.25,10 Z M177.5,-46" fill="rgb(0,0,0)" transform="matrix(2.176541717049577,0.0,0.0,-2.176541717049577,168.6215235792019,820.4957678355502)"/>
</svg>