<?xml version="1.0" encoding="UTF-8"?>
<svg width="1000" height="1000" viewBox="0 0 1000 1000" version="1.1" xmlns="http://www.w3.org/2000/svg" xmlns:xlink="http://www.w3.org/1999/xlink">
 <path d="M251.5,391 l-17,0 c-6.33,0,-12.0,1.0,-17,3 c-5.0,2.0,-10.67,6.17,-17,12.5 c-8.0,8.33,-14.92,17.58,-20.75,27.75 c-5.83,10.17,-11.58,21.92,-17.25,35.25 c5.67,3.33,13.0,5,22,5 c9.67,0,16.5,-4.0,20.5,-12 c3.67,-7.33,7.67,-14.0,12,-20 c4.33,-6.0,9.0,-11.5,14,-16.5 l5,0 c8.33,8.67,15.17,17.17,20.5,25.5 c5.33,8.33,10.0,16.33,14,24 l10.5,0 c8.67,0,14.67,-1.17,18,-3.5 c3.33,-2.33,5,-5.0,5,-8 c0,-2.33,-0.58,-5.5,-1.75,-9.5 c-1.17,-4.0,-3.58,-9.0,-7.25,-15 c-11.0,-18.33,-25.5,-34.5,-43.5,-48.5 Z M297.5,0 l-113.5,0 c-9.33,0,-16.0,4.0,-20,12 c-4.0,8.0,-6,18.67,-6,32 l0,6.5 c14.67,23.33,27.92,47.33,39.75,72 c11.83,24.67,23.25,52.17,34.25,82.5 c4.67,13.67,9.08,27.92,13.25,42.75 c4.17,14.83,7.92,30.58,11.25,47.25 l-1.5,5.5 c-3.33,-0.67,-7.17,-1.17,-11.5,-1.5 c-4.33,-0.33,-9.5,-0.5,-15.5,-0.5 l-23.5,0 c-0.67,-5.67,-1.25,-11.58,-1.75,-17.75 c-0.5,-6.17,-0.75,-12.58,-0.75,-19.25 c-2.0,-0.67,-4.58,-1.17,-7.75,-1.5 c-3.17,-0.33,-6.42,-0.5,-9.75,-0.5 c-7.0,0,-12.25,1.83,-15.75,5.5 c-3.5,3.67,-5.25,11.17,-5.25,22.5 c0,13.67,1.42,28.42,4.25,44.25 c2.83,15.83,6.75,31.25,11.75,46.25 c14.0,0,23.0,-1.67,27,-5 c4.0,-3.33,5.83,-8.0,5.5,-14 c0,-2.67,-0.17,-5.67,-0.5,-9 l57.5,0 c10.33,0,17.92,-4.17,22.75,-12.5 c4.83,-8.33,7.25,-21.33,7.25,-39 l0,-3 c0,-11.67,-3.25,-29.33,-9.75,-53 c-6.5,-23.67,-15.75,-49.17,-27.75,-76.5 c-9.33,-21.67,-19.25,-42.25,-29.75,-61.75 c-10.5,-19.5,-20.75,-36.58,-30.75,-51.25 l0,-3 c11.67,1.67,21.42,2.58,29.25,2.75 c7.83,0.17,14.92,0.25,21.25,0.25 l23.5,0 c16.0,0,24,-11.33,24,-34 c0,-3.67,-0.08,-7.33,-0.25,-11 c-0.17,-3.67,-0.58,-6.33,-1.25,-8 Z M68.5,360 c20.67,0,37.58,-4.75,50.75,-14.25 c13.17,-9.5,22.92,-25.08,29.25,-46.75 c6.33,-21.67,9.5,-50.67,9.5,-87 l0,-23.5 c0,-48.33,-4.17,-86.58,-12.5,-114.75 c-8.33,-28.17,-19.33,-48.33,-33,-60.5 c-13.67,-12.17,-28.67,-18.25,-45,-18.25 c-17.33,0,-30.83,5.67,-40.5,17 c-2.67,3.33,-4.67,6.67,-6,10 c-1.33,3.33,-2,8.33,-2,15 l0,260 l-2,0 c-6.67,0,-11.17,2.92,-13.5,8.75 c-2.33,5.83,-3.5,14.58,-3.5,26.25 c0,3.67,0.08,6.92,0.25,9.75 c0.17,2.83,0.42,5.58,0.75,8.25 c9.67,3.0,20.0,5.42,31,7.25 c11.0,1.83,23.17,2.75,36.5,2.75 Z M65,51 c3.0,-1.0,6.5,-1.5,10.5,-1.5 c4.0,0,8.33,1.92,13,5.75 c4.67,3.83,9.0,11.0,13,21.5 c4.0,10.5,7.25,25.58,9.75,45.25 c2.5,19.67,3.75,45.33,3.75,77 l0,4.5 c0,21.33,-0.67,40.33,-2,57 c-1.33,16.67,-3.67,30.17,-7,40.5 c-8.0,4.0,-18.33,6,-31,6 c-4.0,0,-7.75,-0.17,-11.25,-0.5 c-3.5,-0.33,-6.75,-0.83,-9.75,-1.5 l-1,-3 c4.67,-4.33,7.83,-9.42,9.5,-15.25 c1.67,-5.83,2.5,-13.25,2.5,-22.25 Z M65,51" fill="rgb(0,0,0)" transform="matrix(1.8730489073881373,0.0,0.0,-1.8730489073881373,215.29656607700315,940.6347554630593)"/>
</svg>