<?xml version="1.0" encoding="UTF-8"?>
<svg width="1000" height="1000" viewBox="0 0 1000 1000" version="1.1" xmlns="http://www.w3.org/2000/svg" xmlns:xlink="http://www.w3.org/1999/xlink">
 <path d="M100,0 c-9.67,0,-18.67,2.5,-27,7.5 c-8.33,5.0,-14.92,11.25,-19.75,18.75 c-4.83,7.5,-7.25,14.92,-7.25,22.25 l0,248.5 l-8.5,0 c-6.67,0,-11.33,3.75,-14,11.25 c-2.67,7.5,-4,15.58,-4,24.25 c0,5.67,0.5,11.5,1.5,17.5 l221,0 c7.0,0,12.42,-1.92,16.25,-5.75 c3.83,-3.83,6.42,-8.42,7.75,-13.75 c1.33,-5.33,2,-10.0,2,-14 c0,-8.0,-1.0,-14.5,-3,-19.5 l-176,0 l-1,-2.5 c9.0,-7.67,13.5,-20.0,13.5,-37 l0,-68.5 l107,0 c9.67,0,16.67,-3.67,21,-11 c4.33,-7.33,6.5,-15.5,6.5,-24.5 c0,-2.33,0,-4.5,0,-6.5 c0,-2.0,-0.17,-3.83,-0.5,-5.5 l-134,0 l0,-88.5 l128,0 c11.0,0,20.17,-2.58,27.5,-7.75 c7.33,-5.17,11,-13.58,11,-25.25 c0,-3.33,-0.17,-6.83,-0.5,-10.5 c-0.33,-3.67,-0.83,-6.83,-1.5,-9.5 Z M93.5,392.5 c-12.67,0.33,-22.67,2.67,-30,7 c-4.33,3.0,-5.5,7.67,-3.5,14 c5.67,17.67,15.92,31.67,30.75,42 c14.83,10.33,33.92,15.5,57.25,15.5 l4,0 c23.67,0,42.83,-5.17,57.5,-15.5 c14.67,-10.33,24.83,-24.33,30.5,-42 c2.0,-6.33,0.83,-11.0,-3.5,-14 c-7.33,-4.33,-17.33,-6.67,-30,-7 c-5.0,11.67,-11.83,20.25,-20.5,25.75 c-8.67,5.5,-20.67,8.92,-36,10.25 c-15.33,-1.33,-27.33,-4.75,-36,-10.25 c-8.67,-5.5,-15.5,-14.08,-20.5,-25.75 Z M93.5,392.5" fill="rgb(0,0,0)" transform="matrix(1.910828025477707,0.0,0.0,-1.910828025477707,225.3184713375796,950.0)"/>
</svg>