<?xml version="1.0" encoding="UTF-8"?>
<svg width="1000" height="1000" viewBox="0 0 1000 1000" version="1.1" xmlns="http://www.w3.org/2000/svg" xmlns:xlink="http://www.w3.org/1999/xlink">
 <path d="M58.5,406 c17.0,0,30.0,-2.17,39,-6.5 c4.0,-2.0,6.58,-4.92,7.75,-8.75 c1.17,-3.83,1.08,-7.75,-0.25,-11.75 c-3.33,-12.33,-9.17,-23.5,-17.5,-33.5 c-8.33,-10.0,-17.67,-18.17,-28,-24.5 c-9.67,-6.0,-20.83,-9,-33.5,-9 c-4.67,0,-9.25,0.58,-13.75,1.75 c-4.5,1.17,-8.58,3.08,-12.25,5.75 c15.67,13.67,28.25,27.08,37.75,40.25 c9.5,13.17,16.42,28.58,20.75,46.25 Z M162.5,406.5 c17.0,0,30.0,-2.17,39,-6.5 c4.0,-2.0,6.58,-4.92,7.75,-8.75 c1.17,-3.83,1.08,-7.75,-0.25,-11.75 c-3.33,-12.33,-9.17,-23.5,-17.5,-33.5 c-8.33,-10.0,-17.67,-18.17,-28,-24.5 c-9.67,-6.0,-20.83,-9,-33.5,-9 c-4.67,0,-9.25,0.58,-13.75,1.75 c-4.5,1.17,-8.58,3.08,-12.25,5.75 c15.67,13.67,28.25,27.08,37.75,40.25 c9.5,13.17,16.42,28.58,20.75,46.25 Z M162.5,406.5" fill="rgb(0,0,0)" transform="matrix(4.284354078523678,0.0,0.0,-4.284354078523678,50.0,2039.1542027096311)"/>
</svg>