<?xml version="1.0" encoding="UTF-8"?>
<svg width="1000" height="1000" viewBox="0 0 1000 1000" version="1.1" xmlns="http://www.w3.org/2000/svg" xmlns:xlink="http://www.w3.org/1999/xlink">
 <path d="M151,272.5 c22.0,0,42.08,-5.83,60.25,-17.5 c18.17,-11.67,32.67,-28.58,43.5,-50.75 c10.83,-22.17,16.25,-49.25,16.25,-81.25 l0,-5.5 c0,-25.0,-5.08,-46.75,-15.25,-65.25 c-10.17,-18.5,-24.42,-32.75,-42.75,-42.75 c-18.33,-10.0,-39.83,-15,-64.5,-15 c-22.67,0,-43.0,4.58,-61,13.75 c-18.0,9.17,-32.25,22.83,-42.75,41 c-10.5,18.17,-15.75,40.92,-15.75,68.25 l0,5.5 c0,30.33,5.25,56.67,15.75,79 c10.5,22.33,24.92,39.67,43.25,52 c18.33,12.33,39.33,18.5,63,18.5 Z M157,222 c-25.67,0,-44.83,-9.17,-57.5,-27.5 c-12.67,-18.33,-19,-43.33,-19,-75 l0,-3 c0,-12.67,1.58,-24.92,4.75,-36.75 c3.17,-11.83,8.42,-22.08,15.75,-30.75 c6.67,-1.33,13.08,-2.42,19.25,-3.25 c6.17,-0.83,13.25,-1.25,21.25,-1.25 c26.67,0,46.33,6.58,59,19.75 c12.67,13.17,19,31.92,19,56.25 l0,3.5 c0,20.0,-2.17,37.92,-6.5,53.75 c-4.33,15.83,-11.33,29.25,-21,40.25 c-4.67,1.67,-9.83,2.75,-15.5,3.25 c-5.67,0.5,-12.17,0.75,-19.5,0.75 Z M66.5,381 c3.67,0.67,7.75,1.08,12.25,1.25 c4.5,0.17,8.58,0.25,12.25,0.25 c9.67,0,18.25,-1.33,25.75,-4 c7.5,-2.67,11.25,-8.33,11.25,-17 l0,-42 c-4.0,-0.67,-8.17,-1.08,-12.5,-1.25 c-4.33,-0.17,-8.5,-0.25,-12.5,-0.25 c-9.33,0,-17.75,1.5,-25.25,4.5 c-7.5,3.0,-11.25,8.83,-11.25,17.5 Z M172,381 c8.0,1.0,16.17,1.5,24.5,1.5 c9.67,0,18.25,-1.33,25.75,-4 c7.5,-2.67,11.25,-8.33,11.25,-17 l0,-42 c-3.67,-0.67,-7.75,-1.08,-12.25,-1.25 c-4.5,-0.17,-8.75,-0.25,-12.75,-0.25 c-9.33,0,-17.75,1.5,-25.25,4.5 c-7.5,3.0,-11.25,8.83,-11.25,17.5 Z M50.5,463 l173,0 c9.67,0,16.33,-2.25,20,-6.75 c3.67,-4.5,5.5,-11.58,5.5,-21.25 c0,-3.0,-0.17,-5.92,-0.5,-8.75 c-0.33,-2.83,-0.83,-5.58,-1.5,-8.25 l-150.5,0 c-19.0,0,-31.42,2.92,-37.25,8.75 c-5.83,5.83,-8.75,15.42,-8.75,28.75 Z M50.5,463" fill="rgb(0,0,0)" transform="matrix(1.92102454642476,0.0,0.0,-1.92102454642476,211.846318036286,939.4343649946638)"/>
</svg>