<?xml version="1.0" encoding="UTF-8"?>
<svg width="1000" height="1000" viewBox="0 0 1000 1000" version="1.1" xmlns="http://www.w3.org/2000/svg" xmlns:xlink="http://www.w3.org/1999/xlink">
 <path d="M136.5,-8 c-22.0,0,-40.83,4.58,-56.5,13.75 c-15.67,9.17,-27.58,21.67,-35.75,37.5 c-8.17,15.83,-12.25,33.75,-12.25,53.75 l0,2 c0,17.0,1.58,29.33,4.75,37 c3.17,7.67,7.58,11.5,13.25,11.5 l126.5,0 c15.33,0,27.0,-3.5,35,-10.5 l2.5,1.5 c0.33,4.0,0.5,8.33,0.5,13 l0,4.5 c0,21.0,-4.17,38.17,-12.5,51.5 c-8.67,5.67,-18.33,9.67,-29,12 c-10.67,2.33,-23.83,3.5,-39.5,3.5 c-17.33,0,-33.33,-2.0,-48,-6 c-14.67,-4.0,-28.67,-10.83,-42,-20.5 l-3,0 c-1.33,4.0,-2,9.17,-2,15.5 c0,8.67,1.25,15.92,3.75,21.75 c2.5,5.83,5.92,10.92,10.25,15.25 c8.0,8.0,19.33,13.92,34,17.75 c14.67,3.83,30.67,5.75,48,5.75 c25.67,0,48.5,-5.0,68.5,-15 c20.0,-10.0,35.75,-24.42,47.25,-43.25 c11.5,-18.83,17.25,-41.75,17.25,-68.75 l0,-4.5 c0,-31.0,-5.75,-57.67,-17.25,-80 c-11.5,-22.33,-27.17,-39.42,-47,-51.25 c-19.83,-11.83,-42.08,-17.75,-66.75,-17.75 Z M133.5,38.5 c19.67,0,36.42,6.25,50.25,18.75 c13.83,12.5,23.08,31.25,27.75,56.25 l-124.5,0 c-1.67,-7.33,-2.5,-14.33,-2.5,-21 c0,-20.0,5.0,-36.17,15,-48.5 c5.0,-2.0,9.92,-3.42,14.75,-4.25 c4.83,-0.83,11.25,-1.25,19.25,-1.25 Z M133.5,38.5" fill="rgb(0,0,0)" transform="matrix(3.2085561497326203,0.0,0.0,-3.2085561497326203,19.51871657754009,924.331550802139)"/>
</svg>