<?xml version="1.0" encoding="UTF-8"?>
<svg width="1000" height="1000" viewBox="0 0 1000 1000" version="1.1" xmlns="http://www.w3.org/2000/svg" xmlns:xlink="http://www.w3.org/1999/xlink">
 <path d="M150,47.5 c16.67,0,30.42,2.0,41.25,6 c10.83,4.0,19.08,8.83,24.75,14.5 c0.33,9.0,-2.25,17.0,-7.75,24 c-5.5,7.0,-17.08,12.33,-34.75,16 l-53,11.5 c-27.33,6.0,-46.75,13.92,-58.25,23.75 c-11.5,9.83,-17.25,23.25,-17.25,40.25 c0,18.0,6.33,33.75,19,47.25 c12.67,13.5,29.33,23.92,50,31.25 c20.67,7.33,43.0,11,67,11 c32.0,0,51.83,-4.0,59.5,-12 c8.0,-7.67,12,-20.83,12,-39.5 c0,-5.67,-0.67,-10.5,-2,-14.5 l-3,0 c-8.33,4.33,-17.5,7.58,-27.5,9.75 c-10.0,2.17,-23.17,3.25,-39.5,3.25 c-25.33,0,-45.42,-3.58,-60.25,-10.75 c-14.83,-7.17,-22.25,-16.08,-22.25,-26.75 c0,-6.0,2.92,-11.5,8.75,-16.5 c5.83,-5.0,18.75,-9.5,38.75,-13.5 l46.5,-9.5 c26.0,-5.0,44.67,-13.25,56,-24.75 c11.33,-11.5,17,-25.25,17,-41.25 c0,-50.33,-33.0,-77.67,-99,-82 c-0.33,-2.67,-0.67,-5.17,-1,-7.5 c-0.33,-2.33,-0.67,-4.33,-1,-6 l0,-2.5 c13.33,-1.0,23.83,-5.25,31.5,-12.75 c7.67,-7.5,11.5,-17.42,11.5,-29.75 c0,-17.33,-6.08,-30.83,-18.25,-40.5 c-12.17,-9.67,-29.42,-14.5,-51.75,-14.5 c-15.33,0,-26.33,2.92,-33,8.75 c-6.67,5.83,-10,12.92,-10,21.25 c0,7.67,1.5,15.17,4.5,22.5 l3,0 c4.67,-4.0,9.42,-6.92,14.25,-8.75 c4.83,-1.83,11.25,-2.75,19.25,-2.75 c18.33,0,27.5,6.83,27.5,20.5 c0,11.33,-7.67,17,-23,17 c-6.0,0,-9,2.5,-9,7.5 c0,3.33,0.33,7.5,1,12.5 c0.67,5.0,1.67,9.83,3,14.5 c-23.33,0.67,-42.67,3.08,-58,7.25 c-15.33,4.17,-25.67,9.08,-31,14.75 c-4.33,4.33,-7.5,9.67,-9.5,16 c-2.0,6.33,-3,14.67,-3,25 c0,4.0,0.25,7.5,0.75,10.5 c0.5,3.0,0.92,5.67,1.25,8 l3,0 c11.33,-7.33,21.83,-13.08,31.5,-17.25 c9.67,-4.17,20.75,-7.08,33.25,-8.75 c12.5,-1.67,28.25,-2.5,47.25,-2.5 Z M150,47.5" fill="rgb(0,0,0)" transform="matrix(2.2988505747126435,0.0,0.0,-2.2988505747126435,157.47126436781616,677.5862068965517)"/>
</svg>