<?xml version="1.0" encoding="UTF-8"?>
<svg width="1000" height="1000" viewBox="0 0 1000 1000" version="1.1" xmlns="http://www.w3.org/2000/svg" xmlns:xlink="http://www.w3.org/1999/xlink">
 <path d="M108,-7 c-13.67,0,-26.17,4.33,-37.5,13 c-11.33,8.67,-20.33,19.92,-27,33.75 c-6.67,13.83,-10,28.58,-10,44.25 l0,206.5 c0,24.33,-2.67,44.67,-8,61 c8.0,2.33,15.83,3.5,23.5,3.5 c14.67,0,25.75,-5.42,33.25,-16.25 c7.5,-10.83,11.25,-30.75,11.25,-59.75 c0,-21.67,-0.5,-42.67,-1.5,-63 c-1.0,-20.33,-2.42,-41.33,-4.25,-63 c-1.83,-21.67,-4.42,-45.5,-7.75,-71.5 c5.33,-20.0,17.5,-30,36.5,-30 c16.67,0,32.33,3.42,47,10.25 c14.67,6.83,30.17,21.25,46.5,43.25 c-0.33,8.0,-0.5,16.67,-0.5,26 l0,219.5 c2.67,1.33,5.67,2.25,9,2.75 c3.33,0.5,6.67,0.75,10,0.75 c12.33,0,21.42,-2.75,27.25,-8.25 c5.83,-5.5,8.75,-14.58,8.75,-27.25 l0,-268 c0,-9.33,0.58,-18.25,1.75,-26.75 c1.17,-8.5,2.92,-16.92,5.25,-25.25 c-5.0,-2.0,-10.83,-3,-17.5,-3 c-7.33,0,-13.83,1.42,-19.5,4.25 c-5.67,2.83,-10.42,9.17,-14.25,19 c-3.83,9.83,-6.75,25.58,-8.75,47.25 l-1,0 c-14.33,-27.0,-30.33,-45.92,-48,-56.75 c-17.67,-10.83,-35.83,-16.25,-54.5,-16.25 Z M93.5,392.5 c-12.67,0.33,-22.67,2.67,-30,7 c-4.33,3.0,-5.5,7.67,-3.5,14 c5.67,17.67,15.92,31.67,30.75,42 c14.83,10.33,33.92,15.5,57.25,15.5 l4,0 c23.67,0,42.83,-5.17,57.5,-15.5 c14.67,-10.33,24.83,-24.33,30.5,-42 c2.0,-6.33,0.83,-11.0,-3.5,-14 c-7.33,-4.33,-17.33,-6.67,-30,-7 c-5.0,11.67,-11.83,20.25,-20.5,25.75 c-8.67,5.5,-20.67,8.92,-36,10.25 c-15.33,-1.33,-27.33,-4.75,-36,-10.25 c-8.67,-5.5,-15.5,-14.08,-20.5,-25.75 Z M93.5,392.5" fill="rgb(0,0,0)" transform="matrix(1.8828451882845187,0.0,0.0,-1.8828451882845187,220.39748953974893,936.8200836820083)"/>
</svg>