<?xml version="1.0" encoding="UTF-8"?>
<svg width="1000" height="1000" viewBox="0 0 1000 1000" version="1.1" xmlns="http://www.w3.org/2000/svg" xmlns:xlink="http://www.w3.org/1999/xlink">
 <path d="M116.5,-43.5 c4.67,1.0,9.5,1.67,14.5,2 c5.0,0.33,9.67,0.5,14,0.5 c12.0,0,22.0,-1.67,30,-5 c8.0,-3.33,12,-10.0,12,-20 l0,-34.5 c-4.33,-1.0,-9.0,-1.67,-14,-2 c-5.0,-0.33,-9.83,-0.5,-14.5,-0.5 c-12.0,0,-22.0,1.67,-30,5 c-8.0,3.33,-12,10.0,-12,20 Z M83,-2 c-1.67,-1.0,-4.0,-1.67,-7,-2 c-3.0,-0.33,-6.17,-0.5,-9.5,-0.5 c-8.67,0,-16.42,2.17,-23.25,6.5 c-6.83,4.33,-10.25,11.83,-10.25,22.5 l0,274.5 c0,9.0,-0.42,17.75,-1.25,26.25 c-0.83,8.5,-2.08,16.75,-3.75,24.75 c9.67,2.33,19.5,3.5,29.5,3.5 c12.67,0,22.67,-2.5,30,-7.5 c7.33,-5.0,12.17,-14.0,14.5,-27 c4.67,-24.33,10.42,-49.33,17.25,-75 c6.83,-25.67,16.75,-49.83,29.75,-72.5 l3,0 c12.67,23.0,23.33,49.0,32,78 c8.67,29.0,15.0,62.5,19,100.5 c6.67,2.33,14.33,3.5,23,3.5 c15.0,0,25.58,-2.83,31.75,-8.5 c6.17,-5.67,9.25,-15.83,9.25,-30.5 l0,-264 c0,-9.33,0.42,-18.33,1.25,-27 c0.83,-8.67,2.08,-17.0,3.75,-25 c-2.67,-1.0,-5.42,-1.75,-8.25,-2.25 c-2.83,-0.5,-6.42,-0.75,-10.75,-0.75 c-9.33,0,-17.67,2.42,-25,7.25 c-7.33,4.83,-11,13.58,-11,26.25 l0,54 c0,15.33,0.17,31.58,0.5,48.75 c0.33,17.17,1.0,36.42,2,57.75 c1.0,21.33,2.83,46.33,5.5,75 l-3.5,0 c-8.67,-36.33,-18.92,-67.5,-30.75,-93.5 c-11.83,-26.0,-24.08,-46.0,-36.75,-60 l-4.5,0 c-3.0,0,-5.5,1.0,-7.5,3 c-20.67,20.33,-41.83,70.5,-63.5,150.5 l-3,0 c2.33,-28.33,4.0,-52.92,5,-73.75 c1.0,-20.83,1.67,-39.67,2,-56.5 c0.33,-16.83,0.5,-33.08,0.5,-48.75 Z M83,-2" fill="rgb(0,0,0)" transform="matrix(1.9715224534501643,0.0,0.0,-1.9715224534501643,204.27163198247533,746.9331872946331)"/>
</svg>