<?xml version="1.0" encoding="UTF-8"?>
<svg width="1000" height="1000" viewBox="0 0 1000 1000" version="1.1" xmlns="http://www.w3.org/2000/svg" xmlns:xlink="http://www.w3.org/1999/xlink">
 <path d="M33,53 l113.5,0 l1,2.5 c-8.33,9.67,-12.5,25.0,-12.5,46 l0,127 l-2,2 c-20.67,-6.0,-37.17,-10.58,-49.5,-13.75 c-12.33,-3.17,-21.33,-4.75,-27,-4.75 c-6.33,0,-11.67,2.75,-16,8.25 c-4.33,5.5,-6.5,13.92,-6.5,25.25 c0,8.0,1.17,15.17,3.5,21.5 c15.67,1.67,32.58,2.92,50.75,3.75 c18.17,0.83,33.75,1.25,46.75,1.25 c18.33,0,31.75,-2.42,40.25,-7.25 c8.5,-4.83,12.75,-14.58,12.75,-29.25 l0,-182.5 c31.0,-0.67,54.42,-4.67,70.25,-12 c15.83,-7.33,23.75,-16.33,23.75,-27 c0,-2.67,-0.25,-5.08,-0.75,-7.25 c-0.5,-2.17,-1.08,-4.42,-1.75,-6.75 l-211.5,0 c-15.0,0,-24.92,2.75,-29.75,8.25 c-4.83,5.5,-7.25,14.92,-7.25,28.25 c0,6.67,0.67,12.17,2,16.5 Z M137,308.5 c0,9.67,8.0,18.0,24,25 c10.0,4.67,17.17,8.58,21.5,11.75 c4.33,3.17,6.5,6.75,6.5,10.75 c0,2.67,-0.17,4.5,-0.5,5.5 c-5.33,2.0,-12.17,3,-20.5,3 c-11.33,0,-21.17,-1.5,-29.5,-4.5 c-8.33,-3.0,-16.33,-7.83,-24,-14.5 l-3,0 c-1.33,3.0,-2.25,5.92,-2.75,8.75 c-0.5,2.83,-0.75,6.42,-0.75,10.75 c0,11.67,3.5,20.5,10.5,26.5 c4.67,4.67,10.58,8.17,17.75,10.5 c7.17,2.33,16.58,3.5,28.25,3.5 c21.0,0,36.17,-4.33,45.5,-13 c9.33,-8.67,14,-19.5,14,-32.5 l0,-1 c0,-9.0,-1.92,-16.08,-5.75,-21.25 c-3.83,-5.17,-9.42,-10.25,-16.75,-15.25 c-8.33,-5.67,-14.08,-10.17,-17.25,-13.5 c-3.17,-3.33,-5.08,-7.33,-5.75,-12 c-2.0,-0.67,-4.75,-1.42,-8.25,-2.25 c-3.5,-0.83,-7.08,-1.25,-10.75,-1.25 c-8.0,0,-13.75,1.42,-17.25,4.25 c-3.5,2.83,-5.25,6.42,-5.25,10.75 Z M137,308.5" fill="rgb(0,0,0)" transform="matrix(2.219482120838471,0.0,0.0,-2.219482120838471,152.6510480887793,950.0)"/>
</svg>