<?xml version="1.0" encoding="UTF-8"?>
<svg width="1000" height="1000" viewBox="0 0 1000 1000" version="1.1" xmlns="http://www.w3.org/2000/svg" xmlns:xlink="http://www.w3.org/1999/xlink">
 <path d="M84.5,-55 l173,0 c9.67,0,16.33,-2.25,20,-6.75 c3.67,-4.5,5.5,-11.42,5.5,-20.75 c0,-3.0,-0.25,-6.0,-0.75,-9 c-0.5,-3.0,-0.92,-5.83,-1.25,-8.5 l-150.5,0 c-19.33,0,-31.83,2.92,-37.5,8.75 c-5.67,5.83,-8.5,15.42,-8.5,28.75 Z M26,267 l67,0 l0,37.5 c0,8.67,-0.42,16.83,-1.25,24.5 c-0.83,7.67,-2.42,14.67,-4.75,21 c4.33,1.0,8.5,1.83,12.5,2.5 c4.0,0.67,7.83,1,11.5,1 c9.67,0,17.92,-3.42,24.75,-10.25 c6.83,-6.83,10.25,-18.08,10.25,-33.75 l0,-42.5 l97,0 c10.0,0,17.0,-2.58,21,-7.75 c4.0,-5.17,6,-13.75,6,-25.75 c0,-3.33,-0.17,-6.75,-0.5,-10.25 c-0.33,-3.5,-0.83,-6.58,-1.5,-9.25 l-122,0 l0,-129 c0,-6.33,0.33,-11.92,1,-16.75 c0.67,-4.83,1.67,-9.25,3,-13.25 c5.0,-3.33,10.42,-5.75,16.25,-7.25 c5.83,-1.5,12.42,-2.25,19.75,-2.25 c16.67,0,30.75,1.67,42.25,5 c11.5,3.33,23.58,9.5,36.25,18.5 l3,0 c1.0,-5.0,1.5,-9.83,1.5,-14.5 c0,-9.0,-1.25,-17.0,-3.75,-24 c-2.5,-7.0,-6.58,-13.33,-12.25,-19 c-5.33,-5.33,-13.33,-9.75,-24,-13.25 c-10.67,-3.5,-23.83,-5.25,-39.5,-5.25 c-29.33,0,-52.75,7.58,-70.25,22.75 c-17.5,15.17,-26.25,35.75,-26.25,61.75 l0,136.5 l-0.5,0 c-26.33,0,-44.25,3.5,-53.75,10.5 c-9.5,7.0,-14.25,17.67,-14.25,32 c0,4.67,0.5,8.17,1.5,10.5 Z M26,267" fill="rgb(0,0,0)" transform="matrix(1.9845644983461963,0.0,0.0,-1.9845644983461963,194.87320837927234,751.5435501653803)"/>
</svg>