<?xml version="1.0" encoding="UTF-8"?>
<svg width="1000" height="1000" viewBox="0 0 1000 1000" version="1.1" xmlns="http://www.w3.org/2000/svg" xmlns:xlink="http://www.w3.org/1999/xlink">
 <path d="M270,0 l-219,0 c-8.33,0,-14.25,2.92,-17.75,8.75 c-3.5,5.83,-5.25,13.58,-5.25,23.25 c0,8.33,0.83,15.33,2.5,21 l104.5,0 l1,2.5 c-9.33,7.67,-14,20.83,-14,39.5 l0,202 l-45.5,0 c-32.33,0,-48.5,12.5,-48.5,37.5 c0,2.67,0.25,5.5,0.75,8.5 c0.5,3.0,0.92,5.33,1.25,7 l219.5,0 c9.33,0,15.42,-3.17,18.25,-9.5 c2.83,-6.33,4.25,-14.33,4.25,-24 c0,-5.67,-0.83,-12.17,-2.5,-19.5 l-104.5,0 l-1,-2.5 c9.33,-7.67,14,-20.83,14,-39.5 l0,-202 l46,0 c18.67,0,31.33,-3.58,38,-10.75 c6.67,-7.17,10,-16.25,10,-27.25 c0,-2.67,-0.17,-5.25,-0.5,-7.75 c-0.33,-2.5,-0.83,-4.92,-1.5,-7.25 Z M121.5,387 c0,5.0,2.0,9.42,6,13.25 c4.0,3.83,10.83,7.42,20.5,10.75 c9.33,3.33,15.92,6.08,19.75,8.25 c3.83,2.17,5.75,4.92,5.75,8.25 c0,0.67,0,1.5,0,2.5 c0,1.0,-0.33,1.83,-1,2.5 c-5.33,2.0,-12.17,3,-20.5,3 c-20.33,0,-37.67,-5.67,-52,-17 l-3,0 c-1.33,2.67,-2.33,5.33,-3,8 c-0.67,2.67,-1,6.0,-1,10 c0,10.33,3.5,18.5,10.5,24.5 c4.67,3.67,10.42,6.67,17.25,9 c6.83,2.33,16.08,3.5,27.75,3.5 c20.0,0,34.92,-3.92,44.75,-11.75 c9.83,-7.83,14.75,-17.92,14.75,-30.25 l0,-1 c0,-7.33,-1.92,-13.25,-5.75,-17.75 c-3.83,-4.5,-9.75,-9.08,-17.75,-13.75 c-8.67,-5.0,-14.33,-9.0,-17,-12 c-2.67,-3.0,-4.33,-6.67,-5,-11 c-2.0,-0.67,-4.75,-1.33,-8.25,-2 c-3.5,-0.67,-7.08,-1,-10.75,-1 c-7.67,0,-13.25,1.33,-16.75,4 c-3.5,2.67,-5.25,6.0,-5.25,10 Z M121.5,387" fill="rgb(0,0,0)" transform="matrix(1.9007391763463568,0.0,0.0,-1.9007391763463568,214.88912354804648,950.0)"/>
</svg>