<?xml version="1.0" encoding="UTF-8"?>
<svg width="1000" height="1000" viewBox="0 0 1000 1000" version="1.1" xmlns="http://www.w3.org/2000/svg" xmlns:xlink="http://www.w3.org/1999/xlink">
 <path d="M194,464.5 c17.0,0,30.83,-1.83,41.5,-5.5 c4.0,-1.33,6.5,-3.75,7.5,-7.25 c1.0,-3.5,0.67,-7.08,-1,-10.75 c-4.0,-10.67,-9.92,-20.17,-17.75,-28.5 c-7.83,-8.33,-17.25,-15.67,-28.25,-22 c-5.0,-2.67,-9.83,-4.5,-14.5,-5.5 c-4.67,-1.0,-10.17,-1.5,-16.5,-1.5 c-5.67,0,-11.0,0.5,-16,1.5 c-5.0,1.0,-10.33,2.83,-16,5.5 c15.67,11.33,28.67,22.92,39,34.75 c10.33,11.83,17.67,24.92,22,39.25 Z M218,-65.5 c0,-17.33,-6.25,-30.83,-18.75,-40.5 c-12.5,-9.67,-29.75,-14.5,-51.75,-14.5 c-16.33,0,-28.0,3.0,-35,9 c-7.0,6.0,-10.5,13.17,-10.5,21.5 c0,7.33,1.5,15.0,4.5,23 l3,0 c4.67,-4.33,9.58,-7.5,14.75,-9.5 c5.17,-2.0,12.08,-3,20.75,-3 c8.67,0,15.58,1.75,20.75,5.25 c5.17,3.5,7.75,8.58,7.75,15.25 c0,11.33,-8.5,17,-25.5,17 c-5.67,0,-8.5,2.5,-8.5,7.5 c0,3.33,0.33,7.42,1,12.25 c0.67,4.83,1.5,9.42,2.5,13.75 c-22.67,3.67,-42.08,11.92,-58.25,24.75 c-16.17,12.83,-28.58,29.17,-37.25,49 c-8.67,19.83,-13,41.75,-13,65.75 l0,13 c0,42.0,6.25,79.25,18.75,111.75 c12.5,32.5,29.92,58.0,52.25,76.5 c22.33,18.5,48.33,27.75,78,27.75 c12.67,0,23.58,-2.0,32.75,-6 c9.17,-4.0,17.25,-9.67,24.25,-17 c8.33,-8.0,14.17,-17.0,17.5,-27 c3.33,-10.0,5,-21.33,5,-34 l0,-68.5 c-5.67,-2.33,-12.67,-3.5,-21,-3.5 c-11.33,0,-20.0,2.0,-26,6 c-6.0,4.0,-9,10.67,-9,20 c0,15.67,0.33,29.08,1,40.25 c0.67,11.17,0.67,22.75,0,34.75 c-4.33,2.0,-8.33,3.42,-12,4.25 c-3.67,0.83,-7.33,1.25,-11,1.25 c-17.33,0,-33.17,-7.33,-47.5,-22 c-14.33,-14.67,-25.75,-34.75,-34.25,-60.25 c-8.5,-25.5,-12.75,-54.25,-12.75,-86.25 l0,-10 c0,-18.67,1.17,-35.17,3.5,-49.5 c8.67,-11.67,18.92,-21.17,30.75,-28.5 c11.83,-7.33,26.75,-11,44.75,-11 c39.67,0,71.33,15.83,95,47.5 l3,0 c1.0,-3.33,1.75,-7.08,2.25,-11.25 c0.5,-4.17,0.75,-8.08,0.75,-11.75 c0,-11.67,-1.75,-21.33,-5.25,-29 c-3.5,-7.67,-7.92,-14.33,-13.25,-20 c-8.67,-8.67,-19.25,-15.42,-31.75,-20.25 c-12.5,-4.83,-27.75,-7.58,-45.75,-8.25 c-0.33,-2.0,-0.58,-3.83,-0.75,-5.5 c-0.17,-1.67,-0.42,-3.17,-0.75,-4.5 l0,-3 c13.0,-1.0,23.75,-5.17,32.25,-12.5 c8.5,-7.33,12.75,-17.33,12.75,-30 Z M218,-65.5" fill="rgb(0,0,0)" transform="matrix(1.5384615384615385,0.0,0.0,-1.5384615384615385,265.38461538461536,764.6153846153846)"/>
</svg>