<?xml version="1.0" encoding="UTF-8"?>
<svg width="1000" height="1000" viewBox="0 0 1000 1000" version="1.1" xmlns="http://www.w3.org/2000/svg" xmlns:xlink="http://www.w3.org/1999/xlink">
 <path d="M98.5,-1 c-6.67,-1.33,-14.17,-2,-22.5,-2 c-13.0,0,-22.58,3.58,-28.75,10.75 c-6.17,7.17,-9.25,18.92,-9.25,35.25 l0,254 l-3,0 c-5.67,0,-9.92,2.75,-12.75,8.25 c-2.83,5.5,-4.25,14.42,-4.25,26.75 c0,6.0,0.5,12.0,1.5,18 l222.5,0 c7.0,0,12.5,-3.58,16.5,-10.75 c4.0,-7.17,6,-14.92,6,-23.25 l0,-5.5 c0,-12.33,-2.92,-24.17,-8.75,-35.5 c-5.83,-11.33,-14.25,-22.33,-25.25,-33 l-9.5,-9.5 c-12.33,-12.0,-20.42,-21.17,-24.25,-27.5 c-3.83,-6.33,-5.58,-13.67,-5.25,-22 c3.33,-2.33,6.92,-4.83,10.75,-7.5 c3.83,-2.67,7.92,-5.5,12.25,-8.5 l14,-9.5 c18.33,-12.0,31.42,-24.25,39.25,-36.75 c7.83,-12.5,11.75,-27.25,11.75,-44.25 l0,-5 c0,-23.67,-7.42,-42.42,-22.25,-56.25 c-14.83,-13.83,-35.25,-20.75,-61.25,-20.75 c-12.67,0,-23.25,1.5,-31.75,4.5 c-8.5,3.0,-15.08,6.83,-19.75,11.5 c-7.33,7.0,-11,18.67,-11,35 c0,9.33,1.0,16.67,3,22 l2,0 c9.0,-6.33,17.67,-10.83,26,-13.5 c8.33,-2.67,18.67,-4,31,-4 c8.33,0,15.58,1.17,21.75,3.5 c6.17,2.33,10.75,5.67,13.75,10 c1.0,6.0,1.5,11.83,1.5,17.5 c0,8.67,-2.58,16.25,-7.75,22.75 c-5.17,6.5,-14.75,14.08,-28.75,22.75 l-22,14 c-11.33,7.33,-19.33,14.67,-24,22 c-4.67,7.33,-7,15.67,-7,25 l0,5 c0,9.33,2.25,18.42,6.75,27.25 c4.5,8.83,11.92,18.92,22.25,30.25 l8,9 c6.67,6.67,12.75,13.08,18.25,19.25 c5.5,6.17,10.25,12.42,14.25,18.75 l-1,0 l-4,-6.5 l-4.5,6.5 l-122,0 l-1,-2.5 c9.33,-7.67,14,-20.83,14,-39.5 l0,-210.5 c0,-9.33,0.33,-17.5,1,-24.5 c0.67,-7.0,1.83,-14.0,3.5,-21 Z M217.5,306 l-4.5,-6.5 l1,-0.5 c1.33,2.33,2.5,4.67,3.5,7 Z M217.5,306" fill="rgb(0,0,0)" transform="matrix(2.5316455696202533,0.0,0.0,-2.5316455696202533,123.41772151898732,936.0759493670887)"/>
</svg>