<?xml version="1.0" encoding="UTF-8"?>
<svg width="1000" height="1000" viewBox="0 0 1000 1000" version="1.1" xmlns="http://www.w3.org/2000/svg" xmlns:xlink="http://www.w3.org/1999/xlink">
 <path d="M164,273.5 c22.33,0,41.17,-4.5,56.5,-13.5 c15.33,-9.0,27.08,-21.33,35.25,-37 c8.17,-15.67,12.25,-33.67,12.25,-54 l0,-2.5 c0,-17.0,-1.58,-29.33,-4.75,-37 c-3.17,-7.67,-7.58,-11.5,-13.25,-11.5 l-126,0 c-7.33,0,-14.17,1.0,-20.5,3 c-6.33,2.0,-11.33,4.67,-15,8 l-2.5,-1.5 c-0.33,-4.0,-0.5,-8.33,-0.5,-13 l0,-4.5 c0,-10.67,1.08,-20.33,3.25,-29 c2.17,-8.67,5.25,-16.33,9.25,-23 c9.0,-5.33,18.83,-9.25,29.5,-11.75 c10.67,-2.5,23.83,-3.75,39.5,-3.75 c17.67,0,33.75,2.17,48.25,6.5 c14.5,4.33,28.42,11.17,41.75,20.5 l3,0 c1.0,-4.33,1.5,-9.5,1.5,-15.5 c0,-8.67,-1.08,-15.83,-3.25,-21.5 c-2.17,-5.67,-5.58,-10.83,-10.25,-15.5 c-8.0,-8.0,-19.33,-13.92,-34,-17.75 c-14.67,-3.83,-30.83,-5.75,-48.5,-5.75 c-25.33,0,-48.08,5.0,-68.25,15 c-20.17,10.0,-36.0,24.42,-47.5,43.25 c-11.5,18.83,-17.25,41.58,-17.25,68.25 l0,5 c0,31.0,5.83,57.58,17.5,79.75 c11.67,22.17,27.42,39.17,47.25,51 c19.83,11.83,42.08,17.75,66.75,17.75 Z M167,227.5 c-20.0,0,-36.83,-6.25,-50.5,-18.75 c-13.67,-12.5,-23.0,-31.25,-28,-56.25 l125,0 c1.67,7.33,2.5,14.33,2.5,21 c0,10.67,-1.25,19.83,-3.75,27.5 c-2.5,7.67,-6.42,14.67,-11.75,21 c-5.0,2.0,-9.83,3.42,-14.5,4.25 c-4.67,0.83,-11.0,1.25,-19,1.25 Z M148.5,408 l12,0 c6.67,0,12.58,-0.75,17.75,-2.25 c5.17,-1.5,12.25,-5.58,21.25,-12.25 c11.33,-8.0,22.92,-18.08,34.75,-30.25 c11.83,-12.17,21.92,-26.58,30.25,-43.25 c-7.67,-5.0,-17.5,-7.5,-29.5,-7.5 c-5.67,0,-10.25,1.08,-13.75,3.25 c-3.5,2.17,-7.58,6.42,-12.25,12.75 c-5.67,7.0,-12.0,13.67,-19,20 c-7.0,6.33,-16.33,13.0,-28,20 l-1.5,0 c-14.67,-10.0,-26.58,-19.67,-35.75,-29 c-9.17,-9.33,-16.42,-18.5,-21.75,-27.5 l-3,0 c-11.67,0,-20.5,1.33,-26.5,4 c-6.0,2.67,-9,5.83,-9,9.5 c0,2.67,1.0,6.25,3,10.75 c2.0,4.5,5.33,9.92,10,16.25 c8.33,11.33,19.08,22.08,32.25,32.25 c13.17,10.17,26.08,17.92,38.75,23.25 Z M221.5,397 c0,5.0,2.0,9.42,6,13.25 c4.0,3.83,10.83,7.42,20.5,10.75 c9.33,3.33,15.92,6.08,19.75,8.25 c3.83,2.17,5.75,4.92,5.75,8.25 c0,0.67,0,1.5,0,2.5 c0,1.0,-0.33,1.83,-1,2.5 c-5.33,2.0,-12.17,3,-20.5,3 c-20.33,0,-37.67,-5.67,-52,-17 l-3,0 c-1.33,2.67,-2.33,5.33,-3,8 c-0.67,2.67,-1,6.0,-1,10 c0,10.33,3.5,18.5,10.5,24.5 c4.67,3.67,10.42,6.67,17.25,9 c6.83,2.33,16.08,3.5,27.75,3.5 c20.0,0,34.92,-3.92,44.75,-11.75 c9.83,-7.83,14.75,-17.92,14.75,-30.25 l0,-1 c0,-7.33,-1.92,-13.25,-5.75,-17.75 c-3.83,-4.5,-9.75,-9.08,-17.75,-13.75 c-8.67,-5.0,-14.33,-9.0,-17,-12 c-2.67,-3.0,-4.33,-6.67,-5,-11 c-2.0,-0.67,-4.75,-1.33,-8.25,-2 c-3.5,-0.67,-7.08,-1,-10.75,-1 c-7.67,0,-13.25,1.33,-16.75,4 c-3.5,2.67,-5.25,6.0,-5.25,10 Z M221.5,397" fill="rgb(0,0,0)" transform="matrix(1.836734693877551,0.0,0.0,-1.836734693877551,187.29591836734693,938.0612244897959)"/>
</svg>