<?xml version="1.0" encoding="UTF-8"?>
<svg width="1000" height="1000" viewBox="0 0 1000 1000" version="1.1" xmlns="http://www.w3.org/2000/svg" xmlns:xlink="http://www.w3.org/1999/xlink">
 <path d="M100,0 c-9.67,0,-18.67,2.5,-27,7.5 c-8.33,5.0,-14.92,11.25,-19.75,18.75 c-4.83,7.5,-7.25,14.92,-7.25,22.25 l0,248.5 l-8.5,0 c-6.67,0,-11.33,3.75,-14,11.25 c-2.67,7.5,-4,15.58,-4,24.25 c0,5.67,0.5,11.5,1.5,17.5 l221,0 c7.0,0,12.42,-1.92,16.25,-5.75 c3.83,-3.83,6.42,-8.42,7.75,-13.75 c1.33,-5.33,2,-10.0,2,-14 c0,-8.0,-1.0,-14.5,-3,-19.5 l-176,0 l-1,-2.5 c9.0,-7.67,13.5,-20.0,13.5,-37 l0,-68.5 l107,0 c9.67,0,16.67,-3.67,21,-11 c4.33,-7.33,6.5,-15.5,6.5,-24.5 c0,-2.33,0,-4.5,0,-6.5 c0,-2.0,-0.17,-3.83,-0.5,-5.5 l-134,0 l0,-88.5 l128,0 c11.0,0,20.17,-2.58,27.5,-7.75 c7.33,-5.17,11,-13.58,11,-25.25 c0,-3.33,-0.17,-6.83,-0.5,-10.5 c-0.33,-3.67,-0.83,-6.83,-1.5,-9.5 Z M50.5,445.5 l173,0 c9.67,0,16.33,-2.25,20,-6.75 c3.67,-4.5,5.5,-11.58,5.5,-21.25 c0,-3.0,-0.17,-5.92,-0.5,-8.75 c-0.33,-2.83,-0.83,-5.58,-1.5,-8.25 l-150.5,0 c-19.0,0,-31.42,2.92,-37.25,8.75 c-5.83,5.83,-8.75,15.42,-8.75,28.75 Z M119,548.5 c4.67,-15.0,12.0,-28.33,22,-40 c10.0,-11.67,23.0,-23.17,39,-34.5 c-5.67,-2.67,-11.0,-4.5,-16,-5.5 c-5.0,-1.0,-10.33,-1.5,-16,-1.5 c-5.67,0,-10.75,0.5,-15.25,1.5 c-4.5,1.0,-9.08,2.67,-13.75,5 c-11.0,6.0,-20.75,13.33,-29.25,22 c-8.5,8.67,-14.75,18.0,-18.75,28 c-3.67,9.33,-1.83,15.67,5.5,19 c5.67,2.67,11.92,4.42,18.75,5.25 c6.83,0.83,14.75,1.08,23.75,0.75 Z M119,548.5" fill="rgb(0,0,0)" transform="matrix(1.6404114004064765,0.0,0.0,-1.6404114004064765,264.19086119156896,950.0)"/>
</svg>