<?xml version="1.0" encoding="UTF-8"?>
<svg width="1000" height="1000" viewBox="0 0 1000 1000" version="1.1" xmlns="http://www.w3.org/2000/svg" xmlns:xlink="http://www.w3.org/1999/xlink">
 <path d="M206.5,473 c12.67,-0.33,22.67,-2.67,30,-7 c4.33,-3.0,5.5,-7.67,3.5,-14 c-5.67,-17.67,-15.83,-31.67,-30.5,-42 c-14.67,-10.33,-33.83,-15.5,-57.5,-15.5 l-4,0 c-23.33,0,-42.42,5.17,-57.25,15.5 c-14.83,10.33,-25.08,24.33,-30.75,42 c-2.0,6.33,-0.83,11.0,3.5,14 c7.33,4.33,17.33,6.67,30,7 c5.0,-11.33,11.83,-19.83,20.5,-25.5 c8.67,-5.67,20.67,-9.17,36,-10.5 c15.33,1.33,27.33,4.83,36,10.5 c8.67,5.67,15.5,14.17,20.5,25.5 Z M100,0 c-9.67,0,-18.67,2.5,-27,7.5 c-8.33,5.0,-14.92,11.25,-19.75,18.75 c-4.83,7.5,-7.25,14.92,-7.25,22.25 l0,248.5 l-8.5,0 c-6.67,0,-11.33,3.75,-14,11.25 c-2.67,7.5,-4,15.58,-4,24.25 c0,5.67,0.5,11.5,1.5,17.5 l221,0 c7.0,0,12.42,-1.92,16.25,-5.75 c3.83,-3.83,6.42,-8.42,7.75,-13.75 c1.33,-5.33,2,-10.0,2,-14 c0,-8.0,-1.0,-14.5,-3,-19.5 l-176,0 l-1,-2.5 c9.0,-7.67,13.5,-20.0,13.5,-37 l0,-68.5 l107,0 c9.67,0,16.67,-3.67,21,-11 c4.33,-7.33,6.5,-15.5,6.5,-24.5 c0,-2.33,0,-4.5,0,-6.5 c0,-2.0,-0.17,-3.83,-0.5,-5.5 l-134,0 l0,-88.5 l128,0 c11.0,0,20.17,-2.58,27.5,-7.75 c7.33,-5.17,11,-13.58,11,-25.25 c0,-3.33,-0.17,-6.83,-0.5,-10.5 c-0.33,-3.67,-0.83,-6.83,-1.5,-9.5 l-91,0 c-0.67,-3.33,-1.17,-6.67,-1.5,-10 c-0.33,-3.33,-0.67,-6.0,-1,-8 l0,-3 c13.0,-1.0,23.75,-5.17,32.25,-12.5 c8.5,-7.33,12.75,-17.33,12.75,-30 c0,-17.33,-6.25,-30.83,-18.75,-40.5 c-12.5,-9.67,-29.75,-14.5,-51.75,-14.5 c-16.33,0,-28.0,3.0,-35,9 c-7.0,6.0,-10.5,13.17,-10.5,21.5 c0,7.33,1.5,15.0,4.5,23 l3,0 c4.67,-4.33,9.58,-7.5,14.75,-9.5 c5.17,-2.0,12.08,-3,20.75,-3 c8.67,0,15.58,1.75,20.75,5.25 c5.17,3.5,7.75,8.58,7.75,15.25 c0,11.33,-8.5,17,-25.5,17 c-5.67,0,-8.5,2.5,-8.5,7.5 c0,4.0,0.5,9.17,1.5,15.5 c1.0,6.33,2.33,12.0,4,17 Z M100,0" fill="rgb(0,0,0)" transform="matrix(1.521555367709214,0.0,0.0,-1.521555367709214,281.27641589180047,769.6956889264582)"/>
</svg>