<?xml version="1.0" encoding="UTF-8"?>
<svg width="1000" height="1000" viewBox="0 0 1000 1000" version="1.1" xmlns="http://www.w3.org/2000/svg" xmlns:xlink="http://www.w3.org/1999/xlink">
 <path d="M87,0 c-4.0,-1.0,-8.0,-1.83,-12,-2.5 c-4.0,-0.67,-8.17,-1,-12.5,-1 c-9.0,0,-16.67,1.75,-23,5.25 c-6.33,3.5,-9.5,9.75,-9.5,18.75 c0,24.33,1.0,48.0,3,71 c-6.0,2.0,-10.0,6.42,-12,13.25 c-2.0,6.83,-3,15.75,-3,26.75 l0,9 l21,0 c6.33,43.33,16.25,82.92,29.75,118.75 c13.5,35.83,29.58,66.58,48.25,92.25 c4.33,1.0,8.83,1.83,13.5,2.5 c4.67,0.67,9.33,1,14,1 c13.33,0,24.08,-1.83,32.25,-5.5 c8.17,-3.67,15.25,-9.58,21.25,-17.75 c6.0,-8.17,11.83,-19.08,17.5,-32.75 c9.0,-19.33,17.33,-42.08,25,-68.25 c7.67,-26.17,14.0,-54.67,19,-85.5 c5.0,-30.83,8.0,-63.08,9,-96.75 c0.67,-8.33,1.08,-16.42,1.25,-24.25 c0.17,-7.83,0.42,-15.92,0.75,-24.25 c-6.0,-2.33,-13.33,-3.5,-22,-3.5 c-11.33,0,-20.0,2.33,-26,7 c-6.0,4.67,-9.17,13.33,-9.5,26 c-0.67,21.0,-1.83,41.33,-3.5,61 l-119,0 c-2.33,-27.33,-3.5,-57.5,-3.5,-90.5 Z M160.5,140.5 c8.67,0,16.42,-0.83,23.25,-2.5 c6.83,-1.67,12.75,-4.5,17.75,-8.5 l3.5,1.5 c-4.33,32.67,-10.67,64.17,-19,94.5 c-8.33,30.33,-19.0,58.67,-32,85 l-4.5,0 c-13.33,-24.67,-24.42,-50.67,-33.25,-78 c-8.83,-27.33,-15.58,-58.0,-20.25,-92 Z M131,469.5 l19.5,0 c7.67,0,14.58,-0.83,20.75,-2.5 c6.17,-1.67,13.92,-5.33,23.25,-11 c11.67,-7.33,23.08,-16.33,34.25,-27 c11.17,-10.67,21.08,-23.33,29.75,-38 c-8.67,-3.67,-19.0,-5.5,-31,-5.5 c-6.33,0,-11.42,0.92,-15.25,2.75 c-3.83,1.83,-7.58,4.92,-11.25,9.25 c-6.33,6.67,-13.08,12.83,-20.25,18.5 c-7.17,5.67,-16.92,11.67,-29.25,18 l-2.5,0 c-15.0,-8.67,-27.25,-17.17,-36.75,-25.5 c-9.5,-8.33,-17.08,-16.33,-22.75,-24 l-3,0 c-14.33,0,-24.33,1.25,-30,3.75 c-5.67,2.5,-8.5,5.42,-8.5,8.75 c0,2.0,1.0,5.08,3,9.25 c2.0,4.17,5.5,8.92,10.5,14.25 c8.67,9.67,19.08,18.92,31.25,27.75 c12.17,8.83,24.92,15.92,38.25,21.25 Z M190,521 c6.67,0,12.08,1.58,16.25,4.75 c4.17,3.17,8.25,9.42,12.25,18.75 l3,0 c3.33,-6.67,5,-14.33,5,-23 c0,-11.67,-1.67,-20.67,-5,-27 c-5.33,-11.33,-14.83,-17,-28.5,-17 c-9.0,0,-17.08,1.75,-24.25,5.25 c-7.17,3.5,-14.0,7.42,-20.5,11.75 c-6.5,4.33,-13.0,8.25,-19.5,11.75 c-6.5,3.5,-13.42,5.25,-20.75,5.25 c-7.33,0,-13.08,-2.0,-17.25,-6 c-4.17,-4.0,-8.25,-9.83,-12.25,-17.5 l-3,0 c-3.33,4.67,-5,11.83,-5,21.5 c0,10.33,1.83,19.33,5.5,27 c5.33,12.0,16.0,18,32,18 c8.0,0,15.42,-1.67,22.25,-5 c6.83,-3.33,13.33,-7.25,19.5,-11.75 c6.17,-4.5,12.58,-8.42,19.25,-11.75 c6.67,-3.33,13.67,-5,21,-5 Z M190,521" fill="rgb(0,0,0)" transform="matrix(1.6129032258064515,0.0,0.0,-1.6129032258064515,267.3387096774194,944.3548387096774)"/>
</svg>