<?xml version="1.0" encoding="UTF-8"?>
<svg width="1000" height="1000" viewBox="0 0 1000 1000" version="1.1" xmlns="http://www.w3.org/2000/svg" xmlns:xlink="http://www.w3.org/1999/xlink">
 <path d="M107.5,-43.5 c4.67,1.0,9.5,1.67,14.5,2 c5.0,0.33,9.67,0.5,14,0.5 c12.33,0,22.42,-1.67,30.25,-5 c7.83,-3.33,11.75,-10.0,11.75,-20 l0,-34.5 c-4.33,-1.0,-9.0,-1.67,-14,-2 c-5.0,-0.33,-9.83,-0.5,-14.5,-0.5 c-12.0,0,-22.0,1.67,-30,5 c-8.0,3.33,-12,10.0,-12,20 Z M272,194.5 c0,-40.0,-6.08,-75.0,-18.25,-105 c-12.17,-30.0,-29.33,-53.25,-51.5,-69.75 c-22.17,-16.5,-48.42,-24.75,-78.75,-24.75 c-15.0,0,-28.42,2.17,-40.25,6.5 c-11.83,4.33,-21.25,10.0,-28.25,17 c-8.0,8.0,-12,17.33,-12,28 l0,251.5 c-3.67,-0.67,-6.33,-1,-8,-1 c-12.33,0,-18.5,11.67,-18.5,35 c0,7.0,0.67,13.0,2,18 c22.67,3.67,44.42,6.25,65.25,7.75 c20.83,1.5,41.08,2.25,60.75,2.25 c40.67,0,72.08,-12.58,94.25,-37.75 c22.17,-25.17,33.25,-63.42,33.25,-114.75 Z M99,52 c5.67,-1.67,12.17,-2.5,19.5,-2.5 c31.0,0,55.08,12.83,72.25,38.5 c17.17,25.67,25.75,60.5,25.75,104.5 l0,6.5 c0,21.67,-1.0,39.83,-3,54.5 c-2.0,14.67,-5.67,27.0,-11,37 c-8.33,5.67,-17.33,9.83,-27,12.5 c-9.67,2.67,-21.5,4,-35.5,4 c-10.0,0,-19.58,-0.33,-28.75,-1 c-9.17,-0.67,-17.58,-1.33,-25.25,-2 l-1,-3 c9.33,-8.0,14,-20.17,14,-36.5 Z M99,52" fill="rgb(0,0,0)" transform="matrix(1.9438444924406046,0.0,0.0,-1.9438444924406046,219.6004319654428,749.7840172786177)"/>
</svg>