<?xml version="1.0" encoding="UTF-8"?>
<svg width="1000" height="1000" viewBox="0 0 1000 1000" version="1.1" xmlns="http://www.w3.org/2000/svg" xmlns:xlink="http://www.w3.org/1999/xlink">
 <path d="M151,360 c40.0,0,70.08,-15.25,90.25,-45.75 c20.17,-30.5,30.25,-74.25,30.25,-131.25 l0,-11 c0,-57.33,-10.67,-102.0,-32,-134 c-21.33,-32.0,-50.83,-48,-88.5,-48 c-40.67,0,-71.25,14.5,-91.75,43.5 c-20.5,29.0,-30.75,70.67,-30.75,125 l0,11 c0,60.0,10.83,106.75,32.5,140.25 c21.67,33.5,51.67,50.25,90,50.25 Z M81.5,152.5 c0,-25.0,2.42,-45.83,7.25,-62.5 c4.83,-16.67,10.42,-29.33,16.75,-38 c13.0,-6.0,26.5,-9,40.5,-9 c24.33,0,42.5,12.0,54.5,36 c12.0,24.0,18,57.67,18,101 l0,9 c0,27.33,-2.33,49.83,-7,67.5 c-4.67,17.67,-10.83,31.67,-18.5,42 c-6.33,3.33,-12.5,5.58,-18.5,6.75 c-6.0,1.17,-12.83,1.75,-20.5,1.75 c-24.33,0,-42.5,-12.83,-54.5,-38.5 c-12.0,-25.67,-18,-61.5,-18,-107.5 Z M50.5,445.5 l173,0 c9.67,0,16.33,-2.25,20,-6.75 c3.67,-4.5,5.5,-11.58,5.5,-21.25 c0,-3.0,-0.17,-5.92,-0.5,-8.75 c-0.33,-2.83,-0.83,-5.58,-1.5,-8.25 l-150.5,0 c-19.0,0,-31.42,2.92,-37.25,8.75 c-5.83,5.83,-8.75,15.42,-8.75,28.75 Z M181,546 c17.0,0,30.83,-1.83,41.5,-5.5 c4.0,-1.33,6.5,-3.75,7.5,-7.25 c1.0,-3.5,0.67,-7.08,-1,-10.75 c-4.0,-10.67,-9.92,-20.17,-17.75,-28.5 c-7.83,-8.33,-17.25,-15.67,-28.25,-22 c-5.0,-2.67,-9.83,-4.5,-14.5,-5.5 c-4.67,-1.0,-10.17,-1.5,-16.5,-1.5 c-5.67,0,-11.0,0.5,-16,1.5 c-5.0,1.0,-10.33,2.83,-16,5.5 c15.67,11.33,28.67,22.92,39,34.75 c10.33,11.83,17.67,24.92,22,39.25 Z M181,546" fill="rgb(0,0,0)" transform="matrix(1.618705035971223,0.0,0.0,-1.618705035971223,257.19424460431657,933.8129496402878)"/>
</svg>