<?xml version="1.0" encoding="UTF-8"?>
<svg width="1000" height="1000" viewBox="0 0 1000 1000" version="1.1" xmlns="http://www.w3.org/2000/svg" xmlns:xlink="http://www.w3.org/1999/xlink">
 <path d="M113.5,-43.5 c4.33,1.0,9.0,1.67,14,2 c5.0,0.33,9.83,0.5,14.5,0.5 c12.0,0,21.92,-1.67,29.75,-5 c7.83,-3.33,11.75,-10.0,11.75,-20 l0,-34.5 c-4.33,-1.0,-9.0,-1.67,-14,-2 c-5.0,-0.33,-9.83,-0.5,-14.5,-0.5 c-12.0,0,-21.92,1.67,-29.75,5 c-7.83,3.33,-11.75,10.0,-11.75,20 Z M271.5,0 l-213.5,0 c-12.0,0,-20.17,4.0,-24.5,12 c-4.33,8.0,-6.5,18.67,-6.5,32 l0,6.5 c28.33,23.67,53.83,47.42,76.5,71.25 c22.67,23.83,43.33,49.25,62,76.25 c11.0,15.67,20.83,31.83,29.5,48.5 c8.67,16.67,16.17,33.83,22.5,51.5 l-1,4.5 c-9.0,-1.33,-17.58,-2.33,-25.75,-3 c-8.17,-0.67,-17.25,-1,-27.25,-1 l-72,0 c-0.67,-5.33,-1.25,-11.08,-1.75,-17.25 c-0.5,-6.17,-0.75,-12.75,-0.75,-19.75 c-2.33,-0.67,-5.25,-1.17,-8.75,-1.5 c-3.5,-0.33,-7.08,-0.5,-10.75,-0.5 c-11.33,0,-19.67,1.58,-25,4.75 c-5.33,3.17,-8,8.92,-8,17.25 c0,16.67,1.92,33.33,5.75,50 c3.83,16.67,8.92,32.17,15.25,46.5 c16.0,0,27.5,-1.67,34.5,-5 c7.0,-3.33,10.33,-8.0,10,-14 c0,-2.67,-0.17,-5.67,-0.5,-9 l137.5,0 c22.67,0,34,-18.0,34,-54 l0,-3.5 c0,-8.67,-3.92,-21.0,-11.75,-37 c-7.83,-16.0,-18.25,-33.67,-31.25,-53 c-13.0,-19.33,-27.67,-38.5,-44,-57.5 c-14.33,-18.0,-28.83,-34.5,-43.5,-49.5 c-14.67,-15.0,-30.17,-29.17,-46.5,-42.5 l0.5,-3 c14.33,1.33,26.67,2.17,37,2.5 c10.33,0.33,20.33,0.5,30,0.5 l79,0 c11.67,0,19.67,-3.75,24,-11.25 c4.33,-7.5,6.5,-17.08,6.5,-28.75 c0,-5.0,-0.5,-9.33,-1.5,-13 Z M271.5,0" fill="rgb(0,0,0)" transform="matrix(1.8711018711018712,0.0,0.0,-1.8711018711018712,219.33471933471932,757.2765072765072)"/>
</svg>