<?xml version="1.0" encoding="UTF-8"?>
<svg width="1000" height="1000" viewBox="0 0 1000 1000" version="1.1" xmlns="http://www.w3.org/2000/svg" xmlns:xlink="http://www.w3.org/1999/xlink">
 <path d="M46.5,269.5 c12.67,0,22.42,-1.92,29.25,-5.75 c6.83,-3.83,10.75,-11.58,11.75,-23.25 c4.67,-53.33,14.42,-96.92,29.25,-130.75 c14.83,-33.83,33.75,-57.08,56.75,-69.75 l3.5,0 c9.67,23.0,17.83,52.75,24.5,89.25 c6.67,36.5,11.0,82.42,13,137.75 c8.0,2.0,14.83,3,20.5,3 c12.0,0,21.33,-2.33,28,-7 c6.67,-4.67,9.5,-13.0,8.5,-25 c-4.67,-53.0,-11.67,-98.25,-21,-135.75 c-9.33,-37.5,-20.58,-69.0,-33.75,-94.5 c-13.17,-25.5,-28.25,-46.75,-45.25,-63.75 c-14.0,-14.0,-28.33,-24.83,-43,-32.5 c-14.67,-7.67,-29.5,-11.5,-44.5,-11.5 c-9.33,0,-17.0,3.0,-23,9 c-7.67,7.67,-11.5,21.33,-11.5,41 l0,1.5 l10.5,0 c14.67,0,29.0,2.92,43,8.75 c14.0,5.83,27.33,14.92,40,27.25 c6.33,6.33,12.17,13.5,17.5,21.5 c-25.33,2.33,-46.5,13.5,-63.5,33.5 c-7.0,8.33,-14.08,18.33,-21.25,30 c-7.17,11.67,-13.92,26.0,-20.25,43 c-6.33,17.0,-12.0,37.92,-17,62.75 c-5.0,24.83,-9.17,54.42,-12.5,88.75 c3.67,1.0,7.08,1.67,10.25,2 c3.17,0.33,6.58,0.5,10.25,0.5 Z M125,308.5 c0,9.67,8.0,18.0,24,25 c10.0,4.67,17.17,8.58,21.5,11.75 c4.33,3.17,6.5,6.75,6.5,10.75 c0,2.67,-0.17,4.5,-0.5,5.5 c-5.33,2.0,-12.17,3,-20.5,3 c-11.33,0,-21.17,-1.5,-29.5,-4.5 c-8.33,-3.0,-16.33,-7.83,-24,-14.5 l-3,0 c-1.33,3.0,-2.25,5.92,-2.75,8.75 c-0.5,2.83,-0.75,6.42,-0.75,10.75 c0,11.67,3.5,20.5,10.5,26.5 c4.67,4.67,10.58,8.17,17.75,10.5 c7.17,2.33,16.58,3.5,28.25,3.5 c21.0,0,36.17,-4.33,45.5,-13 c9.33,-8.67,14,-19.5,14,-32.5 l0,-1 c0,-9.0,-1.92,-16.08,-5.75,-21.25 c-3.83,-5.17,-9.42,-10.25,-16.75,-15.25 c-8.33,-5.67,-14.08,-10.17,-17.25,-13.5 c-3.17,-3.33,-5.08,-7.33,-5.75,-12 c-2.0,-0.67,-4.75,-1.42,-8.25,-2.25 c-3.5,-0.83,-7.08,-1.25,-10.75,-1.25 c-8.0,0,-13.75,1.42,-17.25,4.25 c-3.5,2.83,-5.25,6.42,-5.25,10.75 Z M125,308.5" fill="rgb(0,0,0)" transform="matrix(1.7804154302670623,0.0,0.0,-1.7804154302670623,234.98903103909117,771.9584569732938)"/>
</svg>