<?xml version="1.0" encoding="UTF-8"?>
<svg width="1000" height="1000" viewBox="0 0 1000 1000" version="1.1" xmlns="http://www.w3.org/2000/svg" xmlns:xlink="http://www.w3.org/1999/xlink">
 <path d="M152,-64.5 c15.67,1.0,28.08,4.67,37.25,11 c9.17,6.33,15.92,16.67,20.25,31 c4.67,-0.33,9.33,-1.17,14,-2.5 c4.67,-1.33,8.83,-3.33,12.5,-6 c4.33,-3.0,5.17,-8.33,2.5,-16 c-6.67,-18.33,-17.08,-32.58,-31.25,-42.75 c-14.17,-10.17,-31.92,-15.25,-53.25,-15.25 l-4,0 c-21.33,0,-39.08,5.08,-53.25,15.25 c-14.17,10.17,-24.58,24.42,-31.25,42.75 c-2.67,7.67,-1.83,13.0,2.5,16 c3.67,2.67,7.83,4.67,12.5,6 c4.67,1.33,9.5,2.17,14.5,2.5 c4.33,-14.33,11.08,-24.67,20.25,-31 c9.17,-6.33,21.42,-10.0,36.75,-11 Z M79.5,-2 c-14.33,0,-24.5,2.92,-30.5,8.75 c-6.0,5.83,-9,12.92,-9,21.25 l0,300 c0,9.67,-0.58,18.33,-1.75,26 c-1.17,7.67,-3.25,14.67,-6.25,21 c6.0,1.67,11.5,2.5,16.5,2.5 c11.67,0,22.0,-4.83,31,-14.5 c9.0,-9.67,13.5,-26.83,13.5,-51.5 l0,-129 l3.5,0 c7.33,17.33,16.42,32.75,27.25,46.25 c10.83,13.5,22.83,24.17,36,32 c13.17,7.83,26.58,11.75,40.25,11.75 c11.33,0,21.33,-3.83,30,-11.5 c8.67,-7.67,15.5,-17.42,20.5,-29.25 c5.0,-11.83,7.5,-24.08,7.5,-36.75 l0,-123 c0,-14.33,0.67,-26.67,2,-37 c1.33,-10.33,3.67,-22.0,7,-35 c-5.67,-1.33,-12.17,-2,-19.5,-2 c-14.67,0,-26.25,4.5,-34.75,13.5 c-8.5,9.0,-12.75,26.67,-12.75,53 c0,20.67,1.0,40.58,3,59.75 c2.0,19.17,5.0,41.25,9,66.25 c-6.0,16.33,-15.33,24.5,-28,24.5 c-16.33,0,-32.5,-8.67,-48.5,-26 c-16.0,-17.33,-30.17,-43.33,-42.5,-78 l0,-112 c-2.67,-0.33,-5.0,-0.58,-7,-0.75 c-2.0,-0.17,-4.17,-0.25,-6.5,-0.25 Z M79.5,-2" fill="rgb(0,0,0)" transform="matrix(1.8652849740932642,0.0,0.0,-1.8652849740932642,221.139896373057,754.1450777202073)"/>
</svg>