<?xml version="1.0" encoding="UTF-8"?>
<svg width="1000" height="1000" viewBox="0 0 1000 1000" version="1.1" xmlns="http://www.w3.org/2000/svg" xmlns:xlink="http://www.w3.org/1999/xlink">
 <path d="M117,-43.5 c4.33,1.0,9.08,1.67,14.25,2 c5.17,0.33,9.92,0.5,14.25,0.5 c12.0,0,21.92,-1.67,29.75,-5 c7.83,-3.33,11.75,-10.0,11.75,-20 l0,-34.5 c-4.33,-1.0,-9.0,-1.67,-14,-2 c-5.0,-0.33,-9.83,-0.5,-14.5,-0.5 c-11.67,0,-21.5,1.67,-29.5,5 c-8.0,3.33,-12,10.0,-12,20 Z M18,178 l23,0 l0,118 c0,9.67,-0.42,19.08,-1.25,28.25 c-0.83,9.17,-2.25,17.92,-4.25,26.25 c8.0,2.0,15.5,3,22.5,3 c13.67,0,23.33,-3.75,29,-11.25 c5.67,-7.5,8.5,-17.58,8.5,-30.25 l0,-134 l70.5,0 c17.67,0,31.33,-3.83,41,-11.5 l2.5,1 l0,183.5 c3.33,0.67,6.58,1.25,9.75,1.75 c3.17,0.5,6.58,0.75,10.25,0.75 c11.0,0,19.58,-2.33,25.75,-7 c6.17,-4.67,9.25,-13.83,9.25,-27.5 l0,-264.5 c0,-9.33,0.42,-18.58,1.25,-27.75 c0.83,-9.17,2.08,-18.25,3.75,-27.25 c-7.33,-2.0,-14.83,-3,-22.5,-3 c-11.33,0,-20.42,3.83,-27.25,11.5 c-6.83,7.67,-10.25,19.33,-10.25,35 l0,85 l-114,0 l0,-129 c-3.33,-0.67,-6.5,-1.25,-9.5,-1.75 c-3.0,-0.5,-6.33,-0.75,-10,-0.75 c-11.33,0,-20.0,2.83,-26,8.5 c-6.0,5.67,-9,16.5,-9,32.5 l0,90.5 l-1,0 c-8.67,0,-14.5,3.58,-17.5,10.75 c-3.0,7.17,-4.5,17.25,-4.5,30.25 Z M18,178" fill="rgb(0,0,0)" transform="matrix(1.9715224534501643,0.0,0.0,-1.9715224534501643,216.59364731653886,746.9331872946331)"/>
</svg>