<?xml version="1.0" encoding="UTF-8"?>
<svg width="1000" height="1000" viewBox="0 0 1000 1000" version="1.1" xmlns="http://www.w3.org/2000/svg" xmlns:xlink="http://www.w3.org/1999/xlink">
 <path d="M134.5,272.5 c14.67,0,27.92,-3.67,39.75,-11 c11.83,-7.33,20.92,-16.0,27.25,-26 l3,0 l0,93.5 c0,10.0,-0.58,18.75,-1.75,26.25 c-1.17,7.5,-3.25,14.42,-6.25,20.75 c6.0,1.67,11.33,2.5,16,2.5 c8.0,0,15.42,-2.0,22.25,-6 c6.83,-4.0,12.33,-10.75,16.5,-20.25 c4.17,-9.5,6.25,-22.58,6.25,-39.25 l0,-260.5 c0,-10.67,0.5,-19.92,1.5,-27.75 c1.0,-7.83,3.0,-16.08,6,-24.75 c-3.33,-0.67,-6.5,-1.33,-9.5,-2 c-3.0,-0.67,-6.17,-1,-9.5,-1 c-14.33,0,-24.83,6.0,-31.5,18 c-6.67,12.0,-10,26.5,-10,43.5 l0,16.5 l-3,0 c-6.33,-15.0,-14.5,-28.58,-24.5,-40.75 c-10.0,-12.17,-21.08,-21.83,-33.25,-29 c-12.17,-7.17,-24.75,-10.75,-37.75,-10.75 c-14.33,0,-27.5,4.5,-39.5,13.5 c-12.0,9.0,-21.5,21.33,-28.5,37 c-7.0,15.67,-10.5,33.33,-10.5,53 l0,9.5 c0,38.67,4.92,70.17,14.75,94.5 c9.83,24.33,22.83,42.17,39,53.5 c16.17,11.33,33.92,17,53.25,17 Z M86,63 c6.33,-8.33,14.5,-12.5,24.5,-12.5 c18.67,0,35.83,6.67,51.5,20 c15.67,13.33,29.83,36.67,42.5,70 l0,57 c-8.33,8.33,-16.83,14.33,-25.5,18 c-8.67,3.67,-18.83,5.5,-30.5,5.5 c-22.33,0,-39.0,-9.08,-50,-27.25 c-11.0,-18.17,-16.5,-44.75,-16.5,-79.75 l0,-5 c0,-9.33,0.33,-17.67,1,-25 c0.67,-7.33,1.67,-14.33,3,-21 Z M103.5,-43.5 c4.33,1.0,9.0,1.67,14,2 c5.0,0.33,9.83,0.5,14.5,0.5 c12.0,0,21.92,-1.67,29.75,-5 c7.83,-3.33,11.75,-10.0,11.75,-20 l0,-34.5 c-4.33,-1.0,-9.0,-1.67,-14,-2 c-5.0,-0.33,-9.83,-0.5,-14.5,-0.5 c-11.67,0,-21.5,1.67,-29.5,5 c-8.0,3.33,-12,10.0,-12,20 Z M103.5,-43.5" fill="rgb(0,0,0)" transform="matrix(1.8691588785046729,0.0,0.0,-1.8691588785046729,226.63551401869157,757.4766355140187)"/>
</svg>