<?xml version="1.0" encoding="UTF-8"?>
<svg width="1000" height="1000" viewBox="0 0 1000 1000" version="1.1" xmlns="http://www.w3.org/2000/svg" xmlns:xlink="http://www.w3.org/1999/xlink">
 <path d="M114,-43.5 c4.67,1.0,9.5,1.67,14.5,2 c5.0,0.33,9.67,0.5,14,0.5 c12.33,0,22.42,-1.67,30.25,-5 c7.83,-3.33,11.75,-10.0,11.75,-20 l0,-34.5 c-4.33,-1.0,-9.0,-1.67,-14,-2 c-5.0,-0.33,-9.83,-0.5,-14.5,-0.5 c-12.0,0,-22.0,1.67,-30,5 c-8.0,3.33,-12,10.0,-12,20 Z M104.5,-0.5 c-5.67,-1.67,-12.33,-2.5,-20,-2.5 c-27.67,0,-41.5,13.5,-41.5,40.5 l0,260.5 c-4.67,-0.67,-8.0,-1,-10,-1 c-12.0,0,-18,11.67,-18,35 c0,7.0,0.67,13.0,2,18 c21.67,3.67,42.83,6.25,63.5,7.75 c20.67,1.5,40.33,2.25,59,2.25 c29.33,0,53.33,-4.83,72,-14.5 c18.67,-9.67,32.5,-22.42,41.5,-38.25 c9.0,-15.83,13.5,-33.08,13.5,-51.75 l0,-8.5 c0,-30.67,-6.75,-57.33,-20.25,-80 c-13.5,-22.67,-30.25,-40.0,-50.25,-52 c4.0,-7.0,8.17,-14.0,12.5,-21 c4.33,-7.0,9.0,-14.0,14,-21 c5.67,-8.67,11.42,-14.92,17.25,-18.75 c5.83,-3.83,11.92,-5.75,18.25,-5.75 c4.0,0,7.42,0.67,10.25,2 c2.83,1.33,5.58,3.17,8.25,5.5 l3,0 c2.0,-8.33,3,-16.33,3,-24 c0,-16.0,-3.17,-27.17,-9.5,-33.5 c-5.67,-5.67,-13.67,-8.5,-24,-8.5 c-11.67,0,-22.33,3.0,-32,9 c-9.67,6.0,-18.83,15.83,-27.5,29.5 c-7.33,12.0,-14.17,23.75,-20.5,35.25 c-6.33,11.5,-12.17,23.08,-17.5,34.75 c-6.67,-1.0,-13.17,-1.5,-19.5,-1.5 c-13.67,0,-23.67,3.33,-30,10 l-3,-0.5 l0,-62 c0,-9.33,0.33,-17.42,1,-24.25 c0.67,-6.83,2.17,-13.75,4.5,-20.75 Z M99,263.5 l0,-119 c4.67,-0.67,11.17,-1,19.5,-1 c27.0,0,49.25,8.92,66.75,26.75 c17.5,17.83,26.25,42.92,26.25,75.25 l0,7 c0,8.67,-0.75,16.33,-2.25,23 c-1.5,6.67,-3.75,12.67,-6.75,18 c-8.67,5.0,-17.83,8.5,-27.5,10.5 c-9.67,2.0,-21.33,3,-35,3 c-10.0,0,-19.5,-0.33,-28.5,-1 c-9.0,-0.67,-17.5,-1.33,-25.5,-2 l-1,-3 c9.33,-7.0,14,-19.5,14,-37.5 Z M99,263.5" fill="rgb(0,0,0)" transform="matrix(1.9438444924406046,0.0,0.0,-1.9438444924406046,210.85313174946003,749.7840172786177)"/>
</svg>