<?xml version="1.0" encoding="UTF-8"?>
<svg width="1000" height="1000" viewBox="0 0 1000 1000" version="1.1" xmlns="http://www.w3.org/2000/svg" xmlns:xlink="http://www.w3.org/1999/xlink">
 <path d="M127,531 c4.67,1.67,10.08,3.0,16.25,4 c6.17,1.0,12.42,1.5,18.75,1.5 c12.33,0,22.25,-2.17,29.75,-6.5 c7.5,-4.33,11.25,-11.33,11.25,-21 l0,-32 c-9.0,-3.67,-19.33,-5.5,-31,-5.5 c-13.33,0,-24.17,2.92,-32.5,8.75 c-8.33,5.83,-12.5,13.75,-12.5,23.75 Z M186,360 c12.67,0,23.17,-2.0,31.5,-6 c8.33,-4.0,16.0,-9.5,23,-16.5 c7.33,-7.33,12.17,-15.67,14.5,-25 c2.33,-9.33,3.5,-19.33,3.5,-30 l0,-60 c-5.33,-2.33,-11.5,-3.5,-18.5,-3.5 c-11.0,0,-19.5,2.33,-25.5,7 c-6.0,4.67,-9,12.33,-9,23 c0,14.33,0.33,25.42,1,33.25 c0.67,7.83,0.83,15.08,0.5,21.75 c-3.0,1.33,-6.08,2.17,-9.25,2.5 c-3.17,0.33,-6.42,0.5,-9.75,0.5 c-10.33,0,-21.0,-2.58,-32,-7.75 c-11.0,-5.17,-21.17,-12.0,-30.5,-20.5 c-9.33,-8.5,-16.92,-17.83,-22.75,-28 c-5.83,-10.17,-8.75,-20.25,-8.75,-30.25 l0,-2.5 c0.33,-5.33,1.83,-10.33,4.5,-15 c2.67,-4.67,7.83,-9.25,15.5,-13.75 c7.67,-4.5,18.83,-9.42,33.5,-14.75 l45,-16 c29.67,-10.67,50.08,-22.75,61.25,-36.25 c11.17,-13.5,16.75,-27.08,16.75,-40.75 l0,-5.5 c0,-25.67,-10.17,-46.08,-30.5,-61.25 c-20.33,-15.17,-49.83,-22.75,-88.5,-22.75 c-23.33,0,-44.42,2.75,-63.25,8.25 c-18.83,5.5,-32.75,12.58,-41.75,21.25 c-9.33,9.33,-14,23.5,-14,42.5 c0,10.67,1.0,19.17,3,25.5 l3,0 c13.0,-14.33,28.58,-25.33,46.75,-33 c18.17,-7.67,40.25,-11.5,66.25,-11.5 c17.33,0,32.17,2.33,44.5,7 c12.33,4.67,21.33,11.5,27,20.5 l0,2 c-2.0,17.67,-17.5,32.0,-46.5,43 l-45,16.5 c-24.0,9.0,-42.58,17.75,-55.75,26.25 c-13.17,8.5,-22.25,17.25,-27.25,26.25 c-5.0,9.0,-7.5,18.67,-7.5,29 l0,6 c0,16.33,4.0,32.67,12,49 c8.0,16.33,18.92,31.25,32.75,44.75 c13.83,13.5,29.42,24.33,46.75,32.5 c17.33,8.17,35.17,12.25,53.5,12.25 Z M184.5,390.5 l-19.5,0 c-7.67,0,-14.58,0.75,-20.75,2.25 c-6.17,1.5,-13.92,5.25,-23.25,11.25 c-11.33,7.67,-22.67,16.75,-34,27.25 c-11.33,10.5,-21.33,23.08,-30,37.75 c8.67,3.67,19.0,5.5,31,5.5 c6.67,0,11.83,-0.92,15.5,-2.75 c3.67,-1.83,7.33,-4.92,11,-9.25 c6.0,-6.67,12.67,-12.83,20,-18.5 c7.33,-5.67,16.83,-11.67,28.5,-18 l4,0 c14.67,8.67,26.83,17.17,36.5,25.5 c9.67,8.33,17.17,16.17,22.5,23.5 l3,0 c14.33,0,24.33,-1.08,30,-3.25 c5.67,-2.17,8.5,-5.08,8.5,-8.75 c0,-2.0,-1.0,-5.0,-3,-9 c-2.0,-4.0,-5.5,-8.83,-10.5,-14.5 c-8.67,-9.67,-19.0,-18.83,-31,-27.5 c-12.0,-8.67,-24.83,-15.83,-38.5,-21.5 Z M184.5,390.5" fill="rgb(0,0,0)" transform="matrix(1.6528925619834711,0.0,0.0,-1.6528925619834711,249.58677685950414,936.7768595041323)"/>
</svg>