<?xml version="1.0" encoding="UTF-8"?>
<svg width="1000" height="1000" viewBox="0 0 1000 1000" version="1.1" xmlns="http://www.w3.org/2000/svg" xmlns:xlink="http://www.w3.org/1999/xlink">
 <path d="M100,0 c-9.67,0,-18.67,2.5,-27,7.5 c-8.33,5.0,-14.92,11.25,-19.75,18.75 c-4.83,7.5,-7.25,14.92,-7.25,22.25 l0,248.5 l-8.5,0 c-6.67,0,-11.33,3.75,-14,11.25 c-2.67,7.5,-4,15.58,-4,24.25 c0,5.67,0.5,11.5,1.5,17.5 l221,0 c7.0,0,12.42,-1.92,16.25,-5.75 c3.83,-3.83,6.42,-8.42,7.75,-13.75 c1.33,-5.33,2,-10.0,2,-14 c0,-8.0,-1.0,-14.5,-3,-19.5 l-176,0 l-1,-2.5 c9.0,-7.67,13.5,-20.0,13.5,-37 l0,-68.5 l107,0 c9.67,0,16.67,-3.67,21,-11 c4.33,-7.33,6.5,-15.5,6.5,-24.5 c0,-2.33,0,-4.5,0,-6.5 c0,-2.0,-0.17,-3.83,-0.5,-5.5 l-134,0 l0,-88.5 l128,0 c11.0,0,20.17,-2.58,27.5,-7.75 c7.33,-5.17,11,-13.58,11,-25.25 c0,-3.33,-0.17,-6.83,-0.5,-10.5 c-0.33,-3.67,-0.83,-6.83,-1.5,-9.5 Z M131,470 l19.5,0 c7.67,0,14.58,-0.83,20.75,-2.5 c6.17,-1.67,13.92,-5.33,23.25,-11 c11.67,-7.33,23.08,-16.33,34.25,-27 c11.17,-10.67,21.08,-23.33,29.75,-38 c-8.67,-3.67,-19.0,-5.5,-31,-5.5 c-6.33,0,-11.42,0.92,-15.25,2.75 c-3.83,1.83,-7.58,4.92,-11.25,9.25 c-6.33,6.67,-13.08,12.83,-20.25,18.5 c-7.17,5.67,-16.92,11.67,-29.25,18 l-2.5,0 c-15.0,-8.67,-27.25,-17.17,-36.75,-25.5 c-9.5,-8.33,-17.08,-16.33,-22.75,-24 l-3,0 c-14.33,0,-24.33,1.25,-30,3.75 c-5.67,2.5,-8.5,5.42,-8.5,8.75 c0,2.0,1.0,5.08,3,9.25 c2.0,4.17,5.5,8.92,10.5,14.25 c8.67,9.67,19.08,18.92,31.25,27.75 c12.17,8.83,24.92,15.92,38.25,21.25 Z M260.5,539.5 c13.33,0,24.17,-1.17,32.5,-3.5 c10.33,-2.67,12.67,-10.67,7,-24 c-3.33,-9.0,-7.67,-17.0,-13,-24 c-5.33,-7.0,-11.5,-13.33,-18.5,-19 c-8.33,-7.0,-17.5,-10.5,-27.5,-10.5 c-9.0,0,-18.67,2.33,-29,7 c24.33,19.67,40.5,44.33,48.5,74 Z M260.5,539.5" fill="rgb(0,0,0)" transform="matrix(1.6682113067655235,0.0,0.0,-1.6682113067655235,230.99221723663993,950.0)"/>
</svg>