<?xml version="1.0" encoding="UTF-8"?>
<svg width="1000" height="1000" viewBox="0 0 1000 1000" version="1.1" xmlns="http://www.w3.org/2000/svg" xmlns:xlink="http://www.w3.org/1999/xlink">
 <path d="M164,273.5 c22.33,0,41.17,-4.5,56.5,-13.5 c15.33,-9.0,27.08,-21.33,35.25,-37 c8.17,-15.67,12.25,-33.67,12.25,-54 l0,-2.5 c0,-17.0,-1.58,-29.33,-4.75,-37 c-3.17,-7.67,-7.58,-11.5,-13.25,-11.5 l-126,0 c-7.33,0,-14.17,1.0,-20.5,3 c-6.33,2.0,-11.33,4.67,-15,8 l-2.5,-1.5 c-0.33,-4.0,-0.5,-8.33,-0.5,-13 l0,-4.5 c0,-10.67,1.08,-20.33,3.25,-29 c2.17,-8.67,5.25,-16.33,9.25,-23 c9.0,-5.33,18.83,-9.25,29.5,-11.75 c10.67,-2.5,23.83,-3.75,39.5,-3.75 c17.67,0,33.75,2.17,48.25,6.5 c14.5,4.33,28.42,11.17,41.75,20.5 l3,0 c1.0,-4.33,1.5,-9.5,1.5,-15.5 c0,-8.67,-1.08,-15.83,-3.25,-21.5 c-2.17,-5.67,-5.58,-10.83,-10.25,-15.5 c-8.0,-8.0,-19.33,-13.92,-34,-17.75 c-14.67,-3.83,-30.83,-5.75,-48.5,-5.75 c-25.33,0,-48.08,5.0,-68.25,15 c-20.17,10.0,-36.0,24.42,-47.5,43.25 c-11.5,18.83,-17.25,41.58,-17.25,68.25 l0,5 c0,31.0,5.83,57.58,17.5,79.75 c11.67,22.17,27.42,39.17,47.25,51 c19.83,11.83,42.08,17.75,66.75,17.75 Z M167,227.5 c-20.0,0,-36.83,-6.25,-50.5,-18.75 c-13.67,-12.5,-23.0,-31.25,-28,-56.25 l125,0 c1.67,7.33,2.5,14.33,2.5,21 c0,10.67,-1.25,19.83,-3.75,27.5 c-2.5,7.67,-6.42,14.67,-11.75,21 c-5.0,2.0,-9.83,3.42,-14.5,4.25 c-4.67,0.83,-11.0,1.25,-19,1.25 Z M115,-43.5 c4.33,1.0,9.0,1.67,14,2 c5.0,0.33,9.83,0.5,14.5,0.5 c12.0,0,21.92,-1.67,29.75,-5 c7.83,-3.33,11.75,-10.0,11.75,-20 l0,-34.5 c-4.33,-1.0,-9.0,-1.67,-14,-2 c-5.0,-0.33,-9.83,-0.5,-14.5,-0.5 c-11.67,0,-21.5,1.67,-29.5,5 c-8.0,3.33,-12,10.0,-12,20 Z M115,-43.5" fill="rgb(0,0,0)" transform="matrix(2.3904382470119523,0.0,0.0,-2.3904382470119523,140.8366533864542,703.784860557769)"/>
</svg>