<?xml version="1.0" encoding="UTF-8"?>
<svg width="1000" height="1000" viewBox="0 0 1000 1000" version="1.1" xmlns="http://www.w3.org/2000/svg" xmlns:xlink="http://www.w3.org/1999/xlink">
 <path d="M151,360 c40.0,0,70.08,-15.25,90.25,-45.75 c20.17,-30.5,30.25,-74.25,30.25,-131.25 l0,-11 c0,-57.33,-10.67,-102.0,-32,-134 c-21.33,-32.0,-50.83,-48,-88.5,-48 c-40.67,0,-71.25,14.5,-91.75,43.5 c-20.5,29.0,-30.75,70.67,-30.75,125 l0,11 c0,60.0,10.83,106.75,32.5,140.25 c21.67,33.5,51.67,50.25,90,50.25 Z M81.5,152.5 c0,-25.0,2.42,-45.83,7.25,-62.5 c4.83,-16.67,10.42,-29.33,16.75,-38 c13.0,-6.0,26.5,-9,40.5,-9 c24.33,0,42.5,12.0,54.5,36 c12.0,24.0,18,57.67,18,101 l0,9 c0,27.33,-2.33,49.83,-7,67.5 c-4.67,17.67,-10.83,31.67,-18.5,42 c-6.33,3.33,-12.5,5.58,-18.5,6.75 c-6.0,1.17,-12.83,1.75,-20.5,1.75 c-24.33,0,-42.5,-12.83,-54.5,-38.5 c-12.0,-25.67,-18,-61.5,-18,-107.5 Z M50.5,445.5 l173,0 c9.67,0,16.33,-2.25,20,-6.75 c3.67,-4.5,5.5,-11.58,5.5,-21.25 c0,-3.0,-0.17,-5.92,-0.5,-8.75 c-0.33,-2.83,-0.83,-5.58,-1.5,-8.25 l-150.5,0 c-19.0,0,-31.42,2.92,-37.25,8.75 c-5.83,5.83,-8.75,15.42,-8.75,28.75 Z M119,548.5 c4.67,-15.0,12.0,-28.33,22,-40 c10.0,-11.67,23.0,-23.17,39,-34.5 c-5.67,-2.67,-11.0,-4.5,-16,-5.5 c-5.0,-1.0,-10.33,-1.5,-16,-1.5 c-5.67,0,-10.75,0.5,-15.25,1.5 c-4.5,1.0,-9.08,2.67,-13.75,5 c-11.0,6.0,-20.75,13.33,-29.25,22 c-8.5,8.67,-14.75,18.0,-18.75,28 c-3.67,9.33,-1.83,15.67,5.5,19 c5.67,2.67,11.92,4.42,18.75,5.25 c6.83,0.83,14.75,1.08,23.75,0.75 Z M119,548.5" fill="rgb(0,0,0)" transform="matrix(1.6110471764635492,0.0,0.0,-1.6110471764635492,258.3429235304676,933.8895282353645)"/>
</svg>