<?xml version="1.0" encoding="UTF-8"?>
<svg width="1000" height="1000" viewBox="0 0 1000 1000" version="1.1" xmlns="http://www.w3.org/2000/svg" xmlns:xlink="http://www.w3.org/1999/xlink">
 <path d="M72.5,-1 c-2.33,-0.33,-5.08,-0.75,-8.25,-1.25 c-3.17,-0.5,-6.58,-0.75,-10.25,-0.75 c-10.33,0,-18.25,1.42,-23.75,4.25 c-5.5,2.83,-8.25,8.92,-8.25,18.25 l0,200 c0,10.67,-0.42,19.42,-1.25,26.25 c-0.83,6.83,-2.42,14.25,-4.75,22.25 c2.67,0.67,5.33,1.17,8,1.5 c2.67,0.33,5.17,0.5,7.5,0.5 c10.67,0,20.17,-4.33,28.5,-13 c8.33,-8.67,12.5,-21.33,12.5,-38 l2,0 c13.67,35.33,31.5,53,53.5,53 c8.33,0,15.33,-2.92,21,-8.75 c5.67,-5.83,10.0,-12.75,13,-20.75 c3.0,-8.0,4.83,-15.33,5.5,-22 l3,0 c7.67,15.0,16.92,27.42,27.75,37.25 c10.83,9.83,21.75,14.75,32.75,14.75 c8.67,0,16.58,-3.08,23.75,-9.25 c7.17,-6.17,12.83,-13.67,17,-22.5 c4.17,-8.83,6.25,-17.42,6.25,-25.75 l0,-143 c0,-14.33,0.5,-26.67,1.5,-37 c1.0,-10.33,3.17,-22.0,6.5,-35 c-5.33,-1.33,-11.83,-2,-19.5,-2 c-9.67,0,-17.58,1.67,-23.75,5 c-6.17,3.33,-10.75,9.67,-13.75,19 c-3.0,9.33,-4.5,22.83,-4.5,40.5 c0,21.33,0.58,43.33,1.75,66 c1.17,22.67,3.25,48.33,6.25,77 c-3.0,8.33,-8.33,12.5,-16,12.5 c-9.33,0,-18.17,-4.17,-26.5,-12.5 c-8.33,-8.33,-15.83,-19.67,-22.5,-34 c0.33,-57.0,0.33,-114.17,0,-171.5 c-2.33,-1.0,-5.0,-1.5,-8,-1.5 c-9.67,0,-17.08,3.83,-22.25,11.5 c-5.17,7.67,-7.75,21.83,-7.75,42.5 c0,22.33,0.58,45.17,1.75,68.5 c1.17,23.33,3.08,51.33,5.75,84 c-3.33,8.67,-9.17,13,-17.5,13 c-8.33,0,-16.25,-3.83,-23.75,-11.5 c-7.5,-7.67,-15.25,-20.83,-23.25,-39.5 Z M122.5,-43.5 c4.33,1.0,9.0,1.67,14,2 c5.0,0.33,9.83,0.5,14.5,0.5 c12.0,0,21.92,-1.67,29.75,-5 c7.83,-3.33,11.75,-10.0,11.75,-20 l0,-34.5 c-4.33,-1.0,-9.0,-1.67,-14,-2 c-5.0,-0.33,-9.83,-0.5,-14.5,-0.5 c-11.67,0,-21.5,1.67,-29.5,5 c-8.0,3.33,-12,10.0,-12,20 Z M122.5,-43.5" fill="rgb(0,0,0)" transform="matrix(2.396804260985353,0.0,0.0,-2.396804260985353,138.08255659121176,703.1291611185086)"/>
</svg>