<?xml version="1.0" encoding="UTF-8"?>
<svg width="1000" height="1000" viewBox="0 0 1000 1000" version="1.1" xmlns="http://www.w3.org/2000/svg" xmlns:xlink="http://www.w3.org/1999/xlink">
 <path d="M114.5,-43.5 c4.67,1.0,9.5,1.67,14.5,2 c5.0,0.33,9.67,0.5,14,0.5 c12.33,0,22.42,-1.67,30.25,-5 c7.83,-3.33,11.75,-10.0,11.75,-20 l0,-34.5 c-4.33,-1.0,-9.0,-1.67,-14,-2 c-5.0,-0.33,-9.83,-0.5,-14.5,-0.5 c-12.0,0,-22.0,1.67,-30,5 c-8.0,3.33,-12,10.0,-12,20 Z M75.5,0 c-8.0,0,-14.58,2.83,-19.75,8.5 c-5.17,5.67,-9.08,12.92,-11.75,21.75 c-2.67,8.83,-4,17.58,-4,26.25 l0,240.5 c0,11.0,-0.33,20.58,-1,28.75 c-0.67,8.17,-2.0,16.42,-4,24.75 c7.33,2.33,16.0,3.5,26,3.5 c14.0,0,23.33,-3.17,28,-9.5 c4.67,-6.33,7,-16.0,7,-29 l0,-262.5 l124,0 c1.33,7.67,2.42,15.92,3.25,24.75 c0.83,8.83,1.25,18.58,1.25,29.25 c2.33,0.67,5.08,1.17,8.25,1.5 c3.17,0.33,6.58,0.5,10.25,0.5 c10.67,0,18.5,-1.67,23.5,-5 c5.0,-3.33,7.5,-9.33,7.5,-18 c0,-18.0,-2.5,-36.0,-7.5,-54 c-5.0,-18.0,-11.0,-34.83,-18,-50.5 c-13.33,0,-22.92,1.42,-28.75,4.25 c-5.83,2.83,-8.75,6.92,-8.75,12.25 c0,0.67,0,1.33,0,2 Z M75.5,0" fill="rgb(0,0,0)" transform="matrix(1.9693654266958425,0.0,0.0,-1.9693654266958425,195.7330415754923,747.1553610503282)"/>
</svg>