<?xml version="1.0" encoding="UTF-8"?>
<svg width="1000" height="1000" viewBox="0 0 1000 1000" version="1.1" xmlns="http://www.w3.org/2000/svg" xmlns:xlink="http://www.w3.org/1999/xlink">
 <path d="M33,53 l113.5,0 l1,2.5 c-8.33,9.67,-12.5,25.0,-12.5,46 l0,127 l-2,2 c-20.67,-6.0,-37.17,-10.58,-49.5,-13.75 c-12.33,-3.17,-21.33,-4.75,-27,-4.75 c-6.33,0,-11.67,2.75,-16,8.25 c-4.33,5.5,-6.5,13.92,-6.5,25.25 c0,8.0,1.17,15.17,3.5,21.5 c15.67,1.67,32.58,2.92,50.75,3.75 c18.17,0.83,33.75,1.25,46.75,1.25 c18.33,0,31.75,-2.42,40.25,-7.25 c8.5,-4.83,12.75,-14.58,12.75,-29.25 l0,-182.5 c31.0,-0.67,54.42,-4.67,70.25,-12 c15.83,-7.33,23.75,-16.33,23.75,-27 c0,-2.67,-0.25,-5.08,-0.75,-7.25 c-0.5,-2.17,-1.08,-4.42,-1.75,-6.75 l-211.5,0 c-15.0,0,-24.92,2.75,-29.75,8.25 c-4.83,5.5,-7.25,14.92,-7.25,28.25 c0,6.67,0.67,12.17,2,16.5 Z M78.5,381 c3.67,0.67,7.75,1.08,12.25,1.25 c4.5,0.17,8.58,0.25,12.25,0.25 c9.67,0,18.25,-1.33,25.75,-4 c7.5,-2.67,11.25,-8.33,11.25,-17 l0,-42 c-4.0,-0.67,-8.17,-1.08,-12.5,-1.25 c-4.33,-0.17,-8.5,-0.25,-12.5,-0.25 c-9.33,0,-17.75,1.5,-25.25,4.5 c-7.5,3.0,-11.25,8.83,-11.25,17.5 Z M184,381 c8.0,1.0,16.17,1.5,24.5,1.5 c9.67,0,18.25,-1.33,25.75,-4 c7.5,-2.67,11.25,-8.33,11.25,-17 l0,-42 c-3.67,-0.67,-7.75,-1.08,-12.25,-1.25 c-4.5,-0.17,-8.75,-0.25,-12.75,-0.25 c-9.33,0,-17.75,1.5,-25.25,4.5 c-7.5,3.0,-11.25,8.83,-11.25,17.5 Z M193,482.5 c17.0,0,30.83,-1.83,41.5,-5.5 c4.0,-1.33,6.5,-3.75,7.5,-7.25 c1.0,-3.5,0.67,-7.08,-1,-10.75 c-4.0,-10.67,-9.92,-20.17,-17.75,-28.5 c-7.83,-8.33,-17.25,-15.67,-28.25,-22 c-5.0,-2.67,-9.83,-4.5,-14.5,-5.5 c-4.67,-1.0,-10.17,-1.5,-16.5,-1.5 c-5.67,0,-11.0,0.5,-16,1.5 c-5.0,1.0,-10.33,2.83,-16,5.5 c15.67,11.33,28.67,22.92,39,34.75 c10.33,11.83,17.67,24.92,22,39.25 Z M193,482.5" fill="rgb(0,0,0)" transform="matrix(1.8652849740932642,0.0,0.0,-1.8652849740932642,208.08290155440415,950.0)"/>
</svg>