<?xml version="1.0" encoding="UTF-8"?>
<svg width="1000" height="1000" viewBox="0 0 1000 1000" version="1.1" xmlns="http://www.w3.org/2000/svg" xmlns:xlink="http://www.w3.org/1999/xlink">
 <path d="M195,407 c17.0,0,30.0,-2.17,39,-6.5 c4.0,-2.0,6.58,-4.92,7.75,-8.75 c1.17,-3.83,1.08,-7.75,-0.25,-11.75 c-3.33,-12.33,-9.17,-23.5,-17.5,-33.5 c-8.33,-10.0,-17.67,-18.17,-28,-24.5 c-9.67,-6.0,-20.83,-9,-33.5,-9 c-4.67,0,-9.25,0.58,-13.75,1.75 c-4.5,1.17,-8.58,3.08,-12.25,5.75 c15.67,13.67,28.25,27.08,37.75,40.25 c9.5,13.17,16.42,28.58,20.75,46.25 Z M175,272.5 c17.33,0,32.08,-1.83,44.25,-5.5 c12.17,-3.67,21.42,-8.83,27.75,-15.5 c4.0,-4.0,6.83,-8.5,8.5,-13.5 c1.67,-5.0,2.5,-11.83,2.5,-20.5 c0,-6.33,-0.5,-11.83,-1.5,-16.5 c-1.0,-4.67,-2.33,-9.5,-4,-14.5 l-3,0 c-12.0,11.67,-23.67,19.92,-35,24.75 c-11.33,4.83,-25.83,7.25,-43.5,7.25 c-17.33,0,-32.42,-4.33,-45.25,-13 c-12.83,-8.67,-22.75,-20.58,-29.75,-35.75 c-7.0,-15.17,-10.5,-32.58,-10.5,-52.25 l0,-6 c0,-9.67,1.17,-19.08,3.5,-28.25 c2.33,-9.17,6.5,-17.75,12.5,-25.75 c18.33,-7.67,39.0,-11.5,62,-11.5 c20.67,0,38.17,2.58,52.5,7.75 c14.33,5.17,27.67,13.08,40,23.75 l3,0 c0.67,-2.33,1.08,-4.92,1.25,-7.75 c0.17,-2.83,0.25,-6.42,0.25,-10.75 c0,-8.33,-1.08,-15.92,-3.25,-22.75 c-2.17,-6.83,-5.75,-12.75,-10.75,-17.75 c-6.33,-6.33,-15.42,-11.67,-27.25,-16 c-11.83,-4.33,-26.42,-6.83,-43.75,-7.5 c-0.33,-2.67,-0.67,-5.08,-1,-7.25 c-0.33,-2.17,-0.67,-4.08,-1,-5.75 l0,-2.5 c13.33,-1.0,23.83,-5.25,31.5,-12.75 c7.67,-7.5,11.5,-17.42,11.5,-29.75 c0,-17.33,-6.08,-30.83,-18.25,-40.5 c-12.17,-9.67,-29.42,-14.5,-51.75,-14.5 c-15.33,0,-26.33,2.92,-33,8.75 c-6.67,5.83,-10,12.92,-10,21.25 c0,7.67,1.5,15.17,4.5,22.5 l3,0 c4.67,-4.0,9.42,-6.92,14.25,-8.75 c4.83,-1.83,11.25,-2.75,19.25,-2.75 c18.33,0,27.5,6.83,27.5,20.5 c0,11.33,-7.67,17,-23,17 c-6.0,0,-9,2.5,-9,7.5 c0,3.33,0.33,7.58,1,12.75 c0.67,5.17,1.67,10.25,3,15.25 c-21.0,2.67,-40.0,9.58,-57,20.75 c-17.0,11.17,-30.42,25.33,-40.25,42.5 c-9.83,17.17,-14.75,36.25,-14.75,57.25 l0,6.5 c0,31.0,6.17,57.67,18.5,80 c12.33,22.33,29.25,39.5,50.75,51.5 c21.5,12.0,46.08,18,73.75,18 Z M175,272.5" fill="rgb(0,0,0)" transform="matrix(1.7142857142857142,0.0,0.0,-1.7142857142857142,249.28571428571433,747.7142857142858)"/>
</svg>