<?xml version="1.0" encoding="UTF-8"?>
<svg width="1000" height="1000" viewBox="0 0 1000 1000" version="1.1" xmlns="http://www.w3.org/2000/svg" xmlns:xlink="http://www.w3.org/1999/xlink">
 <path d="M270,0 l-219,0 c-8.33,0,-14.25,2.92,-17.75,8.75 c-3.5,5.83,-5.25,13.58,-5.25,23.25 c0,8.33,0.83,15.33,2.5,21 l104.5,0 l1,2.5 c-9.33,7.67,-14,20.83,-14,39.5 l0,202 l-45.5,0 c-32.33,0,-48.5,12.5,-48.5,37.5 c0,2.67,0.25,5.5,0.75,8.5 c0.5,3.0,0.92,5.33,1.25,7 l219.5,0 c9.33,0,15.42,-3.17,18.25,-9.5 c2.83,-6.33,4.25,-14.33,4.25,-24 c0,-5.67,-0.83,-12.17,-2.5,-19.5 l-104.5,0 l-1,-2.5 c9.33,-7.67,14,-20.83,14,-39.5 l0,-202 l46,0 c18.67,0,31.33,-3.58,38,-10.75 c6.67,-7.17,10,-16.25,10,-27.25 c0,-2.67,-0.17,-5.25,-0.5,-7.75 c-0.33,-2.5,-0.83,-4.92,-1.5,-7.25 Z M66.5,457.5 c3.67,0.67,7.75,1.08,12.25,1.25 c4.5,0.17,8.58,0.25,12.25,0.25 c9.67,0,18.25,-1.42,25.75,-4.25 c7.5,-2.83,11.25,-8.58,11.25,-17.25 l0,-39 c-4.0,-0.67,-8.17,-1.17,-12.5,-1.5 c-4.33,-0.33,-8.5,-0.5,-12.5,-0.5 c-9.33,0,-17.75,1.58,-25.25,4.75 c-7.5,3.17,-11.25,8.92,-11.25,17.25 Z M172,457.5 c8.0,1.0,16.17,1.5,24.5,1.5 c9.67,0,18.25,-1.42,25.75,-4.25 c7.5,-2.83,11.25,-8.58,11.25,-17.25 l0,-39 c-3.67,-0.67,-7.75,-1.17,-12.25,-1.5 c-4.5,-0.33,-8.75,-0.5,-12.75,-0.5 c-9.33,0,-17.75,1.58,-25.25,4.75 c-7.5,3.17,-11.25,8.92,-11.25,17.25 Z M181,555.5 c17.0,0,30.83,-1.83,41.5,-5.5 c4.0,-1.33,6.5,-3.75,7.5,-7.25 c1.0,-3.5,0.67,-7.08,-1,-10.75 c-4.0,-10.67,-9.92,-20.17,-17.75,-28.5 c-7.83,-8.33,-17.25,-15.67,-28.25,-22 c-5.0,-2.67,-9.83,-4.5,-14.5,-5.5 c-4.67,-1.0,-10.17,-1.5,-16.5,-1.5 c-5.67,0,-11.0,0.5,-16,1.5 c-5.0,1.0,-10.33,2.83,-16,5.5 c15.67,11.33,28.67,22.92,39,34.75 c10.33,11.83,17.67,24.92,22,39.25 Z M181,555.5" fill="rgb(0,0,0)" transform="matrix(1.6201620162016201,0.0,0.0,-1.6201620162016201,256.97569756975696,950.0)"/>
</svg>