<?xml version="1.0" encoding="UTF-8"?>
<svg width="1000" height="1000" viewBox="0 0 1000 1000" version="1.1" xmlns="http://www.w3.org/2000/svg" xmlns:xlink="http://www.w3.org/1999/xlink">
 <path d="M108,-7 c-13.67,0,-26.17,4.33,-37.5,13 c-11.33,8.67,-20.33,19.92,-27,33.75 c-6.67,13.83,-10,28.58,-10,44.25 l0,206.5 c0,24.33,-2.67,44.67,-8,61 c8.0,2.33,15.83,3.5,23.5,3.5 c14.67,0,25.75,-5.42,33.25,-16.25 c7.5,-10.83,11.25,-30.75,11.25,-59.75 c0,-21.67,-0.5,-42.67,-1.5,-63 c-1.0,-20.33,-2.42,-41.33,-4.25,-63 c-1.83,-21.67,-4.42,-45.5,-7.75,-71.5 c5.33,-20.0,17.5,-30,36.5,-30 c16.67,0,32.33,3.42,47,10.25 c14.67,6.83,30.17,21.25,46.5,43.25 c-0.33,8.0,-0.5,16.67,-0.5,26 l0,219.5 c2.67,1.33,5.67,2.25,9,2.75 c3.33,0.5,6.67,0.75,10,0.75 c12.33,0,21.42,-2.75,27.25,-8.25 c5.83,-5.5,8.75,-14.58,8.75,-27.25 l0,-268 c0,-9.33,0.58,-18.25,1.75,-26.75 c1.17,-8.5,2.92,-16.92,5.25,-25.25 c-5.0,-2.0,-10.83,-3,-17.5,-3 c-7.33,0,-13.83,1.42,-19.5,4.25 c-5.67,2.83,-10.42,9.17,-14.25,19 c-3.83,9.83,-6.75,25.58,-8.75,47.25 l-1,0 c-14.33,-27.0,-30.33,-45.92,-48,-56.75 c-17.67,-10.83,-35.83,-16.25,-54.5,-16.25 Z M122,387 c0,5.0,2.0,9.42,6,13.25 c4.0,3.83,10.83,7.42,20.5,10.75 c9.33,3.33,15.92,6.08,19.75,8.25 c3.83,2.17,5.75,4.92,5.75,8.25 c0,0.67,0,1.5,0,2.5 c0,1.0,-0.33,1.83,-1,2.5 c-5.33,2.0,-12.17,3,-20.5,3 c-20.33,0,-37.67,-5.67,-52,-17 l-3,0 c-1.33,2.67,-2.33,5.33,-3,8 c-0.67,2.67,-1,6.0,-1,10 c0,10.33,3.5,18.5,10.5,24.5 c4.67,3.67,10.42,6.67,17.25,9 c6.83,2.33,16.08,3.5,27.75,3.5 c20.0,0,34.92,-3.92,44.75,-11.75 c9.83,-7.83,14.75,-17.92,14.75,-30.25 l0,-1 c0,-7.33,-1.92,-13.25,-5.75,-17.75 c-3.83,-4.5,-9.75,-9.08,-17.75,-13.75 c-8.67,-5.0,-14.33,-9.0,-17,-12 c-2.67,-3.0,-4.33,-6.67,-5,-11 c-2.0,-0.67,-4.75,-1.33,-8.25,-2 c-3.5,-0.67,-7.08,-1,-10.75,-1 c-7.67,0,-13.25,1.33,-16.75,4 c-3.5,2.67,-5.25,6.0,-5.25,10 Z M122,387" fill="rgb(0,0,0)" transform="matrix(1.8730489073881373,0.0,0.0,-1.8730489073881373,221.85223725286158,936.888657648283)"/>
</svg>