<?xml version="1.0" encoding="UTF-8"?>
<svg width="1000" height="1000" viewBox="0 0 1000 1000" version="1.1" xmlns="http://www.w3.org/2000/svg" xmlns:xlink="http://www.w3.org/1999/xlink">
 <path d="M151,394 c25.67,0,44.75,-9.67,57.25,-29 c12.5,-19.33,18.75,-45.0,18.75,-77 l0,-22 c0,-16.0,-2.92,-30.92,-8.75,-44.75 c-5.83,-13.83,-14.42,-24.92,-25.75,-33.25 c-11.33,-8.33,-25.33,-12.5,-42,-12.5 c-25.33,0,-44.5,8.83,-57.5,26.5 c-13.0,17.67,-19.5,39.83,-19.5,66.5 l0,22 c0,19.67,2.92,37.25,8.75,52.75 c5.83,15.5,14.5,27.83,26,37 c11.5,9.17,25.75,13.75,42.75,13.75 Z M154,354.5 c-13.33,0,-23.83,-5.5,-31.5,-16.5 c-7.67,-11.0,-11.5,-27.5,-11.5,-49.5 l0,-20.5 l0,-2 l4,0 c2.67,4.67,6.25,9.67,10.75,15 c4.5,5.33,9.25,10.5,14.25,15.5 c5.33,5.0,11.58,10.83,18.75,17.5 c7.17,6.67,15.42,14.17,24.75,22.5 c-2.0,5.33,-4.17,9.83,-6.5,13.5 c-6.0,3.0,-13.67,4.5,-23,4.5 Z M124.5,218.5 c3.33,-1.33,6.67,-2.25,10,-2.75 c3.33,-0.5,7.33,-0.75,12,-0.75 c11.67,0,21.75,4.25,30.25,12.75 c8.5,8.5,12.75,23.92,12.75,46.25 l0,18.5 c0,4.0,-0.17,7.83,-0.5,11.5 l-3,0 c-3.0,-6.67,-7.08,-13.25,-12.25,-19.75 c-5.17,-6.5,-10.25,-11.92,-15.25,-16.25 c-13.0,-11.67,-27.33,-21.83,-43,-30.5 c2.33,-8.33,5.33,-14.67,9,-19 Z M124.5,218.5" fill="rgb(0,0,0)" transform="matrix(4.118993135011442,0.0,0.0,-4.118993135011442,-118.87871853546909,1672.883295194508)"/>
</svg>