<?xml version="1.0" encoding="UTF-8"?>
<svg width="1000" height="1000" viewBox="0 0 1000 1000" version="1.1" xmlns="http://www.w3.org/2000/svg" xmlns:xlink="http://www.w3.org/1999/xlink">
 <path d="M10.5,191 l34.5,0 l0,106 c0,9.67,-0.33,19.08,-1,28.25 c-0.67,9.17,-2.0,17.92,-4,26.25 c4.0,1.0,7.83,1.75,11.5,2.25 c3.67,0.5,7.67,0.75,12,0.75 c13.67,0,23.17,-3.5,28.5,-10.5 c5.33,-7.0,8,-17.33,8,-31 l0,-122 l17,0 c24.33,22.67,45.75,47.75,64.25,75.25 c18.5,27.5,32.25,57.08,41.25,88.75 l8,0 c16.33,0,27.67,-2.0,34,-6 c6.33,-4.0,9.5,-10.17,9.5,-18.5 c0,-9.67,-2.0,-19.5,-6,-29.5 c-4.0,-10.0,-10.83,-21.33,-20.5,-34 c-10.0,-13.33,-22.08,-26.42,-36.25,-39.25 c-14.17,-12.83,-28.25,-24.08,-42.25,-33.75 l0,-3 l90,0 c9.0,0,15.25,-2.33,18.75,-7 c3.5,-4.67,5.25,-11.33,5.25,-20 c0,-7.67,-0.83,-14.33,-2.5,-20 l-110.5,0 l0,-3 c3.67,-6.33,8.17,-13.17,13.5,-20.5 c5.33,-7.33,11.67,-15.83,19,-25.5 c10.0,-13.67,18.5,-23.83,25.5,-30.5 c7.0,-6.67,13.08,-11.0,18.25,-13 c5.17,-2.0,10.08,-3,14.75,-3 c8.0,0,14.17,2.33,18.5,7 l3,0 c1.33,-4.33,2.33,-8.5,3,-12.5 c0.67,-4.0,1,-8.67,1,-14 c0,-13.0,-3.17,-23.0,-9.5,-30 c-6.0,-6.0,-15.17,-9,-27.5,-9 c-13.33,0,-26.33,4.42,-39,13.25 c-12.67,8.83,-26.5,24.42,-41.5,46.75 c-10.67,15.67,-20.0,30.92,-28,45.75 c-8.0,14.83,-15.83,30.92,-23.5,48.25 l-17.5,0 l0,-146 c-3.33,-0.67,-6.5,-1.25,-9.5,-1.75 c-3.0,-0.5,-6.33,-0.75,-10,-0.75 c-11.33,0,-20.08,2.83,-26.25,8.5 c-6.17,5.67,-9.25,16.5,-9.25,32.5 l0,107.5 l-9.5,0 c-10.0,0,-16.83,2.25,-20.5,6.75 c-3.67,4.5,-5.5,11.42,-5.5,20.75 c0,3.67,0.08,7.17,0.25,10.5 c0.17,3.33,0.42,6.33,0.75,9 Z M10.5,191" fill="rgb(0,0,0)" transform="matrix(2.4657534246575343,0.0,0.0,-2.4657534246575343,135.0684931506849,925.3424657534247)"/>
</svg>