<?xml version="1.0" encoding="UTF-8"?>
<svg width="1000" height="1000" viewBox="0 0 1000 1000" version="1.1" xmlns="http://www.w3.org/2000/svg" xmlns:xlink="http://www.w3.org/1999/xlink">
 <path d="M170,199 c13.33,23.33,24.83,48.17,34.5,74.5 c9.67,26.33,15.83,52.5,18.5,78.5 c4.33,0.67,8.75,1.33,13.25,2 c4.5,0.67,9.42,1,14.75,1 c8.33,0,14.25,-1.92,17.75,-5.75 c3.5,-3.83,5.25,-9.58,5.25,-17.25 c0,-8.0,-1.42,-17.58,-4.25,-28.75 c-2.83,-11.17,-6.83,-22.83,-12,-35 c-5.17,-12.17,-11.0,-23.83,-17.5,-35 c-6.5,-11.17,-13.58,-20.92,-21.25,-29.25 c-3.33,-4.33,-6.83,-7.08,-10.5,-8.25 c-3.67,-1.17,-8.17,-1.75,-13.5,-1.75 c-10.0,0,-18.33,1.67,-25,5 Z M74,346 c15.33,0,27.75,-5.5,37.25,-16.5 c9.5,-11.0,14.25,-25.33,14.25,-43 l0,-2 c0,-18.33,-4.83,-32.92,-14.5,-43.75 c-9.67,-10.83,-22.83,-16.25,-39.5,-16.25 c-15.67,0,-28.17,5.17,-37.5,15.5 c-9.33,10.33,-14,24.17,-14,41.5 l0,2 c0,18.67,4.92,33.75,14.75,45.25 c9.83,11.5,22.92,17.25,39.25,17.25 Z M130,151 c-13.33,-23.33,-24.83,-48.33,-34.5,-75 c-9.67,-26.67,-15.83,-52.83,-18.5,-78.5 c-4.33,-0.67,-8.75,-1.25,-13.25,-1.75 c-4.5,-0.5,-9.42,-0.75,-14.75,-0.75 c-8.33,0,-14.25,1.83,-17.75,5.5 c-3.5,3.67,-5.25,9.33,-5.25,17 c0,10.67,2.42,23.75,7.25,39.25 c4.83,15.5,11.42,31.33,19.75,47.5 c8.33,16.17,17.67,30.08,28,41.75 c3.67,4.0,7.25,6.67,10.75,8 c3.5,1.33,7.92,2,13.25,2 c10.0,0,18.33,-1.67,25,-5 Z M225.5,125.5 c15.33,0,27.83,-5.42,37.5,-16.25 c9.67,-10.83,14.5,-25.08,14.5,-42.75 l0,-2 c0,-18.33,-4.92,-33.0,-14.75,-44 c-9.83,-11.0,-23.08,-16.5,-39.75,-16.5 c-15.67,0,-28.17,5.25,-37.5,15.75 c-9.33,10.5,-14,24.58,-14,42.25 l0,1.5 c0,18.67,4.92,33.67,14.75,45 c9.83,11.33,22.92,17,39.25,17 Z M225.5,125.5" fill="rgb(0,0,0)" transform="matrix(2.5,0.0,0.0,-2.5,128.125,937.5)"/>
</svg>