<?xml version="1.0" encoding="UTF-8"?>
<svg width="1000" height="1000" viewBox="0 0 1000 1000" version="1.1" xmlns="http://www.w3.org/2000/svg" xmlns:xlink="http://www.w3.org/1999/xlink">
 <path d="M109,360 c24.0,0,42.83,-3.67,56.5,-11 c13.67,-7.33,23.42,-19.0,29.25,-35 c5.83,-16.0,8.75,-37.0,8.75,-63 l0,-137 c0,-11.33,-1.25,-18.75,-3.75,-22.25 c-2.5,-3.5,-6.58,-5.25,-12.25,-5.25 c-7.0,0,-13.17,1.33,-18.5,4 c1.0,10.67,1.75,21.08,2.25,31.25 c0.5,10.17,0.75,21.75,0.75,34.75 c0,13.0,0,29.0,0,48 c0,17.0,-0.25,31.25,-0.75,42.75 c-0.5,11.5,-1.67,21.33,-3.5,29.5 c-1.83,8.17,-4.58,15.75,-8.25,22.75 c-11.0,4.33,-27.67,6.5,-50,6.5 c-9.33,0,-17.58,-0.33,-24.75,-1 c-7.17,-0.67,-13.75,-1.33,-19.75,-2 l0,-3 c4.0,-6.33,6.58,-13.08,7.75,-20.25 c1.17,-7.17,1.75,-15.92,1.75,-26.25 l0,-205.5 c0,-8.0,0.17,-16.08,0.5,-24.25 c0.33,-8.17,1.0,-16.08,2,-23.75 c-3.33,-1.0,-6.75,-1.75,-10.25,-2.25 c-3.5,-0.5,-7.75,-0.75,-12.75,-0.75 c-9.0,0,-15.33,2.33,-19,7 c-3.67,4.67,-5.5,13.0,-5.5,25 l0,271.5 c-5.67,0.67,-9.58,2.67,-11.75,6 c-2.17,3.33,-3.25,9.0,-3.25,17 c0,10.33,1.17,19.67,3.5,28 c11.0,2.33,23.83,4.33,38.5,6 c14.67,1.67,32.17,2.5,52.5,2.5 Z M231,357.5 c3.33,0.67,6.83,1.25,10.5,1.75 c3.67,0.5,7.67,0.75,12,0.75 c9.67,0,16.67,-2.58,21,-7.75 c4.33,-5.17,6.5,-14.25,6.5,-27.25 l0,-207 c0,-31.67,-4.0,-56.17,-12,-73.5 c-8.0,-17.33,-20.08,-29.33,-36.25,-36 c-16.17,-6.67,-36.42,-10,-60.75,-10 l-30,0 c-12.0,0,-20.92,3.5,-26.75,10.5 c-5.83,7.0,-8.75,16.67,-8.75,29 l0,181.5 c0,8.33,-0.08,16.5,-0.25,24.5 c-0.17,8.0,-0.75,16.5,-1.75,25.5 c2.67,0.67,5.25,1.25,7.75,1.75 c2.5,0.5,5.25,0.75,8.25,0.75 c7.33,0,12.33,-2.08,15,-6.25 c2.67,-4.17,4,-11.58,4,-22.25 c0,-48.33,-0.33,-87.67,-1,-118 c-0.67,-30.33,-2.0,-54.17,-4,-71.5 c7.0,-0.67,14.08,-1.08,21.25,-1.25 c7.17,-0.17,14.08,-0.25,20.75,-0.25 c19.67,0,34.58,4.25,44.75,12.75 c10.17,8.5,15.25,24.92,15.25,49.25 l0,155.5 c0,18.67,-0.5,34.83,-1.5,48.5 c-1.0,13.67,-2.33,26.67,-4,39 Z M231,357.5" fill="rgb(0,0,0)" transform="matrix(2.479338842975207,0.0,0.0,-2.479338842975207,133.6776859504132,942.5619834710744)"/>
</svg>