<?xml version="1.0" encoding="UTF-8"?>
<svg width="1000" height="1000" viewBox="0 0 1000 1000" version="1.1" xmlns="http://www.w3.org/2000/svg" xmlns:xlink="http://www.w3.org/1999/xlink">
 <path d="M108.5,217 c-11.0,0,-21.83,3.17,-32.5,9.5 c14.33,20.67,26.83,43.5,37.5,68.5 c10.67,25.0,18.67,51.33,24,79 c5.67,1.33,11.08,2.33,16.25,3 c5.17,0.67,11.42,1,18.75,1 c10.67,0,18.17,-1.92,22.5,-5.75 c4.33,-3.83,6.5,-9.58,6.5,-17.25 c0,-8.0,-1.83,-17.75,-5.5,-29.25 c-3.67,-11.5,-8.42,-23.33,-14.25,-35.5 c-5.83,-12.17,-12.33,-23.67,-19.5,-34.5 c-7.17,-10.83,-14.25,-19.58,-21.25,-26.25 c-9.33,-8.33,-20.17,-12.5,-32.5,-12.5 Z M108.5,217" fill="rgb(0,0,0)" transform="matrix(5.590062111801243,0.0,0.0,-5.590062111801243,-275.62111801242236,2163.04347826087)"/>
</svg>