<?xml version="1.0" encoding="UTF-8"?>
<svg width="1000" height="1000" viewBox="0 0 1000 1000" version="1.1" xmlns="http://www.w3.org/2000/svg" xmlns:xlink="http://www.w3.org/1999/xlink">
 <path d="M151,394 c20.67,0,37.42,-5.17,50.25,-15.5 c12.83,-10.33,19.25,-23.17,19.25,-38.5 l0,-3 c0,-10.33,-3.17,-19.58,-9.5,-27.75 c-6.33,-8.17,-15.0,-13.75,-26,-16.75 l0,-2.5 c11.0,-4.67,20.08,-11.5,27.25,-20.5 c7.17,-9.0,10.75,-18.67,10.75,-29 l0,-3 c0,-19.0,-6.75,-34.08,-20.25,-45.25 c-13.5,-11.17,-31.25,-16.75,-53.25,-16.75 c-22.0,0,-39.58,5.25,-52.75,15.75 c-13.17,10.5,-19.75,23.92,-19.75,40.25 l0,2.5 c0,8.67,3.0,17.42,9,26.25 c6.0,8.83,14.67,15.08,26,18.75 l0,3 c-10.0,5.0,-17.75,11.58,-23.25,19.75 c-5.5,8.17,-8.25,17.75,-8.25,28.75 l0,2.5 c0,17.67,6.33,32.25,19,43.75 c12.67,11.5,29.83,17.25,51.5,17.25 Z M146.5,302 l8,-2.5 c9.67,4.67,16.67,9.92,21,15.75 c4.33,5.83,6.5,12.08,6.5,18.75 l0,1.5 c0,2.67,-0.17,5.25,-0.5,7.75 c-0.33,2.5,-1.17,4.92,-2.5,7.25 c-3.0,1.67,-7.0,2.83,-12,3.5 c-5.0,0.67,-10.17,1,-15.5,1 c-22.33,0,-33.5,-8.17,-33.5,-24.5 c0,-13.33,9.5,-22.83,28.5,-28.5 Z M112.5,234 c4.67,-12.67,16.5,-19,35.5,-19 c8.67,0,16.83,1.75,24.5,5.25 c7.67,3.5,12.67,8.42,15,14.75 c-1.0,8.67,-4.08,15.42,-9.25,20.25 c-5.17,4.83,-12.92,8.92,-23.25,12.25 l-13.5,4 c-9.0,-4.33,-15.75,-9.75,-20.25,-16.25 c-4.5,-6.5,-7.42,-13.58,-8.75,-21.25 Z M112.5,234" fill="rgb(0,0,0)" transform="matrix(4.118993135011442,0.0,0.0,-4.118993135011442,-117.84897025171625,1672.883295194508)"/>
</svg>