<?xml version="1.0" encoding="UTF-8"?>
<svg width="1000" height="1000" viewBox="0 0 1000 1000" version="1.1" xmlns="http://www.w3.org/2000/svg" xmlns:xlink="http://www.w3.org/1999/xlink">
 <path d="M298,175.5 c0,-4.33,-3.92,-12.75,-11.75,-25.25 c-7.83,-12.5,-22.08,-29.42,-42.75,-50.75 c-13.33,-13.67,-27.08,-27.25,-41.25,-40.75 c-14.17,-13.5,-26.08,-24.08,-35.75,-31.75 c-2.33,-1.0,-4.75,-1.67,-7.25,-2 c-2.5,-0.33,-5.08,-0.5,-7.75,-0.5 c-3.33,0,-7.17,0.75,-11.5,2.25 c-4.33,1.5,-9.33,4.58,-15,9.25 c-11.67,9.67,-23.92,20.5,-36.75,32.5 c-12.83,12.0,-25.25,24.42,-37.25,37.25 c-12.0,12.83,-22.67,25.25,-32,37.25 c-6.0,7.67,-10.33,13.5,-13,17.5 c-2.67,4.0,-4,7.67,-4,11 c0,4.33,1.08,8.5,3.25,12.5 c2.17,4.0,7.08,11.0,14.75,21 c7.33,9.67,17.33,21.5,30,35.5 c12.67,14.0,26.5,28.42,41.5,43.25 c15.0,14.83,29.5,28.08,43.5,39.75 c4.67,1.67,9.67,2.5,15,2.5 c4.67,0,8.83,-0.75,12.5,-2.25 c3.67,-1.5,8.33,-4.58,14,-9.25 c11.67,-10.0,23.75,-21.0,36.25,-33 c12.5,-12.0,24.67,-24.25,36.5,-36.75 c11.83,-12.5,22.25,-24.58,31.25,-36.25 c6.0,-7.67,10.42,-13.75,13.25,-18.25 c2.83,-4.5,4.25,-9.42,4.25,-14.75 Z M31,175.5 c12.33,-18.33,28.83,-38.0,49.5,-59 c20.67,-21.0,43.33,-41.83,68,-62.5 l4.5,0 c25.33,21.0,47.83,42.17,67.5,63.5 c19.67,21.33,35.5,40.67,47.5,58 c-12.0,17.67,-28.08,36.83,-48.25,57.5 c-20.17,20.67,-42.75,41.5,-67.75,62.5 l-4,0 c-25.0,-21.33,-47.75,-43.0,-68.25,-65 c-20.5,-22.0,-36.75,-40.33,-48.75,-55 Z M31,175.5" fill="rgb(0,0,0)" transform="matrix(2.985074626865672,0.0,0.0,-2.985074626865672,52.23880597014926,1023.1343283582089)"/>
</svg>