<?xml version="1.0" encoding="UTF-8"?>
<svg width="1000" height="1000" viewBox="0 0 1000 1000" version="1.1" xmlns="http://www.w3.org/2000/svg" xmlns:xlink="http://www.w3.org/1999/xlink">
 <path d="M139,355 c9.67,0,18.25,-0.92,25.75,-2.75 c7.5,-1.83,12.42,-4.08,14.75,-6.75 c5.33,-5.33,10.58,-11.75,15.75,-19.25 c5.17,-7.5,10.42,-16.58,15.75,-27.25 c16.33,-32.33,30.08,-73.83,41.25,-124.5 c11.17,-50.67,17.42,-108.83,18.75,-174.5 l-200,0 c-11.67,0,-21.42,1.75,-29.25,5.25 c-7.83,3.5,-11.75,9.75,-11.75,18.75 c0,47.0,3.75,91.25,11.25,132.75 c7.5,41.5,18.5,79.17,33,113 c14.5,33.83,31.92,62.25,52.25,85.25 Z M86.5,50.5 l99,0 c9.67,0,19.0,-1.17,28,-3.5 c-3.0,57.67,-9.33,107.0,-19,148 c-9.67,41.0,-24.17,76.67,-43.5,107 l-0.5,0 c-14.33,-21.33,-25.75,-43.83,-34.25,-67.5 c-8.5,-23.67,-15.08,-50.25,-19.75,-79.75 c-4.67,-29.5,-8.0,-64.25,-10,-104.25 Z M86.5,50.5" fill="rgb(0,0,0)" transform="matrix(2.535211267605634,0.0,0.0,-2.535211267605634,118.45070422535207,950.0)"/>
</svg>