<?xml version="1.0" encoding="UTF-8"?>
<svg width="1000" height="1000" viewBox="0 0 1000 1000" version="1.1" xmlns="http://www.w3.org/2000/svg" xmlns:xlink="http://www.w3.org/1999/xlink">
 <path d="M11.5,256 c0.33,11.0,1.0,19.42,2,25.25 c1.0,5.83,2.67,10.58,5,14.25 c2.33,3.67,5.5,7.5,9.5,11.5 l5,5 c37.33,6.67,74.33,6.75,111,0.25 c36.67,-6.5,75.17,-19.08,115.5,-37.75 c-2.67,-8.67,-7.67,-17.0,-15,-25 c-7.33,-7.33,-14.08,-11.33,-20.25,-12 c-6.17,-0.67,-15.25,1.33,-27.25,6 c-15.67,6.67,-30.42,12.25,-44.25,16.75 c-13.83,4.5,-28.25,7.75,-43.25,9.75 c-15.0,2.0,-32.0,2.5,-51,1.5 l-3,-2.5 c-1.0,-19.0,-0.5,-36.0,1.5,-51 c2.0,-15.0,5.25,-29.42,9.75,-43.25 c4.5,-13.83,10.08,-28.58,16.75,-44.25 c5.0,-12.33,7.17,-21.42,6.5,-27.25 c-0.67,-5.83,-4.67,-12.58,-12,-20.25 c-8.33,-7.67,-16.83,-12.83,-25.5,-15.5 c-15.67,35.0,-26.75,67.67,-33.25,98 c-6.5,30.33,-9.08,60.5,-7.75,90.5 Z M221.5,69 c-8.67,8.67,-17.5,17.42,-26.5,26.25 c-9.0,8.83,-17.83,17.75,-26.5,26.75 c-12.0,12.0,-22.33,22.5,-31,31.5 c-8.67,9.0,-16.58,17.92,-23.75,26.75 c-7.17,8.83,-14.92,18.75,-23.25,29.75 c-7.33,10.33,-6.83,19.5,1.5,27.5 c1.67,1.67,3.5,3.17,5.5,4.5 c2.0,1.33,3.67,2.17,5,2.5 c14.67,-10.33,27.42,-19.67,38.25,-28 c10.83,-8.33,21.42,-16.92,31.75,-25.75 c10.33,-8.83,21.5,-19.42,33.5,-31.75 c11.67,-11.67,23.5,-23.42,35.5,-35.25 c12.0,-11.83,23.67,-23.58,35,-35.25 c7.67,-7.33,11.08,-14.33,10.25,-21 c-0.83,-6.67,-5.25,-13.83,-13.25,-21.5 c-2.33,-2.33,-5.08,-4.75,-8.25,-7.25 c-3.17,-2.5,-6.75,-5.08,-10.75,-7.75 c-5.0,7.0,-10.33,13.58,-16,19.75 c-5.67,6.17,-11.33,12.25,-17,18.25 Z M221.5,69" fill="rgb(0,0,0)" transform="matrix(3.1461566381688377,0.0,0.0,-3.1461566381688377,31.1721323887449,1047.530855783234)"/>
</svg>