<?xml version="1.0" encoding="UTF-8"?>
<svg width="1000" height="1000" viewBox="0 0 1000 1000" version="1.1" xmlns="http://www.w3.org/2000/svg" xmlns:xlink="http://www.w3.org/1999/xlink">
 <path d="M295,175.5 c0,-4.33,-3.92,-12.75,-11.75,-25.25 c-7.83,-12.5,-22.08,-29.42,-42.75,-50.75 c-13.33,-13.67,-26.58,-26.75,-39.75,-39.25 c-13.17,-12.5,-24.58,-22.58,-34.25,-30.25 c-2.33,-1.0,-4.75,-1.67,-7.25,-2 c-2.5,-0.33,-5.08,-0.5,-7.75,-0.5 c-3.33,0,-7.17,0.75,-11.5,2.25 c-4.33,1.5,-9.33,4.58,-15,9.25 c-17.33,14.67,-35.33,31.17,-54,49.5 c-18.67,18.33,-35.0,36.5,-49,54.5 c-6.0,7.67,-10.33,13.5,-13,17.5 c-2.67,4.0,-4,7.67,-4,11 c0,4.33,1.08,8.5,3.25,12.5 c2.17,4.0,7.08,11.0,14.75,21 c7.33,9.67,17.08,21.25,29.25,34.75 c12.17,13.5,25.5,27.42,40,41.75 c14.5,14.33,28.75,27.33,42.75,39 c4.67,1.67,9.67,2.5,15,2.5 c4.67,0,8.83,-0.75,12.5,-2.25 c3.67,-1.5,8.33,-4.58,14,-9.25 c17.67,-15.0,35.5,-31.58,53.5,-49.75 c18.0,-18.17,33.83,-35.92,47.5,-53.25 c6.0,-7.67,10.42,-13.75,13.25,-18.25 c2.83,-4.5,4.25,-9.42,4.25,-14.75 Z M295,175.5" fill="rgb(0,0,0)" transform="matrix(3.045685279187817,0.0,0.0,-3.045685279187817,43.14720812182742,1033.756345177665)"/>
</svg>