<?xml version="1.0" encoding="UTF-8"?>
<svg width="1000" height="1000" viewBox="0 0 1000 1000" version="1.1" xmlns="http://www.w3.org/2000/svg" xmlns:xlink="http://www.w3.org/1999/xlink">
 <path d="M66.5,217 c-5.33,0,-10.08,0.5,-14.25,1.5 c-4.17,1.0,-8.42,2.67,-12.75,5 c14.67,20.67,27.42,43.92,38.25,69.75 c10.83,25.83,18.58,52.75,23.25,80.75 c4.67,1.33,9.25,2.33,13.75,3 c4.5,0.67,10.08,1,16.75,1 c7.67,0,13.83,-1.67,18.5,-5 c4.67,-3.33,7,-9.5,7,-18.5 c0,-8.33,-1.75,-18.33,-5.25,-30 c-3.5,-11.67,-8.17,-23.58,-14,-35.75 c-5.83,-12.17,-12.33,-23.67,-19.5,-34.5 c-7.17,-10.83,-14.25,-19.58,-21.25,-26.25 c-4.67,-4.33,-9.67,-7.25,-15,-8.75 c-5.33,-1.5,-10.5,-2.25,-15.5,-2.25 Z M159.5,217 c-5.33,0,-10.08,0.5,-14.25,1.5 c-4.17,1.0,-8.58,2.67,-13.25,5 c15.33,20.67,28.42,43.83,39.25,69.5 c10.83,25.67,18.42,52.67,22.75,81 c4.67,1.33,9.25,2.33,13.75,3 c4.5,0.67,10.08,1,16.75,1 c7.33,0,13.33,-1.67,18,-5 c4.67,-3.33,7,-9.5,7,-18.5 c0,-8.33,-1.75,-18.33,-5.25,-30 c-3.5,-11.67,-8.08,-23.58,-13.75,-35.75 c-5.67,-12.17,-12.08,-23.67,-19.25,-34.5 c-7.17,-10.83,-14.25,-19.58,-21.25,-26.25 c-4.67,-4.33,-9.75,-7.25,-15.25,-8.75 c-5.5,-1.5,-10.58,-2.25,-15.25,-2.25 Z M159.5,217" fill="rgb(0,0,0)" transform="matrix(4.285714285714286,0.0,0.0,-4.285714285714286,-119.28571428571428,1775.0)"/>
</svg>