<?xml version="1.0" encoding="UTF-8"?>
<svg width="1000" height="1000" viewBox="0 0 1000 1000" version="1.1" xmlns="http://www.w3.org/2000/svg" xmlns:xlink="http://www.w3.org/1999/xlink">
 <path d="M67.5,-1 c-2.33,-0.33,-5.33,-0.83,-9,-1.5 c-3.67,-0.67,-7.33,-1,-11,-1 c-20.0,0,-30,12.5,-30,37.5 l0,263 c0,8.0,-0.42,16.92,-1.25,26.75 c-0.83,9.83,-2.25,19.08,-4.25,27.75 c6.67,1.0,12.58,1.75,17.75,2.25 c5.17,0.5,10.92,0.75,17.25,0.75 c13.67,0,23.83,-2.92,30.5,-8.75 c6.67,-5.83,11.17,-16.42,13.5,-31.75 c7.67,-48.33,16.75,-92.08,27.25,-131.25 c10.5,-39.17,22.92,-74.58,37.25,-106.25 l2.5,0 c-3.33,33.0,-5.75,65.25,-7.25,96.75 c-1.5,31.5,-2.25,62.75,-2.25,93.75 l0,85 c1.67,0.67,4.42,1.25,8.25,1.75 c3.83,0.5,7.58,0.75,11.25,0.75 c9.67,0,17.17,-2.58,22.5,-7.75 c5.33,-5.17,8,-13.58,8,-25.25 l0,-267.5 c0,-9.33,0.25,-18.67,0.75,-28 c0.5,-9.33,1.42,-18.5,2.75,-27.5 c-3.67,-1.0,-7.92,-1.83,-12.75,-2.5 c-4.83,-0.67,-9.75,-1,-14.75,-1 c-7.33,0,-13.5,1.33,-18.5,4 c-5.0,2.67,-9.33,7.33,-13,14 c-14.67,23.67,-28.92,56.67,-42.75,99 c-13.83,42.33,-27.08,94.67,-39.75,157 l-3,0 c2.67,-23.67,4.67,-48.58,6,-74.75 c1.33,-26.17,2.33,-51.67,3,-76.5 c0.67,-24.83,1,-47.42,1,-67.75 Z M255,354.5 c14.0,0,24.83,-5.25,32.5,-15.75 c7.67,-10.5,11.5,-24.92,11.5,-43.25 l0,-3.5 c0,-17.33,-4.25,-31.92,-12.75,-43.75 c-8.5,-11.83,-19.75,-17.75,-33.75,-17.75 c-14.0,0,-24.92,5.33,-32.75,16 c-7.83,10.67,-11.75,25.0,-11.75,43 l0,3.5 c0,18.0,4.25,32.75,12.75,44.25 c8.5,11.5,19.92,17.25,34.25,17.25 Z M256,323 c-7.67,0,-13.42,-2.75,-17.25,-8.25 c-3.83,-5.5,-5.75,-12.58,-5.75,-21.25 l0,-2 c0,-4.67,0.33,-8.83,1,-12.5 c0.67,-3.67,2.17,-7.0,4.5,-10 c3.33,-1.67,7.67,-2.5,13,-2.5 c15.0,0,22.5,9.33,22.5,28 l0,2 c0,10.33,-1.83,18.17,-5.5,23.5 c-1.67,0.67,-3.5,1.33,-5.5,2 c-2.0,0.67,-4.33,1,-7,1 Z M212,212.5 l63.5,0 c7.67,0,13.17,-1.75,16.5,-5.25 c3.33,-3.5,5,-8.42,5,-14.75 c0,-2.67,-0.17,-5.33,-0.5,-8 c-0.33,-2.67,-0.83,-5.17,-1.5,-7.5 l-60.5,0 c-7.33,0,-12.92,1.75,-16.75,5.25 c-3.83,3.5,-5.75,11.08,-5.75,22.75 Z M212,212.5" fill="rgb(0,0,0)" transform="matrix(2.5034770514603615,0.0,0.0,-2.5034770514603615,110.70931849791378,937.4826147426982)"/>
</svg>