<?xml version="1.0" encoding="UTF-8"?>
<svg width="1000" height="1000" viewBox="0 0 1000 1000" version="1.1" xmlns="http://www.w3.org/2000/svg" xmlns:xlink="http://www.w3.org/1999/xlink">
 <path d="M81.5,173.5 c7.0,0,13.17,-0.33,18.5,-1 c5.33,-0.67,9.33,-1.83,12,-3.5 l97.5,0 c6.67,0,11.25,-2.75,13.75,-8.25 c2.5,-5.5,3.75,-11.75,3.75,-18.75 l0,-3 c0,-6.67,-2.08,-14.42,-6.25,-23.25 c-4.17,-8.83,-9.17,-18.67,-15,-29.5 c-5.83,-10.83,-11.58,-22.58,-17.25,-35.25 c-8.33,-19.0,-13.83,-35.92,-16.5,-50.75 c-2.67,-14.83,-4.33,-27.92,-5,-39.25 c-2.67,-0.67,-5.83,-1.5,-9.5,-2.5 c-3.67,-1.0,-7.67,-1.5,-12,-1.5 c-8.0,0,-13.67,1.67,-17,5 c-3.33,3.33,-5,8.17,-5,14.5 c0,5.67,1.75,15.58,5.25,29.75 c3.5,14.17,8.42,27.92,14.75,41.25 c7.67,16.33,15.67,30.92,24,43.75 c8.33,12.83,15.0,25.58,20,38.25 l-1.5,1.5 c-4.33,-0.67,-9.92,-1.08,-16.75,-1.25 c-6.83,-0.17,-15.25,-0.25,-25.25,-0.25 l-30,0 c-0.33,-7.33,-0.67,-14.58,-1,-21.75 c-0.33,-7.17,-0.5,-13.25,-0.5,-18.25 c-3.33,-1.0,-6.67,-1.83,-10,-2.5 c-3.33,-0.67,-6.83,-1,-10.5,-1 c-12.67,0,-19,6.33,-19,19 c0,5.33,0.42,12.0,1.25,20 c0.83,8.0,1.92,16.33,3.25,25 c1.33,8.67,2.67,16.5,4,23.5 Z M81.5,173.5" fill="rgb(0,0,0)" transform="matrix(4.157043879907621,0.0,0.0,-4.157043879907621,-123.55658198614316,771.2471131639722)"/>
</svg>