<?xml version="1.0" encoding="UTF-8"?>
<svg width="1000" height="1000" viewBox="0 0 1000 1000" version="1.1" xmlns="http://www.w3.org/2000/svg" xmlns:xlink="http://www.w3.org/1999/xlink">
 <path d="M19,350 l237.5,0 c9.33,0,15.83,-2.08,19.5,-6.25 c3.67,-4.17,5.5,-10.75,5.5,-19.75 c0,-4.0,-0.33,-7.75,-1,-11.25 c-0.67,-3.5,-1.33,-6.75,-2,-9.75 l-225,0 c-14.33,0,-24.08,2.5,-29.25,7.5 c-5.17,5.0,-7.75,13.0,-7.75,24 c0,4.67,0.83,9.83,2.5,15.5 Z M182.5,-0.5 c-3.33,-0.67,-6.33,-1.25,-9,-1.75 c-2.67,-0.5,-6.0,-0.75,-10,-0.75 c-15.0,0,-25.67,3.75,-32,11.25 c-6.33,7.5,-9.5,18.42,-9.5,32.75 l0,168.5 l-53,0 c-19.33,0,-32.92,3.33,-40.75,10 c-7.83,6.67,-11.75,15.83,-11.75,27.5 c0,6.0,0.67,11.17,2,15.5 l238,0 c9.33,0,15.83,-3.17,19.5,-9.5 c3.67,-6.33,5.5,-14.5,5.5,-24.5 c0,-7.0,-0.83,-13.33,-2.5,-19 l-114.5,0 l-0.5,-2.5 c5.67,-5.67,9.42,-11.5,11.25,-17.5 c1.83,-6.0,2.75,-12.5,2.75,-19.5 l0,-120 c0,-8.33,0.25,-16.75,0.75,-25.25 c0.5,-8.5,1.75,-16.92,3.75,-25.25 Z M182.5,-0.5" fill="rgb(0,0,0)" transform="matrix(2.54957507082153,0.0,0.0,-2.54957507082153,120.11331444759202,942.3512747875354)"/>
</svg>