<?xml version="1.0" encoding="UTF-8"?>
<svg width="1000" height="1000" viewBox="0 0 1000 1000" version="1.1" xmlns="http://www.w3.org/2000/svg" xmlns:xlink="http://www.w3.org/1999/xlink">
 <path d="M15.5,249 l194,0 l0,7 c0,8.67,-1.08,16.42,-3.25,23.25 c-2.17,6.83,-5.25,12.92,-9.25,18.25 c-9.67,5.0,-19.83,8.42,-30.5,10.25 c-10.67,1.83,-23.0,2.75,-37,2.75 c-14.33,0,-28.0,-0.83,-41,-2.5 c-13.0,-1.67,-24.42,-3.33,-34.25,-5 c-9.83,-1.67,-16.92,-2.5,-21.25,-2.5 c-6.0,0,-10.5,2.42,-13.5,7.25 c-3.0,4.83,-4.5,12.92,-4.5,24.25 c0,7.0,0.67,13.0,2,18 c19.0,3.0,40.25,5.42,63.75,7.25 c23.5,1.83,47.25,2.75,71.25,2.75 c21.67,0,42.83,-0.58,63.5,-1.75 c20.67,-1.17,38.33,-3.08,53,-5.75 c9.33,-1.33,15.83,-4.08,19.5,-8.25 c3.67,-4.17,5.5,-9.75,5.5,-16.75 c0,-5.67,-0.33,-10.75,-1,-15.25 c-0.67,-4.5,-1.67,-8.58,-3,-12.25 c-16.0,5.33,-35.17,9.17,-57.5,11.5 l0,-3 c11.67,-7.33,19.42,-15.83,23.25,-25.5 c3.83,-9.67,5.75,-20.67,5.75,-33 l0,-1 l10.5,0 c7.67,0,13.25,-1.58,16.75,-4.75 c3.5,-3.17,5.25,-9.08,5.25,-17.75 c0,-6.33,-1.0,-12.5,-3,-18.5 l-32.5,0 c-4.0,-21.67,-11.92,-40.17,-23.75,-55.5 c-11.83,-15.33,-26.75,-27.33,-44.75,-36 c6.0,-11.33,11.83,-20.92,17.5,-28.75 c5.67,-7.83,11.5,-14.92,17.5,-21.25 c5.67,-6.33,11.33,-10.92,17,-13.75 c5.67,-2.83,11.17,-4.25,16.5,-4.25 c4.33,0,7.83,0.67,10.5,2 c2.67,1.33,5.17,3.17,7.5,5.5 l3,0 c2.33,-7.33,3.5,-15.33,3.5,-24 c0,-8.33,-0.92,-15.17,-2.75,-20.5 c-1.83,-5.33,-4.25,-9.5,-7.25,-12.5 c-6.0,-6.0,-15.5,-9,-28.5,-9 c-24.33,0,-45.0,13.67,-62,41 c-7.67,12.0,-14.42,23.67,-20.25,35 c-5.83,11.33,-11.25,23.67,-16.25,37 c-10.67,-1.67,-21.67,-2.5,-33,-2.5 c-15.67,0,-29.25,0.42,-40.75,1.25 c-11.5,0.83,-22.42,2.58,-32.75,5.25 c-8.33,2.0,-14.0,4.58,-17,7.75 c-3.0,3.17,-4.5,8.75,-4.5,16.75 c0,10.0,1.33,18.67,4,26 c13.67,-3.0,27.33,-5.25,41,-6.75 c13.67,-1.5,28.5,-2.25,44.5,-2.25 c25.0,0,45.83,4.83,62.5,14.5 c16.67,9.67,28.17,24.67,34.5,45 l-167,0 c-8.67,0,-14.67,2.08,-18,6.25 c-3.33,4.17,-5,9.92,-5,17.25 c0,6.33,0.5,12.17,1.5,17.5 Z M15.5,249" fill="rgb(0,0,0)" transform="matrix(2.4324324324324325,0.0,0.0,-2.4324324324324325,126.01351351351349,925.6756756756756)"/>
</svg>