<?xml version="1.0" encoding="UTF-8"?>
<svg width="1000" height="1000" viewBox="0 0 1000 1000" version="1.1" xmlns="http://www.w3.org/2000/svg" xmlns:xlink="http://www.w3.org/1999/xlink">
 <path d="M5,187.5 c14.33,31.0,31.42,57.17,51.25,78.5 c19.83,21.33,43.42,39.83,70.75,55.5 c1.67,-4.0,2.92,-8.42,3.75,-13.25 c0.83,-4.83,1.25,-10.08,1.25,-15.75 c0,-10.33,-1.33,-17.83,-4,-22.5 c-2.67,-4.67,-7.83,-9.67,-15.5,-15 c-10.0,-6.33,-19.0,-12.83,-27,-19.5 c-8.0,-6.67,-15.75,-14.5,-23.25,-23.5 c-7.5,-9.0,-15.25,-20.5,-23.25,-34.5 l0,-5 c8.0,-14.0,15.75,-25.5,23.25,-34.5 c7.5,-9.0,15.25,-16.83,23.25,-23.5 c8.0,-6.67,17.0,-13.17,27,-19.5 c7.67,-5.33,12.83,-10.33,15.5,-15 c2.67,-4.67,4,-12.17,4,-22.5 c0,-5.33,-0.42,-10.5,-1.25,-15.5 c-0.83,-5.0,-2.08,-9.5,-3.75,-13.5 c-23.33,13.67,-43.5,28.83,-60.5,45.5 c-17.0,16.67,-32.17,36.17,-45.5,58.5 c-4.67,8.0,-8.17,14.42,-10.5,19.25 c-2.33,4.83,-3.83,9.42,-4.5,13.75 c-0.67,4.33,-1,9.33,-1,15 Z M295,162.5 c-14.0,-31.0,-31.0,-57.17,-51,-78.5 c-20.0,-21.33,-43.67,-39.83,-71,-55.5 c-3.0,8.0,-4.5,17.67,-4.5,29 c0,10.33,1.33,17.83,4,22.5 c2.67,4.67,7.67,9.67,15,15 c10.0,6.33,19.08,12.83,27.25,19.5 c8.17,6.67,15.92,14.5,23.25,23.5 c7.33,9.0,15.17,20.67,23.5,35 l0,4 c-8.33,14.33,-16.17,26.0,-23.5,35 c-7.33,9.0,-15.0,16.83,-23,23.5 c-8.0,6.67,-17.0,13.17,-27,19.5 c-7.67,5.33,-12.83,10.33,-15.5,15 c-2.67,4.67,-4,12.17,-4,22.5 c0,11.33,1.5,21.0,4.5,29 c23.67,-13.33,43.92,-28.42,60.75,-45.25 c16.83,-16.83,31.92,-36.42,45.25,-58.75 c5.0,-8.0,8.67,-14.42,11,-19.25 c2.33,-4.83,3.75,-9.33,4.25,-13.5 c0.5,-4.17,0.75,-9.25,0.75,-15.25 Z M146,152 c-10.0,0,-21.08,0.42,-33.25,1.25 c-12.17,0.83,-23.08,2.42,-32.75,4.75 c-4.33,1.0,-7.83,2.83,-10.5,5.5 c-2.67,2.67,-4,7.0,-4,13 c0,2.0,0.08,3.92,0.25,5.75 c0.17,1.83,0.42,3.58,0.75,5.25 c11.0,3.33,23.67,5.75,38,7.25 c14.33,1.5,28.33,2.25,42,2.25 l9.5,0 c8.67,0,19.42,-0.33,32.25,-1 c12.83,-0.67,23.92,-2.33,33.25,-5 c4.33,-1.0,7.83,-2.83,10.5,-5.5 c2.67,-2.67,4,-7.0,4,-13 c0,-2.0,0,-3.92,0,-5.75 c0,-1.83,-0.33,-3.58,-1,-5.25 c-10.67,-3.33,-23.5,-5.75,-38.5,-7.25 c-15.0,-1.5,-28.67,-2.25,-41,-2.25 Z M146,152" fill="rgb(0,0,0)" transform="matrix(3.0716723549488054,0.0,0.0,-3.0716723549488054,39.24914675767917,1037.542662116041)"/>
</svg>