<?xml version="1.0" encoding="UTF-8"?>
<svg width="1000" height="1000" viewBox="0 0 1000 1000" version="1.1" xmlns="http://www.w3.org/2000/svg" xmlns:xlink="http://www.w3.org/1999/xlink">
 <path d="M82.5,326 c35.33,0,57.83,-20.17,67.5,-60.5 l2,0 c10.0,40.33,32.17,60.5,66.5,60.5 c21.67,0,39.92,-7.92,54.75,-23.75 c14.83,-15.83,22.25,-40.58,22.25,-74.25 l0,-1.5 c0,-19.33,-3.75,-38.42,-11.25,-57.25 c-7.5,-18.83,-17.33,-36.5,-29.5,-53 c-12.17,-16.5,-25.5,-31.17,-40,-44 c-14.5,-12.83,-28.75,-23.08,-42.75,-30.75 c-6.33,-1.33,-13.0,-2,-20,-2 c-6.0,0,-12.08,1.17,-18.25,3.5 c-6.17,2.33,-14.58,6.5,-25.25,12.5 c-19.67,11.67,-37.33,26.75,-53,45.25 c-15.67,18.5,-28.08,38.67,-37.25,60.5 c-9.17,21.83,-13.75,43.25,-13.75,64.25 l0,2.5 c0,29.67,7.0,53.42,21,71.25 c14.0,17.83,33.0,26.75,57,26.75 Z M82.5,326" fill="rgb(0,0,0)" transform="matrix(3.0927835051546393,0.0,0.0,-3.0927835051546393,36.08247422680415,1065.2061855670104)"/>
</svg>