<?xml version="1.0" encoding="UTF-8"?>
<svg width="1000" height="1000" viewBox="0 0 1000 1000" version="1.1" xmlns="http://www.w3.org/2000/svg" xmlns:xlink="http://www.w3.org/1999/xlink">
 <path d="M135,321 l19.5,0 c6.0,0,10.83,-1.33,14.5,-4 c2.33,-1.67,5.25,-4.17,8.75,-7.5 c3.5,-3.33,8.25,-9.67,14.25,-19 c17.67,-28.0,35.92,-59.67,54.75,-95 c18.83,-35.33,35.08,-72.0,48.75,-110 c-0.67,-5.33,-1.58,-10.0,-2.75,-14 c-1.17,-4.0,-2.92,-7.0,-5.25,-9 c-2.0,-1.67,-5.08,-3.0,-9.25,-4 c-4.17,-1.0,-8.92,-1.83,-14.25,-2.5 c-25.0,-2.33,-51.67,-3.92,-80,-4.75 c-28.33,-0.83,-56.75,-0.83,-85.25,0 c-28.5,0.83,-55.92,2.42,-82.25,4.75 c-2.67,1.67,-5.33,4.67,-8,9 c-2.67,4.33,-4,9.0,-4,14 c0,2.67,2.42,10.08,7.25,22.25 c4.83,12.17,11.5,27.25,20,45.25 c8.5,18.0,18.25,37.33,29.25,58 c11.0,20.67,22.83,41.17,35.5,61.5 c12.67,20.33,25.5,38.67,38.5,55 Z M42,85.5 c22.0,-1.33,45.33,-2.33,70,-3 c24.67,-0.67,49.42,-0.75,74.25,-0.25 c24.83,0.5,48.58,1.75,71.25,3.75 l2,3 c-8.0,21.67,-17.67,44.25,-29,67.75 c-11.33,23.5,-23.67,46.75,-37,69.75 c-13.33,23.0,-26.83,44.33,-40.5,64 l-3.5,0 c-13.33,-19.67,-26.92,-41.17,-40.75,-64.5 c-13.83,-23.33,-26.75,-46.92,-38.75,-70.75 c-12.0,-23.83,-22.0,-46.25,-30,-67.25 Z M42,85.5" fill="rgb(0,0,0)" transform="matrix(3.0927835051546393,0.0,0.0,-3.0927835051546393,36.08247422680415,1074.6778302190721)"/>
</svg>