<?xml version="1.0" encoding="UTF-8"?>
<svg width="1000" height="1000" viewBox="0 0 1000 1000" version="1.1" xmlns="http://www.w3.org/2000/svg" xmlns:xlink="http://www.w3.org/1999/xlink">
 <path d="M116.5,-51.5 c0,6.0,1.0,12.75,3,20.25 c2.0,7.5,5.0,15.75,9,24.75 c-30.67,6.33,-54.75,21.83,-72.25,46.5 c-17.5,24.67,-26.25,55.67,-26.25,93 l0,11 c0,37.33,4.83,70.83,14.5,100.5 c9.67,29.67,23.33,54.17,41,73.5 c17.67,19.33,38.33,32.0,62,38 c0.67,8.33,1,16.17,1,23.5 c0,13.67,-1.0,26.67,-3,39 c7.67,3.0,17.33,4.5,29,4.5 c9.67,0,16.75,-1.92,21.25,-5.75 c4.5,-3.83,6.75,-10.42,6.75,-19.75 c0,-5.67,-0.75,-11.83,-2.25,-18.5 c-1.5,-6.67,-3.58,-13.33,-6.25,-20 c9.0,-1.33,17.0,-4.0,24,-8 c7.0,-4.0,13.5,-9.0,19.5,-15 c7.67,-7.67,13.17,-15.83,16.5,-24.5 c3.33,-8.67,5,-19.67,5,-33 l0,-44.5 c-5.67,-2.33,-12.67,-3.5,-21,-3.5 c-10.33,0,-18.33,1.83,-24,5.5 c-5.67,3.67,-8.5,10.17,-8.5,19.5 c0,11.67,0.17,21.17,0.5,28.5 c0.33,7.33,0.33,14.5,0,21.5 c-4.0,2.33,-8.0,3.83,-12,4.5 c-4.0,0.67,-8.0,1,-12,1 c-19.0,0,-35.92,-7.33,-50.75,-22 c-14.83,-14.67,-26.58,-34.58,-35.25,-59.75 c-8.67,-25.17,-13,-53.58,-13,-85.25 l0,-8 c0,-8.67,0.25,-17.08,0.75,-25.25 c0.5,-8.17,1.42,-17.08,2.75,-26.75 c8.0,-12.67,18.33,-22.67,31,-30 c12.67,-7.33,28.17,-11,46.5,-11 c18.0,0,33.25,5.5,45.75,16.5 c12.5,11.0,18.75,25.5,18.75,43.5 c0,5.67,-0.33,10.83,-1,15.5 l-27.5,0 c-18.0,0,-30.75,3.0,-38.25,9 c-7.5,6.0,-11.25,15.0,-11.25,27 c0,5.0,0.5,8.67,1.5,11 l108,0 c8.67,0,14.83,-3.17,18.5,-9.5 c3.67,-6.33,5.5,-17.33,5.5,-33 l0,-4.5 l-27.5,0 l-1,-3 c4.67,-3.67,8.08,-8.17,10.25,-13.5 c2.17,-5.33,3.25,-12.0,3.25,-20 c0,-13.0,-2.42,-24.83,-7.25,-35.5 c-4.83,-10.67,-11.08,-19.67,-18.75,-27 c-8.0,-8.0,-18.0,-14.58,-30,-19.75 c-12.0,-5.17,-26.0,-8.25,-42,-9.25 c-0.33,-8.67,-0.5,-17.67,-0.5,-27 c0,-13.0,1.0,-25.33,3,-37 c-3.33,-0.67,-7.42,-1.33,-12.25,-2 c-4.83,-0.67,-10.58,-1,-17.25,-1 c-8.33,0,-15.0,1.92,-20,5.75 c-5.0,3.83,-7.5,10.25,-7.5,19.25 Z M116.5,-51.5" fill="rgb(0,0,0)" transform="matrix(1.8018018018018018,0.0,0.0,-1.8018018018018018,217.11711711711712,812.1621621621622)"/>
</svg>