<?xml version="1.0" encoding="UTF-8"?>
<svg width="1000" height="1000" viewBox="0 0 1000 1000" version="1.1" xmlns="http://www.w3.org/2000/svg" xmlns:xlink="http://www.w3.org/1999/xlink">
 <path d="M81,2.5 l0,2 c-6.0,2.33,-11.17,4.92,-15.5,7.75 c-4.33,2.83,-7.83,5.58,-10.5,8.25 c-8.0,8.0,-12,17.17,-12,27.5 l0,250 c-4.67,-0.67,-7.83,-1,-9.5,-1 c-12.33,0,-18.5,11.67,-18.5,35 c0,7.0,0.67,13.0,2,18 c13.67,2.33,27.17,4.17,40.5,5.5 c13.33,1.33,26.33,2.33,39,3 c0.67,10.0,1.08,19.75,1.25,29.25 c0.17,9.5,0.25,18.08,0.25,25.75 c6.0,1.67,12.83,2.5,20.5,2.5 c7.67,0,13.67,-1.33,18,-4 c4.33,-2.67,6.5,-7.33,6.5,-14 c0,-4.67,-0.5,-10.17,-1.5,-16.5 c-1.0,-6.33,-2.5,-12.5,-4.5,-18.5 l0,-3 c3.33,0,6.83,0,10.5,0 c10.0,0,19.67,-0.83,29,-2.5 c0.67,10.33,1.08,20.5,1.25,30.5 c0.17,10.0,0.25,18.5,0.25,25.5 c2.67,0.67,5.5,1.25,8.5,1.75 c3.0,0.5,6.5,0.75,10.5,0.75 c7.67,0,13.67,-1.33,18,-4 c4.33,-2.67,6.5,-7.33,6.5,-14 c0,-6.33,-0.83,-14.08,-2.5,-23.25 c-1.67,-9.17,-4.17,-17.75,-7.5,-25.75 l0,-2.5 c18.33,-9.0,32.08,-21.33,41.25,-37 c9.17,-15.67,13.75,-32.17,13.75,-49.5 l0,-6.5 c0,-20.0,-4.75,-37.67,-14.25,-53 c-9.5,-15.33,-22.25,-27.83,-38.25,-37.5 l0,-3 c15.67,-5.33,27.83,-13.33,36.5,-24 c8.67,-10.67,13,-22.83,13,-36.5 l0,-6 c0,-22.67,-6.25,-41.5,-18.75,-56.5 c-12.5,-15.0,-28.92,-26.0,-49.25,-33 c-1.0,-12.67,-1.67,-25.33,-2,-38 c-0.33,-12.67,-0.5,-23.0,-0.5,-31 c-2.33,-0.33,-5.25,-0.75,-8.75,-1.25 c-3.5,-0.5,-7.08,-0.75,-10.75,-0.75 c-9.0,0,-15.25,1.33,-18.75,4 c-3.5,2.67,-5.25,6.83,-5.25,12.5 c0,4.67,0.58,10.92,1.75,18.75 c1.17,7.83,2.92,15.92,5.25,24.25 l0,3.5 c-6.0,-0.67,-12.17,-1,-18.5,-1 c-7.33,0,-14.5,0.33,-21.5,1 c-1.0,-11.67,-1.92,-23.08,-2.75,-34.25 c-0.83,-11.17,-1.25,-20.08,-1.25,-26.75 c-2.67,-0.33,-5.5,-0.75,-8.5,-1.25 c-3.0,-0.5,-6.83,-0.75,-11.5,-0.75 c-8.33,0,-14.33,1.42,-18,4.25 c-3.67,2.83,-5.5,7.42,-5.5,13.75 c0,7.0,1.0,15.0,3,24 c2.0,9.0,5.0,18.17,9,27.5 Z M99,258.5 l0,-73.5 c4.67,-1.67,11.5,-2.5,20.5,-2.5 c29.33,0,52.33,6.08,69,18.25 c16.67,12.17,25,29.92,25,53.25 l0,5 c0,15.0,-3.17,27.67,-9.5,38 c-8.33,3.67,-17.67,6.25,-28,7.75 c-10.33,1.5,-22.17,2.25,-35.5,2.25 c-10.0,0,-19.5,-0.33,-28.5,-1 c-9.0,-0.67,-17.5,-1.33,-25.5,-2 l-1,-3 c9.0,-9.0,13.5,-23.17,13.5,-42.5 Z M99,51.5 c4.33,-2.0,9.25,-3.5,14.75,-4.5 c5.5,-1.0,12.92,-1.5,22.25,-1.5 c21.0,0,38.67,4.33,53,13 c14.33,8.67,21.5,22.67,21.5,42 l0,5.5 c0,8.67,-2.5,16.5,-7.5,23.5 c-5.0,7.0,-12.83,13.17,-23.5,18.5 c-16.33,-4.67,-33.5,-7,-51.5,-7 c-11.67,0,-20.33,2.83,-26,8.5 l-3,-0.5 Z M99,51.5" fill="rgb(0,0,0)" transform="matrix(1.8633540372670807,0.0,0.0,-1.8633540372670807,237.7329192546584,825.1552795031056)"/>
</svg>