<?xml version="1.0" encoding="UTF-8"?>
<svg width="1000" height="1000" viewBox="0 0 1000 1000" version="1.1" xmlns="http://www.w3.org/2000/svg" xmlns:xlink="http://www.w3.org/1999/xlink">
 <path d="M85,6.5 l59,0 l0.5,2 c-3.33,2.0,-5.75,4.58,-7.25,7.75 c-1.5,3.17,-2.25,8.08,-2.25,14.75 l0,88.5 l-2,0 c-2.67,-5.67,-5.58,-11.33,-8.75,-17 c-3.17,-5.67,-6.58,-11.0,-10.25,-16 c-2.33,-3.33,-5.0,-6.17,-8,-8.5 c-3.0,-2.33,-6.33,-3.5,-10,-3.5 c-4.0,0,-7.42,2.5,-10.25,7.5 c-2.83,5.0,-4.25,13.83,-4.25,26.5 l0,12 c4.67,3.33,9.17,6.75,13.5,10.25 c4.33,3.5,8.33,7.42,12,11.75 c4.0,4.67,7.83,9.5,11.5,14.5 c3.67,5.0,6.83,10.17,9.5,15.5 c2.67,1.33,6.25,2.25,10.75,2.75 c4.5,0.5,8.75,0.75,12.75,0.75 c7.0,0,13.0,-0.92,18,-2.75 c5.0,-1.83,7.5,-5.75,7.5,-11.75 l0,-155 c28.0,-1.0,42,-9.33,42,-25 c0,-7.0,-0.67,-13.17,-2,-18.5 l-105.5,0 c-10.67,0,-18.17,2.42,-22.5,7.25 c-4.33,4.83,-6.5,11.75,-6.5,20.75 c0,3.33,0.25,6.17,0.75,8.5 c0.5,2.33,1.08,4.67,1.75,7 Z M85,6.5" fill="rgb(0,0,0)" transform="matrix(4.225352112676056,0.0,0.0,-4.225352112676056,-134.85915492957741,793.6619718309859)"/>
</svg>