<?xml version="1.0" encoding="UTF-8"?>
<svg width="1000" height="1000" viewBox="0 0 1000 1000" version="1.1" xmlns="http://www.w3.org/2000/svg" xmlns:xlink="http://www.w3.org/1999/xlink">
 <path d="M13,111.5 l30,0 l0,38.5 c-5.33,1.0,-10.33,2.0,-15,3 c-6.0,1.67,-10.33,4.67,-13,9 c-2.67,4.33,-4,10.67,-4,19 c0,7.67,0.67,14.0,2,19 c10.33,-1.67,20.33,-3.0,30,-4 l0,103 c-7.33,1.0,-12.5,3.83,-15.5,8.5 c-3.0,4.67,-4.5,11.17,-4.5,19.5 c0,7.67,1.0,15.5,3,23.5 c18.67,3.33,37.17,5.75,55.5,7.25 c18.33,1.5,38.0,2.25,59,2.25 c43.33,0,76.42,-9.33,99.25,-28 c22.83,-18.67,34.25,-43.83,34.25,-75.5 l0,-6 c0,-37.67,-11.83,-64.83,-35.5,-81.5 c-23.67,-16.67,-59.0,-25,-106,-25 c-12.0,0,-23.17,0.17,-33.5,0.5 l0,-33 l100.5,0 c12.33,0,20.83,-2.25,25.5,-6.75 c4.67,-4.5,7,-11.42,7,-20.75 c0,-5.33,-0.5,-10.0,-1.5,-14 l-131.5,0 l0,-20 c0,-8.33,0.25,-16.75,0.75,-25.25 c0.5,-8.5,1.75,-16.92,3.75,-25.25 c-3.33,-0.67,-6.33,-1.25,-9,-1.75 c-2.67,-0.5,-5.83,-0.75,-9.5,-0.75 c-14.67,0,-25.33,3.5,-32,10.5 c-6.67,7.0,-10,18.17,-10,33.5 l0,29 l-10.5,0 c-7.0,0,-12.33,1.75,-16,5.25 c-3.67,3.5,-5.5,9.75,-5.5,18.75 c0,6.67,0.67,12.5,2,17.5 Z M99,261.5 l0,-71 c12.0,-0.67,23.5,-1,34.5,-1 c27.33,0,48.33,5.0,63,15 c14.67,10.0,22,26.67,22,50 l0,3.5 c0,5.67,-0.58,11.25,-1.75,16.75 c-1.17,5.5,-3.25,10.92,-6.25,16.25 c-15.67,10.67,-38.33,16,-68,16 c-8.33,0,-17.08,-0.5,-26.25,-1.5 c-9.17,-1.0,-17.92,-2.0,-26.25,-3 l0,-3 c3.67,-6.0,6.08,-11.92,7.25,-17.75 c1.17,-5.83,1.75,-12.58,1.75,-20.25 Z M99,261.5" fill="rgb(0,0,0)" transform="matrix(2.479338842975207,0.0,0.0,-2.479338842975207,146.69421487603307,942.5619834710744)"/>
</svg>