<?xml version="1.0" encoding="UTF-8"?>
<svg width="1000" height="1000" viewBox="0 0 1000 1000" version="1.1" xmlns="http://www.w3.org/2000/svg" xmlns:xlink="http://www.w3.org/1999/xlink">
 <path d="M138,321 l13.5,0 c6.0,0,10.83,-1.33,14.5,-4 c2.33,-1.67,5.25,-4.17,8.75,-7.5 c3.5,-3.33,8.25,-9.67,14.25,-19 c17.67,-28.0,35.92,-59.67,54.75,-95 c18.83,-35.33,35.08,-72.0,48.75,-110 c-1.33,-10.0,-4.0,-16.67,-8,-20 c-4.0,-3.33,-10.83,-5.5,-20.5,-6.5 c-25.0,-2.33,-51.67,-3.92,-80,-4.75 c-28.33,-0.83,-56.75,-0.83,-85.25,0 c-28.5,0.83,-55.92,2.42,-82.25,4.75 c-6.0,3.33,-9,10.0,-9,20 c0,2.67,2.42,10.08,7.25,22.25 c4.83,12.17,11.5,27.25,20,45.25 c8.5,18.0,18.25,37.33,29.25,58 c11.0,20.67,22.83,41.17,35.5,61.5 c12.67,20.33,25.5,38.67,38.5,55 Z M138,321" fill="rgb(0,0,0)" transform="matrix(3.1578947368421053,0.0,0.0,-3.1578947368421053,26.31578947368422,1091.5131529605262)"/>
</svg>