<?xml version="1.0" encoding="UTF-8"?>
<svg width="1000" height="1000" viewBox="0 0 1000 1000" version="1.1" xmlns="http://www.w3.org/2000/svg" xmlns:xlink="http://www.w3.org/1999/xlink">
 <path d="M204,176.5 c-5.0,-1.0,-11.33,-1.5,-19,-1.5 c-7.67,0,-13.67,1.5,-18,4.5 c-4.33,3.0,-6.5,9.0,-6.5,18 l0,23 l-67,0 c-5.67,0,-10.67,3.33,-15,10 c-4.33,6.67,-6.5,14.5,-6.5,23.5 l0,2 c0,6.0,2.17,14.67,6.5,26 c4.33,11.33,9.67,23.42,16,36.25 c6.33,12.83,12.83,24.75,19.5,35.75 c6.67,11.0,12.5,19.33,17.5,25 c5.0,6.0,10.0,10.25,15,12.75 c5.0,2.5,10.67,3.75,17,3.75 c5.33,0,10.25,-0.92,14.75,-2.75 c4.5,-1.83,8.75,-4.42,12.75,-7.75 l0,-2.5 c-15.67,-16.0,-30.92,-35.0,-45.75,-57 c-14.83,-22.0,-26.42,-43.67,-34.75,-65 l0,-3 c8.67,1.67,16.92,2.83,24.75,3.5 c7.83,0.67,15.92,1,24.25,1 l1.5,0 c0.33,8.67,1.42,17.25,3.25,25.75 c1.83,8.5,4.58,16.92,8.25,25.25 l2,0 c7.33,0,13.58,-1.83,18.75,-5.5 c5.17,-3.67,7.75,-7.83,7.75,-12.5 l0,-33 l9,0 c7.0,0,11.83,-2.25,14.5,-6.75 c2.67,-4.5,4,-10.58,4,-18.25 c0,-6.0,-0.83,-11.5,-2.5,-16.5 l-25,0 l0,-16.5 c0,-11.33,1.0,-20.5,3,-27.5 Z M204,176.5" fill="rgb(0,0,0)" transform="matrix(4.081632653061225,0.0,0.0,-4.081632653061225,-113.26530612244903,1664.2857142857142)"/>
</svg>