<?xml version="1.0" encoding="UTF-8"?>
<svg width="1000" height="1000" viewBox="0 0 1000 1000" version="1.1" xmlns="http://www.w3.org/2000/svg" xmlns:xlink="http://www.w3.org/1999/xlink">
 <path d="M33,350 c7.33,2.33,16.5,3.5,27.5,3.5 c10.0,0,17.25,-3.17,21.75,-9.5 c4.5,-6.33,6.58,-18.5,6.25,-36.5 c0,-9.33,0,-18.33,0,-27 c0,-8.67,0,-17.17,0,-25.5 l44,0 c0,6.33,0,12.92,0,19.75 c0,6.83,0,13.92,0,21.25 l11.5,0 c17.67,0,26.5,-8.0,26.5,-24 c0,-6.0,0,-11.67,0,-17 l44,0 c-0.33,14.0,-0.67,28.83,-1,44.5 c-0.33,15.67,-0.83,32.5,-1.5,50.5 c3.67,1.0,7.42,1.83,11.25,2.5 c3.83,0.67,7.92,1,12.25,1 c11.67,0,19.75,-3.33,24.25,-10 c4.5,-6.67,6.75,-19.33,6.75,-38 c0,-18.33,-0.17,-35.17,-0.5,-50.5 l1,0 c9.33,0,16.0,-2.83,20,-8.5 c4.0,-5.67,6,-13.5,6,-23.5 c0,-4.0,-0.25,-7.42,-0.75,-10.25 c-0.5,-2.83,-1.08,-5.42,-1.75,-7.75 c-6.0,0,-14.5,0.67,-25.5,2 c-0.67,-24.33,-1.83,-45.83,-3.5,-64.5 l7,0 c9.33,0,15.75,-1.83,19.25,-5.5 c3.5,-3.67,5.25,-9.67,5.25,-18 c0,-3.33,-0.25,-7.25,-0.75,-11.75 c-0.5,-4.5,-1.08,-8.08,-1.75,-10.75 l-35,0 c-3.33,-18.67,-7.5,-35.75,-12.5,-51.25 c-5.0,-15.5,-11.17,-31.08,-18.5,-46.75 c-2.0,-0.33,-4.33,-0.75,-7,-1.25 c-2.67,-0.5,-5.67,-0.75,-9,-0.75 c-5.33,0,-9.83,0.92,-13.5,2.75 c-3.67,1.83,-7.0,5.58,-10,11.25 c-6.0,10.33,-11.83,23.92,-17.5,40.75 c-5.67,16.83,-10.5,38.58,-14.5,65.25 l-3,0 c-4.33,-27.67,-9.92,-50.58,-16.75,-68.75 c-6.83,-18.17,-14.75,-34.58,-23.75,-49.25 c-2.0,-0.33,-4.17,-0.75,-6.5,-1.25 c-2.33,-0.5,-5.0,-0.75,-8,-0.75 c-6.33,0,-11.42,1.17,-15.25,3.5 c-3.83,2.33,-7.25,6.67,-10.25,13 c-5.0,10.33,-9.5,21.92,-13.5,34.75 c-4.0,12.83,-7.5,29.08,-10.5,48.75 l-12,0 c-10.0,0,-16.92,3.0,-20.75,9 c-3.83,6.0,-5.75,13.83,-5.75,23.5 c0,2.67,0.08,5.17,0.25,7.5 c0.17,2.33,0.42,4.33,0.75,6 l32,0 c-1.33,19.0,-2.5,40.33,-3.5,64 c-3.33,-0.33,-6.17,-0.5,-8.5,-0.5 c-8.33,0,-13.92,2.42,-16.75,7.25 c-2.83,4.83,-4.25,12.58,-4.25,23.25 c0,2.67,0.25,5.83,0.75,9.5 c0.5,3.67,1.08,6.67,1.75,9 l26,0 c-0.33,11.67,-0.5,23.83,-0.5,36.5 c0,11.33,-0.17,21.83,-0.5,31.5 c-0.33,9.67,-0.83,18.67,-1.5,27 Z M197.5,53.5 l4,0 c4.67,22.0,8.08,45.42,10.25,70.25 c2.17,24.83,3.25,55.08,3.25,90.75 c-14.33,2.33,-29.0,5.17,-44,8.5 c1.0,-37.67,3.42,-70.42,7.25,-98.25 c3.83,-27.83,10.25,-51.58,19.25,-71.25 Z M100.5,53.5 l4,0 c9.33,21.67,15.92,45.58,19.75,71.75 c3.83,26.17,6.25,58.25,7.25,96.25 c-14.0,-3.0,-28.33,-5.83,-43,-8.5 c0.33,-36.33,1.33,-67.25,3,-92.75 c1.67,-25.5,4.67,-47.75,9,-66.75 Z M100.5,53.5" fill="rgb(0,0,0)" transform="matrix(2.5210084033613445,0.0,0.0,-2.5210084033613445,121.84873949579833,941.1764705882354)"/>
</svg>