<?xml version="1.0" encoding="UTF-8"?>
<svg width="1000" height="1000" viewBox="0 0 1000 1000" version="1.1" xmlns="http://www.w3.org/2000/svg" xmlns:xlink="http://www.w3.org/1999/xlink">
 <path d="M229,7 l0,-3 c-4.67,-1.67,-9.83,-2.92,-15.5,-3.75 c-5.67,-0.83,-12.83,-1.25,-21.5,-1.25 c-9.67,0,-17.42,1.5,-23.25,4.5 c-5.83,3.0,-12.08,8.0,-18.75,15 c-7.67,8.33,-15.83,19.17,-24.5,32.5 c-8.67,13.33,-16.83,27.42,-24.5,42.25 c-7.67,14.83,-14.0,28.58,-19,41.25 c-3.67,9.67,-6.08,17.42,-7.25,23.25 c-1.17,5.83,-1.75,11.92,-1.75,18.25 c0,7.0,0.5,13.17,1.5,18.5 c11.0,30.33,23.67,57.25,38,80.75 c14.33,23.5,27.33,42.92,39,58.25 c5.67,7.33,11.08,12.25,16.25,14.75 c5.17,2.5,11.92,3.75,20.25,3.75 c6.67,0,13.58,-0.33,20.75,-1 c7.17,-0.67,13.92,-1.83,20.25,-3.5 l0,-3 c-18.33,-23.67,-36.58,-50.42,-54.75,-80.25 c-18.17,-29.83,-33.25,-59.25,-45.25,-88.25 c12.0,-32.33,27.08,-62.92,45.25,-91.75 c18.17,-28.83,36.42,-54.58,54.75,-77.25 Z M229,7" fill="rgb(0,0,0)" transform="matrix(2.54957507082153,0.0,0.0,-2.54957507082153,115.01416430594898,947.4504249291786)"/>
</svg>