<?xml version="1.0" encoding="UTF-8"?>
<svg width="1000" height="1000" viewBox="0 0 1000 1000" version="1.1" xmlns="http://www.w3.org/2000/svg" xmlns:xlink="http://www.w3.org/1999/xlink">
 <path d="M205.5,-8 c-21.67,0,-38.67,3.08,-51,9.25 c-12.33,6.17,-22.67,16.42,-31,30.75 c-5.0,8.67,-9.5,18.67,-13.5,30 c-4.0,11.33,-7.5,23.0,-10.5,35 l-1,0 c-13.0,0,-22.67,3.33,-29,10 l-3,0 l0,-62.5 c0,-9.33,0.17,-17.58,0.5,-24.75 c0.33,-7.17,1.17,-13.92,2.5,-20.25 c-4.67,-1.67,-11.83,-2.5,-21.5,-2.5 c-8.67,0,-14.92,2.42,-18.75,7.25 c-3.83,4.83,-5.75,13.08,-5.75,24.75 l0,268 c-5.0,0.67,-8.83,3.42,-11.5,8.25 c-2.67,4.83,-4,13.75,-4,26.75 c0,3.33,0.08,6.5,0.25,9.5 c0.17,3.0,0.42,5.83,0.75,8.5 c9.33,3.33,19.17,5.83,29.5,7.5 c10.33,1.67,22.17,2.5,35.5,2.5 c31.67,0,54.17,-8.92,67.5,-26.75 c13.33,-17.83,20,-45.58,20,-83.25 l0,-22 c0,-35.0,-3.25,-62.08,-9.75,-81.25 c-6.5,-19.17,-14.75,-32.58,-24.75,-40.25 c4.67,-12.0,10.17,-22.5,16.5,-31.5 c7.67,-12.0,16.0,-20.17,25,-24.5 c9.0,-4.33,20.83,-6.5,35.5,-6.5 c26.33,0,42.33,8.0,48,24 c-0.33,9.67,-2.42,18.08,-6.25,25.25 c-3.83,7.17,-10.75,13.92,-20.75,20.25 l-13.5,8.5 c-13.0,8.0,-22.25,17.0,-27.75,27 c-5.5,10.0,-8.25,24.5,-8.25,43.5 c0,24.0,5.58,43.42,16.75,58.25 c11.17,14.83,27.25,22.25,48.25,22.25 c10.33,0,18.33,-1.5,24,-4.5 c5.67,-3.0,10.0,-6.5,13,-10.5 c2.67,-4.0,4.42,-8.33,5.25,-13 c0.83,-4.67,1.25,-9.67,1.25,-15 c0,-4.33,-0.25,-8.17,-0.75,-11.5 c-0.5,-3.33,-1.08,-6.33,-1.75,-9 l-3,0 c-9.33,7.0,-20.83,10.5,-34.5,10.5 c-10.0,0,-17.83,-3.17,-23.5,-9.5 c-5.67,-6.33,-8.5,-14.17,-8.5,-23.5 c0,-9.33,2.17,-17.0,6.5,-23 c4.33,-6.0,12.83,-12.83,25.5,-20.5 l9.5,-6 c14.67,-8.33,24.58,-18.08,29.75,-29.25 c5.17,-11.17,7.75,-25.92,7.75,-44.25 c0,-23.33,-7.33,-41.17,-22,-53.5 c-14.67,-12.33,-35.83,-18.5,-63.5,-18.5 Z M66.5,264 l0,-119 c5.0,-1.0,10.33,-1.5,16,-1.5 c13.67,0,23.92,5.83,30.75,17.5 c6.83,11.67,10.25,32.17,10.25,61.5 l0,10 c0,15.67,-0.58,29.17,-1.75,40.5 c-1.17,11.33,-3.58,20.67,-7.25,28 c-6.33,4.0,-17.83,6,-34.5,6 c-4.0,0,-7.92,-0.25,-11.75,-0.75 c-3.83,-0.5,-7.42,-1.25,-10.75,-2.25 l0,-3.5 c4.0,-5.33,6.5,-10.67,7.5,-16 c1.0,-5.33,1.5,-12.17,1.5,-20.5 Z M66.5,264" fill="rgb(0,0,0)" transform="matrix(2.4456521739130435,0.0,0.0,-2.4456521739130435,134.375,930.4347826086956)"/>
</svg>