<?xml version="1.0" encoding="UTF-8"?>
<svg width="1000" height="1000" viewBox="0 0 1000 1000" version="1.1" xmlns="http://www.w3.org/2000/svg" xmlns:xlink="http://www.w3.org/1999/xlink">
 <path d="M162,44 l-13.5,0 c-6.0,0,-10.83,1.33,-14.5,4 c-2.33,1.67,-5.25,4.17,-8.75,7.5 c-3.5,3.33,-8.25,9.67,-14.25,19 c-17.67,28.0,-35.92,59.67,-54.75,95 c-18.83,35.33,-35.08,72.0,-48.75,110 c1.33,10.0,4.0,16.67,8,20 c4.0,3.33,10.83,5.5,20.5,6.5 c25.33,2.33,52.08,3.92,80.25,4.75 c28.17,0.83,56.5,0.83,85,0 c28.5,-0.83,55.92,-2.42,82.25,-4.75 c6.0,-3.33,9,-10.0,9,-20 c0,-2.67,-2.42,-10.08,-7.25,-22.25 c-4.83,-12.17,-11.5,-27.25,-20,-45.25 c-8.5,-18.0,-18.25,-37.33,-29.25,-58 c-11.0,-20.67,-22.83,-41.17,-35.5,-61.5 c-12.67,-20.33,-25.5,-38.67,-38.5,-55 Z M162,44" fill="rgb(0,0,0)" transform="matrix(3.1578947368421053,0.0,0.0,-3.1578947368421053,26.31578947368422,1061.118425986842)"/>
</svg>