<?xml version="1.0" encoding="UTF-8"?>
<svg width="1000" height="1000" viewBox="0 0 1000 1000" version="1.1" xmlns="http://www.w3.org/2000/svg" xmlns:xlink="http://www.w3.org/1999/xlink">
 <path d="M10,285 l268.5,0 c4.0,0,6.92,-2.5,8.75,-7.5 c1.83,-5.0,2.75,-11.83,2.75,-20.5 l0,-252 l-268.5,0 c-4.0,0,-6.92,2.5,-8.75,7.5 c-1.83,5.0,-2.75,11.83,-2.75,20.5 Z M37.5,251.5 c2.33,-20.33,3.92,-42.83,4.75,-67.5 c0.83,-24.67,1.17,-49.5,1,-74.5 c-0.17,-25.0,-0.92,-48.67,-2.25,-71 l221.5,0 c-2.0,20.67,-3.5,43.25,-4.5,67.75 c-1.0,24.5,-1.33,49.33,-1,74.5 c0.33,25.17,1.0,48.75,2,70.75 Z M37.5,251.5" fill="rgb(0,0,0)" transform="matrix(3.2142857142857144,0.0,0.0,-3.2142857142857144,17.857142857142833,966.0714285714286)"/>
</svg>