<?xml version="1.0" encoding="UTF-8"?>
<svg width="1000" height="1000" viewBox="0 0 1000 1000" version="1.1" xmlns="http://www.w3.org/2000/svg" xmlns:xlink="http://www.w3.org/1999/xlink">
 <path d="M149,394 c25.33,0,44.08,-8.58,56.25,-25.75 c12.17,-17.17,18.25,-41.92,18.25,-74.25 l0,-5 c0,-29.33,-3.83,-52.25,-11.5,-68.75 c-7.67,-16.5,-18.17,-28.08,-31.5,-34.75 c-13.33,-6.67,-28.83,-10,-46.5,-10 c-10.0,0,-18.25,0.92,-24.75,2.75 c-6.5,1.83,-11.08,3.92,-13.75,6.25 c-4.0,4.33,-6,10.67,-6,19 c0,7.67,1.33,15.0,4,22 l3,0 c5.67,-3.33,12.33,-5.75,20,-7.25 c7.67,-1.5,15.17,-2.25,22.5,-2.25 c13.33,0,24.67,2.0,34,6 c2.67,6.0,4.75,13.25,6.25,21.75 c1.5,8.5,2.58,18.08,3.25,28.75 l-2,0 c-5.0,-6.0,-11.25,-10.17,-18.75,-12.5 c-7.5,-2.33,-16.25,-3.5,-26.25,-3.5 c-18.0,0,-32.33,5.0,-43,15 c-10.67,10.0,-16,25.67,-16,47 l0,4 c0,19.67,6.08,36.5,18.25,50.5 c12.17,14.0,30.25,21,54.25,21 Z M119.5,295.5 c3.33,-1.67,7.17,-2.83,11.5,-3.5 c4.33,-0.67,9.5,-1,15.5,-1 c5.67,0,11.58,0.5,17.75,1.5 c6.17,1.0,12.42,2.67,18.75,5 l0,2.5 c0,19.0,-2.83,35.33,-8.5,49 c-3.67,1.67,-7.67,2.83,-12,3.5 c-4.33,0.67,-9.5,1,-15.5,1 c-11.33,0,-19.58,-3.08,-24.75,-9.25 c-5.17,-6.17,-7.75,-14.08,-7.75,-23.75 l0,-2.5 c0,-5.0,0.42,-9.08,1.25,-12.25 c0.83,-3.17,2.08,-6.58,3.75,-10.25 Z M119.5,295.5" fill="rgb(0,0,0)" transform="matrix(4.118993135011442,0.0,0.0,-4.118993135011442,-117.84897025171625,1672.883295194508)"/>
</svg>