<?xml version="1.0" encoding="UTF-8"?>
<svg width="1000" height="1000" viewBox="0 0 1000 1000" version="1.1" xmlns="http://www.w3.org/2000/svg" xmlns:xlink="http://www.w3.org/1999/xlink">
 <path d="M14,231.5 l150,0 c19.67,10.0,29.5,22.83,29.5,38.5 c0,11.0,-4.67,20.17,-14,27.5 c-9.33,7.33,-26.17,11,-50.5,11 c-20.33,0,-37.0,-2.08,-50,-6.25 c-13.0,-4.17,-24.0,-10.08,-33,-17.75 l-3,0 c-1.0,3.0,-1.92,6.33,-2.75,10 c-0.83,3.67,-1.25,7.83,-1.25,12.5 c0,5.67,0.67,11.08,2,16.25 c1.33,5.17,4.33,9.92,9,14.25 c6.0,6.67,16.33,12.08,31,16.25 c14.67,4.17,32.17,6.25,52.5,6.25 c28.67,0,51.17,-3.33,67.5,-10 c16.33,-6.67,28.0,-15.42,35,-26.25 c7.0,-10.83,10.5,-22.42,10.5,-34.75 l0,-4.5 c0,-11.33,-2.67,-21.33,-8,-30 c-5.33,-8.67,-14.0,-15.33,-26,-20 l0,-3 l35.5,0 c13.0,0,21.83,-2.33,26.5,-7 c4.67,-4.67,7,-11.33,7,-20 c0,-6.67,-0.67,-12.0,-2,-16 l-225,0 c-16.67,0,-27.67,2.67,-33,8 c-5.33,5.33,-8,12.5,-8,21.5 c0,2.67,0,5.0,0,7 c0,2.0,0.17,4.17,0.5,6.5 Z M73.5,111.5 l0,3 l-19.5,0 c-16.67,0,-27.67,2.67,-33,8 c-5.33,5.33,-8,12.5,-8,21.5 c0,2.33,0.08,4.5,0.25,6.5 c0.17,2.0,0.42,4.17,0.75,6.5 l233.5,0 c13.0,0,21.83,-2.25,26.5,-6.75 c4.67,-4.5,7,-11.08,7,-19.75 c0,-6.67,-0.5,-12.0,-1.5,-16 l-152.5,0 c-11.33,-6.0,-19.08,-12.25,-23.25,-18.75 c-4.17,-6.5,-6.25,-13.58,-6.25,-21.25 c0,-10.33,4.67,-18.33,14,-24 c9.33,-5.67,26.5,-8.5,51.5,-8.5 c22.0,0,39.83,2.58,53.5,7.75 c13.67,5.17,24.83,12.92,33.5,23.25 l3,0 c1.67,-4.0,2.83,-8.08,3.5,-12.25 c0.67,-4.17,1,-8.75,1,-13.75 c0,-7.0,-1.17,-12.92,-3.5,-17.75 c-2.33,-4.83,-5.83,-9.42,-10.5,-13.75 c-8.33,-7.33,-20.0,-13.08,-35,-17.25 c-15.0,-4.17,-34.17,-6.25,-57.5,-6.25 c-71.67,0,-107.5,20.83,-107.5,62.5 l0,4 c0,9.67,2.17,19.08,6.5,28.25 c4.33,9.17,12.17,17.42,23.5,24.75 Z M73.5,111.5" fill="rgb(0,0,0)" transform="matrix(2.4456521739130435,0.0,0.0,-2.4456521739130435,139.87771739130437,930.4347826086956)"/>
</svg>