<?xml version="1.0" encoding="UTF-8"?>
<svg width="1000" height="1000" viewBox="0 0 1000 1000" version="1.1" xmlns="http://www.w3.org/2000/svg" xmlns:xlink="http://www.w3.org/1999/xlink">
 <path d="M33.5,352.5 c3.67,0.67,7.25,1.25,10.75,1.75 c3.5,0.5,7.42,0.75,11.75,0.75 c13.67,0,23.5,-3.42,29.5,-10.25 c6.0,-6.83,9,-17.42,9,-31.75 l0,-213 c-1.33,-0.33,-3.08,-0.5,-5.25,-0.5 c-2.17,0,-4.58,0,-7.25,0 c-15.33,0,-26.42,3.0,-33.25,9 c-6.83,6.0,-10.25,16.67,-10.25,32 l0,156.5 c0,9.67,-0.33,19.08,-1,28.25 c-0.67,9.17,-2.0,18.25,-4,27.25 Z M149,43 c11.67,0,22.08,1.17,31.25,3.5 c9.17,2.33,16.75,5.5,22.75,9.5 c3.33,8.0,5.58,16.5,6.75,25.5 c1.17,9.0,1.75,20.17,1.75,33.5 l0,184.5 l-4.5,3 c-10.33,-2.67,-20.92,-4.75,-31.75,-6.25 c-10.83,-1.5,-21.42,-2.25,-31.75,-2.25 c-7.33,0,-12.5,2.92,-15.5,8.75 c-3.0,5.83,-4.5,14.58,-4.5,26.25 c0,8.33,0.83,15.33,2.5,21 c14.67,0.67,29.75,1.33,45.25,2 c15.5,0.67,30.92,1,46.25,1 c17.67,0,30.33,-2.67,38,-8 c7.67,-5.33,11.5,-13.33,11.5,-24 l0,-212.5 c0,-21.67,-4.58,-41.5,-13.75,-59.5 c-9.17,-18.0,-22.83,-32.33,-41,-43 c-18.17,-10.67,-41.08,-16,-68.75,-16 c-18.67,0,-36.08,1.75,-52.25,5.25 c-16.17,3.5,-28.58,8.92,-37.25,16.25 c-4.0,3.67,-7.0,8.17,-9,13.5 c-2.0,5.33,-3,12.17,-3,20.5 c0,5.67,0.25,10.5,0.75,14.5 c0.5,4.0,1.08,7.67,1.75,11 l3,0 c16.0,-10.33,32.08,-17.58,48.25,-21.75 c16.17,-4.17,33.92,-6.25,53.25,-6.25 Z M92,465 c17.0,0,30.83,-1.83,41.5,-5.5 c4.0,-1.33,6.5,-3.75,7.5,-7.25 c1.0,-3.5,0.67,-7.08,-1,-10.75 c-4.0,-10.67,-9.92,-20.17,-17.75,-28.5 c-7.83,-8.33,-17.25,-15.67,-28.25,-22 c-5.0,-2.67,-9.83,-4.5,-14.5,-5.5 c-4.67,-1.0,-10.17,-1.5,-16.5,-1.5 c-5.67,0,-11.0,0.5,-16,1.5 c-5.0,1.0,-10.33,2.83,-16,5.5 c15.67,11.33,28.67,22.92,39,34.75 c10.33,11.83,17.67,24.92,22,39.25 Z M253,465 c17.0,0,30.83,-1.83,41.5,-5.5 c4.0,-1.33,6.5,-3.75,7.5,-7.25 c1.0,-3.5,0.67,-7.08,-1,-10.75 c-4.0,-10.67,-9.92,-20.17,-17.75,-28.5 c-7.83,-8.33,-17.25,-15.67,-28.25,-22 c-5.0,-2.67,-9.83,-4.5,-14.5,-5.5 c-4.67,-1.0,-10.17,-1.5,-16.5,-1.5 c-5.67,0,-11.0,0.5,-16,1.5 c-5.0,1.0,-10.33,2.83,-16,5.5 c15.67,11.33,28.67,22.92,39,34.75 c10.33,11.83,17.67,24.92,22,39.25 Z M253,465" fill="rgb(0,0,0)" transform="matrix(1.894736842105263,0.0,0.0,-1.894736842105263,183.99341688938847,931.0526315789474)"/>
</svg>