<?xml version="1.0" encoding="UTF-8"?>
<svg width="1000" height="1000" viewBox="0 0 1000 1000" version="1.1" xmlns="http://www.w3.org/2000/svg" xmlns:xlink="http://www.w3.org/1999/xlink">
 <path d="M0,-125 l0,535 l300,0 l0,-535 Z M269.5,322.5 c0,12.0,-1.83,20.42,-5.5,25.25 c-3.67,4.83,-10.33,7.25,-20,7.25 l-213.5,0 l0,-327 c0,-12.0,1.92,-20.33,5.75,-25 c3.83,-4.67,10.42,-7,19.75,-7 l213.5,0 Z M118,154.5 c-8.33,-19.0,-14.75,-34.17,-19.25,-45.5 c-4.5,-11.33,-7.58,-21.33,-9.25,-30 l-3,0 l0,225.5 l104.5,0 c-6.0,-16.0,-13.0,-32.83,-21,-50.5 c-8.0,-17.67,-16.5,-35.08,-25.5,-52.25 c-9.0,-17.17,-17.83,-32.92,-26.5,-47.25 Z M192,201.5 c4.67,10.67,8.58,22.17,11.75,34.5 c3.17,12.33,5.42,23.17,6.75,32.5 l3,0 l0,-222.5 l-105.5,0 c10.0,16.0,20.33,33.33,31,52 c10.67,18.67,20.67,37.08,30,55.25 c9.33,18.17,17.0,34.25,23,48.25 Z M192,201.5" fill="rgb(0,0,0)" transform="matrix(1.6822429906542056,0.0,0.0,-1.6822429906542056,247.66355140186917,739.7196261682243)"/>
</svg>