<?xml version="1.0" encoding="UTF-8"?>
<svg width="1000" height="1000" viewBox="0 0 1000 1000" version="1.1" xmlns="http://www.w3.org/2000/svg" xmlns:xlink="http://www.w3.org/1999/xlink">
 <path d="M51.5,269.5 c14.67,0,26.17,-4.42,34.5,-13.25 c8.33,-8.83,12.5,-26.58,12.5,-53.25 c0,-20.67,-1.0,-40.58,-3,-59.75 c-2.0,-19.17,-5.0,-41.25,-9,-66.25 c6.67,-16.33,16.0,-24.5,28,-24.5 c17.0,0,33.75,9.58,50.25,28.75 c16.5,19.17,30.25,49.42,41.25,90.75 l0,95.5 c2.67,0.67,5.08,1.08,7.25,1.25 c2.17,0.17,4.75,0.25,7.75,0.25 c13.67,0,23.33,-3.0,29,-9 c5.67,-6.0,8.5,-14.83,8.5,-26.5 l0,-186 c0,-9.67,0.58,-18.42,1.75,-26.25 c1.17,-7.83,3.25,-14.92,6.25,-21.25 c-2.67,-0.67,-5.33,-1.17,-8,-1.5 c-2.67,-0.33,-5.33,-0.5,-8,-0.5 c-12.33,0,-22.83,4.75,-31.5,14.25 c-8.67,9.5,-13,26.58,-13,51.25 l0,21.5 l-3,0 c-7.33,-17.33,-16.5,-32.75,-27.5,-46.25 c-11.0,-13.5,-23.08,-24.17,-36.25,-32 c-13.17,-7.83,-26.75,-11.75,-40.75,-11.75 c-11.0,0,-20.92,3.83,-29.75,11.5 c-8.83,7.67,-15.75,17.42,-20.75,29.25 c-5.0,11.83,-7.5,24.08,-7.5,36.75 l0,123 c0,14.33,-0.58,26.67,-1.75,37 c-1.17,10.33,-3.42,22.0,-6.75,35 c5.67,1.33,12.17,2,19.5,2 Z M150,424.5 c18.0,0,32.75,-5.42,44.25,-16.25 c11.5,-10.83,17.25,-25.08,17.25,-42.75 l0,-3.5 c0,-18.33,-6.08,-33.25,-18.25,-44.75 c-12.17,-11.5,-27.58,-17.25,-46.25,-17.25 c-17.67,0,-32.33,5.5,-44,16.5 c-11.67,11.0,-17.5,25.33,-17.5,43 l0,3.5 c0,18.0,6.08,32.75,18.25,44.25 c12.17,11.5,27.58,17.25,46.25,17.25 Z M150.5,392.5 c-19.67,0,-29.5,-9.33,-29.5,-28 l0,-3.5 c0,-8.33,2.33,-14.83,7,-19.5 c5.67,-3.67,12.17,-5.5,19.5,-5.5 c9.0,0,16.0,2.42,21,7.25 c5.0,4.83,7.5,11.42,7.5,19.75 l0,3.5 c0,8.67,-2.67,15.5,-8,20.5 c-5.0,3.67,-10.83,5.5,-17.5,5.5 Z M150.5,392.5" fill="rgb(0,0,0)" transform="matrix(2.0954598370197903,0.0,0.0,-2.0954598370197903,187.25261932479629,939.5227008149011)"/>
</svg>