<?xml version="1.0" encoding="UTF-8"?>
<svg width="1000" height="1000" viewBox="0 0 1000 1000" version="1.1" xmlns="http://www.w3.org/2000/svg" xmlns:xlink="http://www.w3.org/1999/xlink">
 <path d="M47,270.5 c12.0,0,21.33,-2.0,28,-6 c6.67,-4.0,10.33,-10.67,11,-20 c3.0,-34.67,6.75,-64.83,11.25,-90.5 c4.5,-25.67,10.5,-47.92,18,-66.75 c7.5,-18.83,17.25,-35.42,29.25,-49.75 l4,0 c14.67,17.33,26.58,36.5,35.75,57.5 c9.17,21.0,16.17,45.58,21,73.75 c4.83,28.17,7.75,61.08,8.75,98.75 c7.0,2.0,14.33,3,22,3 c24.67,0,36.0,-12.0,34,-36 c-5.0,-56.33,-15.75,-104.58,-32.25,-144.75 c-16.5,-40.17,-38.58,-71.08,-66.25,-92.75 c-3.33,-0.67,-7.42,-1.17,-12.25,-1.5 c-4.83,-0.33,-9.58,-0.5,-14.25,-0.5 c-8.0,0,-14.83,1.33,-20.5,4 c-5.67,2.67,-11.67,7.5,-18,14.5 c-15.0,17.0,-27.67,37.0,-38,60 c-10.33,23.0,-18.75,50.42,-25.25,82.25 c-6.5,31.83,-11.92,69.08,-16.25,111.75 c2.67,1.0,5.92,1.75,9.75,2.25 c3.83,0.5,7.25,0.75,10.25,0.75 Z M47,270.5" fill="rgb(0,0,0)" transform="matrix(3.266787658802178,0.0,0.0,-3.266787658802178,14.514512767133567,933.6660617059891)"/>
</svg>