<?xml version="1.0" encoding="UTF-8"?>
<svg width="1000" height="1000" viewBox="0 0 1000 1000" version="1.1" xmlns="http://www.w3.org/2000/svg" xmlns:xlink="http://www.w3.org/1999/xlink">
 <path d="M34.5,267 l198.5,0 c6.67,0,12.42,-2.25,17.25,-6.75 c4.83,-4.5,8.67,-10.08,11.5,-16.75 c2.83,-6.67,4.25,-13.33,4.25,-20 l0,-2.5 c0,-4.33,-3.5,-11.92,-10.5,-22.75 c-7.0,-10.83,-16.75,-23.5,-29.25,-38 c-12.5,-14.5,-26.83,-29.5,-43,-45 c-16.17,-15.5,-33.25,-30.08,-51.25,-43.75 c-4.33,-3.0,-9.33,-6.25,-15,-9.75 c-5.67,-3.5,-10.33,-6.58,-14,-9.25 l0,-3 c8.67,1.33,17.58,2.25,26.75,2.75 c9.17,0.5,18.42,0.75,27.75,0.75 l82,0 c10.33,0,17.33,-2.58,21,-7.75 c3.67,-5.17,5.5,-13.58,5.5,-25.25 c0,-3.33,-0.17,-6.83,-0.5,-10.5 c-0.33,-3.67,-0.83,-6.83,-1.5,-9.5 l-207.5,0 c-9.0,0,-15.08,4.42,-18.25,13.25 c-3.17,8.83,-4.75,19.08,-4.75,30.75 l0,4.5 c26.67,19.33,53.33,41.17,80,65.5 c26.67,24.33,49.33,48.83,68,73.5 c3.67,4.33,7.25,8.92,10.75,13.75 c3.5,4.83,6.58,9.42,9.25,13.75 l-0.5,3 c-11.0,-1.67,-22.0,-2.75,-33,-3.25 c-11.0,-0.5,-22.5,-0.75,-34.5,-0.75 l-75,0 c-9.33,0,-15.83,3.5,-19.5,10.5 c-3.67,7.0,-5.5,16.67,-5.5,29 c0,2.67,0.08,5.08,0.25,7.25 c0.17,2.17,0.42,4.25,0.75,6.25 Z M181.5,407 c17.0,0,30.0,-2.17,39,-6.5 c4.0,-2.0,6.58,-4.92,7.75,-8.75 c1.17,-3.83,1.08,-7.75,-0.25,-11.75 c-3.33,-12.33,-9.17,-23.5,-17.5,-33.5 c-8.33,-10.0,-17.67,-18.17,-28,-24.5 c-9.67,-6.0,-20.83,-9,-33.5,-9 c-4.67,0,-9.25,0.58,-13.75,1.75 c-4.5,1.17,-8.58,3.08,-12.25,5.75 c15.67,13.67,28.25,27.08,37.75,40.25 c9.5,13.17,16.42,28.58,20.75,46.25 Z M181.5,407" fill="rgb(0,0,0)" transform="matrix(2.211302211302211,0.0,0.0,-2.211302211302211,168.85749385749386,950.0)"/>
</svg>