<?xml version="1.0" encoding="UTF-8"?>
<svg width="1000" height="1000" viewBox="0 0 1000 1000" version="1.1" xmlns="http://www.w3.org/2000/svg" xmlns:xlink="http://www.w3.org/1999/xlink">
 <path d="M151.5,360 c23.33,0,43.83,-7.17,61.5,-21.5 c17.67,-14.33,31.5,-34.92,41.5,-61.75 c10.0,-26.83,15,-59.08,15,-96.75 l0,-22.5 c0,-35.0,-5.25,-65.0,-15.75,-90 c-10.5,-25.0,-24.75,-44.17,-42.75,-57.5 c-18.0,-13.33,-38.67,-20,-62,-20 c-23.0,0,-43.42,6.58,-61.25,19.75 c-17.83,13.17,-31.83,32.17,-42,57 c-10.17,24.83,-15.25,54.58,-15.25,89.25 l0,22.5 c0,38.0,5.25,70.5,15.75,97.5 c10.5,27.0,24.92,47.75,43.25,62.25 c18.33,14.5,39.0,21.75,62,21.75 Z M158.5,307 c-16.33,0,-30.08,-6.0,-41.25,-18 c-11.17,-12.0,-19.58,-28.33,-25.25,-49 c-5.67,-20.67,-8.5,-44.0,-8.5,-70 l0,-22 c0,-7.67,0.33,-15.0,1,-22 l5,0 c3.33,6.0,7.5,11.75,12.5,17.25 c5.0,5.5,11.5,11.92,19.5,19.25 c10.33,9.33,22.75,21.83,37.25,37.5 c14.5,15.67,30.75,35.5,48.75,59.5 c-2.67,9.67,-6.33,18.42,-11,26.25 c-4.67,7.83,-10.33,14.42,-17,19.75 c-3.0,0.67,-6.25,1.08,-9.75,1.25 c-3.5,0.17,-7.25,0.25,-11.25,0.25 Z M117.5,44.5 c3.33,-0.67,7.0,-1.08,11,-1.25 c4.0,-0.17,8.33,-0.25,13,-0.25 c16.67,0,30.5,5.42,41.5,16.25 c11.0,10.83,19.33,25.5,25,44 c5.67,18.5,8.5,39.42,8.5,62.75 l0,22 c0,12.0,-0.5,23.17,-1.5,33.5 l-5,0 c-3.33,-10.0,-7.67,-18.67,-13,-26 c-5.33,-7.33,-11.83,-15.33,-19.5,-24 c-11.33,-12.67,-24.42,-25.5,-39.25,-38.5 c-14.83,-13.0,-31.25,-25.83,-49.25,-38.5 c2.33,-10.33,5.83,-19.83,10.5,-28.5 c4.67,-8.67,10.67,-15.83,18,-21.5 Z M117.5,44.5" fill="rgb(0,0,0)" transform="matrix(2.4324324324324325,0.0,0.0,-2.4324324324324325,135.13513513513516,925.6756756756756)"/>
</svg>