<?xml version="1.0" encoding="UTF-8"?>
<svg width="1000" height="1000" viewBox="0 0 1000 1000" version="1.1" xmlns="http://www.w3.org/2000/svg" xmlns:xlink="http://www.w3.org/1999/xlink">
 <path d="M249.5,176.5 l0,-100.5 c0,-4.33,0.08,-8.5,0.25,-12.5 c0.17,-4.0,0.42,-8.0,0.75,-12 c3.0,-2.0,6.67,-3,11,-3 c3.67,0,7.42,0.58,11.25,1.75 c3.83,1.17,7.25,2.92,10.25,5.25 l3,0 c0.33,-1.33,0.58,-2.67,0.75,-4 c0.17,-1.33,0.25,-2.83,0.25,-4.5 c0,-7.67,-1.33,-15.17,-4,-22.5 c-2.67,-7.33,-5.83,-13.0,-9.5,-17 c-8.0,-7.67,-16.67,-11.5,-26,-11.5 c-13.67,0,-25.08,5.17,-34.25,15.5 c-9.17,10.33,-15.25,22.5,-18.25,36.5 l-1,0 c-4.67,-9.0,-11.25,-17.5,-19.75,-25.5 c-8.5,-8.0,-18.33,-14.58,-29.5,-19.75 c-11.17,-5.17,-23.42,-7.75,-36.75,-7.75 c-24.0,0,-42.67,6.42,-56,19.25 c-13.33,12.83,-20,31.58,-20,56.25 l0,3 c0,13.67,4.0,26.5,12,38.5 c8.0,12.0,18.92,21.83,32.75,29.5 c13.83,7.67,29.42,11.5,46.75,11.5 c14.0,0,27.17,-0.83,39.5,-2.5 c12.33,-1.67,22.67,-3.67,31,-6 c0.33,11.0,0.92,21.33,1.75,31 c0.83,9.67,1.58,19.83,2.25,30.5 c-8.33,5.67,-17.58,9.58,-27.75,11.75 c-10.17,2.17,-22.25,3.25,-36.25,3.25 c-14.67,0,-28.17,-1.0,-40.5,-3 c-12.33,-2.0,-24.17,-5.0,-35.5,-9 l-3,0 c-0.33,2.67,-0.75,5.42,-1.25,8.25 c-0.5,2.83,-0.75,5.92,-0.75,9.25 c0,6.0,0.83,11.58,2.5,16.75 c1.67,5.17,4.33,9.42,8,12.75 c10.67,10.67,38.0,16,82,16 c22.33,0,41.17,-4.5,56.5,-13.5 c15.33,-9.0,27.08,-20.75,35.25,-35.25 c8.17,-14.5,12.25,-30.08,12.25,-46.75 Z M88,73 c0,-11.0,2.75,-18.83,8.25,-23.5 c5.5,-4.67,14.58,-7,27.25,-7 c11.0,0,22.58,2.75,34.75,8.25 c12.17,5.5,23.92,14.58,35.25,27.25 l0,34 c-9.67,1.33,-19.33,2.33,-29,3 c-9.67,0.67,-18.83,1,-27.5,1 c-18.67,0,-33.17,-3.17,-43.5,-9.5 c-1.67,-4.67,-3.0,-9.58,-4,-14.75 c-1.0,-5.17,-1.5,-10.92,-1.5,-17.25 Z M131,405.5 l12,0 c6.67,0,12.58,-0.75,17.75,-2.25 c5.17,-1.5,12.25,-5.58,21.25,-12.25 c11.33,-8.0,22.92,-18.08,34.75,-30.25 c11.83,-12.17,21.92,-26.58,30.25,-43.25 c-7.67,-5.0,-17.5,-7.5,-29.5,-7.5 c-5.67,0,-10.25,1.08,-13.75,3.25 c-3.5,2.17,-7.58,6.42,-12.25,12.75 c-5.67,7.0,-12.0,13.67,-19,20 c-7.0,6.33,-16.33,13.0,-28,20 l-1.5,0 c-14.67,-10.0,-26.58,-19.67,-35.75,-29 c-9.17,-9.33,-16.42,-18.5,-21.75,-27.5 l-3,0 c-11.67,0,-20.5,1.33,-26.5,4 c-6.0,2.67,-9,5.83,-9,9.5 c0,2.67,1.0,6.25,3,10.75 c2.0,4.5,5.33,9.92,10,16.25 c8.33,11.33,19.08,22.08,32.25,32.25 c13.17,10.17,26.08,17.92,38.75,23.25 Z M131,405.5" fill="rgb(0,0,0)" transform="matrix(2.192448233861145,0.0,0.0,-2.192448233861145,150.3045066991474,939.0377588306942)"/>
</svg>