<?xml version="1.0" encoding="UTF-8"?>
<svg width="1000" height="1000" viewBox="0 0 1000 1000" version="1.1" xmlns="http://www.w3.org/2000/svg" xmlns:xlink="http://www.w3.org/1999/xlink">
 <path d="M0,0 l1000,0 l0,1000 l-1000,0 Z M0,0" fill="rgb(242,242,242)" transform="matrix(1,0,0,-1,0,1000)"/>
 <path d="M182,147 c0,-13.33,4.33,-23.5,13,-30.5 c8.67,-7,19.67,-10.5,33,-10.5 l12,0 l0,82 l-12,0 c-13.33,0,-24.33,-3.5,-33,-10.5 c-8.67,-7,-13,-17.17,-13,-30.5 Z M432,308 c0,22,-6,39.67,-18,53 c-12,13.33,-28,21.67,-48,25 l0,-78 Z M298,510 c41.33,0,78.17,-6,110.5,-18 c32.33,-12,59.5,-28.67,81.5,-50 c22,-21.33,38.83,-46.5,50.5,-75.5 c11.67,-29,17.5,-60.5,17.5,-94.5 l0,-84 l-192,0 l0,-78 c16,0,30.5,3.5,43.5,10.5 c13,7,22.5,17.5,28.5,31.5 l102,-64 c-20,-36,-48.67,-62,-86,-78 c-37.33,-16,-84.33,-24,-141,-24 l-29,0 c-32.67,0,-62.83,3,-90.5,9 c-27.67,6,-51.67,15.5,-72,28.5 c-20.33,13,-36.33,29.67,-48,50 c-11.67,20.33,-17.5,44.5,-17.5,72.5 l0,12 c0,23.33,4.67,44.33,14,63 c9.33,18.67,22,34.5,38,47.5 c16,13,34.5,22.83,55.5,29.5 c21,6.67,43.17,10,66.5,10 l10,0 l0,78 c-13.33,0,-26.5,-4.67,-39.5,-14 c-13,-9.33,-23.17,-20.67,-30.5,-34 l-82,86 c22,28,50,49.33,84,64 c34,14.67,76,22,126,22 Z M298,510" fill="rgb(0,0,0)" transform="matrix(0.6172839506172839,0.0,0.0,-0.6172839506172839,310.1851851851852,741.358024691358)"/>
</svg>