<?xml version="1.0" encoding="UTF-8"?>
<svg width="1000" height="1000" viewBox="0 0 1000 1000" version="1.1" xmlns="http://www.w3.org/2000/svg" xmlns:xlink="http://www.w3.org/1999/xlink">
 <path d="M90.5,272 c13.33,0,25.17,-3.5,35.5,-10.5 c10.33,-7.0,18.67,-16.83,25,-29.5 l2,0 c13.67,27.0,33.67,40.5,60,40.5 c14.33,0,27.17,-3.67,38.5,-11 c11.33,-7.33,20.25,-17.75,26.75,-31.25 c6.5,-13.5,9.75,-29.25,9.75,-47.25 l0,-7 c0,-25.33,-6.58,-44.42,-19.75,-57.25 c-13.17,-12.83,-31.92,-19.25,-56.25,-19.25 c-9.33,0,-17.25,0.58,-23.75,1.75 c-6.5,1.17,-11.75,2.75,-15.75,4.75 l0,-2.5 c0,-24.67,6.33,-43.33,19,-56 c8.33,-4.33,18.67,-6.5,31,-6.5 c13.67,0,24.83,1.33,33.5,4 c8.67,2.67,17.33,6.83,26,12.5 l3,0 c0.67,-3.33,1.25,-6.75,1.75,-10.25 c0.5,-3.5,0.75,-7.58,0.75,-12.25 c0,-7.67,-1.08,-13.5,-3.25,-17.5 c-2.17,-4.0,-4.25,-6.83,-6.25,-8.5 c-10.33,-9.67,-28.67,-14.5,-55,-14.5 c-16.67,0,-30.92,3.75,-42.75,11.25 c-11.83,7.5,-21.25,17.92,-28.25,31.25 l-2.5,0 c-7.67,-11.67,-17.83,-21.58,-30.5,-29.75 c-12.67,-8.17,-26.17,-12.25,-40.5,-12.25 c-21.33,0,-37.92,6.5,-49.75,19.5 c-11.83,13.0,-17.75,32.17,-17.75,57.5 l0,6 c0,14.0,3.58,27.17,10.75,39.5 c7.17,12.33,16.67,22.33,28.5,30 c11.83,7.67,24.58,11.5,38.25,11.5 c9.0,0,16.83,-0.58,23.5,-1.75 c6.67,-1.17,12.33,-2.42,17,-3.75 l0,11.5 c0,20.33,-3.08,35.25,-9.25,44.75 c-6.17,9.5,-17.42,14.25,-33.75,14.25 c-11.67,0,-22.33,-1.25,-32,-3.75 c-9.67,-2.5,-19.33,-6.08,-29,-10.75 l-3,0 c-1.33,4.33,-2,10.5,-2,18.5 c0,5.67,0.67,11.08,2,16.25 c1.33,5.17,3.67,9.42,7,12.75 c4.67,4.67,12.42,8.33,23.25,11 c10.83,2.67,23.58,4,38.25,4 Z M172.5,154 l0,-12 c10.67,-2.67,22.5,-4,35.5,-4 c12.33,0,21.33,3.17,27,9.5 c5.67,6.33,8.5,17.67,8.5,34 c0,8.67,-0.92,16.83,-2.75,24.5 c-1.83,7.67,-5.08,14.0,-9.75,19 c-5.0,2.33,-11.0,3.5,-18,3.5 c-27.0,0,-40.5,-24.83,-40.5,-74.5 Z M83,40 l1.5,0 c9.67,0,18.17,2.75,25.5,8.25 c7.33,5.5,13.67,15.08,19,28.75 l0,39 c-10.0,2.0,-20.0,3,-30,3 c-14.33,0,-25.67,-3.17,-34,-9.5 c-2.33,-4.33,-3.92,-9.08,-4.75,-14.25 c-0.83,-5.17,-1.25,-11.08,-1.25,-17.75 l0,-2.5 c0,-12.33,2.08,-21.25,6.25,-26.75 c4.17,-5.5,10.08,-8.25,17.75,-8.25 Z M181,407 c17.0,0,30.0,-2.17,39,-6.5 c4.0,-2.0,6.58,-4.92,7.75,-8.75 c1.17,-3.83,1.08,-7.75,-0.25,-11.75 c-3.33,-12.33,-9.17,-23.5,-17.5,-33.5 c-8.33,-10.0,-17.67,-18.17,-28,-24.5 c-9.67,-6.0,-20.83,-9,-33.5,-9 c-4.67,0,-9.25,0.58,-13.75,1.75 c-4.5,1.17,-8.58,3.08,-12.25,5.75 c15.67,13.67,28.25,27.08,37.75,40.25 c9.5,13.17,16.42,28.58,20.75,46.25 Z M181,407" fill="rgb(0,0,0)" transform="matrix(2.1818181818181817,0.0,0.0,-2.1818181818181817,173.8181818181818,938.0)"/>
</svg>