<?xml version="1.0" encoding="UTF-8"?>
<svg width="1000" height="1000" viewBox="0 0 1000 1000" version="1.1" xmlns="http://www.w3.org/2000/svg" xmlns:xlink="http://www.w3.org/1999/xlink">
 <path d="M0,0 l1000,0 l0,1000 l-1000,0 Z M0,0" fill="rgb(242,242,242)" transform="matrix(1,0,0,-1,0,1000)"/>
 <path d="M437,570 l-294,0 l0,102 l294,0 Z M370,66 c-8,-24,-22.17,-43.33,-42.5,-58 c-20.33,-14.67,-49.5,-22,-87.5,-22 c-28.67,0,-53.83,4,-75.5,12 c-21.67,8,-39.83,19,-54.5,33 c-14.67,14,-25.67,30.5,-33,49.5 c-7.33,19,-11,39.5,-11,61.5 l0,6 c0,24,4.5,45.67,13.5,65 c9,19.33,21.17,36,36.5,50 c15.33,14,33.33,24.67,54,32 c20.67,7.33,42.67,11,66,11 l134,0 l0,6 c0,21.33,-7.67,39.67,-23,55 c-15.33,15.33,-37.67,23,-67,23 c-22,0,-41.33,-5.5,-58,-16.5 c-16.67,-11,-28.67,-25.5,-36,-43.5 l-102,62 c7.33,14.67,17,29.17,29,43.5 c12,14.33,26.5,27,43.5,38 c17,11,36.5,19.83,58.5,26.5 c22,6.67,46.67,10,74,10 c28.67,0,55.67,-4.67,81,-14 c25.33,-9.33,47.33,-22.5,66,-39.5 c18.67,-17,33.33,-37.17,44,-60.5 c10.67,-23.33,16,-49.33,16,-78 l0,-168 c0,-20,9,-30,27,-30 l31,0 l0,-120 l-78,0 c-24,0,-44.33,5.17,-61,15.5 c-16.67,10.33,-25.67,27.17,-27,50.5 Z M264,106 c33.33,0,59.33,8.83,78,26.5 c18.67,17.67,28,39.5,28,65.5 l-118,0 c-18,0,-31.5,-4.33,-40.5,-13 c-9,-8.67,-13.5,-19,-13.5,-31 c0,-14,5.17,-25.5,15.5,-34.5 c10.33,-9,27.17,-13.5,50.5,-13.5 Z M264,106" fill="rgb(0,0,0)" transform="matrix(0.6172839506172839,0.0,0.0,-0.6172839506172839,310.1851851851852,741.358024691358)"/>
</svg>