<?xml version="1.0" encoding="UTF-8"?>
<svg width="1000" height="1000" viewBox="0 0 1000 1000" version="1.1" xmlns="http://www.w3.org/2000/svg" xmlns:xlink="http://www.w3.org/1999/xlink">
 <path d="M101,-4.5 c-26.0,0,-46.67,8.17,-62,24.5 c-15.33,16.33,-23,37.17,-23,62.5 l0,2 c0,24.67,6.42,43.92,19.25,57.75 c12.83,13.83,28.42,22.58,46.75,26.25 l1,3 c-18.67,34.33,-28,65.33,-28,93 l0,2.5 c0,15.0,4.67,29.17,14,42.5 c9.33,13.33,22.5,24.25,39.5,32.75 c17.0,8.5,37.0,12.75,60,12.75 c29.67,0,50.17,-5.67,61.5,-17 c4.67,-4.33,7.83,-9.17,9.5,-14.5 c1.67,-5.33,2.5,-11.5,2.5,-18.5 c0,-8.67,-1.5,-16.33,-4.5,-23 l-3,0 c-17.33,13.0,-40.5,19.5,-69.5,19.5 c-14.33,0,-26.42,-1.83,-36.25,-5.5 c-9.83,-3.67,-17.25,-8.67,-22.25,-15 c-0.33,-2.33,-0.67,-5.17,-1,-8.5 c-0.33,-3.33,-0.5,-6.33,-0.5,-9 c0,-11.33,1.83,-23.58,5.5,-36.75 c3.67,-13.17,8.83,-26.58,15.5,-40.25 c7.33,-15.0,16.5,-30.5,27.5,-46.5 c11.0,-16.0,22.83,-31.0,35.5,-45 c9.0,14.33,15.33,28.92,19,43.75 c3.67,14.83,5.5,30.58,5.5,47.25 l0,15 c3.67,1.0,8.17,1.5,13.5,1.5 c12.67,0,22.67,-2.25,30,-6.75 c7.33,-4.5,11,-11.58,11,-21.25 l0,-2 c0,-16.33,-5.08,-32.83,-15.25,-49.5 c-10.17,-16.67,-24.25,-31.67,-42.25,-45 l0,-4 c18.0,-15.33,34.67,-23,50,-23 c9.33,0,16.5,2.33,21.5,7 l3,0 c2.0,-6.33,3,-14.83,3,-25.5 c0,-14.67,-3.33,-25.0,-10,-31 c-5.33,-4.33,-12.33,-6.5,-21,-6.5 c-10.67,0,-21.58,3.08,-32.75,9.25 c-11.17,6.17,-25.75,17.92,-43.75,35.25 l-2.5,0 c-6.33,-13.67,-15.92,-24.42,-28.75,-32.25 c-12.83,-7.83,-28.92,-11.75,-48.25,-11.75 Z M66,93 c0,-14.33,4.0,-26.25,12,-35.75 c8.0,-9.5,19.17,-14.25,33.5,-14.25 c11.33,0,20.83,1.25,28.5,3.75 c7.67,2.5,14.83,6.92,21.5,13.25 c-11.33,12.33,-22.25,25.58,-32.75,39.75 c-10.5,14.17,-20.25,28.58,-29.25,43.25 c-9.67,-3.33,-17.67,-8.92,-24,-16.75 c-6.33,-7.83,-9.5,-18.42,-9.5,-31.75 Z M66,93" fill="rgb(0,0,0)" transform="matrix(2.5,0.0,0.0,-2.5,120.0,937.5)"/>
</svg>