<?xml version="1.0" encoding="UTF-8"?>
<svg width="1000" height="1000" viewBox="0 0 1000 1000" version="1.1" xmlns="http://www.w3.org/2000/svg" xmlns:xlink="http://www.w3.org/1999/xlink">
 <path d="M0,0 l1000,0 l0,1000 l-1000,0 Z M0,0" fill="rgb(242,242,242)" transform="matrix(1,0,0,-1,0,1000)"/>
 <path d="M373,294 l-111,0 c-28,0,-50.67,-7,-68,-21 c-17.33,-14,-26,-35,-26,-63 l0,-6 c0,-28,8.67,-49,26,-63 c17.33,-14,40,-21,68,-21 l111,0 Z M499,496 l0,-82 l92,0 l0,-126 l-92,0 l0,-288 l-250,0 c-33.33,0,-63,4.67,-89,14 c-26,9.33,-47.67,22.17,-65,38.5 c-17.33,16.33,-30.5,35.67,-39.5,58 c-9,22.33,-13.5,46.5,-13.5,72.5 l0,12 c0,40,11.17,72.17,33.5,96.5 c22.33,24.33,50.5,41.17,84.5,50.5 l0,18 c-34,9.33,-62.17,26,-84.5,50 c-22.33,24,-33.5,56,-33.5,96 l0,12 c0,26,4.5,50.17,13.5,72.5 c9,22.33,22.17,41.5,39.5,57.5 c17.33,16,39,28.67,65,38 c26,9.33,55.67,14,89,14 l109,0 l0,-120 l-96,0 c-28,0,-50.67,-6.5,-68,-19.5 c-17.33,-13,-26,-33.17,-26,-60.5 l0,-6 c0,-28,8.67,-48.33,26,-61 c17.33,-12.67,40,-19,68,-19 l111,0 l0,82 Z M499,496" fill="rgb(0,0,0)" transform="matrix(0.6172839506172839,0.0,0.0,-0.6172839506172839,310.1851851851852,741.358024691358)"/>
</svg>