<?xml version="1.0" encoding="UTF-8"?>
<svg width="1000" height="1000" viewBox="0 0 1000 1000" version="1.1" xmlns="http://www.w3.org/2000/svg" xmlns:xlink="http://www.w3.org/1999/xlink">
 <path d="M0,0 l1000,0 l0,1000 l-1000,0 Z M0,0" fill="rgb(242,242,242)" transform="matrix(1,0,0,-1,0,1000)"/>
 <path d="M337,510 c8,-13.33,14.67,-22.5,20,-27.5 c5.33,-5,12.67,-7.5,22,-7.5 c6.67,0,13.17,1.83,19.5,5.5 c6.33,3.67,12.83,8.17,19.5,13.5 l70,51 l70,-93 l-105,-80 c-11.33,-9.33,-24.5,-17.5,-39.5,-24.5 c-15,-7,-31.5,-10.5,-49.5,-10.5 c-23.33,0,-41.67,4,-55,12 c-13.33,8,-23.67,17.67,-31,29 c-8,13.33,-14.67,22.5,-20,27.5 c-5.33,5,-12.67,7.5,-22,7.5 c-6.67,0,-13.17,-1.83,-19.5,-5.5 c-6.33,-3.67,-12.83,-8.17,-19.5,-13.5 l-70,-51 l-70,93 l105,80 c11.33,9.33,24.5,17.5,39.5,24.5 c15,7,31.5,10.5,49.5,10.5 c23.33,0,41.67,-4,55,-12 c13.33,-8,23.67,-17.67,31,-29 Z M337,284 c8,-13.33,14.67,-22.5,20,-27.5 c5.33,-5,12.67,-7.5,22,-7.5 c6.67,0,13.17,1.83,19.5,5.5 c6.33,3.67,12.83,8.17,19.5,13.5 l70,51 l70,-93 l-105,-80 c-11.33,-9.33,-24.5,-17.5,-39.5,-24.5 c-15,-7,-31.5,-10.5,-49.5,-10.5 c-23.33,0,-41.67,4,-55,12 c-13.33,8,-23.67,17.67,-31,29 c-8,13.33,-14.67,22.5,-20,27.5 c-5.33,5,-12.67,7.5,-22,7.5 c-6.67,0,-13.17,-1.83,-19.5,-5.5 c-6.33,-3.67,-12.83,-8.17,-19.5,-13.5 l-73,-53 l-70,93 l108,82 c11.33,9.33,24.5,17.5,39.5,24.5 c15,7,31.5,10.5,49.5,10.5 c23.33,0,41.67,-4,55,-12 c13.33,-8,23.67,-17.67,31,-29 Z M337,284" fill="rgb(0,0,0)" transform="matrix(0.6172839506172839,0.0,0.0,-0.6172839506172839,310.1851851851852,741.358024691358)"/>
</svg>