<?xml version="1.0" encoding="UTF-8"?>
<svg width="1000" height="1000" viewBox="0 0 1000 1000" version="1.1" xmlns="http://www.w3.org/2000/svg" xmlns:xlink="http://www.w3.org/1999/xlink">
 <path d="M211,210 c21.33,0,40.0,9.5,56,28.5 l3,0 c1.33,-3.33,2.25,-7.17,2.75,-11.5 c0.5,-4.33,0.75,-8.33,0.75,-12 c0,-6.33,-0.42,-11.92,-1.25,-16.75 c-0.83,-4.83,-2.08,-8.75,-3.75,-11.75 c-4.0,-9.0,-10.17,-16.42,-18.5,-22.25 c-8.33,-5.83,-19.17,-8.75,-32.5,-8.75 c-11.33,0,-22.33,2.83,-33,8.5 c-10.67,5.67,-21.25,12.33,-31.75,20 c-10.5,7.67,-21.0,14.33,-31.5,20 c-10.5,5.67,-21.25,8.5,-32.25,8.5 c-11.33,0,-21.33,-2.17,-30,-6.5 c-8.67,-4.33,-17.33,-11.5,-26,-21.5 l-3,0 c-1.33,3.0,-2.25,6.75,-2.75,11.25 c-0.5,4.5,-0.75,8.58,-0.75,12.25 c0,6.67,0.5,12.33,1.5,17 c1.0,4.67,2.17,8.5,3.5,11.5 c4.0,9.0,10.17,16.33,18.5,22 c8.33,5.67,19.17,8.5,32.5,8.5 c11.33,0,22.33,-2.83,33,-8.5 c10.67,-5.67,21.25,-12.33,31.75,-20 c10.5,-7.67,21.0,-14.33,31.5,-20 c10.5,-5.67,21.25,-8.5,32.25,-8.5 Z M211,87.5 c21.33,0,40.0,9.5,56,28.5 l3,0 c1.33,-3.0,2.25,-6.75,2.75,-11.25 c0.5,-4.5,0.75,-8.58,0.75,-12.25 c0,-6.33,-0.42,-11.92,-1.25,-16.75 c-0.83,-4.83,-2.08,-8.75,-3.75,-11.75 c-4.0,-9.0,-10.17,-16.33,-18.5,-22 c-8.33,-5.67,-19.17,-8.5,-32.5,-8.5 c-11.33,0,-22.33,2.83,-33,8.5 c-10.67,5.67,-21.25,12.33,-31.75,20 c-10.5,7.67,-21.0,14.33,-31.5,20 c-10.5,5.67,-21.25,8.5,-32.25,8.5 c-21.33,0,-40.0,-9.5,-56,-28.5 l-3,0 c-1.33,3.0,-2.25,6.75,-2.75,11.25 c-0.5,4.5,-0.75,8.58,-0.75,12.25 c0,6.67,0.5,12.33,1.5,17 c1.0,4.67,2.17,8.5,3.5,11.5 c4.0,9.0,10.17,16.33,18.5,22 c8.33,5.67,19.17,8.5,32.5,8.5 c11.33,0,22.33,-2.83,33,-8.5 c10.67,-5.67,21.25,-12.33,31.75,-20 c10.5,-7.67,21.0,-14.33,31.5,-20 c10.5,-5.67,21.25,-8.5,32.25,-8.5 Z M211,87.5" fill="rgb(0,0,0)" transform="matrix(3.6437246963562755,0.0,0.0,-3.6437246963562755,-46.558704453441294,1047.4696356275304)"/>
</svg>