<?xml version="1.0" encoding="UTF-8"?>
<svg width="1000" height="1000" viewBox="0 0 1000 1000" version="1.1" xmlns="http://www.w3.org/2000/svg" xmlns:xlink="http://www.w3.org/1999/xlink">
 <path d="M0,0 l1000,0 l0,1000 l-1000,0 Z M0,0" fill="rgb(242,242,242)" transform="matrix(1,0,0,-1,0,1000)"/>
 <path d="M600,450 l0,-200 l-157,-156 l-81,81 l97,97 l69,28 l-7,17 l-62,-24 l-306,0 l-62,24 l-7,-17 l69,-28 l97,-97 l-81,-81 l-157,156 l0,200 l157,156 l81,-81 l-97,-97 l-69,-28 l7,-17 l62,24 l306,0 l62,-24 l7,17 l-69,28 l-97,97 l81,81 Z M600,450" fill="rgb(0,0,0)" transform="matrix(0.6172839506172839,0.0,0.0,-0.6172839506172839,310.1851851851852,741.358024691358)"/>
</svg>