<?xml version="1.0" encoding="UTF-8"?>
<svg width="1000" height="1000" viewBox="0 0 1000 1000" version="1.1" xmlns="http://www.w3.org/2000/svg" xmlns:xlink="http://www.w3.org/1999/xlink">
 <path d="M137.5,355 l7,0 c6.0,0,11.08,-0.5,15.25,-1.5 c4.17,-1.0,8.67,-3.17,13.5,-6.5 c4.83,-3.33,11.25,-8.67,19.25,-16 c22.33,-20.33,42.0,-43.5,59,-69.5 c17.0,-26.0,32.0,-57.0,45,-93 c-4.0,-2.33,-9.0,-4.08,-15,-5.25 c-6.0,-1.17,-11.67,-1.75,-17,-1.75 c-9.67,0,-16.92,1.92,-21.75,5.75 c-4.83,3.83,-9.58,11.75,-14.25,23.75 c-6.33,15.67,-12.75,30.0,-19.25,43 c-6.5,13.0,-14.25,25.5,-23.25,37.5 c-9.0,12.0,-20.5,24.33,-34.5,37 l-3,0 c-14.0,-12.67,-25.5,-25.0,-34.5,-37 c-9.0,-12.0,-16.67,-24.5,-23,-37.5 c-6.33,-13.0,-12.67,-27.33,-19,-43 c-5.0,-12.0,-9.83,-19.92,-14.5,-23.75 c-4.67,-3.83,-12.0,-5.75,-22,-5.75 c-5.0,0,-10.58,0.58,-16.75,1.75 c-6.17,1.17,-11.25,2.92,-15.25,5.25 c15.33,41.67,33.75,77.75,55.25,108.25 c21.5,30.5,47.75,56.58,78.75,78.25 Z M136.5,258 c1.33,0.67,3.08,1.33,5.25,2 c2.17,0.67,4.42,1,6.75,1 c11.33,0,18.17,-6.17,20.5,-18.5 c2.0,-13.33,3.58,-25.75,4.75,-37.25 c1.17,-11.5,1.92,-23.5,2.25,-36 c0.33,-12.5,0.5,-27.25,0.5,-44.25 l0,-75 c0,-8.33,0.17,-16.67,0.5,-25 c0.33,-8.33,1.17,-16.67,2.5,-25 c-9.0,-2.0,-17.0,-3,-24,-3 c-11.33,0,-19.58,2.0,-24.75,6 c-5.17,4.0,-7.75,11.17,-7.75,21.5 l0,100 c0,17.33,0.5,32.75,1.5,46.25 c1.0,13.5,2.5,27.08,4.5,40.75 c2.0,13.67,4.5,29.17,7.5,46.5 Z M136.5,258" fill="rgb(0,0,0)" transform="matrix(2.5139664804469275,0.0,0.0,-2.5139664804469275,122.90502793296088,942.4581005586592)"/>
</svg>