<?xml version="1.0" encoding="UTF-8"?>
<svg width="1000" height="1000" viewBox="0 0 1000 1000" version="1.1" xmlns="http://www.w3.org/2000/svg" xmlns:xlink="http://www.w3.org/1999/xlink">
 <path d="M0,0 l1000,0 l0,1000 l-1000,0 Z M0,0" fill="rgb(242,242,242)" transform="matrix(1,0,0,-1,0,1000)"/>
 <path d="M406,56 l-200,0 l-156,157 l81,81 l97,-97 l28,-69 l17,7 l-24,62 l0,306 l24,62 l-17,7 l-28,-69 l-97,-97 l-81,81 l156,157 l200,0 l156,-157 l-81,-81 l-97,97 l-28,69 l-17,-7 l24,-62 l0,-306 l-24,-62 l17,-7 l28,69 l97,97 l81,-81 Z M406,56" fill="rgb(0,0,0)" transform="matrix(0.6172839506172839,0.0,0.0,-0.6172839506172839,310.1851851851852,741.358024691358)"/>
</svg>