<?xml version="1.0" encoding="UTF-8"?>
<svg width="1000" height="1000" viewBox="0 0 1000 1000" version="1.1" xmlns="http://www.w3.org/2000/svg" xmlns:xlink="http://www.w3.org/1999/xlink">
 <path d="M204,78 c-13.33,0,-24.25,2.5,-32.75,7.5 c-8.5,5.0,-15.58,11.42,-21.25,19.25 c-5.67,7.83,-10.75,16.08,-15.25,24.75 c-4.5,8.67,-9.33,16.75,-14.5,24.25 c-5.17,7.5,-11.58,13.25,-19.25,17.25 c-8.67,-2.33,-15.33,-7.0,-20,-14 c-4.67,-7.0,-7,-17.0,-7,-30 c0,-6.67,0.58,-12.92,1.75,-18.75 c1.17,-5.83,3.08,-11.58,5.75,-17.25 l0,-3 c-3.33,-2.33,-6.83,-4.0,-10.5,-5 c-3.67,-1.0,-7.83,-1.5,-12.5,-1.5 c-11.67,0,-21.17,4.83,-28.5,14.5 c-7.33,9.67,-11,23.67,-11,42 l0,2.5 c0,17.67,3.42,32.5,10.25,44.5 c6.83,12.0,16.08,21.17,27.75,27.5 c11.67,6.33,24.33,9.5,38,9.5 c13.33,0,24.25,-2.5,32.75,-7.5 c8.5,-5.0,15.58,-11.42,21.25,-19.25 c5.67,-7.83,10.75,-16.08,15.25,-24.75 c4.5,-8.67,9.33,-16.75,14.5,-24.25 c5.17,-7.5,11.58,-13.25,19.25,-17.25 c8.67,2.33,15.33,7.0,20,14 c4.67,7.0,7,17.0,7,30 c0,6.67,-0.58,13.0,-1.75,19 c-1.17,6.0,-3.08,11.67,-5.75,17 l0,3 c3.67,2.67,7.25,4.42,10.75,5.25 c3.5,0.83,7.42,1.25,11.75,1.25 c12.67,0,22.5,-4.92,29.5,-14.75 c7.0,-9.83,10.5,-23.75,10.5,-41.75 l0,-2.5 c0,-17.33,-3.42,-32.08,-10.25,-44.25 c-6.83,-12.17,-16.0,-21.42,-27.5,-27.75 c-11.5,-6.33,-24.25,-9.5,-38.25,-9.5 Z M204,78" fill="rgb(0,0,0)" transform="matrix(3.4482758620689653,0.0,0.0,-3.4482758620689653,-15.517241379310349,1017.2413793103448)"/>
</svg>