<?xml version="1.0" encoding="UTF-8"?>
<svg width="1000" height="1000" viewBox="0 0 1000 1000" version="1.1" xmlns="http://www.w3.org/2000/svg" xmlns:xlink="http://www.w3.org/1999/xlink">
 <path d="M0,0 l1000,0 l0,1000 l-1000,0 Z M0,0" fill="rgb(242,242,242)" transform="matrix(1,0,0,-1,0,1000)"/>
 <path d="M448,257 l-73,73 l-33,74 l-16,-7 l28,-73 l0,-106 l-96,0 l0,106 l28,73 l-16,7 l-33,-74 l-73,-73 l-67,67 l73,73 l74,33 l-7,16 l-73,-28 l-106,0 l0,96 l106,0 l73,-28 l7,16 l-74,33 l-73,73 l67,67 l73,-73 l33,-74 l16,7 l-28,73 l0,106 l96,0 l0,-106 l-28,-73 l16,-7 l33,74 l73,73 l67,-67 l-73,-73 l-74,-33 l7,-16 l73,28 l106,0 l0,-96 l-106,0 l-73,28 l-7,-16 l74,-33 l73,-73 Z M448,257" fill="rgb(0,0,0)" transform="matrix(0.6172839506172839,0.0,0.0,-0.6172839506172839,310.1851851851852,741.358024691358)"/>
</svg>