<?xml version="1.0" encoding="UTF-8"?>
<svg width="1000" height="1000" viewBox="0 0 1000 1000" version="1.1" xmlns="http://www.w3.org/2000/svg" xmlns:xlink="http://www.w3.org/1999/xlink">
 <path d="M0,0 l1000,0 l0,1000 l-1000,0 Z M0,0" fill="rgb(242,242,242)" transform="matrix(1,0,0,-1,0,1000)"/>
 <path d="M558,150 c0,-20,9,-30,27,-30 l19,0 l0,-120 l-96,0 c-18,0,-33.33,4.67,-46,14 c-12.67,9.33,-20.67,22.67,-24,40 l-18,0 c-5.33,-19.33,-15,-35.5,-29,-48.5 c-14,-13,-35,-19.5,-63,-19.5 c-50,0,-86.17,20.67,-108.5,62 c-22.33,41.33,-33.5,103.67,-33.5,187 l0,34 c0,42.67,3.5,79.33,10.5,110 c7,30.67,16.83,55.67,29.5,75 c12.67,19.33,27.83,33.5,45.5,42.5 c17.67,9,37.17,13.5,58.5,13.5 c21.33,0,39.83,-5.5,55.5,-16.5 c15.67,-11,25.17,-26.17,28.5,-45.5 l18,0 l0,80 c0,21.33,-6.17,37.67,-18.5,49 c-12.33,11.33,-30.17,17,-53.5,17 l-136,0 c-27.33,0,-47.17,-6.67,-59.5,-20 c-12.33,-13.33,-18.5,-34.67,-18.5,-64 l0,-478 c0,-35.33,6.83,-62.83,20.5,-82.5 c13.67,-19.67,39.5,-29.5,77.5,-29.5 l360,0 l0,-120 l-380,0 c-66.67,0,-117.33,17.67,-152,53 c-34.67,35.33,-52,85.67,-52,151 l0,526 c0,28.67,4.33,54.5,13,77.5 c8.67,23,21,42.33,37,58 c16,15.67,35,27.67,57,36 c22,8.33,46.33,12.5,73,12.5 l168,0 c60.67,0,107.5,-15,140.5,-45 c33,-30,49.5,-76.33,49.5,-139 Z M374,390 c-22,0,-37.83,-10.17,-47.5,-30.5 c-9.67,-20.33,-14.5,-52.5,-14.5,-96.5 l0,-30 c0,-44,4.83,-76.17,14.5,-96.5 c9.67,-20.33,25.5,-30.5,47.5,-30.5 c21.33,0,36.33,7.83,45,23.5 c8.67,15.67,13,37.17,13,64.5 l0,108 c0,27.33,-4.33,48.83,-13,64.5 c-8.67,15.67,-23.67,23.5,-45,23.5 Z M374,390" fill="rgb(0,0,0)" transform="matrix(0.6172839506172839,0.0,0.0,-0.6172839506172839,310.1851851851852,741.358024691358)"/>
</svg>