<?xml version="1.0" encoding="UTF-8"?>
<svg width="1000" height="1000" viewBox="0 0 1000 1000" version="1.1" xmlns="http://www.w3.org/2000/svg" xmlns:xlink="http://www.w3.org/1999/xlink">
 <path d="M0,0 l1000,0 l0,1000 l-1000,0 Z M0,0" fill="rgb(242,242,242)" transform="matrix(1,0,0,-1,0,1000)"/>
 <path d="M60,510 l0,120 l314,0 c65.33,0,117.33,-17.33,156,-52 c38.67,-34.67,58,-86.67,58,-156 l0,-340 c0,-28,-8.83,-51,-26.5,-69 c-17.67,-18,-40.5,-27,-68.5,-27 l-123,0 c-25.33,0,-43.83,5.5,-55.5,16.5 c-11.67,11,-18.5,24.17,-20.5,39.5 l-18,0 c-6,-15.33,-16.83,-28.5,-32.5,-39.5 c-15.67,-11,-38.17,-16.5,-67.5,-16.5 c-23.33,0,-44.83,4.5,-64.5,13.5 c-19.67,9,-36.67,22.67,-51,41 c-14.33,18.33,-25.67,41.5,-34,69.5 c-8.33,28,-12.5,61,-12.5,99 l0,6 c0,38,4.5,71,13.5,99 c9,28,21,51.17,36,69.5 c15,18.33,32.67,32,53,41 c20.33,9,42.17,13.5,65.5,13.5 c25.33,0,44.83,-4.83,58.5,-14.5 c13.67,-9.67,23.5,-21.5,29.5,-35.5 l18,0 l0,36 l120,0 l0,-296 c0,-18.67,9,-28,27,-28 l6,0 c18,0,27,9.33,27,28 l0,262 c0,80,-40,120,-120,120 Z M212,100 c27.33,0,46.83,10.17,58.5,30.5 c11.67,20.33,17.5,46.5,17.5,78.5 l0,6 c0,32,-5.83,58.17,-17.5,78.5 c-11.67,20.33,-31.17,30.5,-58.5,30.5 c-25.33,0,-44.67,-10.17,-58,-30.5 c-13.33,-20.33,-20,-46.5,-20,-78.5 l0,-6 c0,-32,6.67,-58.17,20,-78.5 c13.33,-20.33,32.67,-30.5,58,-30.5 Z M212,100" fill="rgb(0,0,0)" transform="matrix(0.6172839506172839,0.0,0.0,-0.6172839506172839,310.1851851851852,741.358024691358)"/>
</svg>