<?xml version="1.0" encoding="UTF-8"?>
<svg width="1000" height="1000" viewBox="0 0 1000 1000" version="1.1" xmlns="http://www.w3.org/2000/svg" xmlns:xlink="http://www.w3.org/1999/xlink">
 <path d="M0,0 l1000,0 l0,1000 l-1000,0 Z M0,0" fill="rgb(242,242,242)" transform="matrix(1,0,0,-1,0,1000)"/>
 <path d="M88,700 l259,0 c33.33,0,62.83,-4.67,88.5,-14 c25.67,-9.33,47.33,-22,65,-38 c17.67,-16,31,-35.17,40,-57.5 c9,-22.33,13.5,-46.5,13.5,-72.5 l0,-12 c0,-40,-11.17,-72,-33.5,-96 c-22.33,-24,-50.5,-40.67,-84.5,-50 l0,-18 c34,-9.33,62.17,-26.17,84.5,-50.5 c22.33,-24.33,33.5,-56.5,33.5,-96.5 l0,-12 c0,-26,-4.5,-50.17,-13.5,-72.5 c-9,-22.33,-22.33,-41.67,-40,-58 c-17.67,-16.33,-39.33,-29.17,-65,-38.5 c-25.67,-9.33,-55.17,-14,-88.5,-14 l-259,0 Z M220,126 l114,0 c28,0,50.67,6,68,18 c17.33,12,26,32,26,60 l0,6 c0,28,-8.67,48,-26,60 c-17.33,12,-40,18,-68,18 l-114,0 Z M220,414 l114,0 c28,0,50.67,5.83,68,17.5 c17.33,11.67,26,31.5,26,59.5 l0,6 c0,28,-8.67,47.83,-26,59.5 c-17.33,11.67,-40,17.5,-68,17.5 l-114,0 Z M220,414" fill="rgb(0,0,0)" transform="matrix(0.6172839506172839,0.0,0.0,-0.6172839506172839,310.1851851851852,741.358024691358)"/>
</svg>