<?xml version="1.0" encoding="UTF-8"?>
<svg width="1000" height="1000" viewBox="0 0 1000 1000" version="1.1" xmlns="http://www.w3.org/2000/svg" xmlns:xlink="http://www.w3.org/1999/xlink">
 <path d="M85.5,-1 c-1.33,-0.33,-2.75,-0.58,-4.25,-0.75 c-1.5,-0.17,-3.08,-0.25,-4.75,-0.25 c-12.33,0,-21.08,5.0,-26.25,15 c-5.17,10.0,-7.75,22.17,-7.75,36.5 l0,278.5 c0,19.33,-2.67,35.0,-8,47 c5.67,1.67,11.0,2.5,16,2.5 c12.33,0,22.92,-4.83,31.75,-14.5 c8.83,-9.67,13.25,-26.83,13.25,-51.5 l0,-121.5 l3.5,0 c6.0,16.33,14.0,30.67,24,43 c10.0,12.33,21.08,22.0,33.25,29 c12.17,7.0,24.75,10.5,37.75,10.5 c14.67,0,27.92,-4.5,39.75,-13.5 c11.83,-9.0,21.25,-21.25,28.25,-36.75 c7.0,-15.5,10.5,-33.25,10.5,-53.25 l0,-10 c0,-38.33,-4.92,-69.67,-14.75,-94 c-9.83,-24.33,-22.83,-42.17,-39,-53.5 c-16.17,-11.33,-33.92,-17,-53.25,-17 c-14.67,0,-28.17,4.25,-40.5,12.75 c-12.33,8.5,-21.67,17.58,-28,27.25 l-4,0 c-1.67,-12.33,-4.17,-24.17,-7.5,-35.5 Z M189.5,216.5 c-18.67,0,-35.67,-6.67,-51,-20 c-15.33,-13.33,-29.67,-36.5,-43,-69.5 l0,-57.5 c7.67,-7.67,16.0,-13.5,25,-17.5 c9.0,-4.0,19.33,-6,31,-6 c22.67,0,39.42,9.08,50.25,27.25 c10.83,18.17,16.25,44.75,16.25,79.75 l0,5 c0,10.67,-0.42,19.75,-1.25,27.25 c-0.83,7.5,-2.58,14.42,-5.25,20.75 c-2.33,3.0,-5.33,5.5,-9,7.5 c-3.67,2.0,-8.0,3,-13,3 Z M189.5,216.5" fill="rgb(0,0,0)" transform="matrix(2.349869451697128,0.0,0.0,-2.349869451697128,139.29503916449084,937.0757180156659)"/>
</svg>