<?xml version="1.0" encoding="UTF-8"?>
<svg width="1000" height="1000" viewBox="0 0 1000 1000" version="1.1" xmlns="http://www.w3.org/2000/svg" xmlns:xlink="http://www.w3.org/1999/xlink">
 <path d="M0,0 l1000,0 l0,1000 l-1000,0 Z M0,0" fill="rgb(242,242,242)" transform="matrix(1,0,0,-1,0,1000)"/>
 <path d="M356,451 c0,-19.33,9,-29,27,-29 l63,0 l0,-144 l-63,0 c-18,0,-27,-9.67,-27,-29 l0,-303 c0,-30,-9.5,-54.5,-28.5,-73.5 c-19,-19,-43.5,-28.5,-73.5,-28.5 l-132,0 l0,120 l81,0 c18,0,27,10,27,30 l0,269 c0,22.67,7.17,41.33,21.5,56 c14.33,14.67,33.17,22,56.5,22 l6,0 l0,18 l-6,0 c-23.33,0,-42.17,7.33,-56.5,22 c-14.33,14.67,-21.5,33.33,-21.5,56 l0,269 c0,20,-9,30,-27,30 l-81,0 l0,120 l132,0 c30,0,54.5,-9.5,73.5,-28.5 c19,-19,28.5,-43.5,28.5,-73.5 Z M356,451" fill="rgb(0,0,0)" transform="matrix(0.6172839506172839,0.0,0.0,-0.6172839506172839,310.1851851851852,741.358024691358)"/>
</svg>