<?xml version="1.0" encoding="UTF-8"?>
<svg width="1000" height="1000" viewBox="0 0 1000 1000" version="1.1" xmlns="http://www.w3.org/2000/svg" xmlns:xlink="http://www.w3.org/1999/xlink">
 <path d="M43.5,380 l117.5,0 c5.67,0,11.33,-2.33,17,-7 c5.67,-4.67,10.33,-10.58,14,-17.75 c3.67,-7.17,5.5,-14.25,5.5,-21.25 l0,-356.5 c0,-9.67,0.42,-19.08,1.25,-28.25 c0.83,-9.17,2.25,-18.08,4.25,-26.75 c-4.33,-1.0,-8.42,-1.75,-12.25,-2.25 c-3.83,-0.5,-8.08,-0.75,-12.75,-0.75 l-115.5,0 c-13.67,0,-20.5,11.33,-20.5,34 c0,7.67,1.0,14.0,3,19 l97,0 l0,354.5 l-77.5,0 c-8.0,0,-13.75,2.67,-17.25,8 c-3.5,5.33,-5.25,14.17,-5.25,26.5 c0,7.33,0.5,13.5,1.5,18.5 Z M43.5,380" fill="rgb(0,0,0)" transform="matrix(1.9543973941368078,0.0,0.0,-1.9543973941368078,260.58631921824104,792.671009771987)"/>
</svg>