<?xml version="1.0" encoding="UTF-8"?>
<svg width="1000" height="1000" viewBox="0 0 1000 1000" version="1.1" xmlns="http://www.w3.org/2000/svg" xmlns:xlink="http://www.w3.org/1999/xlink">
 <path d="M0,0 l1000,0 l0,1000 l-1000,0 Z M0,0" fill="rgb(242,242,242)" transform="matrix(1,0,0,-1,0,1000)"/>
 <path d="M376,-54 c0,-30,-9.5,-54.5,-28.5,-73.5 c-19,-19,-43.5,-28.5,-73.5,-28.5 l-132,0 l0,120 l81,0 c18,0,27,10,27,30 l0,712 c0,20,-9,30,-27,30 l-81,0 l0,120 l132,0 c30,0,54.5,-9.5,73.5,-28.5 c19,-19,28.5,-43.5,28.5,-73.5 Z M376,-54" fill="rgb(0,0,0)" transform="matrix(0.6172839506172839,0.0,0.0,-0.6172839506172839,310.1851851851852,741.358024691358)"/>
</svg>