<?xml version="1.0" encoding="UTF-8"?>
<svg width="1000" height="1000" viewBox="0 0 1000 1000" version="1.1" xmlns="http://www.w3.org/2000/svg" xmlns:xlink="http://www.w3.org/1999/xlink">
 <path d="M150,360 c15.67,1.0,28.08,4.67,37.25,11 c9.17,6.33,15.92,16.67,20.25,31 c10.0,-0.67,18.83,-3.5,26.5,-8.5 c4.33,-3.0,5.17,-8.33,2.5,-16 c-6.67,-18.67,-17.08,-33.0,-31.25,-43 c-14.17,-10.0,-31.92,-15,-53.25,-15 l-4,0 c-21.33,0,-39.08,5.0,-53.25,15 c-14.17,10.0,-24.58,24.33,-31.25,43 c-2.67,7.67,-1.83,13.0,2.5,16 c7.67,5.0,16.5,7.83,26.5,8.5 c4.67,-14.33,11.58,-24.67,20.75,-31 c9.17,-6.33,21.42,-10.0,36.75,-11 Z M150,360" fill="rgb(0,0,0)" transform="matrix(5.11225249995359,0.0,0.0,-5.11225249995359,-266.83787499303855,2344.2450893582577)"/>
</svg>