<?xml version="1.0" encoding="UTF-8"?>
<svg width="1000" height="1000" viewBox="0 0 1000 1000" version="1.1" xmlns="http://www.w3.org/2000/svg" xmlns:xlink="http://www.w3.org/1999/xlink">
 <path d="M0,0 l1000,0 l0,1000 l-1000,0 Z M0,0" fill="rgb(242,242,242)" transform="matrix(1,0,0,-1,0,1000)"/>
 <path d="M162,350 c0,20,3.83,38.67,11.5,56 c7.67,17.33,18,32.5,31,45.5 c13,13,28.17,23.33,45.5,31 c17.33,7.67,36,11.5,56,11.5 c20,0,38.67,-3.83,56,-11.5 c17.33,-7.67,32.5,-18,45.5,-31 c13,-13,23.33,-28.17,31,-45.5 c7.67,-17.33,11.5,-36,11.5,-56 c0,-20,-3.83,-38.67,-11.5,-56 c-7.67,-17.33,-18,-32.5,-31,-45.5 c-13,-13,-28.17,-23.33,-45.5,-31 c-17.33,-7.67,-36,-11.5,-56,-11.5 c-20,0,-38.67,3.83,-56,11.5 c-17.33,7.67,-32.5,18,-45.5,31 c-13,13,-23.33,28.17,-31,45.5 c-7.67,17.33,-11.5,36,-11.5,56 Z M162,350" fill="rgb(0,0,0)" transform="matrix(0.6172839506172839,0.0,0.0,-0.6172839506172839,310.1851851851852,741.358024691358)"/>
</svg>