<?xml version="1.0" encoding="UTF-8"?>
<svg width="1000" height="1000" viewBox="0 0 1000 1000" version="1.1" xmlns="http://www.w3.org/2000/svg" xmlns:xlink="http://www.w3.org/1999/xlink">
 <path d="M163,316.5 l-12,0 c-6.33,0,-12.17,0.92,-17.5,2.75 c-5.33,1.83,-12.5,5.92,-21.5,12.25 c-11.33,8.0,-22.83,18.17,-34.5,30.5 c-11.67,12.33,-21.83,26.67,-30.5,43 c7.67,5.0,17.5,7.5,29.5,7.5 c5.67,0,10.25,-1.0,13.75,-3 c3.5,-2.0,7.58,-6.33,12.25,-13 c5.67,-7.0,12.0,-13.67,19,-20 c7.0,-6.33,16.33,-13.0,28,-20 l2,0 c14.33,10.0,26.08,19.67,35.25,29 c9.17,9.33,16.42,18.5,21.75,27.5 l3,0 c11.67,0,20.5,-1.33,26.5,-4 c6.0,-2.67,9,-5.83,9,-9.5 c0,-2.67,-1.0,-6.25,-3,-10.75 c-2.0,-4.5,-5.33,-9.92,-10,-16.25 c-8.33,-11.33,-19.08,-22.08,-32.25,-32.25 c-13.17,-10.17,-26.08,-18.08,-38.75,-23.75 Z M163,316.5" fill="rgb(0,0,0)" transform="matrix(4.5,0.0,0.0,-4.5,-161.5,2141.375)"/>
</svg>