<?xml version="1.0" encoding="UTF-8"?>
<svg width="1000" height="1000" viewBox="0 0 1000 1000" version="1.1" xmlns="http://www.w3.org/2000/svg" xmlns:xlink="http://www.w3.org/1999/xlink">
 <path d="M0,0 l1000,0 l0,1000 l-1000,0 Z M0,0" fill="rgb(242,242,242)" transform="matrix(1,0,0,-1,0,1000)"/>
 <path d="M562,182 c-11.33,-58.67,-38.17,-106,-80.5,-142 c-42.33,-36,-98.83,-54,-169.5,-54 c-36.67,0,-70.83,5.67,-102.5,17 c-31.67,11.33,-59.17,27.67,-82.5,49 c-23.33,21.33,-41.67,47.67,-55,79 c-13.33,31.33,-20,67,-20,107 l0,12 c0,40,6.67,76,20,108 c13.33,32,31.83,59.33,55.5,82 c23.67,22.67,51.33,40,83,52 c31.67,12,65.5,18,101.5,18 c69.33,0,125.5,-18,168.5,-54 c43,-36,70.17,-83.33,81.5,-142 l-124,-32 c-4,29.33,-16.67,54.67,-38,76 c-21.33,21.33,-51.33,32,-90,32 c-18,0,-35,-3.33,-51,-10 c-16,-6.67,-30,-16.17,-42,-28.5 c-12,-12.33,-21.5,-27.33,-28.5,-45 c-7,-17.67,-10.5,-37.5,-10.5,-59.5 l0,-6 c0,-22,3.5,-41.5,10.5,-58.5 c7,-17,16.5,-31.17,28.5,-42.5 c12,-11.33,26,-19.83,42,-25.5 c16,-5.67,33,-8.5,51,-8.5 c38.67,0,68.17,9.67,88.5,29 c20.33,19.33,33.5,45.33,39.5,78 Z M482,706 l-84,-136 l-172,0 l-84,136 l121,0 l43,-88 l12,0 l43,88 Z M482,706" fill="rgb(0,0,0)" transform="matrix(0.6172839506172839,0.0,0.0,-0.6172839506172839,310.1851851851852,741.358024691358)"/>
</svg>