<?xml version="1.0" encoding="UTF-8"?>
<svg width="1000" height="1000" viewBox="0 0 1000 1000" version="1.1" xmlns="http://www.w3.org/2000/svg" xmlns:xlink="http://www.w3.org/1999/xlink">
 <path d="M175,272.5 c17.33,0,32.08,-1.83,44.25,-5.5 c12.17,-3.67,21.42,-8.83,27.75,-15.5 c4.0,-4.0,6.83,-8.5,8.5,-13.5 c1.67,-5.0,2.5,-11.83,2.5,-20.5 c0,-6.33,-0.5,-11.83,-1.5,-16.5 c-1.0,-4.67,-2.33,-9.5,-4,-14.5 l-3,0 c-12.0,11.67,-23.67,19.92,-35,24.75 c-11.33,4.83,-25.83,7.25,-43.5,7.25 c-17.33,0,-32.42,-4.33,-45.25,-13 c-12.83,-8.67,-22.75,-20.58,-29.75,-35.75 c-7.0,-15.17,-10.5,-32.58,-10.5,-52.25 l0,-6 c0,-9.67,1.17,-19.08,3.5,-28.25 c2.33,-9.17,6.5,-17.75,12.5,-25.75 c18.33,-7.67,39.0,-11.5,62,-11.5 c20.67,0,38.17,2.58,52.5,7.75 c14.33,5.17,27.67,13.08,40,23.75 l3,0 c0.67,-2.33,1.08,-4.92,1.25,-7.75 c0.17,-2.83,0.25,-6.42,0.25,-10.75 c0,-8.33,-1.08,-15.92,-3.25,-22.75 c-2.17,-6.83,-5.75,-12.75,-10.75,-17.75 c-7.0,-7.0,-17.42,-12.75,-31.25,-17.25 c-13.83,-4.5,-31.08,-6.75,-51.75,-6.75 c-24.0,0,-46.0,5.33,-66,16 c-20.0,10.67,-35.92,25.25,-47.75,43.75 c-11.83,18.5,-17.75,39.25,-17.75,62.25 l0,6.5 c0,31.0,6.17,57.67,18.5,80 c12.33,22.33,29.25,39.5,50.75,51.5 c21.5,12.0,46.08,18,73.75,18 Z M176,317.5 l-12,0 c-6.33,0,-12.17,0.92,-17.5,2.75 c-5.33,1.83,-12.5,5.92,-21.5,12.25 c-11.33,8.0,-22.83,18.17,-34.5,30.5 c-11.67,12.33,-21.83,26.67,-30.5,43 c7.67,5.0,17.5,7.5,29.5,7.5 c5.67,0,10.25,-1.0,13.75,-3 c3.5,-2.0,7.58,-6.33,12.25,-13 c5.67,-7.0,12.0,-13.67,19,-20 c7.0,-6.33,16.33,-13.0,28,-20 l2,0 c14.33,10.0,26.08,19.67,35.25,29 c9.17,9.33,16.42,18.5,21.75,27.5 l3,0 c11.67,0,20.5,-1.33,26.5,-4 c6.0,-2.67,9,-5.83,9,-9.5 c0,-2.67,-1.0,-6.25,-3,-10.75 c-2.0,-4.5,-5.33,-9.92,-10,-16.25 c-8.33,-11.33,-19.08,-22.08,-32.25,-32.25 c-13.17,-10.17,-26.08,-18.08,-38.75,-23.75 Z M176,317.5" fill="rgb(0,0,0)" transform="matrix(2.1454112038140645,0.0,0.0,-2.1454112038140645,186.2336114421931,938.2002383790227)"/>
</svg>