<?xml version="1.0" encoding="UTF-8"?>
<svg width="1000" height="1000" viewBox="0 0 1000 1000" version="1.1" xmlns="http://www.w3.org/2000/svg" xmlns:xlink="http://www.w3.org/1999/xlink">
 <path d="M0,0 l1000,0 l0,1000 l-1000,0 Z M0,0" fill="rgb(242,242,242)" transform="matrix(1,0,0,-1,0,1000)"/>
 <path d="M562,182 c-10.67,-54.67,-34.5,-99.33,-71.5,-134 c-37,-34.67,-86.83,-54.67,-149.5,-60 l-7,-34 l12,0 c3.33,6,8.67,11.17,16,15.5 c7.33,4.33,17.33,6.5,30,6.5 c28,0,48.83,-8.67,62.5,-26 c13.67,-17.33,20.5,-38,20.5,-62 c0,-31.33,-10.5,-55.83,-31.5,-73.5 c-21,-17.67,-47.17,-26.5,-78.5,-26.5 c-19.33,0,-35.33,1.83,-48,5.5 c-12.67,3.67,-24.67,8.5,-36,14.5 l26,68 c15.33,-9.33,32,-14,50,-14 c10,0,18.17,2.33,24.5,7 c6.33,4.67,9.5,11,9.5,19 c0,6,-1.67,11.17,-5,15.5 c-3.33,4.33,-8.33,6.5,-15,6.5 c-11.33,0,-18,-4.67,-20,-14 l-97,0 l0,12 l17,81 c-31.33,4,-60.5,12.33,-87.5,25 c-27,12.67,-50.17,29.5,-69.5,50.5 c-19.33,21,-34.5,46.17,-45.5,75.5 c-11,29.33,-16.5,62,-16.5,98 l0,12 c0,40,6.67,76,20,108 c13.33,32,31.83,59.33,55.5,82 c23.67,22.67,51.33,40,83,52 c31.67,12,65.5,18,101.5,18 c69.33,0,125.5,-18,168.5,-54 c43,-36,70.17,-83.33,81.5,-142 l-124,-32 c-4,29.33,-16.67,54.67,-38,76 c-21.33,21.33,-51.33,32,-90,32 c-18,0,-35,-3.33,-51,-10 c-16,-6.67,-30,-16.17,-42,-28.5 c-12,-12.33,-21.5,-27.33,-28.5,-45 c-7,-17.67,-10.5,-37.5,-10.5,-59.5 l0,-6 c0,-22,3.5,-41.5,10.5,-58.5 c7,-17,16.5,-31.17,28.5,-42.5 c12,-11.33,26,-19.83,42,-25.5 c16,-5.67,33,-8.5,51,-8.5 c38.67,0,68.17,9.67,88.5,29 c20.33,19.33,33.5,45.33,39.5,78 Z M562,182" fill="rgb(0,0,0)" transform="matrix(0.6172839506172839,0.0,0.0,-0.6172839506172839,310.1851851851852,741.358024691358)"/>
</svg>