<?xml version="1.0" encoding="UTF-8"?>
<svg width="1000" height="1000" viewBox="0 0 1000 1000" version="1.1" xmlns="http://www.w3.org/2000/svg" xmlns:xlink="http://www.w3.org/1999/xlink">
 <path d="M0,0 l1000,0 l0,1000 l-1000,0 Z M0,0" fill="rgb(242,242,242)" transform="matrix(1,0,0,-1,0,1000)"/>
 <path d="M300,0 l-10,-46 l12,0 c3.33,6,8.67,11.17,16,15.5 c7.33,4.33,17.33,6.5,30,6.5 c28,0,48.83,-8.67,62.5,-26 c13.67,-17.33,20.5,-38,20.5,-62 c0,-31.33,-10.5,-55.83,-31.5,-73.5 c-21,-17.67,-47.17,-26.5,-78.5,-26.5 c-19.33,0,-35.33,1.83,-48,5.5 c-12.67,3.67,-24.67,8.5,-36,14.5 l26,68 c15.33,-9.33,32,-14,50,-14 c10,0,18.17,2.33,24.5,7 c6.33,4.67,9.5,11,9.5,19 c0,6,-1.67,11.17,-5,15.5 c-3.33,4.33,-8.33,6.5,-15,6.5 c-11.33,0,-18,-4.67,-20,-14 l-97,0 l0,12 l20,92 Z M300,0" fill="rgb(0,0,0)" transform="matrix(0.6172839506172839,0.0,0.0,-0.6172839506172839,310.1851851851852,741.358024691358)"/>
</svg>