<?xml version="1.0" encoding="UTF-8"?>
<svg width="1000" height="1000" viewBox="0 0 1000 1000" version="1.1" xmlns="http://www.w3.org/2000/svg" xmlns:xlink="http://www.w3.org/1999/xlink">
 <path d="M152.5,147.5 l3,0 c10.67,0,17.92,-1.67,21.75,-5 c3.83,-3.33,5.75,-8.33,5.75,-15 c0,-8.0,0,-16.25,0,-24.75 c0,-8.5,0,-16.92,0,-25.25 c15.33,1.33,28.67,4.5,40,9.5 c11.33,5.0,22.33,12.0,33,21 l3,0 c0.67,-2.67,1.08,-5.33,1.25,-8 c0.17,-2.67,0.25,-6.0,0.25,-10 c0,-6.67,-1.17,-14.17,-3.5,-22.5 c-2.33,-8.33,-5.5,-14.5,-9.5,-18.5 c-5.67,-5.33,-13.67,-10.17,-24,-14.5 c-10.33,-4.33,-23.83,-7.33,-40.5,-9 c0,-6.33,0,-12.17,0,-17.5 c0,-10.33,0.5,-19.17,1.5,-26.5 c1.0,-7.33,2.67,-14.33,5,-21 c-7.0,-2.33,-14.33,-3.5,-22,-3.5 c-14.0,0,-23.5,3.83,-28.5,11.5 c-5.0,7.67,-6.33,18.67,-4,33 c1.0,7.33,2.0,15.5,3,24.5 c-20.67,3.0,-39.08,9.67,-55.25,20 c-16.17,10.33,-28.83,23.67,-38,40 c-9.17,16.33,-13.75,34.83,-13.75,55.5 l0,6 c0,29.0,5.0,54.33,15,76 c10.0,21.67,24.0,39.17,42,52.5 c18.0,13.33,38.83,21.67,62.5,25 l0,13 c0,10.67,-0.42,19.5,-1.25,26.5 c-0.83,7.0,-2.42,13.83,-4.75,20.5 c3.0,1.0,6.58,1.92,10.75,2.75 c4.17,0.83,7.92,1.25,11.25,1.25 c13.67,0,23.08,-3.83,28.25,-11.5 c5.17,-7.67,6.58,-18.83,4.25,-33.5 c-0.67,-5.67,-1.5,-11.67,-2.5,-18 c23.33,-3.0,40.33,-9.83,51,-20.5 c7.0,-7.33,10.5,-18.83,10.5,-34.5 c0,-5.67,-0.5,-10.92,-1.5,-15.75 c-1.0,-4.83,-2.33,-9.58,-4,-14.25 l-3,0 c-9.33,9.0,-18.5,15.92,-27.5,20.75 c-9.0,4.83,-19.83,8.08,-32.5,9.75 c-1.67,-12.33,-3.25,-24.58,-4.75,-36.75 c-1.5,-12.17,-3.08,-24.25,-4.75,-36.25 l-3,0 c-9.67,0,-16.5,1.75,-20.5,5.25 c-4.0,3.5,-6,8.42,-6,14.75 l0,52 c-20.67,-4.67,-36.92,-16.0,-48.75,-34 c-11.83,-18.0,-17.75,-39.5,-17.75,-64.5 l0,-6 c0,-9.0,1.17,-17.42,3.5,-25.25 c2.33,-7.83,6.17,-15.08,11.5,-21.75 c4.67,-4.0,10.83,-7.58,18.5,-10.75 c7.67,-3.17,16.5,-5.42,26.5,-6.75 c1.67,12.33,3.17,24.42,4.5,36.25 c1.33,11.83,2.67,23.08,4,33.75 Z M152.5,147.5" fill="rgb(0,0,0)" transform="matrix(2.2058823529411766,0.0,0.0,-2.2058823529411766,178.4926470588235,855.1470588235295)"/>
</svg>