<?xml version="1.0" encoding="UTF-8"?>
<svg width="1000" height="1000" viewBox="0 0 1000 1000" version="1.1" xmlns="http://www.w3.org/2000/svg" xmlns:xlink="http://www.w3.org/1999/xlink">
 <path d="M0,0 l1000,0 l0,1000 l-1000,0 Z M0,0" fill="rgb(242,242,242)" transform="matrix(1,0,0,-1,0,1000)"/>
 <path d="M360,608 c52,-8,95.33,-28.67,130,-62 c34.67,-33.33,56,-74.67,64,-124 l-112,-26 c-4,23.33,-12.33,44.33,-25,63 c-12.67,18.67,-31.67,31.67,-57,39 l0,-296 c25.33,7.33,44.33,20.83,57,40.5 c12.67,19.67,21.67,40.17,27,61.5 l112,-26 c-9.33,-49.33,-31,-90.67,-65,-124 c-34,-33.33,-77.67,-54.33,-131,-63 l0,-63 l-96,0 l0,63 c-29.33,4.67,-56.67,13.67,-82,27 c-25.33,13.33,-47.33,30.67,-66,52 c-18.67,21.33,-33.33,46.33,-44,75 c-10.67,28.67,-16,61,-16,97 l0,12 c0,34.67,5.33,66.5,16,95.5 c10.67,29,25.33,54.33,44,76 c18.67,21.67,40.67,39.33,66,53 c25.33,13.67,52.67,23.17,82,28.5 l0,65 l96,0 Z M170,345 c0,-37.33,8.67,-67.83,26,-91.5 c17.33,-23.67,40,-40.17,68,-49.5 l0,291 c-28,-10,-50.67,-27.5,-68,-52.5 c-17.33,-25,-26,-55.5,-26,-91.5 Z M170,345" fill="rgb(0,0,0)" transform="matrix(0.6172839506172839,0.0,0.0,-0.6172839506172839,310.1851851851852,741.358024691358)"/>
</svg>