<?xml version="1.0" encoding="UTF-8"?>
<svg width="1000" height="1000" viewBox="0 0 1000 1000" version="1.1" xmlns="http://www.w3.org/2000/svg" xmlns:xlink="http://www.w3.org/1999/xlink">
 <path d="M95.5,6.5 l0,2.5 c-19.33,12.0,-34.33,28.67,-45,50 c-10.67,21.33,-16,45.33,-16,72 l0,13 c0,45.0,7.17,84.58,21.5,118.75 c14.33,34.17,34.0,59.58,59,76.25 c1.67,12.33,2.75,25.17,3.25,38.5 c0.5,13.33,0.75,25.0,0.75,35 c5.0,1.33,11.83,2,20.5,2 c7.67,0,13.67,-1.17,18,-3.5 c4.33,-2.33,6.5,-6.83,6.5,-13.5 c0,-12.67,-2.67,-25.33,-8,-38 l0,-2.5 c9.0,2.0,18.17,3,27.5,3 c4.0,0,8.0,-0.17,12,-0.5 c0.67,9.67,1.17,19.17,1.5,28.5 c0.33,9.33,0.5,17.5,0.5,24.5 c4.33,1.33,10.67,2,19,2 c16.33,0,24.5,-5.67,24.5,-17 c0,-7.0,-0.92,-14.58,-2.75,-22.75 c-1.83,-8.17,-4.92,-16.42,-9.25,-24.75 l0,-3 c4.0,-3.0,7.83,-6.33,11.5,-10 c8.33,-8.0,14.17,-17.0,17.5,-27 c3.33,-10.0,5,-21.33,5,-34 l0,-68.5 c-5.67,-2.33,-12.67,-3.5,-21,-3.5 c-11.33,0,-20.0,2.0,-26,6 c-6.0,4.0,-9,10.67,-9,20 c0,15.67,0.33,29.08,1,40.25 c0.67,11.17,0.67,22.75,0,34.75 c-4.33,2.0,-8.33,3.42,-12,4.25 c-3.67,0.83,-7.33,1.25,-11,1.25 c-17.33,0,-33.17,-7.33,-47.5,-22 c-14.33,-14.67,-25.75,-34.75,-34.25,-60.25 c-8.5,-25.5,-12.75,-54.25,-12.75,-86.25 l0,-10 c0,-18.67,1.17,-35.17,3.5,-49.5 c8.67,-11.67,18.92,-21.17,30.75,-28.5 c11.83,-7.33,26.75,-11,44.75,-11 c39.67,0,71.33,15.83,95,47.5 l3,0 c1.0,-3.33,1.75,-7.08,2.25,-11.25 c0.5,-4.17,0.75,-8.08,0.75,-11.75 c0,-11.67,-1.75,-21.33,-5.25,-29 c-3.5,-7.67,-7.92,-14.33,-13.25,-20 c-12.0,-12.0,-27.5,-20.17,-46.5,-24.5 c-1.0,-11.0,-1.75,-21.83,-2.25,-32.5 c-0.5,-10.67,-0.75,-19.5,-0.75,-26.5 c-2.67,-0.33,-5.58,-0.75,-8.75,-1.25 c-3.17,-0.5,-6.58,-0.75,-10.25,-0.75 c-9.67,0,-16.0,1.33,-19,4 c-3.0,2.67,-4.5,6.83,-4.5,12.5 c0,5.0,0.75,10.75,2.25,17.25 c1.5,6.5,3.42,13.42,5.75,20.75 l0,2.5 l-2,0 c-12.67,0,-24.67,1.5,-36,4.5 c-1.33,-11.33,-2.58,-22.42,-3.75,-33.25 c-1.17,-10.83,-1.75,-19.58,-1.75,-26.25 c-2.67,-0.33,-5.67,-0.75,-9,-1.25 c-3.33,-0.5,-7.33,-0.75,-12,-0.75 c-8.33,0,-14.25,1.58,-17.75,4.75 c-3.5,3.17,-5.25,8.42,-5.25,15.75 c0,6.33,1.17,14.08,3.5,23.25 c2.33,9.17,6.17,19.08,11.5,29.75 Z M95.5,6.5" fill="rgb(0,0,0)" transform="matrix(1.8691588785046729,0.0,0.0,-1.8691588785046729,214.95327102803736,824.766355140187)"/>
</svg>