<?xml version="1.0" encoding="UTF-8"?>
<svg width="1000" height="1000" viewBox="0 0 1000 1000" version="1.1" xmlns="http://www.w3.org/2000/svg" xmlns:xlink="http://www.w3.org/1999/xlink">
 <path d="M121.5,-98 c-8.33,0,-15.5,1.08,-21.5,3.25 c-6.0,2.17,-12.0,5.75,-18,10.75 c9.0,16.0,16.17,32.33,21.5,49 c5.33,16.67,9.25,35.08,11.75,55.25 c2.5,20.17,3.75,43.08,3.75,68.75 c9.67,2.67,19.0,4,28,4 c14.67,0,25.75,-2.42,33.25,-7.25 c7.5,-4.83,11.25,-13.58,11.25,-26.25 c0,-19.0,-2.5,-38.17,-7.5,-57.5 c-5.0,-19.33,-11.42,-37.17,-19.25,-53.5 c-7.83,-16.33,-16.42,-29.5,-25.75,-39.5 c-3.67,-4.67,-9.5,-7,-17.5,-7 Z M121.5,-98" fill="rgb(0,0,0)" transform="matrix(4.712041884816754,0.0,0.0,-4.712041884816754,-144.37172774869111,488.21989528795814)"/>
</svg>