<?xml version="1.0" encoding="UTF-8"?>
<svg width="1000" height="1000" viewBox="0 0 1000 1000" version="1.1" xmlns="http://www.w3.org/2000/svg" xmlns:xlink="http://www.w3.org/1999/xlink">
 <path d="M0,0 l1000,0 l0,1000 l-1000,0 Z M0,0" fill="rgb(242,242,242)" transform="matrix(1,0,0,-1,0,1000)"/>
 <path d="M305,634 c-11.33,0,-19.5,-3.33,-24.5,-10 c-5,-6.67,-7.5,-14,-7.5,-22 l0,-92 c0,-8,2.5,-15.33,7.5,-22 c5,-6.67,13.17,-10,24.5,-10 c11.33,0,19.5,3.33,24.5,10 c5,6.67,7.5,14,7.5,22 l0,16 l78,0 l0,-16 c0,-30.67,-9.83,-55.67,-29.5,-75 c-19.67,-19.33,-46.5,-29,-80.5,-29 c-32.67,0,-59.17,9.67,-79.5,29 c-20.33,19.33,-30.5,44.33,-30.5,75 l0,92 c0,30.67,10,55.67,30,75 c20,19.33,46.67,29,80,29 c34,0,60.83,-9.67,80.5,-29 c19.67,-19.33,29.5,-44.33,29.5,-75 l0,-16 l-78,0 l0,16 c0,8,-2.5,15.33,-7.5,22 c-5,6.67,-13.17,10,-24.5,10 Z M28,556 c0,38,7.33,74,22,108 c14.67,34,34.5,63.5,59.5,88.5 c25,25,54.5,44.83,88.5,59.5 c34,14.67,70,22,108,22 c38,0,74,-7.33,108,-22 c34,-14.67,63.5,-34.5,88.5,-59.5 c25,-25,44.83,-54.5,59.5,-88.5 c14.67,-34,22,-70,22,-108 c0,-38,-7.33,-74,-22,-108 c-14.67,-34,-34.5,-63.5,-59.5,-88.5 c-25,-25,-54.5,-44.83,-88.5,-59.5 c-34,-14.67,-70,-22,-108,-22 c-38,0,-74,7.33,-108,22 c-34,14.67,-63.5,34.5,-88.5,59.5 c-25,25,-44.83,54.5,-59.5,88.5 c-14.67,34,-22,70,-22,108 Z M106,556 c0,-28,5.17,-54.17,15.5,-78.5 c10.33,-24.33,24.5,-45.5,42.5,-63.5 c18,-18,39.17,-32.17,63.5,-42.5 c24.33,-10.33,50.5,-15.5,78.5,-15.5 c28,0,54.17,5.17,78.5,15.5 c24.33,10.33,45.5,24.5,63.5,42.5 c18,18,32.17,39.17,42.5,63.5 c10.33,24.33,15.5,50.5,15.5,78.5 c0,28,-5.17,54.17,-15.5,78.5 c-10.33,24.33,-24.5,45.5,-42.5,63.5 c-18,18,-39.17,32.17,-63.5,42.5 c-24.33,10.33,-50.5,15.5,-78.5,15.5 c-28,0,-54.17,-5.17,-78.5,-15.5 c-24.33,-10.33,-45.5,-24.5,-63.5,-42.5 c-18,-18,-32.17,-39.17,-42.5,-63.5 c-10.33,-24.33,-15.5,-50.5,-15.5,-78.5 Z M106,556" fill="rgb(0,0,0)" transform="matrix(0.6172839506172839,0.0,0.0,-0.6172839506172839,310.1851851851852,741.358024691358)"/>
</svg>