<?xml version="1.0" encoding="UTF-8"?>
<svg width="1000" height="1000" viewBox="0 0 1000 1000" version="1.1" xmlns="http://www.w3.org/2000/svg" xmlns:xlink="http://www.w3.org/1999/xlink">
 <path d="M0,0 l1000,0 l0,1000 l-1000,0 Z M0,0" fill="rgb(242,242,242)" transform="matrix(1,0,0,-1,0,1000)"/>
 <path d="M268,264 c0,-13.33,2.83,-24,8.5,-32 c5.67,-8,15.5,-12,29.5,-12 c14,0,23.83,4,29.5,12 c5.67,8,8.5,18.67,8.5,32 l0,46 l96,0 l0,-40 c0,-44,-10,-78.33,-30,-103 c-20,-24.67,-54.67,-37,-104,-37 c-43.33,0,-76.5,12.5,-99.5,37.5 c-23,25,-34.5,62.5,-34.5,112.5 l0,140 c0,50,11.5,87.5,34.5,112.5 c23,25,56.17,37.5,99.5,37.5 c49.33,0,84,-12.33,104,-37 c20,-24.67,30,-59,30,-103 l0,-40 l-96,0 l0,46 c0,13.33,-2.83,24,-8.5,32 c-5.67,8,-15.5,12,-29.5,12 c-14,0,-23.83,-4,-29.5,-12 c-5.67,-8,-8.5,-18.67,-8.5,-32 Z M30,514 c0,65.33,17.5,115,52.5,149 c35,34,82.17,51,141.5,51 l164,0 c59.33,0,106.5,-17,141.5,-51 c35,-34,52.5,-83.67,52.5,-149 l0,-328 c0,-65.33,-17.5,-115,-52.5,-149 c-35,-34,-82.17,-51,-141.5,-51 l-164,0 c-59.33,0,-106.5,17,-141.5,51 c-35,34,-52.5,83.67,-52.5,149 Z M126,206 c0,-40,9.17,-70.67,27.5,-92 c18.33,-21.33,47.17,-32,86.5,-32 l132,0 c39.33,0,68.17,10.67,86.5,32 c18.33,21.33,27.5,52,27.5,92 l0,288 c0,40,-9.17,70.67,-27.5,92 c-18.33,21.33,-47.17,32,-86.5,32 l-132,0 c-39.33,0,-68.17,-10.67,-86.5,-32 c-18.33,-21.33,-27.5,-52,-27.5,-92 Z M126,206" fill="rgb(0,0,0)" transform="matrix(0.6172839506172839,0.0,0.0,-0.6172839506172839,310.1851851851852,741.358024691358)"/>
</svg>