<?xml version="1.0" encoding="UTF-8"?>
<svg width="1000" height="1000" viewBox="0 0 1000 1000" version="1.1" xmlns="http://www.w3.org/2000/svg" xmlns:xlink="http://www.w3.org/1999/xlink">
 <path d="M0,0 l1000,0 l0,1000 l-1000,0 Z M0,0" fill="rgb(242,242,242)" transform="matrix(1,0,0,-1,0,1000)"/>
 <path d="M56,350 c0,24.67,3.33,48.33,10,71 c6.67,22.67,16.33,43.67,29,63 l-61,61 l77,77 l61,-61 c19.33,12,40.17,21.5,62.5,28.5 c22.33,7,46.17,10.5,71.5,10.5 c24.67,0,48.33,-3.5,71,-10.5 c22.67,-7,43.67,-16.5,63,-28.5 l61,61 l77,-77 l-61,-61 c12,-19.33,21.5,-40.33,28.5,-63 c7,-22.67,10.5,-46.33,10.5,-71 c0,-25.33,-3.5,-49.17,-10.5,-71.5 c-7,-22.33,-16.5,-43.17,-28.5,-62.5 l61,-61 l-77,-77 l-61,61 c-19.33,-12.67,-40.33,-22.33,-63,-29 c-22.67,-6.67,-46.33,-10,-71,-10 c-25.33,0,-49.17,3.33,-71.5,10 c-22.33,6.67,-43.17,16.33,-62.5,29 l-61,-61 l-77,77 l61,61 c-12.67,19.33,-22.33,40.17,-29,62.5 c-6.67,22.33,-10,46.17,-10,71.5 Z M164,350 c0,-20,3.67,-38.67,11,-56 c7.33,-17.33,17.33,-32.33,30,-45 c12.67,-12.67,27.67,-22.67,45,-30 c17.33,-7.33,36,-11,56,-11 c20,0,38.67,3.67,56,11 c17.33,7.33,32.33,17.33,45,30 c12.67,12.67,22.67,27.67,30,45 c7.33,17.33,11,36,11,56 c0,20,-3.67,38.67,-11,56 c-7.33,17.33,-17.33,32.33,-30,45 c-12.67,12.67,-27.67,22.67,-45,30 c-17.33,7.33,-36,11,-56,11 c-20,0,-38.67,-3.67,-56,-11 c-17.33,-7.33,-32.33,-17.33,-45,-30 c-12.67,-12.67,-22.67,-27.67,-30,-45 c-7.33,-17.33,-11,-36,-11,-56 Z M164,350" fill="rgb(0,0,0)" transform="matrix(0.6172839506172839,0.0,0.0,-0.6172839506172839,310.1851851851852,741.358024691358)"/>
</svg>