<?xml version="1.0" encoding="UTF-8"?>
<svg width="1000" height="1000" viewBox="0 0 1000 1000" version="1.1" xmlns="http://www.w3.org/2000/svg" xmlns:xlink="http://www.w3.org/1999/xlink">
 <path d="M66,151 c0,15.67,3.33,30.0,10,43 c-3.67,1.33,-7.0,3.5,-10,6.5 c-9.33,7.67,-18.17,16.5,-26.5,26.5 c4.0,5.33,8.17,10.5,12.5,15.5 c8.33,8.33,15.83,12.5,22.5,12.5 c6.0,0,11.5,-3.5,16.5,-10.5 c5.33,-6.33,10.83,-12.33,16.5,-18 c13.0,7.33,27.67,11,44,11 c15.67,0,29.83,-3.5,42.5,-10.5 c5.0,5.0,10.33,10.83,16,17.5 c5.33,6.67,10.83,10,16.5,10 c6.67,0,14.17,-4.17,22.5,-12.5 c2.0,-2.0,4.08,-4.42,6.25,-7.25 c2.17,-2.83,4.25,-5.58,6.25,-8.25 c-4.33,-5.0,-8.83,-9.83,-13.5,-14.5 c-4.67,-4.67,-9.33,-9.17,-14,-13.5 c-2.67,-2.33,-5.5,-4.17,-8.5,-5.5 c5.67,-11.67,8.5,-24.5,8.5,-38.5 l0,-3.5 c0,-17.0,-3.83,-32.17,-11.5,-45.5 c4.67,-1.67,8.83,-4.17,12.5,-7.5 c4.67,-4.0,9.17,-8.25,13.5,-12.75 c4.33,-4.5,8.5,-9.08,12.5,-13.75 c-1.67,-2.67,-3.67,-5.42,-6,-8.25 c-2.33,-2.83,-4.5,-5.42,-6.5,-7.75 c-8.0,-8.0,-15.5,-12,-22.5,-12 c-5.67,0,-11.17,3.33,-16.5,10 c-5.67,7.0,-12.0,14.0,-19,21 c-12.67,-6.67,-26.67,-10,-42,-10 c-14.67,0,-28.0,3.0,-40,9 c-6.0,-5.67,-12.17,-12.33,-18.5,-20 c-5.33,-6.67,-10.83,-10,-16.5,-10 c-6.67,0,-14.17,4.17,-22.5,12.5 c-2.0,2.0,-4.08,4.42,-6.25,7.25 c-2.17,2.83,-4.25,5.58,-6.25,8.25 c4.67,5.0,9.25,9.83,13.75,14.5 c4.5,4.67,9.08,9.17,13.75,13.5 c3.33,2.67,6.67,4.83,10,6.5 c-6.67,12.33,-10,26.17,-10,41.5 Z M107,145 c0,-15.67,4.67,-27.33,14,-35 c4.33,-1.67,8.5,-2.83,12.5,-3.5 c4.0,-0.67,8.17,-1,12.5,-1 c31.67,0,47.5,16.0,47.5,48 l0,3 c0,16.0,-5.5,28.17,-16.5,36.5 c-6.0,2.33,-13.67,3.5,-23,3.5 c-15.33,0,-27.0,-4.5,-35,-13.5 c-8.0,-9.0,-12,-20.67,-12,-35 Z M107,145" fill="rgb(0,0,0)" transform="matrix(4.0358744394618835,0.0,0.0,-4.0358744394618835,-105.38116591928252,1102.3542600896862)"/>
</svg>