<?xml version="1.0" encoding="UTF-8"?>
<svg width="1000" height="1000" viewBox="0 0 1000 1000" version="1.1" xmlns="http://www.w3.org/2000/svg" xmlns:xlink="http://www.w3.org/1999/xlink">
 <path d="M183,-75.5 c-1.33,-0.67,-3.08,-1.33,-5.25,-2 c-2.17,-0.67,-4.42,-1,-6.75,-1 c-7.33,0,-13.83,2.83,-19.5,8.5 c-3.67,3.67,-7.17,9.5,-10.5,17.5 c-3.33,8.0,-6.33,20.25,-9,36.75 c-2.67,16.5,-4.83,38.83,-6.5,67 c-1.67,28.17,-2.5,64.08,-2.5,107.75 l0,38 l-94,0 c-1.33,4.33,-2,9.83,-2,16.5 c0,12.67,2.33,21.92,7,27.75 c4.67,5.83,14.0,8.75,28,8.75 l61,0 l0,47 c0,9.67,-0.33,19.08,-1,28.25 c-0.67,9.17,-2.0,18.25,-4,27.25 c4.0,1.0,7.83,1.67,11.5,2 c3.67,0.33,7.67,0.5,12,0.5 c10.33,0,18.75,-2.17,25.25,-6.5 c6.5,-4.33,9.75,-11.5,9.75,-21.5 l0,-77 l51.5,0 c18.33,0,30.92,-2.58,37.75,-7.75 c6.83,-5.17,10.25,-13.58,10.25,-25.25 c0,-3.0,-0.17,-6.25,-0.5,-9.75 c-0.33,-3.5,-0.83,-6.92,-1.5,-10.25 l-97.5,0 l0,-201.5 c0,-14.33,0.42,-26.83,1.25,-37.5 c0.83,-10.67,2.58,-21.83,5.25,-33.5 Z M183,-75.5" fill="rgb(0,0,0)" transform="matrix(2.0761245674740483,0.0,0.0,-2.0761245674740483,185.46712802768172,787.024221453287)"/>
</svg>