<?xml version="1.0" encoding="UTF-8"?>
<svg width="1000" height="1000" viewBox="0 0 1000 1000" version="1.1" xmlns="http://www.w3.org/2000/svg" xmlns:xlink="http://www.w3.org/1999/xlink">
 <path d="M29,197 c-1.33,4.33,-2,9.83,-2,16.5 c0,12.67,2.33,21.92,7,27.75 c4.67,5.83,14.0,8.75,28,8.75 l61.5,0 l0,47 c0,20.0,-1.67,38.5,-5,55.5 c3.67,1.0,7.42,1.67,11.25,2 c3.83,0.33,7.92,0.5,12.25,0.5 c10.0,0,18.25,-2.17,24.75,-6.5 c6.5,-4.33,9.75,-11.5,9.75,-21.5 l0,-77 l51.5,0 c18.33,0,30.92,-2.58,37.75,-7.75 c6.83,-5.17,10.25,-13.58,10.25,-25.25 c0,-3.0,-0.17,-6.25,-0.5,-9.75 c-0.33,-3.5,-0.83,-6.92,-1.5,-10.25 l-97.5,0 l0,-117.5 l94,0 c1.33,-4.33,2,-9.83,2,-16.5 c0,-12.33,-2.33,-21.5,-7,-27.5 c-4.67,-6.0,-14.0,-9,-28,-9 l-61,0 l0,-47 c0,-9.67,0.42,-19.08,1.25,-28.25 c0.83,-9.17,2.08,-18.08,3.75,-26.75 c-3.67,-1.0,-7.33,-1.67,-11,-2 c-3.67,-0.33,-7.83,-0.5,-12.5,-0.5 c-10.0,0,-18.25,2.08,-24.75,6.25 c-6.5,4.17,-9.75,11.42,-9.75,21.75 l0,76.5 l-52,0 c-18.33,0,-30.92,2.58,-37.75,7.75 c-6.83,5.17,-10.25,13.58,-10.25,25.25 c0,3.0,0.25,6.25,0.75,9.75 c0.5,3.5,0.92,6.92,1.25,10.25 l98,0 l0,117.5 Z M29,197" fill="rgb(0,0,0)" transform="matrix(2.0785219399538106,0.0,0.0,-2.0785219399538106,188.74133949191685,787.8752886836028)"/>
</svg>