<?xml version="1.0" encoding="UTF-8"?>
<svg width="1000" height="1000" viewBox="0 0 1000 1000" version="1.1" xmlns="http://www.w3.org/2000/svg" xmlns:xlink="http://www.w3.org/1999/xlink">
 <path d="M0,0 l1000,0 l0,1000 l-1000,0 Z M0,0" fill="rgb(242,242,242)" transform="matrix(1,0,0,-1,0,1000)"/>
 <path d="M270,40 l-18,0 c-5.33,-18,-15.5,-31.5,-30.5,-40.5 c-15,-9,-34.17,-13.5,-57.5,-13.5 c-50,0,-86.83,20.67,-110.5,62 c-23.67,41.33,-35.5,103.67,-35.5,187 l0,34 c0,86,13,147.67,39,185 c26,37.33,61.67,56,107,56 c22,0,41.17,-5.33,57.5,-16 c16.33,-10.67,26.5,-24,30.5,-40 l18,0 l0,246 l126,0 l0,-700 l-126,0 Z M209,390 c-23.33,0,-40,-10.17,-50,-30.5 c-10,-20.33,-15,-52.5,-15,-96.5 l0,-30 c0,-44,5,-76.17,15,-96.5 c10,-20.33,26.67,-30.5,50,-30.5 c21.33,0,36.83,7.83,46.5,23.5 c9.67,15.67,14.5,37.17,14.5,64.5 l0,108 c0,27.33,-4.83,48.83,-14.5,64.5 c-9.67,15.67,-25.17,23.5,-46.5,23.5 Z M600,496 c0,-25.33,-8.67,-46.67,-26,-64 c-17.33,-17.33,-38.67,-26,-64,-26 l-60,0 l0,78 l45,0 c18,0,27,10,27,30 l0,12 l-9,0 c-12,0,-23.17,2.33,-33.5,7 c-10.33,4.67,-19.5,11,-27.5,19 c-8,8,-14.33,17.17,-19,27.5 c-4.67,10.33,-7,21.5,-7,33.5 c0,12,2.33,23.17,7,33.5 c4.67,10.33,11,19.5,19,27.5 c8,8,17.17,14.33,27.5,19 c10.33,4.67,21.5,7,33.5,7 c12,0,23.17,-2.33,33.5,-7 c10.33,-4.67,19.5,-11,27.5,-19 c8,-8,14.33,-17.17,19,-27.5 c4.67,-10.33,7,-21.5,7,-33.5 Z M600,496" fill="rgb(0,0,0)" transform="matrix(0.6172839506172839,0.0,0.0,-0.6172839506172839,310.1851851851852,741.358024691358)"/>
</svg>