<?xml version="1.0" encoding="UTF-8"?>
<svg width="1000" height="1000" viewBox="0 0 1000 1000" version="1.1" xmlns="http://www.w3.org/2000/svg" xmlns:xlink="http://www.w3.org/1999/xlink">
 <path d="M0,0 l1000,0 l0,1000 l-1000,0 Z M0,0" fill="rgb(242,242,242)" transform="matrix(1,0,0,-1,0,1000)"/>
 <path d="M149,569 c0,22,4.17,42.5,12.5,61.5 c8.33,19,19.5,35.5,33.5,49.5 c14,14,30.5,25.17,49.5,33.5 c19,8.33,39.5,12.5,61.5,12.5 c22,0,42.5,-4.17,61.5,-12.5 c19,-8.33,35.5,-19.5,49.5,-33.5 c14,-14,25.17,-30.5,33.5,-49.5 c8.33,-19,12.5,-39.5,12.5,-61.5 c0,-22,-4.17,-42.5,-12.5,-61.5 c-8.33,-19,-19.5,-35.5,-33.5,-49.5 c-14,-14,-30.5,-25.17,-49.5,-33.5 c-19,-8.33,-39.5,-12.5,-61.5,-12.5 c-22,0,-42.5,4.17,-61.5,12.5 c-19,8.33,-35.5,19.5,-49.5,33.5 c-14,14,-25.17,30.5,-33.5,49.5 c-8.33,19,-12.5,39.5,-12.5,61.5 Z M257,569 c0,-13.33,4.83,-24.83,14.5,-34.5 c9.67,-9.67,21.17,-14.5,34.5,-14.5 c13.33,0,24.83,4.83,34.5,14.5 c9.67,9.67,14.5,21.17,14.5,34.5 c0,13.33,-4.83,24.83,-14.5,34.5 c-9.67,9.67,-21.17,14.5,-34.5,14.5 c-13.33,0,-24.83,-4.83,-34.5,-14.5 c-9.67,-9.67,-14.5,-21.17,-14.5,-34.5 Z M257,569" fill="rgb(0,0,0)" transform="matrix(0.6172839506172839,0.0,0.0,-0.6172839506172839,310.1851851851852,741.358024691358)"/>
</svg>