<?xml version="1.0" encoding="UTF-8"?>
<svg width="1000" height="1000" viewBox="0 0 1000 1000" version="1.1" xmlns="http://www.w3.org/2000/svg" xmlns:xlink="http://www.w3.org/1999/xlink">
 <path d="M66.5,380 c3.67,0.67,7.75,1.08,12.25,1.25 c4.5,0.17,8.58,0.25,12.25,0.25 c9.67,0,18.25,-1.33,25.75,-4 c7.5,-2.67,11.25,-8.33,11.25,-17 l0,-42 c-4.0,-0.67,-8.17,-1.08,-12.5,-1.25 c-4.33,-0.17,-8.5,-0.25,-12.5,-0.25 c-9.33,0,-17.75,1.5,-25.25,4.5 c-7.5,3.0,-11.25,8.83,-11.25,17.5 Z M172,380 c8.0,1.0,16.17,1.5,24.5,1.5 c9.67,0,18.25,-1.33,25.75,-4 c7.5,-2.67,11.25,-8.33,11.25,-17 l0,-42 c-3.67,-0.67,-7.75,-1.08,-12.25,-1.25 c-4.5,-0.17,-8.75,-0.25,-12.75,-0.25 c-9.33,0,-17.75,1.5,-25.25,4.5 c-7.5,3.0,-11.25,8.83,-11.25,17.5 Z M172,380" fill="rgb(0,0,0)" transform="matrix(5.389221556886228,0.0,0.0,-5.389221556886228,-308.3832335329341,2382.1856287425153)"/>
</svg>