<?xml version="1.0" encoding="UTF-8"?>
<svg width="1000" height="1000" viewBox="0 0 1000 1000" version="1.1" xmlns="http://www.w3.org/2000/svg" xmlns:xlink="http://www.w3.org/1999/xlink">
 <path d="M0,0 l1000,0 l0,1000 l-1000,0 Z M0,0" fill="rgb(242,242,242)" transform="matrix(1,0,0,-1,0,1000)"/>
 <path d="M97,407 l418,0 l0,-114 l-418,0 Z M392,159 c0,-12,-2.33,-23.17,-7,-33.5 c-4.67,-10.33,-10.83,-19.5,-18.5,-27.5 c-7.67,-8,-16.67,-14.17,-27,-18.5 c-10.33,-4.33,-21.5,-6.5,-33.5,-6.5 c-12,0,-23.17,2.17,-33.5,6.5 c-10.33,4.33,-19.33,10.5,-27,18.5 c-7.67,8,-13.83,17.17,-18.5,27.5 c-4.67,10.33,-7,21.5,-7,33.5 c0,12,2.33,23.17,7,33.5 c4.67,10.33,10.83,19.5,18.5,27.5 c7.67,8,16.67,14.17,27,18.5 c10.33,4.33,21.5,6.5,33.5,6.5 c12,0,23.17,-2.17,33.5,-6.5 c10.33,-4.33,19.33,-10.5,27,-18.5 c7.67,-8,13.83,-17.17,18.5,-27.5 c4.67,-10.33,7,-21.5,7,-33.5 Z M392,541 c0,-12,-2.33,-23.17,-7,-33.5 c-4.67,-10.33,-10.83,-19.5,-18.5,-27.5 c-7.67,-8,-16.67,-14.17,-27,-18.5 c-10.33,-4.33,-21.5,-6.5,-33.5,-6.5 c-12,0,-23.17,2.17,-33.5,6.5 c-10.33,4.33,-19.33,10.5,-27,18.5 c-7.67,8,-13.83,17.17,-18.5,27.5 c-4.67,10.33,-7,21.5,-7,33.5 c0,12,2.33,23.17,7,33.5 c4.67,10.33,10.83,19.5,18.5,27.5 c7.67,8,16.67,14.17,27,18.5 c10.33,4.33,21.5,6.5,33.5,6.5 c12,0,23.17,-2.17,33.5,-6.5 c10.33,-4.33,19.33,-10.5,27,-18.5 c7.67,-8,13.83,-17.17,18.5,-27.5 c4.67,-10.33,7,-21.5,7,-33.5 Z M392,541" fill="rgb(0,0,0)" transform="matrix(0.6172839506172839,0.0,0.0,-0.6172839506172839,310.1851851851852,741.358024691358)"/>
</svg>