<?xml version="1.0" encoding="UTF-8"?>
<svg width="1000" height="1000" viewBox="0 0 1000 1000" version="1.1" xmlns="http://www.w3.org/2000/svg" xmlns:xlink="http://www.w3.org/1999/xlink">
 <path d="M113,276 c9.67,3.0,20.67,4.5,33,4.5 c11.33,0,21.0,-2.17,29,-6.5 c8.0,-4.33,12,-12.83,12,-25.5 l0,-35.5 c-4.67,-1.67,-9.92,-2.92,-15.75,-3.75 c-5.83,-0.83,-11.58,-1.25,-17.25,-1.25 c-11.33,0,-21.0,2.25,-29,6.75 c-8.0,4.5,-12,13.08,-12,25.75 Z M29.5,176.5 l214.5,0 c10.67,0,18.33,-2.33,23,-7 c4.67,-4.67,7,-12.67,7,-24 c0,-7.0,-0.83,-14.33,-2.5,-22 l-214.5,0 c-10.67,0,-18.33,2.33,-23,7 c-4.67,4.67,-7,12.67,-7,24 c0,3.67,0.25,7.17,0.75,10.5 c0.5,3.33,1.08,7.17,1.75,11.5 Z M113,87 c4.67,1.67,9.92,2.92,15.75,3.75 c5.83,0.83,11.58,1.25,17.25,1.25 c11.33,0,21.0,-2.25,29,-6.75 c8.0,-4.5,12,-13.08,12,-25.75 l0,-35.5 c-9.33,-3.0,-20.33,-4.5,-33,-4.5 c-11.33,0,-21.0,2.25,-29,6.75 c-8.0,4.5,-12,12.92,-12,25.25 Z M113,87" fill="rgb(0,0,0)" transform="matrix(3.4482758620689653,0.0,0.0,-3.4482758620689653,-18.965517241379303,1017.2413793103449)"/>
</svg>