<?xml version="1.0" encoding="UTF-8"?>
<svg width="1000" height="1000" viewBox="0 0 1000 1000" version="1.1" xmlns="http://www.w3.org/2000/svg" xmlns:xlink="http://www.w3.org/1999/xlink">
 <path d="M0,0 l1000,0 l0,1000 l-1000,0 Z M0,0" fill="rgb(242,242,242)" transform="matrix(1,0,0,-1,0,1000)"/>
 <path d="M370,708 c30.67,-6,57.67,-15.83,81,-29.5 c23.33,-13.67,43,-29.83,59,-48.5 c16,-18.67,28,-39.33,36,-62 c8,-22.67,12,-46,12,-70 l0,-36 l-126,0 l0,24 c0,20,-5.5,38.33,-16.5,55 c-11,16.67,-26.17,29.67,-45.5,39 l0,-170 c64.67,-14.67,114.17,-38.33,148.5,-71 c34.33,-32.67,51.5,-76.33,51.5,-131 l0,-12 c0,-56,-17.67,-102.33,-53,-139 c-35.33,-36.67,-84.33,-59,-147,-67 l0,-82 l-114,0 l0,82 c-36,5.33,-67.83,15.33,-95.5,30 c-27.67,14.67,-50.67,33.17,-69,55.5 c-18.33,22.33,-32.17,47.67,-41.5,76 c-9.33,28.33,-14,58.5,-14,90.5 l0,30 l126,0 l0,-24 c0,-34,7.67,-62.5,23,-85.5 c15.33,-23,39,-39.17,71,-48.5 l0,196 c-29.33,6.67,-56,15.33,-80,26 c-24,10.67,-44.5,23.83,-61.5,39.5 c-17,15.67,-30.33,34.33,-40,56 c-9.67,21.67,-14.5,47.17,-14.5,76.5 l0,6 c0,25.33,4.5,49,13.5,71 c9,22,22,41.67,39,59 c17,17.33,37.67,31.83,62,43.5 c24.33,11.67,51.5,19.5,81.5,23.5 l0,81 l114,0 Z M444,196 c0,18.67,-5.33,35.33,-16,50 c-10.67,14.67,-30,27.33,-58,38 l0,-172 c24,6,42.33,16.5,55,31.5 c12.67,15,19,32.5,19,52.5 Z M186,514 c0,-16.67,5.33,-31.33,16,-44 c10.67,-12.67,28.67,-23.67,54,-33 l0,151 c-21.33,-5.33,-38.33,-14.17,-51,-26.5 c-12.67,-12.33,-19,-28.17,-19,-47.5 Z M186,514" fill="rgb(0,0,0)" transform="matrix(0.6172839506172839,0.0,0.0,-0.6172839506172839,310.1851851851852,741.358024691358)"/>
</svg>