<?xml version="1.0" encoding="UTF-8"?>
<svg width="1000" height="1000" viewBox="0 0 1000 1000" version="1.1" xmlns="http://www.w3.org/2000/svg" xmlns:xlink="http://www.w3.org/1999/xlink">
 <path d="M0,0 l1000,0 l0,1000 l-1000,0 Z M0,0" fill="rgb(242,242,242)" transform="matrix(1,0,0,-1,0,1000)"/>
 <path d="M354,606 c45.33,-9.33,80.33,-28,105,-56 c24.67,-28,37,-61.33,37,-100 l0,-14 l-114,0 l0,14 c0,8,-2.17,15.83,-6.5,23.5 c-4.33,7.67,-11.5,14.17,-21.5,19.5 l0,-90 c102.67,-14,154,-63,154,-147 l0,-6 c0,-44.67,-13.5,-81,-40.5,-109 c-27,-28,-64.83,-45,-113.5,-51 l0,-62 l-96,0 l0,65 c-27.33,4.67,-50.67,12.5,-70,23.5 c-19.33,11,-35.17,24.17,-47.5,39.5 c-12.33,15.33,-21.5,32.5,-27.5,51.5 c-6,19,-9,38.5,-9,58.5 l0,20 l114,0 l0,-14 c0,-15.33,3,-28.67,9,-40 c6,-11.33,16.33,-20.33,31,-27 l0,108 c-46,8,-82.17,23,-108.5,45 c-26.33,22,-39.5,54,-39.5,96 l0,6 c0,22.67,4,42.5,12,59.5 c8,17,18.67,31.67,32,44 c13.33,12.33,29,22.17,47,29.5 c18,7.33,37,12.67,57,16 l0,63 l96,0 Z M394,248 c0,10,-2.33,19.17,-7,27.5 c-4.67,8.33,-15.67,15.17,-33,20.5 l0,-95 c15.33,4.67,25.83,11.33,31.5,20 c5.67,8.67,8.5,17.67,8.5,27 Z M224,460 c0,-9.33,2,-17.17,6,-23.5 c4,-6.33,13.33,-12.17,28,-17.5 l0,79 c-12,-4,-20.67,-9.5,-26,-16.5 c-5.33,-7,-8,-14.17,-8,-21.5 Z M224,460" fill="rgb(0,0,0)" transform="matrix(0.6172839506172839,0.0,0.0,-0.6172839506172839,310.1851851851852,741.358024691358)"/>
</svg>