<?xml version="1.0" encoding="UTF-8"?>
<svg width="1000" height="1000" viewBox="0 0 1000 1000" version="1.1" xmlns="http://www.w3.org/2000/svg" xmlns:xlink="http://www.w3.org/1999/xlink">
 <path d="M138,121.5 c5.67,0,10.5,-1.5,14.5,-4.5 c6.33,-2.67,9.5,-7.83,9.5,-15.5 c-0.33,-7.33,-0.75,-15.83,-1.25,-25.5 c-0.5,-9.67,-0.92,-19.83,-1.25,-30.5 c31.67,2.0,53.67,13.17,66,33.5 l0,3 c-0.33,12.0,-4.58,22.33,-12.75,31 c-8.17,8.67,-20.75,16.17,-37.75,22.5 l-45,16.5 c-24.33,9.0,-43.08,18.42,-56.25,28.25 c-13.17,9.83,-22.17,20.08,-27,30.75 c-4.83,10.67,-7.25,21.67,-7.25,33 l0,6 c0,17.33,5.17,33.58,15.5,48.75 c10.33,15.17,24.42,28.0,42.25,38.5 c17.83,10.5,38.08,17.42,60.75,20.75 c0.33,5.67,0.58,11.33,0.75,17 c0.17,5.67,0.42,11.17,0.75,16.5 c0.67,10.67,0.33,19.58,-1,26.75 c-1.33,7.17,-3.17,14.08,-5.5,20.75 c7.0,2.33,14.33,3.5,22,3.5 c27.67,0,38.5,-14.83,32.5,-44.5 c-1.0,-6.33,-2.08,-12.67,-3.25,-19 c-1.17,-6.33,-2.25,-12.83,-3.25,-19.5 c14.0,-1.0,25.75,-3.0,35.25,-6 c9.5,-3.0,16.25,-6.67,20.25,-11 c4.0,-4.0,6.5,-8.25,7.5,-12.75 c1.0,-4.5,1.5,-9.25,1.5,-14.25 c0,-9.33,-2.17,-18.5,-6.5,-27.5 l-3,0 c-8.0,6.0,-16.92,10.58,-26.75,13.75 c-9.83,3.17,-22.08,4.92,-36.75,5.25 c-2.67,-17.33,-5.33,-34.08,-8,-50.25 c-2.67,-16.17,-5.33,-30.92,-8,-44.25 c-6.0,0,-10.83,1.5,-14.5,4.5 c-6.33,3.0,-9.5,8.17,-9.5,15.5 c0.33,9.33,0.83,20.08,1.5,32.25 c0.67,12.17,1.17,25.08,1.5,38.75 c-17.67,-4.0,-33.08,-10.67,-46.25,-20 c-13.17,-9.33,-19.75,-20.5,-19.75,-33.5 l0,-2 c0,-11.33,4.08,-20.75,12.25,-28.25 c8.17,-7.5,22.92,-15.08,44.25,-22.75 l45,-16.5 c30.33,-11.0,51.42,-23.92,63.25,-38.75 c11.83,-14.83,17.75,-31.25,17.75,-49.25 l0,-5.5 c0,-26.67,-10.0,-48.83,-30,-66.5 c-20.0,-17.67,-48.33,-27.17,-85,-28.5 c-0.33,-6.67,-0.58,-13.25,-0.75,-19.75 c-0.17,-6.5,-0.42,-12.75,-0.75,-18.75 c-0.33,-10.33,0.08,-19.17,1.25,-26.5 c1.17,-7.33,2.92,-14.33,5.25,-21 c-7.0,-2.33,-14.33,-3.5,-22,-3.5 c-28.33,0,-39.17,14.83,-32.5,44.5 c1.33,6.67,2.75,14.0,4.25,22 c1.5,8.0,2.92,16.33,4.25,25 c-16.0,2.0,-30.17,5.42,-42.5,10.25 c-12.33,4.83,-22.0,10.58,-29,17.25 c-9.0,9.67,-13.5,23.83,-13.5,42.5 c0,10.0,1.0,18.5,3,25.5 l3,0 c11.0,-12.33,23.58,-22.08,37.75,-29.25 c14.17,-7.17,30.92,-11.75,50.25,-13.75 c2.0,12.67,4.17,25.33,6.5,38 c2.33,12.67,4.5,25.0,6.5,37 Z M138,121.5" fill="rgb(0,0,0)" transform="matrix(1.6666666666666667,0.0,0.0,-1.6666666666666667,247.49999999999997,787.5)"/>
</svg>