<?xml version="1.0" encoding="UTF-8"?>
<svg width="1000" height="1000" viewBox="0 0 1000 1000" version="1.1" xmlns="http://www.w3.org/2000/svg" xmlns:xlink="http://www.w3.org/1999/xlink">
 <path d="M0,0 l1000,0 l0,1000 l-1000,0 Z M0,0" fill="rgb(242,242,242)" transform="matrix(1,0,0,-1,0,1000)"/>
 <path d="M189,207 c0.67,-14.67,4.17,-28.17,10.5,-40.5 c6.33,-12.33,15,-23,26,-32 c11,-9,23.67,-16,38,-21 c14.33,-5,29.5,-7.5,45.5,-7.5 c31.33,0,55.33,5.5,72,16.5 c16.67,11,28.67,24.17,36,39.5 l108,-60 c-6,-12.67,-14.33,-25.83,-25,-39.5 c-10.67,-13.67,-24.5,-26.17,-41.5,-37.5 c-17,-11.33,-37.67,-20.67,-62,-28 c-24.33,-7.33,-52.83,-11,-85.5,-11 c-37.33,0,-71.33,6,-102,18 c-30.67,12,-57.17,29.33,-79.5,52 c-22.33,22.67,-39.67,50.33,-52,83 c-12.33,32.67,-18.5,69.67,-18.5,111 l0,6 c0,38,6.5,72.67,19.5,104 c13,31.33,30.83,58,53.5,80 c22.67,22,49.17,39.17,79.5,51.5 c30.33,12.33,62.83,18.5,97.5,18.5 c42.67,0,79.33,-7.5,110,-22.5 c30.67,-15,56,-34,76,-57 c20,-23,34.67,-48.33,44,-76 c9.33,-27.67,14,-54.5,14,-80.5 l0,-67 Z M308,396 c-32,0,-58,-8.17,-78,-24.5 c-20,-16.33,-33,-35.17,-39,-56.5 l234,0 c-4,23.33,-16.5,42.67,-37.5,58 c-21,15.33,-47.5,23,-79.5,23 Z M308,396" fill="rgb(0,0,0)" transform="matrix(0.6172839506172839,0.0,0.0,-0.6172839506172839,310.1851851851852,741.358024691358)"/>
</svg>