<?xml version="1.0" encoding="UTF-8"?>
<svg width="1000" height="1000" viewBox="0 0 1000 1000" version="1.1" xmlns="http://www.w3.org/2000/svg" xmlns:xlink="http://www.w3.org/1999/xlink">
 <path d="M153.5,360 c21.33,0,40.5,-4.25,57.5,-12.75 c17.0,-8.5,30.58,-20.17,40.75,-35 c10.17,-14.83,15.25,-32.08,15.25,-51.75 l0,-2.5 c0,-20.0,-6.17,-37.75,-18.5,-53.25 c-12.33,-15.5,-31.0,-26.42,-56,-32.75 l0,-3.5 c20.67,-7.33,36.67,-16.0,48,-26 c11.33,-10.0,19.33,-20.17,24,-30.5 c4.67,-10.33,7,-19.83,7,-28.5 l0,-2.5 c0,-17.33,-5.0,-32.92,-15,-46.75 c-10.0,-13.83,-24.33,-24.67,-43,-32.5 c-18.67,-7.83,-40.83,-11.75,-66.5,-11.75 c-23.67,0,-44.25,3.67,-61.75,11 c-17.5,7.33,-31.0,17.5,-40.5,30.5 c-9.5,13.0,-14.25,28.0,-14.25,45 l0,3 c0,17.33,6.17,33.33,18.5,48 c12.33,14.67,32.17,24.17,59.5,28.5 l0,2.5 c-19.0,9.0,-33.83,18.92,-44.5,29.75 c-10.67,10.83,-18.17,21.92,-22.5,33.25 c-4.33,11.33,-6.5,22.5,-6.5,33.5 l0,2 c0,19.0,4.92,36.25,14.75,51.75 c9.83,15.5,23.58,27.92,41.25,37.25 c17.67,9.33,38.5,14,62.5,14 Z M146,185 l11.5,-4 c21.0,10.0,36.17,21.33,45.5,34 c9.33,12.67,14,27.17,14,43.5 l0,2 c0,14.0,-3.17,26.0,-9.5,36 c-12.67,9.0,-30.67,13.5,-54,13.5 c-11.67,0,-22.83,-2.25,-33.5,-6.75 c-10.67,-4.5,-19.33,-11.0,-26,-19.5 c-6.67,-8.5,-10,-19.08,-10,-31.75 c0,-14.33,4.67,-27.0,14,-38 c9.33,-11.0,25.33,-20.67,48,-29 Z M79,75.5 c2.33,-11.33,10.08,-20.0,23.25,-26 c13.17,-6.0,28.58,-9,46.25,-9 c19.0,0,35.08,3.08,48.25,9.25 c13.17,6.17,22.75,15.42,28.75,27.75 c-1.0,12.0,-5.08,22.58,-12.25,31.75 c-7.17,9.17,-19.92,17.08,-38.25,23.75 l-32.5,12 c-22.33,-10.33,-38.5,-21.33,-48.5,-33 c-10.0,-11.67,-15,-23.83,-15,-36.5 Z M79,75.5" fill="rgb(0,0,0)" transform="matrix(2.4324324324324325,0.0,0.0,-2.4324324324324325,132.7027027027027,925.6756756756756)"/>
</svg>