<?xml version="1.0" encoding="UTF-8"?>
<svg width="1000" height="1000" viewBox="0 0 1000 1000" version="1.1" xmlns="http://www.w3.org/2000/svg" xmlns:xlink="http://www.w3.org/1999/xlink">
 <path d="M0,0 l1000,0 l0,1000 l-1000,0 Z M0,0" fill="rgb(242,242,242)" transform="matrix(1,0,0,-1,0,1000)"/>
 <path d="M306,-14 c-39.33,0,-74.67,4.83,-106,14.5 c-31.33,9.67,-58,23.17,-80,40.5 c-22,17.33,-39,37.83,-51,61.5 c-12,23.67,-18,50.17,-18,79.5 l0,6 c0,24.67,3.5,46.33,10.5,65 c7,18.67,16.33,34.67,28,48 c11.67,13.33,24.83,24.33,39.5,33 c14.67,8.67,30,15.33,46,20 l0,18 c-14,5.33,-27.5,12.33,-40.5,21 c-13,8.67,-24.33,19.17,-34,31.5 c-9.67,12.33,-17.33,27,-23,44 c-5.67,17,-8.5,36.17,-8.5,57.5 l0,6 c0,28.67,6.67,54.33,20,77 c13.33,22.67,31,41.83,53,57.5 c22,15.67,47.17,27.5,75.5,35.5 c28.33,8,57.83,12,88.5,12 c30.67,0,60.17,-4,88.5,-12 c28.33,-8,53.5,-19.83,75.5,-35.5 c22,-15.67,39.67,-34.83,53,-57.5 c13.33,-22.67,20,-48.33,20,-77 l0,-6 c0,-21.33,-2.83,-40.5,-8.5,-57.5 c-5.67,-17,-13.33,-31.67,-23,-44 c-9.67,-12.33,-21,-22.83,-34,-31.5 c-13,-8.67,-26.5,-15.67,-40.5,-21 l0,-18 c16,-4.67,31.33,-11.33,46,-20 c14.67,-8.67,27.83,-19.67,39.5,-33 c11.67,-13.33,21,-29.33,28,-48 c7,-18.67,10.5,-40.33,10.5,-65 l0,-6 c0,-29.33,-6,-56,-18,-80 c-12,-24,-29,-44.5,-51,-61.5 c-22,-17,-48.83,-30.33,-80.5,-40 c-31.67,-9.67,-66.83,-14.5,-105.5,-14.5 Z M306,112 c39.33,0,69.67,8.83,91,26.5 c21.33,17.67,32,40.17,32,67.5 c0,27.33,-10.67,49.83,-32,67.5 c-21.33,17.67,-51.67,26.5,-91,26.5 c-39.33,0,-69.67,-8.83,-91,-26.5 c-21.33,-17.67,-32,-40.17,-32,-67.5 c0,-27.33,10.67,-49.83,32,-67.5 c21.33,-17.67,51.67,-26.5,91,-26.5 Z M306,588 c-30,0,-55,-7.67,-75,-23 c-20,-15.33,-30,-34.67,-30,-58 c0,-23.33,10,-42.67,30,-58 c20,-15.33,45,-23,75,-23 c30,0,55,7.67,75,23 c20,15.33,30,34.67,30,58 c0,23.33,-10,42.67,-30,58 c-20,15.33,-45,23,-75,23 Z M306,588" fill="rgb(0,0,0)" transform="matrix(0.6172839506172839,0.0,0.0,-0.6172839506172839,310.1851851851852,741.358024691358)"/>
</svg>