<?xml version="1.0" encoding="UTF-8"?>
<svg width="1000" height="1000" viewBox="0 0 1000 1000" version="1.1" xmlns="http://www.w3.org/2000/svg" xmlns:xlink="http://www.w3.org/1999/xlink">
 <path d="M84,0.5 c-4.0,-1.33,-8.33,-2.42,-13,-3.25 c-4.67,-0.83,-9.33,-1.25,-14,-1.25 c-11.67,0,-21.25,2.25,-28.75,6.75 c-7.5,4.5,-11.25,12.92,-11.25,25.25 l0,49.5 c4.33,1.67,8.83,2.92,13.5,3.75 c4.67,0.83,9.33,1.25,14,1.25 c11.67,0,21.17,-2.25,28.5,-6.75 c7.33,-4.5,11,-13.08,11,-25.75 Z M183.5,0.5 c-4.0,-1.33,-8.42,-2.42,-13.25,-3.25 c-4.83,-0.83,-9.58,-1.25,-14.25,-1.25 c-11.67,0,-21.17,2.25,-28.5,6.75 c-7.33,4.5,-11,12.92,-11,25.25 l0,49.5 c9.0,3.33,18.17,5,27.5,5 c11.67,0,21.17,-2.25,28.5,-6.75 c7.33,-4.5,11,-13.08,11,-25.75 Z M283,0.5 c-4.33,-1.33,-8.83,-2.42,-13.5,-3.25 c-4.67,-0.83,-9.33,-1.25,-14,-1.25 c-11.33,0,-20.75,2.25,-28.25,6.75 c-7.5,4.5,-11.25,12.92,-11.25,25.25 l0,49.5 c9.0,3.33,18.17,5,27.5,5 c11.67,0,21.17,-2.25,28.5,-6.75 c7.33,-4.5,11,-13.08,11,-25.75 Z M283,0.5" fill="rgb(0,0,0)" transform="matrix(3.3834586466165413,0.0,0.0,-3.3834586466165413,-7.518796992481214,632.8007518796992)"/>
</svg>