<?xml version="1.0" encoding="UTF-8"?>
<svg width="1000" height="1000" viewBox="0 0 1000 1000" version="1.1" xmlns="http://www.w3.org/2000/svg" xmlns:xlink="http://www.w3.org/1999/xlink">
 <path d="M156.5,-72 c12.33,0,22.92,2.17,31.75,6.5 c8.83,4.33,15.67,12.0,20.5,23 c4.83,11.0,7.58,26.5,8.25,46.5 c-5.67,3.67,-9.92,9.42,-12.75,17.25 c-2.83,7.83,-4.25,18.75,-4.25,32.75 c0,17.33,0.42,33.17,1.25,47.5 c0.83,14.33,2.17,28.58,4,42.75 c1.83,14.17,4.08,29.58,6.75,46.25 c-6.0,16.33,-15.33,24.5,-28,24.5 c-16.0,0,-31.58,-8.5,-46.75,-25.5 c-15.17,-17.0,-28.92,-42.33,-41.25,-76 l0,-114.5 c-3.0,-0.33,-5.92,-0.58,-8.75,-0.75 c-2.83,-0.17,-5.58,-0.25,-8.25,-0.25 c-14.0,0,-23.92,2.75,-29.75,8.25 c-5.83,5.5,-8.75,13.08,-8.75,22.75 l0,191.5 c0,10.0,-0.58,18.75,-1.75,26.25 c-1.17,7.5,-3.25,14.42,-6.25,20.75 c5.67,1.67,11.0,2.5,16,2.5 c13.33,0,24.58,-4.83,33.75,-14.5 c9.17,-9.67,13.75,-26.83,13.75,-51.5 l0,-21.5 l3,0 c7.33,17.33,16.25,32.75,26.75,46.25 c10.5,13.5,22.08,24.17,34.75,32 c12.67,7.83,25.83,11.75,39.5,11.75 c11.33,0,21.33,-3.83,30,-11.5 c8.67,-7.67,15.5,-17.42,20.5,-29.25 c5.0,-11.83,7.5,-24.08,7.5,-36.75 l0,-222.5 c0,-28.33,-9.0,-51.67,-27,-70 c-18.0,-18.33,-43.83,-27.5,-77.5,-27.5 c-15.33,0,-28.17,1.5,-38.5,4.5 c-10.33,3.0,-17.67,6.67,-22,11 c-3.67,3.67,-6.5,9.0,-8.5,16 c-2.0,7.0,-3,14.33,-3,22 c0,6.0,0.5,11.17,1.5,15.5 l2,0 c10.67,-5.67,21.25,-9.75,31.75,-12.25 c10.5,-2.5,23.75,-3.75,39.75,-3.75 Z M156.5,-72" fill="rgb(0,0,0)" transform="matrix(2.2641509433962264,0.0,0.0,-2.2641509433962264,171.13207547169816,666.9811320754717)"/>
</svg>