<?xml version="1.0" encoding="UTF-8"?>
<svg width="1000" height="1000" viewBox="0 0 1000 1000" version="1.1" xmlns="http://www.w3.org/2000/svg" xmlns:xlink="http://www.w3.org/1999/xlink">
 <path d="M0,0 l1000,0 l0,1000 l-1000,0 Z M0,0" fill="rgb(242,242,242)" transform="matrix(1,0,0,-1,0,1000)"/>
 <path d="M201,0 l-126,0 l0,496 l126,0 l0,-74 l18,0 c11.33,28,29.67,49.67,55,65 c25.33,15.33,55,23,89,23 c24,0,46.5,-3.83,67.5,-11.5 c21,-7.67,39.5,-19.5,55.5,-35.5 c16,-16,28.5,-36.33,37.5,-61 c9,-24.67,13.5,-54,13.5,-88 l0,-412 c0,-34.67,-9.33,-60.33,-28,-77 c-18.67,-16.67,-43,-25,-73,-25 l-124,0 l0,120 l69,0 c20,0,30,11,30,33 l0,329 c0,35.33,-8.5,63.17,-25.5,83.5 c-17,20.33,-41.5,30.5,-73.5,30.5 c-37.33,0,-65.17,-12.5,-83.5,-37.5 c-18.33,-25,-27.5,-58.5,-27.5,-100.5 Z M201,0" fill="rgb(0,0,0)" transform="matrix(0.6172839506172839,0.0,0.0,-0.6172839506172839,310.1851851851852,741.358024691358)"/>
</svg>