<?xml version="1.0" encoding="UTF-8"?>
<svg width="1000" height="1000" viewBox="0 0 1000 1000" version="1.1" xmlns="http://www.w3.org/2000/svg" xmlns:xlink="http://www.w3.org/1999/xlink">
 <path d="M147.5,-68 c0,12.33,2.42,23.58,7.25,33.75 c4.83,10.17,11.92,19.42,21.25,27.75 c-3.33,0,-6.83,0,-10.5,0 c-25.33,0,-48.08,5.0,-68.25,15 c-20.17,10.0,-36.0,24.42,-47.5,43.25 c-11.5,18.83,-17.25,41.58,-17.25,68.25 l0,5 c0,31.0,5.83,57.58,17.5,79.75 c11.67,22.17,27.42,39.17,47.25,51 c19.83,11.83,42.08,17.75,66.75,17.75 c22.33,0,41.17,-4.5,56.5,-13.5 c15.33,-9.0,27.08,-21.33,35.25,-37 c8.17,-15.67,12.25,-33.67,12.25,-54 l0,-2.5 c0,-17.0,-1.58,-29.33,-4.75,-37 c-3.17,-7.67,-7.58,-11.5,-13.25,-11.5 l-126,0 c-7.33,0,-14.17,1.0,-20.5,3 c-6.33,2.0,-11.33,4.67,-15,8 l-2.5,-1.5 c-0.33,-4.0,-0.5,-8.33,-0.5,-13 l0,-4.5 c0,-10.67,1.08,-20.33,3.25,-29 c2.17,-8.67,5.25,-16.33,9.25,-23 c9.0,-5.33,18.83,-9.25,29.5,-11.75 c10.67,-2.5,23.83,-3.75,39.5,-3.75 c17.67,0,33.75,2.17,48.25,6.5 c14.5,4.33,28.42,11.17,41.75,20.5 l3,0 c1.0,-4.67,1.5,-9.0,1.5,-13 l0,-1.5 l0,-1 c0,-6.0,-0.5,-11.33,-1.5,-16 c-1.67,-7.67,-4.33,-13.83,-8,-18.5 c-3.67,-4.67,-8.33,-9.0,-14,-13 c-29.0,-18.67,-43.5,-37.33,-43.5,-56 c0,-16.0,9.17,-24,27.5,-24 c11.33,0,21.17,2.83,29.5,8.5 l2,0 c2.33,-4.0,3.83,-7.83,4.5,-11.5 c0.67,-3.67,1,-7.83,1,-12.5 c0,-24.0,-15.83,-36,-47.5,-36 c-18.33,0,-33.58,4.58,-45.75,13.75 c-12.17,9.17,-18.25,23.58,-18.25,43.25 Z M167,227.5 c-20.0,0,-36.83,-6.25,-50.5,-18.75 c-13.67,-12.5,-23.0,-31.25,-28,-56.25 l125,0 c1.67,7.33,2.5,14.33,2.5,21 c0,10.67,-1.25,19.83,-3.75,27.5 c-2.5,7.67,-6.42,14.67,-11.75,21 c-5.0,2.0,-9.83,3.42,-14.5,4.25 c-4.67,0.83,-11.0,1.25,-19,1.25 Z M167,227.5" fill="rgb(0,0,0)" transform="matrix(2.258469259723965,0.0,0.0,-2.258469259723965,160.66499372647428,667.6913425345044)"/>
</svg>