<?xml version="1.0" encoding="UTF-8"?>
<svg width="1000" height="1000" viewBox="0 0 1000 1000" version="1.1" xmlns="http://www.w3.org/2000/svg" xmlns:xlink="http://www.w3.org/1999/xlink">
 <path d="M150,-6 c-19.0,0,-36.75,4.33,-53.25,13 c-16.5,8.67,-31.0,20.67,-43.5,36 c-12.5,15.33,-22.33,33.17,-29.5,53.5 c-7.17,20.33,-10.75,42.17,-10.75,65.5 c0,23.33,3.58,45.17,10.75,65.5 c7.17,20.33,17.0,38.17,29.5,53.5 c12.5,15.33,27.0,27.33,43.5,36 c16.5,8.67,34.25,13,53.25,13 c19.0,0,36.75,-4.33,53.25,-13 c16.5,-8.67,31.0,-20.67,43.5,-36 c12.5,-15.33,22.33,-33.17,29.5,-53.5 c7.17,-20.33,10.75,-42.17,10.75,-65.5 l0,-4 l-207,0 c-1.33,0,-2,-0.67,-2,-2 l0,-112 c0,-2.0,0.42,-3.75,1.25,-5.25 c0.83,-1.5,1.75,-3.08,2.75,-4.75 c18.0,-20.0,41.0,-30,69,-30 c17.67,0,34.42,5.08,50.25,15.25 c15.83,10.17,29.42,23.75,40.75,40.75 l19,0 c-13.33,-20.0,-29.5,-36.0,-48.5,-48 c-19.0,-12.0,-39.83,-18,-62.5,-18 Z M80,167 l140,0 c2.0,0,3,1.0,3,3 l0,112 c0,4.0,-1.67,7.67,-5,11 c-8.33,8.67,-18.42,15.33,-30.25,20 c-11.83,4.67,-24.08,7,-36.75,7 c-13.33,0,-26.0,-2.58,-38,-7.75 c-12.0,-5.17,-22.33,-12.25,-31,-21.25 c-1.0,-1.33,-1.92,-3.08,-2.75,-5.25 c-0.83,-2.17,-1.25,-4.08,-1.25,-5.75 l0,-110 c0,-2.0,0.67,-3,2,-3 Z M80,167" fill="rgb(0,0,0)" transform="matrix(2.6785714285714284,0.0,0.0,-2.6785714285714284,98.21428571428578,933.9285714285713)"/>
</svg>