<?xml version="1.0" encoding="UTF-8"?>
<svg width="1000" height="1000" viewBox="0 0 1000 1000" version="1.1" xmlns="http://www.w3.org/2000/svg" xmlns:xlink="http://www.w3.org/1999/xlink">
 <path d="M0,0 l1000,0 l0,1000 l-1000,0 Z M0,0" fill="rgb(242,242,242)" transform="matrix(1,0,0,-1,0,1000)"/>
 <path d="M358,723 l-13,-42 c38.67,-18.67,72,-41.5,100,-68.5 c28,-27,50.83,-57.17,68.5,-90.5 c17.67,-33.33,30.67,-69.5,39,-108.5 c8.33,-39,12.5,-79.83,12.5,-122.5 c0,-50.67,-6.67,-95,-20,-133 c-13.33,-38,-31.67,-69.83,-55,-95.5 c-23.33,-25.67,-51.17,-44.83,-83.5,-57.5 c-32.33,-12.67,-67.5,-19,-105.5,-19 c-34.67,0,-67.33,5.83,-98,17.5 c-30.67,11.67,-57.5,28.5,-80.5,50.5 c-23,22,-41.33,48.83,-55,80.5 c-13.67,31.67,-20.5,67.5,-20.5,107.5 l0,12 c0,40.67,6,76.83,18,108.5 c12,31.67,28.17,58.5,48.5,80.5 c20.33,22,43.67,38.67,70,50 c26.33,11.33,54.17,17,83.5,17 c31.33,0,56.5,-3.67,75.5,-11 c19,-7.33,35.17,-19,48.5,-35 l18,0 c-9.33,23.33,-22.33,43.67,-39,61 c-16.67,17.33,-36.67,32.33,-60,45 l-12,-38 l-98,29 l13,42 c-10.67,2.67,-21.5,4.83,-32.5,6.5 c-11,1.67,-22.17,3.17,-33.5,4.5 l20,114 c14,-1.33,27.67,-3.17,41,-5.5 c13.33,-2.33,26.67,-5.17,40,-8.5 l12,38 Z M302,106 c38.67,0,70,12.17,94,36.5 c24,24.33,36,61.5,36,111.5 c0,42,-12,75.17,-36,99.5 c-24,24.33,-55.33,36.5,-94,36.5 c-38.67,0,-69.83,-12.67,-93.5,-38 c-23.67,-25.33,-35.5,-59,-35.5,-101 l0,-6 c0,-44,11.83,-78.17,35.5,-102.5 c23.67,-24.33,54.83,-36.5,93.5,-36.5 Z M302,106" fill="rgb(0,0,0)" transform="matrix(0.6172839506172839,0.0,0.0,-0.6172839506172839,310.1851851851852,741.358024691358)"/>
</svg>