<?xml version="1.0" encoding="UTF-8"?>
<svg width="1000" height="1000" viewBox="0 0 1000 1000" version="1.1" xmlns="http://www.w3.org/2000/svg" xmlns:xlink="http://www.w3.org/1999/xlink">
 <path d="M0,0 l1000,0 l0,1000 l-1000,0 Z M0,0" fill="rgb(242,242,242)" transform="matrix(1,0,0,-1,0,1000)"/>
 <path d="M12,480 l63,0 c9.33,74.67,36.33,132.33,81,173 c44.67,40.67,103.33,61,176,61 c41.33,0,78,-6,110,-18 c32,-12,58.83,-29.33,80.5,-52 c21.67,-22.67,38,-50,49,-82 c11,-32,16.5,-68,16.5,-108 l0,-6 l-132,-18 l0,24 c0,16.67,-2,33.33,-6,50 c-4,16.67,-10.67,31.67,-20,45 c-9.33,13.33,-22,24.17,-38,32.5 c-16,8.33,-36,12.5,-60,12.5 c-36.67,0,-65.17,-11,-85.5,-33 c-20.33,-22,-33.5,-49,-39.5,-81 l131,0 l0,-114 l-134,0 l0,-36 l134,0 l0,-114 l-131,0 c5.33,-33.33,17.83,-60,37.5,-80 c19.67,-20,48.83,-30,87.5,-30 c25.33,0,46.17,3.83,62.5,11.5 c16.33,7.67,29,18,38,31 c9,13,15.17,28,18.5,45 c3.33,17,5,34.5,5,52.5 l0,24 l132,-18 l0,-6 c0,-83.33,-21.83,-147.5,-65.5,-192.5 c-43.67,-45,-107.17,-67.5,-190.5,-67.5 c-72,0,-130.5,19.5,-175.5,58.5 c-45,39,-72.17,96.17,-81.5,171.5 l-63,0 l0,114 l60,0 l0,36 l-60,0 Z M12,480" fill="rgb(0,0,0)" transform="matrix(0.6172839506172839,0.0,0.0,-0.6172839506172839,310.1851851851852,741.358024691358)"/>
</svg>