<?xml version="1.0" encoding="UTF-8"?>
<svg width="1000" height="1000" viewBox="0 0 1000 1000" version="1.1" xmlns="http://www.w3.org/2000/svg" xmlns:xlink="http://www.w3.org/1999/xlink">
 <path d="M6.5,146 l33.5,0 c0,13.67,0.83,26.83,2.5,39.5 l-5.5,0 c-11.0,0,-18.83,2.75,-23.5,8.25 c-4.67,5.5,-7,13.42,-7,23.75 l0,7.5 l43,0 c6.67,27.0,16.75,50.58,30.25,70.75 c13.5,20.17,30.08,35.92,49.75,47.25 c19.67,11.33,42.0,17,67,17 c16.0,0,29.0,-1.67,39,-5 c10.0,-3.33,17.67,-7.5,23,-12.5 c4.67,-4.33,7.83,-8.75,9.5,-13.25 c1.67,-4.5,2.5,-10.08,2.5,-16.75 c0,-12.67,-3.5,-23.0,-10.5,-31 l-3,0 c-6.67,9.67,-15.0,17.0,-25,22 c-10.0,5.0,-22.83,7.5,-38.5,7.5 c-20.33,0,-38.5,-7.17,-54.5,-21.5 c-16.0,-14.33,-28.0,-35.83,-36,-64.5 l82.5,0 c14.33,0,24.58,-2.83,30.75,-8.5 c6.17,-5.67,9.25,-14.17,9.25,-25.5 l0,-5.5 l-130.5,0 c-1.33,-12.33,-2.17,-25.5,-2.5,-39.5 l94.5,0 c14.33,0,24.33,-2.75,30,-8.25 c5.67,-5.5,8.5,-13.58,8.5,-24.25 l0,-7 l-133,0 c0.33,-3.33,0.5,-6.33,0.5,-9 c5.67,-16.33,15.0,-29.42,28,-39.25 c13.0,-9.83,31.5,-14.75,55.5,-14.75 c20.67,0,38.33,3.58,53,10.75 c14.67,7.17,28.0,18.42,40,33.75 l3,0 c1.67,-4.0,2.67,-7.92,3,-11.75 c0.33,-3.83,0.5,-7.58,0.5,-11.25 c0,-9.67,-1.08,-18.42,-3.25,-26.25 c-2.17,-7.83,-6.08,-14.58,-11.75,-20.25 c-8.33,-8.33,-19.92,-15.17,-34.75,-20.5 c-14.83,-5.33,-33.42,-8,-55.75,-8 c-36.67,0,-66.17,10.5,-88.5,31.5 c-22.33,21.0,-35.83,49.33,-40.5,85 l-1,0 c-12.33,0,-21.08,2.67,-26.25,8 c-5.17,5.33,-7.75,13.5,-7.75,24.5 Z M6.5,146" fill="rgb(0,0,0)" transform="matrix(2.4324324324324325,0.0,0.0,-2.4324324324324325,156.4189189189189,925.6756756756756)"/>
</svg>