<?xml version="1.0" encoding="UTF-8"?>
<svg width="1000" height="1000" viewBox="0 0 1000 1000" version="1.1" xmlns="http://www.w3.org/2000/svg" xmlns:xlink="http://www.w3.org/1999/xlink">
 <path d="M0,0 l1000,0 l0,1000 l-1000,0 Z M0,0" fill="rgb(242,242,242)" transform="matrix(1,0,0,-1,0,1000)"/>
 <path d="M32,459 l67,0 c10,24,23,45.5,39,64.5 c16,19,34.5,35,55.5,48 c21,13,43.67,23,68,30 c24.33,7,49.83,10.5,76.5,10.5 c32,0,61.67,-4.67,89,-14 c27.33,-9.33,51.5,-22.33,72.5,-39 c21,-16.67,38.17,-36.67,51.5,-60 c13.33,-23.33,22.33,-49,27,-77 l-112,-26 c-2.67,14.67,-7,28.5,-13,41.5 c-6,13,-14,24.5,-24,34.5 c-10,10,-22.5,17.83,-37.5,23.5 c-15,5.67,-32.83,8.5,-53.5,8.5 c-21.33,0,-40.83,-4,-58.5,-12 c-17.67,-8,-33.17,-19,-46.5,-33 l107,0 l0,-96 l-146,0 l0,-30 l146,0 l0,-96 l-106,0 c27.33,-27.33,62.67,-41,106,-41 c20.67,0,38.33,3.17,53,9.5 c14.67,6.33,27,14.5,37,24.5 c10,10,18,21.5,24,34.5 c6,13,10.67,26.17,14,39.5 l112,-26 c-5.33,-28,-14.83,-53.67,-28.5,-77 c-13.67,-23.33,-31,-43.33,-52,-60 c-21,-16.67,-45.33,-29.67,-73,-39 c-27.67,-9.33,-57.83,-14,-90.5,-14 c-53.33,0,-101.33,12.83,-144,38.5 c-42.67,25.67,-73.67,62.5,-93,110.5 l-67,0 l0,96 l48,0 l0,30 l-48,0 Z M32,459" fill="rgb(0,0,0)" transform="matrix(0.6172839506172839,0.0,0.0,-0.6172839506172839,310.1851851851852,741.358024691358)"/>
</svg>