<?xml version="1.0" encoding="UTF-8"?>
<svg width="1000" height="1000" viewBox="0 0 1000 1000" version="1.1" xmlns="http://www.w3.org/2000/svg" xmlns:xlink="http://www.w3.org/1999/xlink">
 <path d="M171,134 l-5,0 c-8.67,0,-15.67,1.08,-21,3.25 c-5.33,2.17,-9.67,5.08,-13,8.75 c-4.0,4.67,-7.17,18.25,-9.5,40.75 c-2.33,22.5,-3.5,49.75,-3.5,81.75 l0,28.5 c0,9.67,-0.42,19.08,-1.25,28.25 c-0.83,9.17,-2.25,17.92,-4.25,26.25 c4.67,1.67,8.92,2.67,12.75,3 c3.83,0.33,8.42,0.5,13.75,0.5 c12.33,0,22.33,-2.42,30,-7.25 c7.67,-4.83,11.5,-12.75,11.5,-23.75 l0,-57 c0,-25.33,-1.0,-49.42,-3,-72.25 c-2.0,-22.83,-4.5,-43.08,-7.5,-60.75 Z M193,2 c-11.0,-4.0,-23.0,-6,-36,-6 c-13.33,0,-25.0,2.33,-35,7 c-10.0,4.67,-15,14.0,-15,28 l0,44.5 c10.67,6.33,23.5,9.5,38.5,9.5 c12.33,0,23.33,-2.67,33,-8 c9.67,-5.33,14.5,-15.5,14.5,-30.5 Z M193,2" fill="rgb(0,0,0)" transform="matrix(2.5069637883008355,0.0,0.0,-2.5069637883008355,123.95543175487468,939.9721448467967)"/>
</svg>