<?xml version="1.0" encoding="UTF-8"?>
<svg width="1000" height="1000" viewBox="0 0 1000 1000" version="1.1" xmlns="http://www.w3.org/2000/svg" xmlns:xlink="http://www.w3.org/1999/xlink">
 <path d="M107,266.5 c5.67,2.33,11.58,4.0,17.75,5 c6.17,1.0,12.25,1.5,18.25,1.5 c13.67,0,25.42,-2.42,35.25,-7.25 c9.83,-4.83,14.75,-14.25,14.75,-28.25 l0,-44.5 c-10.67,-6.33,-23.5,-9.5,-38.5,-9.5 c-12.33,0,-23.33,2.67,-33,8 c-9.67,5.33,-14.5,15.5,-14.5,30.5 Z M129,134.5 l5,0 c8.67,0,15.67,-1.08,21,-3.25 c5.33,-2.17,9.67,-5.08,13,-8.75 c4.0,-4.33,7.17,-17.75,9.5,-40.25 c2.33,-22.5,3.5,-49.92,3.5,-82.25 l0,-28.5 c0,-9.67,0.42,-19.0,1.25,-28 c0.83,-9.0,2.25,-17.83,4.25,-26.5 c-8.33,-2.33,-17.17,-3.5,-26.5,-3.5 c-12.33,0,-22.33,2.5,-30,7.5 c-7.67,5.0,-11.5,12.83,-11.5,23.5 l0,57 c0,25.67,1.0,49.83,3,72.5 c2.0,22.67,4.5,42.83,7.5,60.5 Z M129,134.5" fill="rgb(0,0,0)" transform="matrix(2.5034770514603615,0.0,0.0,-2.5034770514603615,124.47844228094576,733.4492350486787)"/>
</svg>