<?xml version="1.0" encoding="UTF-8"?>
<svg width="1000" height="1000" viewBox="0 0 1000 1000" version="1.1" xmlns="http://www.w3.org/2000/svg" xmlns:xlink="http://www.w3.org/1999/xlink">
 <path d="M0,0 l1000,0 l0,1000 l-1000,0 Z M0,0" fill="rgb(242,242,242)" transform="matrix(1,0,0,-1,0,1000)"/>
 <path d="M384,644 c0,12.67,2.5,24.83,7.5,36.5 c5,11.67,11.83,21.67,20.5,30 c8.67,8.33,18.67,15,30,20 c11.33,5,23.67,7.5,37,7.5 c26,0,48.17,-9.17,66.5,-27.5 c18.33,-18.33,27.5,-40.5,27.5,-66.5 c0,-13.33,-2.5,-25.67,-7.5,-37 c-5,-11.33,-11.67,-21.33,-20,-30 c-8.33,-8.67,-18.33,-15.5,-30,-20.5 c-11.67,-5,-23.83,-7.5,-36.5,-7.5 c-13.33,0,-25.67,2.5,-37,7.5 c-11.33,5,-21.33,11.83,-30,20.5 c-8.67,8.67,-15.5,18.67,-20.5,30 c-5,11.33,-7.5,23.67,-7.5,37 Z M24,496 l117,0 l0,102 c0,28.67,9.67,52.83,29,72.5 c19.33,19.67,43.33,29.5,72,29.5 l94,0 l0,-120 l-42,0 c-18,0,-27,-10,-27,-30 l0,-54 l275,0 l0,-496 l-126,0 l0,376 l-149,0 l0,-376 l-126,0 l0,376 l-117,0 Z M24,496" fill="rgb(0,0,0)" transform="matrix(0.6172839506172839,0.0,0.0,-0.6172839506172839,310.1851851851852,741.358024691358)"/>
</svg>