<?xml version="1.0" encoding="UTF-8"?>
<svg width="1000" height="1000" viewBox="0 0 1000 1000" version="1.1" xmlns="http://www.w3.org/2000/svg" xmlns:xlink="http://www.w3.org/1999/xlink">
 <path d="M0,0 l1000,0 l0,1000 l-1000,0 Z M0,0" fill="rgb(242,242,242)" transform="matrix(1,0,0,-1,0,1000)"/>
 <path d="M525,510 l41,-78 l-472,-242 l-41,78 Z M460,-5 c-13.33,0,-26.33,1.67,-39,5 c-12.67,3.33,-24,8.5,-34,15.5 c-10,7,-18,15.83,-24,26.5 c-6,10.67,-9,23.67,-9,39 c0,19.33,5,34.17,15,44.5 c10,10.33,20.67,17.17,32,20.5 l0,8 c-9.33,3.33,-18.5,9.67,-27.5,19 c-9,9.33,-13.5,23.67,-13.5,43 c0,24,9.67,43.17,29,57.5 c19.33,14.33,43,21.5,71,21.5 c28,0,51.67,-7.17,71,-21.5 c19.33,-14.33,29,-33.5,29,-57.5 c0,-19.33,-4.5,-33.67,-13.5,-43 c-9,-9.33,-18.17,-15.67,-27.5,-19 l0,-8 c11.33,-3.33,22,-10.17,32,-20.5 c10,-10.33,15,-25.17,15,-44.5 c0,-15.33,-3.17,-28.33,-9.5,-39 c-6.33,-10.67,-14.5,-19.5,-24.5,-26.5 c-10,-7,-21.33,-12.17,-34,-15.5 c-12.67,-3.33,-25.33,-5,-38,-5 Z M460,67 c18.67,0,28,8,28,24 c0,16,-9.33,24,-28,24 c-18.67,0,-28,-8,-28,-24 c0,-16,9.33,-24,28,-24 Z M460,225 c-6,0,-11.17,-1.83,-15.5,-5.5 c-4.33,-3.67,-6.5,-8.5,-6.5,-14.5 c0,-6,2.17,-10.83,6.5,-14.5 c4.33,-3.67,9.5,-5.5,15.5,-5.5 c6,0,11.17,1.83,15.5,5.5 c4.33,3.67,6.5,8.5,6.5,14.5 c0,6,-2.17,10.83,-6.5,14.5 c-4.33,3.67,-9.5,5.5,-15.5,5.5 Z M130,500 c0.67,-6,3.5,-11.5,8.5,-16.5 c5,-5,12.5,-7.5,22.5,-7.5 c11.33,0,19.33,3.17,24,9.5 c4.67,6.33,7,13.83,7,22.5 c0,8,-2.17,14.83,-6.5,20.5 c-4.33,5.67,-11.17,8.5,-20.5,8.5 c-10.67,0,-17.67,-3.67,-21,-11 l-92,0 l0,174 l200,0 l0,-70 l-122,0 l0,-46 l9,0 c10.67,16,28.33,24,53,24 c21.33,0,39.67,-7.83,55,-23.5 c15.33,-15.67,23,-38.5,23,-68.5 c0,-32,-9,-58.33,-27,-79 c-18,-20.67,-45,-31,-81,-31 c-38,0,-65.83,9.67,-83.5,29 c-17.67,19.33,-26.5,41,-26.5,65 Z M130,500" fill="rgb(0,0,0)" transform="matrix(0.6172839506172839,0.0,0.0,-0.6172839506172839,310.1851851851852,741.358024691358)"/>
</svg>