<?xml version="1.0" encoding="UTF-8"?>
<svg width="1000" height="1000" viewBox="0 0 1000 1000" version="1.1" xmlns="http://www.w3.org/2000/svg" xmlns:xlink="http://www.w3.org/1999/xlink">
 <path d="M0,0 l1000,0 l0,1000 l-1000,0 Z M0,0" fill="rgb(242,242,242)" transform="matrix(1,0,0,-1,0,1000)"/>
 <path d="M66,312 l0,388 l468,0 l0,-126 l-336,0 l0,-190 l18,0 c9.33,26,26.83,48.5,52.5,67.5 c25.67,19,60.17,28.5,103.5,28.5 c32.67,0,62,-5.67,88,-17 c26,-11.33,48,-27,66,-47 c18,-20,31.83,-44,41.5,-72 c9.67,-28,14.5,-58.67,14.5,-92 l0,-6 c0,-35.33,-5.83,-68.67,-17.5,-100 c-11.67,-31.33,-28.67,-58.83,-51,-82.5 c-22.33,-23.67,-49.83,-42.5,-82.5,-56.5 c-32.67,-14,-70.33,-21,-113,-21 c-42.67,0,-80.33,5.83,-113,17.5 c-32.67,11.67,-60.17,28,-82.5,49 c-22.33,21,-39.33,46,-51,75 c-11.67,29,-17.5,60.5,-17.5,94.5 l0,24 l132,0 l0,-12 c0,-35.33,10.83,-64.5,32.5,-87.5 c21.67,-23,53.5,-34.5,95.5,-34.5 c42,0,75.17,11.33,99.5,34 c24.33,22.67,36.5,54,36.5,94 c0,38,-9,66.5,-27,85.5 c-18,19,-41.67,28.5,-71,28.5 c-19.33,0,-35,-4.17,-47,-12.5 c-12,-8.33,-19.67,-18.17,-23,-29.5 Z M66,312" fill="rgb(0,0,0)" transform="matrix(0.6172839506172839,0.0,0.0,-0.6172839506172839,310.1851851851852,741.358024691358)"/>
</svg>