<?xml version="1.0" encoding="UTF-8"?>
<svg width="1000" height="1000" viewBox="0 0 1000 1000" version="1.1" xmlns="http://www.w3.org/2000/svg" xmlns:xlink="http://www.w3.org/1999/xlink">
 <path d="M0,0 l1000,0 l0,1000 l-1000,0 Z M0,0" fill="rgb(242,242,242)" transform="matrix(1,0,0,-1,0,1000)"/>
 <path d="M64,126 l0,370 l462,0 l0,-126 l-332,0 l0,-172 l18,0 c9.33,26,27.17,48.5,53.5,67.5 c26.33,19,61.17,28.5,104.5,28.5 c32.67,0,61.67,-5.67,87,-17 c25.33,-11.33,46.67,-27,64,-47 c17.33,-20,30.5,-44,39.5,-72 c9,-28,13.5,-58.67,13.5,-92 l0,-6 c0,-35.33,-5.33,-68.83,-16,-100.5 c-10.67,-31.67,-26.5,-59.33,-47.5,-83 c-21,-23.67,-47.33,-42.33,-79,-56 c-31.67,-13.67,-68.83,-20.5,-111.5,-20.5 c-40.67,0,-76.83,5.5,-108.5,16.5 c-31.67,11,-58.67,26.17,-81,45.5 c-22.33,19.33,-40.17,42.33,-53.5,69 c-13.33,26.67,-21.67,55.67,-25,87 l134,30 c2,-16.67,6,-32.33,12,-47 c6,-14.67,14.33,-27.5,25,-38.5 c10.67,-11,24,-19.83,40,-26.5 c16,-6.67,35,-10,57,-10 c40,0,70.33,11.5,91,34.5 c20.67,23,31,53.5,31,91.5 c0,38,-8.33,66.83,-25,86.5 c-16.67,19.67,-39,29.5,-67,29.5 c-19.33,0,-35,-4.17,-47,-12.5 c-12,-8.33,-19.67,-18.17,-23,-29.5 Z M64,126" fill="rgb(0,0,0)" transform="matrix(0.6172839506172839,0.0,0.0,-0.6172839506172839,310.1851851851852,741.358024691358)"/>
</svg>