<?xml version="1.0" encoding="UTF-8"?>
<svg width="1000" height="1000" viewBox="0 0 1000 1000" version="1.1" xmlns="http://www.w3.org/2000/svg" xmlns:xlink="http://www.w3.org/1999/xlink">
 <path d="M52,350 l174.5,0 c12.33,0,20.83,-2.67,25.5,-8 c4.67,-5.33,7,-12.67,7,-22 c0,-9.33,-0.83,-17.0,-2.5,-23 l-145.5,0 l-0.5,-3 c3.33,-4.33,5.33,-9.0,6,-14 c0.67,-5.0,0.33,-10.83,-1,-17.5 c-2.67,-13.33,-5.25,-27.17,-7.75,-41.5 c-2.5,-14.33,-4.75,-27.67,-6.75,-40 l3.5,0 c9.33,3.0,18.17,5.08,26.5,6.25 c8.33,1.17,17.33,1.75,27,1.75 c21.67,0,40.83,-3.67,57.5,-11 c16.67,-7.33,29.83,-18.0,39.5,-32 c9.67,-14.0,14.5,-30.83,14.5,-50.5 l0,-5.5 c0,-29.67,-10.25,-53.75,-30.75,-72.25 c-20.5,-18.5,-50.08,-27.75,-88.75,-27.75 c-27.33,0,-49.5,3.08,-66.5,9.25 c-17.0,6.17,-29.0,12.75,-36,19.75 c-6.33,6.0,-10.67,12.75,-13,20.25 c-2.33,7.5,-3.5,15.42,-3.5,23.75 c0,4.33,0.17,8.33,0.5,12 c0.33,3.67,0.83,6.67,1.5,9 l3,0 c14.33,-13.33,30.0,-23.5,47,-30.5 c17.0,-7.0,37.33,-10.5,61,-10.5 c27.0,0,47.92,5.42,62.75,16.25 c14.83,10.83,22.25,24.08,22.25,39.75 l0,3 c-11.33,29.67,-42.5,44.5,-93.5,44.5 l-58.5,0 c-12.0,0,-20.17,1.25,-24.5,3.75 c-4.33,2.5,-6.17,6.42,-5.5,11.75 c5.67,33.67,10.58,60.75,14.75,81.25 c4.17,20.5,8.25,38.42,12.25,53.75 c-9.0,0.33,-15.42,2.42,-19.25,6.25 c-3.83,3.83,-5.75,11.75,-5.75,23.75 c0,4.67,0.33,9.08,1,13.25 c0.67,4.17,1.33,7.42,2,9.75 Z M52,350" fill="rgb(0,0,0)" transform="matrix(2.5,0.0,0.0,-2.5,124.375,925.0)"/>
</svg>