<?xml version="1.0" encoding="UTF-8"?>
<svg width="1000" height="1000" viewBox="0 0 1000 1000" version="1.1" xmlns="http://www.w3.org/2000/svg" xmlns:xlink="http://www.w3.org/1999/xlink">
 <path d="M0,0 l1000,0 l0,1000 l-1000,0 Z M0,0" fill="rgb(242,242,242)" transform="matrix(1,0,0,-1,0,1000)"/>
 <path d="M101,462 l141,0 l0,136 c0,28.67,9.67,52.83,29,72.5 c19.33,19.67,43.33,29.5,72,29.5 l222,0 l0,-120 l-170,0 c-18,0,-27,-10,-27,-30 l0,-88 l145,0 l0,-120 l-145,0 l0,-240 c0,-28.67,-9.67,-52.83,-29,-72.5 c-19.33,-19.67,-43.33,-29.5,-72,-29.5 l-207,0 l0,120 l155,0 c18,0,27,10,27,30 l0,192 l-141,0 Z M101,462" fill="rgb(0,0,0)" transform="matrix(0.6172839506172839,0.0,0.0,-0.6172839506172839,310.1851851851852,741.358024691358)"/>
</svg>