<?xml version="1.0" encoding="UTF-8"?>
<svg width="1000" height="1000" viewBox="0 0 1000 1000" version="1.1" xmlns="http://www.w3.org/2000/svg" xmlns:xlink="http://www.w3.org/1999/xlink">
 <path d="M0,0 l1000,0 l0,1000 l-1000,0 Z M0,0" fill="rgb(242,242,242)" transform="matrix(1,0,0,-1,0,1000)"/>
 <path d="M165,438 l84,0 l0,64 c0,28.67,9.67,52.83,29,72.5 c19.33,19.67,43.33,29.5,72,29.5 l142,0 l0,-108 l-102,0 c-18,0,-27,-10,-27,-30 l0,-28 l84,0 l0,-108 l-84,0 l0,-132 c0,-28.67,-9.67,-52.83,-29,-72.5 c-19.33,-19.67,-43.33,-29.5,-72,-29.5 l-142,0 l0,108 l102,0 c18,0,27,10,27,30 l0,96 l-84,0 Z M165,438" fill="rgb(0,0,0)" transform="matrix(0.6172839506172839,0.0,0.0,-0.6172839506172839,310.1851851851852,741.358024691358)"/>
</svg>