<?xml version="1.0" encoding="UTF-8"?>
<svg width="1000" height="1000" viewBox="0 0 1000 1000" version="1.1" xmlns="http://www.w3.org/2000/svg" xmlns:xlink="http://www.w3.org/1999/xlink">
 <path d="M157.5,195.5 c22.33,17.0,41.42,33.08,57.25,48.25 c15.83,15.17,29.58,31.17,41.25,48 c11.67,16.83,21.83,36.08,30.5,57.75 c8.0,3.33,18.17,5,30.5,5 c10.67,0,17.67,-2.83,21,-8.5 c3.33,-5.67,3.17,-13.33,-0.5,-23 c-10.67,-23.33,-25.17,-45.33,-43.5,-66 c-18.33,-20.67,-41.0,-39.33,-68,-56 c-13.67,-8.33,-27.17,-12.5,-40.5,-12.5 c-6.0,0,-11.33,0.67,-16,2 c-4.67,1.33,-8.67,3.0,-12,5 Z M143,154 c-22.33,-16.67,-41.5,-32.58,-57.5,-47.75 c-16.0,-15.17,-29.75,-31.17,-41.25,-48 c-11.5,-16.83,-21.75,-36.08,-30.75,-57.75 c-8.0,-3.33,-18.17,-5,-30.5,-5 c-10.33,0,-17.25,2.83,-20.75,8.5 c-3.5,5.67,-3.25,13.17,0.75,22.5 c10.67,23.67,25.17,45.83,43.5,66.5 c18.33,20.67,40.83,39.33,67.5,56 c13.67,8.33,27.33,12.5,41,12.5 c5.67,0,10.92,-0.67,15.75,-2 c4.83,-1.33,8.92,-3.17,12.25,-5.5 Z M143,154" fill="rgb(0,0,0)" transform="matrix(2.364805517753594,0.0,0.0,-2.364805517753594,145.0652147738299,913.8409656068789)"/>
</svg>