<?xml version="1.0" encoding="UTF-8"?>
<svg width="1000" height="1000" viewBox="0 0 1000 1000" version="1.1" xmlns="http://www.w3.org/2000/svg" xmlns:xlink="http://www.w3.org/1999/xlink">
 <path d="M150,272.5 c22.0,0.33,41.67,-3.33,59,-11 l10,24 c3.0,5.67,5.0,10.58,6,14.75 c1.0,4.17,1.5,8.42,1.5,12.75 c0,6.0,-0.67,11.17,-2,15.5 c4.67,1.0,9.5,1.5,14.5,1.5 c11.67,0,21.25,-1.83,28.75,-5.5 c7.5,-3.67,11.25,-10.67,11.25,-21 l0,-1.5 c0,-6.67,-1.92,-13.25,-5.75,-19.75 c-3.83,-6.5,-12.08,-14.08,-24.75,-22.75 l-15,-10.5 l0,-3 c9.67,-8.33,17.17,-18.25,22.5,-29.75 c5.33,-11.5,8,-24.42,8,-38.75 l0,-3.5 c0,-19.0,-5.08,-35.58,-15.25,-49.75 c-10.17,-14.17,-23.83,-25.08,-41,-32.75 c-17.17,-7.67,-36.58,-11.5,-58.25,-11.5 c-3.0,0,-5.83,0,-8.5,0 c-3.0,-4.33,-5.17,-9.17,-6.5,-14.5 c-1.33,-5.33,-2,-10.67,-2,-16 c0,-10.67,6.83,-16.5,20.5,-17.5 l61,-4.5 c20.33,-1.33,36.42,-7.67,48.25,-19 c11.83,-11.33,17.75,-25.67,17.75,-43 l0,-5.5 c0,-16.0,-5.0,-30.42,-15,-43.25 c-10.0,-12.83,-25.58,-23.0,-46.75,-30.5 c-21.17,-7.5,-48.92,-11.25,-83.25,-11.25 l-6.5,0 c-36.33,0,-63.25,6.33,-80.75,19 c-17.5,12.67,-26.25,28.17,-26.25,46.5 l0,4.5 c0,16.67,6.25,30.92,18.75,42.75 c12.5,11.83,28.92,18.42,49.25,19.75 l0,4 c-4.33,7.0,-6.5,14.83,-6.5,23.5 c0,9.67,2.42,18.67,7.25,27 c4.83,8.33,11.92,14.67,21.25,19 l0,3 c-22.67,5.67,-40.92,16.33,-54.75,32 c-13.83,15.67,-20.75,34.67,-20.75,57 l0,3.5 c0,19.67,5.0,36.67,15,51 c10.0,14.33,23.67,25.42,41,33.25 c17.33,7.83,36.67,11.75,58,11.75 Z M153,225.5 c-21.0,0,-37.42,-4.67,-49.25,-14 c-11.83,-9.33,-17.75,-23.5,-17.75,-42.5 l0,-3 c0,-14.0,3.67,-25.33,11,-34 c8.33,-3.67,16.67,-6.5,25,-8.5 c8.33,-2.0,17.83,-3,28.5,-3 c21.0,0,37.42,4.67,49.25,14 c11.83,9.33,17.75,23.67,17.75,43 l0,3 c0,15.0,-4.67,27.17,-14,36.5 c-7.33,2.67,-15.0,4.75,-23,6.25 c-8.0,1.5,-17.17,2.25,-27.5,2.25 Z M136.5,-86.5 l8,0 c14.0,0,27.5,0.67,40.5,2 c13.0,1.33,25.17,3.67,36.5,7 c4.0,6.67,6,14.83,6,24.5 l0,3.5 c0,7.67,-2.42,14.25,-7.25,19.75 c-4.83,5.5,-12.08,8.42,-21.75,8.75 l-54.5,3.5 c-14.33,1.0,-26.5,4.67,-36.5,11 c-22.0,-9.33,-33,-23.83,-33,-43.5 l0,-4 c0,-10.0,5.0,-17.92,15,-23.75 c10.0,-5.83,25.67,-8.75,47,-8.75 Z M136.5,-86.5" fill="rgb(0,0,0)" transform="matrix(1.978021978021978,0.0,0.0,-1.978021978021978,201.8131868131868,702.7472527472528)"/>
</svg>