<?xml version="1.0" encoding="UTF-8"?>
<svg width="1000" height="1000" viewBox="0 0 1000 1000" version="1.1" xmlns="http://www.w3.org/2000/svg" xmlns:xlink="http://www.w3.org/1999/xlink">
 <path d="M0,0 l1000,0 l0,1000 l-1000,0 Z M0,0" fill="rgb(242,242,242)" transform="matrix(1,0,0,-1,0,1000)"/>
 <path d="M374,102 c25.33,0,48,-4,68,-12 c20,-8,36.83,-18.83,50.5,-32.5 c13.67,-13.67,24.17,-29.33,31.5,-47 c7.33,-17.67,11,-35.83,11,-54.5 l0,-6 c0,-19.33,-3.33,-38,-10,-56 c-6.67,-18,-16.5,-34,-29.5,-48 c-13,-14,-29.17,-25.17,-48.5,-33.5 c-19.33,-8.33,-41.67,-12.5,-67,-12.5 l-148,0 c-49.33,0,-86.67,11.5,-112,34.5 c-25.33,23,-38,53.5,-38,91.5 c0,22,4.83,41.17,14.5,57.5 c9.67,16.33,23.5,28.5,41.5,36.5 l0,18 c-13.33,5.33,-24.67,14,-34,26 c-9.33,12,-14,28.67,-14,50 c0,20,5.17,36.5,15.5,49.5 c10.33,13,22.17,22.5,35.5,28.5 l0,18 c-8.67,10,-17.33,24.33,-26,43 c-8.67,18.67,-13,41,-13,67 l0,6 c0,28.67,5,54.33,15,77 c10,22.67,23.67,42,41,58 c17.33,16,38,28.17,62,36.5 c24,8.33,50,12.5,78,12.5 c13.33,0,26.67,-1.33,40,-4 c13.33,-2.67,24.67,-6,34,-10 l163,0 l0,-114 l-69,0 l0,-18 c7.33,-8,12.83,-18,16.5,-30 c3.67,-12,5.5,-24.67,5.5,-38 c0,-21.33,-4.33,-41.67,-13,-61 c-8.67,-19.33,-21.17,-36.33,-37.5,-51 c-16.33,-14.67,-36.33,-26.33,-60,-35 c-23.67,-8.67,-50.17,-13,-79.5,-13 c-21.33,0,-37.67,1.67,-49,5 c-11.33,3.33,-21.67,7,-31,11 c-6,-1.33,-11.5,-3.83,-16.5,-7.5 c-5,-3.67,-7.5,-9.5,-7.5,-17.5 c0,-16.67,10.67,-25,32,-25 Z M298,390 c-20,0,-36.83,-5.67,-50.5,-17 c-13.67,-11.33,-20.5,-27.67,-20.5,-49 c0,-21.33,6.83,-37.67,20.5,-49 c13.67,-11.33,30.5,-17,50.5,-17 c20,0,36.83,5.67,50.5,17 c13.67,11.33,20.5,27.67,20.5,49 c0,21.33,-6.83,37.67,-20.5,49 c-13.67,11.33,-30.5,17,-50.5,17 Z M366,-80 c28.67,0,43,11.33,43,34 c0,22.67,-14.33,34,-43,34 l-115,0 c-28.67,0,-43,-11.33,-43,-34 c0,-22.67,14.33,-34,43,-34 Z M394,643 c0,-13.33,-2.5,-25.83,-7.5,-37.5 c-5,-11.67,-11.83,-21.67,-20.5,-30 c-8.67,-8.33,-18.83,-15,-30.5,-20 c-11.67,-5,-23.83,-7.5,-36.5,-7.5 c-13.33,0,-25.67,2.5,-37,7.5 c-11.33,5,-21.33,11.67,-30,20 c-8.67,8.33,-15.5,18.33,-20.5,30 c-5,11.67,-7.5,24.17,-7.5,37.5 c0,13.33,2.5,25.83,7.5,37.5 c5,11.67,11.83,21.67,20.5,30 c8.67,8.33,18.67,15,30,20 c11.33,5,23.67,7.5,37,7.5 c12.67,0,24.83,-2.5,36.5,-7.5 c11.67,-5,21.83,-11.67,30.5,-20 c8.67,-8.33,15.5,-18.33,20.5,-30 c5,-11.67,7.5,-24.17,7.5,-37.5 Z M394,643" fill="rgb(0,0,0)" transform="matrix(0.6172839506172839,0.0,0.0,-0.6172839506172839,310.1851851851852,741.358024691358)"/>
</svg>