<?xml version="1.0" encoding="UTF-8"?>
<svg width="1000" height="1000" viewBox="0 0 1000 1000" version="1.1" xmlns="http://www.w3.org/2000/svg" xmlns:xlink="http://www.w3.org/1999/xlink">
 <path d="M0,0 l1000,0 l0,1000 l-1000,0 Z M0,0" fill="rgb(242,242,242)" transform="matrix(1,0,0,-1,0,1000)"/>
 <path d="M350,346 l44,0 c23.33,0,46.33,-3.33,69,-10 c22.67,-6.67,42.83,-17.33,60.5,-32 c17.67,-14.67,31.83,-33.33,42.5,-56 c10.67,-22.67,16,-50,16,-82 l0,-6 c0,-25.33,-4,-48.5,-12,-69.5 c-8,-21,-19.67,-39.33,-35,-55 c-15.33,-15.67,-34.33,-27.83,-57,-36.5 c-22.67,-8.67,-48.67,-13,-78,-13 c-26.67,0,-50.17,4,-70.5,12 c-20.33,8,-37.5,18.83,-51.5,32.5 c-14,13.67,-25,29.17,-33,46.5 c-8,17.33,-13,35.67,-15,55 l122,24 c1.33,-14,6,-25.83,14,-35.5 c8,-9.67,20.67,-14.5,38,-14.5 c17.33,0,30.33,5.33,39,16 c8.67,10.67,13,24.67,13,42 c0,26,-8.5,44.83,-25.5,56.5 c-17,11.67,-40.5,17.5,-70.5,17.5 l-94,0 l0,228 l38,0 c20,0,36.67,5,50,15 c13.33,10,20,25.67,20,47 c0,19.33,-7.33,35.17,-22,47.5 c-14.67,12.33,-34,18.5,-58,18.5 c-28,0,-50.67,-8.33,-68,-25 c-17.33,-16.67,-26,-41,-26,-73 l0,-496 l-126,0 l0,376 l-60,0 l0,120 l60,0 l0,18 c0,32.67,5.83,61.5,17.5,86.5 c11.67,25,27.33,46,47,63 c19.67,17,42.5,29.67,68.5,38 c26,8.33,53.67,12.5,83,12.5 c28.67,0,55.83,-4.17,81.5,-12.5 c25.67,-8.33,48,-20.5,67,-36.5 c19,-16,34,-35.17,45,-57.5 c11,-22.33,16.5,-47.5,16.5,-75.5 l0,-6 c0,-26,-3.83,-48.83,-11.5,-68.5 c-7.67,-19.67,-18.33,-36.17,-32,-49.5 c-13.67,-13.33,-29.67,-23.83,-48,-31.5 c-18.33,-7.67,-37.83,-11.83,-58.5,-12.5 Z M350,346" fill="rgb(0,0,0)" transform="matrix(0.6172839506172839,0.0,0.0,-0.6172839506172839,310.1851851851852,741.358024691358)"/>
</svg>