<?xml version="1.0" encoding="UTF-8"?>
<svg width="1000" height="1000" viewBox="0 0 1000 1000" version="1.1" xmlns="http://www.w3.org/2000/svg" xmlns:xlink="http://www.w3.org/1999/xlink">
 <path d="M155.5,383 c26.33,0,47.42,-3.58,63.25,-10.75 c15.83,-7.17,27.33,-16.17,34.5,-27 c7.17,-10.83,10.75,-22.08,10.75,-33.75 l0,-6.5 c0,-12.67,-2.42,-23.42,-7.25,-32.25 c-4.83,-8.83,-12.58,-18.42,-23.25,-28.75 l-15,-14 c-9.33,-9.0,-15.92,-16.25,-19.75,-21.75 c-3.83,-5.5,-5.75,-10.58,-5.75,-15.25 c0,-5.67,1.67,-10.25,5,-13.75 c3.33,-3.5,9.17,-7.75,17.5,-12.75 l14,-9 c17.67,-11.33,30.42,-23.42,38.25,-36.25 c7.83,-12.83,11.75,-27.75,11.75,-44.75 l0,-5 c0,-23.67,-7.42,-42.42,-22.25,-56.25 c-14.83,-13.83,-35.25,-20.75,-61.25,-20.75 c-12.67,0,-23.25,1.5,-31.75,4.5 c-8.5,3.0,-15.08,6.83,-19.75,11.5 c-7.33,7.0,-11,18.67,-11,35 c0,4.67,0.25,8.67,0.75,12 c0.5,3.33,1.08,6.17,1.75,8.5 l3,0 c8.33,-6.67,16.58,-11.33,24.75,-14 c8.17,-2.67,18.42,-4,30.75,-4 c9.0,0,16.5,1.42,22.5,4.25 c6.0,2.83,10.5,6.42,13.5,10.75 c1.33,5.0,2,11.0,2,18 c0,9.33,-2.83,17.67,-8.5,25 c-5.67,7.33,-15.33,15.17,-29,23.5 l-14.5,9 c-25.0,16.0,-37.5,34.83,-37.5,56.5 l0,3.5 c0,17.33,9.17,35.0,27.5,53 l20,19 c8.33,8.33,14.0,15.17,17,20.5 c3.0,5.33,4.33,11.33,4,18 c-3.0,8.67,-9.08,15.0,-18.25,19 c-9.17,4.0,-20.92,6,-35.25,6 c-10.67,0,-20.75,-1.17,-30.25,-3.5 c-9.5,-2.33,-17.42,-5.83,-23.75,-10.5 c-3.67,-8.0,-6.33,-16.58,-8,-25.75 c-1.67,-9.17,-2.5,-21.42,-2.5,-36.75 l0,-219 c0,-14.33,-4.08,-25.0,-12.25,-32 c-8.17,-7.0,-19.75,-10.5,-34.75,-10.5 c-6.33,0,-11.83,1.0,-16.5,3 c2.33,7.67,4.17,15.5,5.5,23.5 c1.33,8.0,2,18.0,2,30 l0,217.5 c0,35.67,10.08,63.42,30.25,83.25 c20.17,19.83,49.42,29.75,87.75,29.75 Z M155.5,383" fill="rgb(0,0,0)" transform="matrix(2.3166023166023164,0.0,0.0,-2.3166023166023164,141.50579150579148,937.2586872586871)"/>
</svg>