<?xml version="1.0" encoding="UTF-8"?>
<svg width="1000" height="1000" viewBox="0 0 1000 1000" version="1.1" xmlns="http://www.w3.org/2000/svg" xmlns:xlink="http://www.w3.org/1999/xlink">
 <path d="M264,136.5 c-22.33,-26.33,-52.17,-51.17,-89.5,-74.5 c-37.33,-23.33,-82.67,-41.83,-136,-55.5 c-2.0,6.67,-3,14.0,-3,22 c0,9.67,1.33,17.33,4,23 c2.67,5.67,7.67,9.5,15,11.5 c20.67,6.67,39.58,13.83,56.75,21.5 c17.17,7.67,33.67,16.83,49.5,27.5 c15.83,10.67,31.75,23.33,47.75,38 l0,3 c-16.67,14.67,-32.92,27.0,-48.75,37 c-15.83,10.0,-32.17,18.67,-49,26 c-16.83,7.33,-35.58,14.17,-56.25,20.5 c-7.33,2.33,-12.33,6.33,-15,12 c-2.67,5.67,-4,13.17,-4,22.5 c0,7.67,1.0,15.0,3,22 c48.33,-11.33,88.75,-26.25,121.25,-44.75 c32.5,-18.5,60.92,-39.08,85.25,-61.75 c8.33,-7.33,13.67,-13.33,16,-18 c2.33,-4.67,3.5,-10.5,3.5,-17.5 c0,-2.33,0,-4.67,0,-7 c0,-2.33,-0.17,-4.83,-0.5,-7.5 Z M264,136.5" fill="rgb(0,0,0)" transform="matrix(3.141361256544503,0.0,0.0,-3.141361256544503,28.79581151832457,970.4188481675394)"/>
</svg>