<?xml version="1.0" encoding="UTF-8"?>
<svg width="1000" height="1000" viewBox="0 0 1000 1000" version="1.1" xmlns="http://www.w3.org/2000/svg" xmlns:xlink="http://www.w3.org/1999/xlink">
 <path d="M0,0 l1000,0 l0,1000 l-1000,0 Z M0,0" fill="rgb(242,242,242)" transform="matrix(1,0,0,-1,0,1000)"/>
 <path d="M294.01,0 l0,142 l-173.99,97 l0,18 l173.99,97 l0,142 l-6.0,0 l-245.98,-152 l0,-192 l245.98,-152 Z M570.01,0 l0,142 l-173.99,97 l0,18 l173.99,97 l0,142 l-6.0,0 l-245.98,-152 l0,-192 l245.98,-152 Z M570.01,0" fill="rgb(0,0,0)" transform="matrix(0.6172839506172839,0.0,0.0,-0.6172839506172839,310.1851851851852,741.358024691358)"/>
</svg>