<?xml version="1.0" encoding="UTF-8"?>
<svg width="1000" height="1000" viewBox="0 0 1000 1000" version="1.1" xmlns="http://www.w3.org/2000/svg" xmlns:xlink="http://www.w3.org/1999/xlink">
 <path d="M138,248.5 l0,3 c5.0,1.67,9.67,2.92,14,3.75 c4.33,0.83,10.17,1.25,17.5,1.25 c8.0,0,14.58,-0.75,19.75,-2.25 c5.17,-1.5,10.75,-4.42,16.75,-8.75 c7.67,-5.0,15.92,-11.75,24.75,-20.25 c8.83,-8.5,19.42,-21.25,31.75,-38.25 c5.67,-8.33,9.5,-15.08,11.5,-20.25 c2.0,-5.17,3,-10.92,3,-17.25 l0,-12 c-12.33,-19.33,-24.17,-35.5,-35.5,-48.5 c-11.33,-13.0,-24.67,-25.33,-40,-37 c-4.67,-3.33,-9.25,-5.58,-13.75,-6.75 c-4.5,-1.17,-10.25,-1.75,-17.25,-1.75 c-6.33,0,-11.92,0.42,-16.75,1.25 c-4.83,0.83,-10.08,2.08,-15.75,3.75 l0,3 c16.33,11.67,30.17,22.42,41.5,32.25 c11.33,9.83,21.33,20.0,30,30.5 c8.67,10.5,17.0,22.42,25,35.75 c-10.33,18.67,-23.0,35.33,-38,50 c-15.0,14.67,-34.5,30.83,-58.5,48.5 Z M21,248.5 l0,3 c5.0,1.67,9.67,2.92,14,3.75 c4.33,0.83,10.17,1.25,17.5,1.25 c7.67,0,14.17,-0.75,19.5,-2.25 c5.33,-1.5,11.0,-4.42,17,-8.75 c7.67,-5.0,15.92,-11.75,24.75,-20.25 c8.83,-8.5,19.25,-21.25,31.25,-38.25 c5.67,-8.33,9.5,-15.08,11.5,-20.25 c2.0,-5.17,3,-10.92,3,-17.25 l0,-12 c-12.0,-19.33,-23.67,-35.5,-35,-48.5 c-11.33,-13.0,-24.67,-25.33,-40,-37 c-4.67,-3.33,-9.33,-5.58,-14,-6.75 c-4.67,-1.17,-10.33,-1.75,-17,-1.75 c-6.67,0,-12.33,0.42,-17,1.25 c-4.67,0.83,-9.83,2.08,-15.5,3.75 l0,3 c16.33,11.67,30.17,22.42,41.5,32.25 c11.33,9.83,21.33,20.0,30,30.5 c8.67,10.5,17.0,22.42,25,35.75 c-10.67,18.67,-23.42,35.33,-38.25,50 c-14.83,14.67,-34.25,30.83,-58.25,48.5 Z M21,248.5" fill="rgb(0,0,0)" transform="matrix(3.515625,0.0,0.0,-3.515625,-23.828125,1027.34375)"/>
</svg>