<?xml version="1.0" encoding="UTF-8"?>
<svg width="1000" height="1000" viewBox="0 0 1000 1000" version="1.1" xmlns="http://www.w3.org/2000/svg" xmlns:xlink="http://www.w3.org/1999/xlink">
 <path d="M162,51.5 l0,-3 c-5.0,-1.67,-9.67,-2.92,-14,-3.75 c-4.33,-0.83,-10.17,-1.25,-17.5,-1.25 c-8.0,0,-14.58,0.75,-19.75,2.25 c-5.17,1.5,-10.75,4.42,-16.75,8.75 c-7.67,5.0,-15.92,11.75,-24.75,20.25 c-8.83,8.5,-19.42,21.25,-31.75,38.25 c-5.67,8.67,-9.5,15.5,-11.5,20.5 c-2.0,5.0,-3,10.67,-3,17 l0,12 c12.33,19.33,24.17,35.5,35.5,48.5 c11.33,13.0,24.67,25.33,40,37 c4.67,3.33,9.25,5.58,13.75,6.75 c4.5,1.17,10.25,1.75,17.25,1.75 c6.67,0,12.33,-0.42,17,-1.25 c4.67,-0.83,9.83,-2.08,15.5,-3.75 l0,-3 c-16.0,-11.67,-29.67,-22.42,-41,-32.25 c-11.33,-9.83,-21.33,-19.92,-30,-30.25 c-8.67,-10.33,-17.17,-22.33,-25.5,-36 c10.67,-18.33,23.42,-34.92,38.25,-49.75 c14.83,-14.83,34.25,-31.08,58.25,-48.75 Z M279,51.5 l0,-3 c-5.0,-1.67,-9.67,-2.92,-14,-3.75 c-4.33,-0.83,-10.17,-1.25,-17.5,-1.25 c-7.67,0,-14.17,0.75,-19.5,2.25 c-5.33,1.5,-11.0,4.42,-17,8.75 c-7.67,5.0,-15.92,11.75,-24.75,20.25 c-8.83,8.5,-19.25,21.25,-31.25,38.25 c-5.67,8.67,-9.5,15.5,-11.5,20.5 c-2.0,5.0,-3,10.67,-3,17 l0,12 c12.0,19.33,23.67,35.5,35,48.5 c11.33,13.0,24.67,25.33,40,37 c4.67,3.33,9.33,5.58,14,6.75 c4.67,1.17,10.33,1.75,17,1.75 c6.67,0,12.33,-0.42,17,-1.25 c4.67,-0.83,9.83,-2.08,15.5,-3.75 l0,-3 c-16.33,-11.67,-30.08,-22.42,-41.25,-32.25 c-11.17,-9.83,-21.08,-19.92,-29.75,-30.25 c-8.67,-10.33,-17.17,-22.33,-25.5,-36 c10.67,-18.33,23.42,-34.92,38.25,-49.75 c14.83,-14.83,34.25,-31.08,58.25,-48.75 Z M279,51.5" fill="rgb(0,0,0)" transform="matrix(3.515625,0.0,0.0,-3.515625,-30.859375,1027.34375)"/>
</svg>