<?xml version="1.0" encoding="UTF-8"?>
<svg width="1000" height="1000" viewBox="0 0 1000 1000" version="1.1" xmlns="http://www.w3.org/2000/svg" xmlns:xlink="http://www.w3.org/1999/xlink">
 <path d="M79.5,-2 c-14.33,0,-24.5,2.92,-30.5,8.75 c-6.0,5.83,-9,12.92,-9,21.25 l0,270.5 l-11,0 c-6.67,0,-11.33,2.42,-14,7.25 c-2.67,4.83,-4,13.58,-4,26.25 l0,6 l29,0 c-0.33,7.33,-1.17,14.08,-2.5,20.25 c-1.33,6.17,-3.17,11.75,-5.5,16.75 c6.0,1.67,11.5,2.5,16.5,2.5 c9.0,0,17.42,-2.92,25.25,-8.75 c7.83,-5.83,13.42,-16.08,16.75,-30.75 l91.5,0 c5.33,0,8.92,-2.08,10.75,-6.25 c1.83,-4.17,2.75,-10.58,2.75,-19.25 c0,-2.0,-0.08,-4.25,-0.25,-6.75 c-0.17,-2.5,-0.42,-4.92,-0.75,-7.25 l-101.5,0 l0,-116 l3.5,0 c7.33,17.33,16.42,32.75,27.25,46.25 c10.83,13.5,22.83,24.17,36,32 c13.17,7.83,26.58,11.75,40.25,11.75 c11.33,0,21.33,-3.83,30,-11.5 c8.67,-7.67,15.5,-17.42,20.5,-29.25 c5.0,-11.83,7.5,-24.08,7.5,-36.75 l0,-123 c0,-14.33,0.67,-26.67,2,-37 c1.33,-10.33,3.67,-22.0,7,-35 c-5.67,-1.33,-12.17,-2,-19.5,-2 c-14.67,0,-26.25,4.5,-34.75,13.5 c-8.5,9.0,-12.75,26.67,-12.75,53 c0,20.67,1.0,40.58,3,59.75 c2.0,19.17,5.0,41.25,9,66.25 c-6.0,16.33,-15.33,24.5,-28,24.5 c-16.33,0,-32.5,-8.67,-48.5,-26 c-16.0,-17.33,-30.17,-43.33,-42.5,-78 l0,-112 c-2.67,-0.33,-5.0,-0.58,-7,-0.75 c-2.0,-0.17,-4.17,-0.25,-6.5,-0.25 Z M79.5,-2" fill="rgb(0,0,0)" transform="matrix(2.3715415019762847,0.0,0.0,-2.3715415019762847,170.35573122529644,945.2569169960475)"/>
</svg>