<?xml version="1.0" encoding="UTF-8"?>
<svg width="1000" height="1000" viewBox="0 0 1000 1000" version="1.1" xmlns="http://www.w3.org/2000/svg" xmlns:xlink="http://www.w3.org/1999/xlink">
 <path d="M112,453 c4.67,1.67,10.0,3.0,16,4 c6.0,1.0,12.17,1.5,18.5,1.5 c12.67,0,22.75,-2.17,30.25,-6.5 c7.5,-4.33,11.25,-11.5,11.25,-21.5 l0,-31.5 c-9.33,-3.67,-19.83,-5.5,-31.5,-5.5 c-13.33,0,-24.08,2.92,-32.25,8.75 c-8.17,5.83,-12.25,13.58,-12.25,23.25 Z M270,0 l-219,0 c-8.33,0,-14.25,2.92,-17.75,8.75 c-3.5,5.83,-5.25,13.58,-5.25,23.25 c0,8.33,0.83,15.33,2.5,21 l104.5,0 l1,2.5 c-9.33,7.67,-14,20.83,-14,39.5 l0,202 l-45.5,0 c-32.33,0,-48.5,12.5,-48.5,37.5 c0,2.67,0.25,5.5,0.75,8.5 c0.5,3.0,0.92,5.33,1.25,7 l219.5,0 c9.33,0,15.42,-3.17,18.25,-9.5 c2.83,-6.33,4.25,-14.33,4.25,-24 c0,-5.67,-0.83,-12.17,-2.5,-19.5 l-104.5,0 l-1,-2.5 c9.33,-7.67,14,-20.83,14,-39.5 l0,-202 l46,0 c18.67,0,31.33,-3.58,38,-10.75 c6.67,-7.17,10,-16.25,10,-27.25 c0,-2.67,-0.17,-5.25,-0.5,-7.75 c-0.33,-2.5,-0.83,-4.92,-1.5,-7.25 Z M270,0" fill="rgb(0,0,0)" transform="matrix(1.9629225736095965,0.0,0.0,-1.9629225736095965,205.5616139585605,950.0)"/>
</svg>