<?xml version="1.0" encoding="UTF-8"?>
<svg width="1000" height="1000" viewBox="0 0 1000 1000" version="1.1" xmlns="http://www.w3.org/2000/svg" xmlns:xlink="http://www.w3.org/1999/xlink">
 <path d="M0,0 l1000,0 l0,1000 l-1000,0 Z M0,0" fill="rgb(242,242,242)" transform="matrix(1,0,0,-1,0,1000)"/>
 <path d="M146,910 l134,0 l-84,-136 l-102,0 Z M469,910 l134,0 l-84,-136 l-102,0 Z M210,700 l0,-358 l-132,0 l0,358 Z M534,210 c0,-72.67,-19.67,-128.17,-59,-166.5 c-39.33,-38.33,-93.33,-57.5,-162,-57.5 c-35.33,0,-67.33,4.83,-96,14.5 c-28.67,9.67,-53.33,24,-74,43 c-20.67,19,-36.67,42.33,-48,70 c-11.33,27.67,-17,59.83,-17,96.5 l0,66 l132,0 l0,-66 c0,-31.33,8.67,-55.83,26,-73.5 c17.33,-17.67,41.67,-26.5,73,-26.5 c29.33,0,52.17,8.67,68.5,26 c16.33,17.33,24.5,42,24.5,74 l0,490 l132,0 Z M534,210" fill="rgb(0,0,0)" transform="matrix(0.6172839506172839,0.0,0.0,-0.6172839506172839,310.1851851851852,741.358024691358)"/>
</svg>