<?xml version="1.0" encoding="UTF-8"?>
<svg width="1000" height="1000" viewBox="0 0 1000 1000" version="1.1" xmlns="http://www.w3.org/2000/svg" xmlns:xlink="http://www.w3.org/1999/xlink">
 <path d="M0,0 l1000,0 l0,1000 l-1000,0 Z M0,0" fill="rgb(242,242,242)" transform="matrix(1,0,0,-1,0,1000)"/>
 <path d="M34,350 c0,22.67,4.17,43.83,12.5,63.5 c8.33,19.67,19.67,36.83,34,51.5 c14.33,14.67,31.17,26.33,50.5,35 c19.33,8.67,39.67,13,61,13 c22,0,42.17,-3.83,60.5,-11.5 c18.33,-7.67,33.17,-19.83,44.5,-36.5 l18,0 c11.33,16.67,26.17,28.83,44.5,36.5 c18.33,7.67,38.5,11.5,60.5,11.5 c21.33,0,41.67,-4.33,61,-13 c19.33,-8.67,36.17,-20.33,50.5,-35 c14.33,-14.67,25.67,-31.83,34,-51.5 c8.33,-19.67,12.5,-40.83,12.5,-63.5 c0,-22.67,-4.17,-43.83,-12.5,-63.5 c-8.33,-19.67,-19.67,-36.83,-34,-51.5 c-14.33,-14.67,-31.17,-26.33,-50.5,-35 c-19.33,-8.67,-39.67,-13,-61,-13 c-22,0,-42.17,3.83,-60.5,11.5 c-18.33,7.67,-33.17,19.83,-44.5,36.5 l-18,0 c-11.33,-16.67,-26.17,-28.83,-44.5,-36.5 c-18.33,-7.67,-38.5,-11.5,-60.5,-11.5 c-21.33,0,-41.67,4.33,-61,13 c-19.33,8.67,-36.17,20.33,-50.5,35 c-14.33,14.67,-25.67,31.83,-34,51.5 c-8.33,19.67,-12.5,40.83,-12.5,63.5 Z M252,350 c0,15.33,-5.33,28.33,-16,39 c-10.67,10.67,-23.67,16,-39,16 c-15.33,0,-28.33,-5.33,-39,-16 c-10.67,-10.67,-16,-23.67,-16,-39 c0,-15.33,5.33,-28.33,16,-39 c10.67,-10.67,23.67,-16,39,-16 c15.33,0,28.33,5.33,39,16 c10.67,10.67,16,23.67,16,39 Z M360,350 c0,-15.33,5.33,-28.33,16,-39 c10.67,-10.67,23.67,-16,39,-16 c15.33,0,28.33,5.33,39,16 c10.67,10.67,16,23.67,16,39 c0,15.33,-5.33,28.33,-16,39 c-10.67,10.67,-23.67,16,-39,16 c-15.33,0,-28.33,-5.33,-39,-16 c-10.67,-10.67,-16,-23.67,-16,-39 Z M360,350" fill="rgb(0,0,0)" transform="matrix(0.6172839506172839,0.0,0.0,-0.6172839506172839,310.1851851851852,741.358024691358)"/>
</svg>