<?xml version="1.0" encoding="UTF-8"?>
<svg width="1000" height="1000" viewBox="0 0 1000 1000" version="1.1" xmlns="http://www.w3.org/2000/svg" xmlns:xlink="http://www.w3.org/1999/xlink">
 <path d="M215.5,383 c13.67,0,25.25,-1.42,34.75,-4.25 c9.5,-2.83,16.42,-6.42,20.75,-10.75 c6.33,-6.33,9.5,-15.17,9.5,-26.5 c0,-10.0,-1.17,-17.83,-3.5,-23.5 l-3,0 c-5.67,4.67,-12.75,8.33,-21.25,11 c-8.5,2.67,-17.42,4,-26.75,4 c-16.67,0,-30.17,-3.5,-40.5,-10.5 c-3.33,-8.67,-5,-20.83,-5,-36.5 l0,-309.5 c0,-31.0,-8.83,-55.67,-26.5,-74 c-17.67,-18.33,-41.33,-27.5,-71,-27.5 c-25.33,0,-43.0,5.0,-53,15 c-3.67,3.67,-6.33,7.83,-8,12.5 c-1.67,4.67,-2.5,9.67,-2.5,15 c0,10.33,1.17,18.5,3.5,24.5 l3,0 c7.33,-5.67,14.75,-9.92,22.25,-12.75 c7.5,-2.83,16.42,-4.25,26.75,-4.25 c11.33,0,20.83,1.42,28.5,4.25 c7.67,2.83,13.67,7.92,18,15.25 c2.0,11.0,3,22.5,3,34.5 l0,312.5 c0,18.0,3.83,33.83,11.5,47.5 c7.67,13.67,18.33,24.42,32,32.25 c13.67,7.83,29.5,11.75,47.5,11.75 Z M215.5,383" fill="rgb(0,0,0)" transform="matrix(1.7716535433070866,0.0,0.0,-1.7716535433070866,234.25196850393704,728.5433070866142)"/>
</svg>