<?xml version="1.0" encoding="UTF-8"?>
<svg width="1000" height="1000" viewBox="0 0 1000 1000" version="1.1" xmlns="http://www.w3.org/2000/svg" xmlns:xlink="http://www.w3.org/1999/xlink">
 <path d="M117.5,376.5 c10.0,3.33,21.5,5,34.5,5 c12.67,0,22.75,-2.08,30.25,-6.25 c7.5,-4.17,11.25,-11.25,11.25,-21.25 l0,-32 c-8.67,-3.33,-19.17,-5,-31.5,-5 c-13.33,0,-24.08,2.83,-32.25,8.5 c-8.17,5.67,-12.25,13.5,-12.25,23.5 Z M33,53 l113.5,0 l1,2.5 c-8.33,9.67,-12.5,25.0,-12.5,46 l0,127 l-2,2 c-20.67,-6.0,-37.17,-10.58,-49.5,-13.75 c-12.33,-3.17,-21.33,-4.75,-27,-4.75 c-6.33,0,-11.67,2.75,-16,8.25 c-4.33,5.5,-6.5,13.92,-6.5,25.25 c0,8.0,1.17,15.17,3.5,21.5 c15.67,1.67,32.58,2.92,50.75,3.75 c18.17,0.83,33.75,1.25,46.75,1.25 c18.33,0,31.75,-2.42,40.25,-7.25 c8.5,-4.83,12.75,-14.58,12.75,-29.25 l0,-182.5 c31.0,-0.67,54.42,-4.67,70.25,-12 c15.83,-7.33,23.75,-16.33,23.75,-27 c0,-2.67,-0.25,-5.08,-0.75,-7.25 c-0.5,-2.17,-1.08,-4.25,-1.75,-6.25 l0.5,-0.5 c-1.67,-2.33,-5.83,-4.33,-12.5,-6 c-30.33,-7.33,-45.5,-22.17,-45.5,-44.5 c0,-15.33,9.33,-23,28,-23 c10.67,0,20.17,2.83,28.5,8.5 l3,0 c3.67,-7.33,5.5,-15.33,5.5,-24 c0,-12.33,-3.92,-21.42,-11.75,-27.25 c-7.83,-5.83,-18.58,-8.75,-32.25,-8.75 c-19.0,0,-34.42,5.25,-46.25,15.75 c-11.83,10.5,-17.75,24.92,-17.75,43.25 c0,15.33,3.92,28.58,11.75,39.75 c7.83,11.17,17.92,19.92,30.25,26.25 l-153,0 c-15.0,0,-24.92,2.75,-29.75,8.25 c-4.83,5.5,-7.25,14.92,-7.25,28.25 c0,6.67,0.67,12.17,2,16.5 Z M33,53" fill="rgb(0,0,0)" transform="matrix(1.7769002961500493,0.0,0.0,-1.7769002961500493,217.47285291214217,727.8874629812439)"/>
</svg>