<?xml version="1.0" encoding="UTF-8"?>
<svg width="1000" height="1000" viewBox="0 0 1000 1000" version="1.1" xmlns="http://www.w3.org/2000/svg" xmlns:xlink="http://www.w3.org/1999/xlink">
 <path d="M166.5,272 c35.33,0,53,-8.17,53,-24.5 l0,-224 c0,-39.0,-10.58,-69.33,-31.75,-91 c-21.17,-21.67,-49.58,-32.5,-85.25,-32.5 c-21.0,0,-37.5,1.58,-49.5,4.75 c-12.0,3.17,-20.33,7.25,-25,12.25 c-4.33,4.0,-7.33,9.33,-9,16 c-1.67,6.67,-2.5,14.0,-2.5,22 c0,5.67,0.5,10.67,1.5,15 l3,0 c12.0,-6.33,23.83,-10.75,35.5,-13.25 c11.67,-2.5,26.67,-3.75,45,-3.75 c9.33,0,18.67,0.75,28,2.25 c9.33,1.5,18.17,4.92,26.5,10.25 c4.0,7.0,6.75,15.08,8.25,24.25 c1.5,9.17,2.25,20.92,2.25,35.25 l0,195 l-3,1.5 c-31.33,-2.67,-56.0,-4.83,-74,-6.5 c-18.0,-1.67,-31.33,-2.5,-40,-2.5 c-5.67,0,-10.25,2.83,-13.75,8.5 c-3.5,5.67,-5.25,14.17,-5.25,25.5 c0,7.67,0.83,14.5,2.5,20.5 c14.67,1.33,30.0,2.33,46,3 c16.0,0.67,31.58,1.17,46.75,1.5 c15.17,0.33,28.75,0.5,40.75,0.5 Z M181,408 l12,0 c6.67,0,12.58,-0.75,17.75,-2.25 c5.17,-1.5,12.25,-5.58,21.25,-12.25 c11.33,-8.0,22.92,-18.08,34.75,-30.25 c11.83,-12.17,21.92,-26.58,30.25,-43.25 c-7.67,-5.0,-17.5,-7.5,-29.5,-7.5 c-5.67,0,-10.25,1.08,-13.75,3.25 c-3.5,2.17,-7.58,6.42,-12.25,12.75 c-5.67,7.0,-12.0,13.67,-19,20 c-7.0,6.33,-16.33,13.0,-28,20 l-1.5,0 c-14.67,-10.0,-26.58,-19.67,-35.75,-29 c-9.17,-9.33,-16.42,-18.5,-21.75,-27.5 l-3,0 c-11.67,0,-20.5,1.33,-26.5,4 c-6.0,2.67,-9,5.83,-9,9.5 c0,2.67,1.0,6.25,3,10.75 c2.0,4.5,5.33,9.92,10,16.25 c8.33,11.33,19.08,22.08,32.25,32.25 c13.17,10.17,26.08,17.92,38.75,23.25 Z M181,408" fill="rgb(0,0,0)" transform="matrix(1.7716535433070866,0.0,0.0,-1.7716535433070866,222.29330708661416,772.8346456692914)"/>
</svg>