<?xml version="1.0" encoding="UTF-8"?>
<svg width="1000" height="1000" viewBox="0 0 1000 1000" version="1.1" xmlns="http://www.w3.org/2000/svg" xmlns:xlink="http://www.w3.org/1999/xlink">
 <path d="M97.5,-1.5 c-5.0,-1.0,-11.17,-1.5,-18.5,-1.5 c-10.33,0,-19.17,1.42,-26.5,4.25 c-7.33,2.83,-11,8.92,-11,18.25 l0,201 c0,10.67,-0.42,19.5,-1.25,26.5 c-0.83,7.0,-2.42,14.5,-4.75,22.5 c5.0,1.0,10.17,1.5,15.5,1.5 c5.67,0,12.0,-0.75,19,-2.25 c7.0,-1.5,12.67,-4.25,17,-8.25 c4.0,-4.33,6.75,-9.17,8.25,-14.5 c1.5,-5.33,2.25,-13.17,2.25,-23.5 l0,-83.5 c25.0,12.33,47.25,29.0,66.75,50 c19.5,21.0,35.92,48.5,49.25,82.5 l9,0 c12.0,0,22.08,-2.08,30.25,-6.25 c8.17,-4.17,12.25,-8.92,12.25,-14.25 c0,-2.33,-0.42,-5.0,-1.25,-8 c-0.83,-3.0,-2.75,-7.5,-5.75,-13.5 c-9.67,-19.33,-21.17,-37.08,-34.5,-53.25 c-13.33,-16.17,-28.0,-30.25,-44,-42.25 c14.67,-24.67,30.92,-48.0,48.75,-70 c17.83,-22.0,36.75,-42.17,56.75,-60.5 c-7.0,-5.67,-17.5,-8.5,-31.5,-8.5 c-10.67,0,-19.58,1.25,-26.75,3.75 c-7.17,2.5,-13.92,6.92,-20.25,13.25 c-6.0,6.0,-13.08,14.17,-21.25,24.5 c-8.17,10.33,-16.42,21.67,-24.75,34 c-8.33,12.33,-15.83,24.67,-22.5,37 c-13.33,-6.67,-26.83,-11.83,-40.5,-15.5 Z M97.5,-1.5" fill="rgb(0,0,0)" transform="matrix(3.2549728752260396,0.0,0.0,-3.2549728752260396,-21.609403254972847,933.7251356238698)"/>
</svg>