<?xml version="1.0" encoding="UTF-8"?>
<svg width="1000" height="1000" viewBox="0 0 1000 1000" version="1.1" xmlns="http://www.w3.org/2000/svg" xmlns:xlink="http://www.w3.org/1999/xlink">
 <path d="M33.5,200 c24.33,16.67,49.83,30.25,76.5,40.75 c26.67,10.5,56.67,19.92,90,28.25 c10.33,2.67,19.08,4.5,26.25,5.5 c7.17,1.0,12.92,1.5,17.25,1.5 c6.33,0,11.58,-3.08,15.75,-9.25 c4.17,-6.17,6.25,-14.58,6.25,-25.25 l0,-9 c-26.33,-3.33,-49.33,-6.92,-69,-10.75 c-19.67,-3.83,-37.75,-8.58,-54.25,-14.25 c-16.5,-5.67,-33.25,-12.67,-50.25,-21 l0,-2.5 c13.0,-5.33,25.0,-10.0,36,-14 c11.0,-4.0,22.25,-7.33,33.75,-10 c11.5,-2.67,24.25,-5.17,38.25,-7.5 c14.0,-2.33,30.33,-4.67,49,-7 c5.0,-0.33,9.0,-2.17,12,-5.5 c3.0,-3.33,4.5,-8.83,4.5,-16.5 c0,-4.33,-0.17,-8.75,-0.5,-13.25 c-0.33,-4.5,-1.0,-8.25,-2,-11.25 c-46.67,5.0,-86.83,12.33,-120.5,22 c-33.67,9.67,-63.33,20.83,-89,33.5 c-8.33,4.33,-13.75,8.83,-16.25,13.5 c-2.5,4.67,-3.75,9.83,-3.75,15.5 Z M32.5,78 l209.5,0 c9.67,0,16.33,-2.0,20,-6 c3.67,-4.0,5.5,-10.17,5.5,-18.5 c0,-3.0,-0.17,-6.25,-0.5,-9.75 c-0.33,-3.5,-0.83,-6.92,-1.5,-10.25 l-197.5,0 c-13.33,0,-22.58,3.08,-27.75,9.25 c-5.17,6.17,-7.75,15.42,-7.75,27.75 Z M32.5,78" fill="rgb(0,0,0)" transform="matrix(3.711340206185567,0.0,0.0,-3.711340206185567,-56.70103092783506,1074.3298969072166)"/>
</svg>