<?xml version="1.0" encoding="UTF-8"?>
<svg width="1000" height="1000" viewBox="0 0 1000 1000" version="1.1" xmlns="http://www.w3.org/2000/svg" xmlns:xlink="http://www.w3.org/1999/xlink">
 <path d="M36,163 c22.67,26.67,52.58,51.67,89.75,75 c37.17,23.33,82.42,41.67,135.75,55 c2.0,-6.33,3,-13.5,3,-21.5 c0,-9.33,-1.33,-16.92,-4,-22.75 c-2.67,-5.83,-7.67,-9.92,-15,-12.25 c-20.67,-6.33,-39.58,-13.42,-56.75,-21.25 c-17.17,-7.83,-33.67,-17.08,-49.5,-27.75 c-15.83,-10.67,-31.75,-23.33,-47.75,-38 l0,-2.5 c16.67,-14.67,32.92,-27.08,48.75,-37.25 c15.83,-10.17,32.17,-18.83,49,-26 c16.83,-7.17,35.58,-13.92,56.25,-20.25 c7.33,-2.33,12.33,-6.33,15,-12 c2.67,-5.67,4,-13.33,4,-23 c0,-7.67,-1.0,-15.0,-3,-22 c-48.33,11.67,-88.67,26.75,-121,45.25 c-32.33,18.5,-60.83,38.92,-85.5,61.25 c-8.33,7.67,-13.67,13.83,-16,18.5 c-2.33,4.67,-3.5,10.33,-3.5,17 c0,2.67,0,5.17,0,7.5 c0,2.33,0.17,4.67,0.5,7 Z M36,163" fill="rgb(0,0,0)" transform="matrix(3.141361256544503,0.0,0.0,-3.141361256544503,28.79581151832457,970.4188481675394)"/>
</svg>