<?xml version="1.0" encoding="UTF-8"?>
<svg width="1000" height="1000" viewBox="0 0 1000 1000" version="1.1" xmlns="http://www.w3.org/2000/svg" xmlns:xlink="http://www.w3.org/1999/xlink">
 <path d="M29.5,217.5 l206,0 c20.67,0,31,-14.67,31,-44 l0,-105.5 c-1.33,-0.33,-2.92,-0.58,-4.75,-0.75 c-1.83,-0.17,-3.92,-0.25,-6.25,-0.25 c-11.67,0,-20.92,2.5,-27.75,7.5 c-6.83,5.0,-10.25,12.5,-10.25,22.5 l0,72 l-149,0 c-14.33,0,-24.5,2.83,-30.5,8.5 c-6.0,5.67,-9,15.83,-9,30.5 c0,1.67,0,3.33,0,5 c0,1.67,0.17,3.17,0.5,4.5 Z M29.5,217.5" fill="rgb(0,0,0)" transform="matrix(3.789473684210526,0.0,0.0,-3.789473684210526,-59.89473684210526,1039.0526315789473)"/>
</svg>