<?xml version="1.0" encoding="UTF-8"?>
<svg width="1000" height="1000" viewBox="0 0 1000 1000" version="1.1" xmlns="http://www.w3.org/2000/svg" xmlns:xlink="http://www.w3.org/1999/xlink">
 <path d="M0,0 l1000,0 l0,1000 l-1000,0 Z M0,0" fill="rgb(242,242,242)" transform="matrix(1,0,0,-1,0,1000)"/>
 <path d="M411,30 l-18,0 c-6.67,-13.33,-17,-24,-31,-32 c-14,-8,-32.67,-12,-56,-12 c-23.33,0,-42,4,-56,12 c-14,8,-24.33,18.67,-31,32 l-18,0 l0,-230 l-126,0 l0,696 l126,0 l0,-276 c0,-16.67,1.67,-32.17,5,-46.5 c3.33,-14.33,9.17,-27,17.5,-38 c8.33,-11,19.17,-19.67,32.5,-26 c13.33,-6.33,30,-9.5,50,-9.5 c20,0,36.67,3.17,50,9.5 c13.33,6.33,24.17,15,32.5,26 c8.33,11,14.17,23.67,17.5,38 c3.33,14.33,5,29.83,5,46.5 l0,276 l126,0 l0,-496 l-126,0 Z M411,30" fill="rgb(0,0,0)" transform="matrix(0.6172839506172839,0.0,0.0,-0.6172839506172839,310.1851851851852,741.358024691358)"/>
</svg>