<?xml version="1.0" encoding="UTF-8"?>
<svg width="1000" height="1000" viewBox="0 0 1000 1000" version="1.1" xmlns="http://www.w3.org/2000/svg" xmlns:xlink="http://www.w3.org/1999/xlink">
 <path d="M93.5,-1 c-2.67,-0.33,-5.08,-0.58,-7.25,-0.75 c-2.17,-0.17,-4.58,-0.25,-7.25,-0.25 c-14.0,0,-23.92,2.75,-29.75,8.25 c-5.83,5.5,-8.75,13.08,-8.75,22.75 l0,191.5 c0,10.0,-0.58,18.75,-1.75,26.25 c-1.17,7.5,-3.25,14.42,-6.25,20.75 c5.67,1.67,11.0,2.5,16,2.5 c13.33,0,24.17,-4.83,32.5,-14.5 c8.33,-9.67,12.5,-26.83,12.5,-51.5 l0,-21.5 l3,0 c7.33,17.33,16.42,32.75,27.25,46.25 c10.83,13.5,22.83,24.17,36,32 c13.17,7.83,26.58,11.75,40.25,11.75 c11.33,0,21.33,-3.83,30,-11.5 c8.67,-7.67,15.5,-17.42,20.5,-29.25 c5.0,-11.83,7.5,-24.08,7.5,-36.75 l0,-123 c0,-14.33,0.67,-26.67,2,-37 c1.33,-10.33,3.67,-22.0,7,-35 c-5.67,-1.33,-12.17,-2,-19.5,-2 c-14.67,0,-26.25,4.5,-34.75,13.5 c-8.5,9.0,-12.75,26.67,-12.75,53 c0,20.67,1.0,40.58,3,59.75 c2.0,19.17,5.0,41.25,9,66.25 c-6.0,16.33,-15.33,24.5,-28,24.5 c-16.33,0,-32.42,-8.58,-48.25,-25.75 c-15.83,-17.17,-29.92,-42.92,-42.25,-77.25 Z M162.5,317.5 l-12,0 c-6.33,0,-12.17,0.92,-17.5,2.75 c-5.33,1.83,-12.5,5.92,-21.5,12.25 c-11.33,8.0,-22.83,18.17,-34.5,30.5 c-11.67,12.33,-21.83,26.67,-30.5,43 c7.67,5.0,17.5,7.5,29.5,7.5 c5.67,0,10.25,-1.0,13.75,-3 c3.5,-2.0,7.58,-6.33,12.25,-13 c5.67,-7.0,12.0,-13.67,19,-20 c7.0,-6.33,16.33,-13.0,28,-20 l2,0 c14.33,10.0,26.08,19.67,35.25,29 c9.17,9.33,16.42,18.5,21.75,27.5 l3,0 c11.67,0,20.5,-1.33,26.5,-4 c6.0,-2.67,9,-5.83,9,-9.5 c0,-2.67,-1.0,-6.25,-3,-10.75 c-2.0,-4.5,-5.33,-9.92,-10,-16.25 c-8.33,-11.33,-19.08,-22.08,-32.25,-32.25 c-13.17,-10.17,-26.08,-18.08,-38.75,-23.75 Z M162.5,317.5" fill="rgb(0,0,0)" transform="matrix(2.1634615384615383,0.0,0.0,-2.1634615384615383,176.02163461538464,945.6730769230769)"/>
</svg>