<?xml version="1.0" encoding="UTF-8"?>
<svg width="1000" height="1000" viewBox="0 0 1000 1000" version="1.1" xmlns="http://www.w3.org/2000/svg" xmlns:xlink="http://www.w3.org/1999/xlink">
 <path d="M145,360 c38.67,0,69.08,-13.42,91.25,-40.25 c22.17,-26.83,33.25,-69.92,33.25,-129.25 l0,-4 c0,-49.33,-6.08,-88.33,-18.25,-117 c-12.17,-28.67,-29.17,-49.08,-51,-61.25 c-21.83,-12.17,-47.08,-18.25,-75.75,-18.25 c-19.33,0,-34.42,1.83,-45.25,5.5 c-10.83,3.67,-18.08,7.33,-21.75,11 c-3.67,3.67,-6.75,8.33,-9.25,14 c-2.5,5.67,-3.75,13.5,-3.75,23.5 c0,8.33,0.67,15.0,2,20 l3,0 c11.0,-7.33,22.33,-12.67,34,-16 c11.67,-3.33,25.17,-5,40.5,-5 c24.67,0,45.83,4.67,63.5,14 c7.33,12.33,13.25,26.92,17.75,43.75 c4.5,16.83,7.58,36.25,9.25,58.25 l-3,0 c-10.0,-12.0,-22.42,-20.67,-37.25,-26 c-14.83,-5.33,-30.08,-8,-45.75,-8 c-28.67,0,-52.25,8.67,-70.75,26 c-18.5,17.33,-27.75,43.17,-27.75,77.5 l0,2.5 c0,26.33,4.83,49.08,14.5,68.25 c9.67,19.17,23.17,34.08,40.5,44.75 c17.33,10.67,37.33,16,60,16 Z M91.5,189 c13.0,-10.33,29.67,-15.5,50,-15.5 c25.33,0,50.0,5.67,74,17 l0,2.5 l0,4 c0,51.0,-7.33,85.33,-22,103 c-6.33,3.67,-12.92,6.25,-19.75,7.75 c-6.83,1.5,-14.42,2.25,-22.75,2.25 c-22.33,0,-39.25,-7.0,-50.75,-21 c-11.5,-14.0,-17.25,-32.0,-17.25,-54 l0,-3 c0,-9.33,0.58,-17.33,1.75,-24 c1.17,-6.67,3.42,-13.0,6.75,-19 Z M91.5,189" fill="rgb(0,0,0)" transform="matrix(2.4324324324324325,0.0,0.0,-2.4324324324324325,135.74324324324323,925.6756756756756)"/>
</svg>