<?xml version="1.0" encoding="UTF-8"?>
<svg width="1000" height="1000" viewBox="0 0 1000 1000" version="1.1" xmlns="http://www.w3.org/2000/svg" xmlns:xlink="http://www.w3.org/1999/xlink">
 <path d="M0,0 l1000,0 l0,1000 l-1000,0 Z M0,0" fill="rgb(242,242,242)" transform="matrix(1,0,0,-1,0,1000)"/>
 <path d="M194,6 c6,-23.33,18.17,-42.83,36.5,-58.5 c18.33,-15.67,43.5,-23.5,75.5,-23.5 c37.33,0,66.17,10.83,86.5,32.5 c20.33,21.67,30.5,49.5,30.5,83.5 l0,72 l-18,0 c-9.33,-23.33,-24.67,-42.17,-46,-56.5 c-21.33,-14.33,-51.67,-21.5,-91,-21.5 c-30,0,-57.83,5.5,-83.5,16.5 c-25.67,11,-48,26.5,-67,46.5 c-19,20,-33.83,44,-44.5,72 c-10.67,28,-16,59,-16,93 l0,12 c0,33.33,6,64.5,18,93.5 c12,29,28.83,54,50.5,75 c21.67,21,48,37.5,79,49.5 c31,12,65.5,18,103.5,18 c34.67,0,67.17,-5.67,97.5,-17 c30.33,-11.33,56.5,-27.17,78.5,-47.5 c22,-20.33,39.33,-44.67,52,-73 c12.67,-28.33,19,-59.5,19,-93.5 l0,-237 c0,-39.33,-5.83,-74,-17.5,-104 c-11.67,-30,-28.17,-55.17,-49.5,-75.5 c-21.33,-20.33,-47.17,-35.83,-77.5,-46.5 c-30.33,-10.67,-63.83,-16,-100.5,-16 c-30.67,0,-59.33,3.5,-86,10.5 c-26.67,7,-50.5,17.5,-71.5,31.5 c-21,14,-38.67,31.17,-53,51.5 c-14.33,20.33,-24.5,43.83,-30.5,70.5 Z M306,384 c-34,0,-62,-10.17,-84,-30.5 c-22,-20.33,-33,-47.5,-33,-81.5 c0,-34,11,-61.17,33,-81.5 c22,-20.33,50,-30.5,84,-30.5 c34,0,62,10.17,84,30.5 c22,20.33,33,47.5,33,81.5 c0,34,-11,61.17,-33,81.5 c-22,20.33,-50,30.5,-84,30.5 Z M306,384" fill="rgb(0,0,0)" transform="matrix(0.6172839506172839,0.0,0.0,-0.6172839506172839,310.1851851851852,741.358024691358)"/>
</svg>