<?xml version="1.0" encoding="UTF-8"?>
<svg width="1000" height="1000" viewBox="0 0 1000 1000" version="1.1" xmlns="http://www.w3.org/2000/svg" xmlns:xlink="http://www.w3.org/1999/xlink">
 <path d="M0,0 l1000,0 l0,1000 l-1000,0 Z M0,0" fill="rgb(242,242,242)" transform="matrix(1,0,0,-1,0,1000)"/>
 <path d="M201,198 c0,-23.33,8.5,-43.5,25.5,-60.5 c17,-17,43.5,-25.5,79.5,-25.5 c36,0,64.5,10.5,85.5,31.5 c21,21,31.5,48.5,31.5,82.5 l0,90 l-18,0 c-9.33,-23.33,-24.67,-42.17,-46,-56.5 c-21.33,-14.33,-51.67,-21.5,-91,-21.5 c-30,0,-57.83,5.5,-83.5,16.5 c-25.67,11,-48,26.5,-67,46.5 c-19,20,-33.83,44,-44.5,72 c-10.67,28,-16,59,-16,93 l0,12 c0,33.33,6,64.5,18,93.5 c12,29,28.83,54,50.5,75 c21.67,21,48,37.5,79,49.5 c31,12,65.5,18,103.5,18 c34.67,0,67.17,-5.67,97.5,-17 c30.33,-11.33,56.5,-27.17,78.5,-47.5 c22,-20.33,39.33,-44.67,52,-73 c12.67,-28.33,19,-59.5,19,-93.5 l0,-255 c0,-38,-6.33,-72,-19,-102 c-12.67,-30,-30,-55.33,-52,-76 c-22,-20.67,-47.83,-36.5,-77.5,-47.5 c-29.67,-11,-61.83,-16.5,-96.5,-16.5 c-34,0,-65.67,4.83,-95,14.5 c-29.33,9.67,-54.83,23.67,-76.5,42 c-21.67,18.33,-38.67,40.5,-51,66.5 c-12.33,26,-18.5,55.67,-18.5,89 Z M306,588 c-34,0,-62,-10.17,-84,-30.5 c-22,-20.33,-33,-47.5,-33,-81.5 c0,-34,11,-61.17,33,-81.5 c22,-20.33,50,-30.5,84,-30.5 c34,0,62,10.17,84,30.5 c22,20.33,33,47.5,33,81.5 c0,34,-11,61.17,-33,81.5 c-22,20.33,-50,30.5,-84,30.5 Z M306,588" fill="rgb(0,0,0)" transform="matrix(0.6172839506172839,0.0,0.0,-0.6172839506172839,310.1851851851852,741.358024691358)"/>
</svg>