<?xml version="1.0" encoding="UTF-8"?>
<svg width="1000" height="1000" viewBox="0 0 1000 1000" version="1.1" xmlns="http://www.w3.org/2000/svg" xmlns:xlink="http://www.w3.org/1999/xlink">
 <path d="M0,0 l1000,0 l0,1000 l-1000,0 Z M0,0" fill="rgb(242,242,242)" transform="matrix(1,0,0,-1,0,1000)"/>
 <path d="M97,494 l194,0 l33,99 l113,-35 l-21,-64 l99,0 l0,-114 l-137,0 l-20,-60 l157,0 l0,-114 l-195,0 l-32,-99 l-113,35 l21,64 l-99,0 l0,114 l136,0 l20,60 l-156,0 Z M97,494" fill="rgb(0,0,0)" transform="matrix(0.6172839506172839,0.0,0.0,-0.6172839506172839,310.1851851851852,741.358024691358)"/>
</svg>