<?xml version="1.0" encoding="UTF-8"?>
<svg width="1000" height="1000" viewBox="0 0 1000 1000" version="1.1" xmlns="http://www.w3.org/2000/svg" xmlns:xlink="http://www.w3.org/1999/xlink">
 <path d="M93.5,-1 c-2.67,-0.33,-5.08,-0.58,-7.25,-0.75 c-2.17,-0.17,-4.58,-0.25,-7.25,-0.25 c-14.0,0,-23.92,2.75,-29.75,8.25 c-5.83,5.5,-8.75,13.08,-8.75,22.75 l0,191.5 c0,10.0,-0.58,18.75,-1.75,26.25 c-1.17,7.5,-3.25,14.42,-6.25,20.75 c5.67,1.67,11.0,2.5,16,2.5 c13.33,0,24.17,-4.83,32.5,-14.5 c8.33,-9.67,12.5,-26.83,12.5,-51.5 l0,-21.5 l3,0 c7.33,17.33,16.42,32.75,27.25,46.25 c10.83,13.5,22.83,24.17,36,32 c13.17,7.83,26.58,11.75,40.25,11.75 c11.33,0,21.33,-3.83,30,-11.5 c8.67,-7.67,15.5,-17.42,20.5,-29.25 c5.0,-11.83,7.5,-24.08,7.5,-36.75 l0,-123 c0,-14.33,0.67,-26.67,2,-37 c1.33,-10.33,3.67,-22.0,7,-35 c-5.67,-1.33,-12.17,-2,-19.5,-2 c-14.67,0,-26.25,4.5,-34.75,13.5 c-8.5,9.0,-12.75,26.67,-12.75,53 c0,20.67,1.0,40.58,3,59.75 c2.0,19.17,5.0,41.25,9,66.25 c-6.0,16.33,-15.33,24.5,-28,24.5 c-16.33,0,-32.42,-8.58,-48.25,-25.75 c-15.83,-17.17,-29.92,-42.92,-42.25,-77.25 Z M195,365.5 c10.0,0,18.17,1.83,24.5,5.5 c6.33,3.67,13.0,10.33,20,20 l3,0 c1.33,-3.0,2.33,-6.42,3,-10.25 c0.67,-3.83,1,-8.42,1,-13.75 c0,-5.67,-0.92,-11.5,-2.75,-17.5 c-1.83,-6.0,-5.25,-11.5,-10.25,-16.5 c-8.0,-8.0,-20.0,-12,-36,-12 c-10.0,0,-18.92,1.42,-26.75,4.25 c-7.83,2.83,-15.08,6.08,-21.75,9.75 c-6.67,3.67,-13.67,6.92,-21,9.75 c-7.33,2.83,-15.5,4.25,-24.5,4.25 c-9.33,0,-17.17,-1.92,-23.5,-5.75 c-6.33,-3.83,-12.83,-10.42,-19.5,-19.75 l-3,0 c-1.33,3.33,-2.33,6.42,-3,9.25 c-0.67,2.83,-1,6.75,-1,11.75 c0,6.67,1.0,13.17,3,19.5 c2.0,6.33,5.17,11.67,9.5,16 c4.0,4.0,8.83,7.25,14.5,9.75 c5.67,2.5,12.33,3.75,20,3.75 c10.67,0,20.0,-1.42,28,-4.25 c8.0,-2.83,15.5,-6.08,22.5,-9.75 c7.0,-3.67,14.0,-6.92,21,-9.75 c7.0,-2.83,14.67,-4.25,23,-4.25 Z M195,365.5" fill="rgb(0,0,0)" transform="matrix(2.275600505689001,0.0,0.0,-2.275600505689001,159.22882427307206,945.448798988622)"/>
</svg>