<?xml version="1.0" encoding="UTF-8"?>
<svg width="1000" height="1000" viewBox="0 0 1000 1000" version="1.1" xmlns="http://www.w3.org/2000/svg" xmlns:xlink="http://www.w3.org/1999/xlink">
 <path d="M0,0 l1000,0 l0,1000 l-1000,0 Z M0,0" fill="rgb(242,242,242)" transform="matrix(1,0,0,-1,0,1000)"/>
 <path d="M204,0 l-126,0 l0,496 l126,0 l0,-74 l18,0 c11.33,28,29.67,49.67,55,65 c25.33,15.33,55,23,89,23 c24,0,46.5,-3.83,67.5,-11.5 c21,-7.67,39.5,-19.5,55.5,-35.5 c16,-16,28.5,-36.33,37.5,-61 c9,-24.67,13.5,-54,13.5,-88 l0,-314 l-126,0 l0,282 c0,35.33,-8.5,63.17,-25.5,83.5 c-17,20.33,-41.5,30.5,-73.5,30.5 c-37.33,0,-65.17,-12.5,-83.5,-37.5 c-18.33,-25,-27.5,-58.5,-27.5,-100.5 Z M324,690 c5.33,-6,10.67,-11.5,16,-16.5 c5.33,-5,12.67,-7.5,22,-7.5 c9.33,0,16.83,2.17,22.5,6.5 c5.67,4.33,11.17,10.17,16.5,17.5 l30,38 l77,-61 l-56,-72 c-12,-15.33,-25,-26.5,-39,-33.5 c-14,-7,-29.67,-10.5,-47,-10.5 c-13.33,0,-26.17,3,-38.5,9 c-12.33,6,-24.17,15.67,-35.5,29 c-5.33,6,-10.67,11.5,-16,16.5 c-5.33,5,-12.67,7.5,-22,7.5 c-9.33,0,-16.83,-2.17,-22.5,-6.5 c-5.67,-4.33,-11.17,-10.17,-16.5,-17.5 l-30,-38 l-77,61 l56,72 c12.67,16,26,27.33,40,34 c14,6.67,29.33,10,46,10 c13.33,0,26.17,-3,38.5,-9 c12.33,-6,24.17,-15.67,35.5,-29 Z M324,690" fill="rgb(0,0,0)" transform="matrix(0.6172839506172839,0.0,0.0,-0.6172839506172839,310.1851851851852,741.358024691358)"/>
</svg>