<?xml version="1.0" encoding="UTF-8"?>
<svg width="1000" height="1000" viewBox="0 0 1000 1000" version="1.1" xmlns="http://www.w3.org/2000/svg" xmlns:xlink="http://www.w3.org/1999/xlink">
 <path d="M12,133.5 l59,0 c4.0,14.0,7.58,27.92,10.75,41.75 c3.17,13.83,5.92,27.58,8.25,41.25 l-28,0 c-10.0,0,-16.75,2.25,-20.25,6.75 c-3.5,4.5,-5.25,11.42,-5.25,20.75 c0,3.0,0.25,6.25,0.75,9.75 c0.5,3.5,1.42,6.92,2.75,10.25 l58,0 c2.33,16.67,4.25,32.92,5.75,48.75 c1.5,15.83,2.75,30.92,3.75,45.25 c3.0,0.67,6.08,1.17,9.25,1.5 c3.17,0.33,6.25,0.5,9.25,0.5 c7.33,0,13.17,-1.42,17.5,-4.25 c4.33,-2.83,6.17,-9.42,5.5,-19.75 c-0.67,-10.67,-1.5,-22.08,-2.5,-34.25 c-1.0,-12.17,-2.33,-24.75,-4,-37.75 l57.5,0 c2.33,16.67,4.25,32.75,5.75,48.25 c1.5,15.5,2.75,30.42,3.75,44.75 c2.67,1.0,5.58,1.67,8.75,2 c3.17,0.33,6.42,0.5,9.75,0.5 c7.0,0,12.75,-1.42,17.25,-4.25 c4.5,-2.83,6.42,-9.25,5.75,-19.25 c-0.67,-10.67,-1.58,-22.08,-2.75,-34.25 c-1.17,-12.17,-2.58,-24.75,-4.25,-37.75 l8.5,0 c7.0,0,12.42,-0.5,16.25,-1.5 c3.83,-1.0,6.92,-2.67,9.25,-5 c3.0,-3.33,5.33,-7.58,7,-12.75 c1.67,-5.17,2.5,-12.08,2.5,-20.75 l0,-7.5 l-51,0 c-2.33,-13.33,-5.08,-26.92,-8.25,-40.75 c-3.17,-13.83,-6.75,-27.92,-10.75,-42.25 l30,0 c10.0,0,16.75,-2.17,20.25,-6.5 c3.5,-4.33,5.25,-11.33,5.25,-21 c0,-3.0,-0.17,-6.25,-0.5,-9.75 c-0.33,-3.5,-0.83,-6.92,-1.5,-10.25 l-68,0 c-4.33,-12.33,-8.92,-24.67,-13.75,-37 c-4.83,-12.33,-10.08,-24.67,-15.75,-37 c-4.67,-9.33,-9.58,-15.33,-14.75,-18 c-5.17,-2.67,-11.58,-4,-19.25,-4 c-5.0,0,-8.75,0.42,-11.25,1.25 c-2.5,0.83,-4.92,1.92,-7.25,3.25 c7.33,15.0,14.08,30.17,20.25,45.5 c6.17,15.33,11.92,30.67,17.25,46 l-57.5,0 c-4.0,-12.33,-8.42,-24.58,-13.25,-36.75 c-4.83,-12.17,-9.92,-24.25,-15.25,-36.25 c-4.67,-9.67,-9.75,-15.83,-15.25,-18.5 c-5.5,-2.67,-11.92,-4,-19.25,-4 c-5.0,0,-8.83,0.42,-11.5,1.25 c-2.67,0.83,-5.17,1.92,-7.5,3.25 c7.33,15.0,14.08,30.08,20.25,45.25 c6.17,15.17,11.92,30.42,17.25,45.75 l-9.5,0 c-7.0,0,-12.33,0.5,-16,1.5 c-3.67,1.0,-6.67,2.67,-9,5 c-3.33,3.33,-5.83,7.67,-7.5,13 c-1.67,5.33,-2.5,12.17,-2.5,20.5 Z M115.5,133.5 l57.5,0 c4.0,14.0,7.58,27.92,10.75,41.75 c3.17,13.83,5.92,27.58,8.25,41.25 l-57.5,0 c-2.33,-13.33,-5.08,-26.92,-8.25,-40.75 c-3.17,-13.83,-6.75,-27.92,-10.75,-42.25 Z M115.5,133.5" fill="rgb(0,0,0)" transform="matrix(2.4324324324324325,0.0,0.0,-2.4324324324324325,135.74324324324328,925.6756756756756)"/>
</svg>