<?xml version="1.0" encoding="UTF-8"?>
<svg width="1000" height="1000" viewBox="0 0 1000 1000" version="1.1" xmlns="http://www.w3.org/2000/svg" xmlns:xlink="http://www.w3.org/1999/xlink">
 <path d="M94.5,272.5 c12.33,0,23.33,-4.17,33,-12.5 c9.67,-8.33,17.33,-20.17,23,-35.5 c6.67,15.33,15.33,27.17,26,35.5 c10.67,8.33,22.83,12.5,36.5,12.5 c14.33,0,27.17,-3.75,38.5,-11.25 c11.33,-7.5,20.25,-17.92,26.75,-31.25 c6.5,-13.33,9.75,-28.83,9.75,-46.5 l0,-6.5 c0,-24.0,-6.42,-42.33,-19.25,-55 c-12.83,-12.67,-30.92,-19,-54.25,-19 c-10.0,0,-18.42,0.67,-25.25,2 c-6.83,1.33,-12.42,2.83,-16.75,4.5 l0,-1.5 c0,-14.33,1.92,-27.0,5.75,-38 c3.83,-11.0,9.08,-20.0,15.75,-27 c7.67,-3.33,17.17,-5,28.5,-5 c13.67,0,25.0,1.33,34,4 c9.0,2.67,17.83,6.83,26.5,12.5 l2,0 c0.67,-3.0,1.25,-6.08,1.75,-9.25 c0.5,-3.17,0.75,-6.58,0.75,-10.25 c0,-7.67,-1.08,-13.5,-3.25,-17.5 c-2.17,-4.0,-4.25,-6.83,-6.25,-8.5 c-10.33,-9.67,-29.5,-14.5,-57.5,-14.5 c-16.67,0,-30.92,4.0,-42.75,12 c-11.83,8.0,-21.08,19.0,-27.75,33 c-6.67,-14.0,-15.17,-25.0,-25.5,-33 c-10.33,-8.0,-21.83,-12,-34.5,-12 c-24.67,0,-43.83,9.92,-57.5,29.75 c-13.67,19.83,-20.5,47.75,-20.5,83.75 l0,10.5 c0,48.0,7.5,85.67,22.5,113 c15.0,27.33,35.0,41,60,41 Z M172.5,151 l0,-8.5 c5.67,-1.33,11.25,-2.25,16.75,-2.75 c5.5,-0.5,11.75,-0.75,18.75,-0.75 c12.33,0,21.33,3.08,27,9.25 c5.67,6.17,8.5,16.42,8.5,30.75 l0,4 c0,8.0,-0.92,15.75,-2.75,23.25 c-1.83,7.5,-5.08,13.75,-9.75,18.75 c-5.0,2.33,-11.0,3.5,-18,3.5 c-13.33,0,-23.42,-6.0,-30.25,-18 c-6.83,-12.0,-10.25,-31.83,-10.25,-59.5 Z M56.5,110 c0,-31.67,5.67,-54.17,17,-67.5 c4.33,-2.67,10.17,-4,17.5,-4 c12.33,0,21.5,6.33,27.5,19 c6.0,12.67,9,30.83,9,54.5 l0,24 c0,23.67,-1.67,42.83,-5,57.5 c-3.33,14.67,-8.33,25.67,-15,33 c-1.33,0.67,-3.0,1.17,-5,1.5 c-2.0,0.33,-4.33,0.5,-7,0.5 c-11.33,0,-20.67,-8.83,-28,-26.5 c-7.33,-17.67,-11,-46.0,-11,-85 Z M56.5,110" fill="rgb(0,0,0)" transform="matrix(3.237410071942446,0.0,0.0,-3.237410071942446,14.388489208633132,932.1942446043165)"/>
</svg>