<?xml version="1.0" encoding="UTF-8"?>
<svg width="1000" height="1000" viewBox="0 0 1000 1000" version="1.1" xmlns="http://www.w3.org/2000/svg" xmlns:xlink="http://www.w3.org/1999/xlink">
 <path d="M0,0 l1000,0 l0,1000 l-1000,0 Z M0,0" fill="rgb(242,242,242)" transform="matrix(1,0,0,-1,0,1000)"/>
 <path d="M44,254 c0,39.33,7.33,74.83,22,106.5 c14.67,31.67,34.17,58.5,58.5,80.5 c24.33,22,52.5,39,84.5,51 c32,12,65.67,18,101,18 l6,0 c39.33,0,74.67,-6,106,-18 c31.33,-12,57.83,-28.67,79.5,-50 c21.67,-21.33,38.17,-46.5,49.5,-75.5 c11.33,-29,17,-60.5,17,-94.5 l0,-84 l-192,0 l0,-78 c16,0,30.5,3.5,43.5,10.5 c13,7,22.5,17.5,28.5,31.5 l102,-64 c-20,-36,-49.5,-62,-88.5,-78 c-39,-16,-86.83,-24,-143.5,-24 l-6,0 c-34,0,-67.17,5.67,-99.5,17 c-32.33,11.33,-61,27.83,-86,49.5 c-25,21.67,-45,48.33,-60,80 c-15,31.67,-22.5,68.17,-22.5,109.5 Z M170,248 c0,-33.33,7,-61.17,21,-83.5 c14,-22.33,33.67,-38.5,59,-48.5 l0,266 c-25.33,-10,-45,-26.5,-59,-49.5 c-14,-23,-21,-51.17,-21,-84.5 Z M442,308 c0,22,-6,39.67,-18,53 c-12,13.33,-28,21.67,-48,25 l0,-78 Z M442,308" fill="rgb(0,0,0)" transform="matrix(0.6172839506172839,0.0,0.0,-0.6172839506172839,310.1851851851852,741.358024691358)"/>
</svg>