<?xml version="1.0" encoding="UTF-8"?>
<svg width="1000" height="1000" viewBox="0 0 1000 1000" version="1.1" xmlns="http://www.w3.org/2000/svg" xmlns:xlink="http://www.w3.org/1999/xlink">
 <path d="M0,0 l1000,0 l0,1000 l-1000,0 Z M0,0" fill="rgb(242,242,242)" transform="matrix(1,0,0,-1,0,1000)"/>
 <path d="M338,30 l-20,-86 c-0.67,-3.33,-1,-6,-1,-8 c0,-14.67,7.67,-22,23,-22 l46,0 l0,-84 l-80,0 c-20,0,-38.33,6.33,-55,19 c-16.67,12.67,-25,31.33,-25,56 c0,6,1,13.67,3,23 l23,102 Z M338,30" fill="rgb(0,0,0)" transform="matrix(0.6172839506172839,0.0,0.0,-0.6172839506172839,310.1851851851852,741.358024691358)"/>
</svg>