<?xml version="1.0" encoding="UTF-8"?>
<svg width="1000" height="1000" viewBox="0 0 1000 1000" version="1.1" xmlns="http://www.w3.org/2000/svg" xmlns:xlink="http://www.w3.org/1999/xlink">
 <path d="M0,0 l1000,0 l0,1000 l-1000,0 Z M0,0" fill="rgb(242,242,242)" transform="matrix(1,0,0,-1,0,1000)"/>
 <path d="M36,126 l104,0 l0,18 c-13.33,6.67,-25.67,15.17,-37,25.5 c-11.33,10.33,-21,22.83,-29,37.5 c-8,14.67,-14.33,31.83,-19,51.5 c-4.67,19.67,-7,42.17,-7,67.5 l0,108 c0,43.33,6,82.33,18,117 c12,34.67,29,64,51,88 c22,24,49,42.5,81,55.5 c32,13,68,19.5,108,19.5 c40,0,76,-6.5,108,-19.5 c32,-13,59,-31.5,81,-55.5 c22,-24,39,-53.33,51,-88 c12,-34.67,18,-73.67,18,-117 l0,-108 c0,-51.33,-8.67,-91,-26,-119 c-17.33,-28,-39.33,-49,-66,-63 l0,-18 l104,0 l0,-126 l-234,0 l0,138 c20,6.67,36,15.17,48,25.5 c12,10.33,21,23.67,27,40 c6,16.33,10,36,12,59 c2,23,3,50.17,3,81.5 l0,82 c0,55.33,-11.17,96.17,-33.5,122.5 c-22.33,26.33,-53.17,39.5,-92.5,39.5 c-39.33,0,-70.17,-13.17,-92.5,-39.5 c-22.33,-26.33,-33.5,-67.17,-33.5,-122.5 l0,-82 c0,-31.33,1,-58.5,3,-81.5 c2,-23,6,-42.67,12,-59 c6,-16.33,15,-29.67,27,-40 c12,-10.33,28,-18.83,48,-25.5 l0,-138 l-234,0 Z M36,126" fill="rgb(0,0,0)" transform="matrix(0.6172839506172839,0.0,0.0,-0.6172839506172839,310.1851851851852,741.358024691358)"/>
</svg>