<?xml version="1.0" encoding="UTF-8"?>
<svg width="1000" height="1000" viewBox="0 0 1000 1000" version="1.1" xmlns="http://www.w3.org/2000/svg" xmlns:xlink="http://www.w3.org/1999/xlink">
 <path d="M0,0 l1000,0 l0,1000 l-1000,0 Z M0,0" fill="rgb(242,242,242)" transform="matrix(1,0,0,-1,0,1000)"/>
 <path d="M135,484 l0,132 l-6,0 l-72,-60 l-6,0 l0,90 l72,54 l90,0 l0,-216 l72,0 l0,-72 l-228,0 l0,72 Z M568,73 l0,-72 l-213,0 l0,66 c0,14.67,2.5,27.5,7.5,38.5 c5,11,11.67,20.33,20,28 c8.33,7.67,17.67,13.83,28,18.5 c10.33,4.67,21.17,8.33,32.5,11 c22,5.33,35.83,10.5,41.5,15.5 c5.67,5,8.5,11.17,8.5,18.5 c0,7.33,-2.5,13.5,-7.5,18.5 c-5,5,-12.17,7.5,-21.5,7.5 c-20.67,0,-31,-12,-31,-36 l-78,0 l0,6 c0,31.33,10,56.17,30,74.5 c20,18.33,47.67,27.5,83,27.5 c31.33,0,56.33,-9,75,-27 c18.67,-18,28,-39,28,-63 c0,-27.33,-6.67,-48.17,-20,-62.5 c-13.33,-14.33,-30.67,-24.17,-52,-29.5 c-26,-7.33,-43.5,-13.33,-52.5,-18 c-9,-4.67,-13.5,-12,-13.5,-22 Z M530,510 l41,-78 l-472,-242 l-41,78 Z M530,510" fill="rgb(0,0,0)" transform="matrix(0.6172839506172839,0.0,0.0,-0.6172839506172839,310.1851851851852,741.358024691358)"/>
</svg>