<?xml version="1.0" encoding="UTF-8"?>
<svg width="1000" height="1000" viewBox="0 0 1000 1000" version="1.1" xmlns="http://www.w3.org/2000/svg" xmlns:xlink="http://www.w3.org/1999/xlink">
 <path d="M0,0 l1000,0 l0,1000 l-1000,0 Z M0,0" fill="rgb(242,242,242)" transform="matrix(1,0,0,-1,0,1000)"/>
 <path d="M532,510 l41,-78 l-472,-242 l-41,78 Z M137,484 l0,132 l-6,0 l-72,-60 l-6,0 l0,90 l72,54 l90,0 l0,-216 l72,0 l0,-72 l-228,0 l0,72 Z M405,289 l138,0 l0,-170 l42,0 l0,-70 l-42,0 l0,-48 l-78,0 l0,48 l-130,0 l0,97 Z M405,128 l0,-9 l60,0 l0,118 l-9,0 Z M405,128" fill="rgb(0,0,0)" transform="matrix(0.6172839506172839,0.0,0.0,-0.6172839506172839,310.1851851851852,741.358024691358)"/>
</svg>