<?xml version="1.0" encoding="UTF-8"?>
<svg width="1000" height="1000" viewBox="0 0 1000 1000" version="1.1" xmlns="http://www.w3.org/2000/svg" xmlns:xlink="http://www.w3.org/1999/xlink">
 <path d="M0,0 l1000,0 l0,1000 l-1000,0 Z M0,0" fill="rgb(242,242,242)" transform="matrix(1,0,0,-1,0,1000)"/>
 <path d="M347,446 c-6.67,-12,-16.33,-21.67,-29,-29 c-12.67,-7.33,-28.67,-11,-48,-11 c-18,0,-35,3.33,-51,10 c-16,6.67,-30,16.33,-42,29 c-12,12.67,-21.5,28.33,-28.5,47 c-7,18.67,-10.5,40,-10.5,64 c0,24,3.5,45.17,10.5,63.5 c7,18.33,16.5,34,28.5,47 c12,13,26.17,22.83,42.5,29.5 c16.33,6.67,33.83,10,52.5,10 c20,0,35.67,-3.17,47,-9.5 c11.33,-6.33,20.67,-14.5,28,-24.5 l9,0 l0,28 l80,0 l0,-193 c0,-11.33,5.33,-17,16,-17 l20,0 l0,-78 l-76,0 c-12,0,-21.33,3.17,-28,9.5 c-6.67,6.33,-10.67,14.5,-12,24.5 Z M287,484 c20,0,35.83,6.5,47.5,19.5 c11.67,13,17.5,30.5,17.5,52.5 c0,22,-5.83,39.5,-17.5,52.5 c-11.67,13,-27.5,19.5,-47.5,19.5 c-20,0,-35.83,-6.5,-47.5,-19.5 c-11.67,-13,-17.5,-30.5,-17.5,-52.5 c0,-22,5.83,-39.5,17.5,-52.5 c11.67,-13,27.5,-19.5,47.5,-19.5 Z M287,484" fill="rgb(0,0,0)" transform="matrix(0.6172839506172839,0.0,0.0,-0.6172839506172839,310.1851851851852,741.358024691358)"/>
</svg>