<?xml version="1.0" encoding="UTF-8"?>
<svg width="1000" height="1000" viewBox="0 0 1000 1000" version="1.1" xmlns="http://www.w3.org/2000/svg" xmlns:xlink="http://www.w3.org/1999/xlink">
 <path d="M151,381 c18.0,0,34.42,-4.75,49.25,-14.25 c14.83,-9.5,26.67,-23.58,35.5,-42.25 c8.83,-18.67,13.25,-41.5,13.25,-68.5 l0,-5.5 c0,-33.33,-9.25,-59.67,-27.75,-79 c-18.5,-19.33,-42.75,-29,-72.75,-29 c-18.33,0,-34.92,4.0,-49.75,12 c-14.83,8.0,-26.5,20.0,-35,36 c-8.5,16.0,-12.75,35.83,-12.75,59.5 l0,6 c0,25.33,4.33,47.33,13,66 c8.67,18.67,20.5,33.17,35.5,43.5 c15.0,10.33,32.17,15.5,51.5,15.5 Z M150,340 c-17.67,0,-30.92,-7.83,-39.75,-23.5 c-8.83,-15.67,-13.25,-37.5,-13.25,-65.5 l0,-3.5 c0,-11.0,1.17,-21.17,3.5,-30.5 c2.33,-9.33,6.5,-17.67,12.5,-25 c5.0,-2.33,10.25,-4.25,15.75,-5.75 c5.5,-1.5,11.42,-2.25,17.75,-2.25 c19.0,0,33.0,5.92,42,17.75 c9.0,11.83,13.5,28.92,13.5,51.25 l0,4 c0,18.33,-2.25,34.42,-6.75,48.25 c-4.5,13.83,-11.58,24.42,-21.25,31.75 c-7.0,2.0,-15.0,3,-24,3 Z M150,340" fill="rgb(0,0,0)" transform="matrix(3.7735849056603774,0.0,0.0,-3.7735849056603774,-66.03773584905667,1487.735849056604)"/>
</svg>