<?xml version="1.0" encoding="UTF-8"?>
<svg width="1000" height="1000" viewBox="0 0 1000 1000" version="1.1" xmlns="http://www.w3.org/2000/svg" xmlns:xlink="http://www.w3.org/1999/xlink">
 <path d="M0,0 l1000,0 l0,1000 l-1000,0 Z M0,0" fill="rgb(242,242,242)" transform="matrix(1,0,0,-1,0,1000)"/>
 <path d="M157,556 c0,24.67,4,46.33,12,65 c8,18.67,18.83,34.33,32.5,47 c13.67,12.67,29.5,22.17,47.5,28.5 c18,6.33,37,9.5,57,9.5 c20,0,39,-3.17,57,-9.5 c18,-6.33,33.83,-15.83,47.5,-28.5 c13.67,-12.67,24.5,-28.33,32.5,-47 c8,-18.67,12,-40.33,12,-65 c0,-24.67,-4,-46.33,-12,-65 c-8,-18.67,-18.83,-34.33,-32.5,-47 c-13.67,-12.67,-29.5,-22.17,-47.5,-28.5 c-18,-6.33,-37,-9.5,-57,-9.5 c-20,0,-39,3.17,-57,9.5 c-18,6.33,-33.83,15.83,-47.5,28.5 c-13.67,12.67,-24.5,28.33,-32.5,47 c-8,18.67,-12,40.33,-12,65 Z M306,484 c20.67,0,36.67,6.5,48,19.5 c11.33,13,17,30.5,17,52.5 c0,22,-5.67,39.5,-17,52.5 c-11.33,13,-27.33,19.5,-48,19.5 c-20.67,0,-36.67,-6.5,-48,-19.5 c-11.33,-13,-17,-30.5,-17,-52.5 c0,-22,5.67,-39.5,17,-52.5 c11.33,-13,27.33,-19.5,48,-19.5 Z M306,484" fill="rgb(0,0,0)" transform="matrix(0.6172839506172839,0.0,0.0,-0.6172839506172839,310.1851851851852,741.358024691358)"/>
</svg>