<?xml version="1.0" encoding="UTF-8"?>
<svg width="1000" height="1000" viewBox="0 0 1000 1000" version="1.1" xmlns="http://www.w3.org/2000/svg" xmlns:xlink="http://www.w3.org/1999/xlink">
 <path d="M0,0 l1000,0 l0,1000 l-1000,0 Z M0,0" fill="rgb(242,242,242)" transform="matrix(1,0,0,-1,0,1000)"/>
 <path d="M564,242 c0,-41.33,-7,-77.83,-21,-109.5 c-14,-31.67,-33,-58.33,-57,-80 c-24,-21.67,-51.5,-38.17,-82.5,-49.5 c-31,-11.33,-63.5,-17,-97.5,-17 c-4,0,-8.17,0.17,-12.5,0.5 c-4.33,0.33,-8.5,0.5,-12.5,0.5 l-19,-60 l-110,34 l19,59 c-36,20,-65.5,48.67,-88.5,86 c-23,37.33,-34.5,82.67,-34.5,136 l0,12 c0,40.67,7,76.83,21,108.5 c14,31.67,33,58.5,57,80.5 c24,22,51.5,38.67,82.5,50 c31,11.33,63.5,17,97.5,17 c4.67,0,9.17,0,13.5,0 c4.33,0,8.5,-0.33,12.5,-1 l19,56 l109,-34 l-19,-56 c36,-20.67,65.5,-49.67,88.5,-87 c23,-37.33,34.5,-82,34.5,-134 Z M174,238 c0,-20.67,3.5,-39,10.5,-55 c7,-16,16.17,-29.67,27.5,-41 l81,247 c-34,-2.67,-62.33,-15.5,-85,-38.5 c-22.67,-23,-34,-53.83,-34,-92.5 Z M438,258 c0,38.67,-12,70,-36,94 l-81,-245 c33.33,3.33,61.17,16.33,83.5,39 c22.33,22.67,33.5,53.33,33.5,92 Z M438,258" fill="rgb(0,0,0)" transform="matrix(0.6172839506172839,0.0,0.0,-0.6172839506172839,310.1851851851852,741.358024691358)"/>
</svg>