<?xml version="1.0" encoding="UTF-8"?>
<svg width="1000" height="1000" viewBox="0 0 1000 1000" version="1.1" xmlns="http://www.w3.org/2000/svg" xmlns:xlink="http://www.w3.org/1999/xlink">
 <path d="M151,272.5 c8.67,0,17.33,-1.0,26,-3 c0.33,2.67,0.83,5.67,1.5,9 c1.33,7.67,4.42,13.0,9.25,16 c4.83,3.0,11.42,4.5,19.75,4.5 c5.0,0,9.08,-0.42,12.25,-1.25 c3.17,-0.83,6.75,-2.08,10.75,-3.75 c-1.67,-8.0,-3.33,-15.75,-5,-23.25 c-1.67,-7.5,-3.33,-14.92,-5,-22.25 c15.0,-12.33,27.17,-29.0,36.5,-50 c9.33,-21.0,14,-46.17,14,-75.5 l0,-5.5 c0,-25.0,-5.08,-46.75,-15.25,-65.25 c-10.17,-18.5,-24.42,-32.75,-42.75,-42.75 c-18.33,-10.0,-39.83,-15,-64.5,-15 c-16.0,0,-30.83,2.33,-44.5,7 c-4.0,-5.67,-9.17,-11.5,-15.5,-17.5 c-7.33,-6.67,-15.33,-10,-24,-10 c-11.33,0,-20.67,3.5,-28,10.5 c8.67,6.33,15.83,12.33,21.5,18 c5.67,5.67,10.17,10.83,13.5,15.5 c-13.0,10.33,-23.33,23.75,-31,40.25 c-7.67,16.5,-11.5,36.25,-11.5,59.25 l0,5.5 c0,30.33,5.25,56.67,15.75,79 c10.5,22.33,24.92,39.67,43.25,52 c18.33,12.33,39.33,18.5,63,18.5 Z M157,222 c-25.67,0,-44.83,-9.17,-57.5,-27.5 c-12.67,-18.33,-19,-43.33,-19,-75 l0,-3 c0,-9.67,0.92,-19.17,2.75,-28.5 c1.83,-9.33,4.75,-17.83,8.75,-25.5 l10,0 c1.67,7.33,4.08,14.5,7.25,21.5 c3.17,7.0,7.25,14.33,12.25,22 c20.0,31.67,37.17,70.17,51.5,115.5 c-2.33,0.33,-4.83,0.5,-7.5,0.5 c-2.67,0,-5.5,0,-8.5,0 Z M185,156 c-15.33,-43.0,-33.83,-80.0,-55.5,-111 c3.67,-0.33,7.67,-0.5,12,-0.5 c26.67,0,46.33,6.58,59,19.75 c12.67,13.17,19,31.92,19,56.25 l0,3.5 c0,15.33,-1.33,29.5,-4,42.5 c-2.67,13.0,-6.67,24.67,-12,35 l-7,0 c-1.33,-15.33,-5.17,-30.5,-11.5,-45.5 Z M185,156" fill="rgb(0,0,0)" transform="matrix(2.769230769230769,0.0,0.0,-2.769230769230769,84.61538461538458,878.0)"/>
</svg>