<?xml version="1.0" encoding="UTF-8"?>
<svg width="1000" height="1000" viewBox="0 0 1000 1000" version="1.1" xmlns="http://www.w3.org/2000/svg" xmlns:xlink="http://www.w3.org/1999/xlink">
 <path d="M0,0 l1000,0 l0,1000 l-1000,0 Z M0,0" fill="rgb(242,242,242)" transform="matrix(1,0,0,-1,0,1000)"/>
 <path d="M178,-200 l-126,0 l0,696 l126,0 l0,-72 l18,0 c13.33,27.33,32.67,48.5,58,63.5 c25.33,15,57.67,22.5,97,22.5 c29.33,0,57.17,-5.67,83.5,-17 c26.33,-11.33,49.33,-27.83,69,-49.5 c19.67,-21.67,35.33,-48.17,47,-79.5 c11.67,-31.33,17.5,-67,17.5,-107 l0,-18 c0,-40.67,-5.67,-76.67,-17,-108 c-11.33,-31.33,-26.67,-57.83,-46,-79.5 c-19.33,-21.67,-42.17,-38,-68.5,-49 c-26.33,-11,-54.83,-16.5,-85.5,-16.5 c-22.67,0,-42.33,2.33,-59,7 c-16.67,4.67,-31.17,11,-43.5,19 c-12.33,8,-22.67,17.17,-31,27.5 c-8.33,10.33,-15.5,21.17,-21.5,32.5 l-18,0 Z M310,106 c39.33,0,71.17,12.17,95.5,36.5 c24.33,24.33,36.5,57.5,36.5,99.5 l0,12 c0,42,-12.17,75.17,-36.5,99.5 c-24.33,24.33,-56.17,36.5,-95.5,36.5 c-39.33,0,-71.17,-12.5,-95.5,-37.5 c-24.33,-25,-36.5,-57.83,-36.5,-98.5 l0,-12 c0,-40.67,12.17,-73.5,36.5,-98.5 c24.33,-25,56.17,-37.5,95.5,-37.5 Z M310,106" fill="rgb(0,0,0)" transform="matrix(0.6172839506172839,0.0,0.0,-0.6172839506172839,310.1851851851852,741.358024691358)"/>
</svg>