<?xml version="1.0" encoding="UTF-8"?>
<svg width="1000" height="1000" viewBox="0 0 1000 1000" version="1.1" xmlns="http://www.w3.org/2000/svg" xmlns:xlink="http://www.w3.org/1999/xlink">
 <path d="M182,305.5 c-6.0,0,-11.67,-0.33,-17,-1 l0,-4.5 c3.67,-5.33,6.25,-10.92,7.75,-16.75 c1.5,-5.83,2.25,-13.92,2.25,-24.25 l0,-335.5 c-4.33,-2.33,-9.33,-3.5,-15,-3.5 c-10.67,0,-18.42,3.17,-23.25,9.5 c-4.83,6.33,-7.25,15.67,-7.25,28 l0,143 c-3.0,-0.67,-6.5,-1,-10.5,-1 l-3,0 c-29.33,0,-52.17,9.0,-68.5,27 c-16.33,18.0,-24.5,42.17,-24.5,72.5 l0,6 c0,31.0,6.83,57.67,20.5,80 c13.67,22.33,32.58,39.58,56.75,51.75 c24.17,12.17,51.92,18.25,83.25,18.25 l2,0 c24.33,0,43.67,-2.17,58,-6.5 c14.33,-4.33,24.83,-9.83,31.5,-16.5 c3.67,-3.33,6.08,-7.08,7.25,-11.25 c1.17,-4.17,1.75,-9.25,1.75,-15.25 c0,-3.67,-0.17,-7.25,-0.5,-10.75 c-0.33,-3.5,-1.0,-7.08,-2,-10.75 l-3,0 c-9.33,5.33,-18.67,9.5,-28,12.5 l0,-3.5 c3.67,-4.67,6.0,-9.67,7,-15 c1.0,-5.33,1.5,-12.83,1.5,-22.5 l0,-277.5 c0,-9.67,0.42,-19.08,1.25,-28.25 c0.83,-9.17,2.25,-18.25,4.25,-27.25 c-3.33,-0.67,-6.5,-1.25,-9.5,-1.75 c-3.0,-0.5,-6.33,-0.75,-10,-0.75 c-20.67,0,-31,12.83,-31,38.5 l0,345.5 c-9.0,1.0,-19.67,1.5,-32,1.5 Z M96.5,199 c0,-12.0,2.67,-23.0,8,-33 c5.33,-10.0,13.67,-17.0,25,-21 l0,146 c-11.67,-8.67,-20.08,-20.33,-25.25,-35 c-5.17,-14.67,-7.75,-31.33,-7.75,-50 Z M96.5,199" fill="rgb(0,0,0)" transform="matrix(2.0689655172413794,0.0,0.0,-2.0689655172413794,182.41379310344826,784.4827586206898)"/>
</svg>