<?xml version="1.0" encoding="UTF-8"?>
<svg width="1000" height="1000" viewBox="0 0 1000 1000" version="1.1" xmlns="http://www.w3.org/2000/svg" xmlns:xlink="http://www.w3.org/1999/xlink">
 <path d="M0,0 l1000,0 l0,1000 l-1000,0 Z M0,0" fill="rgb(242,242,242)" transform="matrix(1,0,0,-1,0,1000)"/>
 <path d="M261,424 l-12,0 c-20,0,-38.83,3.83,-56.5,11.5 c-17.67,7.67,-33,18,-46,31 c-13,13,-23.17,28.33,-30.5,46 c-7.33,17.67,-11,36.5,-11,56.5 c0,20,3.67,38.83,11,56.5 c7.33,17.67,17.5,33,30.5,46 c13,13,28.33,23.33,46,31 c17.67,7.67,36.5,11.5,56.5,11.5 l258,0 l0,-496 l-108,0 l0,394 l-30,0 l0,-394 l-108,0 Z M261,526 l0,86 l-12,0 c-11.33,0,-21.17,-3.5,-29.5,-10.5 c-8.33,-7,-12.5,-17.83,-12.5,-32.5 c0,-14.67,4.17,-25.5,12.5,-32.5 c8.33,-7,18.17,-10.5,29.5,-10.5 Z M261,526" fill="rgb(0,0,0)" transform="matrix(0.6172839506172839,0.0,0.0,-0.6172839506172839,310.1851851851852,741.358024691358)"/>
</svg>