<?xml version="1.0" encoding="UTF-8"?>
<svg width="1000" height="1000" viewBox="0 0 1000 1000" version="1.1" xmlns="http://www.w3.org/2000/svg" xmlns:xlink="http://www.w3.org/1999/xlink">
 <path d="M0,0 l1000,0 l0,1000 l-1000,0 Z M0,0" fill="rgb(242,242,242)" transform="matrix(1,0,0,-1,0,1000)"/>
 <path d="M534,700 l0,-700 l-108,0 l0,598 l-42,0 l0,-598 l-108,0 l0,284 l-6,0 c-33.33,0,-63,5.33,-89,16 c-26,10.67,-48.17,25.17,-66.5,43.5 c-18.33,18.33,-32.33,39.83,-42,64.5 c-9.67,24.67,-14.5,50.67,-14.5,78 l0,12 c0,27.33,5,53.33,15,78 c10,24.67,24.33,46.17,43,64.5 c18.67,18.33,41.5,32.83,68.5,43.5 c27,10.67,57.5,16,91.5,16 Z M166,489 c0,-17.33,2.83,-32.5,8.5,-45.5 c5.67,-13,13.17,-23.67,22.5,-32 c9.33,-8.33,19.83,-14.67,31.5,-19 c11.67,-4.33,23.5,-6.5,35.5,-6.5 l12,0 l0,212 l-12,0 c-12,0,-23.83,-2.17,-35.5,-6.5 c-11.67,-4.33,-22.17,-10.67,-31.5,-19 c-9.33,-8.33,-16.83,-19,-22.5,-32 c-5.67,-13,-8.5,-28.17,-8.5,-45.5 Z M166,489" fill="rgb(0,0,0)" transform="matrix(0.6172839506172839,0.0,0.0,-0.6172839506172839,310.1851851851852,741.358024691358)"/>
</svg>