<?xml version="1.0" encoding="UTF-8"?>
<svg width="1000" height="1000" viewBox="0 0 1000 1000" version="1.1" xmlns="http://www.w3.org/2000/svg" xmlns:xlink="http://www.w3.org/1999/xlink">
 <path d="M179.5,368.5 c10.67,11.0,22.0,16.5,34,16.5 c8.33,0,15.25,-1.25,20.75,-3.75 c5.5,-2.5,10.42,-5.58,14.75,-9.25 l0,-2.5 c-29.67,-28.33,-52.33,-61.25,-68,-98.75 c-15.67,-37.5,-23.5,-77.42,-23.5,-119.75 l0,-3.5 c0,-42.33,7.83,-82.25,23.5,-119.75 c15.67,-37.5,38.33,-70.42,68,-98.75 l0,-2.5 c-4.33,-3.33,-9.25,-6.33,-14.75,-9 c-5.5,-2.67,-12.42,-4,-20.75,-4 c-11.67,0,-23.0,5.67,-34,17 c-26.0,25.67,-46.17,57.42,-60.5,95.25 c-14.33,37.83,-21.5,78.42,-21.5,121.75 l0,3.5 c0,43.67,7.08,84.25,21.25,121.75 c14.17,37.5,34.42,69.42,60.75,95.75 Z M179.5,368.5" fill="rgb(0,0,0)" transform="matrix(1.9088016967126193,0.0,0.0,-1.9088016967126193,169.3001060445387,784.8886532343585)"/>
</svg>