<?xml version="1.0" encoding="UTF-8"?>
<svg width="1000" height="1000" viewBox="0 0 1000 1000" version="1.1" xmlns="http://www.w3.org/2000/svg" xmlns:xlink="http://www.w3.org/1999/xlink">
 <path d="M0,0 l1000,0 l0,1000 l-1000,0 Z M0,0" fill="rgb(242,242,242)" transform="matrix(1,0,0,-1,0,1000)"/>
 <path d="M78,-30 c34.67,0,66.67,4.67,96,14 c29.33,9.33,54.83,24.33,76.5,45 c21.67,20.67,38.67,47.17,51,79.5 c12.33,32.33,18.5,71.5,18.5,117.5 l0,248 c0,46,-6.17,85.17,-18.5,117.5 c-12.33,32.33,-29.33,58.83,-51,79.5 c-21.67,20.67,-47.17,35.67,-76.5,45 c-29.33,9.33,-61.33,14,-96,14 l-36,0 l0,126 l42,0 c49.33,0,96.17,-7.17,140.5,-21.5 c44.33,-14.33,83.17,-36.67,116.5,-67 c33.33,-30.33,59.83,-69.17,79.5,-116.5 c19.67,-47.33,29.5,-103.67,29.5,-169 l0,-264 c0,-65.33,-9.83,-121.67,-29.5,-169 c-19.67,-47.33,-46.17,-86.17,-79.5,-116.5 c-33.33,-30.33,-72.17,-52.67,-116.5,-67 c-44.33,-14.33,-91.17,-21.5,-140.5,-21.5 l-42,0 l0,126 Z M78,-30" fill="rgb(0,0,0)" transform="matrix(0.6172839506172839,0.0,0.0,-0.6172839506172839,310.1851851851852,741.358024691358)"/>
</svg>