<?xml version="1.0" encoding="UTF-8"?>
<svg width="1000" height="1000" viewBox="0 0 1000 1000" version="1.1" xmlns="http://www.w3.org/2000/svg" xmlns:xlink="http://www.w3.org/1999/xlink">
 <path d="M134,251.5 c14.0,0,26.5,-2.5,37.5,-7.5 c11.0,-5.0,20.5,-11.83,28.5,-20.5 l4.5,0.5 c-8.67,26.67,-21.33,51.67,-38,75 c-16.67,23.33,-37.17,46.67,-61.5,70 l0,3 c4.33,3.67,9.0,6.75,14,9.25 c5.0,2.5,11.33,3.75,19,3.75 c6.0,0,11.58,-1.33,16.75,-4 c5.17,-2.67,10.58,-6.83,16.25,-12.5 c29.67,-29.33,53.5,-63.25,71.5,-101.75 c18.0,-38.5,27,-80.75,27,-126.75 l0,-7 c0,-44.33,-11.08,-78.5,-33.25,-102.5 c-22.17,-24.0,-51.75,-36,-88.75,-36 c-22.0,0,-41.83,4.83,-59.5,14.5 c-17.67,9.67,-31.67,23.83,-42,42.5 c-10.33,18.67,-15.5,41.33,-15.5,68 l0,5.5 c0,25.67,4.5,48.0,13.5,67 c9.0,19.0,21.33,33.67,37,44 c15.67,10.33,33.33,15.5,53,15.5 Z M107.5,50.5 c9.0,-4.0,19.83,-6,32.5,-6 c27.33,0,47.17,7.75,59.5,23.25 c12.33,15.5,18.5,35.58,18.5,60.25 l0,6 c0,14.33,-0.83,28.0,-2.5,41 c-11.0,9.33,-22.08,16.17,-33.25,20.5 c-11.17,4.33,-23.75,6.5,-37.75,6.5 c-20.33,0,-35.83,-7.67,-46.5,-23 c-10.67,-15.33,-16,-34.17,-16,-56.5 l0,-3.5 c0,-12.67,1.67,-25.25,5,-37.75 c3.33,-12.5,10.17,-22.75,20.5,-30.75 Z M107.5,50.5" fill="rgb(0,0,0)" transform="matrix(2.3047375160051216,0.0,0.0,-2.3047375160051216,154.2893725992318,937.3239436619718)"/>
</svg>