<?xml version="1.0" encoding="UTF-8"?>
<svg width="1000" height="1000" viewBox="0 0 1000 1000" version="1.1" xmlns="http://www.w3.org/2000/svg" xmlns:xlink="http://www.w3.org/1999/xlink">
 <path d="M0,0 l1000,0 l0,1000 l-1000,0 Z M0,0" fill="rgb(242,242,242)" transform="matrix(1,0,0,-1,0,1000)"/>
 <path d="M338,562 c0,-24,-4.33,-45.17,-13,-63.5 c-8.67,-18.33,-20.17,-34,-34.5,-47 c-14.33,-13,-30.67,-22.83,-49,-29.5 c-18.33,-6.67,-37.17,-10,-56.5,-10 c-19.33,0,-38.17,3.33,-56.5,10 c-18.33,6.67,-34.67,16.5,-49,29.5 c-14.33,13,-25.83,28.67,-34.5,47 c-8.67,18.33,-13,39.5,-13,63.5 c0,24,4.33,45.17,13,63.5 c8.67,18.33,20.17,34,34.5,47 c14.33,13,30.67,22.83,49,29.5 c18.33,6.67,37.17,10,56.5,10 c19.33,0,38.17,-3.33,56.5,-10 c18.33,-6.67,34.67,-16.5,49,-29.5 c14.33,-13,25.83,-28.67,34.5,-47 c8.67,-18.33,13,-39.5,13,-63.5 Z M185,496 c16.67,0,31.33,5.67,44,17 c12.67,11.33,19,27.67,19,49 c0,21.33,-6.33,37.67,-19,49 c-12.67,11.33,-27.33,17,-44,17 c-16.67,0,-31.33,-5.67,-44,-17 c-12.67,-11.33,-19,-27.67,-19,-49 c0,-21.33,6.33,-37.67,19,-49 c12.67,-11.33,27.33,-17,44,-17 Z M580,138 c0,-24,-4.33,-45.17,-13,-63.5 c-8.67,-18.33,-20.17,-34,-34.5,-47 c-14.33,-13,-30.67,-22.83,-49,-29.5 c-18.33,-6.67,-37.17,-10,-56.5,-10 c-19.33,0,-38.17,3.33,-56.5,10 c-18.33,6.67,-34.67,16.5,-49,29.5 c-14.33,13,-25.83,28.67,-34.5,47 c-8.67,18.33,-13,39.5,-13,63.5 c0,24,4.33,45.17,13,63.5 c8.67,18.33,20.17,34,34.5,47 c14.33,13,30.67,22.83,49,29.5 c18.33,6.67,37.17,10,56.5,10 c19.33,0,38.17,-3.33,56.5,-10 c18.33,-6.67,34.67,-16.5,49,-29.5 c14.33,-13,25.83,-28.67,34.5,-47 c8.67,-18.33,13,-39.5,13,-63.5 Z M427,72 c16.67,0,31.33,5.67,44,17 c12.67,11.33,19,27.67,19,49 c0,21.33,-6.33,37.67,-19,49 c-12.67,11.33,-27.33,17,-44,17 c-16.67,0,-31.33,-5.67,-44,-17 c-12.67,-11.33,-19,-27.67,-19,-49 c0,-21.33,6.33,-37.67,19,-49 c12.67,-11.33,27.33,-17,44,-17 Z M521,510 l41,-78 l-472,-242 l-41,78 Z M521,510" fill="rgb(0,0,0)" transform="matrix(0.6172839506172839,0.0,0.0,-0.6172839506172839,310.1851851851852,741.358024691358)"/>
</svg>