<?xml version="1.0" encoding="UTF-8"?>
<svg width="1000" height="1000" viewBox="0 0 1000 1000" version="1.1" xmlns="http://www.w3.org/2000/svg" xmlns:xlink="http://www.w3.org/1999/xlink">
 <path d="M0,0 l1000,0 l0,1000 l-1000,0 Z M0,0" fill="rgb(242,242,242)" transform="matrix(1,0,0,-1,0,1000)"/>
 <path d="M324,562 c0,-24,-4.33,-45.17,-13,-63.5 c-8.67,-18.33,-20.17,-34,-34.5,-47 c-14.33,-13,-30.67,-22.83,-49,-29.5 c-18.33,-6.67,-37.17,-10,-56.5,-10 c-19.33,0,-38.17,3.33,-56.5,10 c-18.33,6.67,-34.67,16.5,-49,29.5 c-14.33,13,-25.83,28.67,-34.5,47 c-8.67,18.33,-13,39.5,-13,63.5 c0,24,4.33,45.17,13,63.5 c8.67,18.33,20.17,34,34.5,47 c14.33,13,30.67,22.83,49,29.5 c18.33,6.67,37.17,10,56.5,10 c19.33,0,38.17,-3.33,56.5,-10 c18.33,-6.67,34.67,-16.5,49,-29.5 c14.33,-13,25.83,-28.67,34.5,-47 c8.67,-18.33,13,-39.5,13,-63.5 Z M171,496 c16.67,0,31.33,5.67,44,17 c12.67,11.33,19,27.67,19,49 c0,21.33,-6.33,37.67,-19,49 c-12.67,11.33,-27.33,17,-44,17 c-16.67,0,-31.33,-5.67,-44,-17 c-12.67,-11.33,-19,-27.67,-19,-49 c0,-21.33,6.33,-37.67,19,-49 c12.67,-11.33,27.33,-17,44,-17 Z M243,180 c0,32,9.5,58,28.5,78 c19,20,45.5,30,79.5,30 c13.33,0,25.17,-2.17,35.5,-6.5 c10.33,-4.33,19.17,-10.17,26.5,-17.5 l12,0 c7.33,7.33,16.17,13.17,26.5,17.5 c10.33,4.33,22.17,6.5,35.5,6.5 c34,0,60.33,-10,79,-30 c18.67,-20,28,-46,28,-78 l0,-84 c0,-32,-9.33,-58,-28,-78 c-18.67,-20,-45,-30,-79,-30 c-13.33,0,-25.17,2.17,-35.5,6.5 c-10.33,4.33,-19.17,10.17,-26.5,17.5 l-12,0 c-7.33,-7.33,-16.17,-13.17,-26.5,-17.5 c-10.33,-4.33,-22.17,-6.5,-35.5,-6.5 c-34,0,-60.5,10,-79.5,30 c-19,20,-28.5,46,-28.5,78 Z M353,69 c6,0,11.17,2.17,15.5,6.5 c4.33,4.33,6.5,11.17,6.5,20.5 l0,84 c0,9.33,-2.17,16.17,-6.5,20.5 c-4.33,4.33,-9.5,6.5,-15.5,6.5 c-6,0,-11.33,-2.17,-16,-6.5 c-4.67,-4.33,-7,-11.17,-7,-20.5 l0,-84 c0,-9.33,2.33,-16.17,7,-20.5 c4.67,-4.33,10,-6.5,16,-6.5 Z M485,69 c6,0,11.17,2.17,15.5,6.5 c4.33,4.33,6.5,11.17,6.5,20.5 l0,84 c0,9.33,-2.17,16.17,-6.5,20.5 c-4.33,4.33,-9.5,6.5,-15.5,6.5 c-6,0,-11.33,-2.17,-16,-6.5 c-4.67,-4.33,-7,-11.17,-7,-20.5 l0,-84 c0,-9.33,2.33,-16.17,7,-20.5 c4.67,-4.33,10,-6.5,16,-6.5 Z M490,510 l41,-78 l-472,-242 l-41,78 Z M490,510" fill="rgb(0,0,0)" transform="matrix(0.6172839506172839,0.0,0.0,-0.6172839506172839,310.1851851851852,741.358024691358)"/>
</svg>