<?xml version="1.0" encoding="UTF-8"?>
<svg width="1000" height="1000" viewBox="0 0 1000 1000" version="1.1" xmlns="http://www.w3.org/2000/svg" xmlns:xlink="http://www.w3.org/1999/xlink">
 <path d="M5,282 c0,21.67,6.33,39.25,19,52.75 c12.67,13.5,29.17,20.25,49.5,20.25 c19.33,0,35.17,-6.42,47.5,-19.25 c12.33,-12.83,18.5,-29.58,18.5,-50.25 l0,-2.5 c0,-21.67,-6.25,-38.92,-18.75,-51.75 c-12.5,-12.83,-29.42,-19.25,-50.75,-19.25 c-20.0,0,-35.83,6.08,-47.5,18.25 c-11.67,12.17,-17.5,28.58,-17.5,49.25 Z M24,131 c-3.0,-0.67,-5.5,-0.08,-7.5,1.75 c-2.0,1.83,-3,4.92,-3,9.25 c0,5.67,1.67,11.17,5,16.5 c32.0,11.0,64.33,25.17,97,42.5 c32.67,17.33,63.33,36.83,92,58.5 c28.67,21.67,53.17,44.33,73.5,68 c2.67,-4.33,4.58,-10.58,5.75,-18.75 c1.17,-8.17,1.75,-15.75,1.75,-22.75 c0,-10.0,-1.33,-17.67,-4,-23 c-2.67,-5.33,-6.33,-9.83,-11,-13.5 c-31.0,-25.67,-67.67,-48.33,-110,-68 c-42.33,-19.67,-88.83,-36.5,-139.5,-50.5 Z M38.5,279 c0,-12.0,4.0,-21.67,12,-29 c3.67,-1.0,7.5,-1.5,11.5,-1.5 c12.67,0,22.17,3.5,28.5,10.5 c6.33,7.0,9.5,16.83,9.5,29.5 l0,2 c0,16.33,-4.5,27.67,-13.5,34 c-1.67,0.67,-3.5,1,-5.5,1 c-2.0,0,-4.17,0,-6.5,0 c-10.67,0,-19.33,-4.08,-26,-12.25 c-6.67,-8.17,-10,-18.92,-10,-32.25 Z M57.5,65 c0,21.67,6.25,39.25,18.75,52.75 c12.5,13.5,28.92,20.25,49.25,20.25 c10.67,0,20.33,-2.67,29,-8 c8.67,-5.33,15.5,-12.83,20.5,-22.5 c5.33,9.67,12.58,17.17,21.75,22.5 c9.17,5.33,19.58,8,31.25,8 c19.33,0,35.17,-6.42,47.5,-19.25 c12.33,-12.83,18.5,-29.58,18.5,-50.25 l0,-2 c0,-22.0,-6.25,-39.42,-18.75,-52.25 c-12.5,-12.83,-29.42,-19.25,-50.75,-19.25 c-23.67,0,-40.67,9.33,-51,28 c-11.0,-18.67,-28.0,-28,-51,-28 c-20.33,0,-36.25,6.08,-47.75,18.25 c-11.5,12.17,-17.25,28.58,-17.25,49.25 Z M90.5,62 c0,-12.0,4.0,-21.67,12,-29 c3.67,-1.0,7.67,-1.5,12,-1.5 c12.67,0,22.08,3.5,28.25,10.5 c6.17,7.0,9.25,16.83,9.25,29.5 l0,2 c0,16.67,-4.33,28.17,-13,34.5 c-2.0,0.33,-4.0,0.5,-6,0.5 c-2.0,0,-4.17,0,-6.5,0 c-10.67,0,-19.33,-4.08,-26,-12.25 c-6.67,-8.17,-10,-18.92,-10,-32.25 Z M193,62 c0,-12.0,3.83,-21.5,11.5,-28.5 c3.0,-1.33,7.0,-2,12,-2 c12.67,0,22.08,3.5,28.25,10.5 c6.17,7.0,9.25,16.83,9.25,29.5 l0,2 c0,16.67,-4.33,28.17,-13,34.5 c-1.67,0.33,-3.58,0.5,-5.75,0.5 c-2.17,0,-4.25,0,-6.25,0 c-10.67,0,-19.33,-4.08,-26,-12.25 c-6.67,-8.17,-10,-18.92,-10,-32.25 Z M193,62" fill="rgb(0,0,0)" transform="matrix(2.5,0.0,0.0,-2.5,126.25,937.5)"/>
</svg>