<?xml version="1.0" encoding="UTF-8"?>
<svg width="1000" height="1000" viewBox="0 0 1000 1000" version="1.1" xmlns="http://www.w3.org/2000/svg" xmlns:xlink="http://www.w3.org/1999/xlink">
 <path d="M0,0 l1000,0 l0,1000 l-1000,0 Z M0,0" fill="rgb(242,242,242)" transform="matrix(1,0,0,-1,0,1000)"/>
 <path d="M128,0 l0,376 l-78,0 l0,120 l514,0 l0,-120 l-78,0 l0,-226 c0,-20,9,-30,27,-30 l51,0 l0,-120 l-108,0 c-28,0,-51,9,-69,27 c-18,18,-27,41,-27,69 l0,280 l-106,0 l0,-376 Z M128,0" fill="rgb(0,0,0)" transform="matrix(0.6172839506172839,0.0,0.0,-0.6172839506172839,310.1851851851852,741.358024691358)"/>
</svg>