<?xml version="1.0" encoding="UTF-8"?>
<svg width="1000" height="1000" viewBox="0 0 1000 1000" version="1.1" xmlns="http://www.w3.org/2000/svg" xmlns:xlink="http://www.w3.org/1999/xlink">
 <path d="M27.5,227 l96,0 l0,13.5 c0,19.33,-1.67,36.67,-5,52 c7.67,2.0,14.67,3,21,3 c25.0,0,37.5,-13.83,37.5,-41.5 l0,-27 l62.5,0 c13.67,0,23.17,-2.42,28.5,-7.25 c5.33,-4.83,8,-13.58,8,-26.25 c0,-2.33,-0.08,-4.83,-0.25,-7.5 c-0.17,-2.67,-0.42,-5.33,-0.75,-8 l-98,0 l0,-66 c-3.33,-0.67,-6.33,-1.25,-9,-1.75 c-2.67,-0.5,-5.67,-0.75,-9,-0.75 c-12.0,0,-20.92,2.5,-26.75,7.5 c-5.83,5.0,-8.75,13.5,-8.75,25.5 l0,35.5 l-60,0 c-14.0,0,-23.92,2.33,-29.75,7 c-5.83,4.67,-8.75,12.67,-8.75,24 c0,6.33,0.83,12.33,2.5,18 Z M27.5,80.5 l210,0 c14.0,0,23.92,-2.25,29.75,-6.75 c5.83,-4.5,8.75,-12.58,8.75,-24.25 c0,-2.67,-0.08,-5.75,-0.25,-9.25 c-0.17,-3.5,-0.58,-6.75,-1.25,-9.75 l-211,0 c-14.0,0,-23.92,2.33,-29.75,7 c-5.83,4.67,-8.75,12.67,-8.75,24 c0,7.67,0.83,14.0,2.5,19 Z M27.5,80.5" fill="rgb(0,0,0)" transform="matrix(3.3962264150943398,0.0,0.0,-3.3962264150943398,-11.132075471698101,1053.5849056603774)"/>
</svg>