<?xml version="1.0" encoding="UTF-8"?>
<svg width="1000" height="1000" viewBox="0 0 1000 1000" version="1.1" xmlns="http://www.w3.org/2000/svg" xmlns:xlink="http://www.w3.org/1999/xlink">
 <path d="M209.5,268 c5.67,1.0,11.0,1.5,16,1.5 c9.0,0,16.58,-4.0,22.75,-12 c6.17,-8.0,9.25,-22.5,9.25,-43.5 l0,-263 c0,-10.0,0.17,-18.67,0.5,-26 c0.33,-7.33,1.0,-15.17,2,-23.5 c-3.0,-0.67,-5.67,-1.08,-8,-1.25 c-2.33,-0.17,-4.83,-0.25,-7.5,-0.25 c-14.33,0,-24.58,5.83,-30.75,17.5 c-6.17,11.67,-9.25,26.0,-9.25,43 l0,114.5 l-3,0 c-6.33,-15.0,-14.5,-28.58,-24.5,-40.75 c-10.0,-12.17,-21.08,-21.83,-33.25,-29 c-12.17,-7.17,-24.75,-10.75,-37.75,-10.75 c-14.33,0,-27.5,4.5,-39.5,13.5 c-12.0,9.0,-21.5,21.33,-28.5,37 c-7.0,15.67,-10.5,33.33,-10.5,53 l0,9.5 c0,38.67,4.92,70.17,14.75,94.5 c9.83,24.33,22.83,42.17,39,53.5 c16.17,11.33,33.92,17,53.25,17 c14.67,0,27.92,-3.67,39.75,-11 c11.83,-7.33,20.92,-16.0,27.25,-26 l3.5,0 c0.33,6.33,0.83,12.0,1.5,17 c0.67,5.0,1.67,10.17,3,15.5 Z M86,63 c6.33,-8.33,14.5,-12.5,24.5,-12.5 c18.33,0,35.33,6.42,51,19.25 c15.67,12.83,30.0,34.92,43,66.25 l0,61.5 c-8.33,8.33,-16.83,14.33,-25.5,18 c-8.67,3.67,-18.83,5.5,-30.5,5.5 c-22.33,0,-39.0,-9.08,-50,-27.25 c-11.0,-18.17,-16.5,-44.75,-16.5,-79.75 l0,-5 c0,-9.33,0.33,-17.58,1,-24.75 c0.67,-7.17,1.67,-14.25,3,-21.25 Z M86,63" fill="rgb(0,0,0)" transform="matrix(2.4161073825503356,0.0,0.0,-2.4161073825503356,152.6845637583893,708.3892617449665)"/>
</svg>