<?xml version="1.0" encoding="UTF-8"?>
<svg width="1000" height="1000" viewBox="0 0 1000 1000" version="1.1" xmlns="http://www.w3.org/2000/svg" xmlns:xlink="http://www.w3.org/1999/xlink">
 <path d="M0,0 l1000,0 l0,1000 l-1000,0 Z M0,0" fill="rgb(242,242,242)" transform="matrix(1,0,0,-1,0,1000)"/>
 <path d="M328,390 c28.67,0,51.17,9,67.5,27 c16.33,18,24.5,41.67,24.5,71 c0,28,-9.67,51.67,-29,71 c-19.33,19.33,-45.67,29,-79,29 c-18,0,-34,-3.17,-48,-9.5 c-14,-6.33,-26,-15,-36,-26 c-10,-11,-17.5,-23.67,-22.5,-38 c-5,-14.33,-7.5,-29.17,-7.5,-44.5 l0,-42 l-132,0 l0,54 c0,30,5.5,59,16.5,87 c11,28,27,52.67,48,74 c21,21.33,47,38.5,78,51.5 c31,13,66.17,19.5,105.5,19.5 c35.33,0,67.67,-5.83,97,-17.5 c29.33,-11.67,54.5,-27.83,75.5,-48.5 c21,-20.67,37.17,-44.83,48.5,-72.5 c11.33,-27.67,17,-57.5,17,-89.5 l0,-6 c0,-27.33,-4.17,-53.33,-12.5,-78 c-8.33,-24.67,-20.17,-46.33,-35.5,-65 c-15.33,-18.67,-34.33,-33.67,-57,-45 c-22.67,-11.33,-48,-17,-76,-17 c-9.33,0,-16.33,-2.67,-21,-8 c-4.67,-5.33,-7,-12.67,-7,-22 l0,-33 l-126,0 l0,86 c0,26,8.83,47.83,26.5,65.5 c17.67,17.67,39.5,26.5,65.5,26.5 Z M376,81 c0,-13.33,-2.5,-25.83,-7.5,-37.5 c-5,-11.67,-11.83,-21.67,-20.5,-30 c-8.67,-8.33,-18.83,-15,-30.5,-20 c-11.67,-5,-23.83,-7.5,-36.5,-7.5 c-13.33,0,-25.67,2.5,-37,7.5 c-11.33,5,-21.33,11.67,-30,20 c-8.67,8.33,-15.5,18.33,-20.5,30 c-5,11.67,-7.5,24.17,-7.5,37.5 c0,13.33,2.5,25.83,7.5,37.5 c5,11.67,11.83,21.67,20.5,30 c8.67,8.33,18.67,15,30,20 c11.33,5,23.67,7.5,37,7.5 c12.67,0,24.83,-2.5,36.5,-7.5 c11.67,-5,21.83,-11.67,30.5,-20 c8.67,-8.33,15.5,-18.33,20.5,-30 c5,-11.67,7.5,-24.17,7.5,-37.5 Z M376,81" fill="rgb(0,0,0)" transform="matrix(0.6172839506172839,0.0,0.0,-0.6172839506172839,310.1851851851852,741.358024691358)"/>
</svg>