<?xml version="1.0" encoding="UTF-8"?>
<svg width="1000" height="1000" viewBox="0 0 1000 1000" version="1.1" xmlns="http://www.w3.org/2000/svg" xmlns:xlink="http://www.w3.org/1999/xlink">
 <path d="M121,268 c5.0,1.67,10.42,2.92,16.25,3.75 c5.83,0.83,11.42,1.25,16.75,1.25 c14.0,0,26.25,-2.25,36.75,-6.75 c10.5,-4.5,15.75,-13.08,15.75,-25.75 l0,-47 c-9.33,-3.0,-20.33,-4.5,-33,-4.5 c-14.0,0,-26.25,2.25,-36.75,6.75 c-10.5,4.5,-15.75,12.92,-15.75,25.25 Z M152,-91.5 c-25.33,0,-46.08,4.33,-62.25,13 c-16.17,8.67,-28.0,19.75,-35.5,33.25 c-7.5,13.5,-11.25,27.75,-11.25,42.75 l0,2.5 c0,16.67,4.17,32.33,12.5,47 c8.33,14.67,22.17,28.33,41.5,41 l13,9 c12.67,8.67,21.08,16.42,25.25,23.25 c4.17,6.83,6.25,14.42,6.25,22.75 l0,3 l3.5,0 c15.0,0,26.08,-2.75,33.25,-8.25 c7.17,-5.5,10.75,-11.42,10.75,-17.75 l0,-2 c0,-8.67,-3.42,-17.58,-10.25,-26.75 c-6.83,-9.17,-18.42,-19.42,-34.75,-30.75 l-11.5,-8 c-14.67,-10.33,-24.33,-20.08,-29,-29.25 c-4.67,-9.17,-7,-18.75,-7,-28.75 c0,-4.33,0.5,-8.33,1.5,-12 c1.0,-3.67,2.17,-7.17,3.5,-10.5 c12.0,-7.0,28.17,-10.5,48.5,-10.5 c23.33,0,43.0,4.58,59,13.75 c16.0,9.17,29.67,21.58,41,37.25 l3,0 c2.67,-3.67,4.75,-7.5,6.25,-11.5 c1.5,-4.0,2.25,-8.83,2.25,-14.5 c0,-9.67,-1.83,-18.75,-5.5,-27.25 c-3.67,-8.5,-8.67,-16.08,-15,-22.75 c-8.67,-8.33,-20.75,-15.08,-36.25,-20.25 c-15.5,-5.17,-33.08,-7.75,-52.75,-7.75 Z M152,-91.5" fill="rgb(0,0,0)" transform="matrix(2.4691358024691357,0.0,0.0,-2.4691358024691357,124.07407407407408,724.0740740740741)"/>
</svg>