<?xml version="1.0" encoding="UTF-8"?>
<svg width="1000" height="1000" viewBox="0 0 1000 1000" version="1.1" xmlns="http://www.w3.org/2000/svg" xmlns:xlink="http://www.w3.org/1999/xlink">
 <path d="M0,0 l1000,0 l0,1000 l-1000,0 Z M0,0" fill="rgb(242,242,242)" transform="matrix(1,0,0,-1,0,1000)"/>
 <path d="M287.02,110.02 c-28.66,0,-51.16,-9.0,-67.5,-27.0 c-16.33,-18.0,-24.5,-41.66,-24.5,-71.0 c0,-28.0,9.67,-51.66,29.0,-71.0 c19.33,-19.33,45.66,-29.0,79.0,-29.0 c18.0,0,34.0,3.17,48.0,9.5 c14.0,6.33,26.0,15.0,36.0,26.0 c10.0,11.0,17.5,23.67,22.5,38.0 c5.0,14.33,7.5,29.16,7.5,44.5 l0,42.0 l131.99,0 l0,-54.0 c0,-30.0,-5.5,-59.0,-16.5,-86.99 c-11.0,-28.0,-27.0,-52.66,-48.0,-74.0 c-21.0,-21.33,-47.0,-38.5,-78.0,-51.5 c-31.0,-13.0,-66.16,-19.5,-105.49,-19.5 c-35.33,0,-67.66,5.83,-96.99,17.5 c-29.33,11.67,-54.5,27.83,-75.5,48.5 c-21.0,20.67,-37.16,44.83,-48.5,72.5 c-11.33,27.66,-17.0,57.5,-17.0,89.49 l0,6.0 c0,27.33,4.17,53.33,12.5,78.0 c8.33,24.67,20.17,46.33,35.5,65.0 c15.33,18.67,34.33,33.66,57.0,45.0 c22.67,11.33,48.0,17.0,76.0,17.0 c9.33,0,16.33,2.67,21.0,8.0 c4.67,5.33,7.0,12.67,7.0,22.0 l0,33.0 l125.99,0 l0,-85.99 c0,-26.0,-8.83,-47.83,-26.5,-65.5 c-17.67,-17.67,-39.5,-26.5,-65.5,-26.5 Z M239.02,419.0 c0,13.33,2.5,25.83,7.5,37.5 c5.0,11.67,11.83,21.67,20.5,30.0 c8.67,8.33,18.83,15.0,30.5,20.0 c11.67,5.0,23.83,7.5,36.5,7.5 c13.33,0,25.67,-2.5,37.0,-7.5 c11.33,-5.0,21.33,-11.67,30.0,-20.0 c8.67,-8.33,15.5,-18.33,20.5,-30.0 c5.0,-11.67,7.5,-24.17,7.5,-37.5 c0,-13.33,-2.5,-25.83,-7.5,-37.5 c-5.0,-11.67,-11.83,-21.67,-20.5,-30.0 c-8.67,-8.33,-18.67,-15.0,-30.0,-20.0 c-11.33,-5.0,-23.67,-7.5,-37.0,-7.5 c-12.67,0,-24.83,2.5,-36.5,7.5 c-11.67,5.0,-21.83,11.67,-30.5,20.0 c-8.67,8.33,-15.5,18.33,-20.5,30.0 c-5.0,11.67,-7.5,24.17,-7.5,37.5 Z M239.02,419.0" fill="rgb(0,0,0)" transform="matrix(0.6172839506172839,0.0,0.0,-0.6172839506172839,310.1851851851852,741.358024691358)"/>
</svg>