<?xml version="1.0" encoding="UTF-8"?>
<svg width="1000" height="1000" viewBox="0 0 1000 1000" version="1.1" xmlns="http://www.w3.org/2000/svg" xmlns:xlink="http://www.w3.org/1999/xlink">
 <path d="M136,-62.5 c-12.67,0,-24.17,3.17,-34.5,9.5 c7.67,14.67,13.75,29.17,18.25,43.5 c4.5,14.33,7.75,29.83,9.75,46.5 c2.0,16.67,3,35.83,3,57.5 c5.33,1.33,10.0,2.25,14,2.75 c4.0,0.5,8.5,0.75,13.5,0.75 c11.67,0,20.75,-2.25,27.25,-6.75 c6.5,-4.5,9.75,-13.08,9.75,-25.75 c0,-15.0,-1.75,-30.25,-5.25,-45.75 c-3.5,-15.5,-8.08,-29.58,-13.75,-42.25 c-5.67,-12.67,-12.17,-22.83,-19.5,-30.5 c-3.33,-3.33,-6.58,-5.75,-9.75,-7.25 c-3.17,-1.5,-7.42,-2.25,-12.75,-2.25 Z M136,-62.5" fill="rgb(0,0,0)" transform="matrix(5.607476635514018,0.0,0.0,-5.607476635514018,-336.91588785046724,599.5327102803739)"/>
</svg>