<?xml version="1.0" encoding="UTF-8"?>
<svg width="1000" height="1000" viewBox="0 0 1000 1000" version="1.1" xmlns="http://www.w3.org/2000/svg" xmlns:xlink="http://www.w3.org/1999/xlink">
 <path d="M0,0 l1000,0 l0,1000 l-1000,0 Z M0,0" fill="rgb(242,242,242)" transform="matrix(1,0,0,-1,0,1000)"/>
 <path d="M98,620 c0,12.67,2.5,24.83,7.5,36.5 c5,11.67,11.83,21.67,20.5,30 c8.67,8.33,18.67,15,30,20 c11.33,5,23.67,7.5,37,7.5 c12.67,0,24.83,-2.5,36.5,-7.5 c11.67,-5,21.83,-11.67,30.5,-20 c8.67,-8.33,15.5,-18.33,20.5,-30 c5,-11.67,7.5,-23.83,7.5,-36.5 l0,-122 c0,-25.33,-8.5,-46.67,-25.5,-64 c-17,-17.33,-38.17,-26,-63.5,-26 l-64,0 l0,78 l48,0 c18,0,27,10,27,30 l0,12 c-5.33,-2,-11,-3,-17,-3 c-13.33,0,-25.67,2.5,-37,7.5 c-11.33,5,-21.33,11.83,-30,20.5 c-8.67,8.67,-15.5,18.67,-20.5,30 c-5,11.33,-7.5,23.67,-7.5,37 Z M324,620 c0,12.67,2.5,24.83,7.5,36.5 c5,11.67,11.83,21.67,20.5,30 c8.67,8.33,18.67,15,30,20 c11.33,5,23.67,7.5,37,7.5 c12.67,0,24.83,-2.5,36.5,-7.5 c11.67,-5,21.83,-11.67,30.5,-20 c8.67,-8.33,15.5,-18.33,20.5,-30 c5,-11.67,7.5,-23.83,7.5,-36.5 l0,-122 c0,-25.33,-8.5,-46.67,-25.5,-64 c-17,-17.33,-38.17,-26,-63.5,-26 l-64,0 l0,78 l48,0 c18,0,27,10,27,30 l0,12 c-5.33,-2,-11,-3,-17,-3 c-13.33,0,-25.67,2.5,-37,7.5 c-11.33,5,-21.33,11.83,-30,20.5 c-8.67,8.67,-15.5,18.67,-20.5,30 c-5,11.33,-7.5,23.67,-7.5,37 Z M324,620" fill="rgb(0,0,0)" transform="matrix(0.6172839506172839,0.0,0.0,-0.6172839506172839,310.1851851851852,741.358024691358)"/>
</svg>