<?xml version="1.0" encoding="UTF-8"?>
<svg width="1000" height="1000" viewBox="0 0 1000 1000" version="1.1" xmlns="http://www.w3.org/2000/svg" xmlns:xlink="http://www.w3.org/1999/xlink">
 <path d="M0,0 l1000,0 l0,1000 l-1000,0 Z M0,0" fill="rgb(242,242,242)" transform="matrix(1,0,0,-1,0,1000)"/>
 <path d="M514,502 c0,-13.33,-2.5,-25.67,-7.5,-37 c-5,-11.33,-11.83,-21.17,-20.5,-29.5 c-8.67,-8.33,-18.83,-15,-30.5,-20 c-11.67,-5,-23.83,-7.5,-36.5,-7.5 c-13.33,0,-25.67,2.5,-37,7.5 c-11.33,5,-21.33,11.67,-30,20 c-8.67,8.33,-15.5,18.17,-20.5,29.5 c-5,11.33,-7.5,23.67,-7.5,37 l0,122 c0,25.33,8.5,46.67,25.5,64 c17,17.33,38.17,26,63.5,26 l64,0 l0,-78 l-48,0 c-18,0,-27,-10,-27,-30 l0,-12 c2.67,1.33,5.67,2.17,9,2.5 c3.33,0.33,6.67,0.5,10,0.5 c28,0,50.5,-8.83,67.5,-26.5 c17,-17.67,25.5,-40.5,25.5,-68.5 Z M288,502 c0,-13.33,-2.5,-25.67,-7.5,-37 c-5,-11.33,-11.83,-21.17,-20.5,-29.5 c-8.67,-8.33,-18.83,-15,-30.5,-20 c-11.67,-5,-23.83,-7.5,-36.5,-7.5 c-13.33,0,-25.67,2.5,-37,7.5 c-11.33,5,-21.33,11.67,-30,20 c-8.67,8.33,-15.5,18.17,-20.5,29.5 c-5,11.33,-7.5,23.67,-7.5,37 l0,122 c0,25.33,8.5,46.67,25.5,64 c17,17.33,38.17,26,63.5,26 l64,0 l0,-78 l-48,0 c-18,0,-27,-10,-27,-30 l0,-12 c2.67,1.33,5.67,2.17,9,2.5 c3.33,0.33,6.67,0.5,10,0.5 c28,0,50.5,-8.83,67.5,-26.5 c17,-17.67,25.5,-40.5,25.5,-68.5 Z M288,502" fill="rgb(0,0,0)" transform="matrix(0.6172839506172839,0.0,0.0,-0.6172839506172839,310.1851851851852,741.358024691358)"/>
</svg>