<?xml version="1.0" encoding="UTF-8"?>
<svg width="1000" height="1000" viewBox="0 0 1000 1000" version="1.1" xmlns="http://www.w3.org/2000/svg" xmlns:xlink="http://www.w3.org/1999/xlink">
 <path d="M156,-53.5 c12.33,23.0,21.25,46.5,26.75,70.5 c5.5,24.0,8.25,49.67,8.25,77 c6.67,2.67,15.0,4,25,4 c10.67,0,19.33,-2.0,26,-6 c6.67,-4.0,10,-12.0,10,-24 c0,-16.0,-1.92,-32.0,-5.75,-48 c-3.83,-16.0,-8.92,-30.58,-15.25,-43.75 c-6.33,-13.17,-13.17,-23.75,-20.5,-31.75 c-2.33,-2.33,-5.08,-4.17,-8.25,-5.5 c-3.17,-1.33,-7.25,-2,-12.25,-2 c-6.0,0,-11.92,0.75,-17.75,2.25 c-5.83,1.5,-11.25,3.92,-16.25,7.25 Z M42,-53.5 c12.33,23.0,21.25,46.5,26.75,70.5 c5.5,24.0,8.25,49.67,8.25,77 c6.67,2.67,15.0,4,25,4 c10.67,0,19.33,-2.0,26,-6 c6.67,-4.0,10,-12.0,10,-24 c0,-16.0,-1.92,-32.0,-5.75,-48 c-3.83,-16.0,-8.92,-30.58,-15.25,-43.75 c-6.33,-13.17,-13.17,-23.75,-20.5,-31.75 c-2.33,-2.33,-5.08,-4.17,-8.25,-5.5 c-3.17,-1.33,-7.25,-2,-12.25,-2 c-6.0,0,-11.92,0.75,-17.75,2.25 c-5.83,1.5,-11.25,3.92,-16.25,7.25 Z M42,-53.5" fill="rgb(0,0,0)" transform="matrix(4.285714285714286,0.0,0.0,-4.285714285714286,-130.0,575.0)"/>
</svg>