<?xml version="1.0" encoding="UTF-8"?>
<svg width="1000" height="1000" viewBox="0 0 1000 1000" version="1.1" xmlns="http://www.w3.org/2000/svg" xmlns:xlink="http://www.w3.org/1999/xlink">
 <path d="M0,0 l1000,0 l0,1000 l-1000,0 Z M0,0" fill="rgb(242,242,242)" transform="matrix(1,0,0,-1,0,1000)"/>
 <path d="M267,533 c-16.67,7.33,-30.17,18.83,-40.5,34.5 c-10.33,15.67,-15.5,33.17,-15.5,52.5 c0,12.67,2.5,24.83,7.5,36.5 c5,11.67,11.83,21.67,20.5,30 c8.67,8.33,18.67,15,30,20 c11.33,5,23.67,7.5,37,7.5 c12.67,0,24.83,-2.5,36.5,-7.5 c11.67,-5,21.67,-11.67,30,-20 c8.33,-8.33,15,-18.33,20,-30 c5,-11.67,7.5,-23.83,7.5,-36.5 c0,-19.33,-5.17,-36.83,-15.5,-52.5 c-10.33,-15.67,-23.5,-27.17,-39.5,-34.5 l0,-125 l-78,0 Z M267,533" fill="rgb(0,0,0)" transform="matrix(0.6172839506172839,0.0,0.0,-0.6172839506172839,310.1851851851852,741.358024691358)"/>
</svg>