<?xml version="1.0" encoding="UTF-8"?>
<svg width="1000" height="1000" viewBox="0 0 1000 1000" version="1.1" xmlns="http://www.w3.org/2000/svg" xmlns:xlink="http://www.w3.org/1999/xlink">
 <path d="M115.5,221 c-5.0,-1.0,-11.17,-1.5,-18.5,-1.5 c-11.33,0,-19.5,1.92,-24.5,5.75 c-5.0,3.83,-7.83,10.08,-8.5,18.75 l-5,82 c-0.67,13.67,-1.5,23.75,-2.5,30.25 c-1.0,6.5,-2.67,12.75,-5,18.75 c5.33,1.33,12.0,2,20,2 c18.33,0,31.5,-3.83,39.5,-11.5 c8.0,-7.67,11.5,-19.33,10.5,-35 Z M231,221 c-5.0,-1.0,-10.83,-1.5,-17.5,-1.5 c-11.33,0,-19.5,1.92,-24.5,5.75 c-5.0,3.83,-7.83,10.08,-8.5,18.75 l-8,131.5 c6.0,1.0,12.17,1.5,18.5,1.5 c16.67,0,29.0,-3.92,37,-11.75 c8.0,-7.83,11.33,-20.25,10,-37.25 Z M231,221" fill="rgb(0,0,0)" transform="matrix(4.818355532235973,0.0,0.0,-4.818355532235973,-198.1453099101526,1937.074537489379)"/>
</svg>