<?xml version="1.0" encoding="UTF-8"?>
<svg width="1000" height="1000" viewBox="0 0 1000 1000" version="1.1" xmlns="http://www.w3.org/2000/svg" xmlns:xlink="http://www.w3.org/1999/xlink">
 <path d="M0,0 l1000,0 l0,1000 l-1000,0 Z M0,0" fill="rgb(242,242,242)" transform="matrix(1,0,0,-1,0,1000)"/>
 <path d="M34,496 l222,0 l0,-72 l18,0 c9.33,27.33,25.17,48.5,47.5,63.5 c22.33,15,49.17,22.5,80.5,22.5 c49.33,0,89,-15.5,119,-46.5 c30,-31,45,-78.17,45,-141.5 l0,-22 l-130,-12 l0,14 c0,27.33,-7,49.17,-21,65.5 c-14,16.33,-35,24.5,-63,24.5 c-28,0,-50,-9.67,-66,-29 c-16,-19.33,-24,-47,-24,-83 l0,-280 l-126,0 l0,376 l-102,0 Z M403,706 l134,0 l-84,-136 l-102,0 Z M403,706" fill="rgb(0,0,0)" transform="matrix(0.6172839506172839,0.0,0.0,-0.6172839506172839,310.1851851851852,741.358024691358)"/>
</svg>