<?xml version="1.0" encoding="UTF-8"?>
<svg width="1000" height="1000" viewBox="0 0 1000 1000" version="1.1" xmlns="http://www.w3.org/2000/svg" xmlns:xlink="http://www.w3.org/1999/xlink">
 <path d="M11.5,220.5 c7.67,1.67,14.92,2.83,21.75,3.5 c6.83,0.67,15.42,1,25.75,1 c10.67,0,18.92,-1.75,24.75,-5.25 c5.83,-3.5,8.92,-7.75,9.25,-12.75 c2.33,-25.67,5.33,-47.5,9,-65.5 c3.67,-18.0,8.92,-34.17,15.75,-48.5 c6.83,-14.33,16.08,-28.83,27.75,-43.5 l3.5,0 c16.0,20.33,29.75,44.33,41.25,72 c11.5,27.67,20.92,60.5,28.25,98.5 c7.33,38.0,12.67,82.83,16,134.5 c1.67,0.33,3.42,0.5,5.25,0.5 c1.83,0,3.75,0,5.75,0 c11.67,0,21.83,-2.83,30.5,-8.5 c8.67,-5.67,12.33,-14.33,11,-26 c-8.0,-86.0,-22.17,-155.83,-42.5,-209.5 c-20.33,-53.67,-43.83,-91.67,-70.5,-114 c-5.0,-1.33,-11.33,-2,-19,-2 c-7.33,0,-14.17,1.25,-20.5,3.75 c-6.33,2.5,-13.33,7.42,-21,14.75 c-12.67,12.67,-23.42,25.83,-32.25,39.5 c-8.83,13.67,-15.92,29.83,-21.25,48.5 c-5.33,18.67,-9.5,41.67,-12.5,69 l-2,1.5 c-5.33,-1.33,-9.42,-2.42,-12.25,-3.25 c-2.83,-0.83,-5.25,-1.25,-7.25,-1.25 c-11.33,0,-17,9.5,-17,28.5 c0,4.33,0.25,8.33,0.75,12 c0.5,3.67,1.08,7.83,1.75,12.5 Z M11.5,220.5" fill="rgb(0,0,0)" transform="matrix(2.5,0.0,0.0,-2.5,129.66666165922896,937.5)"/>
</svg>