<?xml version="1.0" encoding="UTF-8"?>
<svg width="1000" height="1000" viewBox="0 0 1000 1000" version="1.1" xmlns="http://www.w3.org/2000/svg" xmlns:xlink="http://www.w3.org/1999/xlink">
 <path d="M0,0 l1000,0 l0,1000 l-1000,0 Z M0,0" fill="rgb(242,242,242)" transform="matrix(1,0,0,-1,0,1000)"/>
 <path d="M28,556 c0,38,7.33,74,22,108 c14.67,34,34.5,63.5,59.5,88.5 c25,25,54.5,44.83,88.5,59.5 c34,14.67,70,22,108,22 c38,0,74,-7.33,108,-22 c34,-14.67,63.5,-34.5,88.5,-59.5 c25,-25,44.83,-54.5,59.5,-88.5 c14.67,-34,22,-70,22,-108 c0,-38,-7.33,-74,-22,-108 c-14.67,-34,-34.5,-63.5,-59.5,-88.5 c-25,-25,-54.5,-44.83,-88.5,-59.5 c-34,-14.67,-70,-22,-108,-22 c-38,0,-74,7.33,-108,22 c-34,14.67,-63.5,34.5,-88.5,59.5 c-25,25,-44.83,54.5,-59.5,88.5 c-14.67,34,-22,70,-22,108 Z M106,556 c0,-28,5.17,-54.17,15.5,-78.5 c10.33,-24.33,24.5,-45.5,42.5,-63.5 c18,-18,39.17,-32.17,63.5,-42.5 c24.33,-10.33,50.5,-15.5,78.5,-15.5 c28,0,54.17,5.17,78.5,15.5 c24.33,10.33,45.5,24.5,63.5,42.5 c18,18,32.17,39.17,42.5,63.5 c10.33,24.33,15.5,50.5,15.5,78.5 c0,28,-5.17,54.17,-15.5,78.5 c-10.33,24.33,-24.5,45.5,-42.5,63.5 c-18,18,-39.17,32.17,-63.5,42.5 c-24.33,10.33,-50.5,15.5,-78.5,15.5 c-28,0,-54.17,-5.17,-78.5,-15.5 c-24.33,-10.33,-45.5,-24.5,-63.5,-42.5 c-18,-18,-32.17,-39.17,-42.5,-63.5 c-10.33,-24.33,-15.5,-50.5,-15.5,-78.5 Z M408,412 l-78,0 l0,71 c0,7.33,-2.17,13.33,-6.5,18 c-4.33,4.67,-10.5,7,-18.5,7 l-11,0 l0,-96 l-78,0 l0,288 l106,0 c30,0,52.83,-8,68.5,-24 c15.67,-16,23.5,-34.67,23.5,-56 c0,-35.33,-13.33,-58.33,-40,-69 l0,-9 c12,-1.33,20.67,-6,26,-14 c5.33,-8,8,-16.67,8,-26 Z M294,580 l16,0 c17.33,0,26,8,26,24 c0,16,-8.67,24,-26,24 l-16,0 Z M294,580" fill="rgb(0,0,0)" transform="matrix(0.6172839506172839,0.0,0.0,-0.6172839506172839,310.1851851851852,741.358024691358)"/>
</svg>