<?xml version="1.0" encoding="UTF-8"?>
<svg width="1000" height="1000" viewBox="0 0 1000 1000" version="1.1" xmlns="http://www.w3.org/2000/svg" xmlns:xlink="http://www.w3.org/1999/xlink">
 <path d="M0,0 l1000,0 l0,1000 l-1000,0 Z M0,0" fill="rgb(242,242,242)" transform="matrix(1,0,0,-1,0,1000)"/>
 <path d="M430,136 l-96,0 l0,126 c0,8,-2,14.5,-6,19.5 c-4,5,-10.67,7.5,-20,7.5 l-32,0 l0,-153 l-96,0 l0,428 l121,0 c50.67,0,86.83,-10.67,108.5,-32 c21.67,-21.33,32.5,-50,32.5,-86 c0,-30,-4.83,-52.83,-14.5,-68.5 c-9.67,-15.67,-21.17,-27.17,-34.5,-34.5 l0,-9 c12.67,-3.33,22,-9.17,28,-17.5 c6,-8.33,9,-21.17,9,-38.5 Z M276,379 l20,0 c15.33,0,27.5,3.83,36.5,11.5 c9,7.67,13.5,20.17,13.5,37.5 c0,16,-4.5,27.67,-13.5,35 c-9,7.33,-21.17,11,-36.5,11 l-20,0 Z M30,514 c0,65.33,17.5,115,52.5,149 c35,34,82.17,51,141.5,51 l164,0 c59.33,0,106.5,-17,141.5,-51 c35,-34,52.5,-83.67,52.5,-149 l0,-328 c0,-65.33,-17.5,-115,-52.5,-149 c-35,-34,-82.17,-51,-141.5,-51 l-164,0 c-59.33,0,-106.5,17,-141.5,51 c-35,34,-52.5,83.67,-52.5,149 Z M126,206 c0,-40,9.17,-70.67,27.5,-92 c18.33,-21.33,47.17,-32,86.5,-32 l132,0 c39.33,0,68.17,10.67,86.5,32 c18.33,21.33,27.5,52,27.5,92 l0,288 c0,40,-9.17,70.67,-27.5,92 c-18.33,21.33,-47.17,32,-86.5,32 l-132,0 c-39.33,0,-68.17,-10.67,-86.5,-32 c-18.33,-21.33,-27.5,-52,-27.5,-92 Z M126,206" fill="rgb(0,0,0)" transform="matrix(0.6172839506172839,0.0,0.0,-0.6172839506172839,310.1851851851852,741.358024691358)"/>
</svg>