<?xml version="1.0" encoding="UTF-8"?>
<svg width="1000" height="1000" viewBox="0 0 1000 1000" version="1.1" xmlns="http://www.w3.org/2000/svg" xmlns:xlink="http://www.w3.org/1999/xlink">
 <path d="M151.5,423.5 c18.0,0,32.75,-5.42,44.25,-16.25 c11.5,-10.83,17.25,-25.08,17.25,-42.75 l0,-3.5 c0,-18.33,-6.08,-33.25,-18.25,-44.75 c-12.17,-11.5,-27.58,-17.25,-46.25,-17.25 c-17.67,0,-32.33,5.5,-44,16.5 c-11.67,11.0,-17.5,25.33,-17.5,43 l0,3.5 c0,18.0,6.08,32.75,18.25,44.25 c12.17,11.5,27.58,17.25,46.25,17.25 Z M152,391.5 c-19.67,0,-29.5,-9.33,-29.5,-28 l0,-3.5 c0,-8.33,2.33,-14.83,7,-19.5 c5.67,-3.67,12.17,-5.5,19.5,-5.5 c9.0,0,16.0,2.42,21,7.25 c5.0,4.83,7.5,11.42,7.5,19.75 l0,3.5 c0,8.67,-2.67,15.5,-8,20.5 c-5.0,3.67,-10.83,5.5,-17.5,5.5 Z M152,391.5" fill="rgb(0,0,0)" transform="matrix(7.142857142857143,0.0,0.0,-7.142857142857143,-571.4285714285714,3080.357142857143)"/>
</svg>