<?xml version="1.0" encoding="UTF-8"?>
<svg width="1000" height="1000" viewBox="0 0 1000 1000" version="1.1" xmlns="http://www.w3.org/2000/svg" xmlns:xlink="http://www.w3.org/1999/xlink">
 <path d="M0,0 l1000,0 l0,1000 l-1000,0 Z M0,0" fill="rgb(242,242,242)" transform="matrix(1,0,0,-1,0,1000)"/>
 <path d="M198,676 c0,14.67,2.83,28.67,8.5,42 c5.67,13.33,13.33,24.83,23,34.5 c9.67,9.67,21,17.33,34,23 c13,5.67,27.17,8.5,42.5,8.5 c14.67,0,28.67,-2.83,42,-8.5 c13.33,-5.67,24.83,-13.33,34.5,-23 c9.67,-9.67,17.33,-21.17,23,-34.5 c5.67,-13.33,8.5,-27.33,8.5,-42 c0,-15.33,-2.83,-29.5,-8.5,-42.5 c-5.67,-13,-13.33,-24.33,-23,-34 c-9.67,-9.67,-21.17,-17.33,-34.5,-23 c-13.33,-5.67,-27.33,-8.5,-42,-8.5 c-15.33,0,-29.5,2.83,-42.5,8.5 c-13,5.67,-24.33,13.33,-34,23 c-9.67,9.67,-17.33,21,-23,34 c-5.67,13,-8.5,27.17,-8.5,42.5 Z M276,676 c0,-8.67,2.83,-15.83,8.5,-21.5 c5.67,-5.67,12.83,-8.5,21.5,-8.5 c8.67,0,15.83,2.83,21.5,8.5 c5.67,5.67,8.5,12.83,8.5,21.5 c0,8.67,-2.83,15.83,-8.5,21.5 c-5.67,5.67,-12.83,8.5,-21.5,8.5 c-8.67,0,-15.83,-2.83,-21.5,-8.5 c-5.67,-5.67,-8.5,-12.83,-8.5,-21.5 Z M276,676" fill="rgb(0,0,0)" transform="matrix(0.6172839506172839,0.0,0.0,-0.6172839506172839,310.1851851851852,741.358024691358)"/>
</svg>