<?xml version="1.0" encoding="UTF-8"?>
<svg width="1000" height="1000" viewBox="0 0 1000 1000" version="1.1" xmlns="http://www.w3.org/2000/svg" xmlns:xlink="http://www.w3.org/1999/xlink">
 <path d="M0,0 l1000,0 l0,1000 l-1000,0 Z M0,0" fill="rgb(242,242,242)" transform="matrix(1,0,0,-1,0,1000)"/>
 <path d="M236,356 c0,-16,8.33,-27.5,25,-34.5 c16.67,-7,47,-12.83,91,-17.5 c50.67,-5.33,92,-20.5,124,-45.5 c32,-25,48,-59.83,48,-104.5 l0,-6 c0,-49.33,-18,-88.67,-54,-118 c-36,-29.33,-86.67,-44,-152,-44 c-38.67,0,-71.67,5,-99,15 c-27.33,10,-50,22.5,-68,37.5 c-18,15,-31.83,31.67,-41.5,50 c-9.67,18.33,-16.17,36.17,-19.5,53.5 l116,38 c5.33,-21.33,16.5,-40,33.5,-56 c17,-16,43.17,-24,78.5,-24 c31.33,0,52.83,4.83,64.5,14.5 c11.67,9.67,17.5,20.17,17.5,31.5 c0,6.67,-1.5,12.83,-4.5,18.5 c-3,5.67,-8.5,11,-16.5,16 c-8,5,-18.83,9.17,-32.5,12.5 c-13.67,3.33,-30.83,6,-51.5,8 c-56,4.67,-100.5,19.17,-133.5,43.5 c-33,24.33,-49.5,60.17,-49.5,107.5 l0,6 c0,24.67,5.33,46.33,16,65 c10.67,18.67,24.67,34.5,42,47.5 c17.33,13,37.33,22.83,60,29.5 c22.67,6.67,46,10,70,10 c31.33,0,58.5,-3.83,81.5,-11.5 c23,-7.67,42.5,-17.67,58.5,-30 c16,-12.33,29,-26,39,-41 c10,-15,17.67,-29.5,23,-43.5 l-114,-46 c-6,18,-16.33,32.17,-31,42.5 c-14.67,10.33,-33.67,15.5,-57,15.5 c-21.33,0,-37.33,-3.83,-48,-11.5 c-10.67,-7.67,-16,-17.17,-16,-28.5 Z M476,706 l-84,-136 l-172,0 l-84,136 l121,0 l43,-88 l12,0 l43,88 Z M476,706" fill="rgb(0,0,0)" transform="matrix(0.6172839506172839,0.0,0.0,-0.6172839506172839,310.1851851851852,741.358024691358)"/>
</svg>