<?xml version="1.0" encoding="UTF-8"?>
<svg width="1000" height="1000" viewBox="0 0 1000 1000" version="1.1" xmlns="http://www.w3.org/2000/svg" xmlns:xlink="http://www.w3.org/1999/xlink">
 <path d="M0,0 l1000,0 l0,1000 l-1000,0 Z M0,0" fill="rgb(242,242,242)" transform="matrix(1,0,0,-1,0,1000)"/>
 <path d="M352,598 c0,9.33,-3.17,17,-9.5,23 c-6.33,6,-17.17,9,-32.5,9 c-12,0,-21,-2.33,-27,-7 c-6,-4.67,-9,-10.33,-9,-17 c0,-9.33,4,-16.5,12,-21.5 c8,-5,26,-10.17,54,-15.5 c36,-6.67,63.67,-19.33,83,-38 c19.33,-18.67,29,-45,29,-79 c0,-10.67,-1.33,-21.67,-4,-33 c-2.67,-11.33,-7.33,-21.67,-14,-31 c3.33,-6,6.17,-13.33,8.5,-22 c2.33,-8.67,3.5,-18.67,3.5,-30 c0,-34,-11.83,-62.17,-35.5,-84.5 c-23.67,-22.33,-56.5,-33.5,-98.5,-33.5 c-47.33,0,-83.17,12.33,-107.5,37 c-24.33,24.67,-36.5,55.33,-36.5,92 l0,6 l90,0 l0,-6 c0,-14.67,5,-25.83,15,-33.5 c10,-7.67,23,-11.5,39,-11.5 c16,0,27.33,3,34,9 c6.67,6,10,13,10,21 c0,4,-0.67,7.83,-2,11.5 c-1.33,3.67,-4,7.17,-8,10.5 c-4,3.33,-10.17,6.33,-18.5,9 c-8.33,2.67,-19.5,5.33,-33.5,8 c-14.67,2.67,-29,6.67,-43,12 c-14,5.33,-26.33,12.5,-37,21.5 c-10.67,9,-19.33,20.17,-26,33.5 c-6.67,13.33,-10,29.33,-10,48 c0,14,1.83,26.5,5.5,37.5 c3.67,11,8.17,20.17,13.5,27.5 c-4,8,-7.17,16.17,-9.5,24.5 c-2.33,8.33,-3.5,18.5,-3.5,30.5 c0,34.67,12.17,61.33,36.5,80 c24.33,18.67,54.17,28,89.5,28 c21.33,0,40.33,-3,57,-9 c16.67,-6,30.5,-14.17,41.5,-24.5 c11,-10.33,19.33,-22.5,25,-36.5 c5.67,-14,8.5,-28.67,8.5,-44 l0,-6 l-90,0 Z M356,441 c1.33,2.67,2,6,2,10 c0,9.33,-3,17.17,-9,23.5 c-6,6.33,-18.67,11.83,-38,16.5 l-36,8 c-2,-3.33,-3,-7.33,-3,-12 c0,-6.67,2.67,-13.17,8,-19.5 c5.33,-6.33,18.67,-12.17,40,-17.5 Z M356,441" fill="rgb(0,0,0)" transform="matrix(0.6172839506172839,0.0,0.0,-0.6172839506172839,310.1851851851852,741.358024691358)"/>
</svg>