<?xml version="1.0" encoding="UTF-8"?>
<svg width="1000" height="1000" viewBox="0 0 1000 1000" version="1.1" xmlns="http://www.w3.org/2000/svg" xmlns:xlink="http://www.w3.org/1999/xlink">
 <path d="M150,-71.5 c35.67,0,59.67,9.0,72,27 l-0.5,2.5 c-2.33,9.67,-7.0,17.67,-14,24 c-7.0,6.33,-17.83,12.17,-32.5,17.5 l-45,16.5 c-33.33,12.67,-56.75,25.58,-70.25,38.75 c-13.5,13.17,-20.25,27.58,-20.25,43.25 l0,3.5 c0,12.67,3.17,23.33,9.5,32 c6.33,8.67,16.33,15.17,30,19.5 l0.5,3 c-15.33,9.0,-25.83,18.33,-31.5,28 c-5.67,9.67,-8.5,20.17,-8.5,31.5 l0,6 c0,16.33,4.08,32.67,12.25,49 c8.17,16.33,19.17,31.25,33,44.75 c13.83,13.5,29.67,24.33,47.5,32.5 c17.83,8.17,36.42,12.25,55.75,12.25 c11.33,0,21.08,-1.83,29.25,-5.5 c8.17,-3.67,15.25,-8.67,21.25,-15 c7.0,-6.67,11.83,-14.42,14.5,-23.25 c2.67,-8.83,4,-19.42,4,-31.75 l0,-63 c-4.33,-1.33,-10.83,-2,-19.5,-2 c-11.67,0,-20.17,2.25,-25.5,6.75 c-5.33,4.5,-8,11.58,-8,21.25 c0,15.67,0.17,27.67,0.5,36 c0.33,8.33,0.5,15.5,0.5,21.5 c-4.67,1.33,-10.17,2,-16.5,2 c-11.0,0,-22.17,-2.58,-33.5,-7.75 c-11.33,-5.17,-21.67,-12.0,-31,-20.5 c-9.33,-8.5,-16.92,-17.75,-22.75,-27.75 c-5.83,-10.0,-8.75,-19.83,-8.75,-29.5 l0,-1.5 c0,-5.33,1.33,-10.17,4,-14.5 c2.67,-4.33,7.83,-8.67,15.5,-13 c7.67,-4.33,19.0,-9.33,34,-15 l45,-16.5 c25.67,-9.33,45.17,-20.67,58.5,-34 c13.33,-13.33,20,-29.17,20,-47.5 l0,-3.5 c0,-13.33,-3.08,-24.42,-9.25,-33.25 c-6.17,-8.83,-14.08,-14.58,-23.75,-17.25 l0,-3.5 c12.0,-9.0,20.5,-18.33,25.5,-28 c5.0,-9.67,7.5,-19.33,7.5,-29 l0,-5.5 c0,-26.0,-10.25,-46.5,-30.75,-61.5 c-20.5,-15.0,-50.08,-22.5,-88.75,-22.5 c-23.33,0,-44.5,2.5,-63.5,7.5 c-19.0,5.0,-33.0,12.0,-42,21 c-9.0,9.67,-13.5,23.83,-13.5,42.5 c0,10.67,1.0,19.17,3,25.5 l3,0 c26.0,-29.0,63.67,-43.5,113,-43.5 Z M191,44.5 c7.0,-2.67,13.5,-5.33,19.5,-8 c5.0,8.33,7.5,18.17,7.5,29.5 l0,2.5 c0,11.67,-3.08,21.0,-9.25,28 c-6.17,7.0,-18.58,13.83,-37.25,20.5 l-43.5,16.5 c-9.67,3.67,-18.33,7.17,-26,10.5 c-6.33,-9.67,-9.5,-19.67,-9.5,-30 l0,-3.5 c0,-6.33,1.25,-12.25,3.75,-17.75 c2.5,-5.5,7.58,-10.75,15.25,-15.75 c7.67,-5.0,19.17,-10.33,34.5,-16 Z M191,44.5" fill="rgb(0,0,0)" transform="matrix(1.8575851393188854,0.0,0.0,-1.8575851393188854,220.89783281733745,718.7306501547988)"/>
</svg>