<?xml version="1.0" encoding="UTF-8"?>
<svg width="1000" height="1000" viewBox="0 0 1000 1000" version="1.1" xmlns="http://www.w3.org/2000/svg" xmlns:xlink="http://www.w3.org/1999/xlink">
 <path d="M0,0 l1000,0 l0,1000 l-1000,0 Z M0,0" fill="rgb(242,242,242)" transform="matrix(1,0,0,-1,0,1000)"/>
 <path d="M126,390 c0,16,1.83,30.83,5.5,44.5 c3.67,13.67,8.83,26.17,15.5,37.5 c-14,22,-21,48,-21,78 l0,6 c0,25.33,4.67,47.83,14,67.5 c9.33,19.67,22,36.17,38,49.5 c16,13.33,35,23.5,57,30.5 c22,7,45.67,10.5,71,10.5 c31.33,0,59.17,-4.5,83.5,-13.5 c24.33,-9,44.67,-21,61,-36 c16.33,-15,28.67,-32.5,37,-52.5 c8.33,-20,12.5,-41.33,12.5,-64 l0,-22 l-108,0 l0,12 c0,20,-6.33,37.33,-19,52 c-12.67,14.67,-34,22,-64,22 c-22.67,0,-40.5,-5,-53.5,-15 c-13,-10,-19.5,-23.67,-19.5,-41 c0,-7.33,1.17,-14.17,3.5,-20.5 c2.33,-6.33,7.17,-12.5,14.5,-18.5 c7.33,-6,17.67,-11.5,31,-16.5 c13.33,-5,30.67,-9.5,52,-13.5 c60,-10.67,103.5,-29.5,130.5,-56.5 c27,-27,40.5,-62.5,40.5,-106.5 c0,-33.33,-6,-62,-18,-86 c12,-21.33,18,-46,18,-74 l0,-8 c0,-50,-16.83,-90.83,-50.5,-122.5 c-33.67,-31.67,-81.5,-47.5,-143.5,-47.5 c-34.67,0,-65,5,-91,15 c-26,10,-47.83,23.83,-65.5,41.5 c-17.67,17.67,-31,38.5,-40,62.5 c-9,24,-13.5,50.33,-13.5,79 l0,14 l108,0 l0,-12 c0,-29.33,8.17,-53,24.5,-71 c16.33,-18,41.83,-27,76.5,-27 c56.67,0,85,21.33,85,64 c0,20,-6.67,35.5,-20,46.5 c-13.33,11,-37.67,19.83,-73,26.5 c-56,10,-99.83,28,-131.5,54 c-31.67,26,-47.5,63,-47.5,111 Z M337,323 c11.33,-2,21.33,-4,30,-6 c8.67,-2,17.67,-4.67,27,-8 c0.67,2,1,5.67,1,11 c0,17.33,-6.17,31.5,-18.5,42.5 c-12.33,11,-36.17,19.83,-71.5,26.5 c-22.67,4,-44.33,9.67,-65,17 c-2,-4,-3,-9.33,-3,-16 c0,-6,1,-12.17,3,-18.5 c2,-6.33,6.5,-12.5,13.5,-18.5 c7,-6,17.17,-11.5,30.5,-16.5 c13.33,-5,31,-9.5,53,-13.5 Z M337,323" fill="rgb(0,0,0)" transform="matrix(0.6172839506172839,0.0,0.0,-0.6172839506172839,310.1851851851852,741.358024691358)"/>
</svg>