<?xml version="1.0" encoding="UTF-8"?>
<svg width="1000" height="1000" viewBox="0 0 1000 1000" version="1.1" xmlns="http://www.w3.org/2000/svg" xmlns:xlink="http://www.w3.org/1999/xlink">
 <path d="M193,187.5 c-11.0,-4.0,-23.0,-6,-36,-6 c-13.33,0,-25.0,2.33,-35,7 c-10.0,4.67,-15,14.0,-15,28 l0,44.5 c10.67,6.33,23.5,9.5,38.5,9.5 c12.33,0,23.33,-2.67,33,-8 c9.67,-5.33,14.5,-15.5,14.5,-30.5 Z M121.5,-98 c-8.33,0,-15.5,1.08,-21.5,3.25 c-6.0,2.17,-12.0,5.75,-18,10.75 c9.0,16.0,16.17,32.33,21.5,49 c5.33,16.67,9.25,35.08,11.75,55.25 c2.5,20.17,3.75,43.08,3.75,68.75 c9.67,2.67,19.0,4,28,4 c14.67,0,25.75,-2.42,33.25,-7.25 c7.5,-4.83,11.25,-13.58,11.25,-26.25 c0,-19.0,-2.5,-38.17,-7.5,-57.5 c-5.0,-19.33,-11.42,-37.17,-19.25,-53.5 c-7.83,-16.33,-16.42,-29.5,-25.75,-39.5 c-3.67,-4.67,-9.5,-7,-17.5,-7 Z M121.5,-98" fill="rgb(0,0,0)" transform="matrix(2.4423337856173677,0.0,0.0,-2.4423337856173677,164.1791044776119,710.651289009498)"/>
</svg>