<?xml version="1.0" encoding="UTF-8"?>
<svg width="1000" height="1000" viewBox="0 0 1000 1000" version="1.1" xmlns="http://www.w3.org/2000/svg" xmlns:xlink="http://www.w3.org/1999/xlink">
 <path d="M0,0 l1000,0 l0,1000 l-1000,0 Z M0,0" fill="rgb(242,242,242)" transform="matrix(1,0,0,-1,0,1000)"/>
 <path d="M60,700 l492,0 l0,-206 l-253,-370 c-13.33,-20,-23.83,-37.17,-31.5,-51.5 c-7.67,-14.33,-11.5,-30.5,-11.5,-48.5 l0,-24 l-142,0 l0,30 c0,13.33,1,25.33,3,36 c2,10.67,5.17,21.33,9.5,32 c4.33,10.67,10.17,22,17.5,34 c7.33,12,16.33,26,27,42 l261,382 l0,18 l-372,0 Z M60,700" fill="rgb(0,0,0)" transform="matrix(0.6172839506172839,0.0,0.0,-0.6172839506172839,310.1851851851852,741.358024691358)"/>
</svg>