<?xml version="1.0" encoding="UTF-8"?>
<svg width="1000" height="1000" viewBox="0 0 1000 1000" version="1.1" xmlns="http://www.w3.org/2000/svg" xmlns:xlink="http://www.w3.org/1999/xlink">
 <path d="M175.5,360 c20.33,0,35.58,-1.92,45.75,-5.75 c10.17,-3.83,17.25,-7.42,21.25,-10.75 c4.0,-3.33,7.25,-7.67,9.75,-13 c2.5,-5.33,3.75,-12.83,3.75,-22.5 c0,-4.33,-0.33,-8.33,-1,-12 c-0.67,-3.67,-1.5,-7.0,-2.5,-10 l-3,0 c-10.33,7.33,-21.17,12.67,-32.5,16 c-11.33,3.33,-24.67,5,-40,5 c-11.33,0,-22.5,-1.42,-33.5,-4.25 c-11.0,-2.83,-20.33,-6.58,-28,-11.25 c-8.33,-10.33,-15.42,-26.0,-21.25,-47 c-5.83,-21.0,-8.92,-47.83,-9.25,-80.5 l3.5,0 c10.33,11.33,22.5,19.58,36.5,24.75 c14.0,5.17,29.0,7.75,45,7.75 c19.0,0,36.0,-4.0,51,-12 c15.0,-8.0,26.92,-19.17,35.75,-33.5 c8.83,-14.33,13.25,-31.17,13.25,-50.5 l0,-5 c0,-21.0,-4.83,-39.42,-14.5,-55.25 c-9.67,-15.83,-23.08,-28.17,-40.25,-37 c-17.17,-8.83,-37.25,-13.25,-60.25,-13.25 c-38.67,0,-69.08,13.58,-91.25,40.75 c-22.17,27.17,-33.25,68.58,-33.25,124.25 l0,4 c0,47.33,6.25,85.75,18.75,115.25 c12.5,29.5,29.75,51.17,51.75,65 c22.0,13.83,46.83,20.75,74.5,20.75 Z M106,53 c12.67,-7.0,27.67,-10.5,45,-10.5 c21.0,0,37.25,5.5,48.75,16.5 c11.5,11.0,17.25,25.17,17.25,42.5 l0,3.5 c0,5.67,-0.33,10.83,-1,15.5 c-0.67,4.67,-1.83,9.33,-3.5,14 c-6.0,5.0,-13.67,9.0,-23,12 c-9.33,3.0,-19.83,4.5,-31.5,4.5 c-25.0,0,-49.17,-5.5,-72.5,-16.5 c1.0,-19.67,3.33,-36.33,7,-50 c3.67,-13.67,8.17,-24.17,13.5,-31.5 Z M106,53" fill="rgb(0,0,0)" transform="matrix(2.4324324324324325,0.0,0.0,-2.4324324324324325,134.52702702702703,925.6756756756756)"/>
</svg>