<?xml version="1.0" encoding="UTF-8"?>
<svg width="1000" height="1000" viewBox="0 0 1000 1000" version="1.1" xmlns="http://www.w3.org/2000/svg" xmlns:xlink="http://www.w3.org/1999/xlink">
 <path d="M0,0 l1000,0 l0,1000 l-1000,0 Z M0,0" fill="rgb(242,242,242)" transform="matrix(1,0,0,-1,0,1000)"/>
 <path d="M411,502 c0,23.33,-8.5,43.5,-25.5,60.5 c-17,17,-43.5,25.5,-79.5,25.5 c-36,0,-64.5,-10.5,-85.5,-31.5 c-21,-21,-31.5,-48.5,-31.5,-82.5 l0,-90 l18,0 c11.33,23.33,29.67,42.17,55,56.5 c25.33,14.33,54,21.5,86,21.5 c28.67,0,55.67,-5.17,81,-15.5 c25.33,-10.33,47.33,-25,66,-44 c18.67,-19,33.33,-42.17,44,-69.5 c10.67,-27.33,16,-58.33,16,-93 l0,-12 c0,-35.33,-5.83,-67.83,-17.5,-97.5 c-11.67,-29.67,-28.33,-55.17,-50,-76.5 c-21.67,-21.33,-47.83,-38,-78.5,-50 c-30.67,-12,-65,-18,-103,-18 c-34.67,0,-67.17,5.67,-97.5,17 c-30.33,11.33,-56.67,27.17,-79,47.5 c-22.33,20.33,-40,44.67,-53,73 c-13,28.33,-19.5,59.5,-19.5,93.5 l0,255 c0,36.67,6.67,70,20,100 c13.33,30,31.33,55.5,54,76.5 c22.67,21,48.83,37.17,78.5,48.5 c29.67,11.33,61.17,17,94.5,17 c33.33,0,64.5,-4.83,93.5,-14.5 c29,-9.67,54.33,-23.67,76,-42 c21.67,-18.33,38.67,-40.67,51,-67 c12.33,-26.33,18.5,-55.83,18.5,-88.5 Z M306,112 c34,0,62,10.17,84,30.5 c22,20.33,33,47.5,33,81.5 c0,34,-11,61.17,-33,81.5 c-22,20.33,-50,30.5,-84,30.5 c-34,0,-62,-10.17,-84,-30.5 c-22,-20.33,-33,-47.5,-33,-81.5 c0,-34,11,-61.17,33,-81.5 c22,-20.33,50,-30.5,84,-30.5 Z M306,112" fill="rgb(0,0,0)" transform="matrix(0.6172839506172839,0.0,0.0,-0.6172839506172839,310.1851851851852,741.358024691358)"/>
</svg>