<?xml version="1.0" encoding="UTF-8"?>
<svg width="1000" height="1000" viewBox="0 0 1000 1000" version="1.1" xmlns="http://www.w3.org/2000/svg" xmlns:xlink="http://www.w3.org/1999/xlink">
 <path d="M21.5,192 l39.5,0 c-5.0,11.67,-9.42,23.5,-13.25,35.5 c-3.83,12.0,-5.75,24.5,-5.75,37.5 l0,4 c0,17.0,4.58,32.33,13.75,46 c9.17,13.67,22.92,24.58,41.25,32.75 c18.33,8.17,41.0,12.25,68,12.25 c20.67,0,38.67,-2.33,54,-7 c15.33,-4.67,26.5,-10.5,33.5,-17.5 c5.67,-5.33,9.58,-10.92,11.75,-16.75 c2.17,-5.83,3.25,-13.75,3.25,-23.75 c0,-10.33,-1.67,-19.83,-5,-28.5 l-3,0 c-11.33,14.67,-24.58,25.0,-39.75,31 c-15.17,6.0,-32.58,9,-52.25,9 c-14.33,0,-26.42,-1.25,-36.25,-3.75 c-9.83,-2.5,-17.58,-6.08,-23.25,-10.75 c-6.67,-8.33,-10.5,-18.17,-11.5,-29.5 c0,-12.33,1.5,-24.33,4.5,-36 c3.0,-11.67,6.5,-23.17,10.5,-34.5 l90,0 c11.67,0,19.67,-2.42,24,-7.25 c4.33,-4.83,6.5,-12.58,6.5,-23.25 c0,-3.0,-0.17,-6.25,-0.5,-9.75 c-0.33,-3.5,-0.83,-6.92,-1.5,-10.25 l-100,0 c3.0,-9.67,5.5,-19.33,7.5,-29 c2.0,-9.67,3,-19.67,3,-30 c0,-5.33,-0.33,-10.67,-1,-16 c18.0,-6.67,33.17,-11.42,45.5,-14.25 c12.33,-2.83,24.17,-4.25,35.5,-4.25 c12.33,0,22.33,1.75,30,5.25 c7.67,3.5,14.17,9.08,19.5,16.75 l3,0 c2.67,-4.67,4.75,-9.83,6.25,-15.5 c1.5,-5.67,2.25,-12.33,2.25,-20 c0,-14.33,-3.92,-25.0,-11.75,-32 c-7.83,-7.0,-20.58,-10.5,-38.25,-10.5 c-17.33,0,-34.42,2.83,-51.25,8.5 c-16.83,5.67,-33.75,15.5,-50.75,29.5 l-3,0 c-16.67,-25.33,-42.83,-38,-78.5,-38 c-9.33,0,-16.0,2.83,-20,8.5 c-4.0,5.67,-6,14.17,-6,25.5 c0,3.67,0.25,7.0,0.75,10 c0.5,3.0,0.92,6.17,1.25,9.5 l4.5,0 c21.67,0,37.58,3.08,47.75,9.25 c10.17,6.17,15.25,18.42,15.25,36.75 c0,8.67,-0.83,17.17,-2.5,25.5 c-1.67,8.33,-4.0,16.5,-7,24.5 l-14.5,0 c-17.33,0,-29.33,3.08,-36,9.25 c-6.67,6.17,-10,17.25,-10,33.25 Z M21.5,192" fill="rgb(0,0,0)" transform="matrix(2.4456521739130435,0.0,0.0,-2.4456521739130435,129.48369565217394,930.4347826086956)"/>
</svg>