<?xml version="1.0" encoding="UTF-8"?>
<svg width="1000" height="1000" viewBox="0 0 1000 1000" version="1.1" xmlns="http://www.w3.org/2000/svg" xmlns:xlink="http://www.w3.org/1999/xlink">
 <path d="M194,272.5 c14.67,0,27.92,-4.5,39.75,-13.5 c11.83,-9.0,21.25,-21.25,28.25,-36.75 c7.0,-15.5,10.5,-33.25,10.5,-53.25 l0,-10 c0,-38.33,-4.92,-69.67,-14.75,-94 c-9.83,-24.33,-22.83,-42.17,-39,-53.5 c-16.17,-11.33,-33.92,-17,-53.25,-17 c-15.0,0,-28.33,4.0,-40,12 c-11.67,8.0,-20.5,16.83,-26.5,26.5 l-3.5,0 l0,-138 c-5.0,-1.0,-11.17,-1.5,-18.5,-1.5 c-9.67,0,-17.83,1.42,-24.5,4.25 c-6.67,2.83,-10,8.92,-10,18.25 l0,415 c0,9.67,-0.42,17.92,-1.25,24.75 c-0.83,6.83,-2.42,14.25,-4.75,22.25 c2.33,0.67,4.58,1.17,6.75,1.5 c2.17,0.33,4.58,0.5,7.25,0.5 c12.67,0,23.33,-5.08,32,-15.25 c8.67,-10.17,13,-26.75,13,-49.75 l0,-125 l3.5,0 c6.0,16.33,14.0,30.67,24,43 c10.0,12.33,21.08,22.0,33.25,29 c12.17,7.0,24.75,10.5,37.75,10.5 Z M188.5,216.5 c-18.33,0,-35.17,-6.67,-50.5,-20 c-15.33,-13.33,-29.5,-36.67,-42.5,-70 l0,-57 c8.0,-8.0,16.33,-13.92,25,-17.75 c8.67,-3.83,19.0,-5.75,31,-5.75 c22.67,0,39.42,9.08,50.25,27.25 c10.83,18.17,16.25,44.75,16.25,79.75 l0,5 c0,9.67,-0.33,18.08,-1,25.25 c-0.67,7.17,-2.0,13.58,-4,19.25 c-6.0,9.33,-14.17,14,-24.5,14 Z M188.5,216.5" fill="rgb(0,0,0)" transform="matrix(1.8499486125385407,0.0,0.0,-1.8499486125385407,214.18293936279545,752.9804727646454)"/>
</svg>