<?xml version="1.0" encoding="UTF-8"?>
<svg width="1000" height="1000" viewBox="0 0 1000 1000" version="1.1" xmlns="http://www.w3.org/2000/svg" xmlns:xlink="http://www.w3.org/1999/xlink">
 <path d="M150,360 c23.67,0,44.08,-3.83,61.25,-11.5 c17.17,-7.67,30.42,-18.17,39.75,-31.5 c9.33,-13.33,13.83,-28.5,13.5,-45.5 l-0.5,-8 c-0.33,-18.0,-7.75,-35.83,-22.25,-53.5 c-14.5,-17.67,-37.92,-31.5,-70.25,-41.5 l0,-2.5 c34.33,-7.67,59.25,-18.42,74.75,-32.25 c15.5,-13.83,23.25,-30.58,23.25,-50.25 l0,-5.5 c0,-16.67,-4.83,-31.67,-14.5,-45 c-9.67,-13.33,-23.42,-23.83,-41.25,-31.5 c-17.83,-7.67,-39.08,-11.5,-63.75,-11.5 c-23.33,0,-44.25,2.75,-62.75,8.25 c-18.5,5.5,-32.42,12.92,-41.75,22.25 c-5.33,5.67,-9.0,11.5,-11,17.5 c-2.0,6.0,-3,14.0,-3,24 c0,5.67,0.25,10.5,0.75,14.5 c0.5,4.0,1.25,8.0,2.25,12 l3,0 c14.0,-16.0,29.33,-27.58,46,-34.75 c16.67,-7.17,36.83,-10.75,60.5,-10.75 c21.33,0,38.5,3.17,51.5,9.5 c13.0,6.33,22.17,15.0,27.5,26 l0,2 c-2.0,12.67,-8.58,23.25,-19.75,31.75 c-11.17,8.5,-25.33,15.0,-42.5,19.5 c-17.17,4.5,-36.08,7.08,-56.75,7.75 c-7.0,0.67,-11.92,3.08,-14.75,7.25 c-2.83,4.17,-4.25,11.25,-4.25,21.25 c0,4.67,0.17,8.33,0.5,11 c0.33,2.67,0.83,5.67,1.5,9 c35.0,0,64.08,6.25,87.25,18.75 c23.17,12.5,37.42,31.25,42.75,56.25 l0,2.5 c-4.67,12.33,-12.92,22.25,-24.75,29.75 c-11.83,7.5,-27.92,11.25,-48.25,11.25 c-22.33,0,-41.0,-3.67,-56,-11 c-15.0,-7.33,-29.0,-18.83,-42,-34.5 l-3,0 c-1.33,4.67,-2.25,8.92,-2.75,12.75 c-0.5,3.83,-0.75,8.42,-0.75,13.75 c0,10.33,1.08,18.5,3.25,24.5 c2.17,6.0,6.25,12.0,12.25,18 c8.0,8.0,20.5,15.0,37.5,21 c17.0,6.0,36.17,9,57.5,9 Z M150,360" fill="rgb(0,0,0)" transform="matrix(2.4324324324324325,0.0,0.0,-2.4324324324324325,133.9189189189189,925.6756756756756)"/>
</svg>