<?xml version="1.0" encoding="UTF-8"?>
<svg width="1000" height="1000" viewBox="0 0 1000 1000" version="1.1" xmlns="http://www.w3.org/2000/svg" xmlns:xlink="http://www.w3.org/1999/xlink">
 <path d="M0,0 l1000,0 l0,1000 l-1000,0 Z M0,0" fill="rgb(242,242,242)" transform="matrix(1,0,0,-1,0,1000)"/>
 <path d="M525,510 l41,-78 l-472,-242 l-41,78 Z M47,512 l78,0 l0,-6 c0,-9.33,2.67,-16.33,8,-21 c5.33,-4.67,12.67,-7,22,-7 c9.33,0,16.67,2.33,22,7 c5.33,4.67,8,11.67,8,21 c0,20,-11.33,30,-34,30 l-26,0 l0,70 l46,15 l0,9 l-115,0 l0,70 l193,0 l0,-98 l-46,-17 l0,-9 c15.33,-3.33,29.17,-11,41.5,-23 c12.33,-12,18.5,-29,18.5,-51 c0,-28.67,-9.33,-51.83,-28,-69.5 c-18.67,-17.67,-44,-26.5,-76,-26.5 c-38,0,-66.17,9.67,-84.5,29 c-18.33,19.33,-27.5,41,-27.5,65 Z M398,289 l138,0 l0,-170 l42,0 l0,-70 l-42,0 l0,-48 l-78,0 l0,48 l-130,0 l0,97 Z M398,128 l0,-9 l60,0 l0,118 l-9,0 Z M398,128" fill="rgb(0,0,0)" transform="matrix(0.6172839506172839,0.0,0.0,-0.6172839506172839,310.1851851851852,741.358024691358)"/>
</svg>