<?xml version="1.0" encoding="UTF-8"?>
<svg width="1000" height="1000" viewBox="0 0 1000 1000" version="1.1" xmlns="http://www.w3.org/2000/svg" xmlns:xlink="http://www.w3.org/1999/xlink">
 <path d="M0,0 l1000,0 l0,1000 l-1000,0 Z M0,0" fill="rgb(242,242,242)" transform="matrix(1,0,0,-1,0,1000)"/>
 <path d="M234,114 l0,192 l162,46 l0,18 l-324,0 l0,126 l438,0 l0,-212 l-168,-50 l0,-18 l18,0 c24.67,0,48.33,-4.33,71,-13 c22.67,-8.67,42.5,-21.33,59.5,-38 c17,-16.67,30.5,-36.83,40.5,-60.5 c10,-23.67,15,-50.5,15,-80.5 l0,-6 c0,-31.33,-5.33,-60.33,-16,-87 c-10.67,-26.67,-26,-49.67,-46,-69 c-20,-19.33,-44.83,-34.5,-74.5,-45.5 c-29.67,-11,-63.5,-16.5,-101.5,-16.5 c-38.67,0,-73.5,5.83,-104.5,17.5 c-31,11.67,-57.67,28,-80,49 c-22.33,21,-40,46.33,-53,76 c-13,29.67,-20.5,62.83,-22.5,99.5 l132,24 c3.33,-45.33,16,-80,38,-104 c22,-24,54,-36,96,-36 c33.33,0,58.33,9,75,27 c16.67,18,25,41.67,25,71 c0,31.33,-9.17,54.17,-27.5,68.5 c-18.33,14.33,-43.17,21.5,-74.5,21.5 Z M234,114" fill="rgb(0,0,0)" transform="matrix(0.6172839506172839,0.0,0.0,-0.6172839506172839,310.1851851851852,741.358024691358)"/>
</svg>