<?xml version="1.0" encoding="UTF-8"?>
<svg width="1000" height="1000" viewBox="0 0 1000 1000" version="1.1" xmlns="http://www.w3.org/2000/svg" xmlns:xlink="http://www.w3.org/1999/xlink">
 <path d="M0,0 l1000,0 l0,1000 l-1000,0 Z M0,0" fill="rgb(242,242,242)" transform="matrix(1,0,0,-1,0,1000)"/>
 <path d="M238,300 l0,208 l174,48 l0,18 l-348,0 l0,126 l456,0 l0,-220 l-186,-54 l0,-18 l24,0 c24.67,0,49,-3.83,73,-11.5 c24,-7.67,45.17,-19.5,63.5,-35.5 c18.33,-16,33.17,-35.83,44.5,-59.5 c11.33,-23.67,17,-51.5,17,-83.5 l0,-12 c0,-31.33,-5.17,-60.33,-15.5,-87 c-10.33,-26.67,-25.67,-49.83,-46,-69.5 c-20.33,-19.67,-45.5,-35.17,-75.5,-46.5 c-30,-11.33,-64.33,-17,-103,-17 c-39.33,0,-75,6.33,-107,19 c-32,12.67,-59.17,30,-81.5,52 c-22.33,22,-39.5,47.33,-51.5,76 c-12,28.67,-18,59,-18,91 l0,42 l132,0 l0,-36 c0,-32,10.33,-59.67,31,-83 c20.67,-23.33,51.67,-35,93,-35 c35.33,0,62.5,9,81.5,27 c19,18,28.5,41.67,28.5,71 c0,31.33,-10.17,54.17,-30.5,68.5 c-20.33,14.33,-46.17,21.5,-77.5,21.5 Z M238,300" fill="rgb(0,0,0)" transform="matrix(0.6172839506172839,0.0,0.0,-0.6172839506172839,310.1851851851852,741.358024691358)"/>
</svg>