<?xml version="1.0" encoding="UTF-8"?>
<svg width="1000" height="1000" viewBox="0 0 1000 1000" version="1.1" xmlns="http://www.w3.org/2000/svg" xmlns:xlink="http://www.w3.org/1999/xlink">
 <path d="M0,0 l1000,0 l0,1000 l-1000,0 Z M0,0" fill="rgb(242,242,242)" transform="matrix(1,0,0,-1,0,1000)"/>
 <path d="M322,695 c5.33,-6,10.67,-11.5,16,-16.5 c5.33,-5,12.67,-7.5,22,-7.5 c9.33,0,16.83,2.17,22.5,6.5 c5.67,4.33,11.17,10.17,16.5,17.5 l30,38 l77,-61 l-56,-72 c-12,-15.33,-25,-26.5,-39,-33.5 c-14,-7,-29.67,-10.5,-47,-10.5 c-13.33,0,-26.17,3,-38.5,9 c-12.33,6,-24.17,15.67,-35.5,29 c-5.33,6,-10.67,11.5,-16,16.5 c-5.33,5,-12.67,7.5,-22,7.5 c-9.33,0,-16.83,-2.17,-22.5,-6.5 c-5.67,-4.33,-11.17,-10.17,-16.5,-17.5 l-30,-38 l-77,61 l56,72 c12.67,16,26,27.33,40,34 c14,6.67,29.33,10,46,10 c13.33,0,26.17,-3,38.5,-9 c12.33,-6,24.17,-15.67,35.5,-29 Z M322,695" fill="rgb(0,0,0)" transform="matrix(0.6172839506172839,0.0,0.0,-0.6172839506172839,310.1851851851852,741.358024691358)"/>
</svg>