<?xml version="1.0" encoding="UTF-8"?>
<svg width="1000" height="1000" viewBox="0 0 1000 1000" version="1.1" xmlns="http://www.w3.org/2000/svg" xmlns:xlink="http://www.w3.org/1999/xlink">
 <path d="M0,0 l1000,0 l0,1000 l-1000,0 Z M0,0" fill="rgb(242,242,242)" transform="matrix(1,0,0,-1,0,1000)"/>
 <path d="M30,700 l228,0 l0,-72 l-75,0 l0,-216 l-78,0 l0,216 l-75,0 Z M282,700 l132,0 l12,-198 l0,-36 l12,0 l0,36 l12,198 l132,0 l0,-288 l-76,0 l0,234 l-12,0 l0,-36 l-14,-198 l-96,0 l-14,198 l0,36 l-12,0 l0,-234 l-76,0 Z M282,700" fill="rgb(0,0,0)" transform="matrix(0.6172839506172839,0.0,0.0,-0.6172839506172839,310.1851851851852,741.358024691358)"/>
</svg>