<?xml version="1.0" encoding="UTF-8"?>
<svg width="1000" height="1000" viewBox="0 0 1000 1000" version="1.1" xmlns="http://www.w3.org/2000/svg" xmlns:xlink="http://www.w3.org/1999/xlink">
 <path d="M189.5,174.5 c-2.33,-0.67,-4.58,-1.08,-6.75,-1.25 c-2.17,-0.17,-4.75,-0.25,-7.75,-0.25 c-9.33,0,-15.92,1.42,-19.75,4.25 c-3.83,2.83,-5.75,7.92,-5.75,15.25 l0,125 c0,6.33,-0.17,12.08,-0.5,17.25 c-0.33,5.17,-0.83,9.92,-1.5,14.25 c2.67,0.67,5.42,1.17,8.25,1.5 c2.83,0.33,5.92,0.5,9.25,0.5 c19.33,0,29.5,-3.67,30.5,-11 c1.33,-10.0,3.67,-20.08,7,-30.25 c3.33,-10.17,8.0,-20.92,14,-32.25 l2.5,0 c6.33,12.0,11.5,23.92,15.5,35.75 c4.0,11.83,6.67,23.75,8,35.75 c5.33,1.33,10.83,2,16.5,2 c17.67,0,26.5,-4.5,26.5,-13.5 l0,-132 c0,-11.67,1.0,-22.0,3,-31 c-5.0,-1.33,-11.0,-2,-18,-2 c-9.33,0,-15.75,1.5,-19.25,4.5 c-3.5,3.0,-5.25,7.67,-5.25,14 l0,18 c0,8.33,1.5,19.25,4.5,32.75 c3.0,13.5,5.83,32.92,8.5,58.25 l-3.5,0 c-5.67,-19.67,-11.83,-35.42,-18.5,-47.25 c-6.67,-11.83,-12.33,-20.25,-17,-25.25 l-2.5,0 c-1.67,0,-3.17,0.67,-4.5,2 c-3.67,3.67,-8.42,11.08,-14.25,22.25 c-5.83,11.17,-12.25,26.75,-19.25,46.75 l-2.5,0 c1.33,-16.33,3.0,-29.92,5,-40.75 c2.0,-10.83,3.75,-20.25,5.25,-28.25 c1.5,-8.0,2.25,-15.67,2.25,-23 Z M94,175.5 c-6.0,-2.0,-12.17,-3,-18.5,-3 c-10.0,0,-17.0,1.83,-21,5.5 c-4.0,3.67,-6,11.5,-6,23.5 l0,107.5 l-16.5,0 c-10.33,0,-17.42,2.42,-21.25,7.25 c-3.83,4.83,-5.75,11.42,-5.75,19.75 c0,2.67,0.25,5.08,0.75,7.25 c0.5,2.17,0.92,4.42,1.25,6.75 l104.5,0 c7.67,0,12.83,-2.33,15.5,-7 c2.67,-4.67,4,-10.83,4,-18.5 c0,-3.0,-0.17,-5.92,-0.5,-8.75 c-0.33,-2.83,-0.83,-5.08,-1.5,-6.75 l-50.5,0 l0,-2.5 c7.67,-7.33,11.5,-19.33,11.5,-36 l0,-59 c0,-7.67,0.33,-14.42,1,-20.25 c0.67,-5.83,1.67,-11.08,3,-15.75 Z M94,175.5" fill="rgb(0,0,0)" transform="matrix(3.1746031746031744,0.0,0.0,-3.1746031746031744,34.126984126984155,1330.952380952381)"/>
</svg>