<?xml version="1.0" encoding="UTF-8"?>
<svg width="1000" height="1000" viewBox="0 0 1000 1000" version="1.1" xmlns="http://www.w3.org/2000/svg" xmlns:xlink="http://www.w3.org/1999/xlink">
 <path d="M0,0 l1000,0 l0,1000 l-1000,0 Z M0,0" fill="rgb(242,242,242)" transform="matrix(1,0,0,-1,0,1000)"/>
 <path d="M528,126 l0,-126 l-448,0 l0,112 c0,57.33,16,99.67,48,127 c32,27.33,80.67,43.67,146,49 c28,2,50.33,4.67,67,8 c16.67,3.33,29.5,7.33,38.5,12 c9,4.67,15,9.67,18,15 c3,5.33,4.5,11.67,4.5,19 c0,15.33,-8.5,27.17,-25.5,35.5 c-17,8.33,-39.17,12.5,-66.5,12.5 c-29.33,0,-54.83,-6,-76.5,-18 c-21.67,-12,-37.5,-30.67,-47.5,-56 l-110,50 c20,48,51.17,84,93.5,108 c42.33,24,90.5,36,144.5,36 c34.67,0,65.5,-4.5,92.5,-13.5 c27,-9,50,-21.17,69,-36.5 c19,-15.33,33.5,-33.17,43.5,-53.5 c10,-20.33,15,-41.83,15,-64.5 c0,-21.33,-3,-40.67,-9,-58 c-6,-17.33,-16,-32.83,-30,-46.5 c-14,-13.67,-32.67,-25,-56,-34 c-23.33,-9,-52.67,-15.5,-88,-19.5 c-22,-2.67,-41.5,-5.17,-58.5,-7.5 c-17,-2.33,-31.5,-5.17,-43.5,-8.5 c-12,-3.33,-21.17,-7.83,-27.5,-13.5 c-6.33,-5.67,-9.5,-13.17,-9.5,-22.5 l0,-6 Z M528,126" fill="rgb(0,0,0)" transform="matrix(0.6172839506172839,0.0,0.0,-0.6172839506172839,310.1851851851852,741.358024691358)"/>
</svg>