<?xml version="1.0" encoding="UTF-8"?>
<svg width="1000" height="1000" viewBox="0 0 1000 1000" version="1.1" xmlns="http://www.w3.org/2000/svg" xmlns:xlink="http://www.w3.org/1999/xlink">
 <path d="M0,0 l1000,0 l0,1000 l-1000,0 Z M0,0" fill="rgb(242,242,242)" transform="matrix(1,0,0,-1,0,1000)"/>
 <path d="M557,126 l0,-126 l-492,0 l0,138 c0,36.67,5.5,68,16.5,94 c11,26,26.67,48,47,66 c20.33,18,44.83,32.83,73.5,44.5 c28.67,11.67,61,21.5,97,29.5 c26.67,6,48.5,12.83,65.5,20.5 c17,7.67,30.5,16.33,40.5,26 c10,9.67,16.83,20.33,20.5,32 c3.67,11.67,5.5,24.83,5.5,39.5 c0,28,-10.17,51.33,-30.5,70 c-20.33,18.67,-48.5,28,-84.5,28 c-38,0,-68.33,-11.5,-91,-34.5 c-22.67,-23,-34,-54.83,-34,-95.5 l0,-44 l-132,0 l0,56 c0,32.67,5.83,63.83,17.5,93.5 c11.67,29.67,28.33,55.67,50,78 c21.67,22.33,48.17,40,79.5,53 c31.33,13,66.67,19.5,106,19.5 c42,0,78.67,-6.17,110,-18.5 c31.33,-12.33,57.5,-28.5,78.5,-48.5 c21,-20,36.67,-43.17,47,-69.5 c10.33,-26.33,15.5,-53.5,15.5,-81.5 l0,-12 c0,-58.67,-16.5,-107.33,-49.5,-146 c-33,-38.67,-86.83,-66.67,-161.5,-84 c-31.33,-7.33,-57.17,-14.83,-77.5,-22.5 c-20.33,-7.67,-36.17,-16.17,-47.5,-25.5 c-11.33,-9.33,-19.17,-19.5,-23.5,-30.5 c-4.33,-11,-6.5,-23.5,-6.5,-37.5 l0,-12 Z M557,126" fill="rgb(0,0,0)" transform="matrix(0.6172839506172839,0.0,0.0,-0.6172839506172839,310.1851851851852,741.358024691358)"/>
</svg>