<?xml version="1.0" encoding="UTF-8"?>
<svg width="1000" height="1000" viewBox="0 0 1000 1000" version="1.1" xmlns="http://www.w3.org/2000/svg" xmlns:xlink="http://www.w3.org/1999/xlink">
 <path d="M0,0 l1000,0 l0,1000 l-1000,0 Z M0,0" fill="rgb(242,242,242)" transform="matrix(1,0,0,-1,0,1000)"/>
 <path d="M562.0,0.03 l-209.99,0 l0,72.0 l-18.0,0 c-9.33,-27.33,-25.17,-48.5,-47.5,-63.5 c-22.33,-15.0,-49.16,-22.5,-80.5,-22.5 c-49.33,0,-88.99,15.5,-118.99,46.5 c-30.0,31.0,-45.0,78.16,-45.0,141.49 l0,22.0 l129.99,12.0 l0,-14.0 c0,-27.33,7.0,-49.16,21.0,-65.5 c14.0,-16.33,35.0,-24.5,63.0,-24.5 c28.0,0,50.0,9.67,66.0,29.0 c16.0,19.33,24.0,47.0,24.0,82.99 l0,159.99 l-113.99,0 l0,119.99 l341.98,0 l0,-119.99 l-101.99,0 l0,-255.98 l89.99,0 Z M562.0,0.03" fill="rgb(0,0,0)" transform="matrix(0.6172839506172839,0.0,0.0,-0.6172839506172839,310.1851851851852,741.358024691358)"/>
</svg>