<?xml version="1.0" encoding="UTF-8"?>
<svg width="1000" height="1000" viewBox="0 0 1000 1000" version="1.1" xmlns="http://www.w3.org/2000/svg" xmlns:xlink="http://www.w3.org/1999/xlink">
 <path d="M0,0 l1000,0 l0,1000 l-1000,0 Z M0,0" fill="rgb(242,242,242)" transform="matrix(1,0,0,-1,0,1000)"/>
 <path d="M246.02,430.0 c8.0,24.0,22.17,43.33,42.5,58.0 c20.33,14.67,49.5,22.0,87.49,22.0 c28.66,0,53.83,-4.0,75.5,-12.0 c21.67,-8.0,39.83,-19.0,54.5,-33.0 c14.67,-14.0,25.67,-30.5,33.0,-49.5 c7.33,-19.0,11.0,-39.5,11.0,-61.5 l0,-6.0 c0,-24.0,-4.5,-45.66,-13.5,-65.0 c-9.0,-19.33,-21.17,-36.0,-36.5,-50.0 c-15.33,-14.0,-33.33,-24.67,-54.0,-32.0 c-20.67,-7.33,-42.66,-11.0,-66.0,-11.0 l-133.99,0 l0,-6.0 c0,-21.33,7.67,-39.66,23.0,-55.0 c15.33,-15.33,37.66,-23.0,67.0,-23.0 c22.0,0,41.33,5.5,58.0,16.5 c16.67,11.0,28.66,25.5,36.0,43.5 l101.99,-62.0 c-7.33,-14.67,-17.0,-29.16,-29.0,-43.5 c-12.0,-14.33,-26.5,-27.0,-43.5,-38.0 c-17.0,-11.0,-36.5,-19.83,-58.5,-26.5 c-22.0,-6.67,-46.66,-10.0,-74.0,-10.0 c-28.66,0,-55.66,4.67,-81.0,14.0 c-25.33,9.33,-47.33,22.5,-66.0,39.5 c-18.67,17.0,-33.33,37.16,-44.0,60.5 c-10.67,23.33,-16.0,49.33,-16.0,78.0 l0,167.99 c0,20.0,-9.0,30.0,-27.0,30.0 l-31.0,0 l0,119.99 l78.0,0 c24.0,0,44.33,-5.17,61.0,-15.5 c16.67,-10.33,25.67,-27.17,27.0,-50.5 Z M352.02,390.01 c-33.33,0,-59.33,-8.83,-78.0,-26.5 c-18.67,-17.67,-28.0,-39.5,-28.0,-65.5 l117.99,0 c18.0,0,31.5,4.33,40.5,13.0 c9.0,8.67,13.5,19.0,13.5,31.0 c0,14.0,-5.17,25.5,-15.5,34.5 c-10.33,9.0,-27.17,13.5,-50.5,13.5 Z M352.02,390.01" fill="rgb(0,0,0)" transform="matrix(0.6172839506172839,0.0,0.0,-0.6172839506172839,310.1851851851852,741.358024691358)"/>
</svg>