<?xml version="1.0" encoding="UTF-8"?>
<svg width="1000" height="1000" viewBox="0 0 1000 1000" version="1.1" xmlns="http://www.w3.org/2000/svg" xmlns:xlink="http://www.w3.org/1999/xlink">
 <path d="M0,0 l1000,0 l0,1000 l-1000,0 Z M0,0" fill="rgb(242,242,242)" transform="matrix(1,0,0,-1,0,1000)"/>
 <path d="M558,700 l0,-458 c0,-80,-21.17,-142.67,-63.5,-188 c-42.33,-45.33,-105.17,-68,-188.5,-68 c-83.33,0,-146.17,22.67,-188.5,68 c-42.33,45.33,-63.5,108,-63.5,188 l0,458 l132,0 l0,-458 c0,-41.33,9.67,-73.67,29,-97 c19.33,-23.33,49.67,-35,91,-35 c41.33,0,71.67,11.67,91,35 c19.33,23.33,29,55.67,29,97 l0,458 Z M476,910 l-84,-136 l-172,0 l-84,136 l121,0 l43,-88 l12,0 l43,88 Z M476,910" fill="rgb(0,0,0)" transform="matrix(0.6172839506172839,0.0,0.0,-0.6172839506172839,310.1851851851852,741.358024691358)"/>
</svg>