<?xml version="1.0" encoding="UTF-8"?>
<svg width="1000" height="1000" viewBox="0 0 1000 1000" version="1.1" xmlns="http://www.w3.org/2000/svg" xmlns:xlink="http://www.w3.org/1999/xlink">
 <path d="M215.5,180.5 l-114.5,0 c-6.33,0,-11.33,2.5,-15,7.5 c-3.67,5.0,-5.5,12.17,-5.5,21.5 l0,1.5 c0,16.0,3.67,31.25,11,45.75 c7.33,14.5,22.17,26.75,44.5,36.75 c17.67,8.0,29.08,14.75,34.25,20.25 c5.17,5.5,7.75,11.92,7.75,19.25 c0,2.0,-0.08,3.67,-0.25,5 c-0.17,1.33,-0.42,2.5,-0.75,3.5 c-6.67,7.67,-17.83,11.5,-33.5,11.5 c-9.67,0,-18.92,-1.42,-27.75,-4.25 c-8.83,-2.83,-17.08,-7.42,-24.75,-13.75 l-3,0 c-1.0,2.33,-1.67,5.33,-2,9 c-0.33,3.67,-0.5,7.0,-0.5,10 c0,4.67,0.5,9.08,1.5,13.25 c1.0,4.17,3.0,7.75,6,10.75 c4.67,4.67,11.33,8.5,20,11.5 c8.67,3.0,19.83,4.5,33.5,4.5 c24.0,0,42.17,-5.92,54.5,-17.75 c12.33,-11.83,18.5,-26.58,18.5,-44.25 l0,-3 c0,-13.33,-4.67,-25.25,-14,-35.75 c-9.33,-10.5,-23.5,-20.08,-42.5,-28.75 c-14.33,-6.33,-24.67,-12.67,-31,-19 c-6.33,-6.33,-10.67,-14.5,-13,-24.5 l3.5,-2.5 c5.33,1.0,11.17,1.83,17.5,2.5 c6.33,0.67,14.0,1,23,1 l28,0 c10.33,0,17.42,-1.5,21.25,-4.5 c3.83,-3.0,5.75,-8.33,5.75,-16 c0,-2.67,-0.25,-6.17,-0.75,-10.5 c-0.5,-4.33,-1.08,-7.83,-1.75,-10.5 Z M215.5,180.5" fill="rgb(0,0,0)" transform="matrix(4.215456674473068,0.0,0.0,-4.215456674473068,-132.31850117096025,1710.8899297423889)"/>
</svg>