<?xml version="1.0" encoding="UTF-8"?>
<svg width="1000" height="1000" viewBox="0 0 1000 1000" version="1.1" xmlns="http://www.w3.org/2000/svg" xmlns:xlink="http://www.w3.org/1999/xlink">
 <path d="M2,357.5 c18.33,0,27.5,-6.33,27.5,-19 c0,-13.0,-1.92,-26.0,-5.75,-39 c-3.83,-13.0,-9.42,-23.5,-16.75,-31.5 c-4.33,-4.33,-10.0,-6.5,-17,-6.5 c-8.33,0,-15.33,1.5,-21,4.5 c3.33,11.0,5.83,20.5,7.5,28.5 c1.67,8.0,2.83,16.5,3.5,25.5 c0.67,9.0,1,20.33,1,34 c7.33,2.33,14.33,3.5,21,3.5 Z M2,357.5" fill="rgb(0,0,0)" transform="matrix(9.375,0.0,0.0,-9.375,507.03125,3401.5625)"/>
</svg>