<?xml version="1.0" encoding="UTF-8"?>
<svg width="1000" height="1000" viewBox="0 0 1000 1000" version="1.1" xmlns="http://www.w3.org/2000/svg" xmlns:xlink="http://www.w3.org/1999/xlink">
 <path d="M0,0 l1000,0 l0,1000 l-1000,0 Z M0,0" fill="rgb(242,242,242)" transform="matrix(1,0,0,-1,0,1000)"/>
 <path d="M564,496 l-218,0 l-28,-375.98 l0,-60.0 l-24,0 l0,60.0 l-28,375.98 l-218,0 l-33,-495.97 l116,0 l22,375.98 l0,60.0 l24,0 l0,-60.0 l25,-375.98 l208,0 l25,375.98 l0,60.0 l24,0 l0,-60.0 l22,-375.98 l116,0 Z M564,496" fill="rgb(0,0,0)" transform="matrix(0.6172839506172839,0.0,0.0,-0.6172839506172839,310.1851851851852,741.358024691358)"/>
</svg>