<?xml version="1.0" encoding="UTF-8"?>
<svg width="1000" height="1000" viewBox="0 0 1000 1000" version="1.1" xmlns="http://www.w3.org/2000/svg" xmlns:xlink="http://www.w3.org/1999/xlink">
 <path d="M151,360 c40.0,0,70.08,-15.25,90.25,-45.75 c20.17,-30.5,30.25,-74.25,30.25,-131.25 l0,-11 c0,-30.0,-3.0,-56.67,-9,-80 c-6.0,-23.33,-14.67,-42.83,-26,-58.5 c-1.0,-1.67,-2.17,-3.33,-3.5,-5 c-8.67,-12.67,-16.0,-25.42,-22,-38.25 c-6.0,-12.83,-9,-25.42,-9,-37.75 c0,-9.33,2.08,-16.0,6.25,-20 c4.17,-4.0,9.92,-6,17.25,-6 c11.0,0,21.33,3.33,31,10 l3,0 c2.33,-4.0,3.83,-7.75,4.5,-11.25 c0.67,-3.5,1,-7.75,1,-12.75 c0,-12.33,-4.5,-21.67,-13.5,-28 c-9.0,-6.33,-21.33,-9.5,-37,-9.5 c-38.0,0,-57,19.33,-57,58 c0,10.33,1.67,20.67,5,31 c3.33,10.33,7.67,19.83,13,28.5 c-7.67,-1.67,-15.83,-2.5,-24.5,-2.5 c-40.67,0,-71.25,14.5,-91.75,43.5 c-20.5,29.0,-30.75,70.67,-30.75,125 l0,11 c0,60.0,10.83,106.75,32.5,140.25 c21.67,33.5,51.67,50.25,90,50.25 Z M81.5,152.5 c0,-25.0,2.42,-45.83,7.25,-62.5 c4.83,-16.67,10.42,-29.33,16.75,-38 c13.0,-6.0,26.5,-9,40.5,-9 c24.33,0,42.5,12.0,54.5,36 c12.0,24.0,18,57.67,18,101 l0,9 c0,27.33,-2.33,49.83,-7,67.5 c-4.67,17.67,-10.83,31.67,-18.5,42 c-6.33,3.33,-12.5,5.58,-18.5,6.75 c-6.0,1.17,-12.83,1.75,-20.5,1.75 c-24.33,0,-42.5,-12.83,-54.5,-38.5 c-12.0,-25.67,-18,-61.5,-18,-107.5 Z M81.5,152.5" fill="rgb(0,0,0)" transform="matrix(1.8556701030927836,0.0,0.0,-1.8556701030927836,221.64948453608244,718.0412371134021)"/>
</svg>