<?xml version="1.0" encoding="UTF-8"?>
<svg width="1000" height="1000" viewBox="0 0 1000 1000" version="1.1" xmlns="http://www.w3.org/2000/svg" xmlns:xlink="http://www.w3.org/1999/xlink">
 <path d="M0,0 l1000,0 l0,1000 l-1000,0 Z M0,0" fill="rgb(242,242,242)" transform="matrix(1,0,0,-1,0,1000)"/>
 <path d="M215,546 l-20,92 l0,12 l97,0 c2,-9.33,8.67,-14,20,-14 c6.67,0,11.67,2.17,15,6.5 c3.33,4.33,5,9.5,5,15.5 c0,8,-3.17,14.33,-9.5,19 c-6.33,4.67,-14.5,7,-24.5,7 c-18,0,-34.67,-4.67,-50,-14 l-26,68 c11.33,6,23.33,10.83,36,14.5 c12.67,3.67,28.67,5.5,48,5.5 c31.33,0,57.5,-8.83,78.5,-26.5 c21,-17.67,31.5,-42.17,31.5,-73.5 c0,-24,-6.83,-44.67,-20.5,-62 c-13.67,-17.33,-34.5,-26,-62.5,-26 c-12.67,0,-22.67,2.17,-30,6.5 c-7.33,4.33,-12.67,9.5,-16,15.5 l-12,0 l10,-46 Z M215,546" fill="rgb(0,0,0)" transform="matrix(0.6172839506172839,0.0,0.0,-0.6172839506172839,310.1851851851852,741.358024691358)"/>
</svg>