<?xml version="1.0" encoding="UTF-8"?>
<svg width="1000" height="1000" viewBox="0 0 1000 1000" version="1.1" xmlns="http://www.w3.org/2000/svg" xmlns:xlink="http://www.w3.org/1999/xlink">
 <path d="M27,340.5 c3.0,1.67,6.42,2.92,10.25,3.75 c3.83,0.83,8.42,1.25,13.75,1.25 c18.67,0,28,-10.0,28,-30 c0,-14.0,-2.33,-25.42,-7,-34.25 c-4.67,-8.83,-11.0,-15.92,-19,-21.25 c-7.33,-5.0,-14.67,-8.5,-22,-10.5 c-7.33,-2.0,-14.5,-3,-21.5,-3 l-9,0 l0,22 c3.33,0,6.67,0.42,10,1.25 c3.33,0.83,6.67,2.25,10,4.25 c3.67,2.33,6.58,5.92,8.75,10.75 c2.17,4.83,3.25,11.75,3.25,20.75 c0,12.67,-1.83,24.33,-5.5,35 Z M27,340.5" fill="rgb(0,0,0)" transform="matrix(9.090909090909092,0.0,0.0,-9.090909090909092,138.63636363636357,3190.909090909091)"/>
</svg>