<?xml version="1.0" encoding="UTF-8"?>
<svg width="1000" height="1000" viewBox="0 0 1000 1000" version="1.1" xmlns="http://www.w3.org/2000/svg" xmlns:xlink="http://www.w3.org/1999/xlink">
 <path d="M125.5,299 c-5.0,0,-7.5,3.33,-7.5,10 c0,3.67,0.25,7.83,0.75,12.5 c0.5,4.67,1.42,9.17,2.75,13.5 c9.0,0.67,16.25,3.42,21.75,8.25 c5.5,4.83,8.25,11.58,8.25,20.25 l0,2.5 c0,9.67,-2.67,16.67,-8,21 c-2.33,1.67,-5.0,2.83,-8,3.5 c-3.0,0.67,-6.17,1,-9.5,1 c-4.0,0,-6,2.67,-6,8 c0,8.0,1.5,16.0,4.5,24 c17.67,0,32.42,-5.42,44.25,-16.25 c11.83,-10.83,17.75,-25.08,17.75,-42.75 l0,-3.5 c0,-18.33,-6.0,-33.25,-18,-44.75 c-12.0,-11.5,-26.33,-17.25,-43,-17.25 Z M125.5,299" fill="rgb(0,0,0)" transform="matrix(7.228915662650603,0.0,0.0,-7.228915662650603,-600.6024096385543,3111.4457831325303)"/>
</svg>