<?xml version="1.0" encoding="UTF-8"?>
<svg width="1000" height="1000" viewBox="0 0 1000 1000" version="1.1" xmlns="http://www.w3.org/2000/svg" xmlns:xlink="http://www.w3.org/1999/xlink">
 <path d="M0,0 l1000,0 l0,1000 l-1000,0 Z M0,0" fill="rgb(242,242,242)" transform="matrix(1,0,0,-1,0,1000)"/>
 <path d="M564,242 c0,-36.67,-5.67,-69.67,-17,-99 c-11.33,-29.33,-26.83,-54.67,-46.5,-76 c-19.67,-21.33,-42.67,-38.67,-69,-52 c-26.33,-13.33,-54.17,-22,-83.5,-26 l-10,-45 c-0.67,-3.33,-1,-6,-1,-8 c0,-14.67,7.67,-22,23,-22 l46,0 l0,-84 l-80,0 c-20,0,-38.33,6.33,-55,19 c-16.67,12.67,-25,31.33,-25,56 c0,6,1,13.67,3,23 l14,61 c-29.33,4,-57.17,12.67,-83.5,26 c-26.33,13.33,-49.17,30.67,-68.5,52 c-19.33,21.33,-34.67,46.67,-46,76 c-11.33,29.33,-17,62.33,-17,99 l0,12 c0,40.67,7,76.83,21,108.5 c14,31.67,33,58.5,57,80.5 c24,22,51.5,38.67,82.5,50 c31,11.33,63.5,17,97.5,17 c34,0,66.5,-5.67,97.5,-17 c31,-11.33,58.5,-28,82.5,-50 c24,-22,43,-48.83,57,-80.5 c14,-31.67,21,-67.83,21,-108.5 Z M306,106 c18,0,35,3,51,9 c16,6,30,14.67,42,26 c12,11.33,21.5,25.17,28.5,41.5 c7,16.33,10.5,34.83,10.5,55.5 l0,20 c0,20.67,-3.5,39.17,-10.5,55.5 c-7,16.33,-16.5,30.17,-28.5,41.5 c-12,11.33,-26,20,-42,26 c-16,6,-33,9,-51,9 c-18,0,-35,-3,-51,-9 c-16,-6,-30,-14.67,-42,-26 c-12,-11.33,-21.5,-25.17,-28.5,-41.5 c-7,-16.33,-10.5,-34.83,-10.5,-55.5 l0,-20 c0,-20.67,3.5,-39.17,10.5,-55.5 c7,-16.33,16.5,-30.17,28.5,-41.5 c12,-11.33,26,-20,42,-26 c16,-6,33,-9,51,-9 Z M306,106" fill="rgb(0,0,0)" transform="matrix(0.6172839506172839,0.0,0.0,-0.6172839506172839,310.1851851851852,741.358024691358)"/>
</svg>