<?xml version="1.0" encoding="UTF-8"?>
<svg width="1000" height="1000" viewBox="0 0 1000 1000" version="1.1" xmlns="http://www.w3.org/2000/svg" xmlns:xlink="http://www.w3.org/1999/xlink">
 <path d="M35.5,351.5 c8.0,2.0,15.5,3,22.5,3 c14.67,0,24.58,-3.92,29.75,-11.75 c5.17,-7.83,7.75,-17.75,7.75,-29.75 l0,-148 l3,0 c22.0,15.33,43.17,36.33,63.5,63 c12.33,15.33,23.58,33.5,33.75,54.5 c10.17,21.0,18.75,45.17,25.75,72.5 l7.5,0 c15.67,0,27.08,-2.5,34.25,-7.5 c7.17,-5.0,10.75,-10.67,10.75,-17 c0,-6.67,-1.08,-14.5,-3.25,-23.5 c-2.17,-9.0,-7.42,-22.17,-15.75,-39.5 c-8.67,-19.33,-20.33,-37.67,-35,-55 c-14.67,-17.33,-31.0,-33.17,-49,-47.5 c9.67,-15.33,19.25,-30.67,28.75,-46 c9.5,-15.33,19.08,-30.67,28.75,-46 c5.33,-9.0,10.67,-15.33,16,-19 c5.33,-3.67,10.67,-5.5,16,-5.5 c9.0,0,16.0,2.33,21,7 l2.5,0 c1.0,-4.33,1.67,-8.58,2,-12.75 c0.33,-4.17,0.5,-9.25,0.5,-15.25 c0,-13.33,-3.0,-23.0,-9,-29 c-6.33,-5.67,-15.0,-8.5,-26,-8.5 c-11.33,0,-21.5,3.08,-30.5,9.25 c-9.0,6.17,-18.0,16.42,-27,30.75 c-11.33,17.67,-22.17,35.5,-32.5,53.5 c-10.33,18.0,-19.33,36.17,-27,54.5 l-3,0 c-12.0,-7.0,-24.0,-13.17,-36,-18.5 l0,-121.5 c-3.33,-0.67,-6.5,-1.25,-9.5,-1.75 c-3.0,-0.5,-6.33,-0.75,-10,-0.75 c-11.33,0,-20.0,2.83,-26,8.5 c-6.0,5.67,-9,16.5,-9,32.5 l0,260.5 c0,9.67,-0.42,19.08,-1.25,28.25 c-0.83,9.17,-2.25,17.92,-4.25,26.25 Z M144,-34.5 c7.0,2.67,14.0,4,21,4 c10.33,0,17.92,-1.67,22.75,-5 c4.83,-3.33,7.25,-8.83,7.25,-16.5 c0,-12.67,-2.08,-25.25,-6.25,-37.75 c-4.17,-12.5,-9.08,-22.92,-14.75,-31.25 c-3.0,-4.33,-6.0,-7.25,-9,-8.75 c-3.0,-1.5,-6.5,-2.25,-10.5,-2.25 c-11.0,0,-20.67,2.17,-29,6.5 c7.0,13.67,11.83,27.42,14.5,41.25 c2.67,13.83,4,30.42,4,49.75 Z M144,-34.5" fill="rgb(0,0,0)" transform="matrix(1.8480492813141685,0.0,0.0,-1.8480492813141685,202.46406570841887,706.0574948665297)"/>
</svg>