<?xml version="1.0" encoding="UTF-8"?>
<svg width="1000" height="1000" viewBox="0 0 1000 1000" version="1.1" xmlns="http://www.w3.org/2000/svg" xmlns:xlink="http://www.w3.org/1999/xlink">
 <path d="M0,0 l1000,0 l0,1000 l-1000,0 Z M0,0" fill="rgb(242,242,242)" transform="matrix(1,0,0,-1,0,1000)"/>
 <path d="M424,289 c-0.67,14.67,-4.17,28.17,-10.5,40.5 c-6.33,12.33,-15,23,-26,32 c-11,9,-23.67,16,-38,21 c-14.33,5,-29.5,7.5,-45.5,7.5 c-29.33,0,-53,-6,-71,-18 c-18,-12,-31.67,-26,-41,-42 l-94,72 c8.67,14,19.33,27.5,32,40.5 c12.67,13,27.5,24.5,44.5,34.5 c17,10,36.17,18,57.5,24 c21.33,6,44.67,9,70,9 c36,0,69.33,-5.83,100,-17.5 c30.67,-11.67,57.33,-28.83,80,-51.5 c22.67,-22.67,40.33,-50.33,53,-83 c12.67,-32.67,19,-70,19,-112 l0,-6 c0,-38,-6.5,-72.67,-19.5,-104 c-13,-31.33,-30.83,-58,-53.5,-80 c-22.67,-22,-49.17,-39.17,-79.5,-51.5 c-30.33,-12.33,-62.83,-18.5,-97.5,-18.5 c-42.67,0,-79.33,7.33,-110,22 c-30.67,14.67,-56,33.5,-76,56.5 c-20,23,-34.67,48.5,-44,76.5 c-9.33,28,-14,55,-14,81 l0,67 Z M305,100 c32,0,58,8.17,78,24.5 c20,16.33,33,35.17,39,56.5 l-234,0 c4,-23.33,16.5,-42.67,37.5,-58 c21,-15.33,47.5,-23,79.5,-23 Z M305,100" fill="rgb(0,0,0)" transform="matrix(0.6172839506172839,0.0,0.0,-0.6172839506172839,310.1851851851852,741.358024691358)"/>
</svg>