<?xml version="1.0" encoding="UTF-8"?>
<svg width="1000" height="1000" viewBox="0 0 1000 1000" version="1.1" xmlns="http://www.w3.org/2000/svg" xmlns:xlink="http://www.w3.org/1999/xlink">
 <path d="M220.5,377.5 c9.33,3.33,20.83,5,34.5,5 c12.33,0,22.25,-2.08,29.75,-6.25 c7.5,-4.17,11.25,-11.25,11.25,-21.25 l0,-32 c-4.33,-1.67,-9.17,-2.92,-14.5,-3.75 c-5.33,-0.83,-10.83,-1.25,-16.5,-1.25 c-13.33,0,-24.08,2.83,-32.25,8.5 c-8.17,5.67,-12.25,13.5,-12.25,23.5 Z M66.5,-1 c-2.0,-0.33,-3.83,-0.58,-5.5,-0.75 c-1.67,-0.17,-3.5,-0.25,-5.5,-0.25 c-10.67,0,-19.33,3.0,-26,9 c-6.67,6.0,-10,15.33,-10,28 l0,185.5 c0,19.67,-2.33,35.33,-7,47 c2.33,0.67,4.5,1.25,6.5,1.75 c2.0,0.5,4.17,0.75,6.5,0.75 c13.67,0,23.92,-4.83,30.75,-14.5 c6.83,-9.67,10.25,-26.83,10.25,-51.5 l0,-6.5 l3,0 c7.67,25.0,16.75,43.75,27.25,56.25 c10.5,12.5,23.08,18.75,37.75,18.75 c9.67,0,17.83,-4.17,24.5,-12.5 c6.67,-8.33,11.75,-18.5,15.25,-30.5 c3.5,-12.0,5.25,-23.5,5.25,-34.5 l0,-123 c0,-14.33,0.5,-26.67,1.5,-37 c1.0,-10.33,2.83,-22.0,5.5,-35 c-4.33,-1.33,-9.33,-2,-15,-2 c-7.67,0,-14.58,1.83,-20.75,5.5 c-6.17,3.67,-11.08,10.33,-14.75,20 c-3.67,9.67,-5.5,23.33,-5.5,41 c0,20.67,0.75,40.75,2.25,60.25 c1.5,19.5,3.92,41.75,7.25,66.75 c-2.33,15.67,-8.67,23.5,-19,23.5 c-5.33,0,-10.92,-2.75,-16.75,-8.25 c-5.83,-5.5,-11.83,-15.92,-18,-31.25 c-6.17,-15.33,-12.75,-37.67,-19.75,-67 Z M251.5,272 c9.67,0,18.42,-2.0,26.25,-6 c7.83,-4.0,11.75,-10.17,11.75,-18.5 l0,-249 c0,-25.0,-2.67,-46.75,-8,-65.25 c-5.33,-18.5,-14.0,-32.83,-26,-43 c-12.0,-10.17,-28.17,-15.25,-48.5,-15.25 c-24.67,0,-42.0,5.5,-52,16.5 c-7.33,7.33,-11,19.0,-11,35 c0,5.67,0.5,10.67,1.5,15 l3,0 c9.0,-5.33,17.42,-8.92,25.25,-10.75 c7.83,-1.83,16.75,-2.75,26.75,-2.75 c15.0,0,27.0,3.5,36,10.5 c2.67,6.67,4.25,15.0,4.75,25 c0.5,10.0,0.75,22.17,0.75,36.5 l0,220 l-3,1.5 c-8.33,-2.33,-15.42,-4.42,-21.25,-6.25 c-5.83,-1.83,-11.42,-2.75,-16.75,-2.75 c-5.67,0,-10.25,2.83,-13.75,8.5 c-3.5,5.67,-5.25,14.17,-5.25,25.5 c0,7.67,0.83,14.5,2.5,20.5 c12.67,1.67,23.67,2.92,33,3.75 c9.33,0.83,20.67,1.25,34,1.25 Z M251.5,272" fill="rgb(0,0,0)" transform="matrix(1.7733990147783252,0.0,0.0,-1.7733990147783252,226.45320197044336,728.3251231527094)"/>
</svg>