<?xml version="1.0" encoding="UTF-8"?>
<svg width="1000" height="1000" viewBox="0 0 1000 1000" version="1.1" xmlns="http://www.w3.org/2000/svg" xmlns:xlink="http://www.w3.org/1999/xlink">
 <path d="M0,0 l1000,0 l0,1000 l-1000,0 Z M0,0" fill="rgb(242,242,242)" transform="matrix(1,0,0,-1,0,1000)"/>
 <path d="M294,-248 c0,-25.33,-8.67,-46.67,-26,-64 c-17.33,-17.33,-38.67,-26,-64,-26 l-60,0 l0,78 l45,0 c18,0,27,10,27,30 l0,12 l-9,0 c-12,0,-23.17,2.33,-33.5,7 c-10.33,4.67,-19.5,11,-27.5,19 c-8,8,-14.33,17.17,-19,27.5 c-4.67,10.33,-7,21.5,-7,33.5 c0,12,2.33,23.17,7,33.5 c4.67,10.33,11,19.5,19,27.5 c8,8,17.17,14.33,27.5,19 c10.33,4.67,21.5,7,33.5,7 c12,0,23.17,-2.33,33.5,-7 c10.33,-4.67,19.5,-11,27.5,-19 c8,-8,14.33,-17.17,19,-27.5 c4.67,-10.33,7,-21.5,7,-33.5 Z M54,496 l210,0 l0,-72 l18,0 c9.33,27.33,25.17,48.5,47.5,63.5 c22.33,15,49.17,22.5,80.5,22.5 c49.33,0,89,-15.5,119,-46.5 c30,-31,45,-78.17,45,-141.5 l0,-22 l-130,-12 l0,14 c0,27.33,-7,49.17,-21,65.5 c-14,16.33,-35,24.5,-63,24.5 c-28,0,-50,-9.67,-66,-29 c-16,-19.33,-24,-47,-24,-83 l0,-160 l114,0 l0,-120 l-342,0 l0,120 l102,0 l0,256 l-90,0 Z M54,496" fill="rgb(0,0,0)" transform="matrix(0.6172839506172839,0.0,0.0,-0.6172839506172839,310.1851851851852,741.358024691358)"/>
</svg>