<?xml version="1.0" encoding="UTF-8"?>
<svg width="1000" height="1000" viewBox="0 0 1000 1000" version="1.1" xmlns="http://www.w3.org/2000/svg" xmlns:xlink="http://www.w3.org/1999/xlink">
 <path d="M106.5,-51.5 c0,6.0,0.67,12.92,2,20.75 c1.33,7.83,3.83,16.75,7.5,26.75 c-15.33,2.0,-28.08,5.33,-38.25,10 c-10.17,4.67,-17.75,9.5,-22.75,14.5 c-8.0,8.0,-12,17.17,-12,27.5 l0,250 c-4.67,-0.67,-7.83,-1,-9.5,-1 c-12.33,0,-18.5,11.67,-18.5,35 c0,7.0,0.67,13.0,2,18 c19.67,3.33,39.0,5.75,58,7.25 c19.0,1.5,37.17,2.42,54.5,2.75 c0.33,6.67,0.5,13.17,0.5,19.5 c0,13.67,-1.0,26.67,-3,39 c4.33,1.67,8.67,2.83,13,3.5 c4.33,0.67,9.33,1,15,1 c10.67,0,18.33,-1.75,23,-5.25 c4.67,-3.5,7,-9.92,7,-19.25 c0,-5.67,-0.75,-12.0,-2.25,-19 c-1.5,-7.0,-3.58,-14.33,-6.25,-22 c20.0,-3.33,36.67,-9.92,50,-19.75 c13.33,-9.83,23.33,-21.58,30,-35.25 c6.67,-13.67,10,-27.83,10,-42.5 l0,-6.5 c0,-20.0,-4.75,-37.67,-14.25,-53 c-9.5,-15.33,-22.25,-27.83,-38.25,-37.5 l0,-3 c15.67,-5.33,27.83,-13.33,36.5,-24 c8.67,-10.67,13,-22.83,13,-36.5 l0,-6 c0,-19.0,-4.42,-35.33,-13.25,-49 c-8.83,-13.67,-21.0,-24.5,-36.5,-32.5 c-15.5,-8.0,-32.92,-13.17,-52.25,-15.5 c-0.67,-11.0,-1,-22.0,-1,-33 c0,-13.0,1.0,-25.33,3,-37 c-3.33,-0.67,-7.17,-1.33,-11.5,-2 c-4.33,-0.67,-9.67,-1,-16,-1 c-9.33,0,-16.58,1.92,-21.75,5.75 c-5.17,3.83,-7.75,10.25,-7.75,19.25 Z M99,258.5 l0,-73.5 c4.67,-1.67,11.5,-2.5,20.5,-2.5 c29.33,0,52.33,6.08,69,18.25 c16.67,12.17,25,29.92,25,53.25 l0,5 c0,15.0,-3.17,27.67,-9.5,38 c-8.33,3.67,-17.67,6.25,-28,7.75 c-10.33,1.5,-22.17,2.25,-35.5,2.25 c-10.0,0,-19.5,-0.33,-28.5,-1 c-9.0,-0.67,-17.5,-1.33,-25.5,-2 l-1,-3 c9.0,-9.0,13.5,-23.17,13.5,-42.5 Z M99,51.5 c4.33,-2.0,9.25,-3.5,14.75,-4.5 c5.5,-1.0,12.92,-1.5,22.25,-1.5 c21.0,0,38.67,4.33,53,13 c14.33,8.67,21.5,22.67,21.5,42 l0,5.5 c0,8.67,-2.5,16.5,-7.5,23.5 c-5.0,7.0,-12.83,13.17,-23.5,18.5 c-16.33,-4.67,-33.5,-7,-51.5,-7 c-11.67,0,-20.33,2.83,-26,8.5 l-3,-0.5 Z M99,51.5" fill="rgb(0,0,0)" transform="matrix(1.8018018018018018,0.0,0.0,-1.8018018018018018,246.3963963963964,812.1621621621622)"/>
</svg>