<?xml version="1.0" encoding="UTF-8"?>
<svg width="1000" height="1000" viewBox="0 0 1000 1000" version="1.1" xmlns="http://www.w3.org/2000/svg" xmlns:xlink="http://www.w3.org/1999/xlink">
 <path d="M217.5,340 c0,-23.0,-12.33,-39.33,-37,-49 l0,-2.5 c14.33,-4.33,24.5,-10.58,30.5,-18.75 c6.0,-8.17,9,-18.25,9,-30.25 l0,-1.5 c0,-17.67,-7.08,-32.08,-21.25,-43.25 c-14.17,-11.17,-32.08,-16.75,-53.75,-16.75 c-15.33,0,-27.33,1.75,-36,5.25 c-8.67,3.5,-15.33,7.42,-20,11.75 c-5.67,5.67,-8.5,14.17,-8.5,25.5 c0,6.33,1.33,12.67,4,19 l3,0 c7.0,-6.33,14.67,-11.33,23,-15 c8.33,-3.67,18.0,-5.5,29,-5.5 c10.67,0,20.25,1.75,28.75,5.25 c8.5,3.5,13.92,9.92,16.25,19.25 c-2.0,6.67,-7.17,12.58,-15.5,17.75 c-8.33,5.17,-20.17,8.08,-35.5,8.75 c-8.67,0.33,-13,7.0,-13,20 c0,5.33,0.5,9.67,1.5,13 c31.0,1.67,50.5,10.5,58.5,26.5 c-1.33,7.67,-5.67,13.5,-13,17.5 c-7.33,4.0,-16.33,6,-27,6 c-10.67,0,-19.92,-1.75,-27.75,-5.25 c-7.83,-3.5,-15.25,-8.92,-22.25,-16.25 l-3,0 c-1.33,3.0,-2.17,5.83,-2.5,8.5 c-0.33,2.67,-0.5,5.67,-0.5,9 c0,5.0,0.75,9.92,2.25,14.75 c1.5,4.83,4.08,9.08,7.75,12.75 c4.33,4.33,10.67,8.33,19,12 c8.33,3.67,19.0,5.5,32,5.5 c23.67,0,41.58,-5.08,53.75,-15.25 c12.17,-10.17,18.25,-22.25,18.25,-36.25 Z M217.5,340" fill="rgb(0,0,0)" transform="matrix(4.166666666666667,0.0,0.0,-4.166666666666667,-126.04166666666669,1691.6666666666667)"/>
</svg>