<?xml version="1.0" encoding="UTF-8"?>
<svg width="1000" height="1000" viewBox="0 0 1000 1000" version="1.1" xmlns="http://www.w3.org/2000/svg" xmlns:xlink="http://www.w3.org/1999/xlink">
 <path d="M89,-1 c-2.33,-0.33,-4.92,-0.83,-7.75,-1.5 c-2.83,-0.67,-6.08,-1,-9.75,-1 c-22.0,0,-33,12.5,-33,37.5 l0,263 c0,8.0,-0.33,16.92,-1,26.75 c-0.67,9.83,-2.0,19.08,-4,27.75 c5.67,1.33,10.58,2.17,14.75,2.5 c4.17,0.33,8.58,0.5,13.25,0.5 c17.67,0,30.42,-2.92,38.25,-8.75 c7.83,-5.83,13.42,-16.42,16.75,-31.75 c9.0,-41.0,21.33,-80.5,37,-118.5 c15.67,-38.0,37.17,-77.67,64.5,-119 l3,0 c-3.0,32.33,-4.92,63.25,-5.75,92.75 c-0.83,29.5,-1.25,60.92,-1.25,94.25 l0,88.5 c4.0,1.67,9.67,2.5,17,2.5 c9.67,0,17.58,-2.58,23.75,-7.75 c6.17,-5.17,9.25,-13.58,9.25,-25.25 l0,-267.5 c0,-9.33,0.25,-18.67,0.75,-28 c0.5,-9.33,1.42,-18.5,2.75,-27.5 c-3.33,-1.0,-6.5,-1.83,-9.5,-2.5 c-3.0,-0.67,-6.33,-1,-10,-1 c-7.33,0,-13.75,0.92,-19.25,2.75 c-5.5,1.83,-10.75,4.92,-15.75,9.25 c-13.67,13.0,-28.42,31.83,-44.25,56.5 c-15.83,24.67,-31.08,54.33,-45.75,89 c-14.67,34.67,-27.33,73.5,-38,116.5 l-3.5,0 c3.67,-35.0,5.83,-71.42,6.5,-109.25 c0.67,-37.83,1,-74.42,1,-109.75 Z M130.5,-34.5 c7.0,2.67,14.0,4,21,4 c10.33,0,17.92,-1.67,22.75,-5 c4.83,-3.33,7.25,-8.83,7.25,-16.5 c0,-12.67,-2.08,-25.25,-6.25,-37.75 c-4.17,-12.5,-9.08,-22.92,-14.75,-31.25 c-3.0,-4.33,-6.0,-7.25,-9,-8.75 c-3.0,-1.5,-6.5,-2.25,-10.5,-2.25 c-11.0,0,-20.67,2.17,-29,6.5 c7.0,13.67,11.83,27.42,14.5,41.25 c2.67,13.83,4,30.42,4,49.75 Z M130.5,-34.5" fill="rgb(0,0,0)" transform="matrix(1.8499486125385407,0.0,0.0,-1.8499486125385407,221.58273381294964,705.8067831449126)"/>
</svg>