<?xml version="1.0" encoding="UTF-8"?>
<svg width="1000" height="1000" viewBox="0 0 1000 1000" version="1.1" xmlns="http://www.w3.org/2000/svg" xmlns:xlink="http://www.w3.org/1999/xlink">
 <path d="M0,0 l1000,0 l0,1000 l-1000,0 Z M0,0" fill="rgb(242,242,242)" transform="matrix(1,0,0,-1,0,1000)"/>
 <path d="M402,-248 c0,-25.33,-8.67,-46.67,-26,-64 c-17.33,-17.33,-38.67,-26,-64,-26 l-60,0 l0,78 l45,0 c18,0,27,10,27,30 l0,12 l-9,0 c-12,0,-23.17,2.33,-33.5,7 c-10.33,4.67,-19.5,11,-27.5,19 c-8,8,-14.33,17.17,-19,27.5 c-4.67,10.33,-7,21.5,-7,33.5 c0,12,2.33,23.17,7,33.5 c4.67,10.33,11,19.5,19,27.5 c8,8,17.17,14.33,27.5,19 c10.33,4.67,21.5,7,33.5,7 c12,0,23.17,-2.33,33.5,-7 c10.33,-4.67,19.5,-11,27.5,-19 c8,-8,14.33,-17.17,19,-27.5 c4.67,-10.33,7,-21.5,7,-33.5 Z M204,0 l-126,0 l0,496 l126,0 l0,-74 l18,0 c11.33,28,29.67,49.67,55,65 c25.33,15.33,55,23,89,23 c24,0,46.5,-3.83,67.5,-11.5 c21,-7.67,39.5,-19.5,55.5,-35.5 c16,-16,28.5,-36.33,37.5,-61 c9,-24.67,13.5,-54,13.5,-88 l0,-314 l-126,0 l0,282 c0,35.33,-8.5,63.17,-25.5,83.5 c-17,20.33,-41.5,30.5,-73.5,30.5 c-37.33,0,-65.17,-12.5,-83.5,-37.5 c-18.33,-25,-27.5,-58.5,-27.5,-100.5 Z M204,0" fill="rgb(0,0,0)" transform="matrix(0.6172839506172839,0.0,0.0,-0.6172839506172839,310.1851851851852,741.358024691358)"/>
</svg>