<?xml version="1.0" encoding="UTF-8"?>
<svg width="1000" height="1000" viewBox="0 0 1000 1000" version="1.1" xmlns="http://www.w3.org/2000/svg" xmlns:xlink="http://www.w3.org/1999/xlink">
 <path d="M0,0 l1000,0 l0,1000 l-1000,0 Z M0,0" fill="rgb(242,242,242)" transform="matrix(1,0,0,-1,0,1000)"/>
 <path d="M575,0 l-136,0 l-124,400 l-18,0 l-124,-400 l-136,0 l164,496 l42,0 l0,114 c0,27.33,8.17,49.17,24.5,65.5 c16.33,16.33,38.17,24.5,65.5,24.5 l204,0 l0,-120 l-141,0 c-18,0,-27,-10,-27,-30 l0,-54 l42,0 Z M575,0" fill="rgb(0,0,0)" transform="matrix(0.6172839506172839,0.0,0.0,-0.6172839506172839,310.1851851851852,741.358024691358)"/>
</svg>