<?xml version="1.0" encoding="UTF-8"?>
<svg width="1000" height="1000" viewBox="0 0 1000 1000" version="1.1" xmlns="http://www.w3.org/2000/svg" xmlns:xlink="http://www.w3.org/1999/xlink">
 <path d="M90,407 c4.67,-17.67,11.67,-33.08,21,-46.25 c9.33,-13.17,22.0,-26.58,38,-40.25 c-4.0,-2.67,-8.25,-4.58,-12.75,-5.75 c-4.5,-1.17,-9.08,-1.75,-13.75,-1.75 c-12.67,0,-23.67,3.0,-33,9 c-10.33,6.33,-19.67,14.5,-28,24.5 c-8.33,10.0,-14.33,21.17,-18,33.5 c-1.0,4.0,-1.0,7.92,0,11.75 c1.0,3.83,3.67,6.75,8,8.75 c8.67,4.33,21.5,6.5,38.5,6.5 Z M181,407 c4.67,-17.67,11.75,-33.08,21.25,-46.25 c9.5,-13.17,22.08,-26.58,37.75,-40.25 c-7.33,-5.0,-16.17,-7.5,-26.5,-7.5 c-12.33,0,-23.33,3.0,-33,9 c-10.33,6.33,-19.67,14.5,-28,24.5 c-8.33,10.0,-14.17,21.17,-17.5,33.5 c-1.33,4.0,-1.42,7.92,-0.25,11.75 c1.17,3.83,3.75,6.75,7.75,8.75 c9.0,4.33,21.83,6.5,38.5,6.5 Z M33,53 l113.5,0 l1,2.5 c-8.33,9.67,-12.5,25.0,-12.5,46 l0,127 l-2,2 c-20.67,-6.0,-37.17,-10.58,-49.5,-13.75 c-12.33,-3.17,-21.33,-4.75,-27,-4.75 c-6.33,0,-11.67,2.75,-16,8.25 c-4.33,5.5,-6.5,13.92,-6.5,25.25 c0,8.0,1.17,15.17,3.5,21.5 c15.67,1.67,32.58,2.92,50.75,3.75 c18.17,0.83,33.75,1.25,46.75,1.25 c18.33,0,31.75,-2.42,40.25,-7.25 c8.5,-4.83,12.75,-14.58,12.75,-29.25 l0,-182.5 c31.0,-0.67,54.42,-4.67,70.25,-12 c15.83,-7.33,23.75,-16.33,23.75,-27 c0,-2.67,-0.25,-5.08,-0.75,-7.25 c-0.5,-2.17,-1.08,-4.42,-1.75,-6.75 l-211.5,0 c-15.0,0,-24.92,2.75,-29.75,8.25 c-4.83,5.5,-7.25,14.92,-7.25,28.25 c0,6.67,0.67,12.17,2,16.5 Z M33,53" fill="rgb(0,0,0)" transform="matrix(2.211302211302211,0.0,0.0,-2.211302211302211,153.93120393120392,950.0)"/>
</svg>