<?xml version="1.0" encoding="UTF-8"?>
<svg width="1000" height="1000" viewBox="0 0 1000 1000" version="1.1" xmlns="http://www.w3.org/2000/svg" xmlns:xlink="http://www.w3.org/1999/xlink">
 <path d="M0,0 l1000,0 l0,1000 l-1000,0 Z M0,0" fill="rgb(242,242,242)" transform="matrix(1,0,0,-1,0,1000)"/>
 <path d="M48,380 l384,0 l0,58 c0,20.67,-2.5,40.5,-7.5,59.5 c-5,19,-12.83,35.67,-23.5,50 c-10.67,14.33,-24,25.67,-40,34 c-16,8.33,-35,12.5,-57,12.5 c-24,0,-44,-4.17,-60,-12.5 c-16,-8.33,-28.67,-19.17,-38,-32.5 c-9.33,-13.33,-16,-28.33,-20,-45 c-4,-16.67,-6,-33.33,-6,-50 l0,-6 l-132,0 l0,6 c0,80,21.83,143.33,65.5,190 c43.67,46.67,107.17,70,190.5,70 c40,0,76,-6.5,108,-19.5 c32,-13,59.33,-31.67,82,-56 c22.67,-24.33,40,-54.33,52,-90 c12,-35.67,18,-75.83,18,-120.5 l0,-156 c0,-93.33,-23.33,-164.33,-70,-213 c-46.67,-48.67,-110,-73,-190,-73 c-83.33,0,-146.83,22.67,-190.5,68 c-43.67,45.33,-65.5,111.33,-65.5,198 Z M304,106 c23.33,0,43.17,3.67,59.5,11 c16.33,7.33,29.5,17.5,39.5,30.5 c10,13,17.33,28.5,22,46.5 c4.67,18,7,38,7,60 l-252,0 l0,-8 c0,-18,1.67,-35.5,5,-52.5 c3.33,-17,9.5,-32,18.5,-45 c9,-13,21.67,-23.33,38,-31 c16.33,-7.67,37.17,-11.5,62.5,-11.5 Z M304,106" fill="rgb(0,0,0)" transform="matrix(0.6172839506172839,0.0,0.0,-0.6172839506172839,310.1851851851852,741.358024691358)"/>
</svg>