<?xml version="1.0" encoding="UTF-8"?>
<svg width="1000" height="1000" viewBox="0 0 1000 1000" version="1.1" xmlns="http://www.w3.org/2000/svg" xmlns:xlink="http://www.w3.org/1999/xlink">
 <path d="M0,0 l1000,0 l0,1000 l-1000,0 Z M0,0" fill="rgb(242,242,242)" transform="matrix(1,0,0,-1,0,1000)"/>
 <path d="M217.02,424.0 c13.33,31.33,32.0,53.5,56.0,66.5 c24.0,13.0,52.0,19.5,83.99,19.5 c30.0,0,58.16,-5.67,84.49,-17.0 c26.33,-11.33,49.5,-28.0,69.5,-50.0 c20.0,-22.0,35.83,-48.66,47.5,-80.0 c11.67,-31.33,17.5,-67.0,17.5,-106.99 l0,-16.0 c0,-39.33,-5.67,-74.66,-17.0,-105.99 c-11.33,-31.33,-26.67,-58.0,-46.0,-80.0 c-19.33,-22.0,-41.83,-38.83,-67.5,-50.5 c-25.67,-11.67,-53.16,-17.5,-82.49,-17.5 c-35.33,0,-63.83,6.0,-85.49,18.0 c-21.67,12.0,-38.83,30.66,-51.5,56.0 l-18.0,0 l0,-60.0 l-125.99,0 l0,345.98 c0,20.0,-9.0,30.0,-27.0,30.0 l-19.0,0 l0,119.99 l85.99,0 c22.67,0,41.16,-6.67,55.5,-20.0 c14.33,-13.33,21.5,-30.66,21.5,-52.0 Z M329.02,390.01 c-36.66,0,-66.0,-12.17,-87.99,-36.5 c-22.0,-24.33,-33.0,-57.5,-33.0,-99.49 l0,-12.0 c0,-42.0,11.0,-75.16,33.0,-99.49 c22.0,-24.33,51.33,-36.5,87.99,-36.5 c36.66,0,66.0,12.17,87.99,36.5 c22.0,24.33,33.0,57.5,33.0,99.49 l0,12.0 c0,42.0,-11.0,75.16,-33.0,99.49 c-22.0,24.33,-51.33,36.5,-87.99,36.5 Z M329.02,390.01" fill="rgb(0,0,0)" transform="matrix(0.6172839506172839,0.0,0.0,-0.6172839506172839,310.1851851851852,741.358024691358)"/>
</svg>