<?xml version="1.0" encoding="UTF-8"?>
<svg width="1000" height="1000" viewBox="0 0 1000 1000" version="1.1" xmlns="http://www.w3.org/2000/svg" xmlns:xlink="http://www.w3.org/1999/xlink">
 <path d="M170,299 c-17.67,0,-32.42,5.5,-44.25,16.5 c-11.83,11.0,-17.75,25.33,-17.75,43 l0,3.5 c0,18.0,6.08,32.75,18.25,44.25 c12.17,11.5,27.92,17.25,47.25,17.25 c2.33,-8.0,3.5,-16.0,3.5,-24 c0,-3.33,-0.33,-5.5,-1,-6.5 c-0.67,-1.0,-2.0,-1.5,-4,-1.5 c-8.67,0,-15.67,-2.42,-21,-7.25 c-5.33,-4.83,-8,-11.75,-8,-20.75 l0,-3.5 c0,-8.33,2.33,-15.17,7,-20.5 c3.0,-1.67,6.33,-2.83,10,-3.5 c3.67,-0.67,7.83,-1,12.5,-1 c1.67,-4.33,2.83,-8.58,3.5,-12.75 c0.67,-4.17,1,-8.42,1,-12.75 c0,-7.0,-2.33,-10.5,-7,-10.5 Z M170,299" fill="rgb(0,0,0)" transform="matrix(7.228915662650603,0.0,0.0,-7.228915662650603,-530.1204819277109,3111.4457831325303)"/>
</svg>