<?xml version="1.0" encoding="UTF-8"?>
<svg width="1000" height="1000" viewBox="0 0 1000 1000" version="1.1" xmlns="http://www.w3.org/2000/svg" xmlns:xlink="http://www.w3.org/1999/xlink">
 <path d="M179.5,-181 c-3.67,-0.33,-8.0,-0.67,-13,-1 c-5.0,-0.33,-9.67,-0.5,-14,-0.5 c-10.67,0,-18.42,1.5,-23.25,4.5 c-4.83,3.0,-7.25,8.33,-7.25,16 l0,108.5 c0,11.33,-0.67,20.17,-2,26.5 c4.33,0.67,9.08,1.17,14.25,1.5 c5.17,0.33,10.58,0.5,16.25,0.5 c10.67,0,18.17,-1.5,22.5,-4.5 c4.33,-3.0,6.5,-8.33,6.5,-16 Z M179.5,-181" fill="rgb(0,0,0)" transform="matrix(5.714285714285714,0.0,0.0,-5.714285714285714,-355.7142857142858,-92.85714285714289)"/>
</svg>