<?xml version="1.0" encoding="UTF-8"?>
<svg width="1000" height="1000" viewBox="0 0 1000 1000" version="1.1" xmlns="http://www.w3.org/2000/svg" xmlns:xlink="http://www.w3.org/1999/xlink">
 <path d="M16,-37.5 c6.67,2.67,13.67,4,21,4 c10.33,0,17.67,-1.83,22,-5.5 c4.33,-3.67,6.5,-9.33,6.5,-17 c0,-12.33,-1.92,-24.92,-5.75,-37.75 c-3.83,-12.83,-8.42,-23.08,-13.75,-30.75 c-5.0,-7.0,-11.0,-10.5,-18,-10.5 c-10.0,0,-19.33,2.0,-28,6 c5.67,13.0,9.75,26.83,12.25,41.5 c2.5,14.67,3.75,31.33,3.75,50 Z M16,-37.5" fill="rgb(0,0,0)" transform="matrix(8.866995073891626,0.0,0.0,-8.866995073891626,209.60591133004925,-247.0443349753695)"/>
</svg>