<?xml version="1.0" encoding="UTF-8"?>
<svg width="1000" height="1000" viewBox="0 0 1000 1000" version="1.1" xmlns="http://www.w3.org/2000/svg" xmlns:xlink="http://www.w3.org/1999/xlink">
 <path d="M136,356.5 c27.67,0,51.42,-7.08,71.25,-21.25 c19.83,-14.17,35.17,-34.58,46,-61.25 c10.83,-26.67,16.25,-58.83,16.25,-96.5 l0,-5 c0,-39.67,-5.83,-72.75,-17.5,-99.25 c-11.67,-26.5,-27.25,-46.42,-46.75,-59.75 c-19.5,-13.33,-41.25,-20,-65.25,-20 c-35.67,0,-63.33,10.25,-83,30.75 c-19.67,20.5,-29.5,49.25,-29.5,86.25 l0,49.5 c0,19.0,2.83,32.08,8.5,39.25 c5.67,7.17,16.0,10.75,31,10.75 l97.5,0 c22.67,0,39.17,-5.0,49.5,-15 l2.5,1.5 c-1.33,41.33,-10.67,72.83,-28,94.5 c-7.0,5.33,-14.42,9.17,-22.25,11.5 c-7.83,2.33,-17.42,3.5,-28.75,3.5 c-36.67,0,-69.17,-8.83,-97.5,-26.5 l-2.5,0 c-1.0,4.67,-1.5,9.5,-1.5,14.5 c0,18.33,3.67,31.33,11,39 c7.0,7.67,18.25,13.5,33.75,17.5 c15.5,4.0,33.92,6,55.25,6 Z M133.5,42.5 c26.0,0,46.17,10.25,60.5,30.75 c14.33,20.5,22.0,52.08,23,94.75 l-134,0 l0,-59.5 c0,-26.33,4.67,-45.67,14,-58 c10.33,-5.33,22.5,-8,36.5,-8 Z M133.5,42.5" fill="rgb(0,0,0)" transform="matrix(2.479338842975207,0.0,0.0,-2.479338842975207,131.8181818181818,933.8842975206612)"/>
</svg>