<?xml version="1.0" encoding="UTF-8"?>
<svg width="1000" height="1000" viewBox="0 0 1000 1000" version="1.1" xmlns="http://www.w3.org/2000/svg" xmlns:xlink="http://www.w3.org/1999/xlink">
 <path d="M27,312.5 c-18.0,0,-27,6.5,-27,19.5 c0,12.67,1.83,25.5,5.5,38.5 c3.67,13.0,9.17,23.5,16.5,31.5 c4.33,4.67,10.17,7,17.5,7 c8.0,0,14.83,-1.67,20.5,-5 c-3.0,-11.0,-5.42,-20.5,-7.25,-28.5 c-1.83,-8.0,-3.08,-16.5,-3.75,-25.5 c-0.67,-9.0,-1,-20.33,-1,-34 c-4.0,-1.33,-7.5,-2.25,-10.5,-2.75 c-3.0,-0.5,-6.5,-0.75,-10.5,-0.75 Z M27,312.5" fill="rgb(0,0,0)" transform="matrix(9.32642487046632,0.0,0.0,-9.32642487046632,220.2072538860104,3864.507772020725)"/>
</svg>