<?xml version="1.0" encoding="UTF-8"?>
<svg width="1000" height="1000" viewBox="0 0 1000 1000" version="1.1" xmlns="http://www.w3.org/2000/svg" xmlns:xlink="http://www.w3.org/1999/xlink">
 <path d="M151,360 c40.0,0,70.08,-15.25,90.25,-45.75 c20.17,-30.5,30.25,-74.25,30.25,-131.25 l0,-11 c0,-57.33,-10.67,-102.0,-32,-134 c-21.33,-32.0,-50.83,-48,-88.5,-48 c-40.67,0,-71.25,14.5,-91.75,43.5 c-20.5,29.0,-30.75,70.67,-30.75,125 l0,11 c0,60.0,10.83,106.75,32.5,140.25 c21.67,33.5,51.67,50.25,90,50.25 Z M81.5,152.5 c0,-25.0,2.42,-45.83,7.25,-62.5 c4.83,-16.67,10.42,-29.33,16.75,-38 c13.0,-6.0,26.5,-9,40.5,-9 c24.33,0,42.5,12.0,54.5,36 c12.0,24.0,18,57.67,18,101 l0,9 c0,27.33,-2.33,49.83,-7,67.5 c-4.67,17.67,-10.83,31.67,-18.5,42 c-6.33,3.33,-12.5,5.58,-18.5,6.75 c-6.0,1.17,-12.83,1.75,-20.5,1.75 c-24.33,0,-42.5,-12.83,-54.5,-38.5 c-12.0,-25.67,-18,-61.5,-18,-107.5 Z M93.5,392.5 c-12.67,0.33,-22.67,2.67,-30,7 c-4.33,3.0,-5.5,7.67,-3.5,14 c5.67,17.67,15.92,31.67,30.75,42 c14.83,10.33,33.92,15.5,57.25,15.5 l4,0 c23.67,0,42.83,-5.17,57.5,-15.5 c14.67,-10.33,24.83,-24.33,30.5,-42 c2.0,-6.33,0.83,-11.0,-3.5,-14 c-7.33,-4.33,-17.33,-6.67,-30,-7 c-5.0,11.67,-11.83,20.25,-20.5,25.75 c-8.67,5.5,-20.67,8.92,-36,10.25 c-15.33,-1.33,-27.33,-4.75,-36,-10.25 c-8.67,-5.5,-15.5,-14.08,-20.5,-25.75 Z M93.5,392.5" fill="rgb(0,0,0)" transform="matrix(1.8711018711018712,0.0,0.0,-1.8711018711018712,219.3347193347193,931.2889812889813)"/>
</svg>