<?xml version="1.0" encoding="UTF-8"?>
<svg width="1000" height="1000" viewBox="0 0 1000 1000" version="1.1" xmlns="http://www.w3.org/2000/svg" xmlns:xlink="http://www.w3.org/1999/xlink">
 <path d="M61,-1 c-2.33,-0.33,-5.33,-0.83,-9,-1.5 c-3.67,-0.67,-7.33,-1,-11,-1 c-11.0,0,-18.5,3.08,-22.5,9.25 c-4.0,6.17,-6,15.58,-6,28.25 l0,263 c0,8.0,-0.42,16.92,-1.25,26.75 c-0.83,9.83,-2.25,19.08,-4.25,27.75 c5.67,1.33,10.92,2.17,15.75,2.5 c4.83,0.33,10.42,0.5,16.75,0.5 c13.33,0,23.17,-2.92,29.5,-8.75 c6.33,-5.83,10.5,-16.42,12.5,-31.75 c4.33,-30.0,9.58,-59.58,15.75,-88.75 c6.17,-29.17,12.75,-56.5,19.75,-82 c7.0,-25.5,13.67,-47.75,20,-66.75 l3.5,0 c-2.0,17.0,-3.67,35.67,-5,56 c-1.33,20.33,-2.33,39.92,-3,58.75 c-0.67,18.83,-1,34.58,-1,47.25 l0,113 c1.67,0.67,4.42,1.25,8.25,1.75 c3.83,0.5,7.75,0.75,11.75,0.75 c10.0,0,17.25,-2.58,21.75,-7.75 c4.5,-5.17,6.75,-13.75,6.75,-25.75 l0,-266.5 c0,-9.33,0.25,-18.67,0.75,-28 c0.5,-9.33,1.42,-18.5,2.75,-27.5 c-3.33,-1.0,-6.58,-1.83,-9.75,-2.5 c-3.17,-0.67,-6.58,-1,-10.25,-1 c-11.33,0,-19.92,1.42,-25.75,4.25 c-5.83,2.83,-10.58,8.58,-14.25,17.25 c-12.0,23.33,-23.83,56.25,-35.5,98.75 c-11.67,42.5,-22.5,93.75,-32.5,153.75 l-4.5,0 c2.67,-23.67,4.75,-48.58,6.25,-74.75 c1.5,-26.17,2.5,-51.67,3,-76.5 c0.5,-24.83,0.75,-47.42,0.75,-67.75 Z M177.5,-46 c24.67,8.67,42.5,21.42,53.5,38.25 c11.0,16.83,16.5,42.08,16.5,75.75 l0,236 c-13.67,-6.67,-26.17,-10,-37.5,-10 c-14.33,0,-21.5,11.67,-21.5,35 c0,8.33,0.83,15.33,2.5,21 c8.67,0.67,18.25,1.33,28.75,2 c10.5,0.67,21.92,1,34.25,1 c13.0,0,23.08,-3.17,30.25,-9.5 c7.17,-6.33,10.75,-13.83,10.75,-22.5 l0,-260 c0,-25.33,-2.33,-45.5,-7,-60.5 c-4.67,-15.0,-10.83,-26.67,-18.5,-35 c-7.33,-8.33,-16.0,-14.58,-26,-18.75 c-10.0,-4.17,-19.83,-6.25,-29.5,-6.25 c-9.0,0,-16.42,1.17,-22.25,3.5 c-5.83,2.33,-10.58,5.67,-14.25,10 Z M177.5,-46" fill="rgb(0,0,0)" transform="matrix(2.1739130434782608,0.0,0.0,-2.1739130434782608,171.73913043478262,820.6521739130435)"/>
</svg>