<?xml version="1.0" encoding="UTF-8"?>
<svg width="1000" height="1000" viewBox="0 0 1000 1000" version="1.1" xmlns="http://www.w3.org/2000/svg" xmlns:xlink="http://www.w3.org/1999/xlink">
 <path d="M136.5,217 c-12.67,0,-24.33,3.17,-35,9.5 c7.67,14.67,13.83,29.17,18.5,43.5 c4.67,14.33,8.0,29.83,10,46.5 c2.0,16.67,3,35.83,3,57.5 c9.0,2.67,18.17,4,27.5,4 c11.67,0,20.67,-2.33,27,-7 c6.33,-4.67,9.5,-13.33,9.5,-26 c0,-15.0,-1.75,-30.17,-5.25,-45.5 c-3.5,-15.33,-8.08,-29.42,-13.75,-42.25 c-5.67,-12.83,-12.17,-23.08,-19.5,-30.75 c-3.0,-3.33,-6.08,-5.75,-9.25,-7.25 c-3.17,-1.5,-7.42,-2.25,-12.75,-2.25 Z M136.5,217" fill="rgb(0,0,0)" transform="matrix(5.590062111801243,0.0,0.0,-5.590062111801243,-334.3167701863355,2163.04347826087)"/>
</svg>