<?xml version="1.0" encoding="UTF-8"?>
<svg width="1000" height="1000" viewBox="0 0 1000 1000" version="1.1" xmlns="http://www.w3.org/2000/svg" xmlns:xlink="http://www.w3.org/1999/xlink">
 <path d="M28.5,53 l77.5,0 l1.5,2.5 c-8.33,9.33,-12.5,24.67,-12.5,46 l0,122 l-2.5,1.5 c-11.33,-6.33,-20.83,-11.0,-28.5,-14 c-7.67,-3.0,-13.33,-4.5,-17,-4.5 c-5.33,0,-10.08,2.92,-14.25,8.75 c-4.17,5.83,-6.25,14.42,-6.25,25.75 c0,4.67,0.25,9.33,0.75,14 c0.5,4.67,1.42,8.67,2.75,12 c10.67,1.33,22.0,2.5,34,3.5 c12.0,1.0,22.33,1.5,31,1.5 c14.0,0,24.83,-2.83,32.5,-8.5 c7.67,-5.67,13.0,-15.08,16,-28.25 c3.0,-13.17,4.5,-31.42,4.5,-54.75 l3,0 c10.33,32.0,24.08,55.83,41.25,71.5 c17.17,15.67,35.58,23.5,55.25,23.5 c11.67,0,19.67,-2.17,24,-6.5 c6.0,-6.0,9,-18.33,9,-37 c0,-6.0,-0.33,-11.67,-1,-17 c-0.67,-5.33,-1.67,-10.33,-3,-15 l-3,0 c-5.67,3.67,-11.25,6.42,-16.75,8.25 c-5.5,1.83,-12.42,2.75,-20.75,2.75 c-18.67,0,-35.25,-7.42,-49.75,-22.25 c-14.5,-14.83,-27.25,-39.92,-38.25,-75.25 l0,-60.5 l1,0 c31.0,0,54.83,-3.67,71.5,-11 c16.67,-7.33,25,-16.67,25,-28 c0,-5.67,-0.83,-10.33,-2.5,-14 l-179.5,0 c-15.0,0,-24.83,3.42,-29.5,10.25 c-4.67,6.83,-7,16.42,-7,28.75 c0,5.0,0.5,9.67,1.5,14 Z M123.5,-34.5 c6.67,2.67,13.67,4,21,4 c10.33,0,17.67,-1.83,22,-5.5 c4.33,-3.67,6.5,-9.33,6.5,-17 c0,-12.33,-1.92,-24.92,-5.75,-37.75 c-3.83,-12.83,-8.42,-23.08,-13.75,-30.75 c-5.0,-7.0,-11.0,-10.5,-18,-10.5 c-10.0,0,-19.33,2.0,-28,6 c5.67,13.0,9.75,26.83,12.25,41.5 c2.5,14.67,3.75,31.33,3.75,50 Z M123.5,-34.5" fill="rgb(0,0,0)" transform="matrix(2.208588957055215,0.0,0.0,-2.208588957055215,160.98159509202452,658.4662576687117)"/>
</svg>