<?xml version="1.0" encoding="UTF-8"?>
<svg width="1000" height="1000" viewBox="0 0 1000 1000" version="1.1" xmlns="http://www.w3.org/2000/svg" xmlns:xlink="http://www.w3.org/1999/xlink">
 <path d="M0,0 l1000,0 l0,1000 l-1000,0 Z M0,0" fill="rgb(242,242,242)" transform="matrix(1,0,0,-1,0,1000)"/>
 <path d="M606,492 c0,-25.33,-8.67,-46.67,-26,-64 c-17.33,-17.33,-38.67,-26,-64,-26 l-114,0 l0,-204 c0,-70.67,-16.17,-123.67,-48.5,-159 c-32.33,-35.33,-80.17,-53,-143.5,-53 c-63.33,0,-111.17,17.67,-143.5,53 c-32.33,35.33,-48.5,88.33,-48.5,159 l0,502 l132,0 l0,-516 c0,-23.33,4.5,-41.17,13.5,-53.5 c9,-12.33,24.5,-18.5,46.5,-18.5 c22,0,37.5,6.17,46.5,18.5 c9,12.33,13.5,30.17,13.5,53.5 l0,516 l132,0 l0,-220 l99,0 c18,0,27,10,27,30 l0,16 l-9,0 c-12,0,-23.17,2.33,-33.5,7 c-10.33,4.67,-19.5,11,-27.5,19 c-8,8,-14.33,17.17,-19,27.5 c-4.67,10.33,-7,21.5,-7,33.5 c0,12,2.33,23.17,7,33.5 c4.67,10.33,11,19.5,19,27.5 c8,8,17.17,14.33,27.5,19 c10.33,4.67,21.5,7,33.5,7 c12,0,23.17,-2.33,33.5,-7 c10.33,-4.67,19.5,-11,27.5,-19 c8,-8,14.33,-17.17,19,-27.5 c4.67,-10.33,7,-21.5,7,-33.5 Z M606,492" fill="rgb(0,0,0)" transform="matrix(0.6172839506172839,0.0,0.0,-0.6172839506172839,310.1851851851852,741.358024691358)"/>
</svg>