<?xml version="1.0" encoding="UTF-8"?>
<svg width="1000" height="1000" viewBox="0 0 1000 1000" version="1.1" xmlns="http://www.w3.org/2000/svg" xmlns:xlink="http://www.w3.org/1999/xlink">
 <path d="M0,0 l1000,0 l0,1000 l-1000,0 Z M0,0" fill="rgb(242,242,242)" transform="matrix(1,0,0,-1,0,1000)"/>
 <path d="M62,207 l0,67 c0,26,4.67,52.83,14,80.5 c9.33,27.67,24,53,44,76 c20,23,45.33,42,76,57 c30.67,15,67.33,22.5,110,22.5 c34.67,0,67.17,-6.17,97.5,-18.5 c30.33,-12.33,56.83,-29.5,79.5,-51.5 c22.67,-22,40.5,-48.67,53.5,-80 c13,-31.33,19.5,-66,19.5,-104 l0,-6 c0,-41.33,-6.17,-78.33,-18.5,-111 c-12.33,-32.67,-29.67,-60.33,-52,-83 c-22.33,-22.67,-49,-40,-80,-52 c-31,-12,-64.83,-18,-101.5,-18 c-33.33,0,-62,3.67,-86,11 c-24,7.33,-44.5,16.67,-61.5,28 c-17,11.33,-30.83,23.83,-41.5,37.5 c-10.67,13.67,-19,26.83,-25,39.5 l108,60 c7.33,-15.33,19.33,-28.5,36,-39.5 c16.67,-11,40.67,-16.5,72,-16.5 c16,0,31.17,2.5,45.5,7.5 c14.33,5,27,12,38,21 c11,9,19.67,19.67,26,32 c6.33,12.33,9.83,25.83,10.5,40.5 Z M307,396 c-32,0,-58.5,-7.67,-79.5,-23 c-21,-15.33,-33.5,-34.67,-37.5,-58 l234,0 c-6,21.33,-19,40.17,-39,56.5 c-20,16.33,-46,24.5,-78,24.5 Z M307,396" fill="rgb(0,0,0)" transform="matrix(0.6172839506172839,0.0,0.0,-0.6172839506172839,310.1851851851852,741.358024691358)"/>
</svg>