<?xml version="1.0" encoding="UTF-8"?>
<svg width="1000" height="1000" viewBox="0 0 1000 1000" version="1.1" xmlns="http://www.w3.org/2000/svg" xmlns:xlink="http://www.w3.org/1999/xlink">
 <path d="M62,-72.5 c9.67,0,17.5,1.75,23.5,5.25 c6.0,3.5,10.67,9.75,14,18.75 c1.33,19.0,3.08,41.83,5.25,68.5 c2.17,26.67,4.42,55.08,6.75,85.25 c2.33,30.17,4.67,59.75,7,88.75 l-19.5,0 c-20.67,0,-34.5,3.25,-41.5,9.75 c-7.0,6.5,-10.5,16.08,-10.5,28.75 c0,6.0,0.5,11.0,1.5,15 l74,0 c1.0,8.67,1.75,16.92,2.25,24.75 c0.5,7.83,1.08,15.25,1.75,22.25 c2.33,26.67,11.58,48.08,27.75,64.25 c16.17,16.17,37.42,24.25,63.75,24.25 c14.67,0,26.5,-1.58,35.5,-4.75 c9.0,-3.17,15.5,-6.58,19.5,-10.25 c6.67,-6.33,10,-15.17,10,-26.5 c0,-10.0,-1.17,-17.83,-3.5,-23.5 l-3,0 c-5.67,4.67,-12.75,8.33,-21.25,11 c-8.5,2.67,-17.58,4,-27.25,4 c-10.33,0,-19.58,-0.92,-27.75,-2.75 c-8.17,-1.83,-14.92,-4.75,-20.25,-8.75 c-0.33,-6.67,-0.5,-14.5,-0.5,-23.5 c0,-9.0,0,-18.0,0,-27 c0,-9.0,-0.33,-16.83,-1,-23.5 l57,0 c12.0,0,20.67,-2.67,26,-8 c5.33,-5.33,8,-13.83,8,-25.5 c0,-3.33,-0.17,-6.83,-0.5,-10.5 c-0.33,-3.67,-0.83,-6.83,-1.5,-9.5 l-93.5,0 c-2.0,-23.67,-4.17,-48.83,-6.5,-75.5 c-2.33,-26.67,-4.58,-52.33,-6.75,-77 c-2.17,-24.67,-3.92,-45.83,-5.25,-63.5 c-2.33,-26.67,-7.25,-47.5,-14.75,-62.5 c-7.5,-15.0,-17.67,-25.5,-30.5,-31.5 c-12.83,-6.0,-28.58,-9,-47.25,-9 c-11.33,0,-20.92,1.33,-28.75,4 c-7.83,2.67,-13.58,6.17,-17.25,10.5 c-3.0,3.67,-5.0,8.17,-6,13.5 c-1.0,5.33,-1.5,11.0,-1.5,17 c0,10.33,1.17,18.67,3.5,25 l3,0 c7.0,-6.33,14.0,-10.83,21,-13.5 c7.0,-2.67,15.33,-4,25,-4 Z M62,-72.5" fill="rgb(0,0,0)" transform="matrix(1.7716535433070866,0.0,0.0,-1.7716535433070866,240.8956692913386,728.5433070866142)"/>
</svg>