<?xml version="1.0" encoding="UTF-8"?>
<svg width="1000" height="1000" viewBox="0 0 1000 1000" version="1.1" xmlns="http://www.w3.org/2000/svg" xmlns:xlink="http://www.w3.org/1999/xlink">
 <path d="M170.5,264 c1.67,-6.67,2.5,-12.83,2.5,-18.5 c0,-12.33,-2.92,-22.42,-8.75,-30.25 c-5.83,-7.83,-15.08,-14.58,-27.75,-20.25 l-38.5,-19.5 c-5.33,-2.33,-12.0,-3.92,-20,-4.75 c-8.0,-0.83,-14.83,-2.75,-20.5,-5.75 l-55,-30.5 c-1.67,8.33,-2.5,16.67,-2.5,25 c0,9.67,1.92,17.0,5.75,22 c3.83,5.0,10.08,10.0,18.75,15 l34,19 c4.67,2.67,10.75,4.17,18.25,4.5 c7.5,0.33,13.75,1.83,18.75,4.5 Z M170.5,264" fill="rgb(0,0,0)" transform="matrix(5.202312138728324,0.0,0.0,-5.202312138728324,50.0,1536.5606936416184)"/>
</svg>