<?xml version="1.0" encoding="UTF-8"?>
<svg width="1000" height="1000" viewBox="0 0 1000 1000" version="1.1" xmlns="http://www.w3.org/2000/svg" xmlns:xlink="http://www.w3.org/1999/xlink">
 <path d="M64.5,272.5 c9.33,0,17.17,-3.25,23.5,-9.75 c6.33,-6.5,11.83,-14.92,16.5,-25.25 l2.5,0 l0,91.5 c0,10.0,-0.42,18.75,-1.25,26.25 c-0.83,7.5,-2.42,14.42,-4.75,20.75 c4.0,1.67,9.17,2.5,15.5,2.5 c10.33,0,18.5,-4.17,24.5,-12.5 c6.0,-8.33,9,-22.17,9,-41.5 l0,-272 c0,-10.67,0.42,-19.92,1.25,-27.75 c0.83,-7.83,2.25,-16.08,4.25,-24.75 c-5.0,-2.0,-10.33,-3,-16,-3 c-21.67,0,-32.5,17.83,-32.5,53.5 l0,9.5 l-2.5,0 c-5.33,-23.67,-12.33,-40.5,-21,-50.5 c-8.67,-10.0,-18.67,-15,-30,-15 c-12.33,0,-23.33,9.08,-33,27.25 c-9.67,18.17,-14.5,45.75,-14.5,82.75 l0,15 c0,38.67,2.67,69.17,8,91.5 c5.33,22.33,12.42,38.17,21.25,47.5 c8.83,9.33,18.58,14,29.25,14 Z M169.5,267 l98.5,0 c6.0,0,11.17,-2.17,15.5,-6.5 c4.33,-4.33,7.75,-9.67,10.25,-16 c2.5,-6.33,3.75,-12.33,3.75,-18 l0,-3 c0,-5.0,-1.75,-12.5,-5.25,-22.5 c-3.5,-10.0,-8.42,-21.58,-14.75,-34.75 c-6.33,-13.17,-13.5,-26.83,-21.5,-41 c-8.0,-14.17,-16.5,-27.92,-25.5,-41.25 c-3.67,-5.33,-7.42,-10.25,-11.25,-14.75 c-3.83,-4.5,-7.58,-8.92,-11.25,-13.25 l0.5,-3 l67,0 c8.0,0,13.67,-2.58,17,-7.75 c3.33,-5.17,5,-13.58,5,-25.25 c0,-7.67,-0.5,-14.33,-1.5,-20 l-103,0 c-9.67,0,-16.42,3.75,-20.25,11.25 c-3.83,7.5,-5.75,18.42,-5.75,32.75 l0,4.5 c13.33,18.0,26.17,38.08,38.5,60.25 c12.33,22.17,23.17,45.08,32.5,68.75 c2.67,5.67,5.0,11.25,7,16.75 c2.0,5.5,4.0,11.08,6,16.75 l-1,3 l-56.5,0 c-9.33,0,-15.75,3.5,-19.25,10.5 c-3.5,7.0,-5.25,16.67,-5.25,29 c0,2.67,0.08,5.08,0.25,7.25 c0.17,2.17,0.25,4.25,0.25,6.25 Z M57.5,50.5 l5,0 c5.33,0,10.5,2.5,15.5,7.5 c5.0,5.0,10.0,13.83,15,26.5 c5.0,12.67,9.67,30.33,14,53 l0,64 c-4.0,6.67,-8.42,11.58,-13.25,14.75 c-4.83,3.17,-9.42,4.75,-13.75,4.75 c-5.33,0,-10.25,-2.5,-14.75,-7.5 c-4.5,-5.0,-8.08,-15.0,-10.75,-30 c-2.67,-15.0,-4,-37.5,-4,-67.5 l0,-5 c0,-15.67,0.58,-28.17,1.75,-37.5 c1.17,-9.33,2.92,-17.0,5.25,-23 Z M57.5,50.5" fill="rgb(0,0,0)" transform="matrix(2.34375,0.0,0.0,-2.34375,144.3359375,937.109375)"/>
</svg>