<?xml version="1.0" encoding="UTF-8"?>
<svg width="1000" height="1000" viewBox="0 0 1000 1000" version="1.1" xmlns="http://www.w3.org/2000/svg" xmlns:xlink="http://www.w3.org/1999/xlink">
 <path d="M0,0 l1000,0 l0,1000 l-1000,0 Z M0,0" fill="rgb(242,242,242)" transform="matrix(1,0,0,-1,0,1000)"/>
 <path d="M260,354 l300,0 l0,-354 l-120,0 l0,78 l-18,0 c-8,-26,-23.33,-47.83,-46,-65.5 c-22.67,-17.67,-56.67,-26.5,-102,-26.5 c-32,0,-62,6,-90,18 c-28,12,-52.33,29.83,-73,53.5 c-20.67,23.67,-37,53,-49,88 c-12,35,-18,75.83,-18,122.5 l0,164 c0,45.33,6.5,85.5,19.5,120.5 c13,35,31,64.5,54,88.5 c23,24,50.5,42.17,82.5,54.5 c32,12.33,67.33,18.5,106,18.5 c40,0,75.67,-6.5,107,-19.5 c31.33,-13,58,-31,80,-54 c22,-23,38.67,-50,50,-81 c11.33,-31,17,-64.17,17,-99.5 l0,-12 l-132,0 l0,12 c0,42,-10.83,73.83,-32.5,95.5 c-21.67,21.67,-52.17,32.5,-91.5,32.5 c-37.33,0,-68,-12.5,-92,-37.5 c-24,-25,-36,-67.83,-36,-128.5 l0,-148 c0,-108,44,-162,132,-162 c39.33,0,69.17,10.5,89.5,31.5 c20.33,21,30.5,49.17,30.5,84.5 l-168,0 Z M476,910 l-84,-136 l-172,0 l-84,136 l121,0 l43,-88 l12,0 l43,88 Z M476,910" fill="rgb(0,0,0)" transform="matrix(0.6172839506172839,0.0,0.0,-0.6172839506172839,310.1851851851852,741.358024691358)"/>
</svg>