<?xml version="1.0" encoding="UTF-8"?>
<svg width="1000" height="1000" viewBox="0 0 1000 1000" version="1.1" xmlns="http://www.w3.org/2000/svg" xmlns:xlink="http://www.w3.org/1999/xlink">
 <path d="M0,0 l1000,0 l0,1000 l-1000,0 Z M0,0" fill="rgb(242,242,242)" transform="matrix(1,0,0,-1,0,1000)"/>
 <path d="M36.04,496 l125.99,0 l0,-347.98 c0,-14.0,3.5,-24.5,10.5,-31.5 c7.0,-7.0,16.17,-10.5,27.5,-10.5 c13.33,0,23.83,4.0,31.5,12.0 c7.67,8.0,11.5,20.0,11.5,36.0 l0,341.98 l125.99,0 l0,-347.98 c0,-14.0,3.83,-24.5,11.5,-31.5 c7.67,-7.0,16.83,-10.5,27.5,-10.5 c12.0,0,22.0,4.0,30.0,12.0 c8.0,8.0,12.0,20.0,12.0,36.0 l0,341.98 l125.99,0 l0,-495.97 l-125.99,0 l0,48.0 l-18.0,0 c-4.0,-18.0,-13.17,-32.83,-27.5,-44.5 c-14.33,-11.67,-33.16,-17.5,-56.5,-17.5 c-22.0,0,-40.66,5.83,-56.0,17.5 c-15.33,11.67,-25.67,26.5,-31.0,44.5 l-18.0,0 c-5.33,-18.0,-16.5,-32.83,-33.5,-44.5 c-17.0,-11.67,-38.16,-17.5,-63.5,-17.5 c-33.33,0,-60.0,11.17,-80.0,33.5 c-20.0,22.33,-30.0,53.16,-30.0,92.49 Z M36.04,496" fill="rgb(0,0,0)" transform="matrix(0.6172839506172839,0.0,0.0,-0.6172839506172839,310.1851851851852,741.358024691358)"/>
</svg>