<?xml version="1.0" encoding="UTF-8"?>
<svg width="1000" height="1000" viewBox="0 0 1000 1000" version="1.1" xmlns="http://www.w3.org/2000/svg" xmlns:xlink="http://www.w3.org/1999/xlink">
 <path d="M0,0 l1000,0 l0,1000 l-1000,0 Z M0,0" fill="rgb(242,242,242)" transform="matrix(1,0,0,-1,0,1000)"/>
 <path d="M564,242 c0,-41.33,-7,-77.83,-21,-109.5 c-14,-31.67,-33,-58.33,-57,-80 c-24,-21.67,-51.5,-38.17,-82.5,-49.5 c-31,-11.33,-63.5,-17,-97.5,-17 c-34,0,-66.5,5.67,-97.5,17 c-31,11.33,-58.5,27.83,-82.5,49.5 c-24,21.67,-43,48.33,-57,80 c-14,31.67,-21,68.17,-21,109.5 l0,12 c0,40.67,7,76.83,21,108.5 c14,31.67,33,58.5,57,80.5 c24,22,51.5,38.67,82.5,50 c31,11.33,63.5,17,97.5,17 c34,0,66.5,-5.67,97.5,-17 c31,-11.33,58.5,-28,82.5,-50 c24,-22,43,-48.83,57,-80.5 c14,-31.67,21,-67.83,21,-108.5 Z M306,106 c18,0,35,3,51,9 c16,6,30,14.67,42,26 c12,11.33,21.5,25.17,28.5,41.5 c7,16.33,10.5,34.83,10.5,55.5 l0,20 c0,20.67,-3.5,39.17,-10.5,55.5 c-7,16.33,-16.5,30.17,-28.5,41.5 c-12,11.33,-26,20,-42,26 c-16,6,-33,9,-51,9 c-18,0,-35,-3,-51,-9 c-16,-6,-30,-14.67,-42,-26 c-12,-11.33,-21.5,-25.17,-28.5,-41.5 c-7,-16.33,-10.5,-34.83,-10.5,-55.5 l0,-20 c0,-20.67,3.5,-39.17,10.5,-55.5 c7,-16.33,16.5,-30.17,28.5,-41.5 c12,-11.33,26,-20,42,-26 c16,-6,33,-9,51,-9 Z M355,570 l-43,88 l-12,0 l-43,-88 l-121,0 l84,136 l172,0 l84,-136 Z M528,658 l-10,46.0 l12,0 c3.33,-6.0,8.67,-11.17,16,-15.5 c7.33,-4.33,17.33,-6.5,30,-6.5 c28,0,48.83,8.67,62.5,26.0 c13.67,17.33,20.5,38.0,20.5,62.0 c0,31.33,-10.5,55.83,-31.5,73.5 c-21,17.67,-47.17,26.5,-78.5,26.5 c-19.33,0,-35.33,-1.83,-48,-5.5 c-12.67,-3.67,-24.67,-8.5,-36,-14.5 l26,-68.0 c15.33,9.33,32,14.0,50,14.0 c10,0,18.17,-2.33,24.5,-7.0 c6.33,-4.67,9.5,-11.0,9.5,-19.0 c0,-6.0,-1.67,-11.17,-5,-15.5 c-3.33,-4.33,-8.33,-6.5,-15,-6.5 c-11.33,0,-18,4.67,-20,14.0 l-97,0 l0,-12.0 l20,-91.99 Z M528,658" fill="rgb(0,0,0)" transform="matrix(0.6172839506172839,0.0,0.0,-0.6172839506172839,310.1851851851852,741.358024691358)"/>
</svg>