<?xml version="1.0" encoding="UTF-8"?>
<svg width="1000" height="1000" viewBox="0 0 1000 1000" version="1.1" xmlns="http://www.w3.org/2000/svg" xmlns:xlink="http://www.w3.org/1999/xlink">
 <path d="M0,0 l1000,0 l0,1000 l-1000,0 Z M0,0" fill="rgb(242,242,242)" transform="matrix(1,0,0,-1,0,1000)"/>
 <path d="M606,492 c0,-25.33,-8.67,-46.67,-26,-64 c-17.33,-17.33,-38.67,-26,-64,-26 l-114,0 l0,-204 c0,-70.67,-16.17,-123.67,-48.5,-159 c-32.33,-35.33,-80.17,-53,-143.5,-53 c-63.33,0,-111.17,17.67,-143.5,53 c-32.33,35.33,-48.5,88.33,-48.5,159 l0,502 l132,0 l0,-516 c0,-23.33,4.5,-41.17,13.5,-53.5 c9,-12.33,24.5,-18.5,46.5,-18.5 c22,0,37.5,6.17,46.5,18.5 c9,12.33,13.5,30.17,13.5,53.5 l0,516 l132,0 l0,-220 l99,0 c18,0,27,10,27,30 l0,16 l-9,0 c-12,0,-23.17,2.33,-33.5,7 c-10.33,4.67,-19.5,11,-27.5,19 c-8,8,-14.33,17.17,-19,27.5 c-4.67,10.33,-7,21.5,-7,33.5 c0,12,2.33,23.17,7,33.5 c4.67,10.33,11,19.5,19,27.5 c8,8,17.17,14.33,27.5,19 c10.33,4.67,21.5,7,33.5,7 c12,0,23.17,-2.33,33.5,-7 c10.33,-4.67,19.5,-11,27.5,-19 c8,-8,14.33,-17.17,19,-27.5 c4.67,-10.33,7,-21.5,7,-33.5 Z M248,750 l-10,46.0 l12,0 c3.33,-6.0,8.67,-11.17,16,-15.5 c7.33,-4.33,17.33,-6.5,30,-6.5 c28,0,48.83,8.67,62.5,26.0 c13.67,17.33,20.5,38.0,20.5,62.0 c0,31.33,-10.5,55.83,-31.5,73.5 c-21,17.67,-47.17,26.5,-78.5,26.5 c-19.33,0,-35.33,-1.83,-48,-5.5 c-12.67,-3.67,-24.67,-8.5,-36,-14.5 l26,-68.0 c15.33,9.33,32,14.0,50,14.0 c10,0,18.17,-2.33,24.5,-7.0 c6.33,-4.67,9.5,-11.0,9.5,-19.0 c0,-6.0,-1.67,-11.17,-5,-15.5 c-3.33,-4.33,-8.33,-6.5,-15,-6.5 c-11.33,0,-18,4.67,-20,14.0 l-97,0 l0,-12.0 l20,-91.99 Z M248,750" fill="rgb(0,0,0)" transform="matrix(0.6172839506172839,0.0,0.0,-0.6172839506172839,310.1851851851852,741.358024691358)"/>
</svg>