<?xml version="1.0" encoding="UTF-8"?>
<svg width="1000" height="1000" viewBox="0 0 1000 1000" version="1.1" xmlns="http://www.w3.org/2000/svg" xmlns:xlink="http://www.w3.org/1999/xlink">
 <path d="M0,0 l1000,0 l0,1000 l-1000,0 Z M0,0" fill="rgb(242,242,242)" transform="matrix(1,0,0,-1,0,1000)"/>
 <path d="M20,254 c0,80.67,17.5,143.5,52.5,188.5 c35,45,84.5,67.5,148.5,67.5 c60,0,107.33,-20,142,-60 c34.67,-40,54,-96,58,-168 l73,0 c18,0,27,10,27,30 l0,10 l-9,0 c-12,0,-23.17,2.33,-33.5,7 c-10.33,4.67,-19.5,11,-27.5,19 c-8,8,-14.33,17.17,-19,27.5 c-4.67,10.33,-7,21.5,-7,33.5 c0,12,2.33,23.17,7,33.5 c4.67,10.33,11,19.5,19,27.5 c8,8,17.17,14.33,27.5,19 c10.33,4.67,21.5,7,33.5,7 c12,0,23.17,-2.33,33.5,-7 c10.33,-4.67,19.5,-11,27.5,-19 c8,-8,14.33,-17.17,19,-27.5 c4.67,-10.33,7,-21.5,7,-33.5 l0,-115 c0,-25.33,-8.67,-46.67,-26,-64 c-17.33,-17.33,-38.67,-26,-64,-26 l-88,0 c-5.33,-70,-25.33,-123.83,-60,-161.5 c-34.67,-37.67,-81.33,-56.5,-140,-56.5 c-64.67,0,-114.33,22.33,-149,67 c-34.67,44.67,-52,107.67,-52,189 Z M221,106 c22.67,0,40.83,9.67,54.5,29 c13.67,19.33,20.5,51,20.5,95 l0,36 c0,44,-6.83,75.67,-20.5,95 c-13.67,19.33,-31.83,29,-54.5,29 c-22.67,0,-40.83,-9.67,-54.5,-29 c-13.67,-19.33,-20.5,-51,-20.5,-95 l0,-36 c0,-44,6.83,-75.67,20.5,-95 c13.67,-19.33,31.83,-29,54.5,-29 Z M317,-158 c0,-13.33,-2.5,-25.83,-7.5,-37.5 c-5,-11.67,-11.83,-21.67,-20.5,-30 c-8.67,-8.33,-18.83,-15,-30.5,-20 c-11.67,-5,-23.83,-7.5,-36.5,-7.5 c-13.33,0,-25.67,2.5,-37,7.5 c-11.33,5,-21.33,11.67,-30,20 c-8.67,8.33,-15.5,18.33,-20.5,30 c-5,11.67,-7.5,24.17,-7.5,37.5 c0,13.33,2.5,25.83,7.5,37.5 c5,11.67,11.83,21.67,20.5,30 c8.67,8.33,18.67,15,30,20 c11.33,5,23.67,7.5,37,7.5 c12.67,0,24.83,-2.5,36.5,-7.5 c11.67,-5,21.83,-11.67,30.5,-20 c8.67,-8.33,15.5,-18.33,20.5,-30 c5,-11.67,7.5,-24.17,7.5,-37.5 Z M317,-158" fill="rgb(0,0,0)" transform="matrix(0.6172839506172839,0.0,0.0,-0.6172839506172839,310.1851851851852,741.358024691358)"/>
</svg>