<?xml version="1.0" encoding="UTF-8"?>
<svg width="1000" height="1000" viewBox="0 0 1000 1000" version="1.1" xmlns="http://www.w3.org/2000/svg" xmlns:xlink="http://www.w3.org/1999/xlink">
 <path d="M51.5,-55 l173,0 c9.67,0,16.33,-2.25,20,-6.75 c3.67,-4.5,5.5,-11.42,5.5,-20.75 c0,-3.0,-0.17,-6.0,-0.5,-9 c-0.33,-3.0,-0.83,-5.83,-1.5,-8.5 l-150.5,0 c-19.0,0,-31.42,2.92,-37.25,8.75 c-5.83,5.83,-8.75,15.42,-8.75,28.75 Z M93.5,-1 c-2.67,-0.33,-5.08,-0.58,-7.25,-0.75 c-2.17,-0.17,-4.58,-0.25,-7.25,-0.25 c-14.0,0,-23.92,2.75,-29.75,8.25 c-5.83,5.5,-8.75,13.08,-8.75,22.75 l0,191.5 c0,10.0,-0.58,18.75,-1.75,26.25 c-1.17,7.5,-3.25,14.42,-6.25,20.75 c5.67,1.67,11.0,2.5,16,2.5 c13.33,0,24.17,-4.83,32.5,-14.5 c8.33,-9.67,12.5,-26.83,12.5,-51.5 l0,-21.5 l3,0 c7.33,17.33,16.42,32.75,27.25,46.25 c10.83,13.5,22.83,24.17,36,32 c13.17,7.83,26.58,11.75,40.25,11.75 c11.33,0,21.33,-3.83,30,-11.5 c8.67,-7.67,15.5,-17.42,20.5,-29.25 c5.0,-11.83,7.5,-24.08,7.5,-36.75 l0,-123 c0,-14.33,0.67,-26.67,2,-37 c1.33,-10.33,3.67,-22.0,7,-35 c-5.67,-1.33,-12.17,-2,-19.5,-2 c-14.67,0,-26.25,4.5,-34.75,13.5 c-8.5,9.0,-12.75,26.67,-12.75,53 c0,20.67,1.0,40.58,3,59.75 c2.0,19.17,5.0,41.25,9,66.25 c-6.0,16.33,-15.33,24.5,-28,24.5 c-16.33,0,-32.42,-8.58,-48.25,-25.75 c-15.83,-17.17,-29.92,-42.92,-42.25,-77.25 Z M93.5,-1" fill="rgb(0,0,0)" transform="matrix(2.4161073825503356,0.0,0.0,-2.4161073825503356,138.1879194630872,708.3892617449665)"/>
</svg>