<?xml version="1.0" encoding="UTF-8"?>
<svg width="1000" height="1000" viewBox="0 0 1000 1000" version="1.1" xmlns="http://www.w3.org/2000/svg" xmlns:xlink="http://www.w3.org/1999/xlink">
 <path d="M0,0 l1000,0 l0,1000 l-1000,0 Z M0,0" fill="rgb(242,242,242)" transform="matrix(1,0,0,-1,0,1000)"/>
 <path d="M48,428 c0,90.67,22.83,161,68.5,211 c45.67,50,108.83,75,189.5,75 c80.67,0,143.83,-25,189.5,-75 c45.67,-50,68.5,-120.33,68.5,-211 l0,-156 c0,-93.33,-22.83,-164.33,-68.5,-213 c-45.67,-48.67,-108.83,-73,-189.5,-73 c-80.67,0,-143.83,24.33,-189.5,73 c-45.67,48.67,-68.5,119.67,-68.5,213 Z M306,106 c24,0,44,3.83,60,11.5 c16,7.67,29,18.5,39,32.5 c10,14,17,30.67,21,50 c4,19.33,6,40.67,6,64 l0,172 c0,22,-2.33,42.67,-7,62 c-4.67,19.33,-12,36,-22,50 c-10,14,-23,25.17,-39,33.5 c-16,8.33,-35.33,12.5,-58,12.5 c-22.67,0,-42,-4.17,-58,-12.5 c-16,-8.33,-29,-19.5,-39,-33.5 c-10,-14,-17.33,-30.67,-22,-50 c-4.67,-19.33,-7,-40,-7,-62 l0,-172 c0,-23.33,2,-44.67,6,-64 c4,-19.33,11,-36,21,-50 c10,-14,23,-24.83,39,-32.5 c16,-7.67,36,-11.5,60,-11.5 Z M355,774 l-43,88 l-12,0 l-43,-88 l-121,0 l84,136 l172,0 l84,-136 Z M509,998 l134,0 l-84,-136 l-102,0 Z M509,998" fill="rgb(0,0,0)" transform="matrix(0.6172839506172839,0.0,0.0,-0.6172839506172839,310.1851851851852,741.358024691358)"/>
</svg>