<?xml version="1.0" encoding="UTF-8"?>
<svg width="1000" height="1000" viewBox="0 0 1000 1000" version="1.1" xmlns="http://www.w3.org/2000/svg" xmlns:xlink="http://www.w3.org/1999/xlink">
 <path d="M0,0 l1000,0 l0,1000 l-1000,0 Z M0,0" fill="rgb(242,242,242)" transform="matrix(1,0,0,-1,0,1000)"/>
 <path d="M399,72 c-13.33,-31.33,-32,-53.5,-56,-66.5 c-24,-13,-52,-19.5,-84,-19.5 c-30,0,-58.17,5.67,-84.5,17 c-26.33,11.33,-49.5,28,-69.5,50 c-20,22,-35.83,48.67,-47.5,80 c-11.67,31.33,-17.5,67,-17.5,107 l0,16 c0,39.33,5.67,74.67,17,106 c11.33,31.33,26.67,58,46,80 c19.33,22,41.83,38.83,67.5,50.5 c25.67,11.67,53.17,17.5,82.5,17.5 c35.33,0,63.83,-6,85.5,-18 c21.67,-12,38.83,-30.67,51.5,-56 l18,0 l0,60 l126,0 l0,-346 c0,-20,9,-30,27,-30 l19,0 l0,-120 l-86,0 c-22.67,0,-41.17,6.67,-55.5,20 c-14.33,13.33,-21.5,30.67,-21.5,52 Z M287,106 c36.67,0,66,12.17,88,36.5 c22,24.33,33,57.5,33,99.5 l0,12 c0,42,-11,75.17,-33,99.5 c-22,24.33,-51.33,36.5,-88,36.5 c-36.67,0,-66,-12.17,-88,-36.5 c-22,-24.33,-33,-57.5,-33,-99.5 l0,-12 c0,-42,11,-75.17,33,-99.5 c22,-24.33,51.33,-36.5,88,-36.5 Z M386,700 l0,-14 c0,-38,-12.17,-67.83,-36.5,-89.5 c-24.33,-21.67,-56.17,-32.5,-95.5,-32.5 c-39.33,0,-71.17,10.83,-95.5,32.5 c-24.33,21.67,-36.5,51.5,-36.5,89.5 l0,14 l90,0 l0,-6 c0,-12,3.5,-22,10.5,-30 c7,-8,17.5,-12,31.5,-12 c14,0,24.5,4,31.5,12 c7,8,10.5,18,10.5,30 l0,6 Z M355,-158 c0,-13.33,-2.5,-25.83,-7.5,-37.5 c-5,-11.67,-11.83,-21.67,-20.5,-30 c-8.67,-8.33,-18.83,-15,-30.5,-20 c-11.67,-5,-23.83,-7.5,-36.5,-7.5 c-13.33,0,-25.67,2.5,-37,7.5 c-11.33,5,-21.33,11.67,-30,20 c-8.67,8.33,-15.5,18.33,-20.5,30 c-5,11.67,-7.5,24.17,-7.5,37.5 c0,13.33,2.5,25.83,7.5,37.5 c5,11.67,11.83,21.67,20.5,30 c8.67,8.33,18.67,15,30,20 c11.33,5,23.67,7.5,37,7.5 c12.67,0,24.83,-2.5,36.5,-7.5 c11.67,-5,21.83,-11.67,30.5,-20 c8.67,-8.33,15.5,-18.33,20.5,-30 c5,-11.67,7.5,-24.17,7.5,-37.5 Z M355,-158" fill="rgb(0,0,0)" transform="matrix(0.6172839506172839,0.0,0.0,-0.6172839506172839,310.1851851851852,741.358024691358)"/>
</svg>