<?xml version="1.0" encoding="UTF-8"?>
<svg width="1000" height="1000" viewBox="0 0 1000 1000" version="1.1" xmlns="http://www.w3.org/2000/svg" xmlns:xlink="http://www.w3.org/1999/xlink">
 <path d="M108,-7 c-13.67,0,-26.17,4.33,-37.5,13 c-11.33,8.67,-20.33,19.92,-27,33.75 c-6.67,13.83,-10,28.58,-10,44.25 l0,206.5 c0,24.33,-2.67,44.67,-8,61 c8.0,2.33,15.83,3.5,23.5,3.5 c14.67,0,25.75,-5.42,33.25,-16.25 c7.5,-10.83,11.25,-30.75,11.25,-59.75 c0,-21.67,-0.5,-42.67,-1.5,-63 c-1.0,-20.33,-2.42,-41.33,-4.25,-63 c-1.83,-21.67,-4.42,-45.5,-7.75,-71.5 c5.33,-20.0,17.5,-30,36.5,-30 c16.67,0,32.33,3.42,47,10.25 c14.67,6.83,30.17,21.25,46.5,43.25 c-0.33,8.0,-0.5,16.67,-0.5,26 l0,219.5 c2.67,1.33,5.67,2.25,9,2.75 c3.33,0.5,6.67,0.75,10,0.75 c12.33,0,21.42,-2.75,27.25,-8.25 c5.83,-5.5,8.75,-14.58,8.75,-27.25 l0,-268 c0,-9.33,0.58,-18.25,1.75,-26.75 c1.17,-8.5,2.92,-16.92,5.25,-25.25 c-5.0,-2.0,-10.83,-3,-17.5,-3 c-7.33,0,-13.83,1.42,-19.5,4.25 c-5.67,2.83,-10.42,9.17,-14.25,19 c-3.83,9.83,-6.75,25.58,-8.75,47.25 l-1,0 c-14.33,-27.0,-30.33,-45.92,-48,-56.75 c-17.67,-10.83,-35.83,-16.25,-54.5,-16.25 Z M50.5,445.5 l173,0 c9.67,0,16.33,-2.25,20,-6.75 c3.67,-4.5,5.5,-11.58,5.5,-21.25 c0,-3.0,-0.17,-5.92,-0.5,-8.75 c-0.33,-2.83,-0.83,-5.58,-1.5,-8.25 l-150.5,0 c-19.0,0,-31.42,2.92,-37.25,8.75 c-5.83,5.83,-8.75,15.42,-8.75,28.75 Z M66.5,538.5 c3.67,0.67,7.75,1.08,12.25,1.25 c4.5,0.17,8.58,0.25,12.25,0.25 c9.67,0,18.25,-1.42,25.75,-4.25 c7.5,-2.83,11.25,-8.58,11.25,-17.25 l0,-39 c-4.0,-0.67,-8.17,-1.17,-12.5,-1.5 c-4.33,-0.33,-8.5,-0.5,-12.5,-0.5 c-9.33,0,-17.75,1.58,-25.25,4.75 c-7.5,3.17,-11.25,8.92,-11.25,17.25 Z M172,538.5 c8.0,1.0,16.17,1.5,24.5,1.5 c9.67,0,18.25,-1.42,25.75,-4.25 c7.5,-2.83,11.25,-8.58,11.25,-17.25 l0,-39 c-3.67,-0.67,-7.75,-1.17,-12.25,-1.5 c-4.5,-0.33,-8.75,-0.5,-12.75,-0.5 c-9.33,0,-17.75,1.58,-25.25,4.75 c-7.5,3.17,-11.25,8.92,-11.25,17.25 Z M172,538.5" fill="rgb(0,0,0)" transform="matrix(1.6453382084095065,0.0,0.0,-1.6453382084095065,255.66727605118825,938.4826325411335)"/>
</svg>