<?xml version="1.0" encoding="UTF-8"?>
<svg width="1000" height="1000" viewBox="0 0 1000 1000" version="1.1" xmlns="http://www.w3.org/2000/svg" xmlns:xlink="http://www.w3.org/1999/xlink">
 <path d="M0,0 l1000,0 l0,1000 l-1000,0 Z M0,0" fill="rgb(242,242,242)" transform="matrix(1,0,0,-1,0,1000)"/>
 <path d="M425,150 l-238,0 l-34,-150 l-138,0 l167,700 l248,0 l167,-700 l-138,0 Z M215,276 l181,0 l-81,358 l-18,0 Z M355,774 l-43,88 l-12,0 l-43,-88 l-121,0 l84,136 l172,0 l84,-136 Z M155,862 l-102,0 l-84,136 l134,0 Z M155,862" fill="rgb(0,0,0)" transform="matrix(0.6172839506172839,0.0,0.0,-0.6172839506172839,310.1851851851852,741.358024691358)"/>
</svg>