<?xml version="1.0" encoding="UTF-8"?>
<svg width="1000" height="1000" viewBox="0 0 1000 1000" version="1.1" xmlns="http://www.w3.org/2000/svg" xmlns:xlink="http://www.w3.org/1999/xlink">
 <path d="M0,0 l1000,0 l0,1000 l-1000,0 Z M0,0" fill="rgb(242,242,242)" transform="matrix(1,0,0,-1,0,1000)"/>
 <path d="M46,700 l254,0 c86.67,0,151,-20.17,193,-60.5 c42,-40.33,63,-102.83,63,-187.5 l0,-204 c0,-84.67,-21,-147.17,-63,-187.5 c-42,-40.33,-106.33,-60.5,-193,-60.5 l-254,0 l0,127 l66,0 l0,447 l-66,0 Z M300,126 c46,0,78.17,10.83,96.5,32.5 c18.33,21.67,27.5,55.5,27.5,101.5 l0,192 c0,40,-9.17,70.33,-27.5,91 c-18.33,20.67,-50.5,31,-96.5,31 l-56,0 l0,-448 Z M397,-158 c0,-13.33,-2.5,-25.83,-7.5,-37.5 c-5,-11.67,-11.83,-21.67,-20.5,-30 c-8.67,-8.33,-18.83,-15,-30.5,-20 c-11.67,-5,-23.83,-7.5,-36.5,-7.5 c-13.33,0,-25.67,2.5,-37,7.5 c-11.33,5,-21.33,11.67,-30,20 c-8.67,8.33,-15.5,18.33,-20.5,30 c-5,11.67,-7.5,24.17,-7.5,37.5 c0,13.33,2.5,25.83,7.5,37.5 c5,11.67,11.83,21.67,20.5,30 c8.67,8.33,18.67,15,30,20 c11.33,5,23.67,7.5,37,7.5 c12.67,0,24.83,-2.5,36.5,-7.5 c11.67,-5,21.83,-11.67,30.5,-20 c8.67,-8.33,15.5,-18.33,20.5,-30 c5,-11.67,7.5,-24.17,7.5,-37.5 Z M397,-158" fill="rgb(0,0,0)" transform="matrix(0.6172839506172839,0.0,0.0,-0.6172839506172839,310.1851851851852,741.358024691358)"/>
</svg>