<?xml version="1.0" encoding="UTF-8"?>
<svg width="1000" height="1000" viewBox="0 0 1000 1000" version="1.1" xmlns="http://www.w3.org/2000/svg" xmlns:xlink="http://www.w3.org/1999/xlink">
 <path d="M151,272.5 c21.67,0,41.33,-5.5,59,-16.5 c3.33,0,6.67,0.42,10,1.25 c3.33,0.83,6.67,2.25,10,4.25 c3.67,2.33,6.58,5.92,8.75,10.75 c2.17,4.83,3.25,11.75,3.25,20.75 c0,12.67,-1.83,24.33,-5.5,35 c3.0,1.67,6.42,2.92,10.25,3.75 c3.83,0.83,8.42,1.25,13.75,1.25 c18.67,0,28,-10.0,28,-30 c0,-14.0,-2.33,-25.42,-7,-34.25 c-4.67,-8.83,-11.0,-15.92,-19,-21.25 c-4.67,-3.33,-9.42,-5.92,-14.25,-7.75 c-4.83,-1.83,-9.58,-3.25,-14.25,-4.25 c11.33,-12.67,20.33,-28.42,27,-47.25 c6.67,-18.83,10,-40.58,10,-65.25 l0,-5.5 c0,-25.0,-5.08,-46.75,-15.25,-65.25 c-10.17,-18.5,-24.42,-32.75,-42.75,-42.75 c-18.33,-10.0,-39.83,-15,-64.5,-15 c-22.67,0,-43.0,4.58,-61,13.75 c-18.0,9.17,-32.25,22.83,-42.75,41 c-10.5,18.17,-15.75,40.92,-15.75,68.25 l0,5.5 c0,30.33,5.25,56.67,15.75,79 c10.5,22.33,24.92,39.67,43.25,52 c18.33,12.33,39.33,18.5,63,18.5 Z M157,222 c-25.67,0,-44.83,-9.17,-57.5,-27.5 c-12.67,-18.33,-19,-43.33,-19,-75 l0,-3 c0,-12.67,1.58,-24.92,4.75,-36.75 c3.17,-11.83,8.42,-22.08,15.75,-30.75 c6.67,-1.33,13.08,-2.42,19.25,-3.25 c6.17,-0.83,13.25,-1.25,21.25,-1.25 c26.67,0,46.33,6.58,59,19.75 c12.67,13.17,19,31.92,19,56.25 l0,3.5 c0,20.0,-2.17,37.92,-6.5,53.75 c-4.33,15.83,-11.33,29.25,-21,40.25 c-4.67,1.67,-9.83,2.75,-15.5,3.25 c-5.67,0.5,-12.17,0.75,-19.5,0.75 Z M115,-43.5 c4.33,1.0,9.0,1.67,14,2 c5.0,0.33,9.83,0.5,14.5,0.5 c12.0,0,21.92,-1.67,29.75,-5 c7.83,-3.33,11.75,-10.0,11.75,-20 l0,-34.5 c-4.33,-1.0,-9.0,-1.67,-14,-2 c-5.0,-0.33,-9.83,-0.5,-14.5,-0.5 c-11.67,0,-21.5,1.67,-29.5,5 c-8.0,3.33,-12,10.0,-12,20 Z M115,-43.5" fill="rgb(0,0,0)" transform="matrix(2.0642201834862384,0.0,0.0,-2.0642201834862384,172.30504587155963,737.3853211009174)"/>
</svg>