<?xml version="1.0" encoding="UTF-8"?>
<svg width="1000" height="1000" viewBox="0 0 1000 1000" version="1.1" xmlns="http://www.w3.org/2000/svg" xmlns:xlink="http://www.w3.org/1999/xlink">
 <path d="M0,0 l1000,0 l0,1000 l-1000,0 Z M0,0" fill="rgb(242,242,242)" transform="matrix(1,0,0,-1,0,1000)"/>
 <path d="M426,486 c0,28,-10.83,52.33,-32.5,73 c-21.67,20.67,-52.17,31,-91.5,31 c-33.33,0,-59.67,-6.83,-79,-20.5 c-19.33,-13.67,-29,-32.17,-29,-55.5 c0,-12,2.33,-22.83,7,-32.5 c4.67,-9.67,12.83,-18.33,24.5,-26 c11.67,-7.67,27,-14.5,46,-20.5 c19,-6,43.17,-11.67,72.5,-17 c73.33,-13.33,129.33,-35.67,168,-67 c38.67,-31.33,58,-77.67,58,-139 l0,-12 c0,-32.67,-5.83,-62.17,-17.5,-88.5 c-11.67,-26.33,-28.5,-48.83,-50.5,-67.5 c-22,-18.67,-48.67,-33,-80,-43 c-31.33,-10,-66.67,-15,-106,-15 c-46,0,-86.5,6.5,-121.5,19.5 c-35,13,-64.17,31,-87.5,54 c-23.33,23,-41,50,-53,81 c-12,31,-18,64.83,-18,101.5 l0,30 l132,0 l0,-24 c0,-42,12.17,-75.5,36.5,-100.5 c24.33,-25,62.17,-37.5,113.5,-37.5 c40,0,69.67,8.67,89,26 c19.33,17.33,29,38,29,62 c0,11.33,-2,22.17,-6,32.5 c-4,10.33,-11,19.67,-21,28 c-10,8.33,-23.67,15.83,-41,22.5 c-17.33,6.67,-39.33,12.33,-66,17 c-35.33,6,-67.67,13.83,-97,23.5 c-29.33,9.67,-54.83,22.5,-76.5,38.5 c-21.67,16,-38.5,36,-50.5,60 c-12,24,-18,53.33,-18,88 l0,6 c0,28.67,5.83,55.17,17.5,79.5 c11.67,24.33,28,45.5,49,63.5 c21,18,46.33,32,76,42 c29.67,10,62.83,15,99.5,15 c41.33,0,78,-5.83,110,-17.5 c32,-11.67,58.83,-27.5,80.5,-47.5 c21.67,-20,38,-43,49,-69 c11,-26,16.5,-53.33,16.5,-82 l0,-36 l-132,0 Z M398,869 c0,-13.33,-2.5,-25.83,-7.5,-37.5 c-5,-11.67,-11.83,-21.67,-20.5,-30 c-8.67,-8.33,-18.83,-15,-30.5,-20 c-11.67,-5,-23.83,-7.5,-36.5,-7.5 c-13.33,0,-25.67,2.5,-37,7.5 c-11.33,5,-21.33,11.67,-30,20 c-8.67,8.33,-15.5,18.33,-20.5,30 c-5,11.67,-7.5,24.17,-7.5,37.5 c0,13.33,2.5,25.83,7.5,37.5 c5,11.67,11.83,21.67,20.5,30 c8.67,8.33,18.67,15,30,20 c11.33,5,23.67,7.5,37,7.5 c12.67,0,24.83,-2.5,36.5,-7.5 c11.67,-5,21.83,-11.67,30.5,-20 c8.67,-8.33,15.5,-18.33,20.5,-30 c5,-11.67,7.5,-24.17,7.5,-37.5 Z M398,869" fill="rgb(0,0,0)" transform="matrix(0.6172839506172839,0.0,0.0,-0.6172839506172839,310.1851851851852,741.358024691358)"/>
</svg>