<?xml version="1.0" encoding="UTF-8"?>
<svg width="1000" height="1000" viewBox="0 0 1000 1000" version="1.1" xmlns="http://www.w3.org/2000/svg" xmlns:xlink="http://www.w3.org/1999/xlink">
 <path d="M0,0 l1000,0 l0,1000 l-1000,0 Z M0,0" fill="rgb(242,242,242)" transform="matrix(1,0,0,-1,0,1000)"/>
 <path d="M425,150 l-238,0 l-34,-150 l-138,0 l167,700 l248,0 l167,-700 l-138,0 Z M215,276 l181,0 l-81,358 l-18,0 Z M438,872 l0,-14 c0,-38,-12.17,-67.83,-36.5,-89.5 c-24.33,-21.67,-56.17,-32.5,-95.5,-32.5 c-39.33,0,-71.17,10.83,-95.5,32.5 c-24.33,21.67,-36.5,51.5,-36.5,89.5 l0,14 l90,0 l0,-6 c0,-12,3.5,-22,10.5,-30 c7,-8,17.5,-12,31.5,-12 c14,0,24.5,4,31.5,12 c7,8,10.5,18,10.5,30 l0,6 Z M307,1044 l134,0 l-84,-136 l-102,0 Z M307,1044" fill="rgb(0,0,0)" transform="matrix(0.6172839506172839,0.0,0.0,-0.6172839506172839,310.1851851851852,741.358024691358)"/>
</svg>