<?xml version="1.0" encoding="UTF-8"?>
<svg width="1000" height="1000" viewBox="0 0 1000 1000" version="1.1" xmlns="http://www.w3.org/2000/svg" xmlns:xlink="http://www.w3.org/1999/xlink">
 <path d="M0,0 l1000,0 l0,1000 l-1000,0 Z M0,0" fill="rgb(242,242,242)" transform="matrix(1,0,0,-1,0,1000)"/>
 <path d="M434,72 l-18,0 c-5.33,-11.33,-11.83,-22.17,-19.5,-32.5 c-7.67,-10.33,-17.67,-19.5,-30,-27.5 c-12.33,-8,-27,-14.33,-44,-19 c-17,-4.67,-37.5,-7,-61.5,-7 c-30.67,0,-59.17,5.5,-85.5,16.5 c-26.33,11,-49.33,27.33,-69,49 c-19.67,21.67,-35,48.17,-46,79.5 c-11,31.33,-16.5,67.33,-16.5,108 l0,18 c0,40,5.83,75.67,17.5,107 c11.67,31.33,27.67,57.83,48,79.5 c20.33,21.67,44,38.17,71,49.5 c27,11.33,55.5,17,85.5,17 c40,0,71.67,-7.5,95,-22.5 c23.33,-15,41.67,-36.17,55,-63.5 l18,0 l0,276 l126,0 l0,-700 l-126,0 Z M302,106 c39.33,0,71.17,12.5,95.5,37.5 c24.33,25,36.5,57.83,36.5,98.5 l0,12 c0,40.67,-12.17,73.5,-36.5,98.5 c-24.33,25,-56.17,37.5,-95.5,37.5 c-39.33,0,-71.17,-12.17,-95.5,-36.5 c-24.33,-24.33,-36.5,-57.5,-36.5,-99.5 l0,-12 c0,-42,12.17,-75.17,36.5,-99.5 c24.33,-24.33,56.17,-36.5,95.5,-36.5 Z M358,-158 c0,-13.33,-2.5,-25.83,-7.5,-37.5 c-5,-11.67,-11.83,-21.67,-20.5,-30 c-8.67,-8.33,-18.83,-15,-30.5,-20 c-11.67,-5,-23.83,-7.5,-36.5,-7.5 c-13.33,0,-25.67,2.5,-37,7.5 c-11.33,5,-21.33,11.67,-30,20 c-8.67,8.33,-15.5,18.33,-20.5,30 c-5,11.67,-7.5,24.17,-7.5,37.5 c0,13.33,2.5,25.83,7.5,37.5 c5,11.67,11.83,21.67,20.5,30 c8.67,8.33,18.67,15,30,20 c11.33,5,23.67,7.5,37,7.5 c12.67,0,24.83,-2.5,36.5,-7.5 c11.67,-5,21.83,-11.67,30.5,-20 c8.67,-8.33,15.5,-18.33,20.5,-30 c5,-11.67,7.5,-24.17,7.5,-37.5 Z M358,-158" fill="rgb(0,0,0)" transform="matrix(0.6172839506172839,0.0,0.0,-0.6172839506172839,310.1851851851852,741.358024691358)"/>
</svg>