<?xml version="1.0" encoding="UTF-8"?>
<svg width="1000" height="1000" viewBox="0 0 1000 1000" version="1.1" xmlns="http://www.w3.org/2000/svg" xmlns:xlink="http://www.w3.org/1999/xlink">
 <path d="M0,0 l1000,0 l0,1000 l-1000,0 Z M0,0" fill="rgb(242,242,242)" transform="matrix(1,0,0,-1,0,1000)"/>
 <path d="M543,0 l-132,0 l0,210 c0,16,-4.17,29,-12.5,39 c-8.33,10,-22.17,15,-41.5,15 l-152,0 l0,-264 l-132,0 l0,700 l268,0 c36,0,67.67,-5,95,-15 c27.33,-10,50.17,-23.83,68.5,-41.5 c18.33,-17.67,32.33,-38.17,42,-61.5 c9.67,-23.33,14.5,-48.33,14.5,-75 l0,-24 c0,-28.67,-7.67,-55.5,-23,-80.5 c-15.33,-25,-39,-44.17,-71,-57.5 l0,-18 c23.33,-2.67,41.83,-11.67,55.5,-27 c13.67,-15.33,20.5,-34.67,20.5,-58 Z M205,390 l126,0 c32,0,56.33,7.5,73,22.5 c16.67,15,25,36.17,25,63.5 l0,12 c0,23.33,-8.33,43.5,-25,60.5 c-16.67,17,-41,25.5,-73,25.5 l-126,0 Z M455,-166 l-294,0 l0,102 l294,0 Z M455,-166" fill="rgb(0,0,0)" transform="matrix(0.6172839506172839,0.0,0.0,-0.6172839506172839,310.1851851851852,741.358024691358)"/>
</svg>