<?xml version="1.0" encoding="UTF-8"?>
<svg width="1000" height="1000" viewBox="0 0 1000 1000" version="1.1" xmlns="http://www.w3.org/2000/svg" xmlns:xlink="http://www.w3.org/1999/xlink">
 <path d="M87,0 c-4.0,-1.0,-8.0,-1.83,-12,-2.5 c-4.0,-0.67,-8.17,-1,-12.5,-1 c-9.0,0,-16.67,1.75,-23,5.25 c-6.33,3.5,-9.5,9.75,-9.5,18.75 c0,24.33,1.0,48.0,3,71 c-6.0,2.0,-10.0,6.42,-12,13.25 c-2.0,6.83,-3,15.75,-3,26.75 l0,9 l21,0 c6.33,43.33,16.25,82.92,29.75,118.75 c13.5,35.83,29.58,66.58,48.25,92.25 c4.33,1.0,8.83,1.83,13.5,2.5 c4.67,0.67,9.33,1,14,1 c13.33,0,24.08,-1.83,32.25,-5.5 c8.17,-3.67,15.25,-9.58,21.25,-17.75 c6.0,-8.17,11.83,-19.08,17.5,-32.75 c9.0,-19.33,17.33,-42.08,25,-68.25 c7.67,-26.17,14.0,-54.67,19,-85.5 c5.0,-30.83,8.0,-63.08,9,-96.75 c0.67,-8.33,1.08,-16.42,1.25,-24.25 c0.17,-7.83,0.42,-15.92,0.75,-24.25 c-6.0,-2.33,-13.33,-3.5,-22,-3.5 c-11.33,0,-20.0,2.33,-26,7 c-6.0,4.67,-9.17,13.33,-9.5,26 c-0.67,21.0,-1.83,41.33,-3.5,61 l-119,0 c-2.33,-27.33,-3.5,-57.5,-3.5,-90.5 Z M160.5,140.5 c8.67,0,16.42,-0.83,23.25,-2.5 c6.83,-1.67,12.75,-4.5,17.75,-8.5 l3.5,1.5 c-4.33,32.67,-10.67,64.17,-19,94.5 c-8.33,30.33,-19.0,58.67,-32,85 l-4.5,0 c-13.33,-24.67,-24.42,-50.67,-33.25,-78 c-8.83,-27.33,-15.58,-58.0,-20.25,-92 Z M121,387 c0,5.0,2.0,9.42,6,13.25 c4.0,3.83,10.83,7.42,20.5,10.75 c9.33,3.33,15.92,6.08,19.75,8.25 c3.83,2.17,5.75,4.92,5.75,8.25 c0,0.67,0,1.5,0,2.5 c0,1.0,-0.33,1.83,-1,2.5 c-5.33,2.0,-12.17,3,-20.5,3 c-20.33,0,-37.67,-5.67,-52,-17 l-3,0 c-1.33,2.67,-2.33,5.33,-3,8 c-0.67,2.67,-1,6.0,-1,10 c0,10.33,3.5,18.5,10.5,24.5 c4.67,3.67,10.42,6.67,17.25,9 c6.83,2.33,16.08,3.5,27.75,3.5 c20.0,0,34.92,-3.92,44.75,-11.75 c9.83,-7.83,14.75,-17.92,14.75,-30.25 l0,-1 c0,-7.33,-1.92,-13.25,-5.75,-17.75 c-3.83,-4.5,-9.75,-9.08,-17.75,-13.75 c-8.67,-5.0,-14.33,-9.0,-17,-12 c-2.67,-3.0,-4.33,-6.67,-5,-11 c-2.0,-0.67,-4.75,-1.33,-8.25,-2 c-3.5,-0.67,-7.08,-1,-10.75,-1 c-7.67,0,-13.25,1.33,-16.75,4 c-3.5,2.67,-5.25,6.0,-5.25,10 Z M121,387" fill="rgb(0,0,0)" transform="matrix(1.8867924528301887,0.0,0.0,-1.8867924528301887,227.83018867924528,943.3962264150944)"/>
</svg>