<?xml version="1.0" encoding="UTF-8"?>
<svg width="1000" height="1000" viewBox="0 0 1000 1000" version="1.1" xmlns="http://www.w3.org/2000/svg" xmlns:xlink="http://www.w3.org/1999/xlink">
 <path d="M0,0 l1000,0 l0,1000 l-1000,0 Z M0,0" fill="rgb(242,242,242)" transform="matrix(1,0,0,-1,0,1000)"/>
 <path d="M564,242 c0,-41.33,-7,-77.83,-21,-109.5 c-14,-31.67,-33,-58.33,-57,-80 c-24,-21.67,-51.5,-38.17,-82.5,-49.5 c-31,-11.33,-63.5,-17,-97.5,-17 c-34,0,-66.5,5.67,-97.5,17 c-31,11.33,-58.5,27.83,-82.5,49.5 c-24,21.67,-43,48.33,-57,80 c-14,31.67,-21,68.17,-21,109.5 l0,12 c0,40.67,7,76.83,21,108.5 c14,31.67,33,58.5,57,80.5 c24,22,51.5,38.67,82.5,50 c31,11.33,63.5,17,97.5,17 c34,0,66.5,-5.67,97.5,-17 c31,-11.33,58.5,-28,82.5,-50 c24,-22,43,-48.83,57,-80.5 c14,-31.67,21,-67.83,21,-108.5 Z M306,106 c18,0,35,3,51,9 c16,6,30,14.67,42,26 c12,11.33,21.5,25.17,28.5,41.5 c7,16.33,10.5,34.83,10.5,55.5 l0,20 c0,20.67,-3.5,39.17,-10.5,55.5 c-7,16.33,-16.5,30.17,-28.5,41.5 c-12,11.33,-26,20,-42,26 c-16,6,-33,9,-51,9 c-18,0,-35,-3,-51,-9 c-16,-6,-30,-14.67,-42,-26 c-12,-11.33,-21.5,-25.17,-28.5,-41.5 c-7,-16.33,-10.5,-34.83,-10.5,-55.5 l0,-20 c0,-20.67,3.5,-39.17,10.5,-55.5 c7,-16.33,16.5,-30.17,28.5,-41.5 c12,-11.33,26,-20,42,-26 c16,-6,33,-9,51,-9 Z M355,570 l-43,88 l-12,0 l-43,-88 l-121,0 l84,136 l172,0 l84,-136 Z M322,875 c5.33,-6,10.67,-11.5,16,-16.5 c5.33,-5,12.67,-7.5,22,-7.5 c9.33,0,16.83,2.17,22.5,6.5 c5.67,4.33,11.17,10.17,16.5,17.5 l30,38 l77,-61 l-56,-72 c-12,-15.33,-25,-26.5,-39,-33.5 c-14,-7,-29.67,-10.5,-47,-10.5 c-13.33,0,-26.17,3,-38.5,9 c-12.33,6,-24.17,15.67,-35.5,29 c-5.33,6,-10.67,11.5,-16,16.5 c-5.33,5,-12.67,7.5,-22,7.5 c-9.33,0,-16.83,-2.17,-22.5,-6.5 c-5.67,-4.33,-11.17,-10.17,-16.5,-17.5 l-30,-38 l-77,61 l56,72 c12.67,16,26,27.33,40,34 c14,6.67,29.33,10,46,10 c13.33,0,26.17,-3,38.5,-9 c12.33,-6,24.17,-15.67,35.5,-29 Z M322,875" fill="rgb(0,0,0)" transform="matrix(0.6172839506172839,0.0,0.0,-0.6172839506172839,310.1851851851852,741.358024691358)"/>
</svg>