<?xml version="1.0" encoding="UTF-8"?>
<svg width="1000" height="1000" viewBox="0 0 1000 1000" version="1.1" xmlns="http://www.w3.org/2000/svg" xmlns:xlink="http://www.w3.org/1999/xlink">
 <path d="M100,0 c-9.67,0,-18.67,2.5,-27,7.5 c-8.33,5.0,-14.92,11.25,-19.75,18.75 c-4.83,7.5,-7.25,14.92,-7.25,22.25 l0,248.5 l-8.5,0 c-6.67,0,-11.33,3.75,-14,11.25 c-2.67,7.5,-4,15.58,-4,24.25 c0,5.67,0.5,11.5,1.5,17.5 l221,0 c7.0,0,12.42,-1.92,16.25,-5.75 c3.83,-3.83,6.42,-8.42,7.75,-13.75 c1.33,-5.33,2,-10.0,2,-14 c0,-8.0,-1.0,-14.5,-3,-19.5 l-176,0 l-1,-2.5 c9.0,-7.67,13.5,-20.0,13.5,-37 l0,-68.5 l107,0 c9.67,0,16.67,-3.67,21,-11 c4.33,-7.33,6.5,-15.5,6.5,-24.5 c0,-2.33,0,-4.5,0,-6.5 c0,-2.0,-0.17,-3.83,-0.5,-5.5 l-134,0 l0,-88.5 l128,0 c11.0,0,20.17,-2.58,27.5,-7.75 c7.33,-5.17,11,-13.58,11,-25.25 c0,-3.33,-0.17,-6.83,-0.5,-10.5 c-0.33,-3.67,-0.83,-6.83,-1.5,-9.5 Z M121,387 c0,5.0,2.0,9.42,6,13.25 c4.0,3.83,10.83,7.42,20.5,10.75 c9.33,3.33,15.92,6.08,19.75,8.25 c3.83,2.17,5.75,4.92,5.75,8.25 c0,0.67,0,1.5,0,2.5 c0,1.0,-0.33,1.83,-1,2.5 c-5.33,2.0,-12.17,3,-20.5,3 c-20.33,0,-37.67,-5.67,-52,-17 l-3,0 c-1.33,2.67,-2.33,5.33,-3,8 c-0.67,2.67,-1,6.0,-1,10 c0,10.33,3.5,18.5,10.5,24.5 c4.67,3.67,10.42,6.67,17.25,9 c6.83,2.33,16.08,3.5,27.75,3.5 c20.0,0,34.92,-3.92,44.75,-11.75 c9.83,-7.83,14.75,-17.92,14.75,-30.25 l0,-1 c0,-7.33,-1.92,-13.25,-5.75,-17.75 c-3.83,-4.5,-9.75,-9.08,-17.75,-13.75 c-8.67,-5.0,-14.33,-9.0,-17,-12 c-2.67,-3.0,-4.33,-6.67,-5,-11 c-2.0,-0.67,-4.75,-1.33,-8.25,-2 c-3.5,-0.67,-7.08,-1,-10.75,-1 c-7.67,0,-13.25,1.33,-16.75,4 c-3.5,2.67,-5.25,6.0,-5.25,10 Z M121,387" fill="rgb(0,0,0)" transform="matrix(1.9007391763463568,0.0,0.0,-1.9007391763463568,226.76874340021124,950.0)"/>
</svg>