<?xml version="1.0" encoding="UTF-8"?>
<svg width="1000" height="1000" viewBox="0 0 1000 1000" version="1.1" xmlns="http://www.w3.org/2000/svg" xmlns:xlink="http://www.w3.org/1999/xlink">
 <path d="M0,0 l1000,0 l0,1000 l-1000,0 Z M0,0" fill="rgb(242,242,242)" transform="matrix(1,0,0,-1,0,1000)"/>
 <path d="M606,492 c0,-25.33,-8.67,-46.67,-26,-64 c-17.33,-17.33,-38.67,-26,-64,-26 l-94,0 l0,-192 c0,-73.33,-17.83,-129,-53.5,-167 c-35.67,-38,-85.83,-57,-150.5,-57 c-64.67,0,-114.83,19,-150.5,57 c-35.67,38,-53.5,93.67,-53.5,167 l0,280 c0,73.33,17.83,129,53.5,167 c35.67,38,85.83,57,150.5,57 c64.67,0,114.83,-19,150.5,-57 c35.67,-38,53.5,-93.67,53.5,-167 l0,-10 l79,0 c18,0,27,10,27,30 l0,16 l-9,0 c-12,0,-23.17,2.33,-33.5,7 c-10.33,4.67,-19.5,11,-27.5,19 c-8,8,-14.33,17.17,-19,27.5 c-4.67,10.33,-7,21.5,-7,33.5 c0,12,2.33,23.17,7,33.5 c4.67,10.33,11,19.5,19,27.5 c8,8,17.17,14.33,27.5,19 c10.33,4.67,21.5,7,33.5,7 c12,0,23.17,-2.33,33.5,-7 c10.33,-4.67,19.5,-11,27.5,-19 c8,-8,14.33,-17.17,19,-27.5 c4.67,-10.33,7,-21.5,7,-33.5 Z M218,112 c22,0,39.5,7.5,52.5,22.5 c13,15,19.5,37.5,19.5,67.5 l0,296 c0,30,-6.5,52.5,-19.5,67.5 c-13,15,-30.5,22.5,-52.5,22.5 c-22,0,-39.5,-7.5,-52.5,-22.5 c-13,-15,-19.5,-37.5,-19.5,-67.5 l0,-296 c0,-30,6.5,-52.5,19.5,-67.5 c13,-15,30.5,-22.5,52.5,-22.5 Z M235,891 c5.33,-6,10.67,-11.5,16,-16.5 c5.33,-5,12.67,-7.5,22,-7.5 c9.33,0,16.83,2.17,22.5,6.5 c5.67,4.33,11.17,10.17,16.5,17.5 l30,38 l77,-61 l-56,-72 c-12,-15.33,-25,-26.5,-39,-33.5 c-14,-7,-29.67,-10.5,-47,-10.5 c-13.33,0,-26.17,3,-38.5,9 c-12.33,6,-24.17,15.67,-35.5,29 c-5.33,6,-10.67,11.5,-16,16.5 c-5.33,5,-12.67,7.5,-22,7.5 c-9.33,0,-16.83,-2.17,-22.5,-6.5 c-5.67,-4.33,-11.17,-10.17,-16.5,-17.5 l-30,-38 l-77,61 l56,72 c12.67,16,26,27.33,40,34 c14,6.67,29.33,10,46,10 c13.33,0,26.17,-3,38.5,-9 c12.33,-6,24.17,-15.67,35.5,-29 Z M235,891" fill="rgb(0,0,0)" transform="matrix(0.6172839506172839,0.0,0.0,-0.6172839506172839,310.1851851851852,741.358024691358)"/>
</svg>