<?xml version="1.0" encoding="UTF-8"?>
<svg width="1000" height="1000" viewBox="0 0 1000 1000" version="1.1" xmlns="http://www.w3.org/2000/svg" xmlns:xlink="http://www.w3.org/1999/xlink">
 <path d="M0,0 l1000,0 l0,1000 l-1000,0 Z M0,0" fill="rgb(242,242,242)" transform="matrix(1,0,0,-1,0,1000)"/>
 <path d="M206,0 l-126,0 l0,700 l126,0 l0,-284 l18,0 c12.67,30,31.33,53.17,56,69.5 c24.67,16.33,55,24.5,91,24.5 c24.67,0,47.33,-4,68,-12 c20.67,-8,38.67,-20,54,-36 c15.33,-16,27.33,-36.5,36,-61.5 c8.67,-25,13,-54.5,13,-88.5 l0,-312 l-126,0 l0,282 c0,35.33,-8.5,63.17,-25.5,83.5 c-17,20.33,-41.5,30.5,-73.5,30.5 c-37.33,0,-65.17,-12.5,-83.5,-37.5 c-18.33,-25,-27.5,-58.5,-27.5,-100.5 Z M443,-63 l0,-14 c0,-38,-12.17,-67.83,-36.5,-89.5 c-24.33,-21.67,-56.17,-32.5,-95.5,-32.5 c-39.33,0,-71.17,10.83,-95.5,32.5 c-24.33,21.67,-36.5,51.5,-36.5,89.5 l0,14 l90,0 l0,-6 c0,-12,3.5,-22,10.5,-30 c7,-8,17.5,-12,31.5,-12 c14,0,24.5,4,31.5,12 c7,8,10.5,18,10.5,30 l0,6 Z M443,-63" fill="rgb(0,0,0)" transform="matrix(0.6172839506172839,0.0,0.0,-0.6172839506172839,310.1851851851852,741.358024691358)"/>
</svg>