<?xml version="1.0" encoding="UTF-8"?>
<svg width="1000" height="1000" viewBox="0 0 1000 1000" version="1.1" xmlns="http://www.w3.org/2000/svg" xmlns:xlink="http://www.w3.org/1999/xlink">
 <path d="M184,-1.5 c-4.33,-1.0,-8.25,-1.75,-11.75,-2.25 c-3.5,-0.5,-7.58,-0.75,-12.25,-0.75 c-14.67,0,-24.67,3.5,-30,10.5 c-5.33,7.0,-8,17.0,-8,30 l0,77.5 c-1.33,1.0,-2.83,2.33,-4.5,4 c-17.33,17.67,-32.08,36.75,-44.25,57.25 c-12.17,20.5,-22.25,44.92,-30.25,73.25 c-8.0,28.33,-14.83,62.83,-20.5,103.5 c7.67,2.0,15.5,3,23.5,3 c10.67,0,19.0,-2.42,25,-7.25 c6.0,-4.83,10.0,-14.58,12,-29.25 c3.33,-22.0,7.42,-41.92,12.25,-59.75 c4.83,-17.83,11.25,-35.08,19.25,-51.75 c8.0,-16.67,18.5,-34.67,31.5,-54 l5,0 c15.33,20.67,27.58,40.58,36.75,59.75 c9.17,19.17,16.42,39.83,21.75,62 c5.33,22.17,9.67,47.92,13,77.25 c7.67,2.0,15.5,3,23.5,3 c10.33,0,18.0,-2.42,23,-7.25 c5.0,-4.83,7.17,-11.08,6.5,-18.75 c-5.33,-48.33,-16.58,-90.17,-33.75,-125.5 c-17.17,-35.33,-38.42,-65.67,-63.75,-91 l0,-59 c0,-9.67,0.42,-19.0,1.25,-28 c0.83,-9.0,2.42,-17.83,4.75,-26.5 Z M122,387 c0,5.0,2.0,9.42,6,13.25 c4.0,3.83,10.83,7.42,20.5,10.75 c9.33,3.33,15.92,6.08,19.75,8.25 c3.83,2.17,5.75,4.92,5.75,8.25 c0,0.67,0,1.5,0,2.5 c0,1.0,-0.33,1.83,-1,2.5 c-5.33,2.0,-12.17,3,-20.5,3 c-20.33,0,-37.67,-5.67,-52,-17 l-3,0 c-1.33,2.67,-2.33,5.33,-3,8 c-0.67,2.67,-1,6.0,-1,10 c0,10.33,3.5,18.5,10.5,24.5 c4.67,3.67,10.42,6.67,17.25,9 c6.83,2.33,16.08,3.5,27.75,3.5 c20.0,0,34.92,-3.92,44.75,-11.75 c9.83,-7.83,14.75,-17.92,14.75,-30.25 l0,-1 c0,-7.33,-1.92,-13.25,-5.75,-17.75 c-3.83,-4.5,-9.75,-9.08,-17.75,-13.75 c-8.67,-5.0,-14.33,-9.0,-17,-12 c-2.67,-3.0,-4.33,-6.67,-5,-11 c-2.0,-0.67,-4.75,-1.33,-8.25,-2 c-3.5,-0.67,-7.08,-1,-10.75,-1 c-7.67,0,-13.25,1.33,-16.75,4 c-3.5,2.67,-5.25,6.0,-5.25,10 Z M122,387" fill="rgb(0,0,0)" transform="matrix(1.8828451882845187,0.0,0.0,-1.8828451882845187,219.34530962171638,941.5271966527197)"/>
</svg>