<?xml version="1.0" encoding="UTF-8"?>
<svg width="1000" height="1000" viewBox="0 0 1000 1000" version="1.1" xmlns="http://www.w3.org/2000/svg" xmlns:xlink="http://www.w3.org/1999/xlink">
 <path d="M0,0 l1000,0 l0,1000 l-1000,0 Z M0,0" fill="rgb(242,242,242)" transform="matrix(1,0,0,-1,0,1000)"/>
 <path d="M576,0 l-126,0 l0,348 c0,14,-3.5,24.5,-10.5,31.5 c-7,7,-16.17,10.5,-27.5,10.5 c-13.33,0,-23.83,-4,-31.5,-12 c-7.67,-8,-11.5,-20,-11.5,-36 l0,-342 l-126,0 l0,348 c0,14,-3.83,24.5,-11.5,31.5 c-7.67,7,-16.83,10.5,-27.5,10.5 c-12,0,-22,-4,-30,-12 c-8,-8,-12,-20,-12,-36 l0,-342 l-126,0 l0,496 l126,0 l0,-48 l18,0 c4,18,13.17,32.83,27.5,44.5 c14.33,11.67,33.17,17.5,56.5,17.5 c22,0,40.67,-5.83,56,-17.5 c15.33,-11.67,25.67,-26.5,31,-44.5 l18,0 c5.33,18,16.5,32.83,33.5,44.5 c17,11.67,38.17,17.5,63.5,17.5 c33.33,0,60,-11.17,80,-33.5 c20,-22.33,30,-53.17,30,-92.5 Z M401,-158 c0,-13.33,-2.5,-25.83,-7.5,-37.5 c-5,-11.67,-11.83,-21.67,-20.5,-30 c-8.67,-8.33,-18.83,-15,-30.5,-20 c-11.67,-5,-23.83,-7.5,-36.5,-7.5 c-13.33,0,-25.67,2.5,-37,7.5 c-11.33,5,-21.33,11.67,-30,20 c-8.67,8.33,-15.5,18.33,-20.5,30 c-5,11.67,-7.5,24.17,-7.5,37.5 c0,13.33,2.5,25.83,7.5,37.5 c5,11.67,11.83,21.67,20.5,30 c8.67,8.33,18.67,15,30,20 c11.33,5,23.67,7.5,37,7.5 c12.67,0,24.83,-2.5,36.5,-7.5 c11.67,-5,21.83,-11.67,30.5,-20 c8.67,-8.33,15.5,-18.33,20.5,-30 c5,-11.67,7.5,-24.17,7.5,-37.5 Z M401,-158" fill="rgb(0,0,0)" transform="matrix(0.6172839506172839,0.0,0.0,-0.6172839506172839,310.1851851851852,741.358024691358)"/>
</svg>