<?xml version="1.0" encoding="UTF-8"?>
<svg width="1000" height="1000" viewBox="0 0 1000 1000" version="1.1" xmlns="http://www.w3.org/2000/svg" xmlns:xlink="http://www.w3.org/1999/xlink">
 <path d="M0,0 l1000,0 l0,1000 l-1000,0 Z M0,0" fill="rgb(242,242,242)" transform="matrix(1,0,0,-1,0,1000)"/>
 <path d="M534,700 l0,-228 l-156,-54 l0,-18 l18,0 c27.33,0,52.83,-4.5,76.5,-13.5 c23.67,-9,44,-21.67,61,-38 c17,-16.33,30.33,-36.33,40,-60 c9.67,-23.67,14.5,-49.83,14.5,-78.5 l0,-6 c0,-29.33,-4.83,-56.33,-14.5,-81 c-9.67,-24.67,-23.83,-46.17,-42.5,-64.5 c-18.67,-18.33,-41.33,-32.67,-68,-43 c-26.67,-10.33,-57.33,-15.5,-92,-15.5 l-89,0 l0,126 l84,0 c29.33,0,51.67,7.33,67,22 c15.33,14.67,23,34.33,23,59 c0,24.67,-7.67,44.33,-23,59 c-15.33,14.67,-37.67,22,-67,22 l-84,0 l0,214 l156,54 l0,18 l-118,0 c-28,0,-50.67,-6,-68,-18 c-17.33,-12,-26,-34,-26,-66 l0,-490 l-132,0 l0,376 l-60,0 l0,120 l60,0 l0,4 c0,32.67,6,61.5,18,86.5 c12,25,28,46,48,63 c20,17,43.33,29.67,70,38 c26.67,8.33,54.67,12.5,84,12.5 Z M534,700" fill="rgb(0,0,0)" transform="matrix(0.6172839506172839,0.0,0.0,-0.6172839506172839,310.1851851851852,741.358024691358)"/>
</svg>