<?xml version="1.0" encoding="UTF-8"?>
<svg width="1000" height="1000" viewBox="0 0 1000 1000" version="1.1" xmlns="http://www.w3.org/2000/svg" xmlns:xlink="http://www.w3.org/1999/xlink">
 <path d="M151,360 c40.0,0,70.08,-15.25,90.25,-45.75 c20.17,-30.5,30.25,-74.25,30.25,-131.25 l0,-11 c0,-57.33,-10.67,-102.0,-32,-134 c-21.33,-32.0,-50.83,-48,-88.5,-48 c-40.67,0,-71.25,14.5,-91.75,43.5 c-20.5,29.0,-30.75,70.67,-30.75,125 l0,11 c0,60.0,10.83,106.75,32.5,140.25 c21.67,33.5,51.67,50.25,90,50.25 Z M81.5,152.5 c0,-25.0,2.42,-45.83,7.25,-62.5 c4.83,-16.67,10.42,-29.33,16.75,-38 c13.0,-6.0,26.5,-9,40.5,-9 c24.33,0,42.5,12.0,54.5,36 c12.0,24.0,18,57.67,18,101 l0,9 c0,27.33,-2.33,49.83,-7,67.5 c-4.67,17.67,-10.83,31.67,-18.5,42 c-6.33,3.33,-12.5,5.58,-18.5,6.75 c-6.0,1.17,-12.83,1.75,-20.5,1.75 c-24.33,0,-42.5,-12.83,-54.5,-38.5 c-12.0,-25.67,-18,-61.5,-18,-107.5 Z M131,470 l19.5,0 c7.67,0,14.58,-0.83,20.75,-2.5 c6.17,-1.67,13.92,-5.33,23.25,-11 c11.67,-7.33,23.08,-16.33,34.25,-27 c11.17,-10.67,21.08,-23.33,29.75,-38 c-8.67,-3.67,-19.0,-5.5,-31,-5.5 c-6.33,0,-11.42,0.92,-15.25,2.75 c-3.83,1.83,-7.58,4.92,-11.25,9.25 c-6.33,6.67,-13.08,12.83,-20.25,18.5 c-7.17,5.67,-16.92,11.67,-29.25,18 l-2.5,0 c-15.0,-8.67,-27.25,-17.17,-36.75,-25.5 c-9.5,-8.33,-17.08,-16.33,-22.75,-24 l-3,0 c-14.33,0,-24.33,1.25,-30,3.75 c-5.67,2.5,-8.5,5.42,-8.5,8.75 c0,2.0,1.0,5.08,3,9.25 c2.0,4.17,5.5,8.92,10.5,14.25 c8.67,9.67,19.08,18.92,31.25,27.75 c12.17,8.83,24.92,15.92,38.25,21.25 Z M190,521.5 c6.67,0,12.08,1.58,16.25,4.75 c4.17,3.17,8.25,9.42,12.25,18.75 l3,0 c3.33,-6.67,5,-14.33,5,-23 c0,-11.67,-1.67,-20.67,-5,-27 c-5.33,-11.33,-14.83,-17,-28.5,-17 c-9.0,0,-17.08,1.75,-24.25,5.25 c-7.17,3.5,-14.0,7.42,-20.5,11.75 c-6.5,4.33,-13.0,8.25,-19.5,11.75 c-6.5,3.5,-13.42,5.25,-20.75,5.25 c-7.33,0,-13.08,-2.0,-17.25,-6 c-4.17,-4.0,-8.25,-9.83,-12.25,-17.5 l-3,0 c-3.33,4.67,-5,11.83,-5,21.5 c0,10.33,1.83,19.33,5.5,27 c5.33,12.0,16.0,18,32,18 c8.0,0,15.42,-1.67,22.25,-5 c6.83,-3.33,13.33,-7.25,19.5,-11.75 c6.17,-4.5,12.58,-8.42,19.25,-11.75 c6.67,-3.33,13.67,-5,21,-5 Z M190,521.5" fill="rgb(0,0,0)" transform="matrix(1.592920353982301,0.0,0.0,-1.592920353982301,261.0619469026549,934.070796460177)"/>
</svg>