<?xml version="1.0" encoding="UTF-8"?>
<svg width="1000" height="1000" viewBox="0 0 1000 1000" version="1.1" xmlns="http://www.w3.org/2000/svg" xmlns:xlink="http://www.w3.org/1999/xlink">
 <path d="M46.5,269.5 c12.67,0,22.42,-1.92,29.25,-5.75 c6.83,-3.83,10.75,-11.58,11.75,-23.25 c4.67,-53.33,14.42,-96.92,29.25,-130.75 c14.83,-33.83,33.75,-57.08,56.75,-69.75 l3.5,0 c9.67,23.0,17.83,52.75,24.5,89.25 c6.67,36.5,11.0,82.42,13,137.75 c8.0,2.0,14.83,3,20.5,3 c12.0,0,21.33,-2.33,28,-7 c6.67,-4.67,9.5,-13.0,8.5,-25 c-4.67,-53.0,-11.67,-98.25,-21,-135.75 c-9.33,-37.5,-20.58,-69.0,-33.75,-94.5 c-13.17,-25.5,-28.25,-46.75,-45.25,-63.75 c-14.0,-14.0,-28.33,-24.83,-43,-32.5 c-14.67,-7.67,-29.5,-11.5,-44.5,-11.5 c-9.33,0,-17.0,3.0,-23,9 c-7.67,7.67,-11.5,21.33,-11.5,41 l0,1.5 l10.5,0 c14.67,0,29.0,2.92,43,8.75 c14.0,5.83,27.33,14.92,40,27.25 c6.33,6.33,12.17,13.5,17.5,21.5 c-25.33,2.33,-46.5,13.5,-63.5,33.5 c-7.0,8.33,-14.08,18.33,-21.25,30 c-7.17,11.67,-13.92,26.0,-20.25,43 c-6.33,17.0,-12.0,37.92,-17,62.75 c-5.0,24.83,-9.17,54.42,-12.5,88.75 c3.67,1.0,7.08,1.67,10.25,2 c3.17,0.33,6.58,0.5,10.25,0.5 Z M195,365.5 c10.0,0,18.17,1.83,24.5,5.5 c6.33,3.67,13.0,10.33,20,20 l3,0 c1.33,-3.0,2.33,-6.42,3,-10.25 c0.67,-3.83,1,-8.42,1,-13.75 c0,-5.67,-0.92,-11.5,-2.75,-17.5 c-1.83,-6.0,-5.25,-11.5,-10.25,-16.5 c-8.0,-8.0,-20.0,-12,-36,-12 c-10.0,0,-18.92,1.42,-26.75,4.25 c-7.83,2.83,-15.08,6.08,-21.75,9.75 c-6.67,3.67,-13.67,6.92,-21,9.75 c-7.33,2.83,-15.5,4.25,-24.5,4.25 c-9.33,0,-17.17,-1.92,-23.5,-5.75 c-6.33,-3.83,-12.83,-10.42,-19.5,-19.75 l-3,0 c-1.33,3.33,-2.33,6.42,-3,9.25 c-0.67,2.83,-1,6.75,-1,11.75 c0,6.67,1.0,13.17,3,19.5 c2.0,6.33,5.17,11.67,9.5,16 c4.0,4.0,8.83,7.25,14.5,9.75 c5.67,2.5,12.33,3.75,20,3.75 c10.67,0,20.0,-1.42,28,-4.25 c8.0,-2.83,15.5,-6.08,22.5,-9.75 c7.0,-3.67,14.0,-6.92,21,-9.75 c7.0,-2.83,14.67,-4.25,23,-4.25 Z M195,365.5" fill="rgb(0,0,0)" transform="matrix(1.8237082066869301,0.0,0.0,-1.8237082066869301,228.54499531967696,767.629179331307)"/>
</svg>