<?xml version="1.0" encoding="UTF-8"?>
<svg width="1000" height="1000" viewBox="0 0 1000 1000" version="1.1" xmlns="http://www.w3.org/2000/svg" xmlns:xlink="http://www.w3.org/1999/xlink">
 <path d="M0,0 l1000,0 l0,1000 l-1000,0 Z M0,0" fill="rgb(242,242,242)" transform="matrix(1,0,0,-1,0,1000)"/>
 <path d="M498,-166 l-287,0 l0,102 l287,0 Z M64,496 l147,0 l0,204 l126,0 l0,-204 l179,0 l0,-120 l-179,0 l0,-226 c0,-20,9,-30,27,-30 l134,0 l0,-120 l-210,0 c-22.67,0,-41.17,7.33,-55.5,22 c-14.33,14.67,-21.5,33.33,-21.5,56 l0,298 l-147,0 Z M64,496" fill="rgb(0,0,0)" transform="matrix(0.6172839506172839,0.0,0.0,-0.6172839506172839,310.1851851851852,741.358024691358)"/>
</svg>