<?xml version="1.0" encoding="UTF-8"?>
<svg width="1000" height="1000" viewBox="0 0 1000 1000" version="1.1" xmlns="http://www.w3.org/2000/svg" xmlns:xlink="http://www.w3.org/1999/xlink">
 <path d="M0,0 l1000,0 l0,1000 l-1000,0 Z M0,0" fill="rgb(242,242,242)" transform="matrix(1,0,0,-1,0,1000)"/>
 <path d="M399,72 c-13.33,-31.33,-32,-53.5,-56,-66.5 c-24,-13,-52,-19.5,-84,-19.5 c-30,0,-58.17,5.67,-84.5,17 c-26.33,11.33,-49.5,28,-69.5,50 c-20,22,-35.83,48.67,-47.5,80 c-11.67,31.33,-17.5,67,-17.5,107 l0,16 c0,39.33,5.67,74.67,17,106 c11.33,31.33,26.67,58,46,80 c19.33,22,41.83,38.83,67.5,50.5 c25.67,11.67,53.17,17.5,82.5,17.5 c35.33,0,63.83,-6,85.5,-18 c21.67,-12,38.83,-30.67,51.5,-56 l18,0 l0,60 l126,0 l0,-346 c0,-20,9,-30,27,-30 l19,0 l0,-120 l-86,0 c-22.67,0,-41.17,6.67,-55.5,20 c-14.33,13.33,-21.5,30.67,-21.5,52 Z M287,106 c36.67,0,66,12.17,88,36.5 c22,24.33,33,57.5,33,99.5 l0,12 c0,42,-11,75.17,-33,99.5 c-22,24.33,-51.33,36.5,-88,36.5 c-36.67,0,-66,-12.17,-88,-36.5 c-22,-24.33,-33,-57.5,-33,-99.5 l0,-12 c0,-42,11,-75.17,33,-99.5 c22,-24.33,51.33,-36.5,88,-36.5 Z M303,570 l-43,88 l-12,0 l-43,-88 l-121,0 l84,136 l172,0 l84,-136 Z M270,875 c5.33,-6,10.67,-11.5,16,-16.5 c5.33,-5,12.67,-7.5,22,-7.5 c9.33,0,16.83,2.17,22.5,6.5 c5.67,4.33,11.17,10.17,16.5,17.5 l30,38 l77,-61 l-56,-72 c-12,-15.33,-25,-26.5,-39,-33.5 c-14,-7,-29.67,-10.5,-47,-10.5 c-13.33,0,-26.17,3,-38.5,9 c-12.33,6,-24.17,15.67,-35.5,29 c-5.33,6,-10.67,11.5,-16,16.5 c-5.33,5,-12.67,7.5,-22,7.5 c-9.33,0,-16.83,-2.17,-22.5,-6.5 c-5.67,-4.33,-11.17,-10.17,-16.5,-17.5 l-30,-38 l-77,61 l56,72 c12.67,16,26,27.33,40,34 c14,6.67,29.33,10,46,10 c13.33,0,26.17,-3,38.5,-9 c12.33,-6,24.17,-15.67,35.5,-29 Z M270,875" fill="rgb(0,0,0)" transform="matrix(0.6172839506172839,0.0,0.0,-0.6172839506172839,310.1851851851852,741.358024691358)"/>
</svg>