<?xml version="1.0" encoding="UTF-8"?>
<svg width="1000" height="1000" viewBox="0 0 1000 1000" version="1.1" xmlns="http://www.w3.org/2000/svg" xmlns:xlink="http://www.w3.org/1999/xlink">
 <path d="M151,272.5 c22.0,0,42.08,-5.83,60.25,-17.5 c18.17,-11.67,32.67,-28.58,43.5,-50.75 c10.83,-22.17,16.25,-49.25,16.25,-81.25 l0,-5.5 c0,-25.0,-5.08,-46.75,-15.25,-65.25 c-10.17,-18.5,-24.42,-32.75,-42.75,-42.75 c-18.33,-10.0,-39.83,-15,-64.5,-15 c-22.67,0,-43.0,4.58,-61,13.75 c-18.0,9.17,-32.25,22.83,-42.75,41 c-10.5,18.17,-15.75,40.92,-15.75,68.25 l0,5.5 c0,30.33,5.25,56.67,15.75,79 c10.5,22.33,24.92,39.67,43.25,52 c18.33,12.33,39.33,18.5,63,18.5 Z M157,222 c-25.67,0,-44.83,-9.17,-57.5,-27.5 c-12.67,-18.33,-19,-43.33,-19,-75 l0,-3 c0,-12.67,1.58,-24.92,4.75,-36.75 c3.17,-11.83,8.42,-22.08,15.75,-30.75 c6.67,-1.33,13.08,-2.42,19.25,-3.25 c6.17,-0.83,13.25,-1.25,21.25,-1.25 c26.67,0,46.33,6.58,59,19.75 c12.67,13.17,19,31.92,19,56.25 l0,3.5 c0,20.0,-2.17,37.92,-6.5,53.75 c-4.33,15.83,-11.33,29.25,-21,40.25 c-4.67,1.67,-9.83,2.75,-15.5,3.25 c-5.67,0.5,-12.17,0.75,-19.5,0.75 Z M195,365.5 c10.0,0,18.17,1.83,24.5,5.5 c6.33,3.67,13.0,10.33,20,20 l3,0 c1.33,-3.0,2.33,-6.42,3,-10.25 c0.67,-3.83,1,-8.42,1,-13.75 c0,-5.67,-0.92,-11.5,-2.75,-17.5 c-1.83,-6.0,-5.25,-11.5,-10.25,-16.5 c-8.0,-8.0,-20.0,-12,-36,-12 c-10.0,0,-18.92,1.42,-26.75,4.25 c-7.83,2.83,-15.08,6.08,-21.75,9.75 c-6.67,3.67,-13.67,6.92,-21,9.75 c-7.33,2.83,-15.5,4.25,-24.5,4.25 c-9.33,0,-17.17,-1.92,-23.5,-5.75 c-6.33,-3.83,-12.83,-10.42,-19.5,-19.75 l-3,0 c-1.33,3.33,-2.33,6.42,-3,9.25 c-0.67,2.83,-1,6.75,-1,11.75 c0,6.67,1.0,13.17,3,19.5 c2.0,6.33,5.17,11.67,9.5,16 c4.0,4.0,8.83,7.25,14.5,9.75 c5.67,2.5,12.33,3.75,20,3.75 c10.67,0,20.0,-1.42,28,-4.25 c8.0,-2.83,15.5,-6.08,22.5,-9.75 c7.0,-3.67,14.0,-6.92,21,-9.75 c7.0,-2.83,14.67,-4.25,23,-4.25 Z M66,479.5 c3.67,0.67,7.75,1.08,12.25,1.25 c4.5,0.17,8.58,0.25,12.25,0.25 c9.67,0,18.25,-1.33,25.75,-4 c7.5,-2.67,11.25,-8.33,11.25,-17 l0,-42 c-4.0,-0.67,-8.17,-1.08,-12.5,-1.25 c-4.33,-0.17,-8.5,-0.25,-12.5,-0.25 c-9.33,0,-17.75,1.5,-25.25,4.5 c-7.5,3.0,-11.25,8.83,-11.25,17.5 Z M171.5,479.5 c8.0,1.0,16.17,1.5,24.5,1.5 c9.67,0,18.25,-1.33,25.75,-4 c7.5,-2.67,11.25,-8.33,11.25,-17 l0,-42 c-3.67,-0.67,-7.75,-1.08,-12.25,-1.25 c-4.5,-0.17,-8.75,-0.25,-12.75,-0.25 c-9.33,0,-17.75,1.5,-25.25,4.5 c-7.5,3.0,-11.25,8.83,-11.25,17.5 Z M171.5,479.5" fill="rgb(0,0,0)" transform="matrix(1.8499486125385407,0.0,0.0,-1.8499486125385407,222.50770811921893,939.825282631038)"/>
</svg>