<?xml version="1.0" encoding="UTF-8"?>
<svg width="1000" height="1000" viewBox="0 0 1000 1000" version="1.1" xmlns="http://www.w3.org/2000/svg" xmlns:xlink="http://www.w3.org/1999/xlink">
 <path d="M100,0 c-9.67,0,-18.67,2.5,-27,7.5 c-8.33,5.0,-14.92,11.25,-19.75,18.75 c-4.83,7.5,-7.25,14.92,-7.25,22.25 l0,248.5 l-8.5,0 c-6.67,0,-11.33,3.75,-14,11.25 c-2.67,7.5,-4,15.58,-4,24.25 c0,5.67,0.5,11.5,1.5,17.5 l221,0 c7.0,0,12.42,-1.92,16.25,-5.75 c3.83,-3.83,6.42,-8.42,7.75,-13.75 c1.33,-5.33,2,-10.0,2,-14 c0,-8.0,-1.0,-14.5,-3,-19.5 l-176,0 l-1,-2.5 c9.0,-7.67,13.5,-20.0,13.5,-37 l0,-68.5 l107,0 c9.67,0,16.67,-3.67,21,-11 c4.33,-7.33,6.5,-15.5,6.5,-24.5 c0,-2.33,0,-4.5,0,-6.5 c0,-2.0,-0.17,-3.83,-0.5,-5.5 l-134,0 l0,-88.5 l128,0 c11.0,0,20.17,-2.58,27.5,-7.75 c7.33,-5.17,11,-13.58,11,-25.25 c0,-3.33,-0.17,-6.83,-0.5,-10.5 c-0.33,-3.67,-0.83,-6.83,-1.5,-9.5 Z M200,439.5 c9.0,0,16.83,1.83,23.5,5.5 c6.67,3.67,13.67,9.67,21,18 l3,0 c1.0,-2.67,1.75,-5.83,2.25,-9.5 c0.5,-3.67,0.75,-7.17,0.75,-10.5 c0,-6.67,-0.5,-12.33,-1.5,-17 c-1.0,-4.67,-2.17,-8.5,-3.5,-11.5 c-3.33,-7.33,-8.42,-13.33,-15.25,-18 c-6.83,-4.67,-15.58,-7,-26.25,-7 c-9.0,0,-17.83,1.83,-26.5,5.5 c-8.67,3.67,-17.17,7.92,-25.5,12.75 c-8.33,4.83,-16.83,9.08,-25.5,12.75 c-8.67,3.67,-17.5,5.5,-26.5,5.5 c-9.0,0,-16.83,-1.92,-23.5,-5.75 c-6.67,-3.83,-13.67,-9.75,-21,-17.75 l-3,0 c-1.0,2.67,-1.75,5.83,-2.25,9.5 c-0.5,3.67,-0.75,7.17,-0.75,10.5 c0,6.67,0.5,12.33,1.5,17 c1.0,4.67,2.17,8.5,3.5,11.5 c3.67,7.67,8.92,13.75,15.75,18.25 c6.83,4.5,15.42,6.75,25.75,6.75 c9.0,0,17.83,-1.83,26.5,-5.5 c8.67,-3.67,17.25,-7.92,25.75,-12.75 c8.5,-4.83,17.0,-9.08,25.5,-12.75 c8.5,-3.67,17.25,-5.5,26.25,-5.5 Z M200,439.5" fill="rgb(0,0,0)" transform="matrix(1.8907563025210083,0.0,0.0,-1.8907563025210083,228.20378151260505,950.0)"/>
</svg>