<?xml version="1.0" encoding="UTF-8"?>
<svg width="1000" height="1000" viewBox="0 0 1000 1000" version="1.1" xmlns="http://www.w3.org/2000/svg" xmlns:xlink="http://www.w3.org/1999/xlink">
 <path d="M150,47.5 c16.67,0,30.42,2.0,41.25,6 c10.83,4.0,19.08,8.83,24.75,14.5 c0.33,9.0,-2.25,17.0,-7.75,24 c-5.5,7.0,-17.08,12.33,-34.75,16 l-53,11.5 c-27.33,6.0,-46.75,13.92,-58.25,23.75 c-11.5,9.83,-17.25,23.25,-17.25,40.25 c0,18.0,6.33,33.75,19,47.25 c12.67,13.5,29.33,23.92,50,31.25 c20.67,7.33,43.0,11,67,11 c32.0,0,51.83,-4.0,59.5,-12 c8.0,-7.67,12,-20.83,12,-39.5 c0,-5.67,-0.67,-10.5,-2,-14.5 l-3,0 c-8.33,4.33,-17.5,7.58,-27.5,9.75 c-10.0,2.17,-23.17,3.25,-39.5,3.25 c-25.33,0,-45.42,-3.58,-60.25,-10.75 c-14.83,-7.17,-22.25,-16.08,-22.25,-26.75 c0,-6.0,2.92,-11.5,8.75,-16.5 c5.83,-5.0,18.75,-9.5,38.75,-13.5 l46.5,-9.5 c26.0,-5.0,44.67,-13.25,56,-24.75 c11.33,-11.5,17,-25.25,17,-41.25 c0,-55.0,-39.83,-82.5,-119.5,-82.5 c-26.33,0,-48.17,2.17,-65.5,6.5 c-17.33,4.33,-28.83,9.5,-34.5,15.5 c-4.33,4.33,-7.5,9.67,-9.5,16 c-2.0,6.33,-3,14.67,-3,25 c0,4.0,0.25,7.5,0.75,10.5 c0.5,3.0,0.92,5.67,1.25,8 l3,0 c11.33,-7.33,21.83,-13.08,31.5,-17.25 c9.67,-4.17,20.75,-7.08,33.25,-8.75 c12.5,-1.67,28.25,-2.5,47.25,-2.5 Z M119.5,-43.5 c4.33,1.0,9.0,1.67,14,2 c5.0,0.33,9.83,0.5,14.5,0.5 c12.0,0,21.92,-1.67,29.75,-5 c7.83,-3.33,11.75,-10.0,11.75,-20 l0,-34.5 c-4.33,-1.0,-9.0,-1.67,-14,-2 c-5.0,-0.33,-9.83,-0.5,-14.5,-0.5 c-11.67,0,-21.5,1.67,-29.5,5 c-8.0,3.33,-12,10.0,-12,20 Z M120,376.5 c10.0,3.33,21.5,5,34.5,5 c12.67,0,22.75,-2.08,30.25,-6.25 c7.5,-4.17,11.25,-11.25,11.25,-21.25 l0,-32 c-8.67,-3.33,-19.17,-5,-31.5,-5 c-13.33,0,-24.08,2.83,-32.25,8.5 c-8.17,5.67,-12.25,13.5,-12.25,23.5 Z M120,376.5" fill="rgb(0,0,0)" transform="matrix(1.8575851393188854,0.0,0.0,-1.8575851393188854,223.2198142414861,758.6687306501548)"/>
</svg>