<?xml version="1.0" encoding="UTF-8"?>
<svg width="1000" height="1000" viewBox="0 0 1000 1000" version="1.1" xmlns="http://www.w3.org/2000/svg" xmlns:xlink="http://www.w3.org/1999/xlink">
 <path d="M179,440 c6.67,0,12.08,1.58,16.25,4.75 c4.17,3.17,8.25,9.42,12.25,18.75 l3,0 c3.33,-6.67,5,-14.33,5,-23 c0,-11.67,-1.67,-20.67,-5,-27 c-5.33,-11.33,-14.83,-17,-28.5,-17 c-9.0,0,-17.08,1.75,-24.25,5.25 c-7.17,3.5,-14.0,7.42,-20.5,11.75 c-6.5,4.33,-13.0,8.25,-19.5,11.75 c-6.5,3.5,-13.42,5.25,-20.75,5.25 c-7.33,0,-13.08,-2.0,-17.25,-6 c-4.17,-4.0,-8.25,-9.83,-12.25,-17.5 l-3,0 c-3.33,4.67,-5,11.83,-5,21.5 c0,10.33,1.83,19.33,5.5,27 c5.33,12.0,16.0,18,32,18 c8.0,0,15.42,-1.67,22.25,-5 c6.83,-3.33,13.33,-7.25,19.5,-11.75 c6.17,-4.5,12.58,-8.42,19.25,-11.75 c6.67,-3.33,13.67,-5,21,-5 Z M151,360 c26.33,0,48.33,-6.67,66,-20 c5.0,0.67,9.33,2.17,13,4.5 c3.67,2.67,6.42,6.25,8.25,10.75 c1.83,4.5,2.75,10.92,2.75,19.25 c0,11.67,-2.0,23.17,-6,34.5 c3.33,1.67,6.92,2.92,10.75,3.75 c3.83,0.83,8.42,1.25,13.75,1.25 c18.67,0,28,-9.83,28,-29.5 c0,-13.0,-2.25,-23.83,-6.75,-32.5 c-4.5,-8.67,-10.58,-15.67,-18.25,-21 c-8.0,-5.67,-16.33,-9.5,-25,-11.5 c22.67,-30.0,34,-75.5,34,-136.5 l0,-11 c0,-57.33,-10.67,-102.0,-32,-134 c-21.33,-32.0,-50.83,-48,-88.5,-48 c-40.67,0,-71.25,14.5,-91.75,43.5 c-20.5,29.0,-30.75,70.67,-30.75,125 l0,11 c0,60.0,10.83,106.75,32.5,140.25 c21.67,33.5,51.67,50.25,90,50.25 Z M81.5,152.5 c0,-25.0,2.42,-45.83,7.25,-62.5 c4.83,-16.67,10.42,-29.33,16.75,-38 c13.0,-6.0,26.5,-9,40.5,-9 c24.33,0,42.5,12.0,54.5,36 c12.0,24.0,18,57.67,18,101 l0,9 c0,27.33,-2.33,49.83,-7,67.5 c-4.67,17.67,-10.83,31.67,-18.5,42 c-6.33,3.33,-12.5,5.58,-18.5,6.75 c-6.0,1.17,-12.83,1.75,-20.5,1.75 c-24.33,0,-42.5,-12.83,-54.5,-38.5 c-12.0,-25.67,-18,-61.5,-18,-107.5 Z M81.5,152.5" fill="rgb(0,0,0)" transform="matrix(1.861427094105481,0.0,0.0,-1.861427094105481,205.894519131334,931.3857290589451)"/>
</svg>