<?xml version="1.0" encoding="UTF-8"?>
<svg width="1000" height="1000" viewBox="0 0 1000 1000" version="1.1" xmlns="http://www.w3.org/2000/svg" xmlns:xlink="http://www.w3.org/1999/xlink">
 <path d="M137.5,355 l7,0 c5.67,0,10.5,-0.33,14.5,-1 c4.0,-0.67,8.42,-2.42,13.25,-5.25 c4.83,-2.83,11.08,-7.25,18.75,-13.25 c21.67,-16.33,40.67,-35.0,57,-56 c16.33,-21.0,31.17,-46.17,44.5,-75.5 c-8.0,-3.67,-17.17,-5.5,-27.5,-5.5 c-10.0,0,-17.33,1.58,-22,4.75 c-4.67,3.17,-9.5,9.58,-14.5,19.25 c-6.33,12.67,-12.75,24.25,-19.25,34.75 c-6.5,10.5,-14.25,20.58,-23.25,30.25 c-9.0,9.67,-20.5,19.67,-34.5,30 l-3.5,0 c-14.0,-10.33,-25.5,-20.33,-34.5,-30 c-9.0,-9.67,-16.75,-19.75,-23.25,-30.25 c-6.5,-10.5,-12.92,-22.25,-19.25,-35.25 c-4.67,-9.33,-9.33,-15.58,-14,-18.75 c-4.67,-3.17,-12.0,-4.75,-22,-4.75 c-10.33,0,-19.67,1.83,-28,5.5 c15.33,33.67,33.33,62.83,54,87.5 c20.67,24.67,46.17,45.83,76.5,63.5 Z M126.5,163.5 l0,25 c0,16.67,0.58,30.0,1.75,40 c1.17,10.0,2.92,19.5,5.25,28.5 c1.67,5.33,3.83,9.25,6.5,11.75 c2.67,2.5,6.33,3.75,11,3.75 c2.33,0,4.33,-0.08,6,-0.25 c1.67,-0.17,3.33,-0.42,5,-0.75 c3.67,-13.33,6.5,-25.92,8.5,-37.75 c2.0,-11.83,3,-27.08,3,-45.75 l0,-25 c0,-12.0,-0.17,-22.0,-0.5,-30 c-0.33,-8.0,-1.0,-15.0,-2,-21 c-1.0,-6.0,-2.33,-12.17,-4,-18.5 c-1.67,-6.0,-3.75,-10.25,-6.25,-12.75 c-2.5,-2.5,-6.42,-3.75,-11.75,-3.75 c-2.33,0,-4.33,0.08,-6,0.25 c-1.67,0.17,-3.33,0.42,-5,0.75 c-3.33,13.0,-6.08,26.0,-8.25,39 c-2.17,13.0,-3.25,28.5,-3.25,46.5 Z M228.5,128 c4.67,9.67,9.33,16.0,14,19 c4.67,3.0,12.0,4.5,22,4.5 c10.33,0,19.67,-1.83,28,-5.5 c-15.33,-33.67,-33.33,-62.83,-54,-87.5 c-20.67,-24.67,-46.17,-45.83,-76.5,-63.5 l-7,0 c-5.67,0,-10.5,0.42,-14.5,1.25 c-4.0,0.83,-8.33,2.58,-13,5.25 c-4.67,2.67,-11.0,7.0,-19,13 c-21.67,16.33,-40.67,35.0,-57,56 c-16.33,21.0,-31.17,46.17,-44.5,75.5 c8.0,3.67,17.17,5.5,27.5,5.5 c10.33,0,17.83,-1.5,22.5,-4.5 c4.67,-3.0,9.33,-9.5,14,-19.5 c6.33,-12.67,12.75,-24.25,19.25,-34.75 c6.5,-10.5,14.25,-20.58,23.25,-30.25 c9.0,-9.67,20.5,-19.67,34.5,-30 l3.5,0 c14.0,10.33,25.5,20.33,34.5,30 c9.0,9.67,16.75,19.83,23.25,30.5 c6.5,10.67,12.92,22.33,19.25,35 Z M228.5,128" fill="rgb(0,0,0)" transform="matrix(2.5,0.0,0.0,-2.5,125.625,937.5)"/>
</svg>