<?xml version="1.0" encoding="UTF-8"?>
<svg width="1000" height="1000" viewBox="0 0 1000 1000" version="1.1" xmlns="http://www.w3.org/2000/svg" xmlns:xlink="http://www.w3.org/1999/xlink">
 <path d="M0,0 l1000,0 l0,1000 l-1000,0 Z M0,0" fill="rgb(242,242,242)" transform="matrix(1,0,0,-1,0,1000)"/>
 <path d="M586,425 l-65,0 c-4,-22,-11.5,-42.67,-22.5,-62 c-11,-19.33,-25.17,-36.33,-42.5,-51 c-17.33,-14.67,-38,-26.33,-62,-35 c-24,-8.67,-51.33,-13,-82,-13 l-100,0 l0,-264 l-126,0 l0,425 l-60,0 l0,114 l60,0 l0,161 l226,0 c30.67,0,58,-4.33,82,-13 c24,-8.67,44.67,-20.33,62,-35 c17.33,-14.67,31.5,-31.83,42.5,-51.5 c11,-19.67,18.5,-40.17,22.5,-61.5 l65,0 Z M212,539 l175,0 c-7.33,12.67,-17.83,22.67,-31.5,30 c-13.67,7.33,-30.17,11,-49.5,11 l-94,0 Z M306,384 c19.33,0,35.83,3.67,49.5,11 c13.67,7.33,24.17,17.33,31.5,30 l-175,0 l0,-41 Z M306,384" fill="rgb(0,0,0)" transform="matrix(0.6172839506172839,0.0,0.0,-0.6172839506172839,310.1851851851852,741.358024691358)"/>
</svg>