<?xml version="1.0" encoding="UTF-8"?>
<svg width="1000" height="1000" viewBox="0 0 1000 1000" version="1.1" xmlns="http://www.w3.org/2000/svg" xmlns:xlink="http://www.w3.org/1999/xlink">
 <path d="M0,0 l1000,0 l0,1000 l-1000,0 Z M0,0" fill="rgb(242,242,242)" transform="matrix(1,0,0,-1,0,1000)"/>
 <path d="M186,350 c0,16.67,3.17,32.17,9.5,46.5 c6.33,14.33,15,27,26,38 c11,11,23.67,19.67,38,26 c14.33,6.33,29.83,9.5,46.5,9.5 c16.67,0,32.17,-3.17,46.5,-9.5 c14.33,-6.33,27,-15,38,-26 c11,-11,19.67,-23.67,26,-38 c6.33,-14.33,9.5,-29.83,9.5,-46.5 c0,-16.67,-3.17,-32.17,-9.5,-46.5 c-6.33,-14.33,-15,-27,-26,-38 c-11,-11,-23.67,-19.67,-38,-26 c-14.33,-6.33,-29.83,-9.5,-46.5,-9.5 c-16.67,0,-32.17,3.17,-46.5,9.5 c-14.33,6.33,-27,15,-38,26 c-11,11,-19.67,23.67,-26,38 c-6.33,14.33,-9.5,29.83,-9.5,46.5 Z M186,350" fill="rgb(0,0,0)" transform="matrix(0.6172839506172839,0.0,0.0,-0.6172839506172839,310.1851851851852,741.358024691358)"/>
</svg>