<?xml version="1.0" encoding="UTF-8"?>
<svg width="1000" height="1000" viewBox="0 0 1000 1000" version="1.1" xmlns="http://www.w3.org/2000/svg" xmlns:xlink="http://www.w3.org/1999/xlink">
 <path d="M0,0 l1000,0 l0,1000 l-1000,0 Z M0,0" fill="rgb(242,242,242)" transform="matrix(1,0,0,-1,0,1000)"/>
 <path d="M70,455 l60,0 l0,143 l194,0 c24,0,45.17,-4.17,63.5,-12.5 c18.33,-8.33,34,-19.17,47,-32.5 c13,-13.33,23.33,-28.5,31,-45.5 c7.67,-17,12.5,-34.5,14.5,-52.5 l62,0 l0,-84 l-68,0 c-2,-11.33,-8,-21,-18,-29 l0,-6 l86,0 l0,-84 l-298,0 l0,-150 l-114,0 l0,150 l-60,0 l0,84 l60,0 l0,35 l-60,0 Z M296,336 c14.67,0,27.17,3.17,37.5,9.5 c10.33,6.33,18.17,14.83,23.5,25.5 l-113,0 l0,-35 Z M244,455 l113,0 c-5.33,10.67,-13.17,19.17,-23.5,25.5 c-10.33,6.33,-22.83,9.5,-37.5,9.5 l-52,0 Z M244,455" fill="rgb(0,0,0)" transform="matrix(0.6172839506172839,0.0,0.0,-0.6172839506172839,310.1851851851852,741.358024691358)"/>
</svg>