<?xml version="1.0" encoding="UTF-8"?>
<svg width="1000" height="1000" viewBox="0 0 1000 1000" version="1.1" xmlns="http://www.w3.org/2000/svg" xmlns:xlink="http://www.w3.org/1999/xlink">
 <path d="M11,165 l0,11.5 c0,6.0,1.33,10.83,4,14.5 c1.67,2.33,4.17,5.17,7.5,8.5 c3.33,3.33,9.67,8.17,19,14.5 c18.67,12.67,39.0,25.58,61,38.75 c22.0,13.17,44.83,25.67,68.5,37.5 c23.67,11.83,47.33,22.08,71,30.75 c10.0,-1.33,16.67,-4.0,20,-8 c3.33,-4.0,5.5,-10.83,6.5,-20.5 c2.33,-25.33,3.92,-52.08,4.75,-80.25 c0.83,-28.17,0.83,-56.5,0,-85 c-0.83,-28.5,-2.42,-55.92,-4.75,-82.25 c-3.33,-6.0,-10.0,-9,-20,-9 c-2.67,0,-9.92,2.33,-21.75,7 c-11.83,4.67,-26.5,11.17,-44,19.5 c-17.5,8.33,-36.42,18.0,-56.75,29 c-20.33,11.0,-40.5,22.75,-60.5,35.25 c-20.0,12.5,-38.17,25.25,-54.5,38.25 Z M11,165" fill="rgb(0,0,0)" transform="matrix(3.1578947368421053,0.0,0.0,-3.1578947368421053,50.19736348684211,1063.6842105263158)"/>
</svg>