<?xml version="1.0" encoding="UTF-8"?>
<svg width="1000" height="1000" viewBox="0 0 1000 1000" version="1.1" xmlns="http://www.w3.org/2000/svg" xmlns:xlink="http://www.w3.org/1999/xlink">
 <path d="M82.5,326 c35.33,0,57.83,-20.17,67.5,-60.5 l2,0 c10.0,40.33,32.17,60.5,66.5,60.5 c21.67,0,39.92,-7.92,54.75,-23.75 c14.83,-15.83,22.25,-40.58,22.25,-74.25 l0,-1.5 c0,-19.33,-3.75,-38.42,-11.25,-57.25 c-7.5,-18.83,-17.33,-36.5,-29.5,-53 c-12.17,-16.5,-25.5,-31.17,-40,-44 c-14.5,-12.83,-28.75,-23.08,-42.75,-30.75 c-6.33,-1.33,-13.0,-2,-20,-2 c-6.0,0,-12.08,1.17,-18.25,3.5 c-6.17,2.33,-14.58,6.5,-25.25,12.5 c-19.67,11.67,-37.33,26.75,-53,45.25 c-15.67,18.5,-28.08,38.67,-37.25,60.5 c-9.17,21.83,-13.75,43.25,-13.75,64.25 l0,2.5 c0,29.67,7.0,53.42,21,71.25 c14.0,17.83,33.0,26.75,57,26.75 Z M35,228 c0,-23.33,5.0,-45.42,15,-66.25 c10.0,-20.83,23.83,-39.67,41.5,-56.5 c17.67,-16.83,38.17,-30.92,61.5,-42.25 l2,0 c18.33,10.67,35.92,24.25,52.75,40.75 c16.83,16.5,30.58,35.17,41.25,56 c10.67,20.83,16,43.25,16,67.25 l0,1 c0,23.33,-4.17,40.5,-12.5,51.5 c-8.33,11.0,-19.83,16.5,-34.5,16.5 c-24.67,0,-41.33,-19.83,-50,-59.5 c-5.67,-1.33,-11.17,-2,-16.5,-2 c-6.67,0,-11.58,1.17,-14.75,3.5 c-3.17,2.33,-5.58,6.17,-7.25,11.5 c-9.33,31.0,-26.0,46.5,-50,46.5 c-13.33,0,-24.08,-5.75,-32.25,-17.25 c-8.17,-11.5,-12.25,-28.08,-12.25,-49.75 Z M35,228" fill="rgb(0,0,0)" transform="matrix(3.0927835051546393,0.0,0.0,-3.0927835051546393,36.08247422680415,1065.2061855670104)"/>
</svg>