<?xml version="1.0" encoding="UTF-8"?>
<svg width="1000" height="1000" viewBox="0 0 1000 1000" version="1.1" xmlns="http://www.w3.org/2000/svg" xmlns:xlink="http://www.w3.org/1999/xlink">
 <path d="M0,0 l1000,0 l0,1000 l-1000,0 Z M0,0" fill="rgb(242,242,242)" transform="matrix(1,0,0,-1,0,1000)"/>
 <path d="M572,431 l-76,0 c-12,-39.33,-40,-68,-84,-86 l0,-18 c24,-2.67,42.67,-11.67,56,-27 c13.33,-15.33,20,-34.67,20,-58 l0,-242 l-132,0 l0,210 c0,16,-4.17,29,-12.5,39 c-8.33,10,-22.17,15,-41.5,15 l-254,0 l0,126 l230,0 c39.33,0,67,13.67,83,41 l-313,0 l0,114 l311,0 c-7.33,12.67,-17.83,22.67,-31.5,30 c-13.67,7.33,-30.17,11,-49.5,11 l-230,0 l0,114 l524,0 l0,-114 l-90,0 l0,-6 c5.33,-5.33,9.33,-11.17,12,-17.5 c2.67,-6.33,4.67,-12.17,6,-17.5 l72,0 Z M572,431" fill="rgb(0,0,0)" transform="matrix(0.6172839506172839,0.0,0.0,-0.6172839506172839,310.1851851851852,741.358024691358)"/>
</svg>