<?xml version="1.0" encoding="UTF-8"?>
<svg width="1000" height="1000" viewBox="0 0 1000 1000" version="1.1" xmlns="http://www.w3.org/2000/svg" xmlns:xlink="http://www.w3.org/1999/xlink">
 <path d="M0,0 l1000,0 l0,1000 l-1000,0 Z M0,0" fill="rgb(242,242,242)" transform="matrix(1,0,0,-1,0,1000)"/>
 <path d="M413,-237 l0,-72 l-36,0 c-26,0,-49.83,4.33,-71.5,13 c-21.67,8.67,-40.5,21,-56.5,37 c-16,16,-28.33,35.5,-37,58.5 c-8.67,23,-13,49.17,-13,78.5 l0,132 c0,28.67,4.33,54.67,13,78 c8.67,23.33,21,43,37,59 c16,16,34.83,28.33,56.5,37 c21.67,8.67,45.5,13,71.5,13 l36,0 l0,-72 l-32,0 c-33.33,0,-60,-10.5,-80,-31.5 c-20,-21,-30,-48.17,-30,-81.5 l0,-136 c0,-33.33,10,-60.5,30,-81.5 c20,-21,46.67,-31.5,80,-31.5 Z M413,-237" fill="rgb(0,0,0)" transform="matrix(0.6172839506172839,0.0,0.0,-0.6172839506172839,310.1851851851852,741.358024691358)"/>
</svg>