<?xml version="1.0" encoding="UTF-8"?>
<svg width="1000" height="1000" viewBox="0 0 1000 1000" version="1.1" xmlns="http://www.w3.org/2000/svg" xmlns:xlink="http://www.w3.org/1999/xlink">
 <path d="M0,0 l1000,0 l0,1000 l-1000,0 Z M0,0" fill="rgb(242,242,242)" transform="matrix(1,0,0,-1,0,1000)"/>
 <path d="M252,574 l104,0 l0,32 l114,0 l0,-32 l48,0 l0,-90 l-48,0 l0,-382 l-114,0 l0,37 l-12,0 c-5.33,-14.67,-16,-26.5,-32,-35.5 c-16,-9,-37.33,-13.5,-64,-13.5 c-20.67,0,-40.5,4,-59.5,12 c-19,8,-35.83,19.5,-50.5,34.5 c-14.67,15,-26.33,33.67,-35,56 c-8.67,22.33,-13,48.17,-13,77.5 l0,13 c0,28.67,4.5,54.17,13.5,76.5 c9,22.33,21,41.33,36,57 c15,15.67,32.17,27.5,51.5,35.5 c19.33,8,39.67,12,61,12 c24,0,43.5,-4.33,58.5,-13 c15,-8.67,26.17,-19,33.5,-31 l12,0 l0,64 l-104,0 Z M192,66 l278,0 l0,-96 l-278,0 Z M282,198 c20,0,37.33,6.5,52,19.5 c14.67,13,22,32.83,22,59.5 c0,24.67,-7.33,44,-22,58 c-14.67,14,-32,21,-52,21 c-21.33,0,-39.67,-7,-55,-21 c-15.33,-14,-23,-33.33,-23,-58 c0,-26.67,7.67,-46.5,23,-59.5 c15.33,-13,33.67,-19.5,55,-19.5 Z M282,198" fill="rgb(0,0,0)" transform="matrix(0.6172839506172839,0.0,0.0,-0.6172839506172839,310.1851851851852,741.358024691358)"/>
</svg>