<?xml version="1.0" encoding="UTF-8"?>
<svg width="1000" height="1000" viewBox="0 0 1000 1000" version="1.1" xmlns="http://www.w3.org/2000/svg" xmlns:xlink="http://www.w3.org/1999/xlink">
 <path d="M0,0 l1000,0 l0,1000 l-1000,0 Z M0,0" fill="rgb(242,242,242)" transform="matrix(1,0,0,-1,0,1000)"/>
 <path d="M366,709 c64.67,-10.67,113.83,-38.17,147.5,-82.5 c33.67,-44.33,50.5,-101.83,50.5,-172.5 l0,-18 l-132,0 l0,18 c0,12.67,-1.17,25.33,-3.5,38 c-2.33,12.67,-6,24.67,-11,36 c-5,11.33,-11.67,21.67,-20,31 c-8.33,9.33,-18.83,17,-31.5,23 l0,-467 c26.67,11.33,44.33,29,53,53 c8.67,24,13,50,13,78 l0,18 l132,0 l0,-18 c0,-73.33,-16.83,-131.83,-50.5,-175.5 c-33.67,-43.67,-82.83,-70.17,-147.5,-79.5 l0,-83 l-114,0 l0,83 c-64,10.67,-114,39.67,-150,87 c-36,47.33,-54,112,-54,194 l0,156 c0,79.33,18,143.17,54,191.5 c36,48.33,86,78.17,150,89.5 l0,83 l114,0 Z M180,262 c0,-35.33,5.5,-65.83,16.5,-91.5 c11,-25.67,29.5,-43.83,55.5,-54.5 l0,466 c-24.67,-12,-42.83,-31,-54.5,-57 c-11.67,-26,-17.5,-55,-17.5,-87 Z M180,262" fill="rgb(0,0,0)" transform="matrix(0.6172839506172839,0.0,0.0,-0.6172839506172839,310.1851851851852,741.358024691358)"/>
</svg>