<?xml version="1.0" encoding="UTF-8"?>
<svg width="1000" height="1000" viewBox="0 0 1000 1000" version="1.1" xmlns="http://www.w3.org/2000/svg" xmlns:xlink="http://www.w3.org/1999/xlink">
 <path d="M0,0 l1000,0 l0,1000 l-1000,0 Z M0,0" fill="rgb(242,242,242)" transform="matrix(1,0,0,-1,0,1000)"/>
 <path d="M350,480 l57,0 l0,220 l132,0 l0,-220 l60,0 l0,-114 l-60,0 l0,-36 l60,0 l0,-114 l-60,0 l0,-216 l-256,0 l-21,216 l-57,0 l0,-216 l-132,0 l0,216 l-60,0 l0,114 l60,0 l0,36 l-60,0 l0,114 l60,0 l0,220 l256,0 Z M205,480 l32,0 l-14,154 l-18,0 Z M407,66 l0,150 l-32,0 l14,-150 Z M205,330 l47,0 l-4,36 l-43,0 Z M364,330 l43,0 l0,36 l-47,0 Z M364,330" fill="rgb(0,0,0)" transform="matrix(0.6172839506172839,0.0,0.0,-0.6172839506172839,310.1851851851852,741.358024691358)"/>
</svg>