<?xml version="1.0" encoding="UTF-8"?>
<svg width="1000" height="1000" viewBox="0 0 1000 1000" version="1.1" xmlns="http://www.w3.org/2000/svg" xmlns:xlink="http://www.w3.org/1999/xlink">
 <path d="M150.5,360 c40.67,0,71.0,-13.92,91,-41.75 c20.0,-27.83,30,-67.08,30,-117.75 l0,-11 c0,-31.33,-4.5,-58.25,-13.5,-80.75 c-9.0,-22.5,-22.83,-39.92,-41.5,-52.25 l0,-3.5 l39,0 c8.0,0,13.83,-2.67,17.5,-8 c3.67,-5.33,5.5,-13.83,5.5,-25.5 c0,-5.67,-0.83,-12.17,-2.5,-19.5 l-72,0 c-12.67,0,-21.58,2.83,-26.75,8.5 c-5.17,5.67,-7.75,14.17,-7.75,25.5 c0,7.33,1.33,14.0,4,20 c10.0,4.0,18.33,10.92,25,20.75 c6.67,9.83,11.67,23.83,15,42 c3.33,18.17,5,41.58,5,70.25 l0,8.5 c0,24.33,-2.33,45.42,-7,63.25 c-4.67,17.83,-12.33,31.92,-23,42.25 c-6.33,2.67,-12.0,4.33,-17,5 c-5.0,0.67,-10.83,1,-17.5,1 c-24.33,0,-42.5,-12.08,-54.5,-36.25 c-12.0,-24.17,-18,-58.58,-18,-103.25 l0,-8.5 c0,-59.33,14.67,-94.33,44,-105 c1.67,-3.33,2.83,-6.58,3.5,-9.75 c0.67,-3.17,1,-6.58,1,-10.25 c0,-11.67,-2.75,-20.25,-8.25,-25.75 c-5.5,-5.5,-14.42,-8.25,-26.75,-8.25 l-40.5,0 c-22.0,0,-33,11.17,-33,33.5 c0,6.33,0.83,12.83,2.5,19.5 l58.5,0 l0,3 c-17.67,10.33,-31.08,25.75,-40.25,46.25 c-9.17,20.5,-13.75,45.08,-13.75,73.75 l0,11.5 c0,35.0,4.75,65.42,14.25,91.25 c9.5,25.83,23.42,45.83,41.75,60 c18.33,14.17,40.33,21.25,66,21.25 Z M150.5,360" fill="rgb(0,0,0)" transform="matrix(2.5,0.0,0.0,-2.5,125.0,950.0)"/>
</svg>