<?xml version="1.0" encoding="UTF-8"?>
<svg width="1000" height="1000" viewBox="0 0 1000 1000" version="1.1" xmlns="http://www.w3.org/2000/svg" xmlns:xlink="http://www.w3.org/1999/xlink">
 <path d="M22,305.5 l244.5,0 c4.0,0,6.92,-2.5,8.75,-7.5 c1.83,-5.0,2.75,-11.83,2.75,-20.5 l0,-227.5 l-244.5,0 c-4.0,0,-6.92,2.5,-8.75,7.5 c-1.83,5.0,-2.75,11.83,-2.75,20.5 Z M49.5,272 c3.33,-30.67,5.17,-61.42,5.5,-92.25 c0.33,-30.83,-0.33,-62.92,-2,-96.25 l197.5,0 c-3.33,30.67,-5.17,61.42,-5.5,92.25 c-0.33,30.83,0.33,62.92,2,96.25 Z M49.5,272" fill="rgb(0,0,0)" transform="matrix(3.515625,0.0,0.0,-3.515625,-27.34375,1124.90234375)"/>
</svg>