<?xml version="1.0" encoding="UTF-8"?>
<svg width="1000" height="1000" viewBox="0 0 1000 1000" version="1.1" xmlns="http://www.w3.org/2000/svg" xmlns:xlink="http://www.w3.org/1999/xlink">
 <path d="M0,0 l1000,0 l0,1000 l-1000,0 Z M0,0" fill="rgb(242,242,242)" transform="matrix(1,0,0,-1,0,1000)"/>
 <path d="M191,309 l0,-53 c8.67,-21.33,23.67,-38.33,45,-51 c21.33,-12.67,46.67,-19,76,-19 c32,0,58.33,6.17,79,18.5 c20.67,12.33,35.67,28.5,45,48.5 l89,-49 c-6,-12.67,-14.33,-25.83,-25,-39.5 c-10.67,-13.67,-24.5,-26.17,-41.5,-37.5 c-17,-11.33,-37.67,-20.67,-62,-28 c-24.33,-7.33,-52.83,-11,-85.5,-11 c-37.33,0,-71.33,6,-102,18 c-30.67,12,-57.17,29.33,-79.5,52 c-22.33,22.67,-39.67,50.33,-52,83 c-12.33,32.67,-18.5,69.67,-18.5,111 l0,6 c0,38,6.33,72.67,19,104 c12.67,31.33,30.17,58,52.5,80 c22.33,22,48.5,39.17,78.5,51.5 c30,12.33,62.33,18.5,97,18.5 c42,0,78.5,-7.5,109.5,-22.5 c31,-15,56.67,-34,77,-57 c20.33,-23,35.5,-48.33,45.5,-76 c10,-27.67,15,-54.5,15,-80.5 l0,-67 Z M305,516 c-27.33,0,-50.83,-5.83,-70.5,-17.5 c-19.67,-11.67,-34.17,-26.5,-43.5,-44.5 l0,-49 l230,0 l0,49 c-8.67,18,-23,32.83,-43,44.5 c-20,11.67,-44.33,17.5,-73,17.5 Z M305,516" fill="rgb(0,0,0)" transform="matrix(0.6172839506172839,0.0,0.0,-0.6172839506172839,310.1851851851852,741.358024691358)"/>
</svg>