<?xml version="1.0" encoding="UTF-8"?>
<svg width="1000" height="1000" viewBox="0 0 1000 1000" version="1.1" xmlns="http://www.w3.org/2000/svg" xmlns:xlink="http://www.w3.org/1999/xlink">
 <path d="M164,176 c10.0,0,18.25,-0.92,24.75,-2.75 c6.5,-1.83,11.25,-4.08,14.25,-6.75 c3.67,-2.67,6.0,-5.75,7,-9.25 c1.0,-3.5,1.5,-7.25,1.5,-11.25 c0,-8.67,-0.83,-15.83,-2.5,-21.5 l-3,0 c-11.0,7.0,-25.0,10.5,-42,10.5 c-15.33,0,-27.5,-2.83,-36.5,-8.5 c-3.67,-7.33,-6.67,-15.25,-9,-23.75 c-2.33,-8.5,-3.67,-18.75,-4,-30.75 l2.5,0 c5.0,5.67,11.42,10.25,19.25,13.75 c7.83,3.5,16.75,5.25,26.75,5.25 c17.67,0,32.17,-5.67,43.5,-17 c11.33,-11.33,17,-26.33,17,-45 l0,-3.5 c0,-21.67,-6.5,-38.42,-19.5,-50.25 c-13.0,-11.83,-29.83,-17.75,-50.5,-17.75 c-23.33,0,-42.0,7.83,-56,23.5 c-14.0,15.67,-21,41.67,-21,78 l0,4 c0,34.67,7.75,62.17,23.25,82.5 c15.5,20.33,36.92,30.5,64.25,30.5 Z M124.5,4.5 c3.67,-1.67,7.67,-3.08,12,-4.25 c4.33,-1.17,9.5,-1.75,15.5,-1.75 c10.33,0,18.67,2.5,25,7.5 c6.33,5.0,9.5,12.67,9.5,23 l0,3 c0,7.67,-1.33,13.67,-4,18 c-6.33,2.67,-15.83,4,-28.5,4 c-7.0,0,-13.92,-0.83,-20.75,-2.5 c-6.83,-1.67,-13.25,-4.0,-19.25,-7 c0.33,-8.33,1.33,-16.0,3,-23 c1.67,-7.0,4.17,-12.67,7.5,-17 Z M124.5,4.5" fill="rgb(0,0,0)" transform="matrix(4.118993135011442,0.0,0.0,-4.118993135011442,-117.84897025171625,774.9427917620137)"/>
</svg>