<?xml version="1.0" encoding="UTF-8"?>
<svg width="1000" height="1000" viewBox="0 0 1000 1000" version="1.1" xmlns="http://www.w3.org/2000/svg" xmlns:xlink="http://www.w3.org/1999/xlink">
 <path d="M79.5,289.5 c8.67,-8.67,17.5,-17.5,26.5,-26.5 c9.0,-9.0,17.83,-18.0,26.5,-27 c12.0,-11.67,22.33,-22.08,31,-31.25 c8.67,-9.17,16.67,-18.17,24,-27 c7.33,-8.83,15.0,-18.75,23,-29.75 c7.0,-10.33,6.5,-19.5,-1.5,-27.5 c-1.33,-1.67,-3.08,-3.0,-5.25,-4 c-2.17,-1.0,-4.08,-1.83,-5.75,-2.5 c-14.33,10.33,-27.0,19.58,-38,27.75 c-11.0,8.17,-21.58,16.75,-31.75,25.75 c-10.17,9.0,-21.42,19.5,-33.75,31.5 c-11.67,12.0,-23.42,23.92,-35.25,35.75 c-11.83,11.83,-23.58,23.58,-35.25,35.25 c-7.33,7.33,-10.58,14.25,-9.75,20.75 c0.83,6.5,5.25,13.58,13.25,21.25 c5.33,6.0,11.67,11.0,19,15 c10.0,-13.33,21.0,-25.83,33,-37.5 Z M289.5,102.5 c-0.33,-11.0,-1.0,-19.5,-2,-25.5 c-1.0,-6.0,-2.67,-10.75,-5,-14.25 c-2.33,-3.5,-5.5,-7.42,-9.5,-11.75 l-5.5,-4.5 c-37.33,-6.33,-74.25,-6.33,-110.75,0 c-36.5,6.33,-75.08,18.67,-115.75,37 c1.67,4.67,3.75,9.17,6.25,13.5 c2.5,4.33,5.58,8.33,9.25,12 c7.67,7.33,14.5,11.33,20.5,12 c6.0,0.67,15.0,-1.5,27,-6.5 c15.67,-6.33,30.42,-11.83,44.25,-16.5 c13.83,-4.67,28.17,-8.0,43,-10 c14.83,-2.0,31.92,-2.33,51.25,-1 l2.5,2.5 c1.0,19.0,0.5,36.0,-1.5,51 c-2.0,15.0,-5.25,29.42,-9.75,43.25 c-4.5,13.83,-9.92,28.58,-16.25,44.25 c-5.0,12.0,-7.17,21.0,-6.5,27 c0.67,6.0,4.67,12.67,12,20 c7.67,7.67,16.0,12.83,25,15.5 c16.0,-35.0,27.33,-67.67,34,-98 c6.67,-30.33,9.17,-60.33,7.5,-90 Z M289.5,102.5" fill="rgb(0,0,0)" transform="matrix(3.155126818810651,0.0,0.0,-3.155126818810651,20.22754565962873,1081.7264697510827)"/>
</svg>