<?xml version="1.0" encoding="UTF-8"?>
<svg width="1000" height="1000" viewBox="0 0 1000 1000" version="1.1" xmlns="http://www.w3.org/2000/svg" xmlns:xlink="http://www.w3.org/1999/xlink">
 <path d="M289,198 l0,-17.5 c0,-6.0,-1.33,-10.83,-4,-14.5 c-1.67,-2.33,-4.17,-5.17,-7.5,-8.5 c-3.33,-3.33,-9.67,-8.17,-19,-14.5 c-18.67,-12.67,-39.0,-25.58,-61,-38.75 c-22.0,-13.17,-44.83,-25.58,-68.5,-37.25 c-23.67,-11.67,-47.33,-22.0,-71,-31 c-5.33,0.67,-10.0,1.58,-14,2.75 c-4.0,1.17,-7.0,2.92,-9,5.25 c-1.67,2.0,-3.0,5.08,-4,9.25 c-1.0,4.17,-1.83,8.92,-2.5,14.25 c-2.33,25.33,-3.92,52.08,-4.75,80.25 c-0.83,28.17,-0.83,56.5,0,85 c0.83,28.5,2.42,55.92,4.75,82.25 c1.67,2.67,4.67,5.33,9,8 c4.33,2.67,9.0,4,14,4 c2.67,0,9.92,-2.33,21.75,-7 c11.83,-4.67,26.5,-11.17,44,-19.5 c17.5,-8.33,36.42,-18.0,56.75,-29 c20.33,-11.0,40.5,-22.75,60.5,-35.25 c20.0,-12.5,38.17,-25.25,54.5,-38.25 Z M58,74 l3.5,-2 c21.33,8.0,43.42,17.75,66.25,29.25 c22.83,11.5,45.5,24.0,68,37.5 c22.5,13.5,43.42,27.08,62.75,40.75 l0,3.5 c-19.33,13.33,-40.42,26.83,-63.25,40.5 c-22.83,13.67,-45.83,26.42,-69,38.25 c-23.17,11.83,-45.08,21.75,-65.75,29.75 l-3,-2 c-1.33,-22.33,-2.33,-45.75,-3,-70.25 c-0.67,-24.5,-0.75,-49.17,-0.25,-74 c0.5,-24.83,1.75,-48.58,3.75,-71.25 Z M58,74" fill="rgb(0,0,0)" transform="matrix(3.0927835051546393,0.0,0.0,-3.0927835051546393,17.33247905927834,1061.340206185567)"/>
</svg>