<?xml version="1.0" encoding="UTF-8"?>
<svg width="1000" height="1000" viewBox="0 0 1000 1000" version="1.1" xmlns="http://www.w3.org/2000/svg" xmlns:xlink="http://www.w3.org/1999/xlink">
 <path d="M0,0 l1000,0 l0,1000 l-1000,0 Z M0,0" fill="rgb(242,242,242)" transform="matrix(1,0,0,-1,0,1000)"/>
 <path d="M362,709 c31.33,-6,59.33,-16.5,84,-31.5 c24.67,-15,45.5,-33.5,62.5,-55.5 c17,-22,29.83,-46.83,38.5,-74.5 c8.67,-27.67,13,-56.83,13,-87.5 l0,-12 l-132,0 l0,12 c0,30,-5.67,54.83,-17,74.5 c-11.33,19.67,-27.67,33.83,-49,42.5 l0,-223 l198,0 l0,-354 l-120,0 l0,78 l-18,0 c-5.33,-15.33,-12.67,-29.5,-22,-42.5 c-9.33,-13,-22,-23.5,-38,-31.5 l0,-96 l-114,0 l0,79 c-29.33,2.67,-56.33,10.67,-81,24 c-24.67,13.33,-46.17,31.83,-64.5,55.5 c-18.33,23.67,-32.67,52.33,-43,86 c-10.33,33.67,-15.5,72.17,-15.5,115.5 l0,164 c0,79.33,18.5,142.5,55.5,189.5 c37,47,86.5,76.17,148.5,87.5 l0,83 l114,0 Z M176,274 c0,-80,24,-130.33,72,-151 l0,454 c-22,-9.33,-39.5,-26.5,-52.5,-51.5 c-13,-25,-19.5,-59.5,-19.5,-103.5 Z M362,228 l0,-107 c21.33,8,37.67,21.33,49,40 c11.33,18.67,17,41,17,67 Z M362,228" fill="rgb(0,0,0)" transform="matrix(0.6172839506172839,0.0,0.0,-0.6172839506172839,310.1851851851852,741.358024691358)"/>
</svg>