<?xml version="1.0" encoding="UTF-8"?>
<svg width="1000" height="1000" viewBox="0 0 1000 1000" version="1.1" xmlns="http://www.w3.org/2000/svg" xmlns:xlink="http://www.w3.org/1999/xlink">
 <path d="M0,0 l1000,0 l0,1000 l-1000,0 Z M0,0" fill="rgb(242,242,242)" transform="matrix(1,0,0,-1,0,1000)"/>
 <path d="M191,484 l90,0 l0,144 l-82,0 l0,72 l160,0 l0,-216 l84,0 l0,-72 l-252,0 Z M260,790 c0,17.33,5.67,31.67,17,43 c11.33,11.33,25.67,17,43,17 c17.33,0,31.67,-5.67,43,-17 c11.33,-11.33,17,-25.67,17,-43 c0,-17.33,-5.67,-31.67,-17,-43 c-11.33,-11.33,-25.67,-17,-43,-17 c-17.33,0,-31.67,5.67,-43,17 c-11.33,11.33,-17,25.67,-17,43 Z M260,790" fill="rgb(0,0,0)" transform="matrix(0.6172839506172839,0.0,0.0,-0.6172839506172839,310.1851851851852,741.358024691358)"/>
</svg>