<?xml version="1.0" encoding="UTF-8"?>
<svg width="1000" height="1000" viewBox="0 0 1000 1000" version="1.1" xmlns="http://www.w3.org/2000/svg" xmlns:xlink="http://www.w3.org/1999/xlink">
 <path d="M0,0 l1000,0 l0,1000 l-1000,0 Z M0,0" fill="rgb(242,242,242)" transform="matrix(1,0,0,-1,0,1000)"/>
 <path d="M104,320 l60,0 l0,30 l-60,0 l0,78 l60,0 l0,10 c0,56.67,15.83,99.83,47.5,129.5 c31.67,29.67,73.17,44.5,124.5,44.5 c24.67,0,47.67,-3.83,69,-11.5 c21.33,-7.67,39.5,-18.83,54.5,-33.5 c15,-14.67,26.83,-32.67,35.5,-54 c8.67,-21.33,13,-45.67,13,-73 l0,-12 l-114,0 l0,14 c0,16,-4.33,30.33,-13,43 c-8.67,12.67,-23.67,19,-45,19 c-21.33,0,-36.33,-6.33,-45,-19 c-8.67,-12.67,-13,-27,-13,-43 l0,-14 l72,0 l0,-78 l-72,0 l0,-30 l72,0 l0,-78 l-72,0 l0,-32 l218,0 l0,-108 l-392,0 l0,108 l60,0 l0,32 l-60,0 Z M104,320" fill="rgb(0,0,0)" transform="matrix(0.6172839506172839,0.0,0.0,-0.6172839506172839,310.1851851851852,741.358024691358)"/>
</svg>