<?xml version="1.0" encoding="UTF-8"?>
<svg width="1000" height="1000" viewBox="0 0 1000 1000" version="1.1" xmlns="http://www.w3.org/2000/svg" xmlns:xlink="http://www.w3.org/1999/xlink">
 <path d="M83,132.5 c10.33,14.67,19.67,27.42,28,38.25 c8.33,10.83,16.92,21.42,25.75,31.75 c8.83,10.33,19.25,21.5,31.25,33.5 c12.0,12.0,23.92,23.92,35.75,35.75 c11.83,11.83,23.42,23.58,34.75,35.25 c7.67,7.33,14.75,10.58,21.25,9.75 c6.5,-0.83,13.58,-5.25,21.25,-13.25 c2.67,-2.33,5.25,-5.08,7.75,-8.25 c2.5,-3.17,4.92,-6.75,7.25,-10.75 c-7.0,-5.0,-13.58,-10.25,-19.75,-15.75 c-6.17,-5.5,-12.08,-11.25,-17.75,-17.25 c-8.67,-8.67,-17.5,-17.42,-26.5,-26.25 c-9.0,-8.83,-18.0,-17.75,-27,-26.75 c-11.67,-11.67,-22.08,-21.83,-31.25,-30.5 c-9.17,-8.67,-18.08,-16.67,-26.75,-24 c-8.67,-7.33,-18.5,-15.17,-29.5,-23.5 c-10.33,-7.33,-19.67,-7.0,-28,1 c-3.0,3.0,-5.17,6.67,-6.5,11 Z M15.5,63 c-6.33,37.33,-6.33,74.33,0,111 c6.33,36.67,18.67,75.17,37,115.5 c4.33,-1.33,8.67,-3.33,13,-6 c4.33,-2.67,8.33,-5.83,12,-9.5 c7.67,-7.33,11.75,-14.0,12.25,-20 c0.5,-6.0,-1.58,-15.17,-6.25,-27.5 c-6.33,-15.67,-11.75,-30.42,-16.25,-44.25 c-4.5,-13.83,-7.75,-28.25,-9.75,-43.25 c-2.0,-15.0,-2.5,-32.0,-1.5,-51 l2.5,-2.5 c19.0,-1.0,36.0,-0.5,51,1.5 c15.0,2.0,29.42,5.25,43.25,9.75 c13.83,4.5,28.58,10.08,44.25,16.75 c12.33,5.0,21.5,7.17,27.5,6.5 c6.0,-0.67,12.67,-4.67,20,-12 c8.0,-8.33,13.17,-16.67,15.5,-25 c-35.33,-16.0,-68.0,-27.33,-98,-34 c-30.0,-6.67,-60.17,-9.33,-90.5,-8 c-11.0,0.33,-19.42,1.0,-25.25,2 c-5.83,1.0,-10.5,2.67,-14,5 c-3.5,2.33,-7.42,5.67,-11.75,10 Z M15.5,63" fill="rgb(0,0,0)" transform="matrix(3.15512681881065,0.0,0.0,-3.15512681881065,16.082461632047455,1064.048671009028)"/>
</svg>