<?xml version="1.0" encoding="UTF-8"?>
<svg width="1000" height="1000" viewBox="0 0 1000 1000" version="1.1" xmlns="http://www.w3.org/2000/svg" xmlns:xlink="http://www.w3.org/1999/xlink">
 <path d="M129,-45.5 c0,5.0,0.25,10.83,0.75,17.5 c0.5,6.67,1.08,13.83,1.75,21.5 c-31.67,7.33,-55.75,23.75,-72.25,49.25 c-16.5,25.5,-24.75,56.25,-24.75,92.25 l0,9 c0,39.0,5.42,74.0,16.25,105 c10.83,31.0,26.08,56.08,45.75,75.25 c19.67,19.17,42.67,30.58,69,34.25 c0.33,10.0,0.5,18.0,0.5,24 c0,10.0,-0.42,18.42,-1.25,25.25 c-0.83,6.83,-2.58,13.58,-5.25,20.25 c3.33,1.0,6.92,1.83,10.75,2.5 c3.83,0.67,8.08,1,12.75,1 c12.33,0,21.0,-2.33,26,-7 c5.0,-4.67,7.5,-13.33,7.5,-26 c0,-5.33,-0.25,-11.42,-0.75,-18.25 c-0.5,-6.83,-1.08,-14.25,-1.75,-22.25 c10.0,-1.33,18.25,-3.33,24.75,-6 c6.5,-2.67,11.92,-6.0,16.25,-10 c10.0,-9.33,15,-21.33,15,-36 c0,-7.0,-0.67,-13.08,-2,-18.25 c-1.33,-5.17,-3.33,-9.75,-6,-13.75 l-3,0 c-5.67,8.0,-12.5,14.5,-20.5,19.5 c-8.0,5.0,-18.33,8.5,-31,10.5 c-2.67,-19.33,-5.5,-38.75,-8.5,-58.25 c-3.0,-19.5,-5.83,-37.08,-8.5,-52.75 c-4.0,0.67,-7.83,1.33,-11.5,2 c-3.67,0.67,-6.67,1.67,-9,3 c-6.33,1.67,-9.5,6.5,-9.5,14.5 c0.67,11.33,1.25,25.17,1.75,41.5 c0.5,16.33,1.08,32.83,1.75,49.5 c-24.0,-5.0,-43.0,-20.92,-57,-47.75 c-14.0,-26.83,-21,-64.25,-21,-112.25 l0,-6 c0,-7.33,0.17,-15.42,0.5,-24.25 c0.33,-8.83,1.17,-16.75,2.5,-23.75 c4.67,-10.67,10.67,-20.0,18,-28 c7.33,-8.0,17.5,-13.67,30.5,-17 c3.0,20.67,6.08,41.25,9.25,61.75 c3.17,20.5,5.92,37.92,8.25,52.25 c4.33,-0.33,8.17,-0.83,11.5,-1.5 c3.33,-0.67,6.17,-1.67,8.5,-3 c3.67,-1.0,6.17,-2.75,7.5,-5.25 c1.33,-2.5,2,-5.58,2,-9.25 c-0.67,-11.67,-1.42,-26.33,-2.25,-44 c-0.83,-17.67,-1.58,-35.5,-2.25,-53.5 c36.0,3.0,64.0,18.33,84,46 l3,0 c1.33,-3.67,2.25,-7.5,2.75,-11.5 c0.5,-4.0,0.75,-7.83,0.75,-11.5 c0,-10.33,-1.58,-19.33,-4.75,-27 c-3.17,-7.67,-7.42,-14.17,-12.75,-19.5 c-8.33,-8.33,-18.58,-14.92,-30.75,-19.75 c-12.17,-4.83,-26.75,-7.58,-43.75,-8.25 c-0.33,-8.0,-0.5,-14.67,-0.5,-20 c0,-10.0,0.5,-18.42,1.5,-25.25 c1.0,-6.83,2.67,-13.58,5,-20.25 c-3.0,-1.0,-6.5,-1.83,-10.5,-2.5 c-4.0,-0.67,-8.33,-1,-13,-1 c-12.0,0,-20.33,2.42,-25,7.25 c-4.67,4.83,-7,13.42,-7,25.75 Z M129,-45.5" fill="rgb(0,0,0)" transform="matrix(1.7647058823529411,0.0,0.0,-1.7647058823529411,230.8823529411765,811.4705882352941)"/>
</svg>