<?xml version="1.0" encoding="UTF-8"?>
<svg width="1000" height="1000" viewBox="0 0 1000 1000" version="1.1" xmlns="http://www.w3.org/2000/svg" xmlns:xlink="http://www.w3.org/1999/xlink">
 <path d="M284.5,294.5 c6.67,-37.33,6.83,-74.25,0.5,-110.75 c-6.33,-36.5,-18.67,-75.08,-37,-115.75 c-9.33,2.67,-17.67,7.67,-25,15 c-7.33,7.67,-11.42,14.5,-12.25,20.5 c-0.83,6.0,1.08,15.17,5.75,27.5 c6.67,15.33,12.25,29.92,16.75,43.75 c4.5,13.83,7.75,28.33,9.75,43.5 c2.0,15.17,2.33,32.25,1,51.25 l-2.5,2.5 c-19.0,1.0,-35.92,0.5,-50.75,-1.5 c-14.83,-2.0,-29.25,-5.25,-43.25,-9.75 c-14.0,-4.5,-28.83,-10.08,-44.5,-16.75 c-12.0,-5.0,-21.0,-7.17,-27,-6.5 c-6.0,0.67,-12.67,4.67,-20,12 c-4.0,3.67,-7.25,7.67,-9.75,12 c-2.5,4.33,-4.42,8.67,-5.75,13 c35.0,16.0,67.58,27.33,97.75,34 c30.17,6.67,60.42,9.17,90.75,7.5 c11.0,-0.33,19.33,-1.0,25,-2 c5.67,-1.0,10.33,-2.58,14,-4.75 c3.67,-2.17,7.5,-5.42,11.5,-9.75 Z M217,225 c-10.0,-14.33,-19.17,-27.08,-27.5,-38.25 c-8.33,-11.17,-16.92,-21.83,-25.75,-32 c-8.83,-10.17,-19.42,-21.42,-31.75,-33.75 c-11.67,-11.67,-23.42,-23.42,-35.25,-35.25 c-11.83,-11.83,-23.58,-23.58,-35.25,-35.25 c-7.33,-7.33,-14.25,-10.58,-20.75,-9.75 c-6.5,0.83,-13.58,5.08,-21.25,12.75 c-2.67,2.67,-5.17,5.58,-7.5,8.75 c-2.33,3.17,-4.83,6.75,-7.5,10.75 c13.67,10.0,26.17,21.0,37.5,33 c8.67,8.67,17.42,17.42,26.25,26.25 c8.83,8.83,17.75,17.58,26.75,26.25 c12.0,12.0,22.58,22.33,31.75,31 c9.17,8.67,18.08,16.75,26.75,24.25 c8.67,7.5,18.5,15.25,29.5,23.25 c10.33,7.0,19.5,6.67,27.5,-1 c3.0,-3.0,5.17,-6.67,6.5,-11 Z M217,225" fill="rgb(0,0,0)" transform="matrix(3.156474550658332,0.0,0.0,-3.156474550658332,35.79586452203756,1063.623967690786)"/>
</svg>