<?xml version="1.0" encoding="UTF-8"?>
<svg width="1000" height="1000" viewBox="0 0 1000 1000" version="1.1" xmlns="http://www.w3.org/2000/svg" xmlns:xlink="http://www.w3.org/1999/xlink">
 <path d="M0,0 l1000,0 l0,1000 l-1000,0 Z M0,0" fill="rgb(242,242,242)" transform="matrix(1,0,0,-1,0,1000)"/>
 <path d="M416,511 c0,-30.67,-9.83,-55.83,-29.5,-75.5 c-19.67,-19.67,-46.5,-29.5,-80.5,-29.5 c-34,0,-60.83,9.83,-80.5,29.5 c-19.67,19.67,-29.5,44.83,-29.5,75.5 l0,90 c0,30.67,9.83,55.83,29.5,75.5 c19.67,19.67,46.5,29.5,80.5,29.5 c34,0,60.83,-9.83,80.5,-29.5 c19.67,-19.67,29.5,-44.83,29.5,-75.5 Z M306,634 c-11.33,0,-19.5,-3.5,-24.5,-10.5 c-5,-7,-7.5,-16.17,-7.5,-27.5 l0,-80 c0,-11.33,2.5,-20.5,7.5,-27.5 c5,-7,13.17,-10.5,24.5,-10.5 c11.33,0,19.5,3.5,24.5,10.5 c5,7,7.5,16.17,7.5,27.5 l0,80 c0,11.33,-2.5,20.5,-7.5,27.5 c-5,7,-13.17,10.5,-24.5,10.5 Z M306,634" fill="rgb(0,0,0)" transform="matrix(0.6172839506172839,0.0,0.0,-0.6172839506172839,310.1851851851852,741.358024691358)"/>
</svg>