<?xml version="1.0" encoding="UTF-8"?>
<svg width="1000" height="1000" viewBox="0 0 1000 1000" version="1.1" xmlns="http://www.w3.org/2000/svg" xmlns:xlink="http://www.w3.org/1999/xlink">
 <path d="M0,0 l1000,0 l0,1000 l-1000,0 Z M0,0" fill="rgb(242,242,242)" transform="matrix(1,0,0,-1,0,1000)"/>
 <path d="M259,412 l-78,0 l0,288 l78,0 l0,-39 l6,0 c6,12.67,15.67,23.33,29,32 c13.33,8.67,31,13,53,13 c32,0,56.33,-10.17,73,-30.5 c16.67,-20.33,25,-46.17,25,-77.5 l0,-186 l-78,0 l0,162 c0,20,-5,35,-15,45 c-10,10,-23,15,-39,15 c-16,0,-29,-5,-39,-15 c-10,-10,-15,-25.67,-15,-47 Z M259,412" fill="rgb(0,0,0)" transform="matrix(0.6172839506172839,0.0,0.0,-0.6172839506172839,310.1851851851852,741.358024691358)"/>
</svg>