<?xml version="1.0" encoding="UTF-8"?>
<svg width="1000" height="1000" viewBox="0 0 1000 1000" version="1.1" xmlns="http://www.w3.org/2000/svg" xmlns:xlink="http://www.w3.org/1999/xlink">
 <path d="M0,0 l1000,0 l0,1000 l-1000,0 Z M0,0" fill="rgb(242,242,242)" transform="matrix(1,0,0,-1,0,1000)"/>
 <path d="M586,270 l-374,0 l0,-270 l-126,0 l0,270 l-60,0 l0,114 l60,0 l0,41 l-60,0 l0,114 l60,0 l0,161 l226,0 c30.67,0,58,-4.33,82,-13 c24,-8.67,44.83,-20.5,62.5,-35.5 c17.67,-15,32,-32.17,43,-51.5 c11,-19.33,18.5,-39.67,22.5,-61 l64,0 l0,-114 l-68,0 c-2,-14,-8.67,-25.67,-20,-35 l0,-6 l88,0 Z M310,384 c18.67,0.67,34.33,4.67,47,12 c12.67,7.33,22.67,17,30,29 l-175,0 l0,-41 Z M212,539 l175,0 c-7.33,12.67,-17.83,22.67,-31.5,30 c-13.67,7.33,-30.17,11,-49.5,11 l-94,0 Z M212,539" fill="rgb(0,0,0)" transform="matrix(0.6172839506172839,0.0,0.0,-0.6172839506172839,310.1851851851852,741.358024691358)"/>
</svg>