<?xml version="1.0" encoding="UTF-8"?>
<svg width="1000" height="1000" viewBox="0 0 1000 1000" version="1.1" xmlns="http://www.w3.org/2000/svg" xmlns:xlink="http://www.w3.org/1999/xlink">
 <path d="M0,0 l1000,0 l0,1000 l-1000,0 Z M0,0" fill="rgb(242,242,242)" transform="matrix(1,0,0,-1,0,1000)"/>
 <path d="M141,38 c-30,23.33,-53,54.67,-69,94 c-16,39.33,-24,86,-24,140 l0,156 c0,86.67,21.17,154.67,63.5,204 c42.33,49.33,100.83,76.33,175.5,81 l17,79 l70,-15 l-15,-67 c11.33,-0.67,22.67,-2.67,34,-6 l19,88 l70,-15 l-22,-102 c34,-21.33,59.83,-50.83,77.5,-88.5 c17.67,-37.67,26.5,-81.83,26.5,-132.5 l0,-18 l-132,0 l0,18 c0,9.33,-0.5,18.67,-1.5,28 c-1,9.33,-3.17,18.67,-6.5,28 l-87,-402 c19.33,2.67,35.17,8.33,47.5,17 c12.33,8.67,22,19.33,29,32 c7,12.67,11.83,26.67,14.5,42 c2.67,15.33,4,31,4,47 l0,18 l132,0 l0,-18 c0,-83.33,-21.5,-147.33,-64.5,-192 c-43,-44.67,-105.83,-67.33,-188.5,-68 l-17,-78 l-70,15 l15,70 c-6,1.33,-11.67,2.83,-17,4.5 c-5.33,1.67,-10.67,3.17,-16,4.5 l-20,-94 l-70,15 Z M233,126 c9.33,-6.67,20,-11.33,32,-14 l101,470 c-4.67,2,-9.67,3.83,-15,5.5 c-5.33,1.67,-11,3.17,-17,4.5 Z M180,262 c0,-6,0,-12,0,-18 c0,-6,0.67,-11.67,2,-17 l77,358 c-27.33,-10.67,-47.33,-29.5,-60,-56.5 c-12.67,-27,-19,-57.17,-19,-90.5 Z M180,262" fill="rgb(0,0,0)" transform="matrix(0.6172839506172839,0.0,0.0,-0.6172839506172839,310.1851851851852,741.358024691358)"/>
</svg>