<?xml version="1.0" encoding="UTF-8"?>
<svg width="1000" height="1000" viewBox="0 0 1000 1000" version="1.1" xmlns="http://www.w3.org/2000/svg" xmlns:xlink="http://www.w3.org/1999/xlink">
 <path d="M98,-1 c-2.33,-0.33,-4.83,-0.83,-7.5,-1.5 c-2.67,-0.67,-5.83,-1,-9.5,-1 c-10.67,0,-18.75,2.92,-24.25,8.75 c-5.5,5.83,-8.25,15.42,-8.25,28.75 l0,61.5 l-18,0 c-8.67,0,-14.75,2.83,-18.25,8.5 c-3.5,5.67,-5.25,12.67,-5.25,21 c0,7.67,1.0,14.67,3,21 c4.0,-0.33,9.33,-0.83,16,-1.5 c6.67,-0.67,14.17,-1.33,22.5,-2 l0,67.5 l-10,0 c-12.33,0,-20.67,2.92,-25,8.75 c-4.33,5.83,-6.5,13.42,-6.5,22.75 c0,2.67,0.08,5.17,0.25,7.5 c0.17,2.33,0.42,4.33,0.75,6 l40.5,0 l0,42 c0,7.67,-0.42,16.5,-1.25,26.5 c-0.83,10.0,-2.25,19.33,-4.25,28 c5.67,1.0,11.0,1.75,16,2.25 c5.0,0.5,10.67,0.75,17,0.75 c15.67,0,27.25,-2.75,34.75,-8.25 c7.5,-5.5,12.92,-16.25,16.25,-32.25 c2.0,-9.67,4.17,-19.25,6.5,-28.75 c2.33,-9.5,4.67,-19.08,7,-28.75 l65,0 c0,2.33,0,4.67,0,7 l0,88.5 c4.0,1.67,9.83,2.5,17.5,2.5 c11.67,0,20.08,-2.58,25.25,-7.75 c5.17,-5.17,7.75,-13.58,7.75,-25.25 l0,-65 l4,0 c12.33,0,20.92,-2.58,25.75,-7.75 c4.83,-5.17,7.25,-12.75,7.25,-22.75 c0,-4.67,-0.33,-8.58,-1,-11.75 c-0.67,-3.17,-1.5,-5.92,-2.5,-8.25 c-4.0,0.33,-8.83,0.67,-14.5,1 c-5.67,0.33,-12.0,0.83,-19,1.5 l0,-67 l5.5,0 c11.67,0,19.83,-1.92,24.5,-5.75 c4.67,-3.83,7,-10.58,7,-20.25 c0,-3.67,-0.25,-7.08,-0.75,-10.25 c-0.5,-3.17,-1.08,-6.08,-1.75,-8.75 l-34.5,0 l0,-42.5 c0,-9.33,0.25,-18.67,0.75,-28 c0.5,-9.33,1.42,-18.5,2.75,-27.5 c-5.67,-2.33,-12.17,-3.5,-19.5,-3.5 c-7.33,0,-14.08,1.08,-20.25,3.25 c-6.17,2.17,-12.42,6.58,-18.75,13.25 c-17.67,17.67,-35.0,45.67,-52,84 l-51,0 c0,-7.67,0,-15.33,0,-23 c0,-7.67,0,-15.17,0,-22.5 Z M97.5,137.5 c6.33,-0.67,12.67,-1.5,19,-2.5 c6.33,-1.0,12.33,-1.83,18,-2.5 c-7.33,19.33,-14.33,40.42,-21,63.25 c-6.67,22.83,-13.0,47.25,-19,73.25 l-2.5,0 c1.67,-20.67,2.92,-42.17,3.75,-64.5 c0.83,-22.33,1.42,-44.67,1.75,-67 Z M209,76.5 l3.5,0 c-1.67,24.0,-3.0,47.17,-4,69.5 c-1.0,22.33,-1.83,44.67,-2.5,67 c-8.67,1.0,-17.67,2.17,-27,3.5 c-9.33,1.33,-18.83,2.83,-28.5,4.5 c7.33,-25.33,15.75,-50.08,25.25,-74.25 c9.5,-24.17,20.58,-47.58,33.25,-70.25 Z M209,76.5" fill="rgb(0,0,0)" transform="matrix(2.5034770514603615,0.0,0.0,-2.5034770514603615,124.47844228094579,937.4826147426982)"/>
</svg>