<?xml version="1.0" encoding="UTF-8"?>
<svg width="1000" height="1000" viewBox="0 0 1000 1000" version="1.1" xmlns="http://www.w3.org/2000/svg" xmlns:xlink="http://www.w3.org/1999/xlink">
 <path d="M0,0 l1000,0 l0,1000 l-1000,0 Z M0,0" fill="rgb(242,242,242)" transform="matrix(1,0,0,-1,0,1000)"/>
 <path d="M54,459 l60,0 l0,139 l212,0 l16,-139 l48,0 l0,139 l108,0 l0,-139 l60,0 l0,-96 l-60,0 l0,-30 l60,0 l0,-96 l-60,0 l0,-135 l-212,0 l-16,135 l-48,0 l0,-135 l-108,0 l0,135 l-60,0 l0,96 l60,0 l0,30 l-60,0 Z M222,459 l21,0 l-9,79 l-12,0 Z M390,162 l0,75 l-21,0 l9,-75 Z M222,333 l36,0 l-3,30 l-33,0 Z M357,333 l33,0 l0,30 l-36,0 Z M357,333" fill="rgb(0,0,0)" transform="matrix(0.6172839506172839,0.0,0.0,-0.6172839506172839,310.1851851851852,741.358024691358)"/>
</svg>