<?xml version="1.0" encoding="UTF-8"?>
<svg width="1000" height="1000" viewBox="0 0 1000 1000" version="1.1" xmlns="http://www.w3.org/2000/svg" xmlns:xlink="http://www.w3.org/1999/xlink">
 <path d="M25.5,350 c22.67,3.67,42.25,6.25,58.75,7.75 c16.5,1.5,34.25,2.25,53.25,2.25 c40.33,0,70.67,-8.25,91,-24.75 c20.33,-16.5,32.0,-39.25,35,-68.25 l1,0 c9.0,0,15.25,-1.92,18.75,-5.75 c3.5,-3.83,5.25,-10.58,5.25,-20.25 c0,-3.33,-0.17,-6.58,-0.5,-9.75 c-0.33,-3.17,-0.83,-6.08,-1.5,-8.75 c-5.0,0,-12.5,0.17,-22.5,0.5 c-0.33,-12.0,-1.17,-23.33,-2.5,-34 l3,0 c9.0,0,15.25,-1.92,18.75,-5.75 c3.5,-3.83,5.25,-10.58,5.25,-20.25 c0,-3.33,-0.17,-6.58,-0.5,-9.75 c-0.33,-3.17,-0.83,-6.08,-1.5,-8.75 c-3.0,0,-7.5,0.08,-13.5,0.25 c-6.0,0.17,-13.33,0.42,-22,0.75 c-10.33,-29.33,-25.5,-50.33,-45.5,-63 c-20.0,-12.67,-41.5,-19,-64.5,-19 c-8.67,0,-16.33,1.08,-23,3.25 c-6.67,2.17,-13.33,5.92,-20,11.25 l-3,0 c0,-10.33,0,-19.67,0,-28 c0,-8.33,0.33,-16.75,1,-25.25 c0.67,-8.5,2.0,-16.92,4,-25.25 c-3.33,-0.67,-6.42,-1.25,-9.25,-1.75 c-2.83,-0.5,-6.08,-0.75,-9.75,-0.75 c-14.67,0,-24.67,3.42,-30,10.25 c-5.33,6.83,-8,18.08,-8,33.75 l0,104.5 l-11,0 c-8.33,0,-14.17,2.17,-17.5,6.5 c-3.33,4.33,-5,10.33,-5,18 c0,3.0,0.08,6.25,0.25,9.75 c0.17,3.5,0.42,6.58,0.75,9.25 l32.5,0 l0,34.5 l-11,0 c-8.33,0,-14.17,2.17,-17.5,6.5 c-3.33,4.33,-5,10.33,-5,18 c0,3.0,0.08,6.25,0.25,9.75 c0.17,3.5,0.42,6.58,0.75,9.25 l32.5,0 l0,35.5 c-0.33,0,-0.67,0,-1,0 c-6.33,0,-11.0,2.0,-14,6 c-3.0,4.0,-4.5,11.83,-4.5,23.5 c0,7.0,0.67,13.0,2,18 Z M95,269 l0,-2 l116,0 c-0.67,5.67,-1.5,11.25,-2.5,16.75 c-1.0,5.5,-2.33,10.08,-4,13.75 c-16.67,10.0,-40.0,15,-70,15 c-10.67,0,-20.33,-0.33,-29,-1 c-8.67,-0.67,-16.5,-1.5,-23.5,-2.5 l0,-3 c5.67,-5.0,9.25,-10.33,10.75,-16 c1.5,-5.67,2.25,-12.67,2.25,-21 Z M95,189 l113.5,0 c1.67,10.67,2.67,22.67,3,36 c-18.67,1.0,-38.42,2.33,-59.25,4 c-20.83,1.67,-39.92,3.67,-57.25,6 c0,-7.67,0,-15.33,0,-23 c0,-7.67,0,-15.33,0,-23 Z M124.5,109 c14.67,0,28.17,2.92,40.5,8.75 c12.33,5.83,22.33,15.92,30,30.25 c-16.67,1.0,-33.75,2.25,-51.25,3.75 c-17.5,1.5,-33.75,3.25,-48.75,5.25 c0,-7.67,0,-15.33,0,-23 c0,-7.67,0,-15.17,0,-22.5 c8.33,-1.67,18.17,-2.5,29.5,-2.5 Z M124.5,109" fill="rgb(0,0,0)" transform="matrix(2.479338842975207,0.0,0.0,-2.479338842975207,130.57851239669418,942.5619834710744)"/>
</svg>