<?xml version="1.0" encoding="UTF-8"?>
<svg width="1000" height="1000" viewBox="0 0 1000 1000" version="1.1" xmlns="http://www.w3.org/2000/svg" xmlns:xlink="http://www.w3.org/1999/xlink">
 <path d="M0,0 l1000,0 l0,1000 l-1000,0 Z M0,0" fill="rgb(242,242,242)" transform="matrix(1,0,0,-1,0,1000)"/>
 <path d="M348,608 c45.33,-8.67,80,-29.17,104,-61.5 c24,-32.33,36,-70.5,36,-114.5 l0,-12 l-114,0 l0,8 c0,28.67,-8.67,49.67,-26,63 l0,-133 l140,0 l0,-260 l-102,0 l0,38 l-12,0 c-5.33,-13.33,-14,-24,-26,-32 l0,-76 l-84,0 l0,60 c-20,1.33,-39,6.5,-57,15.5 c-18,9,-33.5,21.67,-46.5,38 c-13,16.33,-23.33,36.33,-31,60 c-7.67,23.67,-11.5,51.17,-11.5,82.5 l0,124 c0,58,13.17,103.83,39.5,137.5 c26.33,33.67,61.83,54.5,106.5,62.5 l0,64 l84,0 Z M232,284 c0,-37.33,10.67,-63,32,-77 l0,284 c-21.33,-14.67,-32,-41.67,-32,-81 Z M348,262 l0,-58 c21.33,10.67,32,30,32,58 Z M348,262" fill="rgb(0,0,0)" transform="matrix(0.6172839506172839,0.0,0.0,-0.6172839506172839,310.1851851851852,741.358024691358)"/>
</svg>