<?xml version="1.0" encoding="UTF-8"?>
<svg width="1000" height="1000" viewBox="0 0 1000 1000" version="1.1" xmlns="http://www.w3.org/2000/svg" xmlns:xlink="http://www.w3.org/1999/xlink">
 <path d="M0,0 l1000,0 l0,1000 l-1000,0 Z M0,0" fill="rgb(242,242,242)" transform="matrix(1,0,0,-1,0,1000)"/>
 <path d="M324,150 c0,-20,9,-30,27,-30 l153,0 l0,-120 l-210,0 c-28,0,-51,9,-69,27 c-18,18,-27,41,-27,69 l0,87 c-6,-0.67,-12,-1,-18,-1 c-6,0,-12,0,-18,0 l-108,0 l0,120 l96,0 c8.67,0,17,0.17,25,0.5 c8,0.33,15.67,0.83,23,1.5 l0,248 c0,20.67,3.67,40.83,11,60.5 c7.33,19.67,18,37,32,52 c14,15,31,27,51,36 c20,9,42.67,13.5,68,13.5 c28.67,0,53.5,-5,74.5,-15 c21,-10,38.5,-23.5,52.5,-40.5 c14,-17,24.33,-37.33,31,-61 c6.67,-23.67,10,-48.83,10,-75.5 c0,-74.67,-18,-139,-54,-193 c-36,-54,-86,-93.67,-150,-119 Z M324,349 c52,38.67,78,96.33,78,173 c0,22,-2.83,39.5,-8.5,52.5 c-5.67,13,-16.17,19.5,-31.5,19.5 c-25.33,0,-38,-18,-38,-54 Z M324,349" fill="rgb(0,0,0)" transform="matrix(0.6172839506172839,0.0,0.0,-0.6172839506172839,310.1851851851852,741.358024691358)"/>
</svg>