<?xml version="1.0" encoding="UTF-8"?>
<svg width="1000" height="1000" viewBox="0 0 1000 1000" version="1.1" xmlns="http://www.w3.org/2000/svg" xmlns:xlink="http://www.w3.org/1999/xlink">
 <path d="M177.5,61 l-31,0 c-10.33,0,-18.0,1.25,-23,3.75 c-5.0,2.5,-10.0,7.08,-15,13.75 c-6.67,8.67,-13.17,18.67,-19.5,30 c-6.33,11.33,-12.0,22.83,-17,34.5 c-5.0,11.67,-9.0,22.5,-12,32.5 c-4.33,12.67,-6.5,22.83,-6.5,30.5 c0,3.67,1.5,6.83,4.5,9.5 c3.0,2.67,7.83,4,14.5,4 c5.33,0,9.92,-0.33,13.75,-1 c3.83,-0.67,7.92,-1.67,12.25,-3 c9.0,-40.33,24.67,-77.0,47,-110 l2.5,0 c9.0,26.0,18.5,51.33,28.5,76 c10.0,24.67,20.33,48.0,31,70 l-170,0 c2.33,-20.33,3.92,-42.83,4.75,-67.5 c0.83,-24.67,1.17,-49.5,1,-74.5 c-0.17,-25.0,-0.92,-48.67,-2.25,-71 l221.5,0 c-2.0,25.0,-3.42,50.92,-4.25,77.75 c-0.83,26.83,-1.08,51.42,-0.75,73.75 c0.33,13.67,2.25,25.67,5.75,36 c3.5,10.33,9.58,21.67,18.25,34 l8.5,12.5 l0,-267.5 l-268.5,0 c-4.0,0,-6.92,2.5,-8.75,7.5 c-1.83,5.0,-2.75,11.83,-2.75,20.5 l0,252 l158.5,0 c13.0,0,22.75,-1.17,29.25,-3.5 c6.5,-2.33,12.25,-5.83,17.25,-10.5 l2.5,0 c9.33,18.33,19.0,35.33,29,51 c5.0,8.33,10.42,13.67,16.25,16 c5.83,2.33,10.92,3.5,15.25,3.5 c9.33,0,17.83,-4.83,25.5,-14.5 c-16.0,-24.0,-31.42,-50.67,-46.25,-80 c-14.83,-29.33,-28.83,-59.83,-42,-91.5 c-13.17,-31.67,-25.75,-63.17,-37.75,-94.5 Z M177.5,61" fill="rgb(0,0,0)" transform="matrix(2.674591381872214,0.0,0.0,-2.674591381872214,80.75780089153045,963.3729569093609)"/>
</svg>