<?xml version="1.0" encoding="UTF-8"?>
<svg width="1000" height="1000" viewBox="0 0 1000 1000" version="1.1" xmlns="http://www.w3.org/2000/svg" xmlns:xlink="http://www.w3.org/1999/xlink">
 <path d="M0,0 l1000,0 l0,1000 l-1000,0 Z M0,0" fill="rgb(242,242,242)" transform="matrix(1,0,0,-1,0,1000)"/>
 <path d="M48,444 l60,0 l0,46 c0,72.67,19.67,128.17,59,166.5 c39.33,38.33,93.33,57.5,162,57.5 c34.67,0,66.5,-4.83,95.5,-14.5 c29,-9.67,53.83,-24,74.5,-43 c20.67,-19,36.67,-42.33,48,-70 c11.33,-27.67,17,-59.83,17,-96.5 l0,-66 l-126,0 l0,70 c0,31.33,-9.67,55.83,-29,73.5 c-19.33,17.67,-44.67,26.5,-76,26.5 c-29.33,0,-53.17,-8.67,-71.5,-26 c-18.33,-17.33,-27.5,-42,-27.5,-74 l0,-50 l102,0 l0,-114 l-102,0 l0,-36 l102,0 l0,-114 l-102,0 l0,-60 l330,0 l0,-120 l-516,0 l0,120 l60,0 l0,60 l-60,0 l0,114 l60,0 l0,36 l-60,0 Z M48,444" fill="rgb(0,0,0)" transform="matrix(0.6172839506172839,0.0,0.0,-0.6172839506172839,310.1851851851852,741.358024691358)"/>
</svg>