<?xml version="1.0" encoding="UTF-8"?>
<svg width="1000" height="1000" viewBox="0 0 1000 1000" version="1.1" xmlns="http://www.w3.org/2000/svg" xmlns:xlink="http://www.w3.org/1999/xlink">
 <path d="M0,0 l1000,0 l0,1000 l-1000,0 Z M0,0" fill="rgb(242,242,242)" transform="matrix(1,0,0,-1,0,1000)"/>
 <path d="M330,3 c-0.67,6,-3,11.17,-7,15.5 c-4,4.33,-10.33,6.5,-19,6.5 c-8.67,0,-15.17,-2.5,-19.5,-7.5 c-4.33,-5,-6.5,-11.17,-6.5,-18.5 l0,-40 l9,0 c9.33,16,25,24,47,24 c22,0,40.5,-7.5,55.5,-22.5 c15,-15,22.5,-36.17,22.5,-63.5 c0,-31.33,-10.17,-56.17,-30.5,-74.5 c-20.33,-18.33,-45.5,-27.5,-75.5,-27.5 c-28.67,0,-53.5,8.83,-74.5,26.5 c-21,17.67,-31.5,42.17,-31.5,73.5 l0,98 c0,16,2.83,30.33,8.5,43 c5.67,12.67,13.33,23.33,23,32 c9.67,8.67,20.83,15.33,33.5,20 c12.67,4.67,25.67,7,39,7 c29.33,0,53.67,-8.33,73,-25 c19.33,-16.67,29.67,-39,31,-67 Z M306,-89 c-8,0,-14.67,-1.83,-20,-5.5 c-5.33,-3.67,-8,-9.17,-8,-16.5 c0,-7.33,2.67,-12.83,8,-16.5 c5.33,-3.67,12,-5.5,20,-5.5 c8,0,14.67,1.83,20,5.5 c5.33,3.67,8,9.17,8,16.5 c0,7.33,-2.67,12.83,-8,16.5 c-5.33,3.67,-12,5.5,-20,5.5 Z M306,-89" fill="rgb(0,0,0)" transform="matrix(0.6172839506172839,0.0,0.0,-0.6172839506172839,310.1851851851852,741.358024691358)"/>
</svg>