<?xml version="1.0" encoding="UTF-8"?>
<svg width="1000" height="1000" viewBox="0 0 1000 1000" version="1.1" xmlns="http://www.w3.org/2000/svg" xmlns:xlink="http://www.w3.org/1999/xlink">
 <path d="M290,161.5 c-21.67,-31.0,-47.75,-57.25,-78.25,-78.75 c-30.5,-21.5,-66.58,-39.92,-108.25,-55.25 c-2.33,4.0,-4.08,9.08,-5.25,15.25 c-1.17,6.17,-1.75,11.75,-1.75,16.75 c0,10.0,1.92,17.33,5.75,22 c3.83,4.67,11.75,9.5,23.75,14.5 c15.67,6.33,30.0,12.67,43,19 c13.0,6.33,25.5,14.0,37.5,23 c12.0,9.0,24.33,20.5,37,34.5 l0,3 c-12.67,13.67,-25.0,25.0,-37,34 c-12.0,9.0,-24.5,16.75,-37.5,23.25 c-13.0,6.5,-27.33,12.92,-43,19.25 c-12.0,5.0,-19.92,9.83,-23.75,14.5 c-3.83,4.67,-5.75,12.0,-5.75,22 c0,5.0,0.58,10.58,1.75,16.75 c1.17,6.17,2.92,11.25,5.25,15.25 c36.0,-13.0,67.0,-28.0,93,-45 c26.0,-17.0,49.17,-36.67,69.5,-59 c7.33,-8.0,12.67,-14.42,16,-19.25 c3.33,-4.83,5.5,-9.33,6.5,-13.5 c1.0,-4.17,1.5,-9.25,1.5,-15.25 Z M192.5,161 c-17.0,-3.0,-32.42,-5.42,-46.25,-7.25 c-13.83,-1.83,-27.58,-3.25,-41.25,-4.25 c-13.67,-1.0,-29.17,-1.5,-46.5,-1.5 l-20.5,0 c-10.67,0,-18.0,2.58,-22,7.75 c-4.0,5.17,-6,13.25,-6,24.25 c0,7.67,1.0,14.67,3,21 l46,0 c17.0,0,31.67,-0.17,44,-0.5 c12.33,-0.33,24.25,-1.08,35.75,-2.25 c11.5,-1.17,24.08,-2.75,37.75,-4.75 c12.33,-2.33,18.5,-9.33,18.5,-21 c0,-4.33,-0.83,-8.17,-2.5,-11.5 Z M192.5,161" fill="rgb(0,0,0)" transform="matrix(3.0716723549488054,0.0,0.0,-3.0716723549488054,39.24914675767917,1034.4709897610921)"/>
</svg>