<?xml version="1.0" encoding="UTF-8"?>
<svg width="1000" height="1000" viewBox="0 0 1000 1000" version="1.1" xmlns="http://www.w3.org/2000/svg" xmlns:xlink="http://www.w3.org/1999/xlink">
 <path d="M0,0 l1000,0 l0,1000 l-1000,0 Z M0,0" fill="rgb(242,242,242)" transform="matrix(1,0,0,-1,0,1000)"/>
 <path d="M282,-111 c0.67,-6,3.5,-11.5,8.5,-16.5 c5,-5,12.5,-7.5,22.5,-7.5 c11.33,0,19.33,3.17,24,9.5 c4.67,6.33,7,13.83,7,22.5 c0,8,-2.17,14.83,-6.5,20.5 c-4.33,5.67,-11.17,8.5,-20.5,8.5 c-10.67,0,-17.67,-3.67,-21,-11 l-92,0 l0,174 l200,0 l0,-70 l-122,0 l0,-46 l9,0 c10.67,16,28.33,24,53,24 c21.33,0,39.67,-7.83,55,-23.5 c15.33,-15.67,23,-38.5,23,-68.5 c0,-32,-9,-58.33,-27,-79 c-18,-20.67,-45,-31,-81,-31 c-38,0,-65.83,9.67,-83.5,29 c-17.67,19.33,-26.5,41,-26.5,65 Z M282,-111" fill="rgb(0,0,0)" transform="matrix(0.6172839506172839,0.0,0.0,-0.6172839506172839,310.1851851851852,741.358024691358)"/>
</svg>