<?xml version="1.0" encoding="UTF-8"?>
<svg width="1000" height="1000" viewBox="0 0 1000 1000" version="1.1" xmlns="http://www.w3.org/2000/svg" xmlns:xlink="http://www.w3.org/1999/xlink">
 <path d="M69.5,53.5 c0,13.67,0,27.08,0,40.25 c0,13.17,0,25.92,0,38.25 c-12.67,-6.0,-22.67,-10.33,-30,-13 c-7.33,-2.67,-13.5,-4,-18.5,-4 c-7.0,0,-10.5,4.83,-10.5,14.5 c0,3.67,0.33,7.17,1,10.5 c0.67,3.33,1.5,6.67,2.5,10 c10.0,3.67,19.25,7.17,27.75,10.5 c8.5,3.33,17.92,7.17,28.25,11.5 c0,6.67,0,13.17,0,19.5 c0,6.33,0,12.5,0,18.5 c-13.0,-6.0,-23.17,-10.33,-30.5,-13 c-7.33,-2.67,-13.5,-4,-18.5,-4 c-7.0,0,-10.5,5.0,-10.5,15 c0,3.33,0.33,6.75,1,10.25 c0.67,3.5,1.5,6.75,2.5,9.75 c10.0,3.67,19.25,7.08,27.75,10.25 c8.5,3.17,17.75,7.08,27.75,11.75 c0,3.0,0,6.0,0,9 c-0.33,20.67,-1.0,38.33,-2,53 c-1.0,14.67,-2.33,27.67,-4,39 c4.0,1.0,8.83,1.83,14.5,2.5 c5.67,0.67,11.5,1,17.5,1 c10.0,0,17.25,-2.25,21.75,-6.75 c4.5,-4.5,6.75,-13.42,6.75,-26.75 l0,-47.5 c18.0,8.0,31.75,14.0,41.25,18 c9.5,4.0,16.75,6.58,21.75,7.75 c5.0,1.17,9.5,1.75,13.5,1.75 c4.67,0,8.17,-1.42,10.5,-4.25 c2.33,-2.83,3.5,-6.42,3.5,-10.75 c0,-4.0,-0.33,-7.58,-1,-10.75 c-0.67,-3.17,-1.67,-6.42,-3,-9.75 c-10.33,-3.0,-19.75,-5.92,-28.25,-8.75 c-8.5,-2.83,-17.33,-6.0,-26.5,-9.5 c-9.17,-3.5,-19.75,-7.92,-31.75,-13.25 l0,-38.5 c18.0,8.0,31.75,14.0,41.25,18 c9.5,4.0,16.75,6.58,21.75,7.75 c5.0,1.17,9.5,1.75,13.5,1.75 c4.67,0,8.17,-1.42,10.5,-4.25 c2.33,-2.83,3.5,-6.42,3.5,-10.75 c0,-7.33,-1.33,-14.17,-4,-20.5 c-10.33,-3.0,-19.75,-5.92,-28.25,-8.75 c-8.5,-2.83,-17.33,-6.0,-26.5,-9.5 c-9.17,-3.5,-19.75,-7.92,-31.75,-13.25 c-0.33,-26.67,-0.92,-47.75,-1.75,-63.25 c-0.83,-15.5,-2.25,-27.75,-4.25,-36.75 l1,-6 l24.5,0 c21.0,0,37.83,2.17,50.5,6.5 c12.67,4.33,21.92,11.83,27.75,22.5 c5.83,10.67,8.75,25.5,8.75,44.5 l0,26 l16.5,0 c12.0,0,20.58,-2.25,25.75,-6.75 c5.17,-4.5,7.75,-10.92,7.75,-19.25 l0,-8 c0,-40.0,-11.67,-69.25,-35,-87.75 c-23.33,-18.5,-58.33,-27.75,-105,-27.75 l-36,0 c-7.67,0,-14.08,2.58,-19.25,7.75 c-5.17,5.17,-9.08,11.83,-11.75,20 c-2.67,8.17,-4,16.75,-4,25.75 Z M69.5,53.5" fill="rgb(0,0,0)" transform="matrix(2.538787023977433,0.0,0.0,-2.538787023977433,130.6064880112835,950.0)"/>
</svg>