<?xml version="1.0" encoding="UTF-8"?>
<svg width="1000" height="1000" viewBox="0 0 1000 1000" version="1.1" xmlns="http://www.w3.org/2000/svg" xmlns:xlink="http://www.w3.org/1999/xlink">
 <path d="M0,0 l1000,0 l0,1000 l-1000,0 Z M0,0" fill="rgb(242,242,242)" transform="matrix(1,0,0,-1,0,1000)"/>
 <path d="M70,467 l60,0 l0,131 l194,0 c22.67,0,43,-3.67,61,-11 c18,-7.33,33.5,-17,46.5,-29 c13,-12,23.5,-26,31.5,-42 c8,-16,13.33,-32.33,16,-49 l63,0 l0,-84 l-65,0 c-4,-16.67,-10.17,-32.83,-18.5,-48.5 c-8.33,-15.67,-18.83,-29.67,-31.5,-42 c-12.67,-12.33,-27.5,-22.17,-44.5,-29.5 c-17,-7.33,-35.83,-11,-56.5,-11 l-82,0 l0,-150 l-114,0 l0,281 l-60,0 Z M244,467 l111,0 c-10.67,15.33,-27,23,-49,23 l-62,0 Z M306,360 c22,0,38.33,7.67,49,23 l-111,0 l0,-23 Z M306,360" fill="rgb(0,0,0)" transform="matrix(0.6172839506172839,0.0,0.0,-0.6172839506172839,310.1851851851852,741.358024691358)"/>
</svg>