<?xml version="1.0" encoding="UTF-8"?>
<svg width="1000" height="1000" viewBox="0 0 1000 1000" version="1.1" xmlns="http://www.w3.org/2000/svg" xmlns:xlink="http://www.w3.org/1999/xlink">
 <path d="M177.5,61 l-31,0 c-10.33,0,-18.0,1.25,-23,3.75 c-5.0,2.5,-10.0,7.08,-15,13.75 c-6.67,8.67,-13.17,18.67,-19.5,30 c-6.33,11.33,-12.0,22.83,-17,34.5 c-5.0,11.67,-9.0,22.5,-12,32.5 c-4.33,12.67,-6.5,22.83,-6.5,30.5 c0,3.67,1.5,6.83,4.5,9.5 c3.0,2.67,7.83,4,14.5,4 c5.33,0,9.92,-0.33,13.75,-1 c3.83,-0.67,7.92,-1.67,12.25,-3 c9.0,-40.33,24.67,-77.0,47,-110 l2.5,0 c14.0,41.33,29.25,80.33,45.75,117 c16.5,36.67,33.42,69.0,50.75,97 c4.67,7.67,9.33,13.25,14,16.75 c4.67,3.5,11.17,5.25,19.5,5.25 c11.33,0,19.83,-4.83,25.5,-14.5 c-24.33,-36.0,-47.17,-77.0,-68.5,-123 c-21.33,-46.0,-40.5,-93.67,-57.5,-143 Z M177.5,61" fill="rgb(0,0,0)" transform="matrix(3.2085561497326203,0.0,0.0,-3.2085561497326203,-72.72727272727269,1145.7219251336899)"/>
</svg>