<?xml version="1.0" encoding="UTF-8"?>
<svg width="1000" height="1000" viewBox="0 0 1000 1000" version="1.1" xmlns="http://www.w3.org/2000/svg" xmlns:xlink="http://www.w3.org/1999/xlink">
 <path d="M219.5,21.5 c0,-20.33,-6.33,-36.08,-19,-47.25 c-12.67,-11.17,-30.83,-16.75,-54.5,-16.75 c-14.33,0,-25.67,1.58,-34,4.75 c-8.33,3.17,-14.33,6.42,-18,9.75 c-3.33,3.33,-5.75,7.17,-7.25,11.5 c-1.5,4.33,-2.25,8.67,-2.25,13 c0,2.67,0.17,5.83,0.5,9.5 c0.33,3.67,1.17,6.83,2.5,9.5 l3,0 c6.67,-6.33,14.33,-10.75,23,-13.25 c8.67,-2.5,18.0,-3.75,28,-3.75 c12.67,0,23.08,2.08,31.25,6.25 c8.17,4.17,13.42,10.25,15.75,18.25 l0,1 c-5.33,14.67,-18.17,22,-38.5,22 l-39.5,0 c-7.67,0,-13.25,0.83,-16.75,2.5 c-3.5,1.67,-4.92,5.0,-4.25,10 c1.33,9.67,2.92,21.33,4.75,35 c1.83,13.67,3.92,25.83,6.25,36.5 c-7.33,0,-12.5,1.33,-15.5,4 c-3.0,2.67,-4.5,7.5,-4.5,14.5 c0,2.67,0.42,6.25,1.25,10.75 c0.83,4.5,1.92,8.42,3.25,11.75 l104,0 c8.33,0,14.67,-1.42,19,-4.25 c4.33,-2.83,6.5,-7.58,6.5,-14.25 c0,-3.0,-0.25,-6.58,-0.75,-10.75 c-0.5,-4.17,-1.58,-8.08,-3.25,-11.75 l-80.5,0 l-0.5,-2 c4.0,-5.0,5.17,-11.67,3.5,-20 c-0.67,-3.33,-1.58,-7.75,-2.75,-13.25 c-1.17,-5.5,-2.42,-10.75,-3.75,-15.75 l4.5,-1.5 c7.67,3.33,17.67,5,30,5 c18.0,0,32.25,-5.17,42.75,-15.5 c10.5,-10.33,15.75,-24.5,15.75,-42.5 Z M219.5,21.5" fill="rgb(0,0,0)" transform="matrix(4.215456674473068,0.0,0.0,-4.215456674473068,-132.31850117096025,770.8430913348946)"/>
</svg>