<?xml version="1.0" encoding="UTF-8"?>
<svg width="1000" height="1000" viewBox="0 0 1000 1000" version="1.1" xmlns="http://www.w3.org/2000/svg" xmlns:xlink="http://www.w3.org/1999/xlink">
 <path d="M0,0 l1000,0 l0,1000 l-1000,0 Z M0,0" fill="rgb(242,242,242)" transform="matrix(1,0,0,-1,0,1000)"/>
 <path d="M350,608 c46,-8,81.17,-28,105.5,-60 c24.33,-32,36.5,-73,36.5,-123 l0,-13 l-114,0 l0,14 c0,14.67,-2.33,27.67,-7,39 c-4.67,11.33,-11.67,20.33,-21,27 l0,-285 c18.67,12,28,34.33,28,67 l0,14 l114,0 l0,-14 c0,-52,-12.17,-93.67,-36.5,-125 c-24.33,-31.33,-59.5,-50.67,-105.5,-58 l0,-63 l-84,0 l0,63 c-46,7.33,-81.83,28.17,-107.5,62.5 c-25.67,34.33,-38.5,81.17,-38.5,140.5 l0,118 c0,55.33,13.17,99.83,39.5,133.5 c26.33,33.67,61.83,54.5,106.5,62.5 l0,64 l84,0 Z M234,281 c0,-38,10.67,-63,32,-75 l0,286 c-21.33,-13.33,-32,-37.33,-32,-72 Z M234,281" fill="rgb(0,0,0)" transform="matrix(0.6172839506172839,0.0,0.0,-0.6172839506172839,310.1851851851852,741.358024691358)"/>
</svg>