<?xml version="1.0" encoding="UTF-8"?>
<svg width="1000" height="1000" viewBox="0 0 1000 1000" version="1.1" xmlns="http://www.w3.org/2000/svg" xmlns:xlink="http://www.w3.org/1999/xlink">
 <path d="M0,0 l1000,0 l0,1000 l-1000,0 Z M0,0" fill="rgb(242,242,242)" transform="matrix(1,0,0,-1,0,1000)"/>
 <path d="M169,125 c-34.67,20.67,-62.5,49.17,-83.5,85.5 c-21,36.33,-31.5,80.17,-31.5,131.5 l0,12 c0,36,5.67,68.83,17,98.5 c11.33,29.67,26.83,55.5,46.5,77.5 c19.67,22,42.83,39.67,69.5,53 c26.67,13.33,55.33,22,86,26 l16,73 l70,-15 l-13,-57 l34,-6 l17,78 l70,-15 l-20,-90 c28,-17.33,51.17,-39,69.5,-65 c18.33,-26,30.17,-56,35.5,-90 l-112,-26 c-2,9.33,-4.5,18.67,-7.5,28 c-3,9.33,-7.17,18,-12.5,26 l-53,-245 c22.67,9.33,39.67,23,51,41 c11.33,18,19.33,37.33,24,58 l112,-26 c-4.67,-26,-13,-49.83,-25,-71.5 c-12,-21.67,-27,-40.67,-45,-57 c-18,-16.33,-39,-29.67,-63,-40 c-24,-10.33,-50.33,-16.83,-79,-19.5 l-15,-72 l-70,15 l12,57 c-5.33,1.33,-10.83,2.5,-16.5,3.5 c-5.67,1,-11.17,2.17,-16.5,3.5 l-17,-79 l-70,15 Z M259,205 c5.33,-2,10.67,-3.5,16,-4.5 c5.33,-1,11,-2.17,17,-3.5 l65,301 c-5.33,1.33,-10.67,2.33,-16,3 c-5.33,0.67,-11.33,1.33,-18,2 Z M168,345 c0,-38,9.33,-69.33,28,-94 l51,238 c-23.33,-12,-42.33,-30,-57,-54 c-14.67,-24,-22,-52,-22,-84 Z M168,345" fill="rgb(0,0,0)" transform="matrix(0.6172839506172839,0.0,0.0,-0.6172839506172839,310.1851851851852,741.358024691358)"/>
</svg>