<?xml version="1.0" encoding="UTF-8"?>
<svg width="1000" height="1000" viewBox="0 0 1000 1000" version="1.1" xmlns="http://www.w3.org/2000/svg" xmlns:xlink="http://www.w3.org/1999/xlink">
 <path d="M0,0 l1000,0 l0,1000 l-1000,0 Z M0,0" fill="rgb(242,242,242)" transform="matrix(1,0,0,-1,0,1000)"/>
 <path d="M114,485 l200,0 c-10.67,19.33,-30.33,29,-59,29 l-141,0 l0,84 l384,0 l0,-84 l-75,0 l0,-6 c5.33,-6.67,9,-14.33,11,-23 l64,0 l0,-84 l-68,0 c-5.33,-15.33,-12.67,-29.67,-22,-43 c-9.33,-13.33,-21.33,-23.33,-36,-30 l0,-12 c18,-2,31.5,-8.67,40.5,-20 c9,-11.33,13.5,-26,13.5,-44 l0,-150 l-108,0 l0,130 c0,11.33,-3,20.5,-9,27.5 c-6,7,-15.67,10.5,-29,10.5 l-166,0 l0,102 l141,0 c27.33,0,46,9.67,56,29 l-197,0 Z M114,485" fill="rgb(0,0,0)" transform="matrix(0.6172839506172839,0.0,0.0,-0.6172839506172839,310.1851851851852,741.358024691358)"/>
</svg>