<?xml version="1.0" encoding="UTF-8"?>
<svg width="1000" height="1000" viewBox="0 0 1000 1000" version="1.1" xmlns="http://www.w3.org/2000/svg" xmlns:xlink="http://www.w3.org/1999/xlink">
 <path d="M0,0 l1000,0 l0,1000 l-1000,0 Z M0,0" fill="rgb(242,242,242)" transform="matrix(1,0,0,-1,0,1000)"/>
 <path d="M365,-34 c-1.33,19.33,-7.67,33.5,-19,42.5 c-11.33,9,-25.33,13.5,-42,13.5 c-15.33,0,-27.5,-3.33,-36.5,-10 c-9,-6.67,-16.17,-14.67,-21.5,-24 l-62,36 c10,20,24.83,36.67,44.5,50 c19.67,13.33,44.5,20,74.5,20 c40.67,0,74.17,-12.83,100.5,-38.5 c26.33,-25.67,39.5,-60.83,39.5,-105.5 l0,-14 c0,-20.67,-3.5,-39.67,-10.5,-57 c-7,-17.33,-16.67,-32.33,-29,-45 c-12.33,-12.67,-27,-22.5,-44,-29.5 c-17,-7,-35.83,-10.5,-56.5,-10.5 c-23.33,0,-43.5,4.17,-60.5,12.5 c-17,8.33,-31,19,-42,32 c-11,13,-19,27.33,-24,43 c-5,15.67,-7.5,30.5,-7.5,44.5 l0,40 Z M305,-136 c18.67,0,32.5,3.83,41.5,11.5 c9,7.67,14.83,17.17,17.5,28.5 l-117,0 c1.33,-12,7,-21.67,17,-29 c10,-7.33,23.67,-11,41,-11 Z M305,-136" fill="rgb(0,0,0)" transform="matrix(0.6172839506172839,0.0,0.0,-0.6172839506172839,310.1851851851852,741.358024691358)"/>
</svg>