<?xml version="1.0" encoding="UTF-8"?>
<svg width="1000" height="1000" viewBox="0 0 1000 1000" version="1.1" xmlns="http://www.w3.org/2000/svg" xmlns:xlink="http://www.w3.org/1999/xlink">
 <path d="M0,0 l1000,0 l0,1000 l-1000,0 Z M0,0" fill="rgb(242,242,242)" transform="matrix(1,0,0,-1,0,1000)"/>
 <path d="M259,543 c-12,8.67,-21.5,19.83,-28.5,33.5 c-7,13.67,-10.5,28.17,-10.5,43.5 c0,12.67,2.5,24.83,7.5,36.5 c5,11.67,11.83,21.67,20.5,30 c8.67,8.33,18.67,15,30,20 c11.33,5,23.67,7.5,37,7.5 c12.67,0,24.83,-2.5,36.5,-7.5 c11.67,-5,21.67,-11.67,30,-20 c8.33,-8.33,15,-18.33,20,-30 c5,-11.67,7.5,-23.83,7.5,-36.5 c0,-22,-7,-42,-21,-60 c-14,-18,-31.67,-29.33,-53,-34 l-26,-122 l-76,16 Z M259,543" fill="rgb(0,0,0)" transform="matrix(0.6172839506172839,0.0,0.0,-0.6172839506172839,310.1851851851852,741.358024691358)"/>
</svg>