<?xml version="1.0" encoding="UTF-8"?>
<svg width="1000" height="1000" viewBox="0 0 1000 1000" version="1.1" xmlns="http://www.w3.org/2000/svg" xmlns:xlink="http://www.w3.org/1999/xlink">
 <path d="M118,351 c4.33,1.33,8.83,2.33,13.5,3 c4.67,0.67,9.67,1,15,1 c12.33,0,20.75,-1.83,25.25,-5.5 c4.5,-3.67,6.75,-9.83,6.75,-18.5 c0,-8.0,-0.08,-16.58,-0.25,-25.75 c-0.17,-9.17,-0.58,-18.75,-1.25,-28.75 c38.0,-3.67,65.08,-19.92,81.25,-48.75 c16.17,-28.83,24.25,-73.58,24.25,-134.25 l0,-45 c0,-18.67,1.67,-34.67,5,-48 c-3.33,-1.0,-6.67,-1.75,-10,-2.25 c-3.33,-0.5,-7.17,-0.75,-11.5,-0.75 c-12.33,0,-20.92,2.92,-25.75,8.75 c-4.83,5.83,-7.25,17.42,-7.25,34.75 l0,52 c0,31.67,-1.33,56.67,-4,75 c-2.67,18.33,-6.5,32.17,-11.5,41.5 c-4.67,4.0,-10.58,7.5,-17.75,10.5 c-7.17,3.0,-15.58,5.17,-25.25,6.5 c-0.67,-16.0,-1.33,-32.25,-2,-48.75 c-0.67,-16.5,-1.17,-32.25,-1.5,-47.25 c-0.33,-15.0,-0.58,-28.0,-0.75,-39 c-0.17,-11.0,-0.25,-18.83,-0.25,-23.5 c0,-8.0,0.08,-16.25,0.25,-24.75 c0.17,-8.5,0.42,-16.58,0.75,-24.25 c-3.33,-1.33,-6.67,-2.33,-10,-3 c-3.33,-0.67,-7.0,-1,-11,-1 c-5.33,0,-9.42,1.83,-12.25,5.5 c-2.83,3.67,-4.58,11.0,-5.25,22 c-1.0,26.67,-1.92,55.75,-2.75,87.25 c-0.83,31.5,-1.58,63.58,-2.25,96.25 c-13.33,-2.33,-24.42,-8.67,-33.25,-19 c-8.83,-10.33,-15.42,-25.83,-19.75,-46.5 c-4.33,-20.67,-6.5,-47.83,-6.5,-81.5 l0,-30.5 c0,-19.0,1.67,-35.0,5,-48 c-7.0,-2.0,-15.67,-3,-26,-3 c-12.33,0,-20.25,3.25,-23.75,9.75 c-3.5,6.5,-5.25,17.75,-5.25,33.75 l0,54 c0,56.67,9.33,99.75,28,129.25 c18.67,29.5,44.33,46.75,77,51.75 c-0.67,12.33,-1.5,24.75,-2.5,37.25 c-1.0,12.5,-1.83,25.08,-2.5,37.75 Z M118,351" fill="rgb(0,0,0)" transform="matrix(2.5174825174825175,0.0,0.0,-2.5174825174825175,115.45454545454544,943.7062937062938)"/>
</svg>