<?xml version="1.0" encoding="UTF-8"?>
<svg width="1000" height="1000" viewBox="0 0 1000 1000" version="1.1" xmlns="http://www.w3.org/2000/svg" xmlns:xlink="http://www.w3.org/1999/xlink">
 <path d="M260.5,277.5 c0,-22.33,-3.83,-42.5,-11.5,-60.5 c-7.67,-18.0,-21.58,-35.08,-41.75,-51.25 c-20.17,-16.17,-48.92,-32.75,-86.25,-49.75 l0,-17 c0,-9.33,0.42,-17.42,1.25,-24.25 c0.83,-6.83,2.92,-13.08,6.25,-18.75 c5.0,-3.33,10.67,-5.75,17,-7.25 c6.33,-1.5,13.17,-2.25,20.5,-2.25 c15.33,0,28.58,2.17,39.75,6.5 c11.17,4.33,22.42,11.17,33.75,20.5 l3,0 c1.67,-5.0,2.75,-9.33,3.25,-13 c0.5,-3.67,0.75,-8.0,0.75,-13 c0,-15.33,-6.33,-27.92,-19,-37.75 c-12.67,-9.83,-33.17,-14.75,-61.5,-14.75 l-3,0 c-21.67,0,-39.58,4.0,-53.75,12 c-14.17,8.0,-24.58,18.5,-31.25,31.5 c-6.67,13.0,-10,26.67,-10,41 l0,15 c-9.33,-3.33,-15.67,-5.33,-19,-6 c-3.33,-0.67,-6.0,-1,-8,-1 c-4.33,0,-7.92,2.08,-10.75,6.25 c-2.83,4.17,-4.25,10.58,-4.25,19.25 c0,9.0,1.17,17.5,3.5,25.5 c14.0,4.67,26.83,9.0,38.5,13 l0,129 c0,18.33,4.0,35.25,12,50.75 c8.0,15.5,19.42,28.0,34.25,37.5 c14.83,9.5,32.58,14.25,53.25,14.25 c29.67,0,52.58,-9.25,68.75,-27.75 c16.17,-18.5,24.25,-42.58,24.25,-72.25 Z M121,273 l0,-100 c23.33,10.67,41.25,21.17,53.75,31.5 c12.5,10.33,21.08,21.33,25.75,33 c4.67,11.67,7,24.5,7,38.5 l0,5 c0,15.67,-3.17,28.0,-9.5,37 c-6.33,9.0,-17.83,13.5,-34.5,13.5 c-10.33,0,-19.33,-2.0,-27,-6 c-10.33,-11.67,-15.5,-29.17,-15.5,-52.5 Z M121,273" fill="rgb(0,0,0)" transform="matrix(2.3195876288659796,0.0,0.0,-2.3195876288659796,167.71907216494844,938.4020618556701)"/>
</svg>