<?xml version="1.0" encoding="UTF-8"?>
<svg width="1000" height="1000" viewBox="0 0 1000 1000" version="1.1" xmlns="http://www.w3.org/2000/svg" xmlns:xlink="http://www.w3.org/1999/xlink">
 <path d="M0,0 l1000,0 l0,1000 l-1000,0 Z M0,0" fill="rgb(242,242,242)" transform="matrix(1,0,0,-1,0,1000)"/>
 <path d="M282,-115 c0,-13.33,8.67,-20,26,-20 c9.33,0,16,2.83,20,8.5 c4,5.67,6,12.17,6,19.5 l0,32 l-9,0 c-3.33,-6,-8.5,-10.83,-15.5,-14.5 c-7,-3.67,-16.5,-5.5,-28.5,-5.5 c-24,0,-43.5,8.5,-58.5,25.5 c-15,17,-22.5,38.5,-22.5,64.5 c0,31.33,9.83,55.83,29.5,73.5 c19.67,17.67,45.17,26.5,76.5,26.5 c30,0,55.17,-8.83,75.5,-26.5 c20.33,-17.67,30.5,-42.17,30.5,-73.5 l0,-98 c0,-16,-2.83,-30.33,-8.5,-43 c-5.67,-12.67,-13.33,-23.33,-23,-32 c-9.67,-8.67,-20.83,-15.33,-33.5,-20 c-12.67,-4.67,-25.67,-7,-39,-7 c-29.33,0,-54,8,-74,24 c-20,16,-30,38,-30,66 Z M306,-25 c8,0,14.67,2.17,20,6.5 c5.33,4.33,8,10.17,8,17.5 c0,7.33,-2.67,13.17,-8,17.5 c-5.33,4.33,-12,6.5,-20,6.5 c-8,0,-14.67,-2.17,-20,-6.5 c-5.33,-4.33,-8,-10.17,-8,-17.5 c0,-7.33,2.67,-13.17,8,-17.5 c5.33,-4.33,12,-6.5,20,-6.5 Z M306,-25" fill="rgb(0,0,0)" transform="matrix(0.6172839506172839,0.0,0.0,-0.6172839506172839,310.1851851851852,741.358024691358)"/>
</svg>