<?xml version="1.0" encoding="UTF-8"?>
<svg width="1000" height="1000" viewBox="0 0 1000 1000" version="1.1" xmlns="http://www.w3.org/2000/svg" xmlns:xlink="http://www.w3.org/1999/xlink">
 <path d="M70.5,344 l0,3 c5.0,1.67,10.33,2.92,16,3.75 c5.67,0.83,12.83,1.25,21.5,1.25 c9.67,0,17.5,-1.42,23.5,-4.25 c6.0,-2.83,12.17,-7.92,18.5,-15.25 c7.67,-8.33,15.83,-19.08,24.5,-32.25 c8.67,-13.17,16.83,-27.08,24.5,-41.75 c7.67,-14.67,14.0,-28.5,19,-41.5 c3.67,-9.67,6.08,-17.5,7.25,-23.5 c1.17,-6.0,1.75,-12.17,1.75,-18.5 c0,-6.33,-0.5,-12.5,-1.5,-18.5 c-11.0,-30.33,-23.67,-57.17,-38,-80.5 c-14.33,-23.33,-27.33,-42.67,-39,-58 c-5.33,-7.33,-10.67,-12.33,-16,-15 c-5.33,-2.67,-12.17,-4,-20.5,-4 c-6.67,0,-13.58,0.42,-20.75,1.25 c-7.17,0.83,-14.08,1.92,-20.75,3.25 l0,3 c18.67,24.0,37.08,50.83,55.25,80.5 c18.17,29.67,33.25,59.17,45.25,88.5 c-12.0,32.33,-27.08,62.92,-45.25,91.75 c-18.17,28.83,-36.58,54.42,-55.25,76.75 Z M70.5,344" fill="rgb(0,0,0)" transform="matrix(2.54957507082153,0.0,0.0,-2.54957507082153,120.75070821529746,947.4504249291786)"/>
</svg>