<?xml version="1.0" encoding="UTF-8"?>
<svg width="1000" height="1000" viewBox="0 0 1000 1000" version="1.1" xmlns="http://www.w3.org/2000/svg" xmlns:xlink="http://www.w3.org/1999/xlink">
 <path d="M0,0 l1000,0 l0,1000 l-1000,0 Z M0,0" fill="rgb(242,242,242)" transform="matrix(1,0,0,-1,0,1000)"/>
 <path d="M217,700 l198,0 l0,-105 l-86,-132 c-5.33,-7.33,-9.33,-13.83,-12,-19.5 c-2.67,-5.67,-4,-12.17,-4,-19.5 l0,-12 l-80,0 l0,15 c0,10.67,2.17,20.17,6.5,28.5 c4.33,8.33,10.5,18.5,18.5,30.5 l88,133 l0,9 l-129,0 Z M217,700" fill="rgb(0,0,0)" transform="matrix(0.6172839506172839,0.0,0.0,-0.6172839506172839,310.1851851851852,741.358024691358)"/>
</svg>