<?xml version="1.0" encoding="UTF-8"?>
<svg width="1000" height="1000" viewBox="0 0 1000 1000" version="1.1" xmlns="http://www.w3.org/2000/svg" xmlns:xlink="http://www.w3.org/1999/xlink">
 <path d="M0,0 l1000,0 l0,1000 l-1000,0 Z M0,0" fill="rgb(242,242,242)" transform="matrix(1,0,0,-1,0,1000)"/>
 <path d="M278,700 l132,0 l12,-198 l0,-36 l12,0 l0,36 l12,198 l132,0 l0,-288 l-76,0 l0,234 l-12,0 l0,-36 l-14,-198 l-96,0 l-14,198 l0,36 l-12,0 l0,-234 l-76,0 Z M172,614 c0,6,-2.5,11.17,-7.5,15.5 c-5,4.33,-12.17,6.5,-21.5,6.5 c-9.33,0,-16.17,-2,-20.5,-6 c-4.33,-4,-6.5,-8.67,-6.5,-14 c0,-7.33,3.33,-12.67,10,-16 c6.67,-3.33,18.67,-6.67,36,-10 c34,-6.67,57.83,-17.33,71.5,-32 c13.67,-14.67,20.5,-34.67,20.5,-60 c0,-28,-9.5,-50.33,-28.5,-67 c-19,-16.67,-46.17,-25,-81.5,-25 c-37.33,0,-65.33,9.17,-84,27.5 c-18.67,18.33,-28,41.17,-28,68.5 l0,12 l76,0 l0,-6 c0,-21.33,12.33,-32,37,-32 c11.33,0,19.33,2.17,24,6.5 c4.67,4.33,7,10.17,7,17.5 c0,8,-3.33,14.17,-10,18.5 c-6.67,4.33,-20.33,8.17,-41,11.5 c-10.67,2,-21.17,4.83,-31.5,8.5 c-10.33,3.67,-19.67,8.83,-28,15.5 c-8.33,6.67,-15,15,-20,25 c-5,10,-7.5,22.33,-7.5,37 c0,29.33,10,51.67,30,67 c20,15.33,44.67,23,74,23 c34,0,60.17,-8.33,78.5,-25 c18.33,-16.67,27.5,-37,27.5,-61 l0,-12 l-76,0 Z M172,614" fill="rgb(0,0,0)" transform="matrix(0.6172839506172839,0.0,0.0,-0.6172839506172839,310.1851851851852,741.358024691358)"/>
</svg>