<?xml version="1.0" encoding="UTF-8"?>
<svg width="1000" height="1000" viewBox="0 0 1000 1000" version="1.1" xmlns="http://www.w3.org/2000/svg" xmlns:xlink="http://www.w3.org/1999/xlink">
 <path d="M175.5,37 c0,-15.0,-3.33,-25.5,-10,-31.5 c-6.67,-6.0,-16.33,-9,-29,-9 c-5.33,0,-9.67,0.33,-13,1 c-3.33,0.67,-6.17,1.5,-8.5,2.5 c2.33,7.67,4.17,15.42,5.5,23.25 c1.33,7.83,2,17.25,2,28.25 l0,154 l-36.5,0 c-22.33,0,-37.25,3.5,-44.75,10.5 c-7.5,7.0,-11.25,18.67,-11.25,35 l0,7.5 l92.5,0 l0,9.5 c0,36.67,10.67,65.0,32,85 c21.33,20.0,54.67,30,100,30 c20.0,0,37.67,-1.58,53,-4.75 c15.33,-3.17,25.17,-7.08,29.5,-11.75 c3.67,-3.33,6.08,-7.42,7.25,-12.25 c1.17,-4.83,1.75,-10.42,1.75,-16.75 c0,-3.33,-0.17,-6.83,-0.5,-10.5 c-0.33,-3.67,-1.0,-6.83,-2,-9.5 l-3,0 c-29.67,9.67,-61.67,14.5,-96,14.5 c-15.33,0,-28.42,-0.67,-39.25,-2 c-10.83,-1.33,-20.42,-3.67,-28.75,-7 c-2.0,-8.33,-3,-18.0,-3,-29 c0,-11.0,0.67,-22.83,2,-35.5 l210.5,0 c19.67,0,32.5,-3.83,38.5,-11.5 c-1.0,7.33,-2.5,14.33,-4.5,21 c2.33,1.0,5.58,1.92,9.75,2.75 c4.17,0.83,8.75,1.25,13.75,1.25 c11.33,0,20.17,-2.08,26.5,-6.25 c6.33,-4.17,9.5,-10.58,9.5,-19.25 l0,-180.5 c0,-12.67,0.58,-23.67,1.75,-33 c1.17,-9.33,3.58,-20.33,7.25,-33 c-6.33,-1.33,-12.83,-2,-19.5,-2 c-14.67,0,-25.42,3.58,-32.25,10.75 c-6.83,7.17,-10.25,20.92,-10.25,41.25 l0,155.5 l-251,0 Z M413,377.5 c10.0,3.33,21.5,5,34.5,5 c12.67,0,22.75,-2.08,30.25,-6.25 c7.5,-4.17,11.25,-11.25,11.25,-21.25 l0,-32 c-8.67,-3.33,-19.17,-5,-31.5,-5 c-13.0,0,-23.67,2.83,-32,8.5 c-8.33,5.67,-12.5,13.5,-12.5,23.5 Z M413,377.5" fill="rgb(0,0,0)" transform="matrix(1.9607843137254901,0.0,0.0,-1.9607843137254901,-8.823529411764696,872.0588235294117)"/>
</svg>