<?xml version="1.0" encoding="UTF-8"?>
<svg width="1000" height="1000" viewBox="0 0 1000 1000" version="1.1" xmlns="http://www.w3.org/2000/svg" xmlns:xlink="http://www.w3.org/1999/xlink">
 <path d="M0,0 l1000,0 l0,1000 l-1000,0 Z M0,0" fill="rgb(242,242,242)" transform="matrix(1,0,0,-1,0,1000)"/>
 <path d="M414,496 l126,0 l0,-496 l-126,0 l0,72 l-18,0 c-22,-57.33,-69.33,-86,-142,-86 c-24.67,0,-47.67,4,-69,12 c-21.33,8,-40,20.33,-56,37 c-16,16.67,-28.5,37.5,-37.5,62.5 c-9,25,-13.5,54.5,-13.5,88.5 l0,310 l126,0 l0,-284 c0,-35.33,8.33,-62.83,25,-82.5 c16.67,-19.67,41.67,-29.5,75,-29.5 c38,0,65.83,12.17,83.5,36.5 c17.67,24.33,26.5,57.5,26.5,99.5 Z M201,676 c0,14.67,2.83,28.67,8.5,42 c5.67,13.33,13.33,24.83,23,34.5 c9.67,9.67,21,17.33,34,23 c13,5.67,27.17,8.5,42.5,8.5 c14.67,0,28.67,-2.83,42,-8.5 c13.33,-5.67,24.83,-13.33,34.5,-23 c9.67,-9.67,17.33,-21.17,23,-34.5 c5.67,-13.33,8.5,-27.33,8.5,-42 c0,-15.33,-2.83,-29.5,-8.5,-42.5 c-5.67,-13,-13.33,-24.33,-23,-34 c-9.67,-9.67,-21.17,-17.33,-34.5,-23 c-13.33,-5.67,-27.33,-8.5,-42,-8.5 c-15.33,0,-29.5,2.83,-42.5,8.5 c-13,5.67,-24.33,13.33,-34,23 c-9.67,9.67,-17.33,21,-23,34 c-5.67,13,-8.5,27.17,-8.5,42.5 Z M279,676 c0,-8.67,2.83,-15.83,8.5,-21.5 c5.67,-5.67,12.83,-8.5,21.5,-8.5 c8.67,0,15.83,2.83,21.5,8.5 c5.67,5.67,8.5,12.83,8.5,21.5 c0,8.67,-2.83,15.83,-8.5,21.5 c-5.67,5.67,-12.83,8.5,-21.5,8.5 c-8.67,0,-15.83,-2.83,-21.5,-8.5 c-5.67,-5.67,-8.5,-12.83,-8.5,-21.5 Z M279,676" fill="rgb(0,0,0)" transform="matrix(0.6172839506172839,0.0,0.0,-0.6172839506172839,310.1851851851852,741.358024691358)"/>
</svg>