<?xml version="1.0" encoding="UTF-8"?>
<svg width="1000" height="1000" viewBox="0 0 1000 1000" version="1.1" xmlns="http://www.w3.org/2000/svg" xmlns:xlink="http://www.w3.org/1999/xlink">
 <path d="M130.5,218 l6,0 c21.67,0,32.5,-7.0,32.5,-21 c0.67,-32.0,3.42,-60.0,8.25,-84 c4.83,-24.0,12.58,-46.83,23.25,-68.5 l3,0 c4.0,10.67,7.42,22.0,10.25,34 c2.83,12.0,5.08,26.42,6.75,43.25 c1.67,16.83,2.92,37.25,3.75,61.25 c0.83,24.0,1.25,53.33,1.25,88 c3.0,1.0,6.83,1.5,11.5,1.5 c11.67,0,21.33,-2.25,29,-6.75 c7.67,-4.5,11.5,-11.58,11.5,-21.25 c0,-58.33,-3.58,-108.33,-10.75,-150 c-7.17,-41.67,-20.58,-74.17,-40.25,-97.5 c-5.0,-1.33,-10.5,-2,-16.5,-2 c-4.33,0,-8.42,0.75,-12.25,2.25 c-3.83,1.5,-7.58,4.75,-11.25,9.75 c-15.33,21.0,-27.0,53.67,-35,98 l-3.5,0 c-3.67,-21.33,-8.83,-40.58,-15.5,-57.75 c-6.67,-17.17,-14.83,-33.58,-24.5,-49.25 c-5.0,-2.0,-11.33,-3,-19,-3 c-5.33,0,-9.75,0.75,-13.25,2.25 c-3.5,1.5,-7.58,5.08,-12.25,10.75 c-7.67,10.0,-14.67,25.08,-21,45.25 c-6.33,20.17,-11.33,47.75,-15,82.75 c-3.67,35.0,-5.5,80.0,-5.5,135 c1.67,0.67,3.67,1.08,6,1.25 c2.33,0.17,4.83,0.25,7.5,0.25 c25.33,0,38,-8.83,38,-26.5 c0.33,-38.33,1.25,-70.25,2.75,-95.75 c1.5,-25.5,3.83,-46.58,7,-63.25 c3.17,-16.67,7.25,-31.0,12.25,-43 l3.5,0 c11.67,22.67,19.83,47.75,24.5,75.25 c4.67,27.5,7,60.42,7,98.75 Z M130.5,218" fill="rgb(0,0,0)" transform="matrix(3.2432432432432434,0.0,0.0,-3.2432432432432434,14.324324324324323,933.7837837837837)"/>
</svg>