<?xml version="1.0" encoding="UTF-8"?>
<svg width="1000" height="1000" viewBox="0 0 1000 1000" version="1.1" xmlns="http://www.w3.org/2000/svg" xmlns:xlink="http://www.w3.org/1999/xlink">
 <path d="M24,267.5 c7.67,2.0,16.83,3,27.5,3 c13.33,0,23.5,-1.33,30.5,-4 c7.0,-2.67,12.17,-7.33,15.5,-14 c8.33,-18.0,17.17,-35.5,26.5,-52.5 c9.33,-17.0,19.67,-33.5,31,-49.5 l3,0 c13.0,18.0,24.83,36.75,35.5,56.25 c10.67,19.5,20.5,40.92,29.5,64.25 l8.5,0 c13.0,0,23.5,-1.58,31.5,-4.75 c8.0,-3.17,12,-8.58,12,-16.25 c0,-3.33,-1.0,-7.5,-3,-12.5 c-10.67,-24.0,-23.25,-46.42,-37.75,-67.25 c-14.5,-20.83,-31.25,-41.25,-50.25,-61.25 c14.67,-18.67,30.17,-36.75,46.5,-54.25 c16.33,-17.5,33.33,-34.08,51,-49.75 c-9.0,-7.0,-21.0,-10.5,-36,-10.5 c-10.33,0,-18.42,1.33,-24.25,4 c-5.83,2.67,-11.75,7.17,-17.75,13.5 c-18.0,17.67,-36.33,37.5,-55,59.5 l-3,0 c-20.0,-27.33,-42.33,-52.83,-67,-76.5 l-4,0 c-17.33,0,-29.67,1.92,-37,5.75 c-7.33,3.83,-11,9.25,-11,16.25 c0,3.0,0.83,5.75,2.5,8.25 c1.67,2.5,4.83,5.58,9.5,9.25 c31.0,24.0,58.0,48.5,81,73.5 c-18.0,24.33,-35.08,49.83,-51.25,76.5 c-16.17,26.67,-30.92,54.33,-44.25,83 Z M24,267.5" fill="rgb(0,0,0)" transform="matrix(3.2549728752260396,0.0,0.0,-3.2549728752260396,2.8028933092224406,932.0976491862568)"/>
</svg>