<?xml version="1.0" encoding="UTF-8"?>
<svg width="1000" height="1000" viewBox="0 0 1000 1000" version="1.1" xmlns="http://www.w3.org/2000/svg" xmlns:xlink="http://www.w3.org/1999/xlink">
 <path d="M46.5,269.5 c12.67,0,22.42,-1.92,29.25,-5.75 c6.83,-3.83,10.75,-11.58,11.75,-23.25 c4.67,-53.33,14.42,-96.92,29.25,-130.75 c14.83,-33.83,33.75,-57.08,56.75,-69.75 l3.5,0 c9.67,23.0,17.83,52.75,24.5,89.25 c6.67,36.5,11.0,82.42,13,137.75 c8.0,2.0,14.83,3,20.5,3 c12.0,0,21.33,-2.33,28,-7 c6.67,-4.67,9.5,-13.0,8.5,-25 c-4.67,-53.0,-11.67,-98.25,-21,-135.75 c-9.33,-37.5,-20.58,-69.0,-33.75,-94.5 c-13.17,-25.5,-28.25,-46.75,-45.25,-63.75 c-14.0,-14.0,-28.33,-24.83,-43,-32.5 c-14.67,-7.67,-29.5,-11.5,-44.5,-11.5 c-9.33,0,-17.0,3.0,-23,9 c-7.67,7.67,-11.5,21.33,-11.5,41 l0,1.5 l10.5,0 c14.67,0,29.0,2.92,43,8.75 c14.0,5.83,27.33,14.92,40,27.25 c6.33,6.33,12.17,13.5,17.5,21.5 c-25.33,2.33,-46.5,13.5,-63.5,33.5 c-7.0,8.33,-14.08,18.33,-21.25,30 c-7.17,11.67,-13.92,26.0,-20.25,43 c-6.33,17.0,-12.0,37.92,-17,62.75 c-5.0,24.83,-9.17,54.42,-12.5,88.75 c3.67,1.0,7.08,1.67,10.25,2 c3.17,0.33,6.58,0.5,10.25,0.5 Z M137.5,408 l12,0 c6.67,0,12.58,-0.75,17.75,-2.25 c5.17,-1.5,12.25,-5.58,21.25,-12.25 c11.33,-8.0,22.92,-18.08,34.75,-30.25 c11.83,-12.17,21.92,-26.58,30.25,-43.25 c-7.67,-5.0,-17.5,-7.5,-29.5,-7.5 c-5.67,0,-10.25,1.08,-13.75,3.25 c-3.5,2.17,-7.58,6.42,-12.25,12.75 c-5.67,7.0,-12.0,13.67,-19,20 c-7.0,6.33,-16.33,13.0,-28,20 l-1.5,0 c-14.67,-10.0,-26.58,-19.67,-35.75,-29 c-9.17,-9.33,-16.42,-18.5,-21.75,-27.5 l-3,0 c-11.67,0,-20.5,1.33,-26.5,4 c-6.0,2.67,-9,5.83,-9,9.5 c0,2.67,1.0,6.25,3,10.75 c2.0,4.5,5.33,9.92,10,16.25 c8.33,11.33,19.08,22.08,32.25,32.25 c13.17,10.17,26.08,17.92,38.75,23.25 Z M137.5,408" fill="rgb(0,0,0)" transform="matrix(1.7716535433070866,0.0,0.0,-1.7716535433070866,236.29321887846572,772.8346456692914)"/>
</svg>