<?xml version="1.0" encoding="UTF-8"?>
<svg width="1000" height="1000" viewBox="0 0 1000 1000" version="1.1" xmlns="http://www.w3.org/2000/svg" xmlns:xlink="http://www.w3.org/1999/xlink">
 <path d="M184,-1.5 c-4.33,-1.0,-8.25,-1.75,-11.75,-2.25 c-3.5,-0.5,-7.58,-0.75,-12.25,-0.75 c-14.67,0,-24.67,3.5,-30,10.5 c-5.33,7.0,-8,17.0,-8,30 l0,77.5 c-1.33,1.0,-2.83,2.33,-4.5,4 c-17.33,17.67,-32.08,36.75,-44.25,57.25 c-12.17,20.5,-22.25,44.92,-30.25,73.25 c-8.0,28.33,-14.83,62.83,-20.5,103.5 c7.67,2.0,15.5,3,23.5,3 c10.67,0,19.0,-2.42,25,-7.25 c6.0,-4.83,10.0,-14.58,12,-29.25 c3.33,-22.0,7.42,-41.92,12.25,-59.75 c4.83,-17.83,11.25,-35.08,19.25,-51.75 c8.0,-16.67,18.5,-34.67,31.5,-54 l5,0 c15.33,20.67,27.58,40.58,36.75,59.75 c9.17,19.17,16.42,39.83,21.75,62 c5.33,22.17,9.67,47.92,13,77.25 c7.67,2.0,15.5,3,23.5,3 c10.33,0,18.0,-2.42,23,-7.25 c5.0,-4.83,7.17,-11.08,6.5,-18.75 c-5.33,-48.33,-16.58,-90.17,-33.75,-125.5 c-17.17,-35.33,-38.42,-65.67,-63.75,-91 l0,-59 c0,-9.67,0.42,-19.0,1.25,-28 c0.83,-9.0,2.42,-17.83,4.75,-26.5 Z M66.5,457.5 c3.67,0.67,7.75,1.08,12.25,1.25 c4.5,0.17,8.58,0.25,12.25,0.25 c9.67,0,18.25,-1.42,25.75,-4.25 c7.5,-2.83,11.25,-8.58,11.25,-17.25 l0,-39 c-4.0,-0.67,-8.17,-1.17,-12.5,-1.5 c-4.33,-0.33,-8.5,-0.5,-12.5,-0.5 c-9.33,0,-17.75,1.58,-25.25,4.75 c-7.5,3.17,-11.25,8.92,-11.25,17.25 Z M172,457.5 c8.0,1.0,16.17,1.5,24.5,1.5 c9.67,0,18.25,-1.42,25.75,-4.25 c7.5,-2.83,11.25,-8.58,11.25,-17.25 l0,-39 c-3.67,-0.67,-7.75,-1.17,-12.25,-1.5 c-4.5,-0.33,-8.75,-0.5,-12.75,-0.5 c-9.33,0,-17.75,1.58,-25.25,4.75 c-7.5,3.17,-11.25,8.92,-11.25,17.25 Z M172,457.5" fill="rgb(0,0,0)" transform="matrix(1.941747572815534,0.0,0.0,-1.941747572815534,210.56538942649493,941.2621359223301)"/>
</svg>