<?xml version="1.0" encoding="UTF-8"?>
<svg width="1000" height="1000" viewBox="0 0 1000 1000" version="1.1" xmlns="http://www.w3.org/2000/svg" xmlns:xlink="http://www.w3.org/1999/xlink">
 <path d="M12.5,204 l45.5,0 c-7.67,18.0,-14.42,39.0,-20.25,63 c-5.83,24.0,-10.92,52.17,-15.25,84.5 c7.67,2.0,15.17,3,22.5,3 c10.33,0,18.75,-2.17,25.25,-6.5 c6.5,-4.33,10.42,-12.33,11.75,-24 c4.0,-24.0,8.5,-45.25,13.5,-63.75 c5.0,-18.5,11.5,-36.25,19.5,-53.25 c8.0,-17.0,18.33,-35.17,31,-54.5 l5,0 c14.33,18.67,26.17,37.33,35.5,56 c9.33,18.67,16.75,39.33,22.25,62 c5.5,22.67,10.08,49.67,13.75,81 c7.67,2.0,15.17,3,22.5,3 c10.0,0,17.75,-2.42,23.25,-7.25 c5.5,-4.83,7.92,-11.08,7.25,-18.75 c-2.67,-24.67,-6.92,-47.25,-12.75,-67.75 c-5.83,-20.5,-12.92,-39.42,-21.25,-56.75 l21.5,0 c10.33,0,17.42,-2.17,21.25,-6.5 c3.83,-4.33,5.75,-11.33,5.75,-21 c0,-3.0,-0.17,-6.25,-0.5,-9.75 c-0.33,-3.5,-0.83,-6.92,-1.5,-10.25 l-74.5,0 c-5.33,-7.67,-11.0,-14.92,-17,-21.75 c-6.0,-6.83,-12.17,-13.25,-18.5,-19.25 l0,-13 l71.5,0 c14.67,0,24.58,-2.75,29.75,-8.25 c5.17,-5.5,7.75,-14.75,7.75,-27.75 c0,-2.0,-0.08,-4.0,-0.25,-6 c-0.17,-2.0,-0.42,-3.83,-0.75,-5.5 l-108,0 l0,-2 c0,-9.67,0.42,-19.0,1.25,-28 c0.83,-9.0,2.42,-17.83,4.75,-26.5 c-4.33,-1.0,-8.17,-1.75,-11.5,-2.25 c-3.33,-0.5,-7.17,-0.75,-11.5,-0.75 c-15.67,0,-26.08,3.83,-31.25,11.5 c-5.17,7.67,-7.75,17.33,-7.75,29 l0,19 l-78,0 c-11.33,0,-19.33,2.75,-24,8.25 c-4.67,5.5,-7,13.42,-7,23.75 c0,2.67,0.08,5.17,0.25,7.5 c0.17,2.33,0.42,5.0,0.75,8 l108,0 l0,13 c-7.0,6.0,-13.58,12.42,-19.75,19.25 c-6.17,6.83,-12.08,14.08,-17.75,21.75 l-38,0 c-14.67,0,-24.42,2.92,-29.25,8.75 c-4.83,5.83,-7.25,13.42,-7.25,22.75 c0,3.33,0.33,6.33,1,9 c0.67,2.67,1.17,5.0,1.5,7 Z M12.5,204" fill="rgb(0,0,0)" transform="matrix(2.5069637883008355,0.0,0.0,-2.5069637883008355,123.95543175487467,938.7186629526462)"/>
</svg>