<?xml version="1.0" encoding="UTF-8"?>
<svg width="1000" height="1000" viewBox="0 0 1000 1000" version="1.1" xmlns="http://www.w3.org/2000/svg" xmlns:xlink="http://www.w3.org/1999/xlink">
 <path d="M0,0 l1000,0 l0,1000 l-1000,0 Z M0,0" fill="rgb(242,242,242)" transform="matrix(1,0,0,-1,0,1000)"/>
 <path d="M115,390 l57,0 l-87,208 l134,0 l81,-208 l12,0 l81,208 l134,0 l-87,-208 l57,0 l0,-96 l-128,0 l0,-30 l128,0 l0,-96 l-128,0 l0,-66 l-126,0 l0,66 l-128,0 l0,96 l128,0 l0,30 l-128,0 Z M115,390" fill="rgb(0,0,0)" transform="matrix(0.6172839506172839,0.0,0.0,-0.6172839506172839,310.1851851851852,741.358024691358)"/>
</svg>