<?xml version="1.0" encoding="UTF-8"?>
<svg width="1000" height="1000" viewBox="0 0 1000 1000" version="1.1" xmlns="http://www.w3.org/2000/svg" xmlns:xlink="http://www.w3.org/1999/xlink">
 <path d="M0,0 l1000,0 l0,1000 l-1000,0 Z M0,0" fill="rgb(242,242,242)" transform="matrix(1,0,0,-1,0,1000)"/>
 <path d="M523,120 l0,-120 l-432,0 l0,210 l312,152 l0,18 l-306,0 l0,116 l414,0 l0,-204 l-312,-154 l0,-18 Z M476,706 l-84,-136 l-172,0 l-84,136 l121,0 l43,-88 l12,0 l43,88 Z M476,706" fill="rgb(0,0,0)" transform="matrix(0.6172839506172839,0.0,0.0,-0.6172839506172839,310.1851851851852,741.358024691358)"/>
</svg>