<?xml version="1.0" encoding="UTF-8"?>
<svg width="1000" height="1000" viewBox="0 0 1000 1000" version="1.1" xmlns="http://www.w3.org/2000/svg" xmlns:xlink="http://www.w3.org/1999/xlink">
 <path d="M0,0 l1000,0 l0,1000 l-1000,0 Z M0,0" fill="rgb(242,242,242)" transform="matrix(1,0,0,-1,0,1000)"/>
 <path d="M234,248 c0,19.33,7.17,36.17,21.5,50.5 c14.33,14.33,31.17,21.5,50.5,21.5 c19.33,0,36.17,-7.17,50.5,-21.5 c14.33,-14.33,21.5,-31.17,21.5,-50.5 c0,-19.33,-7.17,-36.17,-21.5,-50.5 c-14.33,-14.33,-31.17,-21.5,-50.5,-21.5 c-19.33,0,-36.17,7.17,-50.5,21.5 c-14.33,14.33,-21.5,31.17,-21.5,50.5 Z M564,242 c0,-41.33,-7,-77.83,-21,-109.5 c-14,-31.67,-33,-58.33,-57,-80 c-24,-21.67,-51.5,-38.17,-82.5,-49.5 c-31,-11.33,-63.5,-17,-97.5,-17 c-34,0,-66.5,5.67,-97.5,17 c-31,11.33,-58.5,27.83,-82.5,49.5 c-24,21.67,-43,48.33,-57,80 c-14,31.67,-21,68.17,-21,109.5 l0,12 c0,40.67,7,76.83,21,108.5 c14,31.67,33,58.5,57,80.5 c24,22,51.5,38.67,82.5,50 c31,11.33,63.5,17,97.5,17 c34,0,66.5,-5.67,97.5,-17 c31,-11.33,58.5,-28,82.5,-50 c24,-22,43,-48.83,57,-80.5 c14,-31.67,21,-67.83,21,-108.5 Z M306,112 c36,0,66,11.67,90,35 c24,23.33,36,55,36,95 l0,12 c0,40,-12,71.67,-36,95 c-24,23.33,-54,35,-90,35 c-36,0,-66,-11.67,-90,-35 c-24,-23.33,-36,-55,-36,-95 l0,-12 c0,-40,12,-71.67,36,-95 c24,-23.33,54,-35,90,-35 Z M306,112" fill="rgb(0,0,0)" transform="matrix(0.6172839506172839,0.0,0.0,-0.6172839506172839,310.1851851851852,741.358024691358)"/>
</svg>